%TF.GenerationSoftware,KiCad,Pcbnew,(5.1.5)-3*%
%TF.CreationDate,2019-12-18T19:09:43+01:00*%
%TF.ProjectId,stmbl_4.0,73746d62-6c5f-4342-9e30-2e6b69636164,rev?*%
%TF.SameCoordinates,PXbcd3d80PY2f71ff0*%
%TF.FileFunction,Soldermask,Bot*%
%TF.FilePolarity,Negative*%
%FSLAX46Y46*%
G04 Gerber Fmt 4.6, Leading zero omitted, Abs format (unit mm)*
G04 Created by KiCad (PCBNEW (5.1.5)-3) date 2019-12-18 19:09:43*
%MOMM*%
%LPD*%
G04 APERTURE LIST*
%ADD10C,0.150000*%
%ADD11C,0.450000*%
%ADD12C,0.100000*%
G04 APERTURE END LIST*
D10*
G36*
X-52000000Y-60500000D02*
G01*
X-29000000Y-60500000D01*
X-29000000Y-62750000D01*
X-53250000Y-62750000D01*
X-61500000Y-54500000D01*
X-58000000Y-54500000D01*
X-52000000Y-60500000D01*
G37*
X-52000000Y-60500000D02*
X-29000000Y-60500000D01*
X-29000000Y-62750000D01*
X-53250000Y-62750000D01*
X-61500000Y-54500000D01*
X-58000000Y-54500000D01*
X-52000000Y-60500000D01*
X-70500000Y-50750000D02*
X-70500000Y-50250000D01*
X-62500000Y-50750000D02*
X-62500000Y-50250000D01*
X-66000000Y-46750000D02*
X-67000000Y-46750000D01*
X-57500000Y-51750000D02*
X-61500000Y-51750000D01*
X-71500000Y-51750000D02*
G75*
G03X-70500000Y-50750000I0J1000000D01*
G01*
X-67000000Y-46750000D02*
G75*
G03X-70500000Y-50250000I0J-3500000D01*
G01*
X-62500000Y-50250000D02*
G75*
G03X-66000000Y-46750000I-3500000J0D01*
G01*
X-62500000Y-50750000D02*
G75*
G03X-61500000Y-51750000I1000000J0D01*
G01*
X-88000000Y-51750000D02*
X-87000000Y-51750000D01*
X-26500000Y-54750000D02*
G75*
G03X-27500000Y-55750000I0J-1000000D01*
G01*
X-30500000Y-55750000D02*
G75*
G03X-31500000Y-54750000I-1000000J0D01*
G01*
X-26500000Y-54750000D02*
X-18000000Y-54750000D01*
X-27500000Y-61250000D02*
X-27500000Y-55750000D01*
X-30500000Y-61250000D02*
X-30500000Y-55750000D01*
X-30500000Y-61250000D02*
G75*
G03X-27500000Y-61250000I1500000J0D01*
G01*
X-94250000Y-42750000D02*
G75*
G03X-95750000Y-41250000I-1500000J0D01*
G01*
X-89000000Y-48250000D02*
G75*
G03X-90500000Y-46750000I-1500000J0D01*
G01*
X-87000000Y-54750000D02*
G75*
G03X-87000000Y-51750000I0J1500000D01*
G01*
X-87000000Y-54750000D02*
G75*
G03X-88000000Y-55750000I0J-1000000D01*
G01*
X-89000000Y-50750000D02*
G75*
G03X-88000000Y-51750000I1000000J0D01*
G01*
X-94250000Y-45750000D02*
G75*
G03X-93250000Y-46750000I1000000J0D01*
G01*
X0Y-56250000D02*
G75*
G03X-1000000Y-55250000I-1000000J0D01*
G01*
X0Y-1000000D02*
G75*
G03X-1000000Y0I-1000000J0D01*
G01*
X-99000000Y0D02*
G75*
G03X-100000000Y-1000000I0J-1000000D01*
G01*
X-100000000Y-40250000D02*
G75*
G03X-99000000Y-41250000I1000000J0D01*
G01*
X-88000000Y-99000000D02*
G75*
G03X-87000000Y-100000000I1000000J0D01*
G01*
X-1000000Y-100000000D02*
G75*
G03X0Y-99000000I0J1000000D01*
G01*
X-1000000Y-52250000D02*
G75*
G03X0Y-51250000I0J1000000D01*
G01*
X-71500000Y-51750000D02*
X-81500000Y-51750000D01*
X-81500000Y-54750000D02*
X-57500000Y-54750000D01*
X-81500000Y-51750000D02*
G75*
G03X-81500000Y-54750000I0J-1500000D01*
G01*
X-12500000Y-55250000D02*
X-1000000Y-55250000D01*
X-12500000Y-52250000D02*
X-1000000Y-52250000D01*
X-18000000Y-54750000D02*
G75*
G03X-18000000Y-51750000I0J1500000D01*
G01*
X-12500000Y-52250000D02*
G75*
G03X-12500000Y-55250000I0J-1500000D01*
G01*
X-51000000Y-54750000D02*
X-31500000Y-54750000D01*
X-52000000Y-51750000D02*
X-18000000Y-51750000D01*
X-57500000Y-54750000D02*
G75*
G03X-57500000Y-51750000I0J1500000D01*
G01*
X-51000000Y-51750000D02*
G75*
G03X-51000000Y-54750000I0J-1500000D01*
G01*
X-90500000Y-46750000D02*
X-93250000Y-46750000D01*
X0Y-99000000D02*
X0Y-56250000D01*
X-89000000Y-48250000D02*
X-89000000Y-50750000D01*
X-94250000Y-42750000D02*
X-94250000Y-45750000D01*
X-99000000Y-41250000D02*
X-95750000Y-41250000D01*
X-100000000Y-1000000D02*
X-100000000Y-40250000D01*
X-1000000Y0D02*
X-99000000Y0D01*
X0Y-51250000D02*
X0Y-1000000D01*
X-87000000Y-100000000D02*
X-1000000Y-100000000D01*
X-88000000Y-55750000D02*
X-88000000Y-99000000D01*
D11*
X-22750000Y-63000000D02*
X-21250000Y-63000000D01*
D12*
G36*
X-80752066Y-96182664D02*
G01*
X-80597375Y-96246739D01*
X-80597374Y-96246740D01*
X-80458156Y-96339762D01*
X-80339762Y-96458156D01*
X-80339761Y-96458158D01*
X-80246739Y-96597375D01*
X-80182664Y-96752066D01*
X-80150000Y-96916281D01*
X-80150000Y-97083719D01*
X-80182664Y-97247934D01*
X-80246739Y-97402625D01*
X-80246740Y-97402626D01*
X-80339762Y-97541844D01*
X-80458156Y-97660238D01*
X-80528238Y-97707065D01*
X-80597375Y-97753261D01*
X-80752066Y-97817336D01*
X-80916281Y-97850000D01*
X-81083719Y-97850000D01*
X-81247934Y-97817336D01*
X-81402625Y-97753261D01*
X-81471762Y-97707065D01*
X-81541844Y-97660238D01*
X-81660238Y-97541844D01*
X-81753260Y-97402626D01*
X-81753261Y-97402625D01*
X-81817336Y-97247934D01*
X-81850000Y-97083719D01*
X-81850000Y-96916281D01*
X-81817336Y-96752066D01*
X-81753261Y-96597375D01*
X-81660239Y-96458158D01*
X-81660238Y-96458156D01*
X-81541844Y-96339762D01*
X-81402626Y-96246740D01*
X-81402625Y-96246739D01*
X-81247934Y-96182664D01*
X-81083719Y-96150000D01*
X-80916281Y-96150000D01*
X-80752066Y-96182664D01*
G37*
G36*
X-80752066Y-92682664D02*
G01*
X-80597375Y-92746739D01*
X-80597374Y-92746740D01*
X-80458156Y-92839762D01*
X-80339762Y-92958156D01*
X-80339761Y-92958158D01*
X-80246739Y-93097375D01*
X-80182664Y-93252066D01*
X-80150000Y-93416281D01*
X-80150000Y-93583719D01*
X-80182664Y-93747934D01*
X-80246739Y-93902625D01*
X-80246740Y-93902626D01*
X-80339762Y-94041844D01*
X-80458156Y-94160238D01*
X-80528238Y-94207065D01*
X-80597375Y-94253261D01*
X-80752066Y-94317336D01*
X-80916281Y-94350000D01*
X-81083719Y-94350000D01*
X-81247934Y-94317336D01*
X-81402625Y-94253261D01*
X-81471762Y-94207065D01*
X-81541844Y-94160238D01*
X-81660238Y-94041844D01*
X-81753260Y-93902626D01*
X-81753261Y-93902625D01*
X-81817336Y-93747934D01*
X-81850000Y-93583719D01*
X-81850000Y-93416281D01*
X-81817336Y-93252066D01*
X-81753261Y-93097375D01*
X-81660239Y-92958158D01*
X-81660238Y-92958156D01*
X-81541844Y-92839762D01*
X-81402626Y-92746740D01*
X-81402625Y-92746739D01*
X-81247934Y-92682664D01*
X-81083719Y-92650000D01*
X-80916281Y-92650000D01*
X-80752066Y-92682664D01*
G37*
G36*
X-40869755Y-87429311D02*
G01*
X-40710344Y-87477668D01*
X-40563436Y-87556192D01*
X-40432760Y-87663436D01*
X-40416822Y-87679374D01*
X-40416816Y-87679379D01*
X-39179379Y-88916816D01*
X-39179374Y-88916822D01*
X-39163436Y-88932760D01*
X-39056192Y-89063436D01*
X-38977668Y-89210344D01*
X-38929311Y-89369755D01*
X-38912984Y-89535534D01*
X-38929311Y-89701313D01*
X-38977668Y-89860724D01*
X-39056192Y-90007632D01*
X-39163436Y-90138308D01*
X-39179374Y-90154246D01*
X-39179379Y-90154252D01*
X-40416816Y-91391689D01*
X-40416822Y-91391694D01*
X-40432760Y-91407632D01*
X-40563436Y-91514876D01*
X-40710344Y-91593400D01*
X-40869755Y-91641757D01*
X-41035534Y-91658084D01*
X-41201313Y-91641757D01*
X-41360724Y-91593400D01*
X-41507632Y-91514876D01*
X-41638308Y-91407632D01*
X-41654246Y-91391694D01*
X-41654252Y-91391689D01*
X-42891689Y-90154252D01*
X-42891694Y-90154246D01*
X-42907632Y-90138308D01*
X-43014876Y-90007632D01*
X-43093400Y-89860724D01*
X-43141757Y-89701313D01*
X-43158084Y-89535534D01*
X-43141757Y-89369755D01*
X-43093400Y-89210344D01*
X-43014876Y-89063436D01*
X-42907632Y-88932760D01*
X-42891694Y-88916822D01*
X-42891689Y-88916816D01*
X-41654252Y-87679379D01*
X-41654246Y-87679374D01*
X-41638308Y-87663436D01*
X-41507632Y-87556192D01*
X-41360724Y-87477668D01*
X-41201313Y-87429311D01*
X-41035534Y-87412984D01*
X-40869755Y-87429311D01*
G37*
G36*
X-60798687Y-87429311D02*
G01*
X-60639276Y-87477668D01*
X-60492368Y-87556192D01*
X-60361692Y-87663436D01*
X-60345754Y-87679374D01*
X-60345748Y-87679379D01*
X-59108311Y-88916816D01*
X-59108306Y-88916822D01*
X-59092368Y-88932760D01*
X-58985124Y-89063436D01*
X-58906600Y-89210344D01*
X-58858243Y-89369755D01*
X-58841916Y-89535534D01*
X-58858243Y-89701313D01*
X-58906600Y-89860724D01*
X-58985124Y-90007632D01*
X-59092368Y-90138308D01*
X-59108306Y-90154246D01*
X-59108311Y-90154252D01*
X-60345748Y-91391689D01*
X-60345754Y-91391694D01*
X-60361692Y-91407632D01*
X-60492368Y-91514876D01*
X-60639276Y-91593400D01*
X-60798687Y-91641757D01*
X-60964466Y-91658084D01*
X-61130245Y-91641757D01*
X-61289656Y-91593400D01*
X-61436564Y-91514876D01*
X-61567240Y-91407632D01*
X-61583178Y-91391694D01*
X-61583184Y-91391689D01*
X-62820621Y-90154252D01*
X-62820626Y-90154246D01*
X-62836564Y-90138308D01*
X-62943808Y-90007632D01*
X-63022332Y-89860724D01*
X-63070689Y-89701313D01*
X-63087016Y-89535534D01*
X-63070689Y-89369755D01*
X-63022332Y-89210344D01*
X-62943808Y-89063436D01*
X-62836564Y-88932760D01*
X-62820626Y-88916822D01*
X-62820621Y-88916816D01*
X-61583184Y-87679379D01*
X-61583178Y-87679374D01*
X-61567240Y-87663436D01*
X-61436564Y-87556192D01*
X-61289656Y-87477668D01*
X-61130245Y-87429311D01*
X-60964466Y-87412984D01*
X-60798687Y-87429311D01*
G37*
G36*
X-80343701Y-82236465D02*
G01*
X-80209372Y-82292106D01*
X-79934225Y-82406076D01*
X-79565708Y-82652311D01*
X-79252311Y-82965708D01*
X-79033353Y-83293402D01*
X-79006075Y-83334227D01*
X-78836465Y-83743701D01*
X-78750000Y-84178393D01*
X-78750000Y-84621607D01*
X-78836465Y-85056299D01*
X-78836466Y-85056301D01*
X-79006076Y-85465775D01*
X-79144023Y-85672227D01*
X-79148640Y-85680866D01*
X-79151485Y-85690246D01*
X-79152446Y-85700000D01*
X-79151485Y-85709754D01*
X-79148640Y-85719134D01*
X-79144023Y-85727773D01*
X-79006076Y-85934225D01*
X-79006075Y-85934227D01*
X-78836465Y-86343701D01*
X-78750000Y-86778393D01*
X-78750000Y-87221607D01*
X-78836465Y-87656299D01*
X-78836466Y-87656301D01*
X-79006076Y-88065775D01*
X-79252311Y-88434292D01*
X-79565708Y-88747689D01*
X-79934225Y-88993924D01*
X-79934226Y-88993925D01*
X-79934227Y-88993925D01*
X-80343701Y-89163535D01*
X-80778393Y-89250000D01*
X-81221607Y-89250000D01*
X-81656299Y-89163535D01*
X-82065773Y-88993925D01*
X-82065774Y-88993925D01*
X-82065775Y-88993924D01*
X-82434292Y-88747689D01*
X-82747689Y-88434292D01*
X-82993924Y-88065775D01*
X-83163534Y-87656301D01*
X-83163535Y-87656299D01*
X-83250000Y-87221607D01*
X-83250000Y-86778393D01*
X-83163535Y-86343701D01*
X-82993925Y-85934227D01*
X-82993924Y-85934225D01*
X-82855977Y-85727773D01*
X-82851360Y-85719134D01*
X-82848515Y-85709754D01*
X-82847554Y-85700000D01*
X-82848515Y-85690246D01*
X-82851360Y-85680866D01*
X-82855977Y-85672227D01*
X-82993924Y-85465775D01*
X-83163534Y-85056301D01*
X-83163535Y-85056299D01*
X-83250000Y-84621607D01*
X-83250000Y-84178393D01*
X-83163535Y-83743701D01*
X-82993925Y-83334227D01*
X-82966647Y-83293402D01*
X-82747689Y-82965708D01*
X-82434292Y-82652311D01*
X-82065775Y-82406076D01*
X-81790628Y-82292106D01*
X-81656299Y-82236465D01*
X-81221607Y-82150000D01*
X-80778393Y-82150000D01*
X-80343701Y-82236465D01*
G37*
G36*
X-20343701Y-82236465D02*
G01*
X-20209372Y-82292106D01*
X-19934225Y-82406076D01*
X-19565708Y-82652311D01*
X-19252311Y-82965708D01*
X-19033353Y-83293402D01*
X-19006075Y-83334227D01*
X-18836465Y-83743701D01*
X-18750000Y-84178393D01*
X-18750000Y-84621607D01*
X-18836465Y-85056299D01*
X-18836466Y-85056301D01*
X-19006076Y-85465775D01*
X-19144023Y-85672227D01*
X-19148640Y-85680866D01*
X-19151485Y-85690246D01*
X-19152446Y-85700000D01*
X-19151485Y-85709754D01*
X-19148640Y-85719134D01*
X-19144023Y-85727773D01*
X-19006076Y-85934225D01*
X-19006075Y-85934227D01*
X-18836465Y-86343701D01*
X-18750000Y-86778393D01*
X-18750000Y-87221607D01*
X-18836465Y-87656299D01*
X-18836466Y-87656301D01*
X-19006076Y-88065775D01*
X-19252311Y-88434292D01*
X-19565708Y-88747689D01*
X-19934225Y-88993924D01*
X-19934226Y-88993925D01*
X-19934227Y-88993925D01*
X-20343701Y-89163535D01*
X-20778393Y-89250000D01*
X-21221607Y-89250000D01*
X-21656299Y-89163535D01*
X-22065773Y-88993925D01*
X-22065774Y-88993925D01*
X-22065775Y-88993924D01*
X-22434292Y-88747689D01*
X-22747689Y-88434292D01*
X-22993924Y-88065775D01*
X-23163534Y-87656301D01*
X-23163535Y-87656299D01*
X-23250000Y-87221607D01*
X-23250000Y-86778393D01*
X-23163535Y-86343701D01*
X-22993925Y-85934227D01*
X-22993924Y-85934225D01*
X-22855977Y-85727773D01*
X-22851360Y-85719134D01*
X-22848515Y-85709754D01*
X-22847554Y-85700000D01*
X-22848515Y-85690246D01*
X-22851360Y-85680866D01*
X-22855977Y-85672227D01*
X-22993924Y-85465775D01*
X-23163534Y-85056301D01*
X-23163535Y-85056299D01*
X-23250000Y-84621607D01*
X-23250000Y-84178393D01*
X-23163535Y-83743701D01*
X-22993925Y-83334227D01*
X-22966647Y-83293402D01*
X-22747689Y-82965708D01*
X-22434292Y-82652311D01*
X-22065775Y-82406076D01*
X-21790628Y-82292106D01*
X-21656299Y-82236465D01*
X-21221607Y-82150000D01*
X-20778393Y-82150000D01*
X-20343701Y-82236465D01*
G37*
G36*
X-33679407Y-80736883D02*
G01*
X-33454010Y-80781717D01*
X-33135530Y-80913636D01*
X-32848906Y-81105152D01*
X-32605152Y-81348906D01*
X-32413636Y-81635530D01*
X-32281717Y-81954010D01*
X-32214466Y-82292106D01*
X-32214466Y-82636826D01*
X-32281717Y-82974922D01*
X-32413636Y-83293402D01*
X-32605152Y-83580026D01*
X-32848906Y-83823780D01*
X-33135530Y-84015296D01*
X-33454010Y-84147215D01*
X-33610759Y-84178394D01*
X-33792105Y-84214466D01*
X-34136827Y-84214466D01*
X-34318173Y-84178394D01*
X-34474922Y-84147215D01*
X-34793402Y-84015296D01*
X-35080026Y-83823780D01*
X-35323780Y-83580026D01*
X-35515296Y-83293402D01*
X-35647215Y-82974922D01*
X-35714466Y-82636826D01*
X-35714466Y-82292106D01*
X-35647215Y-81954010D01*
X-35515296Y-81635530D01*
X-35323780Y-81348906D01*
X-35080026Y-81105152D01*
X-34793402Y-80913636D01*
X-34474922Y-80781717D01*
X-34249525Y-80736883D01*
X-34136827Y-80714466D01*
X-33792105Y-80714466D01*
X-33679407Y-80736883D01*
G37*
G36*
X-67750475Y-80736883D02*
G01*
X-67525078Y-80781717D01*
X-67206598Y-80913636D01*
X-66919974Y-81105152D01*
X-66676220Y-81348906D01*
X-66484704Y-81635530D01*
X-66352785Y-81954010D01*
X-66285534Y-82292106D01*
X-66285534Y-82636826D01*
X-66352785Y-82974922D01*
X-66484704Y-83293402D01*
X-66676220Y-83580026D01*
X-66919974Y-83823780D01*
X-67206598Y-84015296D01*
X-67525078Y-84147215D01*
X-67681827Y-84178394D01*
X-67863173Y-84214466D01*
X-68207895Y-84214466D01*
X-68389241Y-84178394D01*
X-68545990Y-84147215D01*
X-68864470Y-84015296D01*
X-69151094Y-83823780D01*
X-69394848Y-83580026D01*
X-69586364Y-83293402D01*
X-69718283Y-82974922D01*
X-69785534Y-82636826D01*
X-69785534Y-82292106D01*
X-69718283Y-81954010D01*
X-69586364Y-81635530D01*
X-69394848Y-81348906D01*
X-69151094Y-81105152D01*
X-68864470Y-80913636D01*
X-68545990Y-80781717D01*
X-68320593Y-80736883D01*
X-68207895Y-80714466D01*
X-67863173Y-80714466D01*
X-67750475Y-80736883D01*
G37*
G36*
X-19638895Y-80358551D02*
G01*
X-19606578Y-80368355D01*
X-19576797Y-80384273D01*
X-19550694Y-80405694D01*
X-19529273Y-80431797D01*
X-19513355Y-80461578D01*
X-19503551Y-80493895D01*
X-19500000Y-80529954D01*
X-19500000Y-80970046D01*
X-19503551Y-81006105D01*
X-19513355Y-81038422D01*
X-19529273Y-81068203D01*
X-19550694Y-81094306D01*
X-19576797Y-81115727D01*
X-19606578Y-81131645D01*
X-19638895Y-81141449D01*
X-19674954Y-81145000D01*
X-20325046Y-81145000D01*
X-20361105Y-81141449D01*
X-20393422Y-81131645D01*
X-20423203Y-81115727D01*
X-20449306Y-81094306D01*
X-20470727Y-81068203D01*
X-20486645Y-81038422D01*
X-20496449Y-81006105D01*
X-20500000Y-80970046D01*
X-20500000Y-80529954D01*
X-20496449Y-80493895D01*
X-20486645Y-80461578D01*
X-20470727Y-80431797D01*
X-20449306Y-80405694D01*
X-20423203Y-80384273D01*
X-20393422Y-80368355D01*
X-20361105Y-80358551D01*
X-20325046Y-80355000D01*
X-19674954Y-80355000D01*
X-19638895Y-80358551D01*
G37*
G36*
X-22138895Y-80358551D02*
G01*
X-22106578Y-80368355D01*
X-22076797Y-80384273D01*
X-22050694Y-80405694D01*
X-22029273Y-80431797D01*
X-22013355Y-80461578D01*
X-22003551Y-80493895D01*
X-22000000Y-80529954D01*
X-22000000Y-80970046D01*
X-22003551Y-81006105D01*
X-22013355Y-81038422D01*
X-22029273Y-81068203D01*
X-22050694Y-81094306D01*
X-22076797Y-81115727D01*
X-22106578Y-81131645D01*
X-22138895Y-81141449D01*
X-22174954Y-81145000D01*
X-22825046Y-81145000D01*
X-22861105Y-81141449D01*
X-22893422Y-81131645D01*
X-22923203Y-81115727D01*
X-22949306Y-81094306D01*
X-22970727Y-81068203D01*
X-22986645Y-81038422D01*
X-22996449Y-81006105D01*
X-23000000Y-80970046D01*
X-23000000Y-80529954D01*
X-22996449Y-80493895D01*
X-22986645Y-80461578D01*
X-22970727Y-80431797D01*
X-22949306Y-80405694D01*
X-22923203Y-80384273D01*
X-22893422Y-80368355D01*
X-22861105Y-80358551D01*
X-22825046Y-80355000D01*
X-22174954Y-80355000D01*
X-22138895Y-80358551D01*
G37*
G36*
X-20888895Y-80358551D02*
G01*
X-20856578Y-80368355D01*
X-20826797Y-80384273D01*
X-20800694Y-80405694D01*
X-20779273Y-80431797D01*
X-20763355Y-80461578D01*
X-20753551Y-80493895D01*
X-20750000Y-80529954D01*
X-20750000Y-80970046D01*
X-20753551Y-81006105D01*
X-20763355Y-81038422D01*
X-20779273Y-81068203D01*
X-20800694Y-81094306D01*
X-20826797Y-81115727D01*
X-20856578Y-81131645D01*
X-20888895Y-81141449D01*
X-20924954Y-81145000D01*
X-21575046Y-81145000D01*
X-21611105Y-81141449D01*
X-21643422Y-81131645D01*
X-21673203Y-81115727D01*
X-21699306Y-81094306D01*
X-21720727Y-81068203D01*
X-21736645Y-81038422D01*
X-21746449Y-81006105D01*
X-21750000Y-80970046D01*
X-21750000Y-80529954D01*
X-21746449Y-80493895D01*
X-21736645Y-80461578D01*
X-21720727Y-80431797D01*
X-21699306Y-80405694D01*
X-21673203Y-80384273D01*
X-21643422Y-80368355D01*
X-21611105Y-80358551D01*
X-21575046Y-80355000D01*
X-20924954Y-80355000D01*
X-20888895Y-80358551D01*
G37*
G36*
X-78088229Y-78490611D02*
G01*
X-78034362Y-78495916D01*
X-77965245Y-78516883D01*
X-77827010Y-78558816D01*
X-77635919Y-78660956D01*
X-77635918Y-78660957D01*
X-77635916Y-78660958D01*
X-77468419Y-78798419D01*
X-77330958Y-78965916D01*
X-77330956Y-78965919D01*
X-77228816Y-79157010D01*
X-77210906Y-79216051D01*
X-77177267Y-79326942D01*
X-77165916Y-79364363D01*
X-77144678Y-79580000D01*
X-77165916Y-79795637D01*
X-77228816Y-80002990D01*
X-77330956Y-80194081D01*
X-77330958Y-80194084D01*
X-77468419Y-80361581D01*
X-77635916Y-80499042D01*
X-77635918Y-80499043D01*
X-77635919Y-80499044D01*
X-77827010Y-80601184D01*
X-77965245Y-80643117D01*
X-78034362Y-80664084D01*
X-78088229Y-80669389D01*
X-78195962Y-80680000D01*
X-79804038Y-80680000D01*
X-79911771Y-80669389D01*
X-79965638Y-80664084D01*
X-80034755Y-80643117D01*
X-80172990Y-80601184D01*
X-80364081Y-80499044D01*
X-80364082Y-80499043D01*
X-80364084Y-80499042D01*
X-80531581Y-80361581D01*
X-80669042Y-80194084D01*
X-80669044Y-80194081D01*
X-80771184Y-80002990D01*
X-80834084Y-79795637D01*
X-80855322Y-79580000D01*
X-80834084Y-79364363D01*
X-80822732Y-79326942D01*
X-80789094Y-79216051D01*
X-80771184Y-79157010D01*
X-80669044Y-78965919D01*
X-80669042Y-78965916D01*
X-80531581Y-78798419D01*
X-80364084Y-78660958D01*
X-80364082Y-78660957D01*
X-80364081Y-78660956D01*
X-80172990Y-78558816D01*
X-80034755Y-78516883D01*
X-79965638Y-78495916D01*
X-79911771Y-78490611D01*
X-79804038Y-78480000D01*
X-78195962Y-78480000D01*
X-78088229Y-78490611D01*
G37*
G36*
X-19638895Y-78858551D02*
G01*
X-19606578Y-78868355D01*
X-19576797Y-78884273D01*
X-19550694Y-78905694D01*
X-19529273Y-78931797D01*
X-19513355Y-78961578D01*
X-19503551Y-78993895D01*
X-19500000Y-79029954D01*
X-19500000Y-79470046D01*
X-19503551Y-79506105D01*
X-19513355Y-79538422D01*
X-19529273Y-79568203D01*
X-19550694Y-79594306D01*
X-19576797Y-79615727D01*
X-19606578Y-79631645D01*
X-19638895Y-79641449D01*
X-19674954Y-79645000D01*
X-20325046Y-79645000D01*
X-20361105Y-79641449D01*
X-20393422Y-79631645D01*
X-20423203Y-79615727D01*
X-20449306Y-79594306D01*
X-20470727Y-79568203D01*
X-20486645Y-79538422D01*
X-20496449Y-79506105D01*
X-20500000Y-79470046D01*
X-20500000Y-79029954D01*
X-20496449Y-78993895D01*
X-20486645Y-78961578D01*
X-20470727Y-78931797D01*
X-20449306Y-78905694D01*
X-20423203Y-78884273D01*
X-20393422Y-78868355D01*
X-20361105Y-78858551D01*
X-20325046Y-78855000D01*
X-19674954Y-78855000D01*
X-19638895Y-78858551D01*
G37*
G36*
X-22138895Y-78858551D02*
G01*
X-22106578Y-78868355D01*
X-22076797Y-78884273D01*
X-22050694Y-78905694D01*
X-22029273Y-78931797D01*
X-22013355Y-78961578D01*
X-22003551Y-78993895D01*
X-22000000Y-79029954D01*
X-22000000Y-79470046D01*
X-22003551Y-79506105D01*
X-22013355Y-79538422D01*
X-22029273Y-79568203D01*
X-22050694Y-79594306D01*
X-22076797Y-79615727D01*
X-22106578Y-79631645D01*
X-22138895Y-79641449D01*
X-22174954Y-79645000D01*
X-22825046Y-79645000D01*
X-22861105Y-79641449D01*
X-22893422Y-79631645D01*
X-22923203Y-79615727D01*
X-22949306Y-79594306D01*
X-22970727Y-79568203D01*
X-22986645Y-79538422D01*
X-22996449Y-79506105D01*
X-23000000Y-79470046D01*
X-23000000Y-79029954D01*
X-22996449Y-78993895D01*
X-22986645Y-78961578D01*
X-22970727Y-78931797D01*
X-22949306Y-78905694D01*
X-22923203Y-78884273D01*
X-22893422Y-78868355D01*
X-22861105Y-78858551D01*
X-22825046Y-78855000D01*
X-22174954Y-78855000D01*
X-22138895Y-78858551D01*
G37*
G36*
X-20888895Y-78858551D02*
G01*
X-20856578Y-78868355D01*
X-20826797Y-78884273D01*
X-20800694Y-78905694D01*
X-20779273Y-78931797D01*
X-20763355Y-78961578D01*
X-20753551Y-78993895D01*
X-20750000Y-79029954D01*
X-20750000Y-79470046D01*
X-20753551Y-79506105D01*
X-20763355Y-79538422D01*
X-20779273Y-79568203D01*
X-20800694Y-79594306D01*
X-20826797Y-79615727D01*
X-20856578Y-79631645D01*
X-20888895Y-79641449D01*
X-20924954Y-79645000D01*
X-21575046Y-79645000D01*
X-21611105Y-79641449D01*
X-21643422Y-79631645D01*
X-21673203Y-79615727D01*
X-21699306Y-79594306D01*
X-21720727Y-79568203D01*
X-21736645Y-79538422D01*
X-21746449Y-79506105D01*
X-21750000Y-79470046D01*
X-21750000Y-79029954D01*
X-21746449Y-78993895D01*
X-21736645Y-78961578D01*
X-21720727Y-78931797D01*
X-21699306Y-78905694D01*
X-21673203Y-78884273D01*
X-21643422Y-78868355D01*
X-21611105Y-78858551D01*
X-21575046Y-78855000D01*
X-20924954Y-78855000D01*
X-20888895Y-78858551D01*
G37*
G36*
X-23574988Y-78173057D02*
G01*
X-23574985Y-78173058D01*
X-23574986Y-78173058D01*
X-23465793Y-78218287D01*
X-23367522Y-78283950D01*
X-23283950Y-78367522D01*
X-23283949Y-78367524D01*
X-23218286Y-78465795D01*
X-23173057Y-78574988D01*
X-23150000Y-78690904D01*
X-23150000Y-78809096D01*
X-23173057Y-78925012D01*
X-23216525Y-79029954D01*
X-23218287Y-79034207D01*
X-23283950Y-79132478D01*
X-23367522Y-79216050D01*
X-23465793Y-79281713D01*
X-23465794Y-79281714D01*
X-23465795Y-79281714D01*
X-23574988Y-79326943D01*
X-23690904Y-79350000D01*
X-23809096Y-79350000D01*
X-23925012Y-79326943D01*
X-24034205Y-79281714D01*
X-24034206Y-79281714D01*
X-24034207Y-79281713D01*
X-24132478Y-79216050D01*
X-24216050Y-79132478D01*
X-24281713Y-79034207D01*
X-24283475Y-79029954D01*
X-24326943Y-78925012D01*
X-24350000Y-78809096D01*
X-24350000Y-78690904D01*
X-24326943Y-78574988D01*
X-24281714Y-78465795D01*
X-24216051Y-78367524D01*
X-24216050Y-78367522D01*
X-24132478Y-78283950D01*
X-24034207Y-78218287D01*
X-23925014Y-78173058D01*
X-23925015Y-78173058D01*
X-23925012Y-78173057D01*
X-23809096Y-78150000D01*
X-23690904Y-78150000D01*
X-23574988Y-78173057D01*
G37*
G36*
X-22824988Y-76923057D02*
G01*
X-22824985Y-76923058D01*
X-22824986Y-76923058D01*
X-22715793Y-76968287D01*
X-22617522Y-77033950D01*
X-22533950Y-77117522D01*
X-22533949Y-77117524D01*
X-22468286Y-77215795D01*
X-22423057Y-77324988D01*
X-22400000Y-77440904D01*
X-22400000Y-77559096D01*
X-22423057Y-77675012D01*
X-22423058Y-77675014D01*
X-22468287Y-77784207D01*
X-22533950Y-77882478D01*
X-22617522Y-77966050D01*
X-22715793Y-78031713D01*
X-22715794Y-78031714D01*
X-22715795Y-78031714D01*
X-22824988Y-78076943D01*
X-22940904Y-78100000D01*
X-23059096Y-78100000D01*
X-23175012Y-78076943D01*
X-23284205Y-78031714D01*
X-23284206Y-78031714D01*
X-23284207Y-78031713D01*
X-23382478Y-77966050D01*
X-23466050Y-77882478D01*
X-23531713Y-77784207D01*
X-23576942Y-77675014D01*
X-23576943Y-77675012D01*
X-23600000Y-77559096D01*
X-23600000Y-77440904D01*
X-23576943Y-77324988D01*
X-23531714Y-77215795D01*
X-23466051Y-77117524D01*
X-23466050Y-77117522D01*
X-23382478Y-77033950D01*
X-23284207Y-76968287D01*
X-23175014Y-76923058D01*
X-23175015Y-76923058D01*
X-23175012Y-76923057D01*
X-23059096Y-76900000D01*
X-22940904Y-76900000D01*
X-22824988Y-76923057D01*
G37*
G36*
X-19824988Y-76923057D02*
G01*
X-19824985Y-76923058D01*
X-19824986Y-76923058D01*
X-19715793Y-76968287D01*
X-19617522Y-77033950D01*
X-19533950Y-77117522D01*
X-19533949Y-77117524D01*
X-19468286Y-77215795D01*
X-19423057Y-77324988D01*
X-19400000Y-77440904D01*
X-19400000Y-77559096D01*
X-19423057Y-77675012D01*
X-19423058Y-77675014D01*
X-19468287Y-77784207D01*
X-19533950Y-77882478D01*
X-19617522Y-77966050D01*
X-19715793Y-78031713D01*
X-19715794Y-78031714D01*
X-19715795Y-78031714D01*
X-19824988Y-78076943D01*
X-19940904Y-78100000D01*
X-20059096Y-78100000D01*
X-20175012Y-78076943D01*
X-20284205Y-78031714D01*
X-20284206Y-78031714D01*
X-20284207Y-78031713D01*
X-20382478Y-77966050D01*
X-20466050Y-77882478D01*
X-20531713Y-77784207D01*
X-20576942Y-77675014D01*
X-20576943Y-77675012D01*
X-20600000Y-77559096D01*
X-20600000Y-77440904D01*
X-20576943Y-77324988D01*
X-20531714Y-77215795D01*
X-20466051Y-77117524D01*
X-20466050Y-77117522D01*
X-20382478Y-77033950D01*
X-20284207Y-76968287D01*
X-20175014Y-76923058D01*
X-20175015Y-76923058D01*
X-20175012Y-76923057D01*
X-20059096Y-76900000D01*
X-19940904Y-76900000D01*
X-19824988Y-76923057D01*
G37*
G36*
X-21324988Y-76923057D02*
G01*
X-21324985Y-76923058D01*
X-21324986Y-76923058D01*
X-21215793Y-76968287D01*
X-21117522Y-77033950D01*
X-21033950Y-77117522D01*
X-21033949Y-77117524D01*
X-20968286Y-77215795D01*
X-20923057Y-77324988D01*
X-20900000Y-77440904D01*
X-20900000Y-77559096D01*
X-20923057Y-77675012D01*
X-20923058Y-77675014D01*
X-20968287Y-77784207D01*
X-21033950Y-77882478D01*
X-21117522Y-77966050D01*
X-21215793Y-78031713D01*
X-21215794Y-78031714D01*
X-21215795Y-78031714D01*
X-21324988Y-78076943D01*
X-21440904Y-78100000D01*
X-21559096Y-78100000D01*
X-21675012Y-78076943D01*
X-21784205Y-78031714D01*
X-21784206Y-78031714D01*
X-21784207Y-78031713D01*
X-21882478Y-77966050D01*
X-21966050Y-77882478D01*
X-22031713Y-77784207D01*
X-22076942Y-77675014D01*
X-22076943Y-77675012D01*
X-22100000Y-77559096D01*
X-22100000Y-77440904D01*
X-22076943Y-77324988D01*
X-22031714Y-77215795D01*
X-21966051Y-77117524D01*
X-21966050Y-77117522D01*
X-21882478Y-77033950D01*
X-21784207Y-76968287D01*
X-21675014Y-76923058D01*
X-21675015Y-76923058D01*
X-21675012Y-76923057D01*
X-21559096Y-76900000D01*
X-21440904Y-76900000D01*
X-21324988Y-76923057D01*
G37*
G36*
X-24324988Y-76923057D02*
G01*
X-24324985Y-76923058D01*
X-24324986Y-76923058D01*
X-24215793Y-76968287D01*
X-24117522Y-77033950D01*
X-24033950Y-77117522D01*
X-24033949Y-77117524D01*
X-23968286Y-77215795D01*
X-23923057Y-77324988D01*
X-23900000Y-77440904D01*
X-23900000Y-77559096D01*
X-23923057Y-77675012D01*
X-23923058Y-77675014D01*
X-23968287Y-77784207D01*
X-24033950Y-77882478D01*
X-24117522Y-77966050D01*
X-24215793Y-78031713D01*
X-24215794Y-78031714D01*
X-24215795Y-78031714D01*
X-24324988Y-78076943D01*
X-24440904Y-78100000D01*
X-24559096Y-78100000D01*
X-24675012Y-78076943D01*
X-24784205Y-78031714D01*
X-24784206Y-78031714D01*
X-24784207Y-78031713D01*
X-24882478Y-77966050D01*
X-24966050Y-77882478D01*
X-25031713Y-77784207D01*
X-25076942Y-77675014D01*
X-25076943Y-77675012D01*
X-25100000Y-77559096D01*
X-25100000Y-77440904D01*
X-25076943Y-77324988D01*
X-25031714Y-77215795D01*
X-24966051Y-77117524D01*
X-24966050Y-77117522D01*
X-24882478Y-77033950D01*
X-24784207Y-76968287D01*
X-24675014Y-76923058D01*
X-24675015Y-76923058D01*
X-24675012Y-76923057D01*
X-24559096Y-76900000D01*
X-24440904Y-76900000D01*
X-24324988Y-76923057D01*
G37*
G36*
X-78088229Y-73410611D02*
G01*
X-78034362Y-73415916D01*
X-77965245Y-73436883D01*
X-77827010Y-73478816D01*
X-77635919Y-73580956D01*
X-77635918Y-73580957D01*
X-77635916Y-73580958D01*
X-77468419Y-73718419D01*
X-77330958Y-73885916D01*
X-77330956Y-73885919D01*
X-77228816Y-74077010D01*
X-77165916Y-74284363D01*
X-77144678Y-74500000D01*
X-77165916Y-74715637D01*
X-77228816Y-74922990D01*
X-77330956Y-75114081D01*
X-77330958Y-75114084D01*
X-77468419Y-75281581D01*
X-77635916Y-75419042D01*
X-77635918Y-75419043D01*
X-77635919Y-75419044D01*
X-77827010Y-75521184D01*
X-77965245Y-75563117D01*
X-78034362Y-75584084D01*
X-78088229Y-75589389D01*
X-78195962Y-75600000D01*
X-79804038Y-75600000D01*
X-79911771Y-75589389D01*
X-79965638Y-75584084D01*
X-80034755Y-75563117D01*
X-80172990Y-75521184D01*
X-80364081Y-75419044D01*
X-80364082Y-75419043D01*
X-80364084Y-75419042D01*
X-80531581Y-75281581D01*
X-80669042Y-75114084D01*
X-80669044Y-75114081D01*
X-80771184Y-74922990D01*
X-80834084Y-74715637D01*
X-80855322Y-74500000D01*
X-80834084Y-74284363D01*
X-80771184Y-74077010D01*
X-80669044Y-73885919D01*
X-80669042Y-73885916D01*
X-80531581Y-73718419D01*
X-80364084Y-73580958D01*
X-80364082Y-73580957D01*
X-80364081Y-73580956D01*
X-80172990Y-73478816D01*
X-80034755Y-73436883D01*
X-79965638Y-73415916D01*
X-79911771Y-73410611D01*
X-79804038Y-73400000D01*
X-78195962Y-73400000D01*
X-78088229Y-73410611D01*
G37*
G36*
X-48139144Y-69692272D02*
G01*
X-47938956Y-69775192D01*
X-47896176Y-69803777D01*
X-47758791Y-69895575D01*
X-47605575Y-70048791D01*
X-47605574Y-70048793D01*
X-47485192Y-70228956D01*
X-47402272Y-70429144D01*
X-47360000Y-70641658D01*
X-47360000Y-70858342D01*
X-47402272Y-71070856D01*
X-47485192Y-71271044D01*
X-47485193Y-71271045D01*
X-47605575Y-71451209D01*
X-47758791Y-71604425D01*
X-47848095Y-71664096D01*
X-47938956Y-71724808D01*
X-48139144Y-71807728D01*
X-48351658Y-71850000D01*
X-48568342Y-71850000D01*
X-48780856Y-71807728D01*
X-48981044Y-71724808D01*
X-49071905Y-71664096D01*
X-49161209Y-71604425D01*
X-49314425Y-71451209D01*
X-49434807Y-71271045D01*
X-49434808Y-71271044D01*
X-49517728Y-71070856D01*
X-49560000Y-70858342D01*
X-49560000Y-70641658D01*
X-49517728Y-70429144D01*
X-49434808Y-70228956D01*
X-49314426Y-70048793D01*
X-49314425Y-70048791D01*
X-49161209Y-69895575D01*
X-49023824Y-69803777D01*
X-48981044Y-69775192D01*
X-48780856Y-69692272D01*
X-48568342Y-69650000D01*
X-48351658Y-69650000D01*
X-48139144Y-69692272D01*
G37*
G36*
X-45599144Y-69692272D02*
G01*
X-45398956Y-69775192D01*
X-45356176Y-69803777D01*
X-45218791Y-69895575D01*
X-45065575Y-70048791D01*
X-45065574Y-70048793D01*
X-44945192Y-70228956D01*
X-44862272Y-70429144D01*
X-44820000Y-70641658D01*
X-44820000Y-70858342D01*
X-44862272Y-71070856D01*
X-44945192Y-71271044D01*
X-44945193Y-71271045D01*
X-45065575Y-71451209D01*
X-45218791Y-71604425D01*
X-45308095Y-71664096D01*
X-45398956Y-71724808D01*
X-45599144Y-71807728D01*
X-45811658Y-71850000D01*
X-46028342Y-71850000D01*
X-46240856Y-71807728D01*
X-46441044Y-71724808D01*
X-46531905Y-71664096D01*
X-46621209Y-71604425D01*
X-46774425Y-71451209D01*
X-46894807Y-71271045D01*
X-46894808Y-71271044D01*
X-46977728Y-71070856D01*
X-47020000Y-70858342D01*
X-47020000Y-70641658D01*
X-46977728Y-70429144D01*
X-46894808Y-70228956D01*
X-46774426Y-70048793D01*
X-46774425Y-70048791D01*
X-46621209Y-69895575D01*
X-46483824Y-69803777D01*
X-46441044Y-69775192D01*
X-46240856Y-69692272D01*
X-46028342Y-69650000D01*
X-45811658Y-69650000D01*
X-45599144Y-69692272D01*
G37*
G36*
X-53219144Y-69692272D02*
G01*
X-53018956Y-69775192D01*
X-52976176Y-69803777D01*
X-52838791Y-69895575D01*
X-52685575Y-70048791D01*
X-52685574Y-70048793D01*
X-52565192Y-70228956D01*
X-52482272Y-70429144D01*
X-52440000Y-70641658D01*
X-52440000Y-70858342D01*
X-52482272Y-71070856D01*
X-52565192Y-71271044D01*
X-52565193Y-71271045D01*
X-52685575Y-71451209D01*
X-52838791Y-71604425D01*
X-52928095Y-71664096D01*
X-53018956Y-71724808D01*
X-53219144Y-71807728D01*
X-53431658Y-71850000D01*
X-53648342Y-71850000D01*
X-53860856Y-71807728D01*
X-54061044Y-71724808D01*
X-54151905Y-71664096D01*
X-54241209Y-71604425D01*
X-54394425Y-71451209D01*
X-54514807Y-71271045D01*
X-54514808Y-71271044D01*
X-54597728Y-71070856D01*
X-54640000Y-70858342D01*
X-54640000Y-70641658D01*
X-54597728Y-70429144D01*
X-54514808Y-70228956D01*
X-54394426Y-70048793D01*
X-54394425Y-70048791D01*
X-54241209Y-69895575D01*
X-54103824Y-69803777D01*
X-54061044Y-69775192D01*
X-53860856Y-69692272D01*
X-53648342Y-69650000D01*
X-53431658Y-69650000D01*
X-53219144Y-69692272D01*
G37*
G36*
X-43059144Y-69692272D02*
G01*
X-42858956Y-69775192D01*
X-42816176Y-69803777D01*
X-42678791Y-69895575D01*
X-42525575Y-70048791D01*
X-42525574Y-70048793D01*
X-42405192Y-70228956D01*
X-42322272Y-70429144D01*
X-42280000Y-70641658D01*
X-42280000Y-70858342D01*
X-42322272Y-71070856D01*
X-42405192Y-71271044D01*
X-42405193Y-71271045D01*
X-42525575Y-71451209D01*
X-42678791Y-71604425D01*
X-42768095Y-71664096D01*
X-42858956Y-71724808D01*
X-43059144Y-71807728D01*
X-43271658Y-71850000D01*
X-43488342Y-71850000D01*
X-43700856Y-71807728D01*
X-43901044Y-71724808D01*
X-43991905Y-71664096D01*
X-44081209Y-71604425D01*
X-44234425Y-71451209D01*
X-44354807Y-71271045D01*
X-44354808Y-71271044D01*
X-44437728Y-71070856D01*
X-44480000Y-70858342D01*
X-44480000Y-70641658D01*
X-44437728Y-70429144D01*
X-44354808Y-70228956D01*
X-44234426Y-70048793D01*
X-44234425Y-70048791D01*
X-44081209Y-69895575D01*
X-43943824Y-69803777D01*
X-43901044Y-69775192D01*
X-43700856Y-69692272D01*
X-43488342Y-69650000D01*
X-43271658Y-69650000D01*
X-43059144Y-69692272D01*
G37*
G36*
X-38133372Y-69787299D02*
G01*
X-38038935Y-69815946D01*
X-37973146Y-69835903D01*
X-37937549Y-69854930D01*
X-37825483Y-69914830D01*
X-37696052Y-70021052D01*
X-37589830Y-70150482D01*
X-37529930Y-70262548D01*
X-37510903Y-70298145D01*
X-37510903Y-70298146D01*
X-37462299Y-70458371D01*
X-37450000Y-70583247D01*
X-37450000Y-70916752D01*
X-37462299Y-71041628D01*
X-37490946Y-71136065D01*
X-37510903Y-71201855D01*
X-37510904Y-71201856D01*
X-37589830Y-71349518D01*
X-37696052Y-71478948D01*
X-37825482Y-71585170D01*
X-37937548Y-71645070D01*
X-37973145Y-71664097D01*
X-38038934Y-71684054D01*
X-38133371Y-71712701D01*
X-38300000Y-71729112D01*
X-38466628Y-71712701D01*
X-38561065Y-71684054D01*
X-38626854Y-71664097D01*
X-38662451Y-71645070D01*
X-38774517Y-71585170D01*
X-38903948Y-71478948D01*
X-39010170Y-71349518D01*
X-39089096Y-71201856D01*
X-39089097Y-71201855D01*
X-39128834Y-71070858D01*
X-39137701Y-71041629D01*
X-39150000Y-70916753D01*
X-39150000Y-70583248D01*
X-39137701Y-70458372D01*
X-39095406Y-70318945D01*
X-39089097Y-70298146D01*
X-39052114Y-70228956D01*
X-39010170Y-70150483D01*
X-38903948Y-70021052D01*
X-38774518Y-69914830D01*
X-38662452Y-69854930D01*
X-38626855Y-69835903D01*
X-38561066Y-69815946D01*
X-38466629Y-69787299D01*
X-38300000Y-69770888D01*
X-38133372Y-69787299D01*
G37*
G36*
X-58453372Y-69787299D02*
G01*
X-58358935Y-69815946D01*
X-58293146Y-69835903D01*
X-58257549Y-69854930D01*
X-58145483Y-69914830D01*
X-58016052Y-70021052D01*
X-57909830Y-70150482D01*
X-57849930Y-70262548D01*
X-57830903Y-70298145D01*
X-57830903Y-70298146D01*
X-57782299Y-70458371D01*
X-57770000Y-70583247D01*
X-57770000Y-70916752D01*
X-57782299Y-71041628D01*
X-57810946Y-71136065D01*
X-57830903Y-71201855D01*
X-57830904Y-71201856D01*
X-57909830Y-71349518D01*
X-58016052Y-71478948D01*
X-58145482Y-71585170D01*
X-58257548Y-71645070D01*
X-58293145Y-71664097D01*
X-58358934Y-71684054D01*
X-58453371Y-71712701D01*
X-58620000Y-71729112D01*
X-58786628Y-71712701D01*
X-58881065Y-71684054D01*
X-58946854Y-71664097D01*
X-58982451Y-71645070D01*
X-59094517Y-71585170D01*
X-59223948Y-71478948D01*
X-59330170Y-71349518D01*
X-59409096Y-71201856D01*
X-59409097Y-71201855D01*
X-59448834Y-71070858D01*
X-59457701Y-71041629D01*
X-59470000Y-70916753D01*
X-59470000Y-70583248D01*
X-59457701Y-70458372D01*
X-59415406Y-70318945D01*
X-59409097Y-70298146D01*
X-59372114Y-70228956D01*
X-59330170Y-70150483D01*
X-59223948Y-70021052D01*
X-59094518Y-69914830D01*
X-58982452Y-69854930D01*
X-58946855Y-69835903D01*
X-58881066Y-69815946D01*
X-58786629Y-69787299D01*
X-58620000Y-69770888D01*
X-58453372Y-69787299D01*
G37*
G36*
X-63533372Y-69787299D02*
G01*
X-63438935Y-69815946D01*
X-63373146Y-69835903D01*
X-63337549Y-69854930D01*
X-63225483Y-69914830D01*
X-63096052Y-70021052D01*
X-62989830Y-70150482D01*
X-62929930Y-70262548D01*
X-62910903Y-70298145D01*
X-62910903Y-70298146D01*
X-62862299Y-70458371D01*
X-62850000Y-70583247D01*
X-62850000Y-70916752D01*
X-62862299Y-71041628D01*
X-62890946Y-71136065D01*
X-62910903Y-71201855D01*
X-62910904Y-71201856D01*
X-62989830Y-71349518D01*
X-63096052Y-71478948D01*
X-63225482Y-71585170D01*
X-63337548Y-71645070D01*
X-63373145Y-71664097D01*
X-63438934Y-71684054D01*
X-63533371Y-71712701D01*
X-63700000Y-71729112D01*
X-63866628Y-71712701D01*
X-63961065Y-71684054D01*
X-64026854Y-71664097D01*
X-64062451Y-71645070D01*
X-64174517Y-71585170D01*
X-64303948Y-71478948D01*
X-64410170Y-71349518D01*
X-64489096Y-71201856D01*
X-64489097Y-71201855D01*
X-64528834Y-71070858D01*
X-64537701Y-71041629D01*
X-64550000Y-70916753D01*
X-64550000Y-70583248D01*
X-64537701Y-70458372D01*
X-64495406Y-70318945D01*
X-64489097Y-70298146D01*
X-64452114Y-70228956D01*
X-64410170Y-70150483D01*
X-64303948Y-70021052D01*
X-64174518Y-69914830D01*
X-64062452Y-69854930D01*
X-64026855Y-69835903D01*
X-63961066Y-69815946D01*
X-63866629Y-69787299D01*
X-63700000Y-69770888D01*
X-63533372Y-69787299D01*
G37*
G36*
X-68613372Y-69787299D02*
G01*
X-68518935Y-69815946D01*
X-68453146Y-69835903D01*
X-68417549Y-69854930D01*
X-68305483Y-69914830D01*
X-68176052Y-70021052D01*
X-68069830Y-70150482D01*
X-68009930Y-70262548D01*
X-67990903Y-70298145D01*
X-67990903Y-70298146D01*
X-67942299Y-70458371D01*
X-67930000Y-70583247D01*
X-67930000Y-70916752D01*
X-67942299Y-71041628D01*
X-67970946Y-71136065D01*
X-67990903Y-71201855D01*
X-67990904Y-71201856D01*
X-68069830Y-71349518D01*
X-68176052Y-71478948D01*
X-68305482Y-71585170D01*
X-68417548Y-71645070D01*
X-68453145Y-71664097D01*
X-68518934Y-71684054D01*
X-68613371Y-71712701D01*
X-68780000Y-71729112D01*
X-68946628Y-71712701D01*
X-69041065Y-71684054D01*
X-69106854Y-71664097D01*
X-69142451Y-71645070D01*
X-69254517Y-71585170D01*
X-69383948Y-71478948D01*
X-69490170Y-71349518D01*
X-69569096Y-71201856D01*
X-69569097Y-71201855D01*
X-69608834Y-71070858D01*
X-69617701Y-71041629D01*
X-69630000Y-70916753D01*
X-69630000Y-70583248D01*
X-69617701Y-70458372D01*
X-69575406Y-70318945D01*
X-69569097Y-70298146D01*
X-69532114Y-70228956D01*
X-69490170Y-70150483D01*
X-69383948Y-70021052D01*
X-69254518Y-69914830D01*
X-69142452Y-69854930D01*
X-69106855Y-69835903D01*
X-69041066Y-69815946D01*
X-68946629Y-69787299D01*
X-68780000Y-69770888D01*
X-68613372Y-69787299D01*
G37*
G36*
X-40673372Y-69787299D02*
G01*
X-40578935Y-69815946D01*
X-40513146Y-69835903D01*
X-40477549Y-69854930D01*
X-40365483Y-69914830D01*
X-40236052Y-70021052D01*
X-40129830Y-70150482D01*
X-40069930Y-70262548D01*
X-40050903Y-70298145D01*
X-40050903Y-70298146D01*
X-40002299Y-70458371D01*
X-39990000Y-70583247D01*
X-39990000Y-70916752D01*
X-40002299Y-71041628D01*
X-40030946Y-71136065D01*
X-40050903Y-71201855D01*
X-40050904Y-71201856D01*
X-40129830Y-71349518D01*
X-40236052Y-71478948D01*
X-40365482Y-71585170D01*
X-40477548Y-71645070D01*
X-40513145Y-71664097D01*
X-40578934Y-71684054D01*
X-40673371Y-71712701D01*
X-40840000Y-71729112D01*
X-41006628Y-71712701D01*
X-41101065Y-71684054D01*
X-41166854Y-71664097D01*
X-41202451Y-71645070D01*
X-41314517Y-71585170D01*
X-41443948Y-71478948D01*
X-41550170Y-71349518D01*
X-41629096Y-71201856D01*
X-41629097Y-71201855D01*
X-41668834Y-71070858D01*
X-41677701Y-71041629D01*
X-41690000Y-70916753D01*
X-41690000Y-70583248D01*
X-41677701Y-70458372D01*
X-41635406Y-70318945D01*
X-41629097Y-70298146D01*
X-41592114Y-70228956D01*
X-41550170Y-70150483D01*
X-41443948Y-70021052D01*
X-41314518Y-69914830D01*
X-41202452Y-69854930D01*
X-41166855Y-69835903D01*
X-41101066Y-69815946D01*
X-41006629Y-69787299D01*
X-40840000Y-69770888D01*
X-40673372Y-69787299D01*
G37*
G36*
X-35593372Y-69787299D02*
G01*
X-35498935Y-69815946D01*
X-35433146Y-69835903D01*
X-35397549Y-69854930D01*
X-35285483Y-69914830D01*
X-35156052Y-70021052D01*
X-35049830Y-70150482D01*
X-34989930Y-70262548D01*
X-34970903Y-70298145D01*
X-34970903Y-70298146D01*
X-34922299Y-70458371D01*
X-34910000Y-70583247D01*
X-34910000Y-70916752D01*
X-34922299Y-71041628D01*
X-34950946Y-71136065D01*
X-34970903Y-71201855D01*
X-34970904Y-71201856D01*
X-35049830Y-71349518D01*
X-35156052Y-71478948D01*
X-35285482Y-71585170D01*
X-35397548Y-71645070D01*
X-35433145Y-71664097D01*
X-35498934Y-71684054D01*
X-35593371Y-71712701D01*
X-35760000Y-71729112D01*
X-35926628Y-71712701D01*
X-36021065Y-71684054D01*
X-36086854Y-71664097D01*
X-36122451Y-71645070D01*
X-36234517Y-71585170D01*
X-36363948Y-71478948D01*
X-36470170Y-71349518D01*
X-36549096Y-71201856D01*
X-36549097Y-71201855D01*
X-36588834Y-71070858D01*
X-36597701Y-71041629D01*
X-36610000Y-70916753D01*
X-36610000Y-70583248D01*
X-36597701Y-70458372D01*
X-36555406Y-70318945D01*
X-36549097Y-70298146D01*
X-36512114Y-70228956D01*
X-36470170Y-70150483D01*
X-36363948Y-70021052D01*
X-36234518Y-69914830D01*
X-36122452Y-69854930D01*
X-36086855Y-69835903D01*
X-36021066Y-69815946D01*
X-35926629Y-69787299D01*
X-35760000Y-69770888D01*
X-35593372Y-69787299D01*
G37*
G36*
X-33053372Y-69787299D02*
G01*
X-32958935Y-69815946D01*
X-32893146Y-69835903D01*
X-32857549Y-69854930D01*
X-32745483Y-69914830D01*
X-32616052Y-70021052D01*
X-32509830Y-70150482D01*
X-32449930Y-70262548D01*
X-32430903Y-70298145D01*
X-32430903Y-70298146D01*
X-32382299Y-70458371D01*
X-32370000Y-70583247D01*
X-32370000Y-70916752D01*
X-32382299Y-71041628D01*
X-32410946Y-71136065D01*
X-32430903Y-71201855D01*
X-32430904Y-71201856D01*
X-32509830Y-71349518D01*
X-32616052Y-71478948D01*
X-32745482Y-71585170D01*
X-32857548Y-71645070D01*
X-32893145Y-71664097D01*
X-32958934Y-71684054D01*
X-33053371Y-71712701D01*
X-33220000Y-71729112D01*
X-33386628Y-71712701D01*
X-33481065Y-71684054D01*
X-33546854Y-71664097D01*
X-33582451Y-71645070D01*
X-33694517Y-71585170D01*
X-33823948Y-71478948D01*
X-33930170Y-71349518D01*
X-34009096Y-71201856D01*
X-34009097Y-71201855D01*
X-34048834Y-71070858D01*
X-34057701Y-71041629D01*
X-34070000Y-70916753D01*
X-34070000Y-70583248D01*
X-34057701Y-70458372D01*
X-34015406Y-70318945D01*
X-34009097Y-70298146D01*
X-33972114Y-70228956D01*
X-33930170Y-70150483D01*
X-33823948Y-70021052D01*
X-33694518Y-69914830D01*
X-33582452Y-69854930D01*
X-33546855Y-69835903D01*
X-33481066Y-69815946D01*
X-33386629Y-69787299D01*
X-33220000Y-69770888D01*
X-33053372Y-69787299D01*
G37*
G36*
X-72545819Y-69576900D02*
G01*
X-72418427Y-69629667D01*
X-72418426Y-69629668D01*
X-72303776Y-69706274D01*
X-72206274Y-69803776D01*
X-72155087Y-69880383D01*
X-72129667Y-69918427D01*
X-72076900Y-70045819D01*
X-72050000Y-70181055D01*
X-72050000Y-70318945D01*
X-72076900Y-70454181D01*
X-72129667Y-70581573D01*
X-72130789Y-70583252D01*
X-72206274Y-70696224D01*
X-72303776Y-70793726D01*
X-72380383Y-70844913D01*
X-72418427Y-70870333D01*
X-72545819Y-70923100D01*
X-72681055Y-70950000D01*
X-72818945Y-70950000D01*
X-72954181Y-70923100D01*
X-73081573Y-70870333D01*
X-73119617Y-70844913D01*
X-73196224Y-70793726D01*
X-73293726Y-70696224D01*
X-73369211Y-70583252D01*
X-73370333Y-70581573D01*
X-73423100Y-70454181D01*
X-73450000Y-70318945D01*
X-73450000Y-70181055D01*
X-73423100Y-70045819D01*
X-73370333Y-69918427D01*
X-73344913Y-69880383D01*
X-73293726Y-69803776D01*
X-73196224Y-69706274D01*
X-73081574Y-69629668D01*
X-73081573Y-69629667D01*
X-72954181Y-69576900D01*
X-72818945Y-69550000D01*
X-72681055Y-69550000D01*
X-72545819Y-69576900D01*
G37*
G36*
X-65545819Y-69576900D02*
G01*
X-65418427Y-69629667D01*
X-65418426Y-69629668D01*
X-65303776Y-69706274D01*
X-65206274Y-69803776D01*
X-65155087Y-69880383D01*
X-65129667Y-69918427D01*
X-65076900Y-70045819D01*
X-65050000Y-70181055D01*
X-65050000Y-70318945D01*
X-65076900Y-70454181D01*
X-65129667Y-70581573D01*
X-65130789Y-70583252D01*
X-65206274Y-70696224D01*
X-65303776Y-70793726D01*
X-65380383Y-70844913D01*
X-65418427Y-70870333D01*
X-65545819Y-70923100D01*
X-65681055Y-70950000D01*
X-65818945Y-70950000D01*
X-65954181Y-70923100D01*
X-66081573Y-70870333D01*
X-66119617Y-70844913D01*
X-66196224Y-70793726D01*
X-66293726Y-70696224D01*
X-66369211Y-70583252D01*
X-66370333Y-70581573D01*
X-66423100Y-70454181D01*
X-66450000Y-70318945D01*
X-66450000Y-70181055D01*
X-66423100Y-70045819D01*
X-66370333Y-69918427D01*
X-66344913Y-69880383D01*
X-66293726Y-69803776D01*
X-66196224Y-69706274D01*
X-66081574Y-69629668D01*
X-66081573Y-69629667D01*
X-65954181Y-69576900D01*
X-65818945Y-69550000D01*
X-65681055Y-69550000D01*
X-65545819Y-69576900D01*
G37*
G36*
X-3691102Y-67897942D02*
G01*
X-3509461Y-67953043D01*
X-3342065Y-68042518D01*
X-3342064Y-68042519D01*
X-3342062Y-68042520D01*
X-3195335Y-68162935D01*
X-3074920Y-68309662D01*
X-3074918Y-68309665D01*
X-2985443Y-68477061D01*
X-2930342Y-68658703D01*
X-2916400Y-68800263D01*
X-2916400Y-69199738D01*
X-2930342Y-69341298D01*
X-2985443Y-69522939D01*
X-3074918Y-69690335D01*
X-3074920Y-69690338D01*
X-3195335Y-69837065D01*
X-3317917Y-69937665D01*
X-3342064Y-69957482D01*
X-3509462Y-70046957D01*
X-3691103Y-70102058D01*
X-3880000Y-70120662D01*
X-4068898Y-70102058D01*
X-4250539Y-70046957D01*
X-4417935Y-69957482D01*
X-4417936Y-69957481D01*
X-4417938Y-69957480D01*
X-4564665Y-69837065D01*
X-4685080Y-69690338D01*
X-4685082Y-69690336D01*
X-4774557Y-69522938D01*
X-4829658Y-69341297D01*
X-4843600Y-69199737D01*
X-4843600Y-68800262D01*
X-4829658Y-68658702D01*
X-4774557Y-68477061D01*
X-4685082Y-68309665D01*
X-4654011Y-68271805D01*
X-4564664Y-68162935D01*
X-4417937Y-68042520D01*
X-4417935Y-68042519D01*
X-4417934Y-68042518D01*
X-4250538Y-67953043D01*
X-4068897Y-67897942D01*
X-3880000Y-67879338D01*
X-3691102Y-67897942D01*
G37*
G36*
X-8771102Y-67897942D02*
G01*
X-8589461Y-67953043D01*
X-8422065Y-68042518D01*
X-8422064Y-68042519D01*
X-8422062Y-68042520D01*
X-8275335Y-68162935D01*
X-8154920Y-68309662D01*
X-8154918Y-68309665D01*
X-8065443Y-68477061D01*
X-8010342Y-68658703D01*
X-7996400Y-68800263D01*
X-7996400Y-69199738D01*
X-8010342Y-69341298D01*
X-8065443Y-69522939D01*
X-8154918Y-69690335D01*
X-8154920Y-69690338D01*
X-8275335Y-69837065D01*
X-8397917Y-69937665D01*
X-8422064Y-69957482D01*
X-8589462Y-70046957D01*
X-8771103Y-70102058D01*
X-8960000Y-70120662D01*
X-9148898Y-70102058D01*
X-9330539Y-70046957D01*
X-9497935Y-69957482D01*
X-9497936Y-69957481D01*
X-9497938Y-69957480D01*
X-9644665Y-69837065D01*
X-9765080Y-69690338D01*
X-9765082Y-69690336D01*
X-9854557Y-69522938D01*
X-9909658Y-69341297D01*
X-9923600Y-69199737D01*
X-9923600Y-68800262D01*
X-9909658Y-68658702D01*
X-9854557Y-68477061D01*
X-9765082Y-68309665D01*
X-9734011Y-68271805D01*
X-9644664Y-68162935D01*
X-9497937Y-68042520D01*
X-9497935Y-68042519D01*
X-9497934Y-68042518D01*
X-9330538Y-67953043D01*
X-9148897Y-67897942D01*
X-8960000Y-67879338D01*
X-8771102Y-67897942D01*
G37*
G36*
X-6231102Y-67897942D02*
G01*
X-6049461Y-67953043D01*
X-5882065Y-68042518D01*
X-5882064Y-68042519D01*
X-5882062Y-68042520D01*
X-5735335Y-68162935D01*
X-5614920Y-68309662D01*
X-5614918Y-68309665D01*
X-5525443Y-68477061D01*
X-5470342Y-68658703D01*
X-5456400Y-68800263D01*
X-5456400Y-69199738D01*
X-5470342Y-69341298D01*
X-5525443Y-69522939D01*
X-5614918Y-69690335D01*
X-5614920Y-69690338D01*
X-5735335Y-69837065D01*
X-5857917Y-69937665D01*
X-5882064Y-69957482D01*
X-6049462Y-70046957D01*
X-6231103Y-70102058D01*
X-6420000Y-70120662D01*
X-6608898Y-70102058D01*
X-6790539Y-70046957D01*
X-6957935Y-69957482D01*
X-6957936Y-69957481D01*
X-6957938Y-69957480D01*
X-7104665Y-69837065D01*
X-7225080Y-69690338D01*
X-7225082Y-69690336D01*
X-7314557Y-69522938D01*
X-7369658Y-69341297D01*
X-7383600Y-69199737D01*
X-7383600Y-68800262D01*
X-7369658Y-68658702D01*
X-7314557Y-68477061D01*
X-7225082Y-68309665D01*
X-7194011Y-68271805D01*
X-7104664Y-68162935D01*
X-6957937Y-68042520D01*
X-6957935Y-68042519D01*
X-6957934Y-68042518D01*
X-6790538Y-67953043D01*
X-6608897Y-67897942D01*
X-6420000Y-67879338D01*
X-6231102Y-67897942D01*
G37*
G36*
X-10904130Y-67893014D02*
G01*
X-10818481Y-67918996D01*
X-10739552Y-67961184D01*
X-10670365Y-68017965D01*
X-10613584Y-68087152D01*
X-10571396Y-68166081D01*
X-10545414Y-68251730D01*
X-10536400Y-68343254D01*
X-10536400Y-69656746D01*
X-10545414Y-69748270D01*
X-10571396Y-69833919D01*
X-10613584Y-69912848D01*
X-10670365Y-69982035D01*
X-10739552Y-70038816D01*
X-10818481Y-70081004D01*
X-10904130Y-70106986D01*
X-10995654Y-70116000D01*
X-12004346Y-70116000D01*
X-12095870Y-70106986D01*
X-12181519Y-70081004D01*
X-12260448Y-70038816D01*
X-12329635Y-69982035D01*
X-12386416Y-69912848D01*
X-12428604Y-69833919D01*
X-12454586Y-69748270D01*
X-12463600Y-69656746D01*
X-12463600Y-68343254D01*
X-12454586Y-68251730D01*
X-12428604Y-68166081D01*
X-12386416Y-68087152D01*
X-12329635Y-68017965D01*
X-12260448Y-67961184D01*
X-12181519Y-67918996D01*
X-12095870Y-67893014D01*
X-12004346Y-67884000D01*
X-10995654Y-67884000D01*
X-10904130Y-67893014D01*
G37*
G36*
X-78088229Y-66740611D02*
G01*
X-78034362Y-66745916D01*
X-77965245Y-66766883D01*
X-77827010Y-66808816D01*
X-77635919Y-66910956D01*
X-77635918Y-66910957D01*
X-77635916Y-66910958D01*
X-77468419Y-67048419D01*
X-77330958Y-67215916D01*
X-77330956Y-67215919D01*
X-77228816Y-67407010D01*
X-77165916Y-67614363D01*
X-77144678Y-67830000D01*
X-77165916Y-68045637D01*
X-77228816Y-68252990D01*
X-77330956Y-68444081D01*
X-77330958Y-68444084D01*
X-77468419Y-68611581D01*
X-77635916Y-68749042D01*
X-77635918Y-68749043D01*
X-77635919Y-68749044D01*
X-77827010Y-68851184D01*
X-77965245Y-68893117D01*
X-78034362Y-68914084D01*
X-78088229Y-68919389D01*
X-78195962Y-68930000D01*
X-79804038Y-68930000D01*
X-79911771Y-68919389D01*
X-79965638Y-68914084D01*
X-80034755Y-68893117D01*
X-80172990Y-68851184D01*
X-80364081Y-68749044D01*
X-80364082Y-68749043D01*
X-80364084Y-68749042D01*
X-80531581Y-68611581D01*
X-80669042Y-68444084D01*
X-80669044Y-68444081D01*
X-80771184Y-68252990D01*
X-80834084Y-68045637D01*
X-80855322Y-67830000D01*
X-80834084Y-67614363D01*
X-80771184Y-67407010D01*
X-80669044Y-67215919D01*
X-80669042Y-67215916D01*
X-80531581Y-67048419D01*
X-80364084Y-66910958D01*
X-80364082Y-66910957D01*
X-80364081Y-66910956D01*
X-80172990Y-66808816D01*
X-80034755Y-66766883D01*
X-79965638Y-66745916D01*
X-79911771Y-66740611D01*
X-79804038Y-66730000D01*
X-78195962Y-66730000D01*
X-78088229Y-66740611D01*
G37*
G36*
X-57795819Y-67326900D02*
G01*
X-57668427Y-67379667D01*
X-57668426Y-67379668D01*
X-57553776Y-67456274D01*
X-57456274Y-67553776D01*
X-57405087Y-67630383D01*
X-57379667Y-67668427D01*
X-57326900Y-67795819D01*
X-57300000Y-67931055D01*
X-57300000Y-68068945D01*
X-57326900Y-68204181D01*
X-57379667Y-68331573D01*
X-57379668Y-68331574D01*
X-57456274Y-68446224D01*
X-57553776Y-68543726D01*
X-57630383Y-68594913D01*
X-57668427Y-68620333D01*
X-57795819Y-68673100D01*
X-57931055Y-68700000D01*
X-58068945Y-68700000D01*
X-58204181Y-68673100D01*
X-58331573Y-68620333D01*
X-58369617Y-68594913D01*
X-58446224Y-68543726D01*
X-58543726Y-68446224D01*
X-58620332Y-68331574D01*
X-58620333Y-68331573D01*
X-58673100Y-68204181D01*
X-58700000Y-68068945D01*
X-58700000Y-67931055D01*
X-58673100Y-67795819D01*
X-58620333Y-67668427D01*
X-58594913Y-67630383D01*
X-58543726Y-67553776D01*
X-58446224Y-67456274D01*
X-58331574Y-67379668D01*
X-58331573Y-67379667D01*
X-58204181Y-67326900D01*
X-58068945Y-67300000D01*
X-57931055Y-67300000D01*
X-57795819Y-67326900D01*
G37*
G36*
X-54800000Y-68700000D02*
G01*
X-56200000Y-68700000D01*
X-56200000Y-67300000D01*
X-54800000Y-67300000D01*
X-54800000Y-68700000D01*
G37*
G36*
X-72050000Y-68450000D02*
G01*
X-73450000Y-68450000D01*
X-73450000Y-67050000D01*
X-72050000Y-67050000D01*
X-72050000Y-68450000D01*
G37*
G36*
X-65050000Y-68450000D02*
G01*
X-66450000Y-68450000D01*
X-66450000Y-67050000D01*
X-65050000Y-67050000D01*
X-65050000Y-68450000D01*
G37*
G36*
X-62109144Y-64692272D02*
G01*
X-61908956Y-64775192D01*
X-61819487Y-64834974D01*
X-61728791Y-64895575D01*
X-61575575Y-65048791D01*
X-61575574Y-65048793D01*
X-61455192Y-65228956D01*
X-61372272Y-65429144D01*
X-61330000Y-65641658D01*
X-61330000Y-65858342D01*
X-61372272Y-66070856D01*
X-61455192Y-66271044D01*
X-61455193Y-66271045D01*
X-61575575Y-66451209D01*
X-61728791Y-66604425D01*
X-61818095Y-66664096D01*
X-61908956Y-66724808D01*
X-62109144Y-66807728D01*
X-62321658Y-66850000D01*
X-62538342Y-66850000D01*
X-62750856Y-66807728D01*
X-62951044Y-66724808D01*
X-63041905Y-66664096D01*
X-63131209Y-66604425D01*
X-63284425Y-66451209D01*
X-63404807Y-66271045D01*
X-63404808Y-66271044D01*
X-63487728Y-66070856D01*
X-63530000Y-65858342D01*
X-63530000Y-65641658D01*
X-63487728Y-65429144D01*
X-63404808Y-65228956D01*
X-63284426Y-65048793D01*
X-63284425Y-65048791D01*
X-63131209Y-64895575D01*
X-63040513Y-64834974D01*
X-62951044Y-64775192D01*
X-62750856Y-64692272D01*
X-62538342Y-64650000D01*
X-62321658Y-64650000D01*
X-62109144Y-64692272D01*
G37*
G36*
X-57029144Y-64692272D02*
G01*
X-56828956Y-64775192D01*
X-56739487Y-64834974D01*
X-56648791Y-64895575D01*
X-56495575Y-65048791D01*
X-56495574Y-65048793D01*
X-56375192Y-65228956D01*
X-56292272Y-65429144D01*
X-56250000Y-65641658D01*
X-56250000Y-65858342D01*
X-56292272Y-66070856D01*
X-56375192Y-66271044D01*
X-56375193Y-66271045D01*
X-56495575Y-66451209D01*
X-56648791Y-66604425D01*
X-56738095Y-66664096D01*
X-56828956Y-66724808D01*
X-57029144Y-66807728D01*
X-57241658Y-66850000D01*
X-57458342Y-66850000D01*
X-57670856Y-66807728D01*
X-57871044Y-66724808D01*
X-57961905Y-66664096D01*
X-58051209Y-66604425D01*
X-58204425Y-66451209D01*
X-58324807Y-66271045D01*
X-58324808Y-66271044D01*
X-58407728Y-66070856D01*
X-58450000Y-65858342D01*
X-58450000Y-65641658D01*
X-58407728Y-65429144D01*
X-58324808Y-65228956D01*
X-58204426Y-65048793D01*
X-58204425Y-65048791D01*
X-58051209Y-64895575D01*
X-57960513Y-64834974D01*
X-57871044Y-64775192D01*
X-57670856Y-64692272D01*
X-57458342Y-64650000D01*
X-57241658Y-64650000D01*
X-57029144Y-64692272D01*
G37*
G36*
X-67189144Y-64692272D02*
G01*
X-66988956Y-64775192D01*
X-66899487Y-64834974D01*
X-66808791Y-64895575D01*
X-66655575Y-65048791D01*
X-66655574Y-65048793D01*
X-66535192Y-65228956D01*
X-66452272Y-65429144D01*
X-66410000Y-65641658D01*
X-66410000Y-65858342D01*
X-66452272Y-66070856D01*
X-66535192Y-66271044D01*
X-66535193Y-66271045D01*
X-66655575Y-66451209D01*
X-66808791Y-66604425D01*
X-66898095Y-66664096D01*
X-66988956Y-66724808D01*
X-67189144Y-66807728D01*
X-67401658Y-66850000D01*
X-67618342Y-66850000D01*
X-67830856Y-66807728D01*
X-68031044Y-66724808D01*
X-68121905Y-66664096D01*
X-68211209Y-66604425D01*
X-68364425Y-66451209D01*
X-68484807Y-66271045D01*
X-68484808Y-66271044D01*
X-68567728Y-66070856D01*
X-68610000Y-65858342D01*
X-68610000Y-65641658D01*
X-68567728Y-65429144D01*
X-68484808Y-65228956D01*
X-68364426Y-65048793D01*
X-68364425Y-65048791D01*
X-68211209Y-64895575D01*
X-68120513Y-64834974D01*
X-68031044Y-64775192D01*
X-67830856Y-64692272D01*
X-67618342Y-64650000D01*
X-67401658Y-64650000D01*
X-67189144Y-64692272D01*
G37*
G36*
X-39403372Y-64787299D02*
G01*
X-39308935Y-64815946D01*
X-39243146Y-64835903D01*
X-39224202Y-64846029D01*
X-39095483Y-64914830D01*
X-38966052Y-65021052D01*
X-38859830Y-65150482D01*
X-38799930Y-65262548D01*
X-38780903Y-65298145D01*
X-38780903Y-65298146D01*
X-38732299Y-65458371D01*
X-38720000Y-65583247D01*
X-38720000Y-65916752D01*
X-38732299Y-66041628D01*
X-38760946Y-66136065D01*
X-38780903Y-66201855D01*
X-38780904Y-66201856D01*
X-38859830Y-66349518D01*
X-38966052Y-66478948D01*
X-39095482Y-66585170D01*
X-39207548Y-66645070D01*
X-39243145Y-66664097D01*
X-39308934Y-66684054D01*
X-39403371Y-66712701D01*
X-39570000Y-66729112D01*
X-39736628Y-66712701D01*
X-39831065Y-66684054D01*
X-39896854Y-66664097D01*
X-39932451Y-66645070D01*
X-40044517Y-66585170D01*
X-40173948Y-66478948D01*
X-40280170Y-66349518D01*
X-40359096Y-66201856D01*
X-40359097Y-66201855D01*
X-40398834Y-66070858D01*
X-40407701Y-66041629D01*
X-40420000Y-65916753D01*
X-40420000Y-65583248D01*
X-40407701Y-65458372D01*
X-40379054Y-65363935D01*
X-40359097Y-65298146D01*
X-40322114Y-65228956D01*
X-40280170Y-65150483D01*
X-40173948Y-65021052D01*
X-40044518Y-64914830D01*
X-39915799Y-64846029D01*
X-39896855Y-64835903D01*
X-39831066Y-64815946D01*
X-39736629Y-64787299D01*
X-39570000Y-64770888D01*
X-39403372Y-64787299D01*
G37*
G36*
X-34323372Y-64787299D02*
G01*
X-34228935Y-64815946D01*
X-34163146Y-64835903D01*
X-34144202Y-64846029D01*
X-34015483Y-64914830D01*
X-33886052Y-65021052D01*
X-33779830Y-65150482D01*
X-33719930Y-65262548D01*
X-33700903Y-65298145D01*
X-33700903Y-65298146D01*
X-33652299Y-65458371D01*
X-33640000Y-65583247D01*
X-33640000Y-65916752D01*
X-33652299Y-66041628D01*
X-33680946Y-66136065D01*
X-33700903Y-66201855D01*
X-33700904Y-66201856D01*
X-33779830Y-66349518D01*
X-33886052Y-66478948D01*
X-34015482Y-66585170D01*
X-34127548Y-66645070D01*
X-34163145Y-66664097D01*
X-34228934Y-66684054D01*
X-34323371Y-66712701D01*
X-34490000Y-66729112D01*
X-34656628Y-66712701D01*
X-34751065Y-66684054D01*
X-34816854Y-66664097D01*
X-34852451Y-66645070D01*
X-34964517Y-66585170D01*
X-35093948Y-66478948D01*
X-35200170Y-66349518D01*
X-35279096Y-66201856D01*
X-35279097Y-66201855D01*
X-35318834Y-66070858D01*
X-35327701Y-66041629D01*
X-35340000Y-65916753D01*
X-35340000Y-65583248D01*
X-35327701Y-65458372D01*
X-35299054Y-65363935D01*
X-35279097Y-65298146D01*
X-35242114Y-65228956D01*
X-35200170Y-65150483D01*
X-35093948Y-65021052D01*
X-34964518Y-64914830D01*
X-34835799Y-64846029D01*
X-34816855Y-64835903D01*
X-34751066Y-64815946D01*
X-34656629Y-64787299D01*
X-34490000Y-64770888D01*
X-34323372Y-64787299D01*
G37*
G36*
X-49563372Y-64787299D02*
G01*
X-49468935Y-64815946D01*
X-49403146Y-64835903D01*
X-49384202Y-64846029D01*
X-49255483Y-64914830D01*
X-49126052Y-65021052D01*
X-49019830Y-65150482D01*
X-48959930Y-65262548D01*
X-48940903Y-65298145D01*
X-48940903Y-65298146D01*
X-48892299Y-65458371D01*
X-48880000Y-65583247D01*
X-48880000Y-65916752D01*
X-48892299Y-66041628D01*
X-48920946Y-66136065D01*
X-48940903Y-66201855D01*
X-48940904Y-66201856D01*
X-49019830Y-66349518D01*
X-49126052Y-66478948D01*
X-49255482Y-66585170D01*
X-49367548Y-66645070D01*
X-49403145Y-66664097D01*
X-49468934Y-66684054D01*
X-49563371Y-66712701D01*
X-49730000Y-66729112D01*
X-49896628Y-66712701D01*
X-49991065Y-66684054D01*
X-50056854Y-66664097D01*
X-50092451Y-66645070D01*
X-50204517Y-66585170D01*
X-50333948Y-66478948D01*
X-50440170Y-66349518D01*
X-50519096Y-66201856D01*
X-50519097Y-66201855D01*
X-50558834Y-66070858D01*
X-50567701Y-66041629D01*
X-50580000Y-65916753D01*
X-50580000Y-65583248D01*
X-50567701Y-65458372D01*
X-50539054Y-65363935D01*
X-50519097Y-65298146D01*
X-50482114Y-65228956D01*
X-50440170Y-65150483D01*
X-50333948Y-65021052D01*
X-50204518Y-64914830D01*
X-50075799Y-64846029D01*
X-50056855Y-64835903D01*
X-49991066Y-64815946D01*
X-49896629Y-64787299D01*
X-49730000Y-64770888D01*
X-49563372Y-64787299D01*
G37*
G36*
X-36863372Y-64787299D02*
G01*
X-36768935Y-64815946D01*
X-36703146Y-64835903D01*
X-36684202Y-64846029D01*
X-36555483Y-64914830D01*
X-36426052Y-65021052D01*
X-36319830Y-65150482D01*
X-36259930Y-65262548D01*
X-36240903Y-65298145D01*
X-36240903Y-65298146D01*
X-36192299Y-65458371D01*
X-36180000Y-65583247D01*
X-36180000Y-65916752D01*
X-36192299Y-66041628D01*
X-36220946Y-66136065D01*
X-36240903Y-66201855D01*
X-36240904Y-66201856D01*
X-36319830Y-66349518D01*
X-36426052Y-66478948D01*
X-36555482Y-66585170D01*
X-36667548Y-66645070D01*
X-36703145Y-66664097D01*
X-36768934Y-66684054D01*
X-36863371Y-66712701D01*
X-37030000Y-66729112D01*
X-37196628Y-66712701D01*
X-37291065Y-66684054D01*
X-37356854Y-66664097D01*
X-37392451Y-66645070D01*
X-37504517Y-66585170D01*
X-37633948Y-66478948D01*
X-37740170Y-66349518D01*
X-37819096Y-66201856D01*
X-37819097Y-66201855D01*
X-37858834Y-66070858D01*
X-37867701Y-66041629D01*
X-37880000Y-65916753D01*
X-37880000Y-65583248D01*
X-37867701Y-65458372D01*
X-37839054Y-65363935D01*
X-37819097Y-65298146D01*
X-37782114Y-65228956D01*
X-37740170Y-65150483D01*
X-37633948Y-65021052D01*
X-37504518Y-64914830D01*
X-37375799Y-64846029D01*
X-37356855Y-64835903D01*
X-37291066Y-64815946D01*
X-37196629Y-64787299D01*
X-37030000Y-64770888D01*
X-36863372Y-64787299D01*
G37*
G36*
X-47023372Y-64787299D02*
G01*
X-46928935Y-64815946D01*
X-46863146Y-64835903D01*
X-46844202Y-64846029D01*
X-46715483Y-64914830D01*
X-46586052Y-65021052D01*
X-46479830Y-65150482D01*
X-46419930Y-65262548D01*
X-46400903Y-65298145D01*
X-46400903Y-65298146D01*
X-46352299Y-65458371D01*
X-46340000Y-65583247D01*
X-46340000Y-65916752D01*
X-46352299Y-66041628D01*
X-46380946Y-66136065D01*
X-46400903Y-66201855D01*
X-46400904Y-66201856D01*
X-46479830Y-66349518D01*
X-46586052Y-66478948D01*
X-46715482Y-66585170D01*
X-46827548Y-66645070D01*
X-46863145Y-66664097D01*
X-46928934Y-66684054D01*
X-47023371Y-66712701D01*
X-47190000Y-66729112D01*
X-47356628Y-66712701D01*
X-47451065Y-66684054D01*
X-47516854Y-66664097D01*
X-47552451Y-66645070D01*
X-47664517Y-66585170D01*
X-47793948Y-66478948D01*
X-47900170Y-66349518D01*
X-47979096Y-66201856D01*
X-47979097Y-66201855D01*
X-48018834Y-66070858D01*
X-48027701Y-66041629D01*
X-48040000Y-65916753D01*
X-48040000Y-65583248D01*
X-48027701Y-65458372D01*
X-47999054Y-65363935D01*
X-47979097Y-65298146D01*
X-47942114Y-65228956D01*
X-47900170Y-65150483D01*
X-47793948Y-65021052D01*
X-47664518Y-64914830D01*
X-47535799Y-64846029D01*
X-47516855Y-64835903D01*
X-47451066Y-64815946D01*
X-47356629Y-64787299D01*
X-47190000Y-64770888D01*
X-47023372Y-64787299D01*
G37*
G36*
X-44483372Y-64787299D02*
G01*
X-44388935Y-64815946D01*
X-44323146Y-64835903D01*
X-44304202Y-64846029D01*
X-44175483Y-64914830D01*
X-44046052Y-65021052D01*
X-43939830Y-65150482D01*
X-43879930Y-65262548D01*
X-43860903Y-65298145D01*
X-43860903Y-65298146D01*
X-43812299Y-65458371D01*
X-43800000Y-65583247D01*
X-43800000Y-65916752D01*
X-43812299Y-66041628D01*
X-43840946Y-66136065D01*
X-43860903Y-66201855D01*
X-43860904Y-66201856D01*
X-43939830Y-66349518D01*
X-44046052Y-66478948D01*
X-44175482Y-66585170D01*
X-44287548Y-66645070D01*
X-44323145Y-66664097D01*
X-44388934Y-66684054D01*
X-44483371Y-66712701D01*
X-44650000Y-66729112D01*
X-44816628Y-66712701D01*
X-44911065Y-66684054D01*
X-44976854Y-66664097D01*
X-45012451Y-66645070D01*
X-45124517Y-66585170D01*
X-45253948Y-66478948D01*
X-45360170Y-66349518D01*
X-45439096Y-66201856D01*
X-45439097Y-66201855D01*
X-45478834Y-66070858D01*
X-45487701Y-66041629D01*
X-45500000Y-65916753D01*
X-45500000Y-65583248D01*
X-45487701Y-65458372D01*
X-45459054Y-65363935D01*
X-45439097Y-65298146D01*
X-45402114Y-65228956D01*
X-45360170Y-65150483D01*
X-45253948Y-65021052D01*
X-45124518Y-64914830D01*
X-44995799Y-64846029D01*
X-44976855Y-64835903D01*
X-44911066Y-64815946D01*
X-44816629Y-64787299D01*
X-44650000Y-64770888D01*
X-44483372Y-64787299D01*
G37*
G36*
X-41943372Y-64787299D02*
G01*
X-41848935Y-64815946D01*
X-41783146Y-64835903D01*
X-41764202Y-64846029D01*
X-41635483Y-64914830D01*
X-41506052Y-65021052D01*
X-41399830Y-65150482D01*
X-41339930Y-65262548D01*
X-41320903Y-65298145D01*
X-41320903Y-65298146D01*
X-41272299Y-65458371D01*
X-41260000Y-65583247D01*
X-41260000Y-65916752D01*
X-41272299Y-66041628D01*
X-41300946Y-66136065D01*
X-41320903Y-66201855D01*
X-41320904Y-66201856D01*
X-41399830Y-66349518D01*
X-41506052Y-66478948D01*
X-41635482Y-66585170D01*
X-41747548Y-66645070D01*
X-41783145Y-66664097D01*
X-41848934Y-66684054D01*
X-41943371Y-66712701D01*
X-42110000Y-66729112D01*
X-42276628Y-66712701D01*
X-42371065Y-66684054D01*
X-42436854Y-66664097D01*
X-42472451Y-66645070D01*
X-42584517Y-66585170D01*
X-42713948Y-66478948D01*
X-42820170Y-66349518D01*
X-42899096Y-66201856D01*
X-42899097Y-66201855D01*
X-42938834Y-66070858D01*
X-42947701Y-66041629D01*
X-42960000Y-65916753D01*
X-42960000Y-65583248D01*
X-42947701Y-65458372D01*
X-42919054Y-65363935D01*
X-42899097Y-65298146D01*
X-42862114Y-65228956D01*
X-42820170Y-65150483D01*
X-42713948Y-65021052D01*
X-42584518Y-64914830D01*
X-42455799Y-64846029D01*
X-42436855Y-64835903D01*
X-42371066Y-64815946D01*
X-42276629Y-64787299D01*
X-42110000Y-64770888D01*
X-41943372Y-64787299D01*
G37*
G36*
X-1809787Y-63793734D02*
G01*
X-1715603Y-63812468D01*
X-1538164Y-63885966D01*
X-1378473Y-63992668D01*
X-1242668Y-64128473D01*
X-1135966Y-64288164D01*
X-1135965Y-64288166D01*
X-1134442Y-64291844D01*
X-1062468Y-64465603D01*
X-1062468Y-64465605D01*
X-1025000Y-64653969D01*
X-1025000Y-64846031D01*
X-1043734Y-64940213D01*
X-1062468Y-65034397D01*
X-1135966Y-65211836D01*
X-1242668Y-65371527D01*
X-1378473Y-65507332D01*
X-1538164Y-65614034D01*
X-1715603Y-65687532D01*
X-1809787Y-65706266D01*
X-1903969Y-65725000D01*
X-2096031Y-65725000D01*
X-2190213Y-65706266D01*
X-2284397Y-65687532D01*
X-2461836Y-65614034D01*
X-2621527Y-65507332D01*
X-2757332Y-65371527D01*
X-2864034Y-65211836D01*
X-2937532Y-65034397D01*
X-2956266Y-64940213D01*
X-2975000Y-64846031D01*
X-2975000Y-64653969D01*
X-2937532Y-64465605D01*
X-2937532Y-64465603D01*
X-2865558Y-64291844D01*
X-2864035Y-64288166D01*
X-2864034Y-64288164D01*
X-2757332Y-64128473D01*
X-2621527Y-63992668D01*
X-2461836Y-63885966D01*
X-2284397Y-63812468D01*
X-2190213Y-63793734D01*
X-2096031Y-63775000D01*
X-1903969Y-63775000D01*
X-1809787Y-63793734D01*
G37*
G36*
X-4452066Y-62932664D02*
G01*
X-4297375Y-62996739D01*
X-4297374Y-62996740D01*
X-4158156Y-63089762D01*
X-4039762Y-63208156D01*
X-4039761Y-63208158D01*
X-3946739Y-63347375D01*
X-3882664Y-63502066D01*
X-3850000Y-63666281D01*
X-3850000Y-63833719D01*
X-3882664Y-63997934D01*
X-3946739Y-64152625D01*
X-3946740Y-64152626D01*
X-4039762Y-64291844D01*
X-4158156Y-64410238D01*
X-4228238Y-64457065D01*
X-4297375Y-64503261D01*
X-4452066Y-64567336D01*
X-4616281Y-64600000D01*
X-4783719Y-64600000D01*
X-4947934Y-64567336D01*
X-5102625Y-64503261D01*
X-5171762Y-64457065D01*
X-5241844Y-64410238D01*
X-5360238Y-64291844D01*
X-5453260Y-64152626D01*
X-5453261Y-64152625D01*
X-5517336Y-63997934D01*
X-5550000Y-63833719D01*
X-5550000Y-63666281D01*
X-5517336Y-63502066D01*
X-5453261Y-63347375D01*
X-5360239Y-63208158D01*
X-5360238Y-63208156D01*
X-5241844Y-63089762D01*
X-5102626Y-62996740D01*
X-5102625Y-62996739D01*
X-4947934Y-62932664D01*
X-4783719Y-62900000D01*
X-4616281Y-62900000D01*
X-4452066Y-62932664D01*
G37*
G36*
X-78088229Y-61660611D02*
G01*
X-78034362Y-61665916D01*
X-77965245Y-61686883D01*
X-77827010Y-61728816D01*
X-77635919Y-61830956D01*
X-77635918Y-61830957D01*
X-77635916Y-61830958D01*
X-77468419Y-61968419D01*
X-77330958Y-62135916D01*
X-77330956Y-62135919D01*
X-77228816Y-62327010D01*
X-77198347Y-62427454D01*
X-77165916Y-62534362D01*
X-77144678Y-62750000D01*
X-77162668Y-62932664D01*
X-77165916Y-62965637D01*
X-77228816Y-63172990D01*
X-77330956Y-63364081D01*
X-77330958Y-63364084D01*
X-77468419Y-63531581D01*
X-77635916Y-63669042D01*
X-77635918Y-63669043D01*
X-77635919Y-63669044D01*
X-77827010Y-63771184D01*
X-77920161Y-63799441D01*
X-78034362Y-63834084D01*
X-78088229Y-63839389D01*
X-78195962Y-63850000D01*
X-79804038Y-63850000D01*
X-79911771Y-63839389D01*
X-79965638Y-63834084D01*
X-80079839Y-63799441D01*
X-80172990Y-63771184D01*
X-80364081Y-63669044D01*
X-80364082Y-63669043D01*
X-80364084Y-63669042D01*
X-80531581Y-63531581D01*
X-80669042Y-63364084D01*
X-80669044Y-63364081D01*
X-80771184Y-63172990D01*
X-80834084Y-62965637D01*
X-80837331Y-62932664D01*
X-80855322Y-62750000D01*
X-80834084Y-62534362D01*
X-80801653Y-62427454D01*
X-80771184Y-62327010D01*
X-80669044Y-62135919D01*
X-80669042Y-62135916D01*
X-80531581Y-61968419D01*
X-80364084Y-61830958D01*
X-80364082Y-61830957D01*
X-80364081Y-61830956D01*
X-80172990Y-61728816D01*
X-80034755Y-61686883D01*
X-79965638Y-61665916D01*
X-79911771Y-61660611D01*
X-79804038Y-61650000D01*
X-78195962Y-61650000D01*
X-78088229Y-61660611D01*
G37*
G36*
X-20871398Y-62155521D02*
G01*
X-20819853Y-62171157D01*
X-20772355Y-62196545D01*
X-20730717Y-62230717D01*
X-20696545Y-62272355D01*
X-20671157Y-62319853D01*
X-20655521Y-62371398D01*
X-20650000Y-62427454D01*
X-20650000Y-63572546D01*
X-20655521Y-63628602D01*
X-20671157Y-63680147D01*
X-20696545Y-63727645D01*
X-20730717Y-63769283D01*
X-20772355Y-63803455D01*
X-20819853Y-63828843D01*
X-20871398Y-63844479D01*
X-20927454Y-63850000D01*
X-21572546Y-63850000D01*
X-21628602Y-63844479D01*
X-21680147Y-63828843D01*
X-21727645Y-63803455D01*
X-21769283Y-63769283D01*
X-21803455Y-63727645D01*
X-21828843Y-63680147D01*
X-21844479Y-63628602D01*
X-21850000Y-63572546D01*
X-21850000Y-62427454D01*
X-21844479Y-62371398D01*
X-21828843Y-62319853D01*
X-21803455Y-62272355D01*
X-21769283Y-62230717D01*
X-21727645Y-62196545D01*
X-21680147Y-62171157D01*
X-21628602Y-62155521D01*
X-21572546Y-62150000D01*
X-20927454Y-62150000D01*
X-20871398Y-62155521D01*
G37*
G36*
X-22371398Y-62155521D02*
G01*
X-22319853Y-62171157D01*
X-22272355Y-62196545D01*
X-22230717Y-62230717D01*
X-22196545Y-62272355D01*
X-22171157Y-62319853D01*
X-22155521Y-62371398D01*
X-22150000Y-62427454D01*
X-22150000Y-63572546D01*
X-22155521Y-63628602D01*
X-22171157Y-63680147D01*
X-22196545Y-63727645D01*
X-22230717Y-63769283D01*
X-22272355Y-63803455D01*
X-22319853Y-63828843D01*
X-22371398Y-63844479D01*
X-22427454Y-63850000D01*
X-23072546Y-63850000D01*
X-23128602Y-63844479D01*
X-23180147Y-63828843D01*
X-23227645Y-63803455D01*
X-23269283Y-63769283D01*
X-23303455Y-63727645D01*
X-23328843Y-63680147D01*
X-23344479Y-63628602D01*
X-23350000Y-63572546D01*
X-23350000Y-62427454D01*
X-23344479Y-62371398D01*
X-23328843Y-62319853D01*
X-23303455Y-62272355D01*
X-23269283Y-62230717D01*
X-23227645Y-62196545D01*
X-23180147Y-62171157D01*
X-23128602Y-62155521D01*
X-23072546Y-62150000D01*
X-22427454Y-62150000D01*
X-22371398Y-62155521D01*
G37*
G36*
X-51843701Y-56836465D02*
G01*
X-51434227Y-57006075D01*
X-51434225Y-57006076D01*
X-51065708Y-57252311D01*
X-50752311Y-57565708D01*
X-50506076Y-57934225D01*
X-50506075Y-57934227D01*
X-50336465Y-58343701D01*
X-50250000Y-58778393D01*
X-50250000Y-59221607D01*
X-50336465Y-59656299D01*
X-50423326Y-59866000D01*
X-50506076Y-60065775D01*
X-50752311Y-60434292D01*
X-51065708Y-60747689D01*
X-51434225Y-60993924D01*
X-51434226Y-60993925D01*
X-51434227Y-60993925D01*
X-51843701Y-61163535D01*
X-52278393Y-61250000D01*
X-52721607Y-61250000D01*
X-53156299Y-61163535D01*
X-53565773Y-60993925D01*
X-53565774Y-60993925D01*
X-53565775Y-60993924D01*
X-53934292Y-60747689D01*
X-54247689Y-60434292D01*
X-54493924Y-60065775D01*
X-54576674Y-59866000D01*
X-54663535Y-59656299D01*
X-54750000Y-59221607D01*
X-54750000Y-58778393D01*
X-54663535Y-58343701D01*
X-54493925Y-57934227D01*
X-54493924Y-57934225D01*
X-54247689Y-57565708D01*
X-53934292Y-57252311D01*
X-53565775Y-57006076D01*
X-53565773Y-57006075D01*
X-53156299Y-56836465D01*
X-52721607Y-56750000D01*
X-52278393Y-56750000D01*
X-51843701Y-56836465D01*
G37*
G36*
X-44431102Y-57647942D02*
G01*
X-44249461Y-57703043D01*
X-44082065Y-57792518D01*
X-44082064Y-57792519D01*
X-44082062Y-57792520D01*
X-43935335Y-57912935D01*
X-43814920Y-58059662D01*
X-43814918Y-58059665D01*
X-43725443Y-58227061D01*
X-43670342Y-58408703D01*
X-43656400Y-58550263D01*
X-43656400Y-58949738D01*
X-43670342Y-59091298D01*
X-43725443Y-59272939D01*
X-43814918Y-59440335D01*
X-43814920Y-59440338D01*
X-43935335Y-59587065D01*
X-44057917Y-59687665D01*
X-44082064Y-59707482D01*
X-44249462Y-59796957D01*
X-44431103Y-59852058D01*
X-44620000Y-59870662D01*
X-44808898Y-59852058D01*
X-44990539Y-59796957D01*
X-45157935Y-59707482D01*
X-45157936Y-59707481D01*
X-45157938Y-59707480D01*
X-45304665Y-59587065D01*
X-45425080Y-59440338D01*
X-45425082Y-59440336D01*
X-45514557Y-59272938D01*
X-45569658Y-59091297D01*
X-45583600Y-58949737D01*
X-45583600Y-58550262D01*
X-45569658Y-58408702D01*
X-45514557Y-58227061D01*
X-45425082Y-58059665D01*
X-45425080Y-58059662D01*
X-45304664Y-57912935D01*
X-45157937Y-57792520D01*
X-45157935Y-57792519D01*
X-45157934Y-57792518D01*
X-44990538Y-57703043D01*
X-44808897Y-57647942D01*
X-44620000Y-57629338D01*
X-44431102Y-57647942D01*
G37*
G36*
X-41891102Y-57647942D02*
G01*
X-41709461Y-57703043D01*
X-41542065Y-57792518D01*
X-41542064Y-57792519D01*
X-41542062Y-57792520D01*
X-41395335Y-57912935D01*
X-41274920Y-58059662D01*
X-41274918Y-58059665D01*
X-41185443Y-58227061D01*
X-41130342Y-58408703D01*
X-41116400Y-58550263D01*
X-41116400Y-58949738D01*
X-41130342Y-59091298D01*
X-41185443Y-59272939D01*
X-41274918Y-59440335D01*
X-41274920Y-59440338D01*
X-41395335Y-59587065D01*
X-41517917Y-59687665D01*
X-41542064Y-59707482D01*
X-41709462Y-59796957D01*
X-41891103Y-59852058D01*
X-42080000Y-59870662D01*
X-42268898Y-59852058D01*
X-42450539Y-59796957D01*
X-42617935Y-59707482D01*
X-42617936Y-59707481D01*
X-42617938Y-59707480D01*
X-42764665Y-59587065D01*
X-42885080Y-59440338D01*
X-42885082Y-59440336D01*
X-42974557Y-59272938D01*
X-43029658Y-59091297D01*
X-43043600Y-58949737D01*
X-43043600Y-58550262D01*
X-43029658Y-58408702D01*
X-42974557Y-58227061D01*
X-42885082Y-58059665D01*
X-42885080Y-58059662D01*
X-42764664Y-57912935D01*
X-42617937Y-57792520D01*
X-42617935Y-57792519D01*
X-42617934Y-57792518D01*
X-42450538Y-57703043D01*
X-42268897Y-57647942D01*
X-42080000Y-57629338D01*
X-41891102Y-57647942D01*
G37*
G36*
X-39351102Y-57647942D02*
G01*
X-39169461Y-57703043D01*
X-39002065Y-57792518D01*
X-39002064Y-57792519D01*
X-39002062Y-57792520D01*
X-38855335Y-57912935D01*
X-38734920Y-58059662D01*
X-38734918Y-58059665D01*
X-38645443Y-58227061D01*
X-38590342Y-58408703D01*
X-38576400Y-58550263D01*
X-38576400Y-58949738D01*
X-38590342Y-59091298D01*
X-38645443Y-59272939D01*
X-38734918Y-59440335D01*
X-38734920Y-59440338D01*
X-38855335Y-59587065D01*
X-38977917Y-59687665D01*
X-39002064Y-59707482D01*
X-39169462Y-59796957D01*
X-39351103Y-59852058D01*
X-39540000Y-59870662D01*
X-39728898Y-59852058D01*
X-39910539Y-59796957D01*
X-40077935Y-59707482D01*
X-40077936Y-59707481D01*
X-40077938Y-59707480D01*
X-40224665Y-59587065D01*
X-40345080Y-59440338D01*
X-40345082Y-59440336D01*
X-40434557Y-59272938D01*
X-40489658Y-59091297D01*
X-40503600Y-58949737D01*
X-40503600Y-58550262D01*
X-40489658Y-58408702D01*
X-40434557Y-58227061D01*
X-40345082Y-58059665D01*
X-40345080Y-58059662D01*
X-40224664Y-57912935D01*
X-40077937Y-57792520D01*
X-40077935Y-57792519D01*
X-40077934Y-57792518D01*
X-39910538Y-57703043D01*
X-39728897Y-57647942D01*
X-39540000Y-57629338D01*
X-39351102Y-57647942D01*
G37*
G36*
X-36404130Y-57643014D02*
G01*
X-36318481Y-57668996D01*
X-36239552Y-57711184D01*
X-36170365Y-57767965D01*
X-36113584Y-57837152D01*
X-36071396Y-57916081D01*
X-36045414Y-58001730D01*
X-36036400Y-58093254D01*
X-36036400Y-59406746D01*
X-36045414Y-59498270D01*
X-36071396Y-59583919D01*
X-36113584Y-59662848D01*
X-36170365Y-59732035D01*
X-36239552Y-59788816D01*
X-36318481Y-59831004D01*
X-36404130Y-59856986D01*
X-36495654Y-59866000D01*
X-37504346Y-59866000D01*
X-37595870Y-59856986D01*
X-37681519Y-59831004D01*
X-37760448Y-59788816D01*
X-37829635Y-59732035D01*
X-37886416Y-59662848D01*
X-37928604Y-59583919D01*
X-37954586Y-59498270D01*
X-37963600Y-59406746D01*
X-37963600Y-58093254D01*
X-37954586Y-58001730D01*
X-37928604Y-57916081D01*
X-37886416Y-57837152D01*
X-37829635Y-57767965D01*
X-37760448Y-57711184D01*
X-37681519Y-57668996D01*
X-37595870Y-57643014D01*
X-37504346Y-57634000D01*
X-36495654Y-57634000D01*
X-36404130Y-57643014D01*
G37*
G36*
X-4452066Y-57932664D02*
G01*
X-4297375Y-57996739D01*
X-4258164Y-58022939D01*
X-4158156Y-58089762D01*
X-4039762Y-58208156D01*
X-4012959Y-58248270D01*
X-3946739Y-58347375D01*
X-3882664Y-58502066D01*
X-3850000Y-58666281D01*
X-3850000Y-58833719D01*
X-3882664Y-58997934D01*
X-3946739Y-59152625D01*
X-3946740Y-59152626D01*
X-4039762Y-59291844D01*
X-4158156Y-59410238D01*
X-4203200Y-59440335D01*
X-4297375Y-59503261D01*
X-4452066Y-59567336D01*
X-4616281Y-59600000D01*
X-4783719Y-59600000D01*
X-4947934Y-59567336D01*
X-5102625Y-59503261D01*
X-5196800Y-59440335D01*
X-5241844Y-59410238D01*
X-5360238Y-59291844D01*
X-5453260Y-59152626D01*
X-5453261Y-59152625D01*
X-5517336Y-58997934D01*
X-5550000Y-58833719D01*
X-5550000Y-58666281D01*
X-5517336Y-58502066D01*
X-5453261Y-58347375D01*
X-5387041Y-58248270D01*
X-5360238Y-58208156D01*
X-5241844Y-58089762D01*
X-5141836Y-58022939D01*
X-5102625Y-57996739D01*
X-4947934Y-57932664D01*
X-4783719Y-57900000D01*
X-4616281Y-57900000D01*
X-4452066Y-57932664D01*
G37*
G36*
X-78088229Y-56580611D02*
G01*
X-78034362Y-56585916D01*
X-78030288Y-56587152D01*
X-77827010Y-56648816D01*
X-77635919Y-56750956D01*
X-77635918Y-56750957D01*
X-77635916Y-56750958D01*
X-77468419Y-56888419D01*
X-77371861Y-57006076D01*
X-77330956Y-57055919D01*
X-77228816Y-57247010D01*
X-77212662Y-57300263D01*
X-77165916Y-57454362D01*
X-77144678Y-57670000D01*
X-77165916Y-57885638D01*
X-77180182Y-57932665D01*
X-77228816Y-58092990D01*
X-77311815Y-58248270D01*
X-77330958Y-58284084D01*
X-77468419Y-58451581D01*
X-77635916Y-58589042D01*
X-77635918Y-58589043D01*
X-77635919Y-58589044D01*
X-77827010Y-58691184D01*
X-77965245Y-58733117D01*
X-78034362Y-58754084D01*
X-78088229Y-58759389D01*
X-78195962Y-58770000D01*
X-79804038Y-58770000D01*
X-79911771Y-58759389D01*
X-79965638Y-58754084D01*
X-80034755Y-58733117D01*
X-80172990Y-58691184D01*
X-80364081Y-58589044D01*
X-80364082Y-58589043D01*
X-80364084Y-58589042D01*
X-80531581Y-58451581D01*
X-80669042Y-58284084D01*
X-80688185Y-58248270D01*
X-80771184Y-58092990D01*
X-80819818Y-57932665D01*
X-80834084Y-57885638D01*
X-80855322Y-57670000D01*
X-80834084Y-57454362D01*
X-80787338Y-57300263D01*
X-80771184Y-57247010D01*
X-80669044Y-57055919D01*
X-80628139Y-57006076D01*
X-80531581Y-56888419D01*
X-80364084Y-56750958D01*
X-80364082Y-56750957D01*
X-80364081Y-56750956D01*
X-80172990Y-56648816D01*
X-79969712Y-56587152D01*
X-79965638Y-56585916D01*
X-79911771Y-56580611D01*
X-79804038Y-56570000D01*
X-78195962Y-56570000D01*
X-78088229Y-56580611D01*
G37*
G36*
X-1809787Y-56793734D02*
G01*
X-1715603Y-56812468D01*
X-1538164Y-56885966D01*
X-1378473Y-56992668D01*
X-1242668Y-57128473D01*
X-1135966Y-57288164D01*
X-1062468Y-57465603D01*
X-1062468Y-57465605D01*
X-1025000Y-57653969D01*
X-1025000Y-57846031D01*
X-1035735Y-57900000D01*
X-1062468Y-58034397D01*
X-1103808Y-58134200D01*
X-1134442Y-58208158D01*
X-1135966Y-58211836D01*
X-1242668Y-58371527D01*
X-1378473Y-58507332D01*
X-1538164Y-58614034D01*
X-1715603Y-58687532D01*
X-1809787Y-58706266D01*
X-1903969Y-58725000D01*
X-2096031Y-58725000D01*
X-2190213Y-58706266D01*
X-2284397Y-58687532D01*
X-2461836Y-58614034D01*
X-2621527Y-58507332D01*
X-2757332Y-58371527D01*
X-2864034Y-58211836D01*
X-2865557Y-58208158D01*
X-2896192Y-58134200D01*
X-2937532Y-58034397D01*
X-2964265Y-57900000D01*
X-2975000Y-57846031D01*
X-2975000Y-57653969D01*
X-2937532Y-57465605D01*
X-2937532Y-57465603D01*
X-2864034Y-57288164D01*
X-2757332Y-57128473D01*
X-2621527Y-56992668D01*
X-2461836Y-56885966D01*
X-2284397Y-56812468D01*
X-2190213Y-56793734D01*
X-2096031Y-56775000D01*
X-1903969Y-56775000D01*
X-1809787Y-56793734D01*
G37*
G36*
X-16351102Y-56397942D02*
G01*
X-16169461Y-56453043D01*
X-16002065Y-56542518D01*
X-16002064Y-56542519D01*
X-16002062Y-56542520D01*
X-15855335Y-56662935D01*
X-15734920Y-56809662D01*
X-15734918Y-56809665D01*
X-15645443Y-56977061D01*
X-15590342Y-57158703D01*
X-15576400Y-57300263D01*
X-15576400Y-57699738D01*
X-15590342Y-57841298D01*
X-15645443Y-58022939D01*
X-15734918Y-58190335D01*
X-15734920Y-58190338D01*
X-15855335Y-58337065D01*
X-15977917Y-58437665D01*
X-16002064Y-58457482D01*
X-16169462Y-58546957D01*
X-16351103Y-58602058D01*
X-16540000Y-58620662D01*
X-16728898Y-58602058D01*
X-16910539Y-58546957D01*
X-17077935Y-58457482D01*
X-17077936Y-58457481D01*
X-17077938Y-58457480D01*
X-17224665Y-58337065D01*
X-17345080Y-58190338D01*
X-17345082Y-58190336D01*
X-17434557Y-58022938D01*
X-17489658Y-57841297D01*
X-17503600Y-57699737D01*
X-17503600Y-57300262D01*
X-17489658Y-57158702D01*
X-17434557Y-56977061D01*
X-17345082Y-56809665D01*
X-17345080Y-56809662D01*
X-17224664Y-56662935D01*
X-17077937Y-56542520D01*
X-17077935Y-56542519D01*
X-17077934Y-56542518D01*
X-16910538Y-56453043D01*
X-16728897Y-56397942D01*
X-16540000Y-56379338D01*
X-16351102Y-56397942D01*
G37*
G36*
X-13811102Y-56397942D02*
G01*
X-13629461Y-56453043D01*
X-13462065Y-56542518D01*
X-13462064Y-56542519D01*
X-13462062Y-56542520D01*
X-13315335Y-56662935D01*
X-13194920Y-56809662D01*
X-13194918Y-56809665D01*
X-13105443Y-56977061D01*
X-13050342Y-57158703D01*
X-13036400Y-57300263D01*
X-13036400Y-57699738D01*
X-13050342Y-57841298D01*
X-13105443Y-58022939D01*
X-13194918Y-58190335D01*
X-13194920Y-58190338D01*
X-13315335Y-58337065D01*
X-13437917Y-58437665D01*
X-13462064Y-58457482D01*
X-13629462Y-58546957D01*
X-13811103Y-58602058D01*
X-14000000Y-58620662D01*
X-14188898Y-58602058D01*
X-14370539Y-58546957D01*
X-14537935Y-58457482D01*
X-14537936Y-58457481D01*
X-14537938Y-58457480D01*
X-14684665Y-58337065D01*
X-14805080Y-58190338D01*
X-14805082Y-58190336D01*
X-14894557Y-58022938D01*
X-14949658Y-57841297D01*
X-14963600Y-57699737D01*
X-14963600Y-57300262D01*
X-14949658Y-57158702D01*
X-14894557Y-56977061D01*
X-14805082Y-56809665D01*
X-14805080Y-56809662D01*
X-14684664Y-56662935D01*
X-14537937Y-56542520D01*
X-14537935Y-56542519D01*
X-14537934Y-56542518D01*
X-14370538Y-56453043D01*
X-14188897Y-56397942D01*
X-14000000Y-56379338D01*
X-13811102Y-56397942D01*
G37*
G36*
X-11271102Y-56397942D02*
G01*
X-11089461Y-56453043D01*
X-10922065Y-56542518D01*
X-10922064Y-56542519D01*
X-10922062Y-56542520D01*
X-10775335Y-56662935D01*
X-10654920Y-56809662D01*
X-10654918Y-56809665D01*
X-10565443Y-56977061D01*
X-10510342Y-57158703D01*
X-10496400Y-57300263D01*
X-10496400Y-57699738D01*
X-10510342Y-57841298D01*
X-10565443Y-58022939D01*
X-10654918Y-58190335D01*
X-10654920Y-58190338D01*
X-10775335Y-58337065D01*
X-10897917Y-58437665D01*
X-10922064Y-58457482D01*
X-11089462Y-58546957D01*
X-11271103Y-58602058D01*
X-11460000Y-58620662D01*
X-11648898Y-58602058D01*
X-11830539Y-58546957D01*
X-11997935Y-58457482D01*
X-11997936Y-58457481D01*
X-11997938Y-58457480D01*
X-12144665Y-58337065D01*
X-12265080Y-58190338D01*
X-12265082Y-58190336D01*
X-12354557Y-58022938D01*
X-12409658Y-57841297D01*
X-12423600Y-57699737D01*
X-12423600Y-57300262D01*
X-12409658Y-57158702D01*
X-12354557Y-56977061D01*
X-12265082Y-56809665D01*
X-12265080Y-56809662D01*
X-12144664Y-56662935D01*
X-11997937Y-56542520D01*
X-11997935Y-56542519D01*
X-11997934Y-56542518D01*
X-11830538Y-56453043D01*
X-11648897Y-56397942D01*
X-11460000Y-56379338D01*
X-11271102Y-56397942D01*
G37*
G36*
X-18484130Y-56393014D02*
G01*
X-18398481Y-56418996D01*
X-18319552Y-56461184D01*
X-18250365Y-56517965D01*
X-18193584Y-56587152D01*
X-18151396Y-56666081D01*
X-18125414Y-56751730D01*
X-18116400Y-56843254D01*
X-18116400Y-58156746D01*
X-18125414Y-58248270D01*
X-18151396Y-58333919D01*
X-18193584Y-58412848D01*
X-18250365Y-58482035D01*
X-18319552Y-58538816D01*
X-18398481Y-58581004D01*
X-18484130Y-58606986D01*
X-18575654Y-58616000D01*
X-19584346Y-58616000D01*
X-19675870Y-58606986D01*
X-19761519Y-58581004D01*
X-19840448Y-58538816D01*
X-19909635Y-58482035D01*
X-19966416Y-58412848D01*
X-20008604Y-58333919D01*
X-20034586Y-58248270D01*
X-20043600Y-58156746D01*
X-20043600Y-56843254D01*
X-20034586Y-56751730D01*
X-20008604Y-56666081D01*
X-19966416Y-56587152D01*
X-19909635Y-56517965D01*
X-19840448Y-56461184D01*
X-19761519Y-56418996D01*
X-19675870Y-56393014D01*
X-19584346Y-56384000D01*
X-18575654Y-56384000D01*
X-18484130Y-56393014D01*
G37*
G36*
X-14574988Y-54423057D02*
G01*
X-14531899Y-54440905D01*
X-14465793Y-54468287D01*
X-14367522Y-54533950D01*
X-14283950Y-54617522D01*
X-14245535Y-54675014D01*
X-14218286Y-54715795D01*
X-14173057Y-54824988D01*
X-14150000Y-54940904D01*
X-14150000Y-55059096D01*
X-14173057Y-55175012D01*
X-14173058Y-55175014D01*
X-14218287Y-55284207D01*
X-14283950Y-55382478D01*
X-14367522Y-55466050D01*
X-14465793Y-55531713D01*
X-14465794Y-55531714D01*
X-14465795Y-55531714D01*
X-14574988Y-55576943D01*
X-14690904Y-55600000D01*
X-14809096Y-55600000D01*
X-14925012Y-55576943D01*
X-15034205Y-55531714D01*
X-15034206Y-55531714D01*
X-15034207Y-55531713D01*
X-15132478Y-55466050D01*
X-15216050Y-55382478D01*
X-15281713Y-55284207D01*
X-15326942Y-55175014D01*
X-15326943Y-55175012D01*
X-15350000Y-55059096D01*
X-15350000Y-54940904D01*
X-15326943Y-54824988D01*
X-15281714Y-54715795D01*
X-15254465Y-54675014D01*
X-15216050Y-54617522D01*
X-15132478Y-54533950D01*
X-15034207Y-54468287D01*
X-14968101Y-54440905D01*
X-14925012Y-54423057D01*
X-14809096Y-54400000D01*
X-14690904Y-54400000D01*
X-14574988Y-54423057D01*
G37*
G36*
X-16074988Y-54423057D02*
G01*
X-16031899Y-54440905D01*
X-15965793Y-54468287D01*
X-15867522Y-54533950D01*
X-15783950Y-54617522D01*
X-15745535Y-54675014D01*
X-15718286Y-54715795D01*
X-15673057Y-54824988D01*
X-15650000Y-54940904D01*
X-15650000Y-55059096D01*
X-15673057Y-55175012D01*
X-15673058Y-55175014D01*
X-15718287Y-55284207D01*
X-15783950Y-55382478D01*
X-15867522Y-55466050D01*
X-15965793Y-55531713D01*
X-15965794Y-55531714D01*
X-15965795Y-55531714D01*
X-16074988Y-55576943D01*
X-16190904Y-55600000D01*
X-16309096Y-55600000D01*
X-16425012Y-55576943D01*
X-16534205Y-55531714D01*
X-16534206Y-55531714D01*
X-16534207Y-55531713D01*
X-16632478Y-55466050D01*
X-16716050Y-55382478D01*
X-16781713Y-55284207D01*
X-16826942Y-55175014D01*
X-16826943Y-55175012D01*
X-16850000Y-55059096D01*
X-16850000Y-54940904D01*
X-16826943Y-54824988D01*
X-16781714Y-54715795D01*
X-16754465Y-54675014D01*
X-16716050Y-54617522D01*
X-16632478Y-54533950D01*
X-16534207Y-54468287D01*
X-16468101Y-54440905D01*
X-16425012Y-54423057D01*
X-16309096Y-54400000D01*
X-16190904Y-54400000D01*
X-16074988Y-54423057D01*
G37*
G36*
X-84824988Y-53923057D02*
G01*
X-84824985Y-53923058D01*
X-84824986Y-53923058D01*
X-84715793Y-53968287D01*
X-84617522Y-54033950D01*
X-84533950Y-54117522D01*
X-84533949Y-54117524D01*
X-84468286Y-54215795D01*
X-84423057Y-54324988D01*
X-84400000Y-54440904D01*
X-84400000Y-54559096D01*
X-84423057Y-54675012D01*
X-84423058Y-54675014D01*
X-84468287Y-54784207D01*
X-84533950Y-54882478D01*
X-84617522Y-54966050D01*
X-84715793Y-55031713D01*
X-84715794Y-55031714D01*
X-84715795Y-55031714D01*
X-84824988Y-55076943D01*
X-84940904Y-55100000D01*
X-85059096Y-55100000D01*
X-85175012Y-55076943D01*
X-85284205Y-55031714D01*
X-85284206Y-55031714D01*
X-85284207Y-55031713D01*
X-85382478Y-54966050D01*
X-85466050Y-54882478D01*
X-85531713Y-54784207D01*
X-85576942Y-54675014D01*
X-85576943Y-54675012D01*
X-85600000Y-54559096D01*
X-85600000Y-54440904D01*
X-85576943Y-54324988D01*
X-85531714Y-54215795D01*
X-85466051Y-54117524D01*
X-85466050Y-54117522D01*
X-85382478Y-54033950D01*
X-85284207Y-53968287D01*
X-85175014Y-53923058D01*
X-85175015Y-53923058D01*
X-85175012Y-53923057D01*
X-85059096Y-53900000D01*
X-84940904Y-53900000D01*
X-84824988Y-53923057D01*
G37*
G36*
X-83324988Y-53923057D02*
G01*
X-83324985Y-53923058D01*
X-83324986Y-53923058D01*
X-83215793Y-53968287D01*
X-83117522Y-54033950D01*
X-83033950Y-54117522D01*
X-83033949Y-54117524D01*
X-82968286Y-54215795D01*
X-82923057Y-54324988D01*
X-82900000Y-54440904D01*
X-82900000Y-54559096D01*
X-82923057Y-54675012D01*
X-82923058Y-54675014D01*
X-82968287Y-54784207D01*
X-83033950Y-54882478D01*
X-83117522Y-54966050D01*
X-83215793Y-55031713D01*
X-83215794Y-55031714D01*
X-83215795Y-55031714D01*
X-83324988Y-55076943D01*
X-83440904Y-55100000D01*
X-83559096Y-55100000D01*
X-83675012Y-55076943D01*
X-83784205Y-55031714D01*
X-83784206Y-55031714D01*
X-83784207Y-55031713D01*
X-83882478Y-54966050D01*
X-83966050Y-54882478D01*
X-84031713Y-54784207D01*
X-84076942Y-54675014D01*
X-84076943Y-54675012D01*
X-84100000Y-54559096D01*
X-84100000Y-54440904D01*
X-84076943Y-54324988D01*
X-84031714Y-54215795D01*
X-83966051Y-54117524D01*
X-83966050Y-54117522D01*
X-83882478Y-54033950D01*
X-83784207Y-53968287D01*
X-83675014Y-53923058D01*
X-83675015Y-53923058D01*
X-83675012Y-53923057D01*
X-83559096Y-53900000D01*
X-83440904Y-53900000D01*
X-83324988Y-53923057D01*
G37*
G36*
X-15824988Y-51673057D02*
G01*
X-15824985Y-51673058D01*
X-15824986Y-51673058D01*
X-15715793Y-51718287D01*
X-15617522Y-51783950D01*
X-15533950Y-51867522D01*
X-15484917Y-51940905D01*
X-15468286Y-51965795D01*
X-15423057Y-52074988D01*
X-15400000Y-52190904D01*
X-15400000Y-52309096D01*
X-15423057Y-52425012D01*
X-15440056Y-52466051D01*
X-15468287Y-52534207D01*
X-15533950Y-52632478D01*
X-15617522Y-52716050D01*
X-15715793Y-52781713D01*
X-15715794Y-52781714D01*
X-15715795Y-52781714D01*
X-15824988Y-52826943D01*
X-15940904Y-52850000D01*
X-16059096Y-52850000D01*
X-16175012Y-52826943D01*
X-16284205Y-52781714D01*
X-16284206Y-52781714D01*
X-16284207Y-52781713D01*
X-16382478Y-52716050D01*
X-16466050Y-52632478D01*
X-16531713Y-52534207D01*
X-16559944Y-52466051D01*
X-16576943Y-52425012D01*
X-16600000Y-52309096D01*
X-16600000Y-52190904D01*
X-16576943Y-52074988D01*
X-16531714Y-51965795D01*
X-16515083Y-51940905D01*
X-16466050Y-51867522D01*
X-16382478Y-51783950D01*
X-16284207Y-51718287D01*
X-16175014Y-51673058D01*
X-16175015Y-51673058D01*
X-16175012Y-51673057D01*
X-16059096Y-51650000D01*
X-15940904Y-51650000D01*
X-15824988Y-51673057D01*
G37*
G36*
X-14324988Y-51673057D02*
G01*
X-14324985Y-51673058D01*
X-14324986Y-51673058D01*
X-14215793Y-51718287D01*
X-14117522Y-51783950D01*
X-14033950Y-51867522D01*
X-13984917Y-51940905D01*
X-13968286Y-51965795D01*
X-13923057Y-52074988D01*
X-13900000Y-52190904D01*
X-13900000Y-52309096D01*
X-13923057Y-52425012D01*
X-13940056Y-52466051D01*
X-13968287Y-52534207D01*
X-14033950Y-52632478D01*
X-14117522Y-52716050D01*
X-14215793Y-52781713D01*
X-14215794Y-52781714D01*
X-14215795Y-52781714D01*
X-14324988Y-52826943D01*
X-14440904Y-52850000D01*
X-14559096Y-52850000D01*
X-14675012Y-52826943D01*
X-14784205Y-52781714D01*
X-14784206Y-52781714D01*
X-14784207Y-52781713D01*
X-14882478Y-52716050D01*
X-14966050Y-52632478D01*
X-15031713Y-52534207D01*
X-15059944Y-52466051D01*
X-15076943Y-52425012D01*
X-15100000Y-52309096D01*
X-15100000Y-52190904D01*
X-15076943Y-52074988D01*
X-15031714Y-51965795D01*
X-15015083Y-51940905D01*
X-14966050Y-51867522D01*
X-14882478Y-51783950D01*
X-14784207Y-51718287D01*
X-14675014Y-51673058D01*
X-14675015Y-51673058D01*
X-14675012Y-51673057D01*
X-14559096Y-51650000D01*
X-14440904Y-51650000D01*
X-14324988Y-51673057D01*
G37*
G36*
X-83324988Y-51423057D02*
G01*
X-83324985Y-51423058D01*
X-83324986Y-51423058D01*
X-83215793Y-51468287D01*
X-83117522Y-51533950D01*
X-83033950Y-51617522D01*
X-82996842Y-51673058D01*
X-82968286Y-51715795D01*
X-82923057Y-51824988D01*
X-82900000Y-51940904D01*
X-82900000Y-52059096D01*
X-82923057Y-52175012D01*
X-82923058Y-52175014D01*
X-82968287Y-52284207D01*
X-83033950Y-52382478D01*
X-83117522Y-52466050D01*
X-83215793Y-52531713D01*
X-83215794Y-52531714D01*
X-83215795Y-52531714D01*
X-83324988Y-52576943D01*
X-83440904Y-52600000D01*
X-83559096Y-52600000D01*
X-83675012Y-52576943D01*
X-83784205Y-52531714D01*
X-83784206Y-52531714D01*
X-83784207Y-52531713D01*
X-83882478Y-52466050D01*
X-83966050Y-52382478D01*
X-84031713Y-52284207D01*
X-84076942Y-52175014D01*
X-84076943Y-52175012D01*
X-84100000Y-52059096D01*
X-84100000Y-51940904D01*
X-84076943Y-51824988D01*
X-84031714Y-51715795D01*
X-84003158Y-51673058D01*
X-83966050Y-51617522D01*
X-83882478Y-51533950D01*
X-83784207Y-51468287D01*
X-83675014Y-51423058D01*
X-83675015Y-51423058D01*
X-83675012Y-51423057D01*
X-83559096Y-51400000D01*
X-83440904Y-51400000D01*
X-83324988Y-51423057D01*
G37*
G36*
X-84824988Y-51423057D02*
G01*
X-84824985Y-51423058D01*
X-84824986Y-51423058D01*
X-84715793Y-51468287D01*
X-84617522Y-51533950D01*
X-84533950Y-51617522D01*
X-84496842Y-51673058D01*
X-84468286Y-51715795D01*
X-84423057Y-51824988D01*
X-84400000Y-51940904D01*
X-84400000Y-52059096D01*
X-84423057Y-52175012D01*
X-84423058Y-52175014D01*
X-84468287Y-52284207D01*
X-84533950Y-52382478D01*
X-84617522Y-52466050D01*
X-84715793Y-52531713D01*
X-84715794Y-52531714D01*
X-84715795Y-52531714D01*
X-84824988Y-52576943D01*
X-84940904Y-52600000D01*
X-85059096Y-52600000D01*
X-85175012Y-52576943D01*
X-85284205Y-52531714D01*
X-85284206Y-52531714D01*
X-85284207Y-52531713D01*
X-85382478Y-52466050D01*
X-85466050Y-52382478D01*
X-85531713Y-52284207D01*
X-85576942Y-52175014D01*
X-85576943Y-52175012D01*
X-85600000Y-52059096D01*
X-85600000Y-51940904D01*
X-85576943Y-51824988D01*
X-85531714Y-51715795D01*
X-85503158Y-51673058D01*
X-85466050Y-51617522D01*
X-85382478Y-51533950D01*
X-85284207Y-51468287D01*
X-85175014Y-51423058D01*
X-85175015Y-51423058D01*
X-85175012Y-51423057D01*
X-85059096Y-51400000D01*
X-84940904Y-51400000D01*
X-84824988Y-51423057D01*
G37*
G36*
X-5701313Y-49955027D02*
G01*
X-5523726Y-49990350D01*
X-5332638Y-50069502D01*
X-5160664Y-50184411D01*
X-5014411Y-50330664D01*
X-4899502Y-50502638D01*
X-4820350Y-50693726D01*
X-4792465Y-50833919D01*
X-4780000Y-50896583D01*
X-4780000Y-51103417D01*
X-4780710Y-51106986D01*
X-4820350Y-51306274D01*
X-4899502Y-51497362D01*
X-5014411Y-51669336D01*
X-5160664Y-51815589D01*
X-5332638Y-51930498D01*
X-5523726Y-52009650D01*
X-5701313Y-52044973D01*
X-5726583Y-52050000D01*
X-5933417Y-52050000D01*
X-5958687Y-52044973D01*
X-6136274Y-52009650D01*
X-6327362Y-51930498D01*
X-6499336Y-51815589D01*
X-6645589Y-51669336D01*
X-6760498Y-51497362D01*
X-6839650Y-51306274D01*
X-6879290Y-51106986D01*
X-6880000Y-51103417D01*
X-6880000Y-50896583D01*
X-6867535Y-50833919D01*
X-6839650Y-50693726D01*
X-6760498Y-50502638D01*
X-6645589Y-50330664D01*
X-6499336Y-50184411D01*
X-6327362Y-50069502D01*
X-6136274Y-49990350D01*
X-5958687Y-49955027D01*
X-5933417Y-49950000D01*
X-5726583Y-49950000D01*
X-5701313Y-49955027D01*
G37*
G36*
X-58431102Y-48897942D02*
G01*
X-58249461Y-48953043D01*
X-58082065Y-49042518D01*
X-58082064Y-49042519D01*
X-58082062Y-49042520D01*
X-57935335Y-49162935D01*
X-57814920Y-49309662D01*
X-57814918Y-49309665D01*
X-57725443Y-49477061D01*
X-57670342Y-49658703D01*
X-57656400Y-49800263D01*
X-57656400Y-50199738D01*
X-57670342Y-50341298D01*
X-57725443Y-50522939D01*
X-57814918Y-50690335D01*
X-57814920Y-50690338D01*
X-57935335Y-50837065D01*
X-58057917Y-50937665D01*
X-58082064Y-50957482D01*
X-58249462Y-51046957D01*
X-58431103Y-51102058D01*
X-58620000Y-51120662D01*
X-58808898Y-51102058D01*
X-58990539Y-51046957D01*
X-59157935Y-50957482D01*
X-59157936Y-50957481D01*
X-59157938Y-50957480D01*
X-59304665Y-50837065D01*
X-59425080Y-50690338D01*
X-59425082Y-50690336D01*
X-59514557Y-50522938D01*
X-59569658Y-50341297D01*
X-59583600Y-50199737D01*
X-59583600Y-49800262D01*
X-59569658Y-49658702D01*
X-59514557Y-49477061D01*
X-59425082Y-49309665D01*
X-59394011Y-49271805D01*
X-59304664Y-49162935D01*
X-59157937Y-49042520D01*
X-59157935Y-49042519D01*
X-59157934Y-49042518D01*
X-58990538Y-48953043D01*
X-58808897Y-48897942D01*
X-58620000Y-48879338D01*
X-58431102Y-48897942D01*
G37*
G36*
X-55891102Y-48897942D02*
G01*
X-55709461Y-48953043D01*
X-55542065Y-49042518D01*
X-55542064Y-49042519D01*
X-55542062Y-49042520D01*
X-55395335Y-49162935D01*
X-55274920Y-49309662D01*
X-55274918Y-49309665D01*
X-55185443Y-49477061D01*
X-55130342Y-49658703D01*
X-55116400Y-49800263D01*
X-55116400Y-50199738D01*
X-55130342Y-50341298D01*
X-55185443Y-50522939D01*
X-55274918Y-50690335D01*
X-55274920Y-50690338D01*
X-55395335Y-50837065D01*
X-55517917Y-50937665D01*
X-55542064Y-50957482D01*
X-55709462Y-51046957D01*
X-55891103Y-51102058D01*
X-56080000Y-51120662D01*
X-56268898Y-51102058D01*
X-56450539Y-51046957D01*
X-56617935Y-50957482D01*
X-56617936Y-50957481D01*
X-56617938Y-50957480D01*
X-56764665Y-50837065D01*
X-56885080Y-50690338D01*
X-56885082Y-50690336D01*
X-56974557Y-50522938D01*
X-57029658Y-50341297D01*
X-57043600Y-50199737D01*
X-57043600Y-49800262D01*
X-57029658Y-49658702D01*
X-56974557Y-49477061D01*
X-56885082Y-49309665D01*
X-56854011Y-49271805D01*
X-56764664Y-49162935D01*
X-56617937Y-49042520D01*
X-56617935Y-49042519D01*
X-56617934Y-49042518D01*
X-56450538Y-48953043D01*
X-56268897Y-48897942D01*
X-56080000Y-48879338D01*
X-55891102Y-48897942D01*
G37*
G36*
X-53351102Y-48897942D02*
G01*
X-53169461Y-48953043D01*
X-53002065Y-49042518D01*
X-53002064Y-49042519D01*
X-53002062Y-49042520D01*
X-52855335Y-49162935D01*
X-52734920Y-49309662D01*
X-52734918Y-49309665D01*
X-52645443Y-49477061D01*
X-52590342Y-49658703D01*
X-52576400Y-49800263D01*
X-52576400Y-50199738D01*
X-52590342Y-50341298D01*
X-52645443Y-50522939D01*
X-52734918Y-50690335D01*
X-52734920Y-50690338D01*
X-52855335Y-50837065D01*
X-52977917Y-50937665D01*
X-53002064Y-50957482D01*
X-53169462Y-51046957D01*
X-53351103Y-51102058D01*
X-53540000Y-51120662D01*
X-53728898Y-51102058D01*
X-53910539Y-51046957D01*
X-54077935Y-50957482D01*
X-54077936Y-50957481D01*
X-54077938Y-50957480D01*
X-54224665Y-50837065D01*
X-54345080Y-50690338D01*
X-54345082Y-50690336D01*
X-54434557Y-50522938D01*
X-54489658Y-50341297D01*
X-54503600Y-50199737D01*
X-54503600Y-49800262D01*
X-54489658Y-49658702D01*
X-54434557Y-49477061D01*
X-54345082Y-49309665D01*
X-54314011Y-49271805D01*
X-54224664Y-49162935D01*
X-54077937Y-49042520D01*
X-54077935Y-49042519D01*
X-54077934Y-49042518D01*
X-53910538Y-48953043D01*
X-53728897Y-48897942D01*
X-53540000Y-48879338D01*
X-53351102Y-48897942D01*
G37*
G36*
X-50404130Y-48893014D02*
G01*
X-50318481Y-48918996D01*
X-50239552Y-48961184D01*
X-50170365Y-49017965D01*
X-50113584Y-49087152D01*
X-50071396Y-49166081D01*
X-50045414Y-49251730D01*
X-50036400Y-49343254D01*
X-50036400Y-50656746D01*
X-50045414Y-50748270D01*
X-50071396Y-50833919D01*
X-50113584Y-50912848D01*
X-50170365Y-50982035D01*
X-50239552Y-51038816D01*
X-50318481Y-51081004D01*
X-50404130Y-51106986D01*
X-50495654Y-51116000D01*
X-51504346Y-51116000D01*
X-51595870Y-51106986D01*
X-51681519Y-51081004D01*
X-51760448Y-51038816D01*
X-51829635Y-50982035D01*
X-51886416Y-50912848D01*
X-51928604Y-50833919D01*
X-51954586Y-50748270D01*
X-51963600Y-50656746D01*
X-51963600Y-49343254D01*
X-51954586Y-49251730D01*
X-51928604Y-49166081D01*
X-51886416Y-49087152D01*
X-51829635Y-49017965D01*
X-51760448Y-48961184D01*
X-51681519Y-48918996D01*
X-51595870Y-48893014D01*
X-51504346Y-48884000D01*
X-50495654Y-48884000D01*
X-50404130Y-48893014D01*
G37*
G36*
X-2078101Y-47481704D02*
G01*
X-1918713Y-47513408D01*
X-1794333Y-47564928D01*
X-1618433Y-47637788D01*
X-1618432Y-47637789D01*
X-1348186Y-47818361D01*
X-1118361Y-48048186D01*
X-1027462Y-48184226D01*
X-937788Y-48318433D01*
X-813408Y-48618714D01*
X-750000Y-48937488D01*
X-750000Y-49262512D01*
X-759379Y-49309662D01*
X-813408Y-49581287D01*
X-864928Y-49705667D01*
X-937788Y-49881567D01*
X-993708Y-49965257D01*
X-1118361Y-50151814D01*
X-1348186Y-50381639D01*
X-1484226Y-50472538D01*
X-1618433Y-50562212D01*
X-1792228Y-50634200D01*
X-1918713Y-50686592D01*
X-2078101Y-50718296D01*
X-2237488Y-50750000D01*
X-2562512Y-50750000D01*
X-2721899Y-50718296D01*
X-2881287Y-50686592D01*
X-3007772Y-50634200D01*
X-3181567Y-50562212D01*
X-3315774Y-50472538D01*
X-3451814Y-50381639D01*
X-3681639Y-50151814D01*
X-3806292Y-49965257D01*
X-3862212Y-49881567D01*
X-3935072Y-49705667D01*
X-3986592Y-49581287D01*
X-4040621Y-49309662D01*
X-4050000Y-49262512D01*
X-4050000Y-48937488D01*
X-3986592Y-48618714D01*
X-3862212Y-48318433D01*
X-3772538Y-48184226D01*
X-3681639Y-48048186D01*
X-3451814Y-47818361D01*
X-3181568Y-47637789D01*
X-3181567Y-47637788D01*
X-3005667Y-47564928D01*
X-2881287Y-47513408D01*
X-2721899Y-47481704D01*
X-2562512Y-47450000D01*
X-2237488Y-47450000D01*
X-2078101Y-47481704D01*
G37*
G36*
X-11361235Y-48888821D02*
G01*
X-11224743Y-48945358D01*
X-11101904Y-49027436D01*
X-10997436Y-49131904D01*
X-10915358Y-49254743D01*
X-10858821Y-49391235D01*
X-10830000Y-49536130D01*
X-10830000Y-49683870D01*
X-10858821Y-49828765D01*
X-10915358Y-49965257D01*
X-10997436Y-50088096D01*
X-11101904Y-50192564D01*
X-11224743Y-50274642D01*
X-11361235Y-50331179D01*
X-11506130Y-50360000D01*
X-11653870Y-50360000D01*
X-11798765Y-50331179D01*
X-11935257Y-50274642D01*
X-12058096Y-50192564D01*
X-12162564Y-50088096D01*
X-12244642Y-49965257D01*
X-12301179Y-49828765D01*
X-12330000Y-49683870D01*
X-12330000Y-49536130D01*
X-12301179Y-49391235D01*
X-12244642Y-49254743D01*
X-12162564Y-49131904D01*
X-12058096Y-49027436D01*
X-11935257Y-48945358D01*
X-11798765Y-48888821D01*
X-11653870Y-48860000D01*
X-11506130Y-48860000D01*
X-11361235Y-48888821D01*
G37*
G36*
X-11361235Y-46598821D02*
G01*
X-11224743Y-46655358D01*
X-11101904Y-46737436D01*
X-10997436Y-46841904D01*
X-10915358Y-46964743D01*
X-10858821Y-47101235D01*
X-10830000Y-47246130D01*
X-10830000Y-47393870D01*
X-10858821Y-47538765D01*
X-10915358Y-47675257D01*
X-10997436Y-47798096D01*
X-11101904Y-47902564D01*
X-11224743Y-47984642D01*
X-11361235Y-48041179D01*
X-11506130Y-48070000D01*
X-11653870Y-48070000D01*
X-11798765Y-48041179D01*
X-11935257Y-47984642D01*
X-12058096Y-47902564D01*
X-12162564Y-47798096D01*
X-12244642Y-47675257D01*
X-12301179Y-47538765D01*
X-12330000Y-47393870D01*
X-12330000Y-47246130D01*
X-12301179Y-47101235D01*
X-12244642Y-46964743D01*
X-12162564Y-46841904D01*
X-12058096Y-46737436D01*
X-11935257Y-46655358D01*
X-11798765Y-46598821D01*
X-11653870Y-46570000D01*
X-11506130Y-46570000D01*
X-11361235Y-46598821D01*
G37*
G36*
X-4721235Y-45598821D02*
G01*
X-4584743Y-45655358D01*
X-4461904Y-45737436D01*
X-4357436Y-45841904D01*
X-4275358Y-45964743D01*
X-4218821Y-46101235D01*
X-4190000Y-46246130D01*
X-4190000Y-46393870D01*
X-4218821Y-46538765D01*
X-4275358Y-46675257D01*
X-4357436Y-46798096D01*
X-4461904Y-46902564D01*
X-4584743Y-46984642D01*
X-4721235Y-47041179D01*
X-4866130Y-47070000D01*
X-5013870Y-47070000D01*
X-5158765Y-47041179D01*
X-5295257Y-46984642D01*
X-5418096Y-46902564D01*
X-5522564Y-46798096D01*
X-5604642Y-46675257D01*
X-5661179Y-46538765D01*
X-5690000Y-46393870D01*
X-5690000Y-46246130D01*
X-5661179Y-46101235D01*
X-5604642Y-45964743D01*
X-5522564Y-45841904D01*
X-5418096Y-45737436D01*
X-5295257Y-45655358D01*
X-5158765Y-45598821D01*
X-5013870Y-45570000D01*
X-4866130Y-45570000D01*
X-4721235Y-45598821D01*
G37*
G36*
X-6501235Y-44578821D02*
G01*
X-6364743Y-44635358D01*
X-6241904Y-44717436D01*
X-6137436Y-44821904D01*
X-6055358Y-44944743D01*
X-5998821Y-45081235D01*
X-5970000Y-45226130D01*
X-5970000Y-45373870D01*
X-5998821Y-45518765D01*
X-6055358Y-45655257D01*
X-6137436Y-45778096D01*
X-6241904Y-45882564D01*
X-6364743Y-45964642D01*
X-6501235Y-46021179D01*
X-6646130Y-46050000D01*
X-6793870Y-46050000D01*
X-6938765Y-46021179D01*
X-7075257Y-45964642D01*
X-7198096Y-45882564D01*
X-7302564Y-45778096D01*
X-7384642Y-45655257D01*
X-7441179Y-45518765D01*
X-7470000Y-45373870D01*
X-7470000Y-45226130D01*
X-7441179Y-45081235D01*
X-7384642Y-44944743D01*
X-7302564Y-44821904D01*
X-7198096Y-44717436D01*
X-7075257Y-44635358D01*
X-6938765Y-44578821D01*
X-6793870Y-44550000D01*
X-6646130Y-44550000D01*
X-6501235Y-44578821D01*
G37*
G36*
X-4721235Y-43558821D02*
G01*
X-4584743Y-43615358D01*
X-4461904Y-43697436D01*
X-4357436Y-43801904D01*
X-4275358Y-43924743D01*
X-4218821Y-44061235D01*
X-4190000Y-44206130D01*
X-4190000Y-44353870D01*
X-4218821Y-44498765D01*
X-4275358Y-44635257D01*
X-4357436Y-44758096D01*
X-4461904Y-44862564D01*
X-4584743Y-44944642D01*
X-4721235Y-45001179D01*
X-4866130Y-45030000D01*
X-5013870Y-45030000D01*
X-5158765Y-45001179D01*
X-5295257Y-44944642D01*
X-5418096Y-44862564D01*
X-5522564Y-44758096D01*
X-5604642Y-44635257D01*
X-5661179Y-44498765D01*
X-5690000Y-44353870D01*
X-5690000Y-44206130D01*
X-5661179Y-44061235D01*
X-5604642Y-43924743D01*
X-5522564Y-43801904D01*
X-5418096Y-43697436D01*
X-5295257Y-43615358D01*
X-5158765Y-43558821D01*
X-5013870Y-43530000D01*
X-4866130Y-43530000D01*
X-4721235Y-43558821D01*
G37*
G36*
X-6501235Y-42538821D02*
G01*
X-6364743Y-42595358D01*
X-6241904Y-42677436D01*
X-6137436Y-42781904D01*
X-6055358Y-42904743D01*
X-5998821Y-43041235D01*
X-5970000Y-43186130D01*
X-5970000Y-43333870D01*
X-5998821Y-43478765D01*
X-6055358Y-43615257D01*
X-6137436Y-43738096D01*
X-6241904Y-43842564D01*
X-6364743Y-43924642D01*
X-6501235Y-43981179D01*
X-6646130Y-44010000D01*
X-6793870Y-44010000D01*
X-6938765Y-43981179D01*
X-7075257Y-43924642D01*
X-7198096Y-43842564D01*
X-7302564Y-43738096D01*
X-7384642Y-43615257D01*
X-7441179Y-43478765D01*
X-7470000Y-43333870D01*
X-7470000Y-43186130D01*
X-7441179Y-43041235D01*
X-7384642Y-42904743D01*
X-7302564Y-42781904D01*
X-7198096Y-42677436D01*
X-7075257Y-42595358D01*
X-6938765Y-42538821D01*
X-6793870Y-42510000D01*
X-6646130Y-42510000D01*
X-6501235Y-42538821D01*
G37*
G36*
X-4721235Y-41518821D02*
G01*
X-4584743Y-41575358D01*
X-4461904Y-41657436D01*
X-4357436Y-41761904D01*
X-4275358Y-41884743D01*
X-4218821Y-42021235D01*
X-4190000Y-42166130D01*
X-4190000Y-42313870D01*
X-4218821Y-42458765D01*
X-4275358Y-42595257D01*
X-4357436Y-42718096D01*
X-4461904Y-42822564D01*
X-4584743Y-42904642D01*
X-4721235Y-42961179D01*
X-4866130Y-42990000D01*
X-5013870Y-42990000D01*
X-5158765Y-42961179D01*
X-5295257Y-42904642D01*
X-5418096Y-42822564D01*
X-5522564Y-42718096D01*
X-5604642Y-42595257D01*
X-5661179Y-42458765D01*
X-5690000Y-42313870D01*
X-5690000Y-42166130D01*
X-5661179Y-42021235D01*
X-5604642Y-41884743D01*
X-5522564Y-41761904D01*
X-5418096Y-41657436D01*
X-5295257Y-41575358D01*
X-5158765Y-41518821D01*
X-5013870Y-41490000D01*
X-4866130Y-41490000D01*
X-4721235Y-41518821D01*
G37*
G36*
X-6501235Y-40498821D02*
G01*
X-6364743Y-40555358D01*
X-6241904Y-40637436D01*
X-6137436Y-40741904D01*
X-6055358Y-40864743D01*
X-5998821Y-41001235D01*
X-5970000Y-41146130D01*
X-5970000Y-41293870D01*
X-5998821Y-41438765D01*
X-6055358Y-41575257D01*
X-6137436Y-41698096D01*
X-6241904Y-41802564D01*
X-6364743Y-41884642D01*
X-6501235Y-41941179D01*
X-6646130Y-41970000D01*
X-6793870Y-41970000D01*
X-6938765Y-41941179D01*
X-7075257Y-41884642D01*
X-7198096Y-41802564D01*
X-7302564Y-41698096D01*
X-7384642Y-41575257D01*
X-7441179Y-41438765D01*
X-7470000Y-41293870D01*
X-7470000Y-41146130D01*
X-7441179Y-41001235D01*
X-7384642Y-40864743D01*
X-7302564Y-40741904D01*
X-7198096Y-40637436D01*
X-7075257Y-40555358D01*
X-6938765Y-40498821D01*
X-6793870Y-40470000D01*
X-6646130Y-40470000D01*
X-6501235Y-40498821D01*
G37*
G36*
X-4721235Y-39478821D02*
G01*
X-4584743Y-39535358D01*
X-4461904Y-39617436D01*
X-4357436Y-39721904D01*
X-4275358Y-39844743D01*
X-4218821Y-39981235D01*
X-4190000Y-40126130D01*
X-4190000Y-40273870D01*
X-4218821Y-40418765D01*
X-4275358Y-40555257D01*
X-4357436Y-40678096D01*
X-4461904Y-40782564D01*
X-4584743Y-40864642D01*
X-4721235Y-40921179D01*
X-4866130Y-40950000D01*
X-5013870Y-40950000D01*
X-5158765Y-40921179D01*
X-5295257Y-40864642D01*
X-5418096Y-40782564D01*
X-5522564Y-40678096D01*
X-5604642Y-40555257D01*
X-5661179Y-40418765D01*
X-5690000Y-40273870D01*
X-5690000Y-40126130D01*
X-5661179Y-39981235D01*
X-5604642Y-39844743D01*
X-5522564Y-39721904D01*
X-5418096Y-39617436D01*
X-5295257Y-39535358D01*
X-5158765Y-39478821D01*
X-5013870Y-39450000D01*
X-4866130Y-39450000D01*
X-4721235Y-39478821D01*
G37*
G36*
X-6501235Y-38458821D02*
G01*
X-6364743Y-38515358D01*
X-6241904Y-38597436D01*
X-6137436Y-38701904D01*
X-6055358Y-38824743D01*
X-5998821Y-38961235D01*
X-5970000Y-39106130D01*
X-5970000Y-39253870D01*
X-5998821Y-39398765D01*
X-6055358Y-39535257D01*
X-6137436Y-39658096D01*
X-6241904Y-39762564D01*
X-6364743Y-39844642D01*
X-6501235Y-39901179D01*
X-6646130Y-39930000D01*
X-6793870Y-39930000D01*
X-6938765Y-39901179D01*
X-7075257Y-39844642D01*
X-7198096Y-39762564D01*
X-7302564Y-39658096D01*
X-7384642Y-39535257D01*
X-7441179Y-39398765D01*
X-7470000Y-39253870D01*
X-7470000Y-39106130D01*
X-7441179Y-38961235D01*
X-7384642Y-38824743D01*
X-7302564Y-38701904D01*
X-7198096Y-38597436D01*
X-7075257Y-38515358D01*
X-6938765Y-38458821D01*
X-6793870Y-38430000D01*
X-6646130Y-38430000D01*
X-6501235Y-38458821D01*
G37*
G36*
X-11361235Y-37458821D02*
G01*
X-11224743Y-37515358D01*
X-11101904Y-37597436D01*
X-10997436Y-37701904D01*
X-10915358Y-37824743D01*
X-10858821Y-37961235D01*
X-10830000Y-38106130D01*
X-10830000Y-38253870D01*
X-10858821Y-38398765D01*
X-10915358Y-38535257D01*
X-10997436Y-38658096D01*
X-11101904Y-38762564D01*
X-11224743Y-38844642D01*
X-11361235Y-38901179D01*
X-11506130Y-38930000D01*
X-11653870Y-38930000D01*
X-11798765Y-38901179D01*
X-11935257Y-38844642D01*
X-12058096Y-38762564D01*
X-12162564Y-38658096D01*
X-12244642Y-38535257D01*
X-12301179Y-38398765D01*
X-12330000Y-38253870D01*
X-12330000Y-38106130D01*
X-12301179Y-37961235D01*
X-12244642Y-37824743D01*
X-12162564Y-37701904D01*
X-12058096Y-37597436D01*
X-11935257Y-37515358D01*
X-11798765Y-37458821D01*
X-11653870Y-37430000D01*
X-11506130Y-37430000D01*
X-11361235Y-37458821D01*
G37*
G36*
X-2078101Y-34781704D02*
G01*
X-1918713Y-34813408D01*
X-1794333Y-34864928D01*
X-1618433Y-34937788D01*
X-1618432Y-34937789D01*
X-1348186Y-35118361D01*
X-1118361Y-35348186D01*
X-1118360Y-35348188D01*
X-937788Y-35618433D01*
X-915918Y-35671233D01*
X-855899Y-35816130D01*
X-813408Y-35918714D01*
X-750000Y-36237488D01*
X-750000Y-36562512D01*
X-813408Y-36881286D01*
X-937788Y-37181567D01*
X-937789Y-37181568D01*
X-1118361Y-37451814D01*
X-1348186Y-37681639D01*
X-1378515Y-37701904D01*
X-1618433Y-37862212D01*
X-1794333Y-37935072D01*
X-1918713Y-37986592D01*
X-2078101Y-38018296D01*
X-2237488Y-38050000D01*
X-2562512Y-38050000D01*
X-2721899Y-38018296D01*
X-2881287Y-37986592D01*
X-3005667Y-37935072D01*
X-3181567Y-37862212D01*
X-3421485Y-37701904D01*
X-3451814Y-37681639D01*
X-3681639Y-37451814D01*
X-3862211Y-37181568D01*
X-3862212Y-37181567D01*
X-3986592Y-36881286D01*
X-4050000Y-36562512D01*
X-4050000Y-36237488D01*
X-3986592Y-35918714D01*
X-3944100Y-35816130D01*
X-3884082Y-35671233D01*
X-3862212Y-35618433D01*
X-3681640Y-35348188D01*
X-3681639Y-35348186D01*
X-3451814Y-35118361D01*
X-3181568Y-34937789D01*
X-3181567Y-34937788D01*
X-3005667Y-34864928D01*
X-2881287Y-34813408D01*
X-2721899Y-34781704D01*
X-2562512Y-34750000D01*
X-2237488Y-34750000D01*
X-2078101Y-34781704D01*
G37*
G36*
X-11361235Y-35168821D02*
G01*
X-11224743Y-35225358D01*
X-11101904Y-35307436D01*
X-10997436Y-35411904D01*
X-10915358Y-35534743D01*
X-10858821Y-35671235D01*
X-10830000Y-35816130D01*
X-10830000Y-35963870D01*
X-10858821Y-36108765D01*
X-10915358Y-36245257D01*
X-10997436Y-36368096D01*
X-11101904Y-36472564D01*
X-11224743Y-36554642D01*
X-11361235Y-36611179D01*
X-11506130Y-36640000D01*
X-11653870Y-36640000D01*
X-11798765Y-36611179D01*
X-11935257Y-36554642D01*
X-12058096Y-36472564D01*
X-12162564Y-36368096D01*
X-12244642Y-36245257D01*
X-12301179Y-36108765D01*
X-12330000Y-35963870D01*
X-12330000Y-35816130D01*
X-12301179Y-35671235D01*
X-12244642Y-35534743D01*
X-12162564Y-35411904D01*
X-12058096Y-35307436D01*
X-11935257Y-35225358D01*
X-11798765Y-35168821D01*
X-11653870Y-35140000D01*
X-11506130Y-35140000D01*
X-11361235Y-35168821D01*
G37*
G36*
X-5701313Y-33455027D02*
G01*
X-5523726Y-33490350D01*
X-5332638Y-33569502D01*
X-5160664Y-33684411D01*
X-5014411Y-33830664D01*
X-4899502Y-34002638D01*
X-4820350Y-34193726D01*
X-4780000Y-34396584D01*
X-4780000Y-34603416D01*
X-4820350Y-34806274D01*
X-4899502Y-34997362D01*
X-5014411Y-35169336D01*
X-5160664Y-35315589D01*
X-5332638Y-35430498D01*
X-5523726Y-35509650D01*
X-5701313Y-35544973D01*
X-5726583Y-35550000D01*
X-5933417Y-35550000D01*
X-5958687Y-35544973D01*
X-6136274Y-35509650D01*
X-6327362Y-35430498D01*
X-6499336Y-35315589D01*
X-6645589Y-35169336D01*
X-6760498Y-34997362D01*
X-6839650Y-34806274D01*
X-6880000Y-34603416D01*
X-6880000Y-34396584D01*
X-6839650Y-34193726D01*
X-6760498Y-34002638D01*
X-6645589Y-33830664D01*
X-6499336Y-33684411D01*
X-6327362Y-33569502D01*
X-6136274Y-33490350D01*
X-5958687Y-33455027D01*
X-5933417Y-33450000D01*
X-5726583Y-33450000D01*
X-5701313Y-33455027D01*
G37*
G36*
X-2078101Y-30981704D02*
G01*
X-1918713Y-31013408D01*
X-1794333Y-31064928D01*
X-1618433Y-31137788D01*
X-1618432Y-31137789D01*
X-1348186Y-31318361D01*
X-1118361Y-31548186D01*
X-1027462Y-31684226D01*
X-937788Y-31818433D01*
X-904002Y-31900000D01*
X-813408Y-32118713D01*
X-781704Y-32278101D01*
X-759680Y-32388821D01*
X-750000Y-32437489D01*
X-750000Y-32762511D01*
X-813408Y-33081287D01*
X-864928Y-33205667D01*
X-937788Y-33381567D01*
X-993708Y-33465257D01*
X-1118361Y-33651814D01*
X-1348186Y-33881639D01*
X-1484226Y-33972538D01*
X-1618433Y-34062212D01*
X-1794333Y-34135072D01*
X-1918713Y-34186592D01*
X-2078101Y-34218296D01*
X-2237488Y-34250000D01*
X-2562512Y-34250000D01*
X-2721899Y-34218296D01*
X-2881287Y-34186592D01*
X-3005667Y-34135072D01*
X-3181567Y-34062212D01*
X-3315774Y-33972538D01*
X-3451814Y-33881639D01*
X-3681639Y-33651814D01*
X-3806292Y-33465257D01*
X-3862212Y-33381567D01*
X-3935072Y-33205667D01*
X-3986592Y-33081287D01*
X-4050000Y-32762511D01*
X-4050000Y-32437489D01*
X-4040319Y-32388821D01*
X-4018296Y-32278101D01*
X-3986592Y-32118713D01*
X-3895998Y-31900000D01*
X-3862212Y-31818433D01*
X-3772538Y-31684226D01*
X-3681639Y-31548186D01*
X-3451814Y-31318361D01*
X-3181568Y-31137789D01*
X-3181567Y-31137788D01*
X-3005667Y-31064928D01*
X-2881287Y-31013408D01*
X-2721899Y-30981704D01*
X-2562512Y-30950000D01*
X-2237488Y-30950000D01*
X-2078101Y-30981704D01*
G37*
G36*
X-11361235Y-32388821D02*
G01*
X-11224743Y-32445358D01*
X-11101904Y-32527436D01*
X-10997436Y-32631904D01*
X-10915358Y-32754743D01*
X-10858821Y-32891235D01*
X-10830000Y-33036130D01*
X-10830000Y-33183870D01*
X-10858821Y-33328765D01*
X-10915358Y-33465257D01*
X-10997436Y-33588096D01*
X-11101904Y-33692564D01*
X-11224743Y-33774642D01*
X-11361235Y-33831179D01*
X-11506130Y-33860000D01*
X-11653870Y-33860000D01*
X-11798765Y-33831179D01*
X-11935257Y-33774642D01*
X-12058096Y-33692564D01*
X-12162564Y-33588096D01*
X-12244642Y-33465257D01*
X-12301179Y-33328765D01*
X-12330000Y-33183870D01*
X-12330000Y-33036130D01*
X-12301179Y-32891235D01*
X-12244642Y-32754743D01*
X-12162564Y-32631904D01*
X-12058096Y-32527436D01*
X-11935257Y-32445358D01*
X-11798765Y-32388821D01*
X-11653870Y-32360000D01*
X-11506130Y-32360000D01*
X-11361235Y-32388821D01*
G37*
G36*
X-94752066Y-31932664D02*
G01*
X-94597375Y-31996739D01*
X-94597374Y-31996740D01*
X-94458156Y-32089762D01*
X-94339762Y-32208156D01*
X-94339761Y-32208158D01*
X-94246739Y-32347375D01*
X-94182664Y-32502066D01*
X-94150000Y-32666281D01*
X-94150000Y-32833719D01*
X-94182664Y-32997934D01*
X-94246739Y-33152625D01*
X-94246740Y-33152626D01*
X-94339762Y-33291844D01*
X-94458156Y-33410238D01*
X-94517664Y-33450000D01*
X-94597375Y-33503261D01*
X-94752066Y-33567336D01*
X-94916281Y-33600000D01*
X-95083719Y-33600000D01*
X-95247934Y-33567336D01*
X-95402625Y-33503261D01*
X-95482336Y-33450000D01*
X-95541844Y-33410238D01*
X-95660238Y-33291844D01*
X-95753260Y-33152626D01*
X-95753261Y-33152625D01*
X-95817336Y-32997934D01*
X-95850000Y-32833719D01*
X-95850000Y-32666281D01*
X-95817336Y-32502066D01*
X-95753261Y-32347375D01*
X-95660239Y-32208158D01*
X-95660238Y-32208156D01*
X-95541844Y-32089762D01*
X-95402626Y-31996740D01*
X-95402625Y-31996739D01*
X-95247934Y-31932664D01*
X-95083719Y-31900000D01*
X-94916281Y-31900000D01*
X-94752066Y-31932664D01*
G37*
G36*
X-11361235Y-30098821D02*
G01*
X-11224743Y-30155358D01*
X-11101904Y-30237436D01*
X-10997436Y-30341904D01*
X-10915358Y-30464743D01*
X-10858821Y-30601235D01*
X-10830000Y-30746130D01*
X-10830000Y-30893870D01*
X-10858821Y-31038765D01*
X-10915358Y-31175257D01*
X-10997436Y-31298096D01*
X-11101904Y-31402564D01*
X-11224743Y-31484642D01*
X-11361235Y-31541179D01*
X-11506130Y-31570000D01*
X-11653870Y-31570000D01*
X-11798765Y-31541179D01*
X-11935257Y-31484642D01*
X-12058096Y-31402564D01*
X-12162564Y-31298096D01*
X-12244642Y-31175257D01*
X-12301179Y-31038765D01*
X-12330000Y-30893870D01*
X-12330000Y-30746130D01*
X-12301179Y-30601235D01*
X-12244642Y-30464743D01*
X-12162564Y-30341904D01*
X-12058096Y-30237436D01*
X-11935257Y-30155358D01*
X-11798765Y-30098821D01*
X-11653870Y-30070000D01*
X-11506130Y-30070000D01*
X-11361235Y-30098821D01*
G37*
G36*
X-4721235Y-29098821D02*
G01*
X-4584743Y-29155358D01*
X-4461904Y-29237436D01*
X-4357436Y-29341904D01*
X-4275358Y-29464743D01*
X-4218821Y-29601235D01*
X-4190000Y-29746130D01*
X-4190000Y-29893870D01*
X-4218821Y-30038765D01*
X-4275358Y-30175257D01*
X-4357436Y-30298096D01*
X-4461904Y-30402564D01*
X-4584743Y-30484642D01*
X-4721235Y-30541179D01*
X-4866130Y-30570000D01*
X-5013870Y-30570000D01*
X-5158765Y-30541179D01*
X-5295257Y-30484642D01*
X-5418096Y-30402564D01*
X-5522564Y-30298096D01*
X-5604642Y-30175257D01*
X-5661179Y-30038765D01*
X-5690000Y-29893870D01*
X-5690000Y-29746130D01*
X-5661179Y-29601235D01*
X-5604642Y-29464743D01*
X-5522564Y-29341904D01*
X-5418096Y-29237436D01*
X-5295257Y-29155358D01*
X-5158765Y-29098821D01*
X-5013870Y-29070000D01*
X-4866130Y-29070000D01*
X-4721235Y-29098821D01*
G37*
G36*
X-94752066Y-28432664D02*
G01*
X-94597375Y-28496739D01*
X-94528238Y-28542935D01*
X-94458156Y-28589762D01*
X-94339762Y-28708156D01*
X-94339761Y-28708158D01*
X-94246739Y-28847375D01*
X-94182664Y-29002066D01*
X-94150000Y-29166281D01*
X-94150000Y-29333719D01*
X-94182664Y-29497934D01*
X-94246739Y-29652625D01*
X-94246740Y-29652626D01*
X-94339762Y-29791844D01*
X-94458156Y-29910238D01*
X-94528238Y-29957065D01*
X-94597375Y-30003261D01*
X-94752066Y-30067336D01*
X-94916281Y-30100000D01*
X-95083719Y-30100000D01*
X-95247934Y-30067336D01*
X-95402625Y-30003261D01*
X-95471762Y-29957065D01*
X-95541844Y-29910238D01*
X-95660238Y-29791844D01*
X-95753260Y-29652626D01*
X-95753261Y-29652625D01*
X-95817336Y-29497934D01*
X-95850000Y-29333719D01*
X-95850000Y-29166281D01*
X-95817336Y-29002066D01*
X-95753261Y-28847375D01*
X-95660239Y-28708158D01*
X-95660238Y-28708156D01*
X-95541844Y-28589762D01*
X-95471762Y-28542935D01*
X-95402625Y-28496739D01*
X-95247934Y-28432664D01*
X-95083719Y-28400000D01*
X-94916281Y-28400000D01*
X-94752066Y-28432664D01*
G37*
G36*
X-6501235Y-28078821D02*
G01*
X-6364743Y-28135358D01*
X-6241904Y-28217436D01*
X-6137436Y-28321904D01*
X-6055358Y-28444743D01*
X-5998821Y-28581235D01*
X-5970000Y-28726130D01*
X-5970000Y-28873870D01*
X-5998821Y-29018765D01*
X-6055358Y-29155257D01*
X-6137436Y-29278096D01*
X-6241904Y-29382564D01*
X-6364743Y-29464642D01*
X-6501235Y-29521179D01*
X-6646130Y-29550000D01*
X-6793870Y-29550000D01*
X-6938765Y-29521179D01*
X-7075257Y-29464642D01*
X-7198096Y-29382564D01*
X-7302564Y-29278096D01*
X-7384642Y-29155257D01*
X-7441179Y-29018765D01*
X-7470000Y-28873870D01*
X-7470000Y-28726130D01*
X-7441179Y-28581235D01*
X-7384642Y-28444743D01*
X-7302564Y-28321904D01*
X-7198096Y-28217436D01*
X-7075257Y-28135358D01*
X-6938765Y-28078821D01*
X-6793870Y-28050000D01*
X-6646130Y-28050000D01*
X-6501235Y-28078821D01*
G37*
G36*
X-4721235Y-27058821D02*
G01*
X-4584743Y-27115358D01*
X-4461904Y-27197436D01*
X-4357436Y-27301904D01*
X-4275358Y-27424743D01*
X-4218821Y-27561235D01*
X-4190000Y-27706130D01*
X-4190000Y-27853870D01*
X-4218821Y-27998765D01*
X-4275358Y-28135257D01*
X-4357436Y-28258096D01*
X-4461904Y-28362564D01*
X-4584743Y-28444642D01*
X-4721235Y-28501179D01*
X-4866130Y-28530000D01*
X-5013870Y-28530000D01*
X-5158765Y-28501179D01*
X-5295257Y-28444642D01*
X-5418096Y-28362564D01*
X-5522564Y-28258096D01*
X-5604642Y-28135257D01*
X-5661179Y-27998765D01*
X-5690000Y-27853870D01*
X-5690000Y-27706130D01*
X-5661179Y-27561235D01*
X-5604642Y-27424743D01*
X-5522564Y-27301904D01*
X-5418096Y-27197436D01*
X-5295257Y-27115358D01*
X-5158765Y-27058821D01*
X-5013870Y-27030000D01*
X-4866130Y-27030000D01*
X-4721235Y-27058821D01*
G37*
G36*
X-6501235Y-26038821D02*
G01*
X-6364743Y-26095358D01*
X-6241904Y-26177436D01*
X-6137436Y-26281904D01*
X-6055358Y-26404743D01*
X-5998821Y-26541235D01*
X-5970000Y-26686130D01*
X-5970000Y-26833870D01*
X-5998821Y-26978765D01*
X-6055358Y-27115257D01*
X-6137436Y-27238096D01*
X-6241904Y-27342564D01*
X-6364743Y-27424642D01*
X-6501235Y-27481179D01*
X-6646130Y-27510000D01*
X-6793870Y-27510000D01*
X-6938765Y-27481179D01*
X-7075257Y-27424642D01*
X-7198096Y-27342564D01*
X-7302564Y-27238096D01*
X-7384642Y-27115257D01*
X-7441179Y-26978765D01*
X-7470000Y-26833870D01*
X-7470000Y-26686130D01*
X-7441179Y-26541235D01*
X-7384642Y-26404743D01*
X-7302564Y-26281904D01*
X-7198096Y-26177436D01*
X-7075257Y-26095358D01*
X-6938765Y-26038821D01*
X-6793870Y-26010000D01*
X-6646130Y-26010000D01*
X-6501235Y-26038821D01*
G37*
G36*
X-94752066Y-24932664D02*
G01*
X-94597375Y-24996739D01*
X-94597374Y-24996740D01*
X-94458156Y-25089762D01*
X-94339762Y-25208156D01*
X-94339761Y-25208158D01*
X-94246739Y-25347375D01*
X-94182664Y-25502066D01*
X-94150000Y-25666281D01*
X-94150000Y-25833719D01*
X-94182664Y-25997934D01*
X-94246739Y-26152625D01*
X-94246740Y-26152626D01*
X-94339762Y-26291844D01*
X-94458156Y-26410238D01*
X-94528238Y-26457065D01*
X-94597375Y-26503261D01*
X-94752066Y-26567336D01*
X-94916281Y-26600000D01*
X-95083719Y-26600000D01*
X-95247934Y-26567336D01*
X-95402625Y-26503261D01*
X-95471762Y-26457065D01*
X-95541844Y-26410238D01*
X-95660238Y-26291844D01*
X-95753260Y-26152626D01*
X-95753261Y-26152625D01*
X-95817336Y-25997934D01*
X-95850000Y-25833719D01*
X-95850000Y-25666281D01*
X-95817336Y-25502066D01*
X-95753261Y-25347375D01*
X-95660239Y-25208158D01*
X-95660238Y-25208156D01*
X-95541844Y-25089762D01*
X-95402626Y-24996740D01*
X-95402625Y-24996739D01*
X-95247934Y-24932664D01*
X-95083719Y-24900000D01*
X-94916281Y-24900000D01*
X-94752066Y-24932664D01*
G37*
G36*
X-4721235Y-25018821D02*
G01*
X-4584743Y-25075358D01*
X-4461904Y-25157436D01*
X-4357436Y-25261904D01*
X-4275358Y-25384743D01*
X-4218821Y-25521235D01*
X-4190000Y-25666130D01*
X-4190000Y-25813870D01*
X-4218821Y-25958765D01*
X-4275358Y-26095257D01*
X-4357436Y-26218096D01*
X-4461904Y-26322564D01*
X-4584743Y-26404642D01*
X-4721235Y-26461179D01*
X-4866130Y-26490000D01*
X-5013870Y-26490000D01*
X-5158765Y-26461179D01*
X-5295257Y-26404642D01*
X-5418096Y-26322564D01*
X-5522564Y-26218096D01*
X-5604642Y-26095257D01*
X-5661179Y-25958765D01*
X-5690000Y-25813870D01*
X-5690000Y-25666130D01*
X-5661179Y-25521235D01*
X-5604642Y-25384743D01*
X-5522564Y-25261904D01*
X-5418096Y-25157436D01*
X-5295257Y-25075358D01*
X-5158765Y-25018821D01*
X-5013870Y-24990000D01*
X-4866130Y-24990000D01*
X-4721235Y-25018821D01*
G37*
G36*
X-6501235Y-23998821D02*
G01*
X-6364743Y-24055358D01*
X-6241904Y-24137436D01*
X-6137436Y-24241904D01*
X-6055358Y-24364743D01*
X-5998821Y-24501235D01*
X-5970000Y-24646130D01*
X-5970000Y-24793870D01*
X-5998821Y-24938765D01*
X-6055358Y-25075257D01*
X-6137436Y-25198096D01*
X-6241904Y-25302564D01*
X-6364743Y-25384642D01*
X-6501235Y-25441179D01*
X-6646130Y-25470000D01*
X-6793870Y-25470000D01*
X-6938765Y-25441179D01*
X-7075257Y-25384642D01*
X-7198096Y-25302564D01*
X-7302564Y-25198096D01*
X-7384642Y-25075257D01*
X-7441179Y-24938765D01*
X-7470000Y-24793870D01*
X-7470000Y-24646130D01*
X-7441179Y-24501235D01*
X-7384642Y-24364743D01*
X-7302564Y-24241904D01*
X-7198096Y-24137436D01*
X-7075257Y-24055358D01*
X-6938765Y-23998821D01*
X-6793870Y-23970000D01*
X-6646130Y-23970000D01*
X-6501235Y-23998821D01*
G37*
G36*
X-66093701Y-20336465D02*
G01*
X-65684227Y-20506075D01*
X-65684225Y-20506076D01*
X-65315708Y-20752311D01*
X-65002311Y-21065708D01*
X-64756076Y-21434225D01*
X-64756075Y-21434227D01*
X-64586465Y-21843701D01*
X-64500000Y-22278393D01*
X-64500000Y-22721607D01*
X-64586465Y-23156299D01*
X-64687898Y-23401179D01*
X-64756076Y-23565775D01*
X-65002311Y-23934292D01*
X-65315708Y-24247689D01*
X-65684225Y-24493924D01*
X-65684226Y-24493925D01*
X-65684227Y-24493925D01*
X-66093701Y-24663535D01*
X-66528393Y-24750000D01*
X-66971607Y-24750000D01*
X-67406299Y-24663535D01*
X-67815773Y-24493925D01*
X-67815774Y-24493925D01*
X-67815775Y-24493924D01*
X-68184292Y-24247689D01*
X-68497689Y-23934292D01*
X-68743924Y-23565775D01*
X-68812102Y-23401179D01*
X-68913535Y-23156299D01*
X-69000000Y-22721607D01*
X-69000000Y-22278393D01*
X-68913535Y-21843701D01*
X-68743925Y-21434227D01*
X-68743924Y-21434225D01*
X-68497689Y-21065708D01*
X-68184292Y-20752311D01*
X-67815775Y-20506076D01*
X-67815773Y-20506075D01*
X-67406299Y-20336465D01*
X-66971607Y-20250000D01*
X-66528393Y-20250000D01*
X-66093701Y-20336465D01*
G37*
G36*
X-4721235Y-22978821D02*
G01*
X-4584743Y-23035358D01*
X-4461904Y-23117436D01*
X-4357436Y-23221904D01*
X-4275358Y-23344743D01*
X-4218821Y-23481235D01*
X-4190000Y-23626130D01*
X-4190000Y-23773870D01*
X-4218821Y-23918765D01*
X-4275358Y-24055257D01*
X-4357436Y-24178096D01*
X-4461904Y-24282564D01*
X-4584743Y-24364642D01*
X-4721235Y-24421179D01*
X-4866130Y-24450000D01*
X-5013870Y-24450000D01*
X-5158765Y-24421179D01*
X-5295257Y-24364642D01*
X-5418096Y-24282564D01*
X-5522564Y-24178096D01*
X-5604642Y-24055257D01*
X-5661179Y-23918765D01*
X-5690000Y-23773870D01*
X-5690000Y-23626130D01*
X-5661179Y-23481235D01*
X-5604642Y-23344743D01*
X-5522564Y-23221904D01*
X-5418096Y-23117436D01*
X-5295257Y-23035358D01*
X-5158765Y-22978821D01*
X-5013870Y-22950000D01*
X-4866130Y-22950000D01*
X-4721235Y-22978821D01*
G37*
G36*
X-6501235Y-21958821D02*
G01*
X-6364743Y-22015358D01*
X-6241904Y-22097436D01*
X-6137436Y-22201904D01*
X-6055358Y-22324743D01*
X-5998821Y-22461235D01*
X-5970000Y-22606130D01*
X-5970000Y-22753870D01*
X-5998821Y-22898765D01*
X-6055358Y-23035257D01*
X-6137436Y-23158096D01*
X-6241904Y-23262564D01*
X-6364743Y-23344642D01*
X-6501235Y-23401179D01*
X-6646130Y-23430000D01*
X-6793870Y-23430000D01*
X-6938765Y-23401179D01*
X-7075257Y-23344642D01*
X-7198096Y-23262564D01*
X-7302564Y-23158096D01*
X-7384642Y-23035257D01*
X-7441179Y-22898765D01*
X-7470000Y-22753870D01*
X-7470000Y-22606130D01*
X-7441179Y-22461235D01*
X-7384642Y-22324743D01*
X-7302564Y-22201904D01*
X-7198096Y-22097436D01*
X-7075257Y-22015358D01*
X-6938765Y-21958821D01*
X-6793870Y-21930000D01*
X-6646130Y-21930000D01*
X-6501235Y-21958821D01*
G37*
G36*
X-94752066Y-21432664D02*
G01*
X-94597375Y-21496739D01*
X-94597374Y-21496740D01*
X-94458156Y-21589762D01*
X-94339762Y-21708156D01*
X-94339761Y-21708158D01*
X-94246739Y-21847375D01*
X-94182664Y-22002066D01*
X-94150000Y-22166281D01*
X-94150000Y-22333719D01*
X-94182664Y-22497934D01*
X-94246739Y-22652625D01*
X-94246740Y-22652626D01*
X-94339762Y-22791844D01*
X-94458156Y-22910238D01*
X-94517664Y-22950000D01*
X-94597375Y-23003261D01*
X-94752066Y-23067336D01*
X-94916281Y-23100000D01*
X-95083719Y-23100000D01*
X-95247934Y-23067336D01*
X-95402625Y-23003261D01*
X-95482336Y-22950000D01*
X-95541844Y-22910238D01*
X-95660238Y-22791844D01*
X-95753260Y-22652626D01*
X-95753261Y-22652625D01*
X-95817336Y-22497934D01*
X-95850000Y-22333719D01*
X-95850000Y-22166281D01*
X-95817336Y-22002066D01*
X-95753261Y-21847375D01*
X-95660239Y-21708158D01*
X-95660238Y-21708156D01*
X-95541844Y-21589762D01*
X-95402626Y-21496740D01*
X-95402625Y-21496739D01*
X-95247934Y-21432664D01*
X-95083719Y-21400000D01*
X-94916281Y-21400000D01*
X-94752066Y-21432664D01*
G37*
G36*
X-11361235Y-20958821D02*
G01*
X-11224743Y-21015358D01*
X-11101904Y-21097436D01*
X-10997436Y-21201904D01*
X-10915358Y-21324743D01*
X-10858821Y-21461235D01*
X-10830000Y-21606130D01*
X-10830000Y-21753870D01*
X-10858821Y-21898765D01*
X-10915358Y-22035257D01*
X-10997436Y-22158096D01*
X-11101904Y-22262564D01*
X-11224743Y-22344642D01*
X-11361235Y-22401179D01*
X-11506130Y-22430000D01*
X-11653870Y-22430000D01*
X-11798765Y-22401179D01*
X-11935257Y-22344642D01*
X-12058096Y-22262564D01*
X-12162564Y-22158096D01*
X-12244642Y-22035257D01*
X-12301179Y-21898765D01*
X-12330000Y-21753870D01*
X-12330000Y-21606130D01*
X-12301179Y-21461235D01*
X-12244642Y-21324743D01*
X-12162564Y-21201904D01*
X-12058096Y-21097436D01*
X-11935257Y-21015358D01*
X-11798765Y-20958821D01*
X-11653870Y-20930000D01*
X-11506130Y-20930000D01*
X-11361235Y-20958821D01*
G37*
G36*
X-2078101Y-18281704D02*
G01*
X-1918713Y-18313408D01*
X-1836710Y-18347375D01*
X-1618433Y-18437788D01*
X-1618432Y-18437789D01*
X-1348186Y-18618361D01*
X-1118361Y-18848186D01*
X-1118360Y-18848188D01*
X-937788Y-19118433D01*
X-923625Y-19152626D01*
X-813408Y-19418713D01*
X-783845Y-19567335D01*
X-750000Y-19737488D01*
X-750000Y-20062512D01*
X-765413Y-20140000D01*
X-804492Y-20336465D01*
X-813408Y-20381286D01*
X-937788Y-20681567D01*
X-937789Y-20681568D01*
X-1118361Y-20951814D01*
X-1348186Y-21181639D01*
X-1378515Y-21201904D01*
X-1618433Y-21362212D01*
X-1709662Y-21400000D01*
X-1918713Y-21486592D01*
X-2078101Y-21518296D01*
X-2237488Y-21550000D01*
X-2562512Y-21550000D01*
X-2721899Y-21518296D01*
X-2881287Y-21486592D01*
X-3090338Y-21400000D01*
X-3181567Y-21362212D01*
X-3421485Y-21201904D01*
X-3451814Y-21181639D01*
X-3681639Y-20951814D01*
X-3862211Y-20681568D01*
X-3862212Y-20681567D01*
X-3986592Y-20381286D01*
X-3995507Y-20336465D01*
X-4034587Y-20140000D01*
X-4050000Y-20062512D01*
X-4050000Y-19737488D01*
X-4016155Y-19567335D01*
X-3986592Y-19418713D01*
X-3876375Y-19152626D01*
X-3862212Y-19118433D01*
X-3681640Y-18848188D01*
X-3681639Y-18848186D01*
X-3451814Y-18618361D01*
X-3181568Y-18437789D01*
X-3181567Y-18437788D01*
X-2963290Y-18347375D01*
X-2881287Y-18313408D01*
X-2721899Y-18281704D01*
X-2562512Y-18250000D01*
X-2237488Y-18250000D01*
X-2078101Y-18281704D01*
G37*
G36*
X-11361235Y-18668821D02*
G01*
X-11224743Y-18725358D01*
X-11101904Y-18807436D01*
X-10997436Y-18911904D01*
X-10915358Y-19034743D01*
X-10858821Y-19171235D01*
X-10830000Y-19316130D01*
X-10830000Y-19463870D01*
X-10858821Y-19608765D01*
X-10915358Y-19745257D01*
X-10997436Y-19868096D01*
X-11101904Y-19972564D01*
X-11224743Y-20054642D01*
X-11361235Y-20111179D01*
X-11506130Y-20140000D01*
X-11653870Y-20140000D01*
X-11798765Y-20111179D01*
X-11935257Y-20054642D01*
X-12058096Y-19972564D01*
X-12162564Y-19868096D01*
X-12244642Y-19745257D01*
X-12301179Y-19608765D01*
X-12330000Y-19463870D01*
X-12330000Y-19316130D01*
X-12301179Y-19171235D01*
X-12244642Y-19034743D01*
X-12162564Y-18911904D01*
X-12058096Y-18807436D01*
X-11935257Y-18725358D01*
X-11798765Y-18668821D01*
X-11653870Y-18640000D01*
X-11506130Y-18640000D01*
X-11361235Y-18668821D01*
G37*
G36*
X-94752066Y-17932664D02*
G01*
X-94597375Y-17996739D01*
X-94597374Y-17996740D01*
X-94458156Y-18089762D01*
X-94339762Y-18208156D01*
X-94339761Y-18208158D01*
X-94246739Y-18347375D01*
X-94182664Y-18502066D01*
X-94150000Y-18666281D01*
X-94150000Y-18833719D01*
X-94182664Y-18997934D01*
X-94246739Y-19152625D01*
X-94259174Y-19171235D01*
X-94339762Y-19291844D01*
X-94458156Y-19410238D01*
X-94528238Y-19457065D01*
X-94597375Y-19503261D01*
X-94752066Y-19567336D01*
X-94916281Y-19600000D01*
X-95083719Y-19600000D01*
X-95247934Y-19567336D01*
X-95402625Y-19503261D01*
X-95471762Y-19457065D01*
X-95541844Y-19410238D01*
X-95660238Y-19291844D01*
X-95740826Y-19171235D01*
X-95753261Y-19152625D01*
X-95817336Y-18997934D01*
X-95850000Y-18833719D01*
X-95850000Y-18666281D01*
X-95817336Y-18502066D01*
X-95753261Y-18347375D01*
X-95660239Y-18208158D01*
X-95660238Y-18208156D01*
X-95541844Y-18089762D01*
X-95402626Y-17996740D01*
X-95402625Y-17996739D01*
X-95247934Y-17932664D01*
X-95083719Y-17900000D01*
X-94916281Y-17900000D01*
X-94752066Y-17932664D01*
G37*
G36*
X-5701313Y-16955027D02*
G01*
X-5523726Y-16990350D01*
X-5332638Y-17069502D01*
X-5160664Y-17184411D01*
X-5014411Y-17330664D01*
X-4899502Y-17502638D01*
X-4820350Y-17693726D01*
X-4780000Y-17896584D01*
X-4780000Y-18103416D01*
X-4820350Y-18306274D01*
X-4899502Y-18497362D01*
X-5014411Y-18669336D01*
X-5160664Y-18815589D01*
X-5332638Y-18930498D01*
X-5523726Y-19009650D01*
X-5701313Y-19044973D01*
X-5726583Y-19050000D01*
X-5933417Y-19050000D01*
X-5958687Y-19044973D01*
X-6136274Y-19009650D01*
X-6327362Y-18930498D01*
X-6499336Y-18815589D01*
X-6645589Y-18669336D01*
X-6760498Y-18497362D01*
X-6839650Y-18306274D01*
X-6880000Y-18103416D01*
X-6880000Y-17896584D01*
X-6839650Y-17693726D01*
X-6760498Y-17502638D01*
X-6645589Y-17330664D01*
X-6499336Y-17184411D01*
X-6327362Y-17069502D01*
X-6136274Y-16990350D01*
X-5958687Y-16955027D01*
X-5933417Y-16950000D01*
X-5726583Y-16950000D01*
X-5701313Y-16955027D01*
G37*
G36*
X-70563065Y-16184478D02*
G01*
X-70463121Y-16214796D01*
X-70371017Y-16264026D01*
X-70290283Y-16330283D01*
X-70224026Y-16411017D01*
X-70174796Y-16503121D01*
X-70144478Y-16603065D01*
X-70134000Y-16709454D01*
X-70134000Y-17870546D01*
X-70144478Y-17976935D01*
X-70174796Y-18076879D01*
X-70224026Y-18168983D01*
X-70290283Y-18249717D01*
X-70371017Y-18315974D01*
X-70463121Y-18365204D01*
X-70563065Y-18395522D01*
X-70669454Y-18406000D01*
X-71830546Y-18406000D01*
X-71936935Y-18395522D01*
X-72036879Y-18365204D01*
X-72128983Y-18315974D01*
X-72209717Y-18249717D01*
X-72275974Y-18168983D01*
X-72325204Y-18076879D01*
X-72355522Y-17976935D01*
X-72366000Y-17870546D01*
X-72366000Y-16709454D01*
X-72355522Y-16603065D01*
X-72325204Y-16503121D01*
X-72275974Y-16411017D01*
X-72209717Y-16330283D01*
X-72128983Y-16264026D01*
X-72036879Y-16214796D01*
X-71936935Y-16184478D01*
X-71830546Y-16174000D01*
X-70669454Y-16174000D01*
X-70563065Y-16184478D01*
G37*
G36*
X-2078101Y-14481704D02*
G01*
X-1918713Y-14513408D01*
X-1794333Y-14564928D01*
X-1618433Y-14637788D01*
X-1618432Y-14637789D01*
X-1348186Y-14818361D01*
X-1118361Y-15048186D01*
X-1100095Y-15075523D01*
X-937788Y-15318433D01*
X-813408Y-15618714D01*
X-750000Y-15937488D01*
X-750000Y-16262512D01*
X-764903Y-16337434D01*
X-813408Y-16581287D01*
X-864928Y-16705667D01*
X-937788Y-16881567D01*
X-993708Y-16965257D01*
X-1118361Y-17151814D01*
X-1348186Y-17381639D01*
X-1484226Y-17472538D01*
X-1618433Y-17562212D01*
X-1794333Y-17635072D01*
X-1918713Y-17686592D01*
X-2078101Y-17718296D01*
X-2237488Y-17750000D01*
X-2562512Y-17750000D01*
X-2721899Y-17718296D01*
X-2881287Y-17686592D01*
X-3005667Y-17635072D01*
X-3181567Y-17562212D01*
X-3315774Y-17472538D01*
X-3451814Y-17381639D01*
X-3681639Y-17151814D01*
X-3806292Y-16965257D01*
X-3862212Y-16881567D01*
X-3935072Y-16705667D01*
X-3986592Y-16581287D01*
X-4035097Y-16337434D01*
X-4050000Y-16262512D01*
X-4050000Y-15937488D01*
X-3986592Y-15618714D01*
X-3862212Y-15318433D01*
X-3699905Y-15075523D01*
X-3681639Y-15048186D01*
X-3451814Y-14818361D01*
X-3181568Y-14637789D01*
X-3181567Y-14637788D01*
X-3005667Y-14564928D01*
X-2881287Y-14513408D01*
X-2721899Y-14481704D01*
X-2562512Y-14450000D01*
X-2237488Y-14450000D01*
X-2078101Y-14481704D01*
G37*
G36*
X-11361235Y-15888821D02*
G01*
X-11224743Y-15945358D01*
X-11101904Y-16027436D01*
X-10997436Y-16131904D01*
X-10915358Y-16254743D01*
X-10858821Y-16391235D01*
X-10830000Y-16536130D01*
X-10830000Y-16683870D01*
X-10858821Y-16828765D01*
X-10915358Y-16965257D01*
X-10997436Y-17088096D01*
X-11101904Y-17192564D01*
X-11224743Y-17274642D01*
X-11361235Y-17331179D01*
X-11506130Y-17360000D01*
X-11653870Y-17360000D01*
X-11798765Y-17331179D01*
X-11935257Y-17274642D01*
X-12058096Y-17192564D01*
X-12162564Y-17088096D01*
X-12244642Y-16965257D01*
X-12301179Y-16828765D01*
X-12330000Y-16683870D01*
X-12330000Y-16536130D01*
X-12301179Y-16391235D01*
X-12244642Y-16254743D01*
X-12162564Y-16131904D01*
X-12058096Y-16027436D01*
X-11935257Y-15945358D01*
X-11798765Y-15888821D01*
X-11653870Y-15860000D01*
X-11506130Y-15860000D01*
X-11361235Y-15888821D01*
G37*
G36*
X-94752066Y-14432664D02*
G01*
X-94597375Y-14496739D01*
X-94597374Y-14496740D01*
X-94458156Y-14589762D01*
X-94339762Y-14708156D01*
X-94339761Y-14708158D01*
X-94246739Y-14847375D01*
X-94182664Y-15002066D01*
X-94150000Y-15166281D01*
X-94150000Y-15333719D01*
X-94182664Y-15497934D01*
X-94246739Y-15652625D01*
X-94246740Y-15652626D01*
X-94339762Y-15791844D01*
X-94458156Y-15910238D01*
X-94498939Y-15937488D01*
X-94597375Y-16003261D01*
X-94752066Y-16067336D01*
X-94916281Y-16100000D01*
X-95083719Y-16100000D01*
X-95247934Y-16067336D01*
X-95402625Y-16003261D01*
X-95501061Y-15937488D01*
X-95541844Y-15910238D01*
X-95660238Y-15791844D01*
X-95753260Y-15652626D01*
X-95753261Y-15652625D01*
X-95817336Y-15497934D01*
X-95850000Y-15333719D01*
X-95850000Y-15166281D01*
X-95817336Y-15002066D01*
X-95753261Y-14847375D01*
X-95660239Y-14708158D01*
X-95660238Y-14708156D01*
X-95541844Y-14589762D01*
X-95402626Y-14496740D01*
X-95402625Y-14496739D01*
X-95247934Y-14432664D01*
X-95083719Y-14400000D01*
X-94916281Y-14400000D01*
X-94752066Y-14432664D01*
G37*
G36*
X-70924477Y-13676886D02*
G01*
X-70924474Y-13676887D01*
X-70924475Y-13676887D01*
X-70721376Y-13761013D01*
X-70538591Y-13883146D01*
X-70383146Y-14038591D01*
X-70261013Y-14221376D01*
X-70201527Y-14364989D01*
X-70176886Y-14424477D01*
X-70134000Y-14640082D01*
X-70134000Y-14859918D01*
X-70176886Y-15075523D01*
X-70176887Y-15075525D01*
X-70261013Y-15278624D01*
X-70383146Y-15461409D01*
X-70538591Y-15616854D01*
X-70721376Y-15738987D01*
X-70848980Y-15791842D01*
X-70924477Y-15823114D01*
X-71140082Y-15866000D01*
X-71359918Y-15866000D01*
X-71575523Y-15823114D01*
X-71651020Y-15791842D01*
X-71778624Y-15738987D01*
X-71961409Y-15616854D01*
X-72116854Y-15461409D01*
X-72238987Y-15278624D01*
X-72323113Y-15075525D01*
X-72323114Y-15075523D01*
X-72366000Y-14859918D01*
X-72366000Y-14640082D01*
X-72323114Y-14424477D01*
X-72298473Y-14364989D01*
X-72238987Y-14221376D01*
X-72116854Y-14038591D01*
X-71961409Y-13883146D01*
X-71778624Y-13761013D01*
X-71575525Y-13676887D01*
X-71575526Y-13676887D01*
X-71575523Y-13676886D01*
X-71359918Y-13634000D01*
X-71140082Y-13634000D01*
X-70924477Y-13676886D01*
G37*
G36*
X-11361235Y-13598821D02*
G01*
X-11224743Y-13655358D01*
X-11101904Y-13737436D01*
X-10997436Y-13841904D01*
X-10915358Y-13964743D01*
X-10858821Y-14101235D01*
X-10830000Y-14246130D01*
X-10830000Y-14393870D01*
X-10858821Y-14538765D01*
X-10915358Y-14675257D01*
X-10997436Y-14798096D01*
X-11101904Y-14902564D01*
X-11224743Y-14984642D01*
X-11361235Y-15041179D01*
X-11506130Y-15070000D01*
X-11653870Y-15070000D01*
X-11798765Y-15041179D01*
X-11935257Y-14984642D01*
X-12058096Y-14902564D01*
X-12162564Y-14798096D01*
X-12244642Y-14675257D01*
X-12301179Y-14538765D01*
X-12330000Y-14393870D01*
X-12330000Y-14246130D01*
X-12301179Y-14101235D01*
X-12244642Y-13964743D01*
X-12162564Y-13841904D01*
X-12058096Y-13737436D01*
X-11935257Y-13655358D01*
X-11798765Y-13598821D01*
X-11653870Y-13570000D01*
X-11506130Y-13570000D01*
X-11361235Y-13598821D01*
G37*
G36*
X-4721235Y-12598821D02*
G01*
X-4584743Y-12655358D01*
X-4461904Y-12737436D01*
X-4357436Y-12841904D01*
X-4275358Y-12964743D01*
X-4218821Y-13101235D01*
X-4190000Y-13246130D01*
X-4190000Y-13393870D01*
X-4218821Y-13538765D01*
X-4275358Y-13675257D01*
X-4357436Y-13798096D01*
X-4461904Y-13902564D01*
X-4584743Y-13984642D01*
X-4721235Y-14041179D01*
X-4866130Y-14070000D01*
X-5013870Y-14070000D01*
X-5158765Y-14041179D01*
X-5295257Y-13984642D01*
X-5418096Y-13902564D01*
X-5522564Y-13798096D01*
X-5604642Y-13675257D01*
X-5661179Y-13538765D01*
X-5690000Y-13393870D01*
X-5690000Y-13246130D01*
X-5661179Y-13101235D01*
X-5604642Y-12964743D01*
X-5522564Y-12841904D01*
X-5418096Y-12737436D01*
X-5295257Y-12655358D01*
X-5158765Y-12598821D01*
X-5013870Y-12570000D01*
X-4866130Y-12570000D01*
X-4721235Y-12598821D01*
G37*
G36*
X-84531766Y-12256962D02*
G01*
X-84466152Y-12276866D01*
X-84405687Y-12309185D01*
X-84352684Y-12352684D01*
X-84309185Y-12405687D01*
X-84276866Y-12466152D01*
X-84256962Y-12531766D01*
X-84250000Y-12602454D01*
X-84250000Y-13397546D01*
X-84256962Y-13468234D01*
X-84276866Y-13533848D01*
X-84309185Y-13594313D01*
X-84352684Y-13647316D01*
X-84405687Y-13690815D01*
X-84466152Y-13723134D01*
X-84531766Y-13743038D01*
X-84602454Y-13750000D01*
X-85397546Y-13750000D01*
X-85468234Y-13743038D01*
X-85533848Y-13723134D01*
X-85594313Y-13690815D01*
X-85647316Y-13647316D01*
X-85690815Y-13594313D01*
X-85723134Y-13533848D01*
X-85743038Y-13468234D01*
X-85750000Y-13397546D01*
X-85750000Y-12602454D01*
X-85743038Y-12531766D01*
X-85723134Y-12466152D01*
X-85690815Y-12405687D01*
X-85647316Y-12352684D01*
X-85594313Y-12309185D01*
X-85533848Y-12276866D01*
X-85468234Y-12256962D01*
X-85397546Y-12250000D01*
X-84602454Y-12250000D01*
X-84531766Y-12256962D01*
G37*
G36*
X-86781235Y-12278821D02*
G01*
X-86644743Y-12335358D01*
X-86521904Y-12417436D01*
X-86417436Y-12521904D01*
X-86335358Y-12644743D01*
X-86278821Y-12781235D01*
X-86250000Y-12926130D01*
X-86250000Y-13073870D01*
X-86278821Y-13218765D01*
X-86335358Y-13355257D01*
X-86417436Y-13478096D01*
X-86521904Y-13582564D01*
X-86644743Y-13664642D01*
X-86781235Y-13721179D01*
X-86926130Y-13750000D01*
X-87073870Y-13750000D01*
X-87218765Y-13721179D01*
X-87355257Y-13664642D01*
X-87478096Y-13582564D01*
X-87582564Y-13478096D01*
X-87664642Y-13355257D01*
X-87721179Y-13218765D01*
X-87750000Y-13073870D01*
X-87750000Y-12926130D01*
X-87721179Y-12781235D01*
X-87664642Y-12644743D01*
X-87582564Y-12521904D01*
X-87478096Y-12417436D01*
X-87355257Y-12335358D01*
X-87218765Y-12278821D01*
X-87073870Y-12250000D01*
X-86926130Y-12250000D01*
X-86781235Y-12278821D01*
G37*
G36*
X-6501235Y-11578821D02*
G01*
X-6364743Y-11635358D01*
X-6241904Y-11717436D01*
X-6137436Y-11821904D01*
X-6055358Y-11944743D01*
X-5998821Y-12081235D01*
X-5970000Y-12226130D01*
X-5970000Y-12373870D01*
X-5998821Y-12518765D01*
X-6055358Y-12655257D01*
X-6137436Y-12778096D01*
X-6241904Y-12882564D01*
X-6364743Y-12964642D01*
X-6501235Y-13021179D01*
X-6646130Y-13050000D01*
X-6793870Y-13050000D01*
X-6938765Y-13021179D01*
X-7075257Y-12964642D01*
X-7198096Y-12882564D01*
X-7302564Y-12778096D01*
X-7384642Y-12655257D01*
X-7441179Y-12518765D01*
X-7470000Y-12373870D01*
X-7470000Y-12226130D01*
X-7441179Y-12081235D01*
X-7384642Y-11944743D01*
X-7302564Y-11821904D01*
X-7198096Y-11717436D01*
X-7075257Y-11635358D01*
X-6938765Y-11578821D01*
X-6793870Y-11550000D01*
X-6646130Y-11550000D01*
X-6501235Y-11578821D01*
G37*
G36*
X-46018930Y-10823430D02*
G01*
X-46018927Y-10823431D01*
X-46018928Y-10823431D01*
X-45843564Y-10896069D01*
X-45685741Y-11001523D01*
X-45551523Y-11135741D01*
X-45446069Y-11293564D01*
X-45385893Y-11438842D01*
X-45373430Y-11468930D01*
X-45336400Y-11655092D01*
X-45336400Y-11844908D01*
X-45373430Y-12031070D01*
X-45373431Y-12031072D01*
X-45446069Y-12206436D01*
X-45551523Y-12364259D01*
X-45685741Y-12498477D01*
X-45843564Y-12603931D01*
X-45988842Y-12664107D01*
X-46018930Y-12676570D01*
X-46205092Y-12713600D01*
X-46394908Y-12713600D01*
X-46581070Y-12676570D01*
X-46611158Y-12664107D01*
X-46756436Y-12603931D01*
X-46914259Y-12498477D01*
X-47048477Y-12364259D01*
X-47153931Y-12206436D01*
X-47226569Y-12031072D01*
X-47226570Y-12031070D01*
X-47263600Y-11844908D01*
X-47263600Y-11655092D01*
X-47226570Y-11468930D01*
X-47214107Y-11438842D01*
X-47153931Y-11293564D01*
X-47048477Y-11135741D01*
X-46914259Y-11001523D01*
X-46756436Y-10896069D01*
X-46581072Y-10823431D01*
X-46581073Y-10823431D01*
X-46581070Y-10823430D01*
X-46394908Y-10786400D01*
X-46205092Y-10786400D01*
X-46018930Y-10823430D01*
G37*
G36*
X-48558930Y-10823430D02*
G01*
X-48558927Y-10823431D01*
X-48558928Y-10823431D01*
X-48383564Y-10896069D01*
X-48225741Y-11001523D01*
X-48091523Y-11135741D01*
X-47986069Y-11293564D01*
X-47925893Y-11438842D01*
X-47913430Y-11468930D01*
X-47876400Y-11655092D01*
X-47876400Y-11844908D01*
X-47913430Y-12031070D01*
X-47913431Y-12031072D01*
X-47986069Y-12206436D01*
X-48091523Y-12364259D01*
X-48225741Y-12498477D01*
X-48383564Y-12603931D01*
X-48528842Y-12664107D01*
X-48558930Y-12676570D01*
X-48745092Y-12713600D01*
X-48934908Y-12713600D01*
X-49121070Y-12676570D01*
X-49151158Y-12664107D01*
X-49296436Y-12603931D01*
X-49454259Y-12498477D01*
X-49588477Y-12364259D01*
X-49693931Y-12206436D01*
X-49766569Y-12031072D01*
X-49766570Y-12031070D01*
X-49803600Y-11844908D01*
X-49803600Y-11655092D01*
X-49766570Y-11468930D01*
X-49754107Y-11438842D01*
X-49693931Y-11293564D01*
X-49588477Y-11135741D01*
X-49454259Y-11001523D01*
X-49296436Y-10896069D01*
X-49121072Y-10823431D01*
X-49121073Y-10823431D01*
X-49121070Y-10823430D01*
X-48934908Y-10786400D01*
X-48745092Y-10786400D01*
X-48558930Y-10823430D01*
G37*
G36*
X-51098930Y-10823430D02*
G01*
X-51098927Y-10823431D01*
X-51098928Y-10823431D01*
X-50923564Y-10896069D01*
X-50765741Y-11001523D01*
X-50631523Y-11135741D01*
X-50526069Y-11293564D01*
X-50465893Y-11438842D01*
X-50453430Y-11468930D01*
X-50416400Y-11655092D01*
X-50416400Y-11844908D01*
X-50453430Y-12031070D01*
X-50453431Y-12031072D01*
X-50526069Y-12206436D01*
X-50631523Y-12364259D01*
X-50765741Y-12498477D01*
X-50923564Y-12603931D01*
X-51068842Y-12664107D01*
X-51098930Y-12676570D01*
X-51285092Y-12713600D01*
X-51474908Y-12713600D01*
X-51661070Y-12676570D01*
X-51691158Y-12664107D01*
X-51836436Y-12603931D01*
X-51994259Y-12498477D01*
X-52128477Y-12364259D01*
X-52233931Y-12206436D01*
X-52306569Y-12031072D01*
X-52306570Y-12031070D01*
X-52343600Y-11844908D01*
X-52343600Y-11655092D01*
X-52306570Y-11468930D01*
X-52294107Y-11438842D01*
X-52233931Y-11293564D01*
X-52128477Y-11135741D01*
X-51994259Y-11001523D01*
X-51836436Y-10896069D01*
X-51661072Y-10823431D01*
X-51661073Y-10823431D01*
X-51661070Y-10823430D01*
X-51474908Y-10786400D01*
X-51285092Y-10786400D01*
X-51098930Y-10823430D01*
G37*
G36*
X-53638930Y-10823430D02*
G01*
X-53638927Y-10823431D01*
X-53638928Y-10823431D01*
X-53463564Y-10896069D01*
X-53305741Y-11001523D01*
X-53171523Y-11135741D01*
X-53066069Y-11293564D01*
X-53005893Y-11438842D01*
X-52993430Y-11468930D01*
X-52956400Y-11655092D01*
X-52956400Y-11844908D01*
X-52993430Y-12031070D01*
X-52993431Y-12031072D01*
X-53066069Y-12206436D01*
X-53171523Y-12364259D01*
X-53305741Y-12498477D01*
X-53463564Y-12603931D01*
X-53608842Y-12664107D01*
X-53638930Y-12676570D01*
X-53825092Y-12713600D01*
X-54014908Y-12713600D01*
X-54201070Y-12676570D01*
X-54231158Y-12664107D01*
X-54376436Y-12603931D01*
X-54534259Y-12498477D01*
X-54668477Y-12364259D01*
X-54773931Y-12206436D01*
X-54846569Y-12031072D01*
X-54846570Y-12031070D01*
X-54883600Y-11844908D01*
X-54883600Y-11655092D01*
X-54846570Y-11468930D01*
X-54834107Y-11438842D01*
X-54773931Y-11293564D01*
X-54668477Y-11135741D01*
X-54534259Y-11001523D01*
X-54376436Y-10896069D01*
X-54201072Y-10823431D01*
X-54201073Y-10823431D01*
X-54201070Y-10823430D01*
X-54014908Y-10786400D01*
X-53825092Y-10786400D01*
X-53638930Y-10823430D01*
G37*
G36*
X-58404130Y-10795414D02*
G01*
X-58318481Y-10821396D01*
X-58239552Y-10863584D01*
X-58170365Y-10920365D01*
X-58113584Y-10989552D01*
X-58071396Y-11068481D01*
X-58045414Y-11154130D01*
X-58036400Y-11245654D01*
X-58036400Y-12254346D01*
X-58045414Y-12345870D01*
X-58071396Y-12431519D01*
X-58113584Y-12510448D01*
X-58170365Y-12579635D01*
X-58239552Y-12636416D01*
X-58318481Y-12678604D01*
X-58404130Y-12704586D01*
X-58495654Y-12713600D01*
X-59504346Y-12713600D01*
X-59595870Y-12704586D01*
X-59681519Y-12678604D01*
X-59760448Y-12636416D01*
X-59829635Y-12579635D01*
X-59886416Y-12510448D01*
X-59928604Y-12431519D01*
X-59954586Y-12345870D01*
X-59963600Y-12254346D01*
X-59963600Y-11245654D01*
X-59954586Y-11154130D01*
X-59928604Y-11068481D01*
X-59886416Y-10989552D01*
X-59829635Y-10920365D01*
X-59760448Y-10863584D01*
X-59681519Y-10821396D01*
X-59595870Y-10795414D01*
X-59504346Y-10786400D01*
X-58495654Y-10786400D01*
X-58404130Y-10795414D01*
G37*
G36*
X-56178930Y-10823430D02*
G01*
X-56178927Y-10823431D01*
X-56178928Y-10823431D01*
X-56003564Y-10896069D01*
X-55845741Y-11001523D01*
X-55711523Y-11135741D01*
X-55606069Y-11293564D01*
X-55545893Y-11438842D01*
X-55533430Y-11468930D01*
X-55496400Y-11655092D01*
X-55496400Y-11844908D01*
X-55533430Y-12031070D01*
X-55533431Y-12031072D01*
X-55606069Y-12206436D01*
X-55711523Y-12364259D01*
X-55845741Y-12498477D01*
X-56003564Y-12603931D01*
X-56148842Y-12664107D01*
X-56178930Y-12676570D01*
X-56365092Y-12713600D01*
X-56554908Y-12713600D01*
X-56741070Y-12676570D01*
X-56771158Y-12664107D01*
X-56916436Y-12603931D01*
X-57074259Y-12498477D01*
X-57208477Y-12364259D01*
X-57313931Y-12206436D01*
X-57386569Y-12031072D01*
X-57386570Y-12031070D01*
X-57423600Y-11844908D01*
X-57423600Y-11655092D01*
X-57386570Y-11468930D01*
X-57374107Y-11438842D01*
X-57313931Y-11293564D01*
X-57208477Y-11135741D01*
X-57074259Y-11001523D01*
X-56916436Y-10896069D01*
X-56741072Y-10823431D01*
X-56741073Y-10823431D01*
X-56741070Y-10823430D01*
X-56554908Y-10786400D01*
X-56365092Y-10786400D01*
X-56178930Y-10823430D01*
G37*
G36*
X-4721235Y-10558821D02*
G01*
X-4584743Y-10615358D01*
X-4461904Y-10697436D01*
X-4357436Y-10801904D01*
X-4275358Y-10924743D01*
X-4218821Y-11061235D01*
X-4190000Y-11206130D01*
X-4190000Y-11353870D01*
X-4218821Y-11498765D01*
X-4275358Y-11635257D01*
X-4357436Y-11758096D01*
X-4461904Y-11862564D01*
X-4584743Y-11944642D01*
X-4721235Y-12001179D01*
X-4866130Y-12030000D01*
X-5013870Y-12030000D01*
X-5158765Y-12001179D01*
X-5295257Y-11944642D01*
X-5418096Y-11862564D01*
X-5522564Y-11758096D01*
X-5604642Y-11635257D01*
X-5661179Y-11498765D01*
X-5690000Y-11353870D01*
X-5690000Y-11206130D01*
X-5661179Y-11061235D01*
X-5604642Y-10924743D01*
X-5522564Y-10801904D01*
X-5418096Y-10697436D01*
X-5295257Y-10615358D01*
X-5158765Y-10558821D01*
X-5013870Y-10530000D01*
X-4866130Y-10530000D01*
X-4721235Y-10558821D01*
G37*
G36*
X-6501235Y-9538821D02*
G01*
X-6364743Y-9595358D01*
X-6241904Y-9677436D01*
X-6137436Y-9781904D01*
X-6055358Y-9904743D01*
X-5998821Y-10041235D01*
X-5970000Y-10186130D01*
X-5970000Y-10333870D01*
X-5998821Y-10478765D01*
X-6055358Y-10615257D01*
X-6137436Y-10738096D01*
X-6241904Y-10842564D01*
X-6364743Y-10924642D01*
X-6501235Y-10981179D01*
X-6646130Y-11010000D01*
X-6793870Y-11010000D01*
X-6938765Y-10981179D01*
X-7075257Y-10924642D01*
X-7198096Y-10842564D01*
X-7302564Y-10738096D01*
X-7384642Y-10615257D01*
X-7441179Y-10478765D01*
X-7470000Y-10333870D01*
X-7470000Y-10186130D01*
X-7441179Y-10041235D01*
X-7384642Y-9904743D01*
X-7302564Y-9781904D01*
X-7198096Y-9677436D01*
X-7075257Y-9595358D01*
X-6938765Y-9538821D01*
X-6793870Y-9510000D01*
X-6646130Y-9510000D01*
X-6501235Y-9538821D01*
G37*
G36*
X-94752066Y-8932664D02*
G01*
X-94597375Y-8996739D01*
X-94597374Y-8996740D01*
X-94458156Y-9089762D01*
X-94339762Y-9208156D01*
X-94339761Y-9208158D01*
X-94246739Y-9347375D01*
X-94182664Y-9502066D01*
X-94150000Y-9666281D01*
X-94150000Y-9833719D01*
X-94182664Y-9997934D01*
X-94246739Y-10152625D01*
X-94269127Y-10186131D01*
X-94339762Y-10291844D01*
X-94458156Y-10410238D01*
X-94528238Y-10457065D01*
X-94597375Y-10503261D01*
X-94752066Y-10567336D01*
X-94916281Y-10600000D01*
X-95083719Y-10600000D01*
X-95247934Y-10567336D01*
X-95402625Y-10503261D01*
X-95471762Y-10457065D01*
X-95541844Y-10410238D01*
X-95660238Y-10291844D01*
X-95730873Y-10186131D01*
X-95753261Y-10152625D01*
X-95817336Y-9997934D01*
X-95850000Y-9833719D01*
X-95850000Y-9666281D01*
X-95817336Y-9502066D01*
X-95753261Y-9347375D01*
X-95660239Y-9208158D01*
X-95660238Y-9208156D01*
X-95541844Y-9089762D01*
X-95402626Y-8996740D01*
X-95402625Y-8996739D01*
X-95247934Y-8932664D01*
X-95083719Y-8900000D01*
X-94916281Y-8900000D01*
X-94752066Y-8932664D01*
G37*
G36*
X-46018930Y-8283430D02*
G01*
X-46018927Y-8283431D01*
X-46018928Y-8283431D01*
X-45843564Y-8356069D01*
X-45685741Y-8461523D01*
X-45551523Y-8595741D01*
X-45446069Y-8753564D01*
X-45425773Y-8802564D01*
X-45373430Y-8928930D01*
X-45336400Y-9115092D01*
X-45336400Y-9304908D01*
X-45373430Y-9491070D01*
X-45373431Y-9491072D01*
X-45446069Y-9666436D01*
X-45551523Y-9824259D01*
X-45685741Y-9958477D01*
X-45843564Y-10063931D01*
X-45988842Y-10124107D01*
X-46018930Y-10136570D01*
X-46205092Y-10173600D01*
X-46394908Y-10173600D01*
X-46581070Y-10136570D01*
X-46611158Y-10124107D01*
X-46756436Y-10063931D01*
X-46914259Y-9958477D01*
X-47048477Y-9824259D01*
X-47153931Y-9666436D01*
X-47226569Y-9491072D01*
X-47226570Y-9491070D01*
X-47263600Y-9304908D01*
X-47263600Y-9115092D01*
X-47226570Y-8928930D01*
X-47174227Y-8802564D01*
X-47153931Y-8753564D01*
X-47048477Y-8595741D01*
X-46914259Y-8461523D01*
X-46756436Y-8356069D01*
X-46581072Y-8283431D01*
X-46581073Y-8283431D01*
X-46581070Y-8283430D01*
X-46394908Y-8246400D01*
X-46205092Y-8246400D01*
X-46018930Y-8283430D01*
G37*
G36*
X-48558930Y-8283430D02*
G01*
X-48558927Y-8283431D01*
X-48558928Y-8283431D01*
X-48383564Y-8356069D01*
X-48225741Y-8461523D01*
X-48091523Y-8595741D01*
X-47986069Y-8753564D01*
X-47965773Y-8802564D01*
X-47913430Y-8928930D01*
X-47876400Y-9115092D01*
X-47876400Y-9304908D01*
X-47913430Y-9491070D01*
X-47913431Y-9491072D01*
X-47986069Y-9666436D01*
X-48091523Y-9824259D01*
X-48225741Y-9958477D01*
X-48383564Y-10063931D01*
X-48528842Y-10124107D01*
X-48558930Y-10136570D01*
X-48745092Y-10173600D01*
X-48934908Y-10173600D01*
X-49121070Y-10136570D01*
X-49151158Y-10124107D01*
X-49296436Y-10063931D01*
X-49454259Y-9958477D01*
X-49588477Y-9824259D01*
X-49693931Y-9666436D01*
X-49766569Y-9491072D01*
X-49766570Y-9491070D01*
X-49803600Y-9304908D01*
X-49803600Y-9115092D01*
X-49766570Y-8928930D01*
X-49714227Y-8802564D01*
X-49693931Y-8753564D01*
X-49588477Y-8595741D01*
X-49454259Y-8461523D01*
X-49296436Y-8356069D01*
X-49121072Y-8283431D01*
X-49121073Y-8283431D01*
X-49121070Y-8283430D01*
X-48934908Y-8246400D01*
X-48745092Y-8246400D01*
X-48558930Y-8283430D01*
G37*
G36*
X-58718930Y-8283430D02*
G01*
X-58718927Y-8283431D01*
X-58718928Y-8283431D01*
X-58543564Y-8356069D01*
X-58385741Y-8461523D01*
X-58251523Y-8595741D01*
X-58146069Y-8753564D01*
X-58125773Y-8802564D01*
X-58073430Y-8928930D01*
X-58036400Y-9115092D01*
X-58036400Y-9304908D01*
X-58073430Y-9491070D01*
X-58073431Y-9491072D01*
X-58146069Y-9666436D01*
X-58251523Y-9824259D01*
X-58385741Y-9958477D01*
X-58543564Y-10063931D01*
X-58688842Y-10124107D01*
X-58718930Y-10136570D01*
X-58905092Y-10173600D01*
X-59094908Y-10173600D01*
X-59281070Y-10136570D01*
X-59311158Y-10124107D01*
X-59456436Y-10063931D01*
X-59614259Y-9958477D01*
X-59748477Y-9824259D01*
X-59853931Y-9666436D01*
X-59926569Y-9491072D01*
X-59926570Y-9491070D01*
X-59963600Y-9304908D01*
X-59963600Y-9115092D01*
X-59926570Y-8928930D01*
X-59874227Y-8802564D01*
X-59853931Y-8753564D01*
X-59748477Y-8595741D01*
X-59614259Y-8461523D01*
X-59456436Y-8356069D01*
X-59281072Y-8283431D01*
X-59281073Y-8283431D01*
X-59281070Y-8283430D01*
X-59094908Y-8246400D01*
X-58905092Y-8246400D01*
X-58718930Y-8283430D01*
G37*
G36*
X-53638930Y-8283430D02*
G01*
X-53638927Y-8283431D01*
X-53638928Y-8283431D01*
X-53463564Y-8356069D01*
X-53305741Y-8461523D01*
X-53171523Y-8595741D01*
X-53066069Y-8753564D01*
X-53045773Y-8802564D01*
X-52993430Y-8928930D01*
X-52956400Y-9115092D01*
X-52956400Y-9304908D01*
X-52993430Y-9491070D01*
X-52993431Y-9491072D01*
X-53066069Y-9666436D01*
X-53171523Y-9824259D01*
X-53305741Y-9958477D01*
X-53463564Y-10063931D01*
X-53608842Y-10124107D01*
X-53638930Y-10136570D01*
X-53825092Y-10173600D01*
X-54014908Y-10173600D01*
X-54201070Y-10136570D01*
X-54231158Y-10124107D01*
X-54376436Y-10063931D01*
X-54534259Y-9958477D01*
X-54668477Y-9824259D01*
X-54773931Y-9666436D01*
X-54846569Y-9491072D01*
X-54846570Y-9491070D01*
X-54883600Y-9304908D01*
X-54883600Y-9115092D01*
X-54846570Y-8928930D01*
X-54794227Y-8802564D01*
X-54773931Y-8753564D01*
X-54668477Y-8595741D01*
X-54534259Y-8461523D01*
X-54376436Y-8356069D01*
X-54201072Y-8283431D01*
X-54201073Y-8283431D01*
X-54201070Y-8283430D01*
X-54014908Y-8246400D01*
X-53825092Y-8246400D01*
X-53638930Y-8283430D01*
G37*
G36*
X-51098930Y-8283430D02*
G01*
X-51098927Y-8283431D01*
X-51098928Y-8283431D01*
X-50923564Y-8356069D01*
X-50765741Y-8461523D01*
X-50631523Y-8595741D01*
X-50526069Y-8753564D01*
X-50505773Y-8802564D01*
X-50453430Y-8928930D01*
X-50416400Y-9115092D01*
X-50416400Y-9304908D01*
X-50453430Y-9491070D01*
X-50453431Y-9491072D01*
X-50526069Y-9666436D01*
X-50631523Y-9824259D01*
X-50765741Y-9958477D01*
X-50923564Y-10063931D01*
X-51068842Y-10124107D01*
X-51098930Y-10136570D01*
X-51285092Y-10173600D01*
X-51474908Y-10173600D01*
X-51661070Y-10136570D01*
X-51691158Y-10124107D01*
X-51836436Y-10063931D01*
X-51994259Y-9958477D01*
X-52128477Y-9824259D01*
X-52233931Y-9666436D01*
X-52306569Y-9491072D01*
X-52306570Y-9491070D01*
X-52343600Y-9304908D01*
X-52343600Y-9115092D01*
X-52306570Y-8928930D01*
X-52254227Y-8802564D01*
X-52233931Y-8753564D01*
X-52128477Y-8595741D01*
X-51994259Y-8461523D01*
X-51836436Y-8356069D01*
X-51661072Y-8283431D01*
X-51661073Y-8283431D01*
X-51661070Y-8283430D01*
X-51474908Y-8246400D01*
X-51285092Y-8246400D01*
X-51098930Y-8283430D01*
G37*
G36*
X-56178930Y-8283430D02*
G01*
X-56178927Y-8283431D01*
X-56178928Y-8283431D01*
X-56003564Y-8356069D01*
X-55845741Y-8461523D01*
X-55711523Y-8595741D01*
X-55606069Y-8753564D01*
X-55585773Y-8802564D01*
X-55533430Y-8928930D01*
X-55496400Y-9115092D01*
X-55496400Y-9304908D01*
X-55533430Y-9491070D01*
X-55533431Y-9491072D01*
X-55606069Y-9666436D01*
X-55711523Y-9824259D01*
X-55845741Y-9958477D01*
X-56003564Y-10063931D01*
X-56148842Y-10124107D01*
X-56178930Y-10136570D01*
X-56365092Y-10173600D01*
X-56554908Y-10173600D01*
X-56741070Y-10136570D01*
X-56771158Y-10124107D01*
X-56916436Y-10063931D01*
X-57074259Y-9958477D01*
X-57208477Y-9824259D01*
X-57313931Y-9666436D01*
X-57386569Y-9491072D01*
X-57386570Y-9491070D01*
X-57423600Y-9304908D01*
X-57423600Y-9115092D01*
X-57386570Y-8928930D01*
X-57334227Y-8802564D01*
X-57313931Y-8753564D01*
X-57208477Y-8595741D01*
X-57074259Y-8461523D01*
X-56916436Y-8356069D01*
X-56741072Y-8283431D01*
X-56741073Y-8283431D01*
X-56741070Y-8283430D01*
X-56554908Y-8246400D01*
X-56365092Y-8246400D01*
X-56178930Y-8283430D01*
G37*
G36*
X-4721235Y-8518821D02*
G01*
X-4584743Y-8575358D01*
X-4461904Y-8657436D01*
X-4357436Y-8761904D01*
X-4275358Y-8884743D01*
X-4218821Y-9021235D01*
X-4190000Y-9166130D01*
X-4190000Y-9313870D01*
X-4218821Y-9458765D01*
X-4275358Y-9595257D01*
X-4357436Y-9718096D01*
X-4461904Y-9822564D01*
X-4584743Y-9904642D01*
X-4721235Y-9961179D01*
X-4866130Y-9990000D01*
X-5013870Y-9990000D01*
X-5158765Y-9961179D01*
X-5295257Y-9904642D01*
X-5418096Y-9822564D01*
X-5522564Y-9718096D01*
X-5604642Y-9595257D01*
X-5661179Y-9458765D01*
X-5690000Y-9313870D01*
X-5690000Y-9166130D01*
X-5661179Y-9021235D01*
X-5604642Y-8884743D01*
X-5522564Y-8761904D01*
X-5418096Y-8657436D01*
X-5295257Y-8575358D01*
X-5158765Y-8518821D01*
X-5013870Y-8490000D01*
X-4866130Y-8490000D01*
X-4721235Y-8518821D01*
G37*
G36*
X-6501235Y-7498821D02*
G01*
X-6364743Y-7555358D01*
X-6241904Y-7637436D01*
X-6137436Y-7741904D01*
X-6055358Y-7864743D01*
X-5998821Y-8001235D01*
X-5970000Y-8146130D01*
X-5970000Y-8293870D01*
X-5998821Y-8438765D01*
X-6055358Y-8575257D01*
X-6137436Y-8698096D01*
X-6241904Y-8802564D01*
X-6364743Y-8884642D01*
X-6501235Y-8941179D01*
X-6646130Y-8970000D01*
X-6793870Y-8970000D01*
X-6938765Y-8941179D01*
X-7075257Y-8884642D01*
X-7198096Y-8802564D01*
X-7302564Y-8698096D01*
X-7384642Y-8575257D01*
X-7441179Y-8438765D01*
X-7470000Y-8293870D01*
X-7470000Y-8146130D01*
X-7441179Y-8001235D01*
X-7384642Y-7864743D01*
X-7302564Y-7741904D01*
X-7198096Y-7637436D01*
X-7075257Y-7555358D01*
X-6938765Y-7498821D01*
X-6793870Y-7470000D01*
X-6646130Y-7470000D01*
X-6501235Y-7498821D01*
G37*
G36*
X-4721235Y-6478821D02*
G01*
X-4584743Y-6535358D01*
X-4461904Y-6617436D01*
X-4357436Y-6721904D01*
X-4275358Y-6844743D01*
X-4218821Y-6981235D01*
X-4190000Y-7126130D01*
X-4190000Y-7273870D01*
X-4218821Y-7418765D01*
X-4275358Y-7555257D01*
X-4357436Y-7678096D01*
X-4461904Y-7782564D01*
X-4584743Y-7864642D01*
X-4721235Y-7921179D01*
X-4866130Y-7950000D01*
X-5013870Y-7950000D01*
X-5158765Y-7921179D01*
X-5295257Y-7864642D01*
X-5418096Y-7782564D01*
X-5522564Y-7678096D01*
X-5604642Y-7555257D01*
X-5661179Y-7418765D01*
X-5690000Y-7273870D01*
X-5690000Y-7126130D01*
X-5661179Y-6981235D01*
X-5604642Y-6844743D01*
X-5522564Y-6721904D01*
X-5418096Y-6617436D01*
X-5295257Y-6535358D01*
X-5158765Y-6478821D01*
X-5013870Y-6450000D01*
X-4866130Y-6450000D01*
X-4721235Y-6478821D01*
G37*
G36*
X-89752066Y-6182664D02*
G01*
X-89597375Y-6246739D01*
X-89586703Y-6253870D01*
X-89458156Y-6339762D01*
X-89339762Y-6458156D01*
X-89313183Y-6497934D01*
X-89246739Y-6597375D01*
X-89182664Y-6752066D01*
X-89150000Y-6916281D01*
X-89150000Y-7083719D01*
X-89182664Y-7247934D01*
X-89246739Y-7402625D01*
X-89257525Y-7418767D01*
X-89339762Y-7541844D01*
X-89458156Y-7660238D01*
X-89484883Y-7678096D01*
X-89597375Y-7753261D01*
X-89752066Y-7817336D01*
X-89916281Y-7850000D01*
X-90083719Y-7850000D01*
X-90247934Y-7817336D01*
X-90402625Y-7753261D01*
X-90515117Y-7678096D01*
X-90541844Y-7660238D01*
X-90660238Y-7541844D01*
X-90742475Y-7418767D01*
X-90753261Y-7402625D01*
X-90817336Y-7247934D01*
X-90850000Y-7083719D01*
X-90850000Y-6916281D01*
X-90817336Y-6752066D01*
X-90753261Y-6597375D01*
X-90686817Y-6497934D01*
X-90660238Y-6458156D01*
X-90541844Y-6339762D01*
X-90413297Y-6253870D01*
X-90402625Y-6246739D01*
X-90247934Y-6182664D01*
X-90083719Y-6150000D01*
X-89916281Y-6150000D01*
X-89752066Y-6182664D01*
G37*
G36*
X-82752066Y-6182664D02*
G01*
X-82597375Y-6246739D01*
X-82586703Y-6253870D01*
X-82458156Y-6339762D01*
X-82339762Y-6458156D01*
X-82313183Y-6497934D01*
X-82246739Y-6597375D01*
X-82182664Y-6752066D01*
X-82150000Y-6916281D01*
X-82150000Y-7083719D01*
X-82182664Y-7247934D01*
X-82246739Y-7402625D01*
X-82257525Y-7418767D01*
X-82339762Y-7541844D01*
X-82458156Y-7660238D01*
X-82484883Y-7678096D01*
X-82597375Y-7753261D01*
X-82752066Y-7817336D01*
X-82916281Y-7850000D01*
X-83083719Y-7850000D01*
X-83247934Y-7817336D01*
X-83402625Y-7753261D01*
X-83515117Y-7678096D01*
X-83541844Y-7660238D01*
X-83660238Y-7541844D01*
X-83742475Y-7418767D01*
X-83753261Y-7402625D01*
X-83817336Y-7247934D01*
X-83850000Y-7083719D01*
X-83850000Y-6916281D01*
X-83817336Y-6752066D01*
X-83753261Y-6597375D01*
X-83686817Y-6497934D01*
X-83660238Y-6458156D01*
X-83541844Y-6339762D01*
X-83413297Y-6253870D01*
X-83402625Y-6246739D01*
X-83247934Y-6182664D01*
X-83083719Y-6150000D01*
X-82916281Y-6150000D01*
X-82752066Y-6182664D01*
G37*
G36*
X-79252066Y-6182664D02*
G01*
X-79097375Y-6246739D01*
X-79086703Y-6253870D01*
X-78958156Y-6339762D01*
X-78839762Y-6458156D01*
X-78813183Y-6497934D01*
X-78746739Y-6597375D01*
X-78682664Y-6752066D01*
X-78650000Y-6916281D01*
X-78650000Y-7083719D01*
X-78682664Y-7247934D01*
X-78746739Y-7402625D01*
X-78757525Y-7418767D01*
X-78839762Y-7541844D01*
X-78958156Y-7660238D01*
X-78984883Y-7678096D01*
X-79097375Y-7753261D01*
X-79252066Y-7817336D01*
X-79416281Y-7850000D01*
X-79583719Y-7850000D01*
X-79747934Y-7817336D01*
X-79902625Y-7753261D01*
X-80015117Y-7678096D01*
X-80041844Y-7660238D01*
X-80160238Y-7541844D01*
X-80242475Y-7418767D01*
X-80253261Y-7402625D01*
X-80317336Y-7247934D01*
X-80350000Y-7083719D01*
X-80350000Y-6916281D01*
X-80317336Y-6752066D01*
X-80253261Y-6597375D01*
X-80186817Y-6497934D01*
X-80160238Y-6458156D01*
X-80041844Y-6339762D01*
X-79913297Y-6253870D01*
X-79902625Y-6246739D01*
X-79747934Y-6182664D01*
X-79583719Y-6150000D01*
X-79416281Y-6150000D01*
X-79252066Y-6182664D01*
G37*
G36*
X-75752066Y-6182664D02*
G01*
X-75597375Y-6246739D01*
X-75586703Y-6253870D01*
X-75458156Y-6339762D01*
X-75339762Y-6458156D01*
X-75313183Y-6497934D01*
X-75246739Y-6597375D01*
X-75182664Y-6752066D01*
X-75150000Y-6916281D01*
X-75150000Y-7083719D01*
X-75182664Y-7247934D01*
X-75246739Y-7402625D01*
X-75257525Y-7418767D01*
X-75339762Y-7541844D01*
X-75458156Y-7660238D01*
X-75484883Y-7678096D01*
X-75597375Y-7753261D01*
X-75752066Y-7817336D01*
X-75916281Y-7850000D01*
X-76083719Y-7850000D01*
X-76247934Y-7817336D01*
X-76402625Y-7753261D01*
X-76515117Y-7678096D01*
X-76541844Y-7660238D01*
X-76660238Y-7541844D01*
X-76742475Y-7418767D01*
X-76753261Y-7402625D01*
X-76817336Y-7247934D01*
X-76850000Y-7083719D01*
X-76850000Y-6916281D01*
X-76817336Y-6752066D01*
X-76753261Y-6597375D01*
X-76686817Y-6497934D01*
X-76660238Y-6458156D01*
X-76541844Y-6339762D01*
X-76413297Y-6253870D01*
X-76402625Y-6246739D01*
X-76247934Y-6182664D01*
X-76083719Y-6150000D01*
X-75916281Y-6150000D01*
X-75752066Y-6182664D01*
G37*
G36*
X-72252066Y-6182664D02*
G01*
X-72097375Y-6246739D01*
X-72086703Y-6253870D01*
X-71958156Y-6339762D01*
X-71839762Y-6458156D01*
X-71813183Y-6497934D01*
X-71746739Y-6597375D01*
X-71682664Y-6752066D01*
X-71650000Y-6916281D01*
X-71650000Y-7083719D01*
X-71682664Y-7247934D01*
X-71746739Y-7402625D01*
X-71757525Y-7418767D01*
X-71839762Y-7541844D01*
X-71958156Y-7660238D01*
X-71984883Y-7678096D01*
X-72097375Y-7753261D01*
X-72252066Y-7817336D01*
X-72416281Y-7850000D01*
X-72583719Y-7850000D01*
X-72747934Y-7817336D01*
X-72902625Y-7753261D01*
X-73015117Y-7678096D01*
X-73041844Y-7660238D01*
X-73160238Y-7541844D01*
X-73242475Y-7418767D01*
X-73253261Y-7402625D01*
X-73317336Y-7247934D01*
X-73350000Y-7083719D01*
X-73350000Y-6916281D01*
X-73317336Y-6752066D01*
X-73253261Y-6597375D01*
X-73186817Y-6497934D01*
X-73160238Y-6458156D01*
X-73041844Y-6339762D01*
X-72913297Y-6253870D01*
X-72902625Y-6246739D01*
X-72747934Y-6182664D01*
X-72583719Y-6150000D01*
X-72416281Y-6150000D01*
X-72252066Y-6182664D01*
G37*
G36*
X-66752066Y-6182664D02*
G01*
X-66597375Y-6246739D01*
X-66586703Y-6253870D01*
X-66458156Y-6339762D01*
X-66339762Y-6458156D01*
X-66313183Y-6497934D01*
X-66246739Y-6597375D01*
X-66182664Y-6752066D01*
X-66150000Y-6916281D01*
X-66150000Y-7083719D01*
X-66182664Y-7247934D01*
X-66246739Y-7402625D01*
X-66257525Y-7418767D01*
X-66339762Y-7541844D01*
X-66458156Y-7660238D01*
X-66484883Y-7678096D01*
X-66597375Y-7753261D01*
X-66752066Y-7817336D01*
X-66916281Y-7850000D01*
X-67083719Y-7850000D01*
X-67247934Y-7817336D01*
X-67402625Y-7753261D01*
X-67515117Y-7678096D01*
X-67541844Y-7660238D01*
X-67660238Y-7541844D01*
X-67742475Y-7418767D01*
X-67753261Y-7402625D01*
X-67817336Y-7247934D01*
X-67850000Y-7083719D01*
X-67850000Y-6916281D01*
X-67817336Y-6752066D01*
X-67753261Y-6597375D01*
X-67686817Y-6497934D01*
X-67660238Y-6458156D01*
X-67541844Y-6339762D01*
X-67413297Y-6253870D01*
X-67402625Y-6246739D01*
X-67247934Y-6182664D01*
X-67083719Y-6150000D01*
X-66916281Y-6150000D01*
X-66752066Y-6182664D01*
G37*
G36*
X-63252066Y-6182664D02*
G01*
X-63097375Y-6246739D01*
X-63086703Y-6253870D01*
X-62958156Y-6339762D01*
X-62839762Y-6458156D01*
X-62813183Y-6497934D01*
X-62746739Y-6597375D01*
X-62682664Y-6752066D01*
X-62650000Y-6916281D01*
X-62650000Y-7083719D01*
X-62682664Y-7247934D01*
X-62746739Y-7402625D01*
X-62757525Y-7418767D01*
X-62839762Y-7541844D01*
X-62958156Y-7660238D01*
X-62984883Y-7678096D01*
X-63097375Y-7753261D01*
X-63252066Y-7817336D01*
X-63416281Y-7850000D01*
X-63583719Y-7850000D01*
X-63747934Y-7817336D01*
X-63902625Y-7753261D01*
X-64015117Y-7678096D01*
X-64041844Y-7660238D01*
X-64160238Y-7541844D01*
X-64242475Y-7418767D01*
X-64253261Y-7402625D01*
X-64317336Y-7247934D01*
X-64350000Y-7083719D01*
X-64350000Y-6916281D01*
X-64317336Y-6752066D01*
X-64253261Y-6597375D01*
X-64186817Y-6497934D01*
X-64160238Y-6458156D01*
X-64041844Y-6339762D01*
X-63913297Y-6253870D01*
X-63902625Y-6246739D01*
X-63747934Y-6182664D01*
X-63583719Y-6150000D01*
X-63416281Y-6150000D01*
X-63252066Y-6182664D01*
G37*
G36*
X-86252066Y-6182664D02*
G01*
X-86097375Y-6246739D01*
X-86086703Y-6253870D01*
X-85958156Y-6339762D01*
X-85839762Y-6458156D01*
X-85813183Y-6497934D01*
X-85746739Y-6597375D01*
X-85682664Y-6752066D01*
X-85650000Y-6916281D01*
X-85650000Y-7083719D01*
X-85682664Y-7247934D01*
X-85746739Y-7402625D01*
X-85757525Y-7418767D01*
X-85839762Y-7541844D01*
X-85958156Y-7660238D01*
X-85984883Y-7678096D01*
X-86097375Y-7753261D01*
X-86252066Y-7817336D01*
X-86416281Y-7850000D01*
X-86583719Y-7850000D01*
X-86747934Y-7817336D01*
X-86902625Y-7753261D01*
X-87015117Y-7678096D01*
X-87041844Y-7660238D01*
X-87160238Y-7541844D01*
X-87242475Y-7418767D01*
X-87253261Y-7402625D01*
X-87317336Y-7247934D01*
X-87350000Y-7083719D01*
X-87350000Y-6916281D01*
X-87317336Y-6752066D01*
X-87253261Y-6597375D01*
X-87186817Y-6497934D01*
X-87160238Y-6458156D01*
X-87041844Y-6339762D01*
X-86913297Y-6253870D01*
X-86902625Y-6246739D01*
X-86747934Y-6182664D01*
X-86583719Y-6150000D01*
X-86416281Y-6150000D01*
X-86252066Y-6182664D01*
G37*
G36*
X-94752066Y-5432664D02*
G01*
X-94597375Y-5496739D01*
X-94539729Y-5535257D01*
X-94458156Y-5589762D01*
X-94339762Y-5708156D01*
X-94339761Y-5708158D01*
X-94246739Y-5847375D01*
X-94182664Y-6002066D01*
X-94150000Y-6166281D01*
X-94150000Y-6333719D01*
X-94182664Y-6497934D01*
X-94246739Y-6652625D01*
X-94292935Y-6721762D01*
X-94339762Y-6791844D01*
X-94458156Y-6910238D01*
X-94467200Y-6916281D01*
X-94597375Y-7003261D01*
X-94752066Y-7067336D01*
X-94916281Y-7100000D01*
X-95083719Y-7100000D01*
X-95247934Y-7067336D01*
X-95402625Y-7003261D01*
X-95532800Y-6916281D01*
X-95541844Y-6910238D01*
X-95660238Y-6791844D01*
X-95707065Y-6721762D01*
X-95753261Y-6652625D01*
X-95817336Y-6497934D01*
X-95850000Y-6333719D01*
X-95850000Y-6166281D01*
X-95817336Y-6002066D01*
X-95753261Y-5847375D01*
X-95660239Y-5708158D01*
X-95660238Y-5708156D01*
X-95541844Y-5589762D01*
X-95460271Y-5535257D01*
X-95402625Y-5496739D01*
X-95247934Y-5432664D01*
X-95083719Y-5400000D01*
X-94916281Y-5400000D01*
X-94752066Y-5432664D01*
G37*
G36*
X-6501235Y-5458821D02*
G01*
X-6364743Y-5515358D01*
X-6241904Y-5597436D01*
X-6137436Y-5701904D01*
X-6055358Y-5824743D01*
X-5998821Y-5961235D01*
X-5970000Y-6106130D01*
X-5970000Y-6253870D01*
X-5998821Y-6398765D01*
X-6055358Y-6535257D01*
X-6137436Y-6658096D01*
X-6241904Y-6762564D01*
X-6364743Y-6844642D01*
X-6501235Y-6901179D01*
X-6646130Y-6930000D01*
X-6793870Y-6930000D01*
X-6938765Y-6901179D01*
X-7075257Y-6844642D01*
X-7198096Y-6762564D01*
X-7302564Y-6658096D01*
X-7384642Y-6535257D01*
X-7441179Y-6398765D01*
X-7470000Y-6253870D01*
X-7470000Y-6106130D01*
X-7441179Y-5961235D01*
X-7384642Y-5824743D01*
X-7302564Y-5701904D01*
X-7198096Y-5597436D01*
X-7075257Y-5515358D01*
X-6938765Y-5458821D01*
X-6793870Y-5430000D01*
X-6646130Y-5430000D01*
X-6501235Y-5458821D01*
G37*
G36*
X-11361235Y-4458821D02*
G01*
X-11224743Y-4515358D01*
X-11101904Y-4597436D01*
X-10997436Y-4701904D01*
X-10915358Y-4824743D01*
X-10858821Y-4961235D01*
X-10830000Y-5106130D01*
X-10830000Y-5253870D01*
X-10858821Y-5398765D01*
X-10915358Y-5535257D01*
X-10997436Y-5658096D01*
X-11101904Y-5762564D01*
X-11224743Y-5844642D01*
X-11361235Y-5901179D01*
X-11506130Y-5930000D01*
X-11653870Y-5930000D01*
X-11798765Y-5901179D01*
X-11935257Y-5844642D01*
X-12058096Y-5762564D01*
X-12162564Y-5658096D01*
X-12244642Y-5535257D01*
X-12301179Y-5398765D01*
X-12330000Y-5253870D01*
X-12330000Y-5106130D01*
X-12301179Y-4961235D01*
X-12244642Y-4824743D01*
X-12162564Y-4701904D01*
X-12058096Y-4597436D01*
X-11935257Y-4515358D01*
X-11798765Y-4458821D01*
X-11653870Y-4430000D01*
X-11506130Y-4430000D01*
X-11361235Y-4458821D01*
G37*
G36*
X-34752066Y-3632664D02*
G01*
X-34597375Y-3696739D01*
X-34597374Y-3696740D01*
X-34458156Y-3789762D01*
X-34339762Y-3908156D01*
X-34339761Y-3908158D01*
X-34246739Y-4047375D01*
X-34182664Y-4202066D01*
X-34150000Y-4366281D01*
X-34150000Y-4533719D01*
X-34182664Y-4697934D01*
X-34246739Y-4852625D01*
X-34246740Y-4852626D01*
X-34339762Y-4991844D01*
X-34458156Y-5110238D01*
X-34528238Y-5157065D01*
X-34597375Y-5203261D01*
X-34752066Y-5267336D01*
X-34916281Y-5300000D01*
X-35083719Y-5300000D01*
X-35247934Y-5267336D01*
X-35402625Y-5203261D01*
X-35471762Y-5157065D01*
X-35541844Y-5110238D01*
X-35660238Y-4991844D01*
X-35753260Y-4852626D01*
X-35753261Y-4852625D01*
X-35817336Y-4697934D01*
X-35850000Y-4533719D01*
X-35850000Y-4366281D01*
X-35817336Y-4202066D01*
X-35753261Y-4047375D01*
X-35660239Y-3908158D01*
X-35660238Y-3908156D01*
X-35541844Y-3789762D01*
X-35402626Y-3696740D01*
X-35402625Y-3696739D01*
X-35247934Y-3632664D01*
X-35083719Y-3600000D01*
X-34916281Y-3600000D01*
X-34752066Y-3632664D01*
G37*
G36*
X-39752066Y-3632664D02*
G01*
X-39597375Y-3696739D01*
X-39597374Y-3696740D01*
X-39458156Y-3789762D01*
X-39339762Y-3908156D01*
X-39339761Y-3908158D01*
X-39246739Y-4047375D01*
X-39182664Y-4202066D01*
X-39150000Y-4366281D01*
X-39150000Y-4533719D01*
X-39182664Y-4697934D01*
X-39246739Y-4852625D01*
X-39246740Y-4852626D01*
X-39339762Y-4991844D01*
X-39458156Y-5110238D01*
X-39528238Y-5157065D01*
X-39597375Y-5203261D01*
X-39752066Y-5267336D01*
X-39916281Y-5300000D01*
X-40083719Y-5300000D01*
X-40247934Y-5267336D01*
X-40402625Y-5203261D01*
X-40471762Y-5157065D01*
X-40541844Y-5110238D01*
X-40660238Y-4991844D01*
X-40753260Y-4852626D01*
X-40753261Y-4852625D01*
X-40817336Y-4697934D01*
X-40850000Y-4533719D01*
X-40850000Y-4366281D01*
X-40817336Y-4202066D01*
X-40753261Y-4047375D01*
X-40660239Y-3908158D01*
X-40660238Y-3908156D01*
X-40541844Y-3789762D01*
X-40402626Y-3696740D01*
X-40402625Y-3696739D01*
X-40247934Y-3632664D01*
X-40083719Y-3600000D01*
X-39916281Y-3600000D01*
X-39752066Y-3632664D01*
G37*
G36*
X-2078101Y-1781704D02*
G01*
X-1918713Y-1813408D01*
X-1794333Y-1864928D01*
X-1618433Y-1937788D01*
X-1618432Y-1937789D01*
X-1348186Y-2118361D01*
X-1118361Y-2348186D01*
X-1102765Y-2371527D01*
X-937788Y-2618433D01*
X-893647Y-2725000D01*
X-855899Y-2816130D01*
X-813408Y-2918714D01*
X-750000Y-3237488D01*
X-750000Y-3562512D01*
X-763954Y-3632664D01*
X-813408Y-3881287D01*
X-864928Y-4005667D01*
X-937788Y-4181567D01*
X-937789Y-4181568D01*
X-1118361Y-4451814D01*
X-1348186Y-4681639D01*
X-1378515Y-4701904D01*
X-1618433Y-4862212D01*
X-1794333Y-4935072D01*
X-1918713Y-4986592D01*
X-2078101Y-5018296D01*
X-2237488Y-5050000D01*
X-2562512Y-5050000D01*
X-2721899Y-5018296D01*
X-2881287Y-4986592D01*
X-3005667Y-4935072D01*
X-3181567Y-4862212D01*
X-3421485Y-4701904D01*
X-3451814Y-4681639D01*
X-3681639Y-4451814D01*
X-3862211Y-4181568D01*
X-3862212Y-4181567D01*
X-3935072Y-4005667D01*
X-3986592Y-3881287D01*
X-4036046Y-3632664D01*
X-4050000Y-3562512D01*
X-4050000Y-3237488D01*
X-3986592Y-2918714D01*
X-3944100Y-2816130D01*
X-3906353Y-2725000D01*
X-3862212Y-2618433D01*
X-3697235Y-2371527D01*
X-3681639Y-2348186D01*
X-3451814Y-2118361D01*
X-3181568Y-1937789D01*
X-3181567Y-1937788D01*
X-3005667Y-1864928D01*
X-2881287Y-1813408D01*
X-2721899Y-1781704D01*
X-2562512Y-1750000D01*
X-2237488Y-1750000D01*
X-2078101Y-1781704D01*
G37*
G36*
X-28500000Y-4500000D02*
G01*
X-29000000Y-5000000D01*
X-32000000Y-5000000D01*
X-32500000Y-4500000D01*
X-32500000Y0D01*
X-28500000Y0D01*
X-28500000Y-4500000D01*
G37*
G36*
X-11361235Y-2168821D02*
G01*
X-11224743Y-2225358D01*
X-11101904Y-2307436D01*
X-10997436Y-2411904D01*
X-10915358Y-2534743D01*
X-10858821Y-2671235D01*
X-10830000Y-2816130D01*
X-10830000Y-2963870D01*
X-10858821Y-3108765D01*
X-10915358Y-3245257D01*
X-10997436Y-3368096D01*
X-11101904Y-3472564D01*
X-11224743Y-3554642D01*
X-11361235Y-3611179D01*
X-11506130Y-3640000D01*
X-11653870Y-3640000D01*
X-11798765Y-3611179D01*
X-11935257Y-3554642D01*
X-12058096Y-3472564D01*
X-12162564Y-3368096D01*
X-12244642Y-3245257D01*
X-12301179Y-3108765D01*
X-12330000Y-2963870D01*
X-12330000Y-2816130D01*
X-12301179Y-2671235D01*
X-12244642Y-2534743D01*
X-12162564Y-2411904D01*
X-12058096Y-2307436D01*
X-11935257Y-2225358D01*
X-11798765Y-2168821D01*
X-11653870Y-2140000D01*
X-11506130Y-2140000D01*
X-11361235Y-2168821D01*
G37*
G36*
X-33809787Y-793734D02*
G01*
X-33715603Y-812468D01*
X-33538164Y-885966D01*
X-33378473Y-992668D01*
X-33242668Y-1128473D01*
X-33135966Y-1288164D01*
X-33062468Y-1465603D01*
X-33062468Y-1465605D01*
X-33035055Y-1603417D01*
X-33025000Y-1653971D01*
X-33025000Y-1846029D01*
X-33062468Y-2034397D01*
X-33135966Y-2211836D01*
X-33242668Y-2371527D01*
X-33378473Y-2507332D01*
X-33538164Y-2614034D01*
X-33538165Y-2614035D01*
X-33538166Y-2614035D01*
X-33548784Y-2618433D01*
X-33715603Y-2687532D01*
X-33809787Y-2706266D01*
X-33903969Y-2725000D01*
X-34096031Y-2725000D01*
X-34190213Y-2706266D01*
X-34284397Y-2687532D01*
X-34451216Y-2618433D01*
X-34461834Y-2614035D01*
X-34461835Y-2614035D01*
X-34461836Y-2614034D01*
X-34621527Y-2507332D01*
X-34757332Y-2371527D01*
X-34864034Y-2211836D01*
X-34937532Y-2034397D01*
X-34975000Y-1846029D01*
X-34975000Y-1653971D01*
X-34964944Y-1603417D01*
X-34937532Y-1465605D01*
X-34937532Y-1465603D01*
X-34864034Y-1288164D01*
X-34757332Y-1128473D01*
X-34621527Y-992668D01*
X-34461836Y-885966D01*
X-34284397Y-812468D01*
X-34190213Y-793734D01*
X-34096031Y-775000D01*
X-33903969Y-775000D01*
X-33809787Y-793734D01*
G37*
G36*
X-40809787Y-793734D02*
G01*
X-40715603Y-812468D01*
X-40538164Y-885966D01*
X-40378473Y-992668D01*
X-40242668Y-1128473D01*
X-40135966Y-1288164D01*
X-40062468Y-1465603D01*
X-40062468Y-1465605D01*
X-40035055Y-1603417D01*
X-40025000Y-1653971D01*
X-40025000Y-1846029D01*
X-40062468Y-2034397D01*
X-40135966Y-2211836D01*
X-40242668Y-2371527D01*
X-40378473Y-2507332D01*
X-40538164Y-2614034D01*
X-40538165Y-2614035D01*
X-40538166Y-2614035D01*
X-40548784Y-2618433D01*
X-40715603Y-2687532D01*
X-40809787Y-2706266D01*
X-40903969Y-2725000D01*
X-41096031Y-2725000D01*
X-41190213Y-2706266D01*
X-41284397Y-2687532D01*
X-41451216Y-2618433D01*
X-41461834Y-2614035D01*
X-41461835Y-2614035D01*
X-41461836Y-2614034D01*
X-41621527Y-2507332D01*
X-41757332Y-2371527D01*
X-41864034Y-2211836D01*
X-41937532Y-2034397D01*
X-41975000Y-1846029D01*
X-41975000Y-1653971D01*
X-41964944Y-1603417D01*
X-41937532Y-1465605D01*
X-41937532Y-1465603D01*
X-41864034Y-1288164D01*
X-41757332Y-1128473D01*
X-41621527Y-992668D01*
X-41461836Y-885966D01*
X-41284397Y-812468D01*
X-41190213Y-793734D01*
X-41096031Y-775000D01*
X-40903969Y-775000D01*
X-40809787Y-793734D01*
G37*
G36*
X-5701313Y-455027D02*
G01*
X-5523726Y-490350D01*
X-5332638Y-569502D01*
X-5160664Y-684411D01*
X-5014411Y-830664D01*
X-4899502Y-1002638D01*
X-4820350Y-1193726D01*
X-4780000Y-1396584D01*
X-4780000Y-1603416D01*
X-4820350Y-1806274D01*
X-4899502Y-1997362D01*
X-5014411Y-2169336D01*
X-5160664Y-2315589D01*
X-5332638Y-2430498D01*
X-5523726Y-2509650D01*
X-5701313Y-2544973D01*
X-5726583Y-2550000D01*
X-5933417Y-2550000D01*
X-5958687Y-2544973D01*
X-6136274Y-2509650D01*
X-6327362Y-2430498D01*
X-6499336Y-2315589D01*
X-6645589Y-2169336D01*
X-6760498Y-1997362D01*
X-6839650Y-1806274D01*
X-6880000Y-1603416D01*
X-6880000Y-1396584D01*
X-6839650Y-1193726D01*
X-6760498Y-1002638D01*
X-6645589Y-830664D01*
X-6499336Y-684411D01*
X-6327362Y-569502D01*
X-6136274Y-490350D01*
X-5958687Y-455027D01*
X-5933417Y-450000D01*
X-5726583Y-450000D01*
X-5701313Y-455027D01*
G37*
M02*
