%TF.GenerationSoftware,KiCad,Pcbnew,(5.1.6-rc1-8-gd871a92d1)-1*%
%TF.CreationDate,2020-05-22T14:05:53+02:00*%
%TF.ProjectId,stmbl_4.0,73746d62-6c5f-4342-9e30-2e6b69636164,rev?*%
%TF.SameCoordinates,PXbcd3d80PY2f71ff0*%
%TF.FileFunction,Soldermask,Bot*%
%TF.FilePolarity,Negative*%
%FSLAX46Y46*%
G04 Gerber Fmt 4.6, Leading zero omitted, Abs format (unit mm)*
G04 Created by KiCad (PCBNEW (5.1.6-rc1-8-gd871a92d1)-1) date 2020-05-22 14:05:53*
%MOMM*%
%LPD*%
G01*
G04 APERTURE LIST*
%ADD10C,0.150000*%
%ADD11C,0.450000*%
%ADD12C,0.100000*%
G04 APERTURE END LIST*
D10*
G36*
X-52000000Y-60500000D02*
G01*
X-29000000Y-60500000D01*
X-29000000Y-62750000D01*
X-53250000Y-62750000D01*
X-61500000Y-54500000D01*
X-58000000Y-54500000D01*
X-52000000Y-60500000D01*
G37*
X-52000000Y-60500000D02*
X-29000000Y-60500000D01*
X-29000000Y-62750000D01*
X-53250000Y-62750000D01*
X-61500000Y-54500000D01*
X-58000000Y-54500000D01*
X-52000000Y-60500000D01*
D11*
X-22750000Y-63000000D02*
X-21250000Y-63000000D01*
D12*
G36*
X-94152066Y-104432664D02*
G01*
X-93997375Y-104496739D01*
X-93997374Y-104496740D01*
X-93858156Y-104589762D01*
X-93739762Y-104708156D01*
X-93739761Y-104708158D01*
X-93646739Y-104847375D01*
X-93582664Y-105002066D01*
X-93550000Y-105166281D01*
X-93550000Y-105333719D01*
X-93582664Y-105497934D01*
X-93646739Y-105652625D01*
X-93646740Y-105652626D01*
X-93739762Y-105791844D01*
X-93858156Y-105910238D01*
X-93928238Y-105957065D01*
X-93997375Y-106003261D01*
X-94152066Y-106067336D01*
X-94316281Y-106100000D01*
X-94483719Y-106100000D01*
X-94647934Y-106067336D01*
X-94802625Y-106003261D01*
X-94871762Y-105957065D01*
X-94941844Y-105910238D01*
X-95060238Y-105791844D01*
X-95153260Y-105652626D01*
X-95153261Y-105652625D01*
X-95217336Y-105497934D01*
X-95250000Y-105333719D01*
X-95250000Y-105166281D01*
X-95217336Y-105002066D01*
X-95153261Y-104847375D01*
X-95060239Y-104708158D01*
X-95060238Y-104708156D01*
X-94941844Y-104589762D01*
X-94802626Y-104496740D01*
X-94802625Y-104496739D01*
X-94647934Y-104432664D01*
X-94483719Y-104400000D01*
X-94316281Y-104400000D01*
X-94152066Y-104432664D01*
G37*
G36*
X-3343701Y-101636465D02*
G01*
X-3343698Y-101636466D01*
X-3343699Y-101636466D01*
X-2934225Y-101806076D01*
X-2565708Y-102052311D01*
X-2252311Y-102365708D01*
X-2006076Y-102734225D01*
X-2006075Y-102734227D01*
X-1836465Y-103143701D01*
X-1750000Y-103578393D01*
X-1750000Y-104021607D01*
X-1836465Y-104456299D01*
X-1836466Y-104456301D01*
X-2006076Y-104865775D01*
X-2252311Y-105234292D01*
X-2565708Y-105547689D01*
X-2934225Y-105793924D01*
X-2934226Y-105793925D01*
X-2934227Y-105793925D01*
X-3343701Y-105963535D01*
X-3778393Y-106050000D01*
X-4221607Y-106050000D01*
X-4656299Y-105963535D01*
X-5065773Y-105793925D01*
X-5065774Y-105793925D01*
X-5065775Y-105793924D01*
X-5434292Y-105547689D01*
X-5747689Y-105234292D01*
X-5993924Y-104865775D01*
X-6163534Y-104456301D01*
X-6163535Y-104456299D01*
X-6250000Y-104021607D01*
X-6250000Y-103578393D01*
X-6163535Y-103143701D01*
X-5993925Y-102734227D01*
X-5993924Y-102734225D01*
X-5747689Y-102365708D01*
X-5434292Y-102052311D01*
X-5065775Y-101806076D01*
X-4656301Y-101636466D01*
X-4656302Y-101636466D01*
X-4656299Y-101636465D01*
X-4221607Y-101550000D01*
X-3778393Y-101550000D01*
X-3343701Y-101636465D01*
G37*
G36*
X-94152066Y-100932664D02*
G01*
X-93997375Y-100996739D01*
X-93997374Y-100996740D01*
X-93858156Y-101089762D01*
X-93739762Y-101208156D01*
X-93739761Y-101208158D01*
X-93646739Y-101347375D01*
X-93582664Y-101502066D01*
X-93550000Y-101666281D01*
X-93550000Y-101833719D01*
X-93582664Y-101997934D01*
X-93646739Y-102152625D01*
X-93646740Y-102152626D01*
X-93739762Y-102291844D01*
X-93858156Y-102410238D01*
X-93928238Y-102457065D01*
X-93997375Y-102503261D01*
X-94152066Y-102567336D01*
X-94316281Y-102600000D01*
X-94483719Y-102600000D01*
X-94647934Y-102567336D01*
X-94802625Y-102503261D01*
X-94871762Y-102457065D01*
X-94941844Y-102410238D01*
X-95060238Y-102291844D01*
X-95153260Y-102152626D01*
X-95153261Y-102152625D01*
X-95217336Y-101997934D01*
X-95250000Y-101833719D01*
X-95250000Y-101666281D01*
X-95217336Y-101502066D01*
X-95153261Y-101347375D01*
X-95060239Y-101208158D01*
X-95060238Y-101208156D01*
X-94941844Y-101089762D01*
X-94802626Y-100996740D01*
X-94802625Y-100996739D01*
X-94647934Y-100932664D01*
X-94483719Y-100900000D01*
X-94316281Y-100900000D01*
X-94152066Y-100932664D01*
G37*
G36*
X-59406167Y-93294109D02*
G01*
X-58723710Y-93576792D01*
X-58723709Y-93576793D01*
X-58109514Y-93987185D01*
X-57587185Y-94509514D01*
X-57587184Y-94509516D01*
X-57176792Y-95123710D01*
X-56894109Y-95806167D01*
X-56750000Y-96530656D01*
X-56750000Y-97269344D01*
X-56894109Y-97993833D01*
X-57176792Y-98676290D01*
X-57176793Y-98676291D01*
X-57587185Y-99290486D01*
X-58109514Y-99812815D01*
X-58418698Y-100019405D01*
X-58723710Y-100223208D01*
X-59406167Y-100505891D01*
X-60130656Y-100650000D01*
X-60869344Y-100650000D01*
X-61593833Y-100505891D01*
X-62276290Y-100223208D01*
X-62581302Y-100019405D01*
X-62890486Y-99812815D01*
X-63412815Y-99290486D01*
X-63823207Y-98676291D01*
X-63823208Y-98676290D01*
X-64105891Y-97993833D01*
X-64250000Y-97269344D01*
X-64250000Y-96530656D01*
X-64105891Y-95806167D01*
X-63823208Y-95123710D01*
X-63412816Y-94509516D01*
X-63412815Y-94509514D01*
X-62890486Y-93987185D01*
X-62276291Y-93576793D01*
X-62276290Y-93576792D01*
X-61593833Y-93294109D01*
X-60869344Y-93150000D01*
X-60130656Y-93150000D01*
X-59406167Y-93294109D01*
G37*
G36*
X-70454247Y-95767140D02*
G01*
X-70444967Y-95768054D01*
X-70294449Y-95813713D01*
X-70248210Y-95838429D01*
X-70155733Y-95887858D01*
X-70034144Y-95987644D01*
X-69934358Y-96109233D01*
X-69884929Y-96201710D01*
X-69860213Y-96247949D01*
X-69814554Y-96398467D01*
X-69799137Y-96555000D01*
X-69814554Y-96711533D01*
X-69860213Y-96862051D01*
X-69860214Y-96862052D01*
X-69934358Y-97000767D01*
X-70034144Y-97122356D01*
X-70155733Y-97222142D01*
X-70244041Y-97269343D01*
X-70294449Y-97296287D01*
X-70444967Y-97341946D01*
X-70562276Y-97353500D01*
X-72037724Y-97353500D01*
X-72155033Y-97341946D01*
X-72305551Y-97296287D01*
X-72355959Y-97269343D01*
X-72444267Y-97222142D01*
X-72565856Y-97122356D01*
X-72665642Y-97000767D01*
X-72739786Y-96862052D01*
X-72739787Y-96862051D01*
X-72785446Y-96711533D01*
X-72800863Y-96555000D01*
X-72785446Y-96398467D01*
X-72739787Y-96247949D01*
X-72715071Y-96201710D01*
X-72665642Y-96109233D01*
X-72565856Y-95987644D01*
X-72444267Y-95887858D01*
X-72351790Y-95838429D01*
X-72305551Y-95813713D01*
X-72155033Y-95768054D01*
X-72145753Y-95767140D01*
X-72037724Y-95756500D01*
X-70562276Y-95756500D01*
X-70454247Y-95767140D01*
G37*
G36*
X-44844967Y-94313054D02*
G01*
X-44694449Y-94358713D01*
X-44648210Y-94383429D01*
X-44555733Y-94432858D01*
X-44434144Y-94532644D01*
X-44334358Y-94654233D01*
X-44284929Y-94746710D01*
X-44260213Y-94792949D01*
X-44214554Y-94943467D01*
X-44199137Y-95100000D01*
X-44214554Y-95256533D01*
X-44260213Y-95407051D01*
X-44260214Y-95407052D01*
X-44334358Y-95545767D01*
X-44434144Y-95667356D01*
X-44555733Y-95767142D01*
X-44642862Y-95813713D01*
X-44694449Y-95841287D01*
X-44844967Y-95886946D01*
X-44962276Y-95898500D01*
X-46437724Y-95898500D01*
X-46555033Y-95886946D01*
X-46705551Y-95841287D01*
X-46757138Y-95813713D01*
X-46844267Y-95767142D01*
X-46965856Y-95667356D01*
X-47065642Y-95545767D01*
X-47139786Y-95407052D01*
X-47139787Y-95407051D01*
X-47185446Y-95256533D01*
X-47200863Y-95100000D01*
X-47185446Y-94943467D01*
X-47139787Y-94792949D01*
X-47115071Y-94746710D01*
X-47065642Y-94654233D01*
X-46965856Y-94532644D01*
X-46844267Y-94432858D01*
X-46751790Y-94383429D01*
X-46705551Y-94358713D01*
X-46555033Y-94313054D01*
X-46437724Y-94301500D01*
X-44962276Y-94301500D01*
X-44844967Y-94313054D01*
G37*
G36*
X-41844967Y-92313054D02*
G01*
X-41694449Y-92358713D01*
X-41648210Y-92383429D01*
X-41555733Y-92432858D01*
X-41434144Y-92532644D01*
X-41334358Y-92654233D01*
X-41284929Y-92746710D01*
X-41260213Y-92792949D01*
X-41214554Y-92943467D01*
X-41199137Y-93100000D01*
X-41214554Y-93256533D01*
X-41260213Y-93407051D01*
X-41260214Y-93407052D01*
X-41334358Y-93545767D01*
X-41434144Y-93667356D01*
X-41555733Y-93767142D01*
X-41648210Y-93816571D01*
X-41694449Y-93841287D01*
X-41844967Y-93886946D01*
X-41962276Y-93898500D01*
X-43437724Y-93898500D01*
X-43555033Y-93886946D01*
X-43705551Y-93841287D01*
X-43751790Y-93816571D01*
X-43844267Y-93767142D01*
X-43965856Y-93667356D01*
X-44065642Y-93545767D01*
X-44139786Y-93407052D01*
X-44139787Y-93407051D01*
X-44185446Y-93256533D01*
X-44200863Y-93100000D01*
X-44185446Y-92943467D01*
X-44139787Y-92792949D01*
X-44115071Y-92746710D01*
X-44065642Y-92654233D01*
X-43965856Y-92532644D01*
X-43844267Y-92432858D01*
X-43751790Y-92383429D01*
X-43705551Y-92358713D01*
X-43555033Y-92313054D01*
X-43437724Y-92301500D01*
X-41962276Y-92301500D01*
X-41844967Y-92313054D01*
G37*
G36*
X-70444967Y-91038054D02*
G01*
X-70294449Y-91083713D01*
X-70248210Y-91108429D01*
X-70155733Y-91157858D01*
X-70034144Y-91257644D01*
X-69934358Y-91379233D01*
X-69884929Y-91471710D01*
X-69860213Y-91517949D01*
X-69814554Y-91668467D01*
X-69799137Y-91825000D01*
X-69814554Y-91981533D01*
X-69860213Y-92132051D01*
X-69860214Y-92132052D01*
X-69934358Y-92270767D01*
X-70034144Y-92392356D01*
X-70155733Y-92492142D01*
X-70231508Y-92532644D01*
X-70294449Y-92566287D01*
X-70444967Y-92611946D01*
X-70562276Y-92623500D01*
X-72037724Y-92623500D01*
X-72155033Y-92611946D01*
X-72305551Y-92566287D01*
X-72368492Y-92532644D01*
X-72444267Y-92492142D01*
X-72565856Y-92392356D01*
X-72665642Y-92270767D01*
X-72739786Y-92132052D01*
X-72739787Y-92132051D01*
X-72785446Y-91981533D01*
X-72800863Y-91825000D01*
X-72785446Y-91668467D01*
X-72739787Y-91517949D01*
X-72715071Y-91471710D01*
X-72665642Y-91379233D01*
X-72565856Y-91257644D01*
X-72444267Y-91157858D01*
X-72351790Y-91108429D01*
X-72305551Y-91083713D01*
X-72155033Y-91038054D01*
X-72037724Y-91026500D01*
X-70562276Y-91026500D01*
X-70444967Y-91038054D01*
G37*
G36*
X-44844967Y-90713054D02*
G01*
X-44694449Y-90758713D01*
X-44648210Y-90783429D01*
X-44555733Y-90832858D01*
X-44434144Y-90932644D01*
X-44334358Y-91054233D01*
X-44284929Y-91146710D01*
X-44260213Y-91192949D01*
X-44214554Y-91343467D01*
X-44199137Y-91500000D01*
X-44214554Y-91656533D01*
X-44260213Y-91807051D01*
X-44260214Y-91807052D01*
X-44334358Y-91945767D01*
X-44434144Y-92067356D01*
X-44555733Y-92167142D01*
X-44648210Y-92216571D01*
X-44694449Y-92241287D01*
X-44844967Y-92286946D01*
X-44962276Y-92298500D01*
X-46437724Y-92298500D01*
X-46555033Y-92286946D01*
X-46705551Y-92241287D01*
X-46751790Y-92216571D01*
X-46844267Y-92167142D01*
X-46965856Y-92067356D01*
X-47065642Y-91945767D01*
X-47139786Y-91807052D01*
X-47139787Y-91807051D01*
X-47185446Y-91656533D01*
X-47200863Y-91500000D01*
X-47185446Y-91343467D01*
X-47139787Y-91192949D01*
X-47115071Y-91146710D01*
X-47065642Y-91054233D01*
X-46965856Y-90932644D01*
X-46844267Y-90832858D01*
X-46751790Y-90783429D01*
X-46705551Y-90758713D01*
X-46555033Y-90713054D01*
X-46437724Y-90701500D01*
X-44962276Y-90701500D01*
X-44844967Y-90713054D01*
G37*
G36*
X-41844967Y-89113054D02*
G01*
X-41694449Y-89158713D01*
X-41648210Y-89183429D01*
X-41555733Y-89232858D01*
X-41434144Y-89332644D01*
X-41334358Y-89454233D01*
X-41284929Y-89546710D01*
X-41260213Y-89592949D01*
X-41214554Y-89743467D01*
X-41199137Y-89900000D01*
X-41214554Y-90056533D01*
X-41260213Y-90207051D01*
X-41260214Y-90207052D01*
X-41334358Y-90345767D01*
X-41434144Y-90467356D01*
X-41555733Y-90567142D01*
X-41648210Y-90616571D01*
X-41694449Y-90641287D01*
X-41844967Y-90686946D01*
X-41962276Y-90698500D01*
X-43437724Y-90698500D01*
X-43555033Y-90686946D01*
X-43705551Y-90641287D01*
X-43751790Y-90616571D01*
X-43844267Y-90567142D01*
X-43965856Y-90467356D01*
X-44065642Y-90345767D01*
X-44139786Y-90207052D01*
X-44139787Y-90207051D01*
X-44185446Y-90056533D01*
X-44200863Y-89900000D01*
X-44185446Y-89743467D01*
X-44139787Y-89592949D01*
X-44115071Y-89546710D01*
X-44065642Y-89454233D01*
X-43965856Y-89332644D01*
X-43844267Y-89232858D01*
X-43751790Y-89183429D01*
X-43705551Y-89158713D01*
X-43555033Y-89113054D01*
X-43437724Y-89101500D01*
X-41962276Y-89101500D01*
X-41844967Y-89113054D01*
G37*
G36*
X-83966220Y-87039025D02*
G01*
X-83798782Y-87072330D01*
X-83562197Y-87170327D01*
X-83349276Y-87312596D01*
X-83168202Y-87493670D01*
X-83025933Y-87706591D01*
X-82927936Y-87943176D01*
X-82877978Y-88194333D01*
X-82877978Y-88450411D01*
X-82927936Y-88701568D01*
X-83025933Y-88938153D01*
X-83168202Y-89151074D01*
X-83349276Y-89332148D01*
X-83562197Y-89474417D01*
X-83798782Y-89572414D01*
X-83966220Y-89605719D01*
X-84049938Y-89622372D01*
X-84306018Y-89622372D01*
X-84389736Y-89605719D01*
X-84557174Y-89572414D01*
X-84793759Y-89474417D01*
X-85006680Y-89332148D01*
X-85187754Y-89151074D01*
X-85330023Y-88938153D01*
X-85428020Y-88701568D01*
X-85477978Y-88450411D01*
X-85477978Y-88194333D01*
X-85428020Y-87943176D01*
X-85330023Y-87706591D01*
X-85187754Y-87493670D01*
X-85006680Y-87312596D01*
X-84793759Y-87170327D01*
X-84557174Y-87072330D01*
X-84389736Y-87039025D01*
X-84306018Y-87022372D01*
X-84049938Y-87022372D01*
X-83966220Y-87039025D01*
G37*
G36*
X-44844967Y-87513054D02*
G01*
X-44694449Y-87558713D01*
X-44648210Y-87583429D01*
X-44555733Y-87632858D01*
X-44434144Y-87732644D01*
X-44334358Y-87854233D01*
X-44313370Y-87893500D01*
X-44260213Y-87992949D01*
X-44214554Y-88143467D01*
X-44199137Y-88300000D01*
X-44214554Y-88456533D01*
X-44260213Y-88607051D01*
X-44260214Y-88607052D01*
X-44334358Y-88745767D01*
X-44434144Y-88867356D01*
X-44555733Y-88967142D01*
X-44648210Y-89016571D01*
X-44694449Y-89041287D01*
X-44844967Y-89086946D01*
X-44962276Y-89098500D01*
X-46437724Y-89098500D01*
X-46555033Y-89086946D01*
X-46705551Y-89041287D01*
X-46751790Y-89016571D01*
X-46844267Y-88967142D01*
X-46965856Y-88867356D01*
X-47065642Y-88745767D01*
X-47139786Y-88607052D01*
X-47139787Y-88607051D01*
X-47185446Y-88456533D01*
X-47200863Y-88300000D01*
X-47185446Y-88143467D01*
X-47139787Y-87992949D01*
X-47086630Y-87893500D01*
X-47065642Y-87854233D01*
X-46965856Y-87732644D01*
X-46844267Y-87632858D01*
X-46751790Y-87583429D01*
X-46705551Y-87558713D01*
X-46555033Y-87513054D01*
X-46437724Y-87501500D01*
X-44962276Y-87501500D01*
X-44844967Y-87513054D01*
G37*
G36*
X-70444967Y-86308054D02*
G01*
X-70294449Y-86353713D01*
X-70248210Y-86378429D01*
X-70155733Y-86427858D01*
X-70034144Y-86527644D01*
X-69934358Y-86649233D01*
X-69907223Y-86700000D01*
X-69860213Y-86787949D01*
X-69814554Y-86938467D01*
X-69799137Y-87095000D01*
X-69814554Y-87251533D01*
X-69860213Y-87402051D01*
X-69860214Y-87402052D01*
X-69934358Y-87540767D01*
X-70034144Y-87662356D01*
X-70155733Y-87762142D01*
X-70248210Y-87811571D01*
X-70294449Y-87836287D01*
X-70444967Y-87881946D01*
X-70562276Y-87893500D01*
X-72037724Y-87893500D01*
X-72155033Y-87881946D01*
X-72305551Y-87836287D01*
X-72351790Y-87811571D01*
X-72444267Y-87762142D01*
X-72565856Y-87662356D01*
X-72665642Y-87540767D01*
X-72739786Y-87402052D01*
X-72739787Y-87402051D01*
X-72785446Y-87251533D01*
X-72800863Y-87095000D01*
X-72785446Y-86938467D01*
X-72739787Y-86787949D01*
X-72692777Y-86700000D01*
X-72665642Y-86649233D01*
X-72565856Y-86527644D01*
X-72444267Y-86427858D01*
X-72351790Y-86378429D01*
X-72305551Y-86353713D01*
X-72155033Y-86308054D01*
X-72037724Y-86296500D01*
X-70562276Y-86296500D01*
X-70444967Y-86308054D01*
G37*
G36*
X-41844967Y-85913054D02*
G01*
X-41694449Y-85958713D01*
X-41648210Y-85983429D01*
X-41555733Y-86032858D01*
X-41434144Y-86132644D01*
X-41334358Y-86254233D01*
X-41284929Y-86346710D01*
X-41260213Y-86392949D01*
X-41214554Y-86543467D01*
X-41199137Y-86700000D01*
X-41214554Y-86856533D01*
X-41260213Y-87007051D01*
X-41284929Y-87053290D01*
X-41334358Y-87145767D01*
X-41434144Y-87267356D01*
X-41555733Y-87367142D01*
X-41621044Y-87402051D01*
X-41694449Y-87441287D01*
X-41844967Y-87486946D01*
X-41962276Y-87498500D01*
X-43437724Y-87498500D01*
X-43555033Y-87486946D01*
X-43705551Y-87441287D01*
X-43778956Y-87402051D01*
X-43844267Y-87367142D01*
X-43965856Y-87267356D01*
X-44065642Y-87145767D01*
X-44115071Y-87053290D01*
X-44139787Y-87007051D01*
X-44185446Y-86856533D01*
X-44200863Y-86700000D01*
X-44185446Y-86543467D01*
X-44139787Y-86392949D01*
X-44115071Y-86346710D01*
X-44065642Y-86254233D01*
X-43965856Y-86132644D01*
X-43844267Y-86032858D01*
X-43751790Y-85983429D01*
X-43705551Y-85958713D01*
X-43555033Y-85913054D01*
X-43437724Y-85901500D01*
X-41962276Y-85901500D01*
X-41844967Y-85913054D01*
G37*
G36*
X-55814941Y-83372417D02*
G01*
X-55589544Y-83417251D01*
X-55271064Y-83549170D01*
X-54984440Y-83740686D01*
X-54740686Y-83984440D01*
X-54549170Y-84271064D01*
X-54417251Y-84589544D01*
X-54350000Y-84927640D01*
X-54350000Y-85272360D01*
X-54417251Y-85610456D01*
X-54549170Y-85928936D01*
X-54740686Y-86215560D01*
X-54984440Y-86459314D01*
X-55271064Y-86650830D01*
X-55589544Y-86782749D01*
X-55814941Y-86827583D01*
X-55927639Y-86850000D01*
X-56272361Y-86850000D01*
X-56385059Y-86827583D01*
X-56610456Y-86782749D01*
X-56928936Y-86650830D01*
X-57215560Y-86459314D01*
X-57459314Y-86215560D01*
X-57650830Y-85928936D01*
X-57782749Y-85610456D01*
X-57850000Y-85272360D01*
X-57850000Y-84927640D01*
X-57782749Y-84589544D01*
X-57650830Y-84271064D01*
X-57459314Y-83984440D01*
X-57215560Y-83740686D01*
X-56928936Y-83549170D01*
X-56610456Y-83417251D01*
X-56385059Y-83372417D01*
X-56272361Y-83350000D01*
X-55927639Y-83350000D01*
X-55814941Y-83372417D01*
G37*
G36*
X-44844967Y-84313054D02*
G01*
X-44694449Y-84358713D01*
X-44648210Y-84383429D01*
X-44555733Y-84432858D01*
X-44434144Y-84532644D01*
X-44334358Y-84654233D01*
X-44284929Y-84746710D01*
X-44260213Y-84792949D01*
X-44214554Y-84943467D01*
X-44199137Y-85100000D01*
X-44214554Y-85256533D01*
X-44260213Y-85407051D01*
X-44260214Y-85407052D01*
X-44334358Y-85545767D01*
X-44434144Y-85667356D01*
X-44555733Y-85767142D01*
X-44648210Y-85816571D01*
X-44694449Y-85841287D01*
X-44844967Y-85886946D01*
X-44962276Y-85898500D01*
X-46437724Y-85898500D01*
X-46555033Y-85886946D01*
X-46705551Y-85841287D01*
X-46751790Y-85816571D01*
X-46844267Y-85767142D01*
X-46965856Y-85667356D01*
X-47065642Y-85545767D01*
X-47139786Y-85407052D01*
X-47139787Y-85407051D01*
X-47185446Y-85256533D01*
X-47200863Y-85100000D01*
X-47185446Y-84943467D01*
X-47139787Y-84792949D01*
X-47115071Y-84746710D01*
X-47065642Y-84654233D01*
X-46965856Y-84532644D01*
X-46844267Y-84432858D01*
X-46751790Y-84383429D01*
X-46705551Y-84358713D01*
X-46555033Y-84313054D01*
X-46437724Y-84301500D01*
X-44962276Y-84301500D01*
X-44844967Y-84313054D01*
G37*
G36*
X-41844967Y-82713054D02*
G01*
X-41694449Y-82758713D01*
X-41648210Y-82783429D01*
X-41555733Y-82832858D01*
X-41434144Y-82932644D01*
X-41334358Y-83054233D01*
X-41306535Y-83106287D01*
X-41260213Y-83192949D01*
X-41214554Y-83343467D01*
X-41199137Y-83500000D01*
X-41214554Y-83656533D01*
X-41260213Y-83807051D01*
X-41260214Y-83807052D01*
X-41334358Y-83945767D01*
X-41434144Y-84067356D01*
X-41555733Y-84167142D01*
X-41648210Y-84216571D01*
X-41694449Y-84241287D01*
X-41844967Y-84286946D01*
X-41962276Y-84298500D01*
X-43437724Y-84298500D01*
X-43555033Y-84286946D01*
X-43705551Y-84241287D01*
X-43751790Y-84216571D01*
X-43844267Y-84167142D01*
X-43965856Y-84067356D01*
X-44065642Y-83945767D01*
X-44139786Y-83807052D01*
X-44139787Y-83807051D01*
X-44185446Y-83656533D01*
X-44200863Y-83500000D01*
X-44185446Y-83343467D01*
X-44139787Y-83192949D01*
X-44093465Y-83106287D01*
X-44065642Y-83054233D01*
X-43965856Y-82932644D01*
X-43844267Y-82832858D01*
X-43751790Y-82783429D01*
X-43705551Y-82758713D01*
X-43555033Y-82713054D01*
X-43437724Y-82701500D01*
X-41962276Y-82701500D01*
X-41844967Y-82713054D01*
G37*
G36*
X-92052229Y-81460611D02*
G01*
X-91998362Y-81465916D01*
X-91929245Y-81486883D01*
X-91791010Y-81528816D01*
X-91599919Y-81630956D01*
X-91599918Y-81630957D01*
X-91599916Y-81630958D01*
X-91432419Y-81768419D01*
X-91294958Y-81935916D01*
X-91294956Y-81935919D01*
X-91192816Y-82127010D01*
X-91168106Y-82208467D01*
X-91129916Y-82334362D01*
X-91116818Y-82467356D01*
X-91108678Y-82550000D01*
X-91129916Y-82765637D01*
X-91192816Y-82972990D01*
X-91294956Y-83164081D01*
X-91294958Y-83164084D01*
X-91432419Y-83331581D01*
X-91599916Y-83469042D01*
X-91599918Y-83469043D01*
X-91599919Y-83469044D01*
X-91791010Y-83571184D01*
X-91929245Y-83613117D01*
X-91998362Y-83634084D01*
X-92052229Y-83639389D01*
X-92159962Y-83650000D01*
X-93768038Y-83650000D01*
X-93875771Y-83639389D01*
X-93929638Y-83634084D01*
X-93998755Y-83613117D01*
X-94136990Y-83571184D01*
X-94328081Y-83469044D01*
X-94328082Y-83469043D01*
X-94328084Y-83469042D01*
X-94495581Y-83331581D01*
X-94633042Y-83164084D01*
X-94633044Y-83164081D01*
X-94735184Y-82972990D01*
X-94798084Y-82765637D01*
X-94819322Y-82550000D01*
X-94811182Y-82467356D01*
X-94798084Y-82334362D01*
X-94759894Y-82208467D01*
X-94735184Y-82127010D01*
X-94633044Y-81935919D01*
X-94633042Y-81935916D01*
X-94495581Y-81768419D01*
X-94328084Y-81630958D01*
X-94328082Y-81630957D01*
X-94328081Y-81630956D01*
X-94136990Y-81528816D01*
X-93998755Y-81486883D01*
X-93929638Y-81465916D01*
X-93875771Y-81460611D01*
X-93768038Y-81450000D01*
X-92159962Y-81450000D01*
X-92052229Y-81460611D01*
G37*
G36*
X-70444967Y-81578054D02*
G01*
X-70294449Y-81623713D01*
X-70280895Y-81630958D01*
X-70155733Y-81697858D01*
X-70034144Y-81797644D01*
X-69934358Y-81919233D01*
X-69884929Y-82011710D01*
X-69860213Y-82057949D01*
X-69814554Y-82208467D01*
X-69799137Y-82365000D01*
X-69814554Y-82521533D01*
X-69860213Y-82672051D01*
X-69875954Y-82701500D01*
X-69934358Y-82810767D01*
X-70034144Y-82932356D01*
X-70155733Y-83032142D01*
X-70248210Y-83081571D01*
X-70294449Y-83106287D01*
X-70444967Y-83151946D01*
X-70562276Y-83163500D01*
X-72037724Y-83163500D01*
X-72155033Y-83151946D01*
X-72305551Y-83106287D01*
X-72351790Y-83081571D01*
X-72444267Y-83032142D01*
X-72565856Y-82932356D01*
X-72665642Y-82810767D01*
X-72724046Y-82701500D01*
X-72739787Y-82672051D01*
X-72785446Y-82521533D01*
X-72800863Y-82365000D01*
X-72785446Y-82208467D01*
X-72739787Y-82057949D01*
X-72715071Y-82011710D01*
X-72665642Y-81919233D01*
X-72565856Y-81797644D01*
X-72444267Y-81697858D01*
X-72319105Y-81630958D01*
X-72305551Y-81623713D01*
X-72155033Y-81578054D01*
X-72037724Y-81566500D01*
X-70562276Y-81566500D01*
X-70444967Y-81578054D01*
G37*
G36*
X-44844967Y-81113054D02*
G01*
X-44694449Y-81158713D01*
X-44648210Y-81183429D01*
X-44555733Y-81232858D01*
X-44434144Y-81332644D01*
X-44334358Y-81454233D01*
X-44294493Y-81528816D01*
X-44260213Y-81592949D01*
X-44214554Y-81743467D01*
X-44199137Y-81900000D01*
X-44214554Y-82056533D01*
X-44260213Y-82207051D01*
X-44260214Y-82207052D01*
X-44334358Y-82345767D01*
X-44434144Y-82467356D01*
X-44555733Y-82567142D01*
X-44648210Y-82616571D01*
X-44694449Y-82641287D01*
X-44844967Y-82686946D01*
X-44962276Y-82698500D01*
X-46437724Y-82698500D01*
X-46555033Y-82686946D01*
X-46705551Y-82641287D01*
X-46751790Y-82616571D01*
X-46844267Y-82567142D01*
X-46965856Y-82467356D01*
X-47065642Y-82345767D01*
X-47139786Y-82207052D01*
X-47139787Y-82207051D01*
X-47185446Y-82056533D01*
X-47200863Y-81900000D01*
X-47185446Y-81743467D01*
X-47139787Y-81592949D01*
X-47105507Y-81528816D01*
X-47065642Y-81454233D01*
X-46965856Y-81332644D01*
X-46844267Y-81232858D01*
X-46751790Y-81183429D01*
X-46705551Y-81158713D01*
X-46555033Y-81113054D01*
X-46437724Y-81101500D01*
X-44962276Y-81101500D01*
X-44844967Y-81113054D01*
G37*
G36*
X-41844967Y-79513054D02*
G01*
X-41694449Y-79558713D01*
X-41648210Y-79583429D01*
X-41555733Y-79632858D01*
X-41434144Y-79732644D01*
X-41334358Y-79854233D01*
X-41284929Y-79946710D01*
X-41260213Y-79992949D01*
X-41214554Y-80143467D01*
X-41199137Y-80300000D01*
X-41214554Y-80456533D01*
X-41260213Y-80607051D01*
X-41260214Y-80607052D01*
X-41334358Y-80745767D01*
X-41434144Y-80867356D01*
X-41555733Y-80967142D01*
X-41648210Y-81016571D01*
X-41694449Y-81041287D01*
X-41844967Y-81086946D01*
X-41962276Y-81098500D01*
X-43437724Y-81098500D01*
X-43555033Y-81086946D01*
X-43705551Y-81041287D01*
X-43751790Y-81016571D01*
X-43844267Y-80967142D01*
X-43965856Y-80867356D01*
X-44065642Y-80745767D01*
X-44139786Y-80607052D01*
X-44139787Y-80607051D01*
X-44185446Y-80456533D01*
X-44200863Y-80300000D01*
X-44185446Y-80143467D01*
X-44139787Y-79992949D01*
X-44115071Y-79946710D01*
X-44065642Y-79854233D01*
X-43965856Y-79732644D01*
X-43844267Y-79632858D01*
X-43751790Y-79583429D01*
X-43705551Y-79558713D01*
X-43555033Y-79513054D01*
X-43437724Y-79501500D01*
X-41962276Y-79501500D01*
X-41844967Y-79513054D01*
G37*
G36*
X-23574988Y-78173057D02*
G01*
X-23574985Y-78173058D01*
X-23574986Y-78173058D01*
X-23465793Y-78218287D01*
X-23367522Y-78283950D01*
X-23283950Y-78367522D01*
X-23247585Y-78421946D01*
X-23218286Y-78465795D01*
X-23173057Y-78574988D01*
X-23150000Y-78690904D01*
X-23150000Y-78809096D01*
X-23173057Y-78925012D01*
X-23173058Y-78925014D01*
X-23218287Y-79034207D01*
X-23283950Y-79132478D01*
X-23367522Y-79216050D01*
X-23465793Y-79281713D01*
X-23465794Y-79281714D01*
X-23465795Y-79281714D01*
X-23574988Y-79326943D01*
X-23690904Y-79350000D01*
X-23809096Y-79350000D01*
X-23925012Y-79326943D01*
X-24034205Y-79281714D01*
X-24034206Y-79281714D01*
X-24034207Y-79281713D01*
X-24132478Y-79216050D01*
X-24216050Y-79132478D01*
X-24281713Y-79034207D01*
X-24326942Y-78925014D01*
X-24326943Y-78925012D01*
X-24350000Y-78809096D01*
X-24350000Y-78690904D01*
X-24326943Y-78574988D01*
X-24281714Y-78465795D01*
X-24252415Y-78421946D01*
X-24216050Y-78367522D01*
X-24132478Y-78283950D01*
X-24034207Y-78218287D01*
X-23925014Y-78173058D01*
X-23925015Y-78173058D01*
X-23925012Y-78173057D01*
X-23809096Y-78150000D01*
X-23690904Y-78150000D01*
X-23574988Y-78173057D01*
G37*
G36*
X-92052229Y-76380611D02*
G01*
X-91998362Y-76385916D01*
X-91929245Y-76406883D01*
X-91791010Y-76448816D01*
X-91599919Y-76550956D01*
X-91599918Y-76550957D01*
X-91599916Y-76550958D01*
X-91432419Y-76688419D01*
X-91294958Y-76855916D01*
X-91294956Y-76855919D01*
X-91192816Y-77047010D01*
X-91171426Y-77117524D01*
X-91129916Y-77254362D01*
X-91108678Y-77470000D01*
X-91128869Y-77675012D01*
X-91129916Y-77685637D01*
X-91192816Y-77892990D01*
X-91291141Y-78076943D01*
X-91294958Y-78084084D01*
X-91432419Y-78251581D01*
X-91599916Y-78389042D01*
X-91599918Y-78389043D01*
X-91599919Y-78389044D01*
X-91791010Y-78491184D01*
X-91929245Y-78533117D01*
X-91998362Y-78554084D01*
X-92052229Y-78559389D01*
X-92159962Y-78570000D01*
X-93768038Y-78570000D01*
X-93875771Y-78559389D01*
X-93929638Y-78554084D01*
X-93998755Y-78533117D01*
X-94136990Y-78491184D01*
X-94328081Y-78389044D01*
X-94328082Y-78389043D01*
X-94328084Y-78389042D01*
X-94495581Y-78251581D01*
X-94633042Y-78084084D01*
X-94636859Y-78076943D01*
X-94735184Y-77892990D01*
X-94798084Y-77685637D01*
X-94799130Y-77675012D01*
X-94819322Y-77470000D01*
X-94798084Y-77254362D01*
X-94756574Y-77117524D01*
X-94735184Y-77047010D01*
X-94633044Y-76855919D01*
X-94633042Y-76855916D01*
X-94495581Y-76688419D01*
X-94328084Y-76550958D01*
X-94328082Y-76550957D01*
X-94328081Y-76550956D01*
X-94136990Y-76448816D01*
X-93998755Y-76406883D01*
X-93929638Y-76385916D01*
X-93875771Y-76380611D01*
X-93768038Y-76370000D01*
X-92159962Y-76370000D01*
X-92052229Y-76380611D01*
G37*
G36*
X-70444967Y-76848054D02*
G01*
X-70294449Y-76893713D01*
X-70248210Y-76918429D01*
X-70155733Y-76967858D01*
X-70034144Y-77067644D01*
X-69934358Y-77189233D01*
X-69899546Y-77254362D01*
X-69860213Y-77327949D01*
X-69814554Y-77478467D01*
X-69799137Y-77635000D01*
X-69814554Y-77791533D01*
X-69860213Y-77942051D01*
X-69884929Y-77988290D01*
X-69934358Y-78080767D01*
X-70034144Y-78202356D01*
X-70155733Y-78302142D01*
X-70248210Y-78351571D01*
X-70294449Y-78376287D01*
X-70444967Y-78421946D01*
X-70562276Y-78433500D01*
X-72037724Y-78433500D01*
X-72155033Y-78421946D01*
X-72305551Y-78376287D01*
X-72351790Y-78351571D01*
X-72444267Y-78302142D01*
X-72565856Y-78202356D01*
X-72665642Y-78080767D01*
X-72715071Y-77988290D01*
X-72739787Y-77942051D01*
X-72785446Y-77791533D01*
X-72800863Y-77635000D01*
X-72785446Y-77478467D01*
X-72739787Y-77327949D01*
X-72700454Y-77254362D01*
X-72665642Y-77189233D01*
X-72565856Y-77067644D01*
X-72444267Y-76967858D01*
X-72351790Y-76918429D01*
X-72305551Y-76893713D01*
X-72155033Y-76848054D01*
X-72037724Y-76836500D01*
X-70562276Y-76836500D01*
X-70444967Y-76848054D01*
G37*
G36*
X-21324988Y-76923057D02*
G01*
X-21215795Y-76968286D01*
X-21215793Y-76968287D01*
X-21117522Y-77033950D01*
X-21033950Y-77117522D01*
X-20974128Y-77207052D01*
X-20968286Y-77215795D01*
X-20923057Y-77324988D01*
X-20900000Y-77440904D01*
X-20900000Y-77559096D01*
X-20923057Y-77675012D01*
X-20928000Y-77686946D01*
X-20968287Y-77784207D01*
X-21033950Y-77882478D01*
X-21117522Y-77966050D01*
X-21215793Y-78031713D01*
X-21215794Y-78031714D01*
X-21215795Y-78031714D01*
X-21324988Y-78076943D01*
X-21440904Y-78100000D01*
X-21559096Y-78100000D01*
X-21675012Y-78076943D01*
X-21784205Y-78031714D01*
X-21784206Y-78031714D01*
X-21784207Y-78031713D01*
X-21882478Y-77966050D01*
X-21966050Y-77882478D01*
X-22031713Y-77784207D01*
X-22072000Y-77686946D01*
X-22076943Y-77675012D01*
X-22100000Y-77559096D01*
X-22100000Y-77440904D01*
X-22076943Y-77324988D01*
X-22031714Y-77215795D01*
X-22025872Y-77207052D01*
X-21966050Y-77117522D01*
X-21882478Y-77033950D01*
X-21784207Y-76968287D01*
X-21784205Y-76968286D01*
X-21675012Y-76923057D01*
X-21559096Y-76900000D01*
X-21440904Y-76900000D01*
X-21324988Y-76923057D01*
G37*
G36*
X-19824988Y-76923057D02*
G01*
X-19715795Y-76968286D01*
X-19715793Y-76968287D01*
X-19617522Y-77033950D01*
X-19533950Y-77117522D01*
X-19474128Y-77207052D01*
X-19468286Y-77215795D01*
X-19423057Y-77324988D01*
X-19400000Y-77440904D01*
X-19400000Y-77559096D01*
X-19423057Y-77675012D01*
X-19428000Y-77686946D01*
X-19468287Y-77784207D01*
X-19533950Y-77882478D01*
X-19617522Y-77966050D01*
X-19715793Y-78031713D01*
X-19715794Y-78031714D01*
X-19715795Y-78031714D01*
X-19824988Y-78076943D01*
X-19940904Y-78100000D01*
X-20059096Y-78100000D01*
X-20175012Y-78076943D01*
X-20284205Y-78031714D01*
X-20284206Y-78031714D01*
X-20284207Y-78031713D01*
X-20382478Y-77966050D01*
X-20466050Y-77882478D01*
X-20531713Y-77784207D01*
X-20572000Y-77686946D01*
X-20576943Y-77675012D01*
X-20600000Y-77559096D01*
X-20600000Y-77440904D01*
X-20576943Y-77324988D01*
X-20531714Y-77215795D01*
X-20525872Y-77207052D01*
X-20466050Y-77117522D01*
X-20382478Y-77033950D01*
X-20284207Y-76968287D01*
X-20284205Y-76968286D01*
X-20175012Y-76923057D01*
X-20059096Y-76900000D01*
X-19940904Y-76900000D01*
X-19824988Y-76923057D01*
G37*
G36*
X-24324988Y-76923057D02*
G01*
X-24215795Y-76968286D01*
X-24215793Y-76968287D01*
X-24117522Y-77033950D01*
X-24033950Y-77117522D01*
X-23974128Y-77207052D01*
X-23968286Y-77215795D01*
X-23923057Y-77324988D01*
X-23900000Y-77440904D01*
X-23900000Y-77559096D01*
X-23923057Y-77675012D01*
X-23928000Y-77686946D01*
X-23968287Y-77784207D01*
X-24033950Y-77882478D01*
X-24117522Y-77966050D01*
X-24215793Y-78031713D01*
X-24215794Y-78031714D01*
X-24215795Y-78031714D01*
X-24324988Y-78076943D01*
X-24440904Y-78100000D01*
X-24559096Y-78100000D01*
X-24675012Y-78076943D01*
X-24784205Y-78031714D01*
X-24784206Y-78031714D01*
X-24784207Y-78031713D01*
X-24882478Y-77966050D01*
X-24966050Y-77882478D01*
X-25031713Y-77784207D01*
X-25072000Y-77686946D01*
X-25076943Y-77675012D01*
X-25100000Y-77559096D01*
X-25100000Y-77440904D01*
X-25076943Y-77324988D01*
X-25031714Y-77215795D01*
X-25025872Y-77207052D01*
X-24966050Y-77117522D01*
X-24882478Y-77033950D01*
X-24784207Y-76968287D01*
X-24784205Y-76968286D01*
X-24675012Y-76923057D01*
X-24559096Y-76900000D01*
X-24440904Y-76900000D01*
X-24324988Y-76923057D01*
G37*
G36*
X-22824988Y-76923057D02*
G01*
X-22715795Y-76968286D01*
X-22715793Y-76968287D01*
X-22617522Y-77033950D01*
X-22533950Y-77117522D01*
X-22474128Y-77207052D01*
X-22468286Y-77215795D01*
X-22423057Y-77324988D01*
X-22400000Y-77440904D01*
X-22400000Y-77559096D01*
X-22423057Y-77675012D01*
X-22428000Y-77686946D01*
X-22468287Y-77784207D01*
X-22533950Y-77882478D01*
X-22617522Y-77966050D01*
X-22715793Y-78031713D01*
X-22715794Y-78031714D01*
X-22715795Y-78031714D01*
X-22824988Y-78076943D01*
X-22940904Y-78100000D01*
X-23059096Y-78100000D01*
X-23175012Y-78076943D01*
X-23284205Y-78031714D01*
X-23284206Y-78031714D01*
X-23284207Y-78031713D01*
X-23382478Y-77966050D01*
X-23466050Y-77882478D01*
X-23531713Y-77784207D01*
X-23572000Y-77686946D01*
X-23576943Y-77675012D01*
X-23600000Y-77559096D01*
X-23600000Y-77440904D01*
X-23576943Y-77324988D01*
X-23531714Y-77215795D01*
X-23525872Y-77207052D01*
X-23466050Y-77117522D01*
X-23382478Y-77033950D01*
X-23284207Y-76968287D01*
X-23284205Y-76968286D01*
X-23175012Y-76923057D01*
X-23059096Y-76900000D01*
X-22940904Y-76900000D01*
X-22824988Y-76923057D01*
G37*
G36*
X-44844967Y-76113054D02*
G01*
X-44694449Y-76158713D01*
X-44681230Y-76165779D01*
X-44555733Y-76232858D01*
X-44434144Y-76332644D01*
X-44334358Y-76454233D01*
X-44284929Y-76546710D01*
X-44260213Y-76592949D01*
X-44226970Y-76702536D01*
X-44214554Y-76743467D01*
X-44203478Y-76855919D01*
X-44199137Y-76900000D01*
X-44214554Y-77056533D01*
X-44260213Y-77207051D01*
X-44260214Y-77207052D01*
X-44334358Y-77345767D01*
X-44434144Y-77467356D01*
X-44555733Y-77567142D01*
X-44648210Y-77616571D01*
X-44694449Y-77641287D01*
X-44840652Y-77685637D01*
X-44844967Y-77686946D01*
X-44962276Y-77698500D01*
X-46437724Y-77698500D01*
X-46555033Y-77686946D01*
X-46559348Y-77685637D01*
X-46705551Y-77641287D01*
X-46751790Y-77616571D01*
X-46844267Y-77567142D01*
X-46965856Y-77467356D01*
X-47065642Y-77345767D01*
X-47139786Y-77207052D01*
X-47139787Y-77207051D01*
X-47185446Y-77056533D01*
X-47200863Y-76900000D01*
X-47196521Y-76855919D01*
X-47185446Y-76743467D01*
X-47173030Y-76702536D01*
X-47139787Y-76592949D01*
X-47115071Y-76546710D01*
X-47065642Y-76454233D01*
X-46965856Y-76332644D01*
X-46844267Y-76232858D01*
X-46718770Y-76165779D01*
X-46705551Y-76158713D01*
X-46555033Y-76113054D01*
X-46437724Y-76101500D01*
X-44962276Y-76101500D01*
X-44844967Y-76113054D01*
G37*
G36*
X-55034221Y-73366569D02*
G01*
X-54874810Y-73414926D01*
X-54727902Y-73493450D01*
X-54599131Y-73599131D01*
X-54493450Y-73727902D01*
X-54414926Y-73874810D01*
X-54366569Y-74034221D01*
X-54350000Y-74202454D01*
X-54350000Y-75997546D01*
X-54366569Y-76165779D01*
X-54414926Y-76325190D01*
X-54493450Y-76472098D01*
X-54599131Y-76600869D01*
X-54727902Y-76706550D01*
X-54874810Y-76785074D01*
X-55034221Y-76833431D01*
X-55202454Y-76850000D01*
X-56997546Y-76850000D01*
X-57165779Y-76833431D01*
X-57325190Y-76785074D01*
X-57472098Y-76706550D01*
X-57600869Y-76600869D01*
X-57706550Y-76472098D01*
X-57785074Y-76325190D01*
X-57833431Y-76165779D01*
X-57850000Y-75997546D01*
X-57850000Y-74202454D01*
X-57833431Y-74034221D01*
X-57785074Y-73874810D01*
X-57706550Y-73727902D01*
X-57600869Y-73599131D01*
X-57472098Y-73493450D01*
X-57325190Y-73414926D01*
X-57165779Y-73366569D01*
X-56997546Y-73350000D01*
X-55202454Y-73350000D01*
X-55034221Y-73366569D01*
G37*
G36*
X-41844967Y-74513054D02*
G01*
X-41694449Y-74558713D01*
X-41648210Y-74583429D01*
X-41555733Y-74632858D01*
X-41434144Y-74732644D01*
X-41334358Y-74854233D01*
X-41284929Y-74946710D01*
X-41260213Y-74992949D01*
X-41214554Y-75143467D01*
X-41199137Y-75300000D01*
X-41214554Y-75456533D01*
X-41260213Y-75607051D01*
X-41260214Y-75607052D01*
X-41334358Y-75745767D01*
X-41434144Y-75867356D01*
X-41555733Y-75967142D01*
X-41648210Y-76016571D01*
X-41694449Y-76041287D01*
X-41844967Y-76086946D01*
X-41962276Y-76098500D01*
X-43437724Y-76098500D01*
X-43555033Y-76086946D01*
X-43705551Y-76041287D01*
X-43751790Y-76016571D01*
X-43844267Y-75967142D01*
X-43965856Y-75867356D01*
X-44065642Y-75745767D01*
X-44139786Y-75607052D01*
X-44139787Y-75607051D01*
X-44185446Y-75456533D01*
X-44200863Y-75300000D01*
X-44185446Y-75143467D01*
X-44139787Y-74992949D01*
X-44115071Y-74946710D01*
X-44065642Y-74854233D01*
X-43965856Y-74732644D01*
X-43844267Y-74632858D01*
X-43751790Y-74583429D01*
X-43705551Y-74558713D01*
X-43555033Y-74513054D01*
X-43437724Y-74501500D01*
X-41962276Y-74501500D01*
X-41844967Y-74513054D01*
G37*
G36*
X-70444967Y-72118054D02*
G01*
X-70294449Y-72163713D01*
X-70248210Y-72188429D01*
X-70155733Y-72237858D01*
X-70034144Y-72337644D01*
X-69934358Y-72459233D01*
X-69884929Y-72551710D01*
X-69860213Y-72597949D01*
X-69814554Y-72748467D01*
X-69799137Y-72905000D01*
X-69814554Y-73061533D01*
X-69860213Y-73212051D01*
X-69860214Y-73212052D01*
X-69934358Y-73350767D01*
X-70034144Y-73472356D01*
X-70155733Y-73572142D01*
X-70248210Y-73621571D01*
X-70294449Y-73646287D01*
X-70444967Y-73691946D01*
X-70562276Y-73703500D01*
X-72037724Y-73703500D01*
X-72155033Y-73691946D01*
X-72305551Y-73646287D01*
X-72351790Y-73621571D01*
X-72444267Y-73572142D01*
X-72565856Y-73472356D01*
X-72665642Y-73350767D01*
X-72739786Y-73212052D01*
X-72739787Y-73212051D01*
X-72785446Y-73061533D01*
X-72800863Y-72905000D01*
X-72785446Y-72748467D01*
X-72739787Y-72597949D01*
X-72715071Y-72551710D01*
X-72665642Y-72459233D01*
X-72565856Y-72337644D01*
X-72444267Y-72237858D01*
X-72351790Y-72188429D01*
X-72305551Y-72163713D01*
X-72155033Y-72118054D01*
X-72037724Y-72106500D01*
X-70562276Y-72106500D01*
X-70444967Y-72118054D01*
G37*
G36*
X-92052229Y-71300611D02*
G01*
X-91998362Y-71305916D01*
X-91929245Y-71326883D01*
X-91791010Y-71368816D01*
X-91599919Y-71470956D01*
X-91599918Y-71470957D01*
X-91599916Y-71470958D01*
X-91432419Y-71608419D01*
X-91294958Y-71775916D01*
X-91294956Y-71775919D01*
X-91192816Y-71967010D01*
X-91150883Y-72105245D01*
X-91129916Y-72174362D01*
X-91113034Y-72345767D01*
X-91108678Y-72390000D01*
X-91129916Y-72605637D01*
X-91192816Y-72812990D01*
X-91294956Y-73004081D01*
X-91294958Y-73004084D01*
X-91432419Y-73171581D01*
X-91599916Y-73309042D01*
X-91599918Y-73309043D01*
X-91599919Y-73309044D01*
X-91791010Y-73411184D01*
X-91929245Y-73453117D01*
X-91998362Y-73474084D01*
X-92052229Y-73479389D01*
X-92159962Y-73490000D01*
X-93768038Y-73490000D01*
X-93875771Y-73479389D01*
X-93929638Y-73474084D01*
X-93998755Y-73453117D01*
X-94136990Y-73411184D01*
X-94328081Y-73309044D01*
X-94328082Y-73309043D01*
X-94328084Y-73309042D01*
X-94495581Y-73171581D01*
X-94633042Y-73004084D01*
X-94633044Y-73004081D01*
X-94735184Y-72812990D01*
X-94798084Y-72605637D01*
X-94819322Y-72390000D01*
X-94814966Y-72345767D01*
X-94798084Y-72174362D01*
X-94777117Y-72105245D01*
X-94735184Y-71967010D01*
X-94633044Y-71775919D01*
X-94633042Y-71775916D01*
X-94495581Y-71608419D01*
X-94328084Y-71470958D01*
X-94328082Y-71470957D01*
X-94328081Y-71470956D01*
X-94136990Y-71368816D01*
X-93998755Y-71326883D01*
X-93929638Y-71305916D01*
X-93875771Y-71300611D01*
X-93768038Y-71290000D01*
X-92159962Y-71290000D01*
X-92052229Y-71300611D01*
G37*
G36*
X-44844967Y-71113054D02*
G01*
X-44694449Y-71158713D01*
X-44648210Y-71183429D01*
X-44555733Y-71232858D01*
X-44434144Y-71332644D01*
X-44334358Y-71454233D01*
X-44284929Y-71546710D01*
X-44260213Y-71592949D01*
X-44214554Y-71743467D01*
X-44199137Y-71900000D01*
X-44214554Y-72056533D01*
X-44260213Y-72207051D01*
X-44260214Y-72207052D01*
X-44334358Y-72345767D01*
X-44434144Y-72467356D01*
X-44555733Y-72567142D01*
X-44627753Y-72605637D01*
X-44694449Y-72641287D01*
X-44844967Y-72686946D01*
X-44962276Y-72698500D01*
X-46437724Y-72698500D01*
X-46555033Y-72686946D01*
X-46705551Y-72641287D01*
X-46772247Y-72605637D01*
X-46844267Y-72567142D01*
X-46965856Y-72467356D01*
X-47065642Y-72345767D01*
X-47139786Y-72207052D01*
X-47139787Y-72207051D01*
X-47185446Y-72056533D01*
X-47200863Y-71900000D01*
X-47185446Y-71743467D01*
X-47139787Y-71592949D01*
X-47115071Y-71546710D01*
X-47065642Y-71454233D01*
X-46965856Y-71332644D01*
X-46844267Y-71232858D01*
X-46751790Y-71183429D01*
X-46705551Y-71158713D01*
X-46555033Y-71113054D01*
X-46437724Y-71101500D01*
X-44962276Y-71101500D01*
X-44844967Y-71113054D01*
G37*
G36*
X-41844967Y-69513054D02*
G01*
X-41694449Y-69558713D01*
X-41648210Y-69583429D01*
X-41555733Y-69632858D01*
X-41434144Y-69732644D01*
X-41334358Y-69854233D01*
X-41308894Y-69901874D01*
X-41260213Y-69992949D01*
X-41214554Y-70143467D01*
X-41199137Y-70300000D01*
X-41214554Y-70456533D01*
X-41260213Y-70607051D01*
X-41260214Y-70607052D01*
X-41334358Y-70745767D01*
X-41434144Y-70867356D01*
X-41555733Y-70967142D01*
X-41648210Y-71016571D01*
X-41694449Y-71041287D01*
X-41844967Y-71086946D01*
X-41962276Y-71098500D01*
X-43437724Y-71098500D01*
X-43555033Y-71086946D01*
X-43705551Y-71041287D01*
X-43751790Y-71016571D01*
X-43844267Y-70967142D01*
X-43965856Y-70867356D01*
X-44065642Y-70745767D01*
X-44139786Y-70607052D01*
X-44139787Y-70607051D01*
X-44185446Y-70456533D01*
X-44200863Y-70300000D01*
X-44185446Y-70143467D01*
X-44139787Y-69992949D01*
X-44091106Y-69901874D01*
X-44065642Y-69854233D01*
X-43965856Y-69732644D01*
X-43844267Y-69632858D01*
X-43751790Y-69583429D01*
X-43705551Y-69558713D01*
X-43555033Y-69513054D01*
X-43437724Y-69501500D01*
X-41962276Y-69501500D01*
X-41844967Y-69513054D01*
G37*
G36*
X-3691102Y-67897942D02*
G01*
X-3509461Y-67953043D01*
X-3342065Y-68042518D01*
X-3342064Y-68042519D01*
X-3342062Y-68042520D01*
X-3195335Y-68162935D01*
X-3074920Y-68309662D01*
X-3074918Y-68309665D01*
X-2985443Y-68477061D01*
X-2930342Y-68658703D01*
X-2916400Y-68800263D01*
X-2916400Y-69199738D01*
X-2930342Y-69341298D01*
X-2985443Y-69522939D01*
X-3074918Y-69690335D01*
X-3074920Y-69690338D01*
X-3195335Y-69837065D01*
X-3317917Y-69937665D01*
X-3342064Y-69957482D01*
X-3509462Y-70046957D01*
X-3691103Y-70102058D01*
X-3880000Y-70120662D01*
X-4068898Y-70102058D01*
X-4250539Y-70046957D01*
X-4417935Y-69957482D01*
X-4417936Y-69957481D01*
X-4417938Y-69957480D01*
X-4564665Y-69837065D01*
X-4685080Y-69690338D01*
X-4685082Y-69690336D01*
X-4774557Y-69522938D01*
X-4829658Y-69341297D01*
X-4843600Y-69199737D01*
X-4843600Y-68800262D01*
X-4829658Y-68658702D01*
X-4774557Y-68477061D01*
X-4685082Y-68309665D01*
X-4654011Y-68271805D01*
X-4564664Y-68162935D01*
X-4417937Y-68042520D01*
X-4417935Y-68042519D01*
X-4417934Y-68042518D01*
X-4250538Y-67953043D01*
X-4068897Y-67897942D01*
X-3880000Y-67879338D01*
X-3691102Y-67897942D01*
G37*
G36*
X-6231102Y-67897942D02*
G01*
X-6049461Y-67953043D01*
X-5882065Y-68042518D01*
X-5882064Y-68042519D01*
X-5882062Y-68042520D01*
X-5735335Y-68162935D01*
X-5614920Y-68309662D01*
X-5614918Y-68309665D01*
X-5525443Y-68477061D01*
X-5470342Y-68658703D01*
X-5456400Y-68800263D01*
X-5456400Y-69199738D01*
X-5470342Y-69341298D01*
X-5525443Y-69522939D01*
X-5614918Y-69690335D01*
X-5614920Y-69690338D01*
X-5735335Y-69837065D01*
X-5857917Y-69937665D01*
X-5882064Y-69957482D01*
X-6049462Y-70046957D01*
X-6231103Y-70102058D01*
X-6420000Y-70120662D01*
X-6608898Y-70102058D01*
X-6790539Y-70046957D01*
X-6957935Y-69957482D01*
X-6957936Y-69957481D01*
X-6957938Y-69957480D01*
X-7104665Y-69837065D01*
X-7225080Y-69690338D01*
X-7225082Y-69690336D01*
X-7314557Y-69522938D01*
X-7369658Y-69341297D01*
X-7383600Y-69199737D01*
X-7383600Y-68800262D01*
X-7369658Y-68658702D01*
X-7314557Y-68477061D01*
X-7225082Y-68309665D01*
X-7194011Y-68271805D01*
X-7104664Y-68162935D01*
X-6957937Y-68042520D01*
X-6957935Y-68042519D01*
X-6957934Y-68042518D01*
X-6790538Y-67953043D01*
X-6608897Y-67897942D01*
X-6420000Y-67879338D01*
X-6231102Y-67897942D01*
G37*
G36*
X-8771102Y-67897942D02*
G01*
X-8589461Y-67953043D01*
X-8422065Y-68042518D01*
X-8422064Y-68042519D01*
X-8422062Y-68042520D01*
X-8275335Y-68162935D01*
X-8154920Y-68309662D01*
X-8154918Y-68309665D01*
X-8065443Y-68477061D01*
X-8010342Y-68658703D01*
X-7996400Y-68800263D01*
X-7996400Y-69199738D01*
X-8010342Y-69341298D01*
X-8065443Y-69522939D01*
X-8154918Y-69690335D01*
X-8154920Y-69690338D01*
X-8275335Y-69837065D01*
X-8397917Y-69937665D01*
X-8422064Y-69957482D01*
X-8589462Y-70046957D01*
X-8771103Y-70102058D01*
X-8960000Y-70120662D01*
X-9148898Y-70102058D01*
X-9330539Y-70046957D01*
X-9497935Y-69957482D01*
X-9497936Y-69957481D01*
X-9497938Y-69957480D01*
X-9644665Y-69837065D01*
X-9765080Y-69690338D01*
X-9765082Y-69690336D01*
X-9854557Y-69522938D01*
X-9909658Y-69341297D01*
X-9923600Y-69199737D01*
X-9923600Y-68800262D01*
X-9909658Y-68658702D01*
X-9854557Y-68477061D01*
X-9765082Y-68309665D01*
X-9734011Y-68271805D01*
X-9644664Y-68162935D01*
X-9497937Y-68042520D01*
X-9497935Y-68042519D01*
X-9497934Y-68042518D01*
X-9330538Y-67953043D01*
X-9148897Y-67897942D01*
X-8960000Y-67879338D01*
X-8771102Y-67897942D01*
G37*
G36*
X-10904130Y-67893014D02*
G01*
X-10818481Y-67918996D01*
X-10739552Y-67961184D01*
X-10670365Y-68017965D01*
X-10613584Y-68087152D01*
X-10571396Y-68166081D01*
X-10545414Y-68251730D01*
X-10536400Y-68343254D01*
X-10536400Y-69656746D01*
X-10545414Y-69748270D01*
X-10571396Y-69833919D01*
X-10613584Y-69912848D01*
X-10670365Y-69982035D01*
X-10739552Y-70038816D01*
X-10818481Y-70081004D01*
X-10904130Y-70106986D01*
X-10995654Y-70116000D01*
X-12004346Y-70116000D01*
X-12095870Y-70106986D01*
X-12181519Y-70081004D01*
X-12260448Y-70038816D01*
X-12329635Y-69982035D01*
X-12386416Y-69912848D01*
X-12428604Y-69833919D01*
X-12454586Y-69748270D01*
X-12463600Y-69656746D01*
X-12463600Y-68343254D01*
X-12454586Y-68251730D01*
X-12428604Y-68166081D01*
X-12386416Y-68087152D01*
X-12329635Y-68017965D01*
X-12260448Y-67961184D01*
X-12181519Y-67918996D01*
X-12095870Y-67893014D01*
X-12004346Y-67884000D01*
X-10995654Y-67884000D01*
X-10904130Y-67893014D01*
G37*
G36*
X-82188242Y-66716653D02*
G01*
X-82020804Y-66749958D01*
X-81784219Y-66847955D01*
X-81571298Y-66990224D01*
X-81390224Y-67171298D01*
X-81247955Y-67384219D01*
X-81149958Y-67620804D01*
X-81100000Y-67871961D01*
X-81100000Y-68128039D01*
X-81149958Y-68379196D01*
X-81247955Y-68615781D01*
X-81390224Y-68828702D01*
X-81571298Y-69009776D01*
X-81784219Y-69152045D01*
X-82020804Y-69250042D01*
X-82188242Y-69283347D01*
X-82271960Y-69300000D01*
X-82528040Y-69300000D01*
X-82611758Y-69283347D01*
X-82779196Y-69250042D01*
X-83015781Y-69152045D01*
X-83228702Y-69009776D01*
X-83409776Y-68828702D01*
X-83552045Y-68615781D01*
X-83650042Y-68379196D01*
X-83700000Y-68128039D01*
X-83700000Y-67871961D01*
X-83650042Y-67620804D01*
X-83552045Y-67384219D01*
X-83409776Y-67171298D01*
X-83228702Y-66990224D01*
X-83015781Y-66847955D01*
X-82779196Y-66749958D01*
X-82611758Y-66716653D01*
X-82528040Y-66700000D01*
X-82271960Y-66700000D01*
X-82188242Y-66716653D01*
G37*
G36*
X-70444967Y-67388054D02*
G01*
X-70294449Y-67433713D01*
X-70248210Y-67458429D01*
X-70155733Y-67507858D01*
X-70034144Y-67607644D01*
X-69934358Y-67729233D01*
X-69884929Y-67821710D01*
X-69860213Y-67867949D01*
X-69814554Y-68018467D01*
X-69799137Y-68175000D01*
X-69814554Y-68331533D01*
X-69860213Y-68482051D01*
X-69860214Y-68482052D01*
X-69934358Y-68620767D01*
X-70034144Y-68742356D01*
X-70155733Y-68842142D01*
X-70248210Y-68891571D01*
X-70294449Y-68916287D01*
X-70444967Y-68961946D01*
X-70562276Y-68973500D01*
X-72037724Y-68973500D01*
X-72155033Y-68961946D01*
X-72305551Y-68916287D01*
X-72351790Y-68891571D01*
X-72444267Y-68842142D01*
X-72565856Y-68742356D01*
X-72665642Y-68620767D01*
X-72739786Y-68482052D01*
X-72739787Y-68482051D01*
X-72785446Y-68331533D01*
X-72800863Y-68175000D01*
X-72785446Y-68018467D01*
X-72739787Y-67867949D01*
X-72715071Y-67821710D01*
X-72665642Y-67729233D01*
X-72565856Y-67607644D01*
X-72444267Y-67507858D01*
X-72351790Y-67458429D01*
X-72305551Y-67433713D01*
X-72155033Y-67388054D01*
X-72037724Y-67376500D01*
X-70562276Y-67376500D01*
X-70444967Y-67388054D01*
G37*
G36*
X-44859933Y-66111580D02*
G01*
X-44844967Y-66113054D01*
X-44694449Y-66158713D01*
X-44648210Y-66183429D01*
X-44555733Y-66232858D01*
X-44434144Y-66332644D01*
X-44334358Y-66454233D01*
X-44284929Y-66546710D01*
X-44260213Y-66592949D01*
X-44227740Y-66700000D01*
X-44214554Y-66743467D01*
X-44204061Y-66850000D01*
X-44199137Y-66900000D01*
X-44214554Y-67056533D01*
X-44260213Y-67207051D01*
X-44260214Y-67207052D01*
X-44334358Y-67345767D01*
X-44434144Y-67467356D01*
X-44555733Y-67567142D01*
X-44631508Y-67607644D01*
X-44694449Y-67641287D01*
X-44844967Y-67686946D01*
X-44962276Y-67698500D01*
X-46437724Y-67698500D01*
X-46555033Y-67686946D01*
X-46705551Y-67641287D01*
X-46768492Y-67607644D01*
X-46844267Y-67567142D01*
X-46965856Y-67467356D01*
X-47065642Y-67345767D01*
X-47139786Y-67207052D01*
X-47139787Y-67207051D01*
X-47185446Y-67056533D01*
X-47200863Y-66900000D01*
X-47195938Y-66850000D01*
X-47185446Y-66743467D01*
X-47172260Y-66700000D01*
X-47139787Y-66592949D01*
X-47115071Y-66546710D01*
X-47065642Y-66454233D01*
X-46965856Y-66332644D01*
X-46844267Y-66232858D01*
X-46751790Y-66183429D01*
X-46705551Y-66158713D01*
X-46555033Y-66113054D01*
X-46540067Y-66111580D01*
X-46437724Y-66101500D01*
X-44962276Y-66101500D01*
X-44859933Y-66111580D01*
G37*
G36*
X-59406167Y-59494109D02*
G01*
X-58723710Y-59776792D01*
X-58590201Y-59866000D01*
X-58109514Y-60187185D01*
X-57587185Y-60709514D01*
X-57561677Y-60747690D01*
X-57176792Y-61323710D01*
X-56894109Y-62006167D01*
X-56750000Y-62730656D01*
X-56750000Y-63469344D01*
X-56894109Y-64193833D01*
X-57176792Y-64876290D01*
X-57197320Y-64907012D01*
X-57587185Y-65490486D01*
X-58109514Y-66012815D01*
X-58327866Y-66158713D01*
X-58723710Y-66423208D01*
X-59406167Y-66705891D01*
X-60130656Y-66850000D01*
X-60869344Y-66850000D01*
X-61593833Y-66705891D01*
X-62276290Y-66423208D01*
X-62672134Y-66158713D01*
X-62890486Y-66012815D01*
X-63412815Y-65490486D01*
X-63802680Y-64907012D01*
X-63823208Y-64876290D01*
X-64105891Y-64193833D01*
X-64250000Y-63469344D01*
X-64250000Y-62730656D01*
X-64105891Y-62006167D01*
X-63823208Y-61323710D01*
X-63438323Y-60747690D01*
X-63412815Y-60709514D01*
X-62890486Y-60187185D01*
X-62409799Y-59866000D01*
X-62276290Y-59776792D01*
X-61593833Y-59494109D01*
X-60869344Y-59350000D01*
X-60130656Y-59350000D01*
X-59406167Y-59494109D01*
G37*
G36*
X-92088229Y-64240611D02*
G01*
X-92034362Y-64245916D01*
X-91965245Y-64266883D01*
X-91827010Y-64308816D01*
X-91635919Y-64410956D01*
X-91635918Y-64410957D01*
X-91635916Y-64410958D01*
X-91468419Y-64548419D01*
X-91330958Y-64715916D01*
X-91330956Y-64715919D01*
X-91228816Y-64907010D01*
X-91165916Y-65114363D01*
X-91144678Y-65330000D01*
X-91165916Y-65545637D01*
X-91228816Y-65752990D01*
X-91330956Y-65944081D01*
X-91330958Y-65944084D01*
X-91468419Y-66111581D01*
X-91635916Y-66249042D01*
X-91635918Y-66249043D01*
X-91635919Y-66249044D01*
X-91827010Y-66351184D01*
X-91965245Y-66393117D01*
X-92034362Y-66414084D01*
X-92088229Y-66419389D01*
X-92195962Y-66430000D01*
X-93804038Y-66430000D01*
X-93911771Y-66419389D01*
X-93965638Y-66414084D01*
X-94034755Y-66393117D01*
X-94172990Y-66351184D01*
X-94364081Y-66249044D01*
X-94364082Y-66249043D01*
X-94364084Y-66249042D01*
X-94531581Y-66111581D01*
X-94669042Y-65944084D01*
X-94669044Y-65944081D01*
X-94771184Y-65752990D01*
X-94834084Y-65545637D01*
X-94855322Y-65330000D01*
X-94834084Y-65114363D01*
X-94771184Y-64907010D01*
X-94669044Y-64715919D01*
X-94669042Y-64715916D01*
X-94531581Y-64548419D01*
X-94364084Y-64410958D01*
X-94364082Y-64410957D01*
X-94364081Y-64410956D01*
X-94172990Y-64308816D01*
X-94034755Y-64266883D01*
X-93965638Y-64245916D01*
X-93911771Y-64240611D01*
X-93804038Y-64230000D01*
X-92195962Y-64230000D01*
X-92088229Y-64240611D01*
G37*
G36*
X-1809787Y-63793734D02*
G01*
X-1715603Y-63812468D01*
X-1538164Y-63885966D01*
X-1378473Y-63992668D01*
X-1242668Y-64128473D01*
X-1135966Y-64288164D01*
X-1135965Y-64288166D01*
X-1134442Y-64291844D01*
X-1062468Y-64465603D01*
X-1025000Y-64653971D01*
X-1025000Y-64846029D01*
X-1062468Y-65034397D01*
X-1135966Y-65211836D01*
X-1242668Y-65371527D01*
X-1378473Y-65507332D01*
X-1538164Y-65614034D01*
X-1715603Y-65687532D01*
X-1809787Y-65706266D01*
X-1903969Y-65725000D01*
X-2096031Y-65725000D01*
X-2190213Y-65706266D01*
X-2284397Y-65687532D01*
X-2461836Y-65614034D01*
X-2621527Y-65507332D01*
X-2757332Y-65371527D01*
X-2864034Y-65211836D01*
X-2937532Y-65034397D01*
X-2975000Y-64846029D01*
X-2975000Y-64653971D01*
X-2937532Y-64465603D01*
X-2865558Y-64291844D01*
X-2864035Y-64288166D01*
X-2864034Y-64288164D01*
X-2757332Y-64128473D01*
X-2621527Y-63992668D01*
X-2461836Y-63885966D01*
X-2284397Y-63812468D01*
X-2190213Y-63793734D01*
X-2096031Y-63775000D01*
X-1903969Y-63775000D01*
X-1809787Y-63793734D01*
G37*
G36*
X-41901500Y-65698500D02*
G01*
X-43498500Y-65698500D01*
X-43498500Y-64101500D01*
X-41901500Y-64101500D01*
X-41901500Y-65698500D01*
G37*
G36*
X-4452066Y-62932664D02*
G01*
X-4297375Y-62996739D01*
X-4228238Y-63042935D01*
X-4158156Y-63089762D01*
X-4039762Y-63208156D01*
X-4039761Y-63208158D01*
X-3946739Y-63347375D01*
X-3882664Y-63502066D01*
X-3850000Y-63666281D01*
X-3850000Y-63833719D01*
X-3882664Y-63997934D01*
X-3946739Y-64152625D01*
X-3946740Y-64152626D01*
X-4039762Y-64291844D01*
X-4158156Y-64410238D01*
X-4159231Y-64410956D01*
X-4297375Y-64503261D01*
X-4452066Y-64567336D01*
X-4616281Y-64600000D01*
X-4783719Y-64600000D01*
X-4947934Y-64567336D01*
X-5102625Y-64503261D01*
X-5240769Y-64410956D01*
X-5241844Y-64410238D01*
X-5360238Y-64291844D01*
X-5453260Y-64152626D01*
X-5453261Y-64152625D01*
X-5517336Y-63997934D01*
X-5550000Y-63833719D01*
X-5550000Y-63666281D01*
X-5517336Y-63502066D01*
X-5453261Y-63347375D01*
X-5360239Y-63208158D01*
X-5360238Y-63208156D01*
X-5241844Y-63089762D01*
X-5171762Y-63042935D01*
X-5102625Y-62996739D01*
X-4947934Y-62932664D01*
X-4783719Y-62900000D01*
X-4616281Y-62900000D01*
X-4452066Y-62932664D01*
G37*
G36*
X-70444967Y-62658054D02*
G01*
X-70294449Y-62703713D01*
X-70248210Y-62728429D01*
X-70155733Y-62777858D01*
X-70034144Y-62877644D01*
X-69934358Y-62999233D01*
X-69885970Y-63089761D01*
X-69860213Y-63137949D01*
X-69814554Y-63288467D01*
X-69799137Y-63445000D01*
X-69814554Y-63601533D01*
X-69860213Y-63752051D01*
X-69869424Y-63769283D01*
X-69934358Y-63890767D01*
X-70034144Y-64012356D01*
X-70155733Y-64112142D01*
X-70231472Y-64152625D01*
X-70294449Y-64186287D01*
X-70438552Y-64230000D01*
X-70444967Y-64231946D01*
X-70562276Y-64243500D01*
X-72037724Y-64243500D01*
X-72155033Y-64231946D01*
X-72161448Y-64230000D01*
X-72305551Y-64186287D01*
X-72368528Y-64152625D01*
X-72444267Y-64112142D01*
X-72565856Y-64012356D01*
X-72665642Y-63890767D01*
X-72730576Y-63769283D01*
X-72739787Y-63752051D01*
X-72785446Y-63601533D01*
X-72800863Y-63445000D01*
X-72785446Y-63288467D01*
X-72739787Y-63137949D01*
X-72714030Y-63089761D01*
X-72665642Y-62999233D01*
X-72565856Y-62877644D01*
X-72444267Y-62777858D01*
X-72351790Y-62728429D01*
X-72305551Y-62703713D01*
X-72155033Y-62658054D01*
X-72037724Y-62646500D01*
X-70562276Y-62646500D01*
X-70444967Y-62658054D01*
G37*
G36*
X-22371398Y-62155521D02*
G01*
X-22319853Y-62171157D01*
X-22272355Y-62196545D01*
X-22230717Y-62230717D01*
X-22196545Y-62272355D01*
X-22171157Y-62319853D01*
X-22155521Y-62371398D01*
X-22150000Y-62427454D01*
X-22150000Y-63572546D01*
X-22155521Y-63628602D01*
X-22171157Y-63680147D01*
X-22196545Y-63727645D01*
X-22230717Y-63769283D01*
X-22272355Y-63803455D01*
X-22319853Y-63828843D01*
X-22371398Y-63844479D01*
X-22427454Y-63850000D01*
X-23072546Y-63850000D01*
X-23128602Y-63844479D01*
X-23180147Y-63828843D01*
X-23227645Y-63803455D01*
X-23269283Y-63769283D01*
X-23303455Y-63727645D01*
X-23328843Y-63680147D01*
X-23344479Y-63628602D01*
X-23350000Y-63572546D01*
X-23350000Y-62427454D01*
X-23344479Y-62371398D01*
X-23328843Y-62319853D01*
X-23303455Y-62272355D01*
X-23269283Y-62230717D01*
X-23227645Y-62196545D01*
X-23180147Y-62171157D01*
X-23128602Y-62155521D01*
X-23072546Y-62150000D01*
X-22427454Y-62150000D01*
X-22371398Y-62155521D01*
G37*
G36*
X-20871398Y-62155521D02*
G01*
X-20819853Y-62171157D01*
X-20772355Y-62196545D01*
X-20730717Y-62230717D01*
X-20696545Y-62272355D01*
X-20671157Y-62319853D01*
X-20655521Y-62371398D01*
X-20650000Y-62427454D01*
X-20650000Y-63572546D01*
X-20655521Y-63628602D01*
X-20671157Y-63680147D01*
X-20696545Y-63727645D01*
X-20730717Y-63769283D01*
X-20772355Y-63803455D01*
X-20819853Y-63828843D01*
X-20871398Y-63844479D01*
X-20927454Y-63850000D01*
X-21572546Y-63850000D01*
X-21628602Y-63844479D01*
X-21680147Y-63828843D01*
X-21727645Y-63803455D01*
X-21769283Y-63769283D01*
X-21803455Y-63727645D01*
X-21828843Y-63680147D01*
X-21844479Y-63628602D01*
X-21850000Y-63572546D01*
X-21850000Y-62427454D01*
X-21844479Y-62371398D01*
X-21828843Y-62319853D01*
X-21803455Y-62272355D01*
X-21769283Y-62230717D01*
X-21727645Y-62196545D01*
X-21680147Y-62171157D01*
X-21628602Y-62155521D01*
X-21572546Y-62150000D01*
X-20927454Y-62150000D01*
X-20871398Y-62155521D01*
G37*
G36*
X-92088229Y-59160611D02*
G01*
X-92034362Y-59165916D01*
X-91965245Y-59186883D01*
X-91827010Y-59228816D01*
X-91635919Y-59330956D01*
X-91635918Y-59330957D01*
X-91635916Y-59330958D01*
X-91468419Y-59468419D01*
X-91330958Y-59635916D01*
X-91330956Y-59635919D01*
X-91228816Y-59827010D01*
X-91165916Y-60034363D01*
X-91144678Y-60250000D01*
X-91165916Y-60465637D01*
X-91228816Y-60672990D01*
X-91330956Y-60864081D01*
X-91330958Y-60864084D01*
X-91468419Y-61031581D01*
X-91635916Y-61169042D01*
X-91635918Y-61169043D01*
X-91635919Y-61169044D01*
X-91827010Y-61271184D01*
X-91965245Y-61313117D01*
X-92034362Y-61334084D01*
X-92088229Y-61339389D01*
X-92195962Y-61350000D01*
X-93804038Y-61350000D01*
X-93911771Y-61339389D01*
X-93965638Y-61334084D01*
X-94034755Y-61313117D01*
X-94172990Y-61271184D01*
X-94364081Y-61169044D01*
X-94364082Y-61169043D01*
X-94364084Y-61169042D01*
X-94531581Y-61031581D01*
X-94669042Y-60864084D01*
X-94669044Y-60864081D01*
X-94771184Y-60672990D01*
X-94834084Y-60465637D01*
X-94855322Y-60250000D01*
X-94834084Y-60034363D01*
X-94771184Y-59827010D01*
X-94669044Y-59635919D01*
X-94669042Y-59635916D01*
X-94531581Y-59468419D01*
X-94364084Y-59330958D01*
X-94364082Y-59330957D01*
X-94364081Y-59330956D01*
X-94172990Y-59228816D01*
X-94034755Y-59186883D01*
X-93965638Y-59165916D01*
X-93911771Y-59160611D01*
X-93804038Y-59150000D01*
X-92195962Y-59150000D01*
X-92088229Y-59160611D01*
G37*
G36*
X-51843701Y-56836465D02*
G01*
X-51434227Y-57006075D01*
X-51434225Y-57006076D01*
X-51065708Y-57252311D01*
X-50752311Y-57565708D01*
X-50506076Y-57934225D01*
X-50506075Y-57934227D01*
X-50336465Y-58343701D01*
X-50250000Y-58778393D01*
X-50250000Y-59221607D01*
X-50336465Y-59656299D01*
X-50423326Y-59866000D01*
X-50506076Y-60065775D01*
X-50752311Y-60434292D01*
X-51065708Y-60747689D01*
X-51434225Y-60993924D01*
X-51434226Y-60993925D01*
X-51434227Y-60993925D01*
X-51843701Y-61163535D01*
X-52278393Y-61250000D01*
X-52721607Y-61250000D01*
X-53156299Y-61163535D01*
X-53565773Y-60993925D01*
X-53565774Y-60993925D01*
X-53565775Y-60993924D01*
X-53934292Y-60747689D01*
X-54247689Y-60434292D01*
X-54493924Y-60065775D01*
X-54576674Y-59866000D01*
X-54663535Y-59656299D01*
X-54750000Y-59221607D01*
X-54750000Y-58778393D01*
X-54663535Y-58343701D01*
X-54493925Y-57934227D01*
X-54493924Y-57934225D01*
X-54247689Y-57565708D01*
X-53934292Y-57252311D01*
X-53565775Y-57006076D01*
X-53565773Y-57006075D01*
X-53156299Y-56836465D01*
X-52721607Y-56750000D01*
X-52278393Y-56750000D01*
X-51843701Y-56836465D01*
G37*
G36*
X-39351102Y-57647942D02*
G01*
X-39169461Y-57703043D01*
X-39002065Y-57792518D01*
X-39002064Y-57792519D01*
X-39002062Y-57792520D01*
X-38855335Y-57912935D01*
X-38734920Y-58059662D01*
X-38734918Y-58059665D01*
X-38645443Y-58227061D01*
X-38590342Y-58408703D01*
X-38576400Y-58550263D01*
X-38576400Y-58949738D01*
X-38590342Y-59091298D01*
X-38645443Y-59272939D01*
X-38734918Y-59440335D01*
X-38734920Y-59440338D01*
X-38855335Y-59587065D01*
X-38977917Y-59687665D01*
X-39002064Y-59707482D01*
X-39169462Y-59796957D01*
X-39351103Y-59852058D01*
X-39540000Y-59870662D01*
X-39728898Y-59852058D01*
X-39910539Y-59796957D01*
X-40077935Y-59707482D01*
X-40077936Y-59707481D01*
X-40077938Y-59707480D01*
X-40224665Y-59587065D01*
X-40345080Y-59440338D01*
X-40345082Y-59440336D01*
X-40434557Y-59272938D01*
X-40489658Y-59091297D01*
X-40503600Y-58949737D01*
X-40503600Y-58550262D01*
X-40489658Y-58408702D01*
X-40434557Y-58227061D01*
X-40345082Y-58059665D01*
X-40345080Y-58059662D01*
X-40224664Y-57912935D01*
X-40077937Y-57792520D01*
X-40077935Y-57792519D01*
X-40077934Y-57792518D01*
X-39910538Y-57703043D01*
X-39728897Y-57647942D01*
X-39540000Y-57629338D01*
X-39351102Y-57647942D01*
G37*
G36*
X-41891102Y-57647942D02*
G01*
X-41709461Y-57703043D01*
X-41542065Y-57792518D01*
X-41542064Y-57792519D01*
X-41542062Y-57792520D01*
X-41395335Y-57912935D01*
X-41274920Y-58059662D01*
X-41274918Y-58059665D01*
X-41185443Y-58227061D01*
X-41130342Y-58408703D01*
X-41116400Y-58550263D01*
X-41116400Y-58949738D01*
X-41130342Y-59091298D01*
X-41185443Y-59272939D01*
X-41274918Y-59440335D01*
X-41274920Y-59440338D01*
X-41395335Y-59587065D01*
X-41517917Y-59687665D01*
X-41542064Y-59707482D01*
X-41709462Y-59796957D01*
X-41891103Y-59852058D01*
X-42080000Y-59870662D01*
X-42268898Y-59852058D01*
X-42450539Y-59796957D01*
X-42617935Y-59707482D01*
X-42617936Y-59707481D01*
X-42617938Y-59707480D01*
X-42764665Y-59587065D01*
X-42885080Y-59440338D01*
X-42885082Y-59440336D01*
X-42974557Y-59272938D01*
X-43029658Y-59091297D01*
X-43043600Y-58949737D01*
X-43043600Y-58550262D01*
X-43029658Y-58408702D01*
X-42974557Y-58227061D01*
X-42885082Y-58059665D01*
X-42885080Y-58059662D01*
X-42764664Y-57912935D01*
X-42617937Y-57792520D01*
X-42617935Y-57792519D01*
X-42617934Y-57792518D01*
X-42450538Y-57703043D01*
X-42268897Y-57647942D01*
X-42080000Y-57629338D01*
X-41891102Y-57647942D01*
G37*
G36*
X-44431102Y-57647942D02*
G01*
X-44249461Y-57703043D01*
X-44082065Y-57792518D01*
X-44082064Y-57792519D01*
X-44082062Y-57792520D01*
X-43935335Y-57912935D01*
X-43814920Y-58059662D01*
X-43814918Y-58059665D01*
X-43725443Y-58227061D01*
X-43670342Y-58408703D01*
X-43656400Y-58550263D01*
X-43656400Y-58949738D01*
X-43670342Y-59091298D01*
X-43725443Y-59272939D01*
X-43814918Y-59440335D01*
X-43814920Y-59440338D01*
X-43935335Y-59587065D01*
X-44057917Y-59687665D01*
X-44082064Y-59707482D01*
X-44249462Y-59796957D01*
X-44431103Y-59852058D01*
X-44620000Y-59870662D01*
X-44808898Y-59852058D01*
X-44990539Y-59796957D01*
X-45157935Y-59707482D01*
X-45157936Y-59707481D01*
X-45157938Y-59707480D01*
X-45304665Y-59587065D01*
X-45425080Y-59440338D01*
X-45425082Y-59440336D01*
X-45514557Y-59272938D01*
X-45569658Y-59091297D01*
X-45583600Y-58949737D01*
X-45583600Y-58550262D01*
X-45569658Y-58408702D01*
X-45514557Y-58227061D01*
X-45425082Y-58059665D01*
X-45425080Y-58059662D01*
X-45304664Y-57912935D01*
X-45157937Y-57792520D01*
X-45157935Y-57792519D01*
X-45157934Y-57792518D01*
X-44990538Y-57703043D01*
X-44808897Y-57647942D01*
X-44620000Y-57629338D01*
X-44431102Y-57647942D01*
G37*
G36*
X-36404130Y-57643014D02*
G01*
X-36318481Y-57668996D01*
X-36239552Y-57711184D01*
X-36170365Y-57767965D01*
X-36113584Y-57837152D01*
X-36071396Y-57916081D01*
X-36045414Y-58001730D01*
X-36036400Y-58093254D01*
X-36036400Y-59406746D01*
X-36045414Y-59498270D01*
X-36071396Y-59583919D01*
X-36113584Y-59662848D01*
X-36170365Y-59732035D01*
X-36239552Y-59788816D01*
X-36318481Y-59831004D01*
X-36404130Y-59856986D01*
X-36495654Y-59866000D01*
X-37504346Y-59866000D01*
X-37595870Y-59856986D01*
X-37681519Y-59831004D01*
X-37760448Y-59788816D01*
X-37829635Y-59732035D01*
X-37886416Y-59662848D01*
X-37928604Y-59583919D01*
X-37954586Y-59498270D01*
X-37963600Y-59406746D01*
X-37963600Y-58093254D01*
X-37954586Y-58001730D01*
X-37928604Y-57916081D01*
X-37886416Y-57837152D01*
X-37829635Y-57767965D01*
X-37760448Y-57711184D01*
X-37681519Y-57668996D01*
X-37595870Y-57643014D01*
X-37504346Y-57634000D01*
X-36495654Y-57634000D01*
X-36404130Y-57643014D01*
G37*
G36*
X-4452066Y-57932664D02*
G01*
X-4297375Y-57996739D01*
X-4258164Y-58022939D01*
X-4158156Y-58089762D01*
X-4039762Y-58208156D01*
X-4012959Y-58248270D01*
X-3946739Y-58347375D01*
X-3882664Y-58502066D01*
X-3850000Y-58666281D01*
X-3850000Y-58833719D01*
X-3882664Y-58997934D01*
X-3946739Y-59152625D01*
X-3946740Y-59152626D01*
X-4039762Y-59291844D01*
X-4158156Y-59410238D01*
X-4203200Y-59440335D01*
X-4297375Y-59503261D01*
X-4452066Y-59567336D01*
X-4616281Y-59600000D01*
X-4783719Y-59600000D01*
X-4947934Y-59567336D01*
X-5102625Y-59503261D01*
X-5196800Y-59440335D01*
X-5241844Y-59410238D01*
X-5360238Y-59291844D01*
X-5453260Y-59152626D01*
X-5453261Y-59152625D01*
X-5517336Y-58997934D01*
X-5550000Y-58833719D01*
X-5550000Y-58666281D01*
X-5517336Y-58502066D01*
X-5453261Y-58347375D01*
X-5387041Y-58248270D01*
X-5360238Y-58208156D01*
X-5241844Y-58089762D01*
X-5141836Y-58022939D01*
X-5102625Y-57996739D01*
X-4947934Y-57932664D01*
X-4783719Y-57900000D01*
X-4616281Y-57900000D01*
X-4452066Y-57932664D01*
G37*
G36*
X-1809787Y-56793734D02*
G01*
X-1715603Y-56812468D01*
X-1538164Y-56885966D01*
X-1378473Y-56992668D01*
X-1242668Y-57128473D01*
X-1135966Y-57288164D01*
X-1062468Y-57465603D01*
X-1062468Y-57465605D01*
X-1029899Y-57629338D01*
X-1025000Y-57653971D01*
X-1025000Y-57846029D01*
X-1062468Y-58034397D01*
X-1103808Y-58134200D01*
X-1134442Y-58208158D01*
X-1135966Y-58211836D01*
X-1242668Y-58371527D01*
X-1378473Y-58507332D01*
X-1538164Y-58614034D01*
X-1715603Y-58687532D01*
X-1809787Y-58706266D01*
X-1903969Y-58725000D01*
X-2096031Y-58725000D01*
X-2190213Y-58706266D01*
X-2284397Y-58687532D01*
X-2461836Y-58614034D01*
X-2621527Y-58507332D01*
X-2757332Y-58371527D01*
X-2864034Y-58211836D01*
X-2865557Y-58208158D01*
X-2896192Y-58134200D01*
X-2937532Y-58034397D01*
X-2975000Y-57846029D01*
X-2975000Y-57653971D01*
X-2970100Y-57629338D01*
X-2937532Y-57465605D01*
X-2937532Y-57465603D01*
X-2864034Y-57288164D01*
X-2757332Y-57128473D01*
X-2621527Y-56992668D01*
X-2461836Y-56885966D01*
X-2284397Y-56812468D01*
X-2190213Y-56793734D01*
X-2096031Y-56775000D01*
X-1903969Y-56775000D01*
X-1809787Y-56793734D01*
G37*
G36*
X-16351102Y-56397942D02*
G01*
X-16169461Y-56453043D01*
X-16002065Y-56542518D01*
X-16002064Y-56542519D01*
X-16002062Y-56542520D01*
X-15855335Y-56662935D01*
X-15734920Y-56809662D01*
X-15734918Y-56809665D01*
X-15645443Y-56977061D01*
X-15590342Y-57158703D01*
X-15576400Y-57300263D01*
X-15576400Y-57699738D01*
X-15590342Y-57841298D01*
X-15645443Y-58022939D01*
X-15734918Y-58190335D01*
X-15734920Y-58190338D01*
X-15855335Y-58337065D01*
X-15977917Y-58437665D01*
X-16002064Y-58457482D01*
X-16169462Y-58546957D01*
X-16351103Y-58602058D01*
X-16540000Y-58620662D01*
X-16728898Y-58602058D01*
X-16910539Y-58546957D01*
X-17077935Y-58457482D01*
X-17077936Y-58457481D01*
X-17077938Y-58457480D01*
X-17224665Y-58337065D01*
X-17345080Y-58190338D01*
X-17345082Y-58190336D01*
X-17434557Y-58022938D01*
X-17489658Y-57841297D01*
X-17503600Y-57699737D01*
X-17503600Y-57300262D01*
X-17489658Y-57158702D01*
X-17434557Y-56977061D01*
X-17345082Y-56809665D01*
X-17345080Y-56809662D01*
X-17224664Y-56662935D01*
X-17077937Y-56542520D01*
X-17077935Y-56542519D01*
X-17077934Y-56542518D01*
X-16910538Y-56453043D01*
X-16728897Y-56397942D01*
X-16540000Y-56379338D01*
X-16351102Y-56397942D01*
G37*
G36*
X-13811102Y-56397942D02*
G01*
X-13629461Y-56453043D01*
X-13462065Y-56542518D01*
X-13462064Y-56542519D01*
X-13462062Y-56542520D01*
X-13315335Y-56662935D01*
X-13194920Y-56809662D01*
X-13194918Y-56809665D01*
X-13105443Y-56977061D01*
X-13050342Y-57158703D01*
X-13036400Y-57300263D01*
X-13036400Y-57699738D01*
X-13050342Y-57841298D01*
X-13105443Y-58022939D01*
X-13194918Y-58190335D01*
X-13194920Y-58190338D01*
X-13315335Y-58337065D01*
X-13437917Y-58437665D01*
X-13462064Y-58457482D01*
X-13629462Y-58546957D01*
X-13811103Y-58602058D01*
X-14000000Y-58620662D01*
X-14188898Y-58602058D01*
X-14370539Y-58546957D01*
X-14537935Y-58457482D01*
X-14537936Y-58457481D01*
X-14537938Y-58457480D01*
X-14684665Y-58337065D01*
X-14805080Y-58190338D01*
X-14805082Y-58190336D01*
X-14894557Y-58022938D01*
X-14949658Y-57841297D01*
X-14963600Y-57699737D01*
X-14963600Y-57300262D01*
X-14949658Y-57158702D01*
X-14894557Y-56977061D01*
X-14805082Y-56809665D01*
X-14805080Y-56809662D01*
X-14684664Y-56662935D01*
X-14537937Y-56542520D01*
X-14537935Y-56542519D01*
X-14537934Y-56542518D01*
X-14370538Y-56453043D01*
X-14188897Y-56397942D01*
X-14000000Y-56379338D01*
X-13811102Y-56397942D01*
G37*
G36*
X-11271102Y-56397942D02*
G01*
X-11089461Y-56453043D01*
X-10922065Y-56542518D01*
X-10922064Y-56542519D01*
X-10922062Y-56542520D01*
X-10775335Y-56662935D01*
X-10654920Y-56809662D01*
X-10654918Y-56809665D01*
X-10565443Y-56977061D01*
X-10510342Y-57158703D01*
X-10496400Y-57300263D01*
X-10496400Y-57699738D01*
X-10510342Y-57841298D01*
X-10565443Y-58022939D01*
X-10654918Y-58190335D01*
X-10654920Y-58190338D01*
X-10775335Y-58337065D01*
X-10897917Y-58437665D01*
X-10922064Y-58457482D01*
X-11089462Y-58546957D01*
X-11271103Y-58602058D01*
X-11460000Y-58620662D01*
X-11648898Y-58602058D01*
X-11830539Y-58546957D01*
X-11997935Y-58457482D01*
X-11997936Y-58457481D01*
X-11997938Y-58457480D01*
X-12144665Y-58337065D01*
X-12265080Y-58190338D01*
X-12265082Y-58190336D01*
X-12354557Y-58022938D01*
X-12409658Y-57841297D01*
X-12423600Y-57699737D01*
X-12423600Y-57300262D01*
X-12409658Y-57158702D01*
X-12354557Y-56977061D01*
X-12265082Y-56809665D01*
X-12265080Y-56809662D01*
X-12144664Y-56662935D01*
X-11997937Y-56542520D01*
X-11997935Y-56542519D01*
X-11997934Y-56542518D01*
X-11830538Y-56453043D01*
X-11648897Y-56397942D01*
X-11460000Y-56379338D01*
X-11271102Y-56397942D01*
G37*
G36*
X-18484130Y-56393014D02*
G01*
X-18398481Y-56418996D01*
X-18319552Y-56461184D01*
X-18250365Y-56517965D01*
X-18193584Y-56587152D01*
X-18151396Y-56666081D01*
X-18125414Y-56751730D01*
X-18116400Y-56843254D01*
X-18116400Y-58156746D01*
X-18125414Y-58248270D01*
X-18151396Y-58333919D01*
X-18193584Y-58412848D01*
X-18250365Y-58482035D01*
X-18319552Y-58538816D01*
X-18398481Y-58581004D01*
X-18484130Y-58606986D01*
X-18575654Y-58616000D01*
X-19584346Y-58616000D01*
X-19675870Y-58606986D01*
X-19761519Y-58581004D01*
X-19840448Y-58538816D01*
X-19909635Y-58482035D01*
X-19966416Y-58412848D01*
X-20008604Y-58333919D01*
X-20034586Y-58248270D01*
X-20043600Y-58156746D01*
X-20043600Y-56843254D01*
X-20034586Y-56751730D01*
X-20008604Y-56666081D01*
X-19966416Y-56587152D01*
X-19909635Y-56517965D01*
X-19840448Y-56461184D01*
X-19761519Y-56418996D01*
X-19675870Y-56393014D01*
X-19584346Y-56384000D01*
X-18575654Y-56384000D01*
X-18484130Y-56393014D01*
G37*
G36*
X-17074988Y-54673057D02*
G01*
X-17031899Y-54690905D01*
X-16965793Y-54718287D01*
X-16867522Y-54783950D01*
X-16783950Y-54867522D01*
X-16745535Y-54925014D01*
X-16718286Y-54965795D01*
X-16673057Y-55074988D01*
X-16650000Y-55190904D01*
X-16650000Y-55309096D01*
X-16673057Y-55425012D01*
X-16673058Y-55425014D01*
X-16718287Y-55534207D01*
X-16783950Y-55632478D01*
X-16867522Y-55716050D01*
X-16965793Y-55781713D01*
X-16965794Y-55781714D01*
X-16965795Y-55781714D01*
X-17074988Y-55826943D01*
X-17190904Y-55850000D01*
X-17309096Y-55850000D01*
X-17425012Y-55826943D01*
X-17534205Y-55781714D01*
X-17534206Y-55781714D01*
X-17534207Y-55781713D01*
X-17632478Y-55716050D01*
X-17716050Y-55632478D01*
X-17781713Y-55534207D01*
X-17826942Y-55425014D01*
X-17826943Y-55425012D01*
X-17850000Y-55309096D01*
X-17850000Y-55190904D01*
X-17826943Y-55074988D01*
X-17781714Y-54965795D01*
X-17754465Y-54925014D01*
X-17716050Y-54867522D01*
X-17632478Y-54783950D01*
X-17534207Y-54718287D01*
X-17468101Y-54690905D01*
X-17425012Y-54673057D01*
X-17309096Y-54650000D01*
X-17190904Y-54650000D01*
X-17074988Y-54673057D01*
G37*
G36*
X-15574988Y-54673057D02*
G01*
X-15531899Y-54690905D01*
X-15465793Y-54718287D01*
X-15367522Y-54783950D01*
X-15283950Y-54867522D01*
X-15245535Y-54925014D01*
X-15218286Y-54965795D01*
X-15173057Y-55074988D01*
X-15150000Y-55190904D01*
X-15150000Y-55309096D01*
X-15173057Y-55425012D01*
X-15173058Y-55425014D01*
X-15218287Y-55534207D01*
X-15283950Y-55632478D01*
X-15367522Y-55716050D01*
X-15465793Y-55781713D01*
X-15465794Y-55781714D01*
X-15465795Y-55781714D01*
X-15574988Y-55826943D01*
X-15690904Y-55850000D01*
X-15809096Y-55850000D01*
X-15925012Y-55826943D01*
X-16034205Y-55781714D01*
X-16034206Y-55781714D01*
X-16034207Y-55781713D01*
X-16132478Y-55716050D01*
X-16216050Y-55632478D01*
X-16281713Y-55534207D01*
X-16326942Y-55425014D01*
X-16326943Y-55425012D01*
X-16350000Y-55309096D01*
X-16350000Y-55190904D01*
X-16326943Y-55074988D01*
X-16281714Y-54965795D01*
X-16254465Y-54925014D01*
X-16216050Y-54867522D01*
X-16132478Y-54783950D01*
X-16034207Y-54718287D01*
X-15968101Y-54690905D01*
X-15925012Y-54673057D01*
X-15809096Y-54650000D01*
X-15690904Y-54650000D01*
X-15574988Y-54673057D01*
G37*
G36*
X-14074988Y-54673057D02*
G01*
X-14031899Y-54690905D01*
X-13965793Y-54718287D01*
X-13867522Y-54783950D01*
X-13783950Y-54867522D01*
X-13745535Y-54925014D01*
X-13718286Y-54965795D01*
X-13673057Y-55074988D01*
X-13650000Y-55190904D01*
X-13650000Y-55309096D01*
X-13673057Y-55425012D01*
X-13673058Y-55425014D01*
X-13718287Y-55534207D01*
X-13783950Y-55632478D01*
X-13867522Y-55716050D01*
X-13965793Y-55781713D01*
X-13965794Y-55781714D01*
X-13965795Y-55781714D01*
X-14074988Y-55826943D01*
X-14190904Y-55850000D01*
X-14309096Y-55850000D01*
X-14425012Y-55826943D01*
X-14534205Y-55781714D01*
X-14534206Y-55781714D01*
X-14534207Y-55781713D01*
X-14632478Y-55716050D01*
X-14716050Y-55632478D01*
X-14781713Y-55534207D01*
X-14826942Y-55425014D01*
X-14826943Y-55425012D01*
X-14850000Y-55309096D01*
X-14850000Y-55190904D01*
X-14826943Y-55074988D01*
X-14781714Y-54965795D01*
X-14754465Y-54925014D01*
X-14716050Y-54867522D01*
X-14632478Y-54783950D01*
X-14534207Y-54718287D01*
X-14468101Y-54690905D01*
X-14425012Y-54673057D01*
X-14309096Y-54650000D01*
X-14190904Y-54650000D01*
X-14074988Y-54673057D01*
G37*
G36*
X-81824988Y-54173057D02*
G01*
X-81824985Y-54173058D01*
X-81824986Y-54173058D01*
X-81715793Y-54218287D01*
X-81617522Y-54283950D01*
X-81533950Y-54367522D01*
X-81533949Y-54367524D01*
X-81468286Y-54465795D01*
X-81423057Y-54574988D01*
X-81400000Y-54690904D01*
X-81400000Y-54809096D01*
X-81423057Y-54925012D01*
X-81423058Y-54925014D01*
X-81468287Y-55034207D01*
X-81533950Y-55132478D01*
X-81617522Y-55216050D01*
X-81715793Y-55281713D01*
X-81715794Y-55281714D01*
X-81715795Y-55281714D01*
X-81824988Y-55326943D01*
X-81940904Y-55350000D01*
X-82059096Y-55350000D01*
X-82175012Y-55326943D01*
X-82284205Y-55281714D01*
X-82284206Y-55281714D01*
X-82284207Y-55281713D01*
X-82382478Y-55216050D01*
X-82466050Y-55132478D01*
X-82531713Y-55034207D01*
X-82576942Y-54925014D01*
X-82576943Y-54925012D01*
X-82600000Y-54809096D01*
X-82600000Y-54690904D01*
X-82576943Y-54574988D01*
X-82531714Y-54465795D01*
X-82466051Y-54367524D01*
X-82466050Y-54367522D01*
X-82382478Y-54283950D01*
X-82284207Y-54218287D01*
X-82175014Y-54173058D01*
X-82175015Y-54173058D01*
X-82175012Y-54173057D01*
X-82059096Y-54150000D01*
X-81940904Y-54150000D01*
X-81824988Y-54173057D01*
G37*
G36*
X-84824988Y-54173057D02*
G01*
X-84824985Y-54173058D01*
X-84824986Y-54173058D01*
X-84715793Y-54218287D01*
X-84617522Y-54283950D01*
X-84533950Y-54367522D01*
X-84533949Y-54367524D01*
X-84468286Y-54465795D01*
X-84423057Y-54574988D01*
X-84400000Y-54690904D01*
X-84400000Y-54809096D01*
X-84423057Y-54925012D01*
X-84423058Y-54925014D01*
X-84468287Y-55034207D01*
X-84533950Y-55132478D01*
X-84617522Y-55216050D01*
X-84715793Y-55281713D01*
X-84715794Y-55281714D01*
X-84715795Y-55281714D01*
X-84824988Y-55326943D01*
X-84940904Y-55350000D01*
X-85059096Y-55350000D01*
X-85175012Y-55326943D01*
X-85284205Y-55281714D01*
X-85284206Y-55281714D01*
X-85284207Y-55281713D01*
X-85382478Y-55216050D01*
X-85466050Y-55132478D01*
X-85531713Y-55034207D01*
X-85576942Y-54925014D01*
X-85576943Y-54925012D01*
X-85600000Y-54809096D01*
X-85600000Y-54690904D01*
X-85576943Y-54574988D01*
X-85531714Y-54465795D01*
X-85466051Y-54367524D01*
X-85466050Y-54367522D01*
X-85382478Y-54283950D01*
X-85284207Y-54218287D01*
X-85175014Y-54173058D01*
X-85175015Y-54173058D01*
X-85175012Y-54173057D01*
X-85059096Y-54150000D01*
X-84940904Y-54150000D01*
X-84824988Y-54173057D01*
G37*
G36*
X-83324988Y-54173057D02*
G01*
X-83324985Y-54173058D01*
X-83324986Y-54173058D01*
X-83215793Y-54218287D01*
X-83117522Y-54283950D01*
X-83033950Y-54367522D01*
X-83033949Y-54367524D01*
X-82968286Y-54465795D01*
X-82923057Y-54574988D01*
X-82900000Y-54690904D01*
X-82900000Y-54809096D01*
X-82923057Y-54925012D01*
X-82923058Y-54925014D01*
X-82968287Y-55034207D01*
X-83033950Y-55132478D01*
X-83117522Y-55216050D01*
X-83215793Y-55281713D01*
X-83215794Y-55281714D01*
X-83215795Y-55281714D01*
X-83324988Y-55326943D01*
X-83440904Y-55350000D01*
X-83559096Y-55350000D01*
X-83675012Y-55326943D01*
X-83784205Y-55281714D01*
X-83784206Y-55281714D01*
X-83784207Y-55281713D01*
X-83882478Y-55216050D01*
X-83966050Y-55132478D01*
X-84031713Y-55034207D01*
X-84076942Y-54925014D01*
X-84076943Y-54925012D01*
X-84100000Y-54809096D01*
X-84100000Y-54690904D01*
X-84076943Y-54574988D01*
X-84031714Y-54465795D01*
X-83966051Y-54367524D01*
X-83966050Y-54367522D01*
X-83882478Y-54283950D01*
X-83784207Y-54218287D01*
X-83675014Y-54173058D01*
X-83675015Y-54173058D01*
X-83675012Y-54173057D01*
X-83559096Y-54150000D01*
X-83440904Y-54150000D01*
X-83324988Y-54173057D01*
G37*
G36*
X-16074988Y-51673057D02*
G01*
X-16074985Y-51673058D01*
X-16074986Y-51673058D01*
X-15965793Y-51718287D01*
X-15867522Y-51783950D01*
X-15783950Y-51867522D01*
X-15734917Y-51940905D01*
X-15718286Y-51965795D01*
X-15673057Y-52074988D01*
X-15650000Y-52190904D01*
X-15650000Y-52309096D01*
X-15673057Y-52425012D01*
X-15690056Y-52466051D01*
X-15718287Y-52534207D01*
X-15783950Y-52632478D01*
X-15867522Y-52716050D01*
X-15965793Y-52781713D01*
X-15965794Y-52781714D01*
X-15965795Y-52781714D01*
X-16074988Y-52826943D01*
X-16190904Y-52850000D01*
X-16309096Y-52850000D01*
X-16425012Y-52826943D01*
X-16534205Y-52781714D01*
X-16534206Y-52781714D01*
X-16534207Y-52781713D01*
X-16632478Y-52716050D01*
X-16716050Y-52632478D01*
X-16781713Y-52534207D01*
X-16809944Y-52466051D01*
X-16826943Y-52425012D01*
X-16850000Y-52309096D01*
X-16850000Y-52190904D01*
X-16826943Y-52074988D01*
X-16781714Y-51965795D01*
X-16765083Y-51940905D01*
X-16716050Y-51867522D01*
X-16632478Y-51783950D01*
X-16534207Y-51718287D01*
X-16425014Y-51673058D01*
X-16425015Y-51673058D01*
X-16425012Y-51673057D01*
X-16309096Y-51650000D01*
X-16190904Y-51650000D01*
X-16074988Y-51673057D01*
G37*
G36*
X-14574988Y-51673057D02*
G01*
X-14574985Y-51673058D01*
X-14574986Y-51673058D01*
X-14465793Y-51718287D01*
X-14367522Y-51783950D01*
X-14283950Y-51867522D01*
X-14234917Y-51940905D01*
X-14218286Y-51965795D01*
X-14173057Y-52074988D01*
X-14150000Y-52190904D01*
X-14150000Y-52309096D01*
X-14173057Y-52425012D01*
X-14190056Y-52466051D01*
X-14218287Y-52534207D01*
X-14283950Y-52632478D01*
X-14367522Y-52716050D01*
X-14465793Y-52781713D01*
X-14465794Y-52781714D01*
X-14465795Y-52781714D01*
X-14574988Y-52826943D01*
X-14690904Y-52850000D01*
X-14809096Y-52850000D01*
X-14925012Y-52826943D01*
X-15034205Y-52781714D01*
X-15034206Y-52781714D01*
X-15034207Y-52781713D01*
X-15132478Y-52716050D01*
X-15216050Y-52632478D01*
X-15281713Y-52534207D01*
X-15309944Y-52466051D01*
X-15326943Y-52425012D01*
X-15350000Y-52309096D01*
X-15350000Y-52190904D01*
X-15326943Y-52074988D01*
X-15281714Y-51965795D01*
X-15265083Y-51940905D01*
X-15216050Y-51867522D01*
X-15132478Y-51783950D01*
X-15034207Y-51718287D01*
X-14925014Y-51673058D01*
X-14925015Y-51673058D01*
X-14925012Y-51673057D01*
X-14809096Y-51650000D01*
X-14690904Y-51650000D01*
X-14574988Y-51673057D01*
G37*
G36*
X-83324988Y-51423057D02*
G01*
X-83324985Y-51423058D01*
X-83324986Y-51423058D01*
X-83215793Y-51468287D01*
X-83117522Y-51533950D01*
X-83033950Y-51617522D01*
X-82996842Y-51673058D01*
X-82968286Y-51715795D01*
X-82923057Y-51824988D01*
X-82900000Y-51940904D01*
X-82900000Y-52059096D01*
X-82923057Y-52175012D01*
X-82923058Y-52175014D01*
X-82968287Y-52284207D01*
X-83033950Y-52382478D01*
X-83117522Y-52466050D01*
X-83215793Y-52531713D01*
X-83215794Y-52531714D01*
X-83215795Y-52531714D01*
X-83324988Y-52576943D01*
X-83440904Y-52600000D01*
X-83559096Y-52600000D01*
X-83675012Y-52576943D01*
X-83784205Y-52531714D01*
X-83784206Y-52531714D01*
X-83784207Y-52531713D01*
X-83882478Y-52466050D01*
X-83966050Y-52382478D01*
X-84031713Y-52284207D01*
X-84076942Y-52175014D01*
X-84076943Y-52175012D01*
X-84100000Y-52059096D01*
X-84100000Y-51940904D01*
X-84076943Y-51824988D01*
X-84031714Y-51715795D01*
X-84003158Y-51673058D01*
X-83966050Y-51617522D01*
X-83882478Y-51533950D01*
X-83784207Y-51468287D01*
X-83675014Y-51423058D01*
X-83675015Y-51423058D01*
X-83675012Y-51423057D01*
X-83559096Y-51400000D01*
X-83440904Y-51400000D01*
X-83324988Y-51423057D01*
G37*
G36*
X-84824988Y-51423057D02*
G01*
X-84824985Y-51423058D01*
X-84824986Y-51423058D01*
X-84715793Y-51468287D01*
X-84617522Y-51533950D01*
X-84533950Y-51617522D01*
X-84496842Y-51673058D01*
X-84468286Y-51715795D01*
X-84423057Y-51824988D01*
X-84400000Y-51940904D01*
X-84400000Y-52059096D01*
X-84423057Y-52175012D01*
X-84423058Y-52175014D01*
X-84468287Y-52284207D01*
X-84533950Y-52382478D01*
X-84617522Y-52466050D01*
X-84715793Y-52531713D01*
X-84715794Y-52531714D01*
X-84715795Y-52531714D01*
X-84824988Y-52576943D01*
X-84940904Y-52600000D01*
X-85059096Y-52600000D01*
X-85175012Y-52576943D01*
X-85284205Y-52531714D01*
X-85284206Y-52531714D01*
X-85284207Y-52531713D01*
X-85382478Y-52466050D01*
X-85466050Y-52382478D01*
X-85531713Y-52284207D01*
X-85576942Y-52175014D01*
X-85576943Y-52175012D01*
X-85600000Y-52059096D01*
X-85600000Y-51940904D01*
X-85576943Y-51824988D01*
X-85531714Y-51715795D01*
X-85503158Y-51673058D01*
X-85466050Y-51617522D01*
X-85382478Y-51533950D01*
X-85284207Y-51468287D01*
X-85175014Y-51423058D01*
X-85175015Y-51423058D01*
X-85175012Y-51423057D01*
X-85059096Y-51400000D01*
X-84940904Y-51400000D01*
X-84824988Y-51423057D01*
G37*
G36*
X-81824988Y-51423057D02*
G01*
X-81824985Y-51423058D01*
X-81824986Y-51423058D01*
X-81715793Y-51468287D01*
X-81617522Y-51533950D01*
X-81533950Y-51617522D01*
X-81496842Y-51673058D01*
X-81468286Y-51715795D01*
X-81423057Y-51824988D01*
X-81400000Y-51940904D01*
X-81400000Y-52059096D01*
X-81423057Y-52175012D01*
X-81423058Y-52175014D01*
X-81468287Y-52284207D01*
X-81533950Y-52382478D01*
X-81617522Y-52466050D01*
X-81715793Y-52531713D01*
X-81715794Y-52531714D01*
X-81715795Y-52531714D01*
X-81824988Y-52576943D01*
X-81940904Y-52600000D01*
X-82059096Y-52600000D01*
X-82175012Y-52576943D01*
X-82284205Y-52531714D01*
X-82284206Y-52531714D01*
X-82284207Y-52531713D01*
X-82382478Y-52466050D01*
X-82466050Y-52382478D01*
X-82531713Y-52284207D01*
X-82576942Y-52175014D01*
X-82576943Y-52175012D01*
X-82600000Y-52059096D01*
X-82600000Y-51940904D01*
X-82576943Y-51824988D01*
X-82531714Y-51715795D01*
X-82503158Y-51673058D01*
X-82466050Y-51617522D01*
X-82382478Y-51533950D01*
X-82284207Y-51468287D01*
X-82175014Y-51423058D01*
X-82175015Y-51423058D01*
X-82175012Y-51423057D01*
X-82059096Y-51400000D01*
X-81940904Y-51400000D01*
X-81824988Y-51423057D01*
G37*
G36*
X-5701313Y-49955027D02*
G01*
X-5523726Y-49990350D01*
X-5332638Y-50069502D01*
X-5160664Y-50184411D01*
X-5014411Y-50330664D01*
X-4899502Y-50502638D01*
X-4820350Y-50693726D01*
X-4792465Y-50833919D01*
X-4780000Y-50896583D01*
X-4780000Y-51103417D01*
X-4780710Y-51106986D01*
X-4820350Y-51306274D01*
X-4899502Y-51497362D01*
X-5014411Y-51669336D01*
X-5160664Y-51815589D01*
X-5332638Y-51930498D01*
X-5523726Y-52009650D01*
X-5701313Y-52044973D01*
X-5726583Y-52050000D01*
X-5933417Y-52050000D01*
X-5958687Y-52044973D01*
X-6136274Y-52009650D01*
X-6327362Y-51930498D01*
X-6499336Y-51815589D01*
X-6645589Y-51669336D01*
X-6760498Y-51497362D01*
X-6839650Y-51306274D01*
X-6879290Y-51106986D01*
X-6880000Y-51103417D01*
X-6880000Y-50896583D01*
X-6867535Y-50833919D01*
X-6839650Y-50693726D01*
X-6760498Y-50502638D01*
X-6645589Y-50330664D01*
X-6499336Y-50184411D01*
X-6327362Y-50069502D01*
X-6136274Y-49990350D01*
X-5958687Y-49955027D01*
X-5933417Y-49950000D01*
X-5726583Y-49950000D01*
X-5701313Y-49955027D01*
G37*
G36*
X-53351102Y-48897942D02*
G01*
X-53169461Y-48953043D01*
X-53002065Y-49042518D01*
X-53002064Y-49042519D01*
X-53002062Y-49042520D01*
X-52855335Y-49162935D01*
X-52734920Y-49309662D01*
X-52734918Y-49309665D01*
X-52645443Y-49477061D01*
X-52590342Y-49658703D01*
X-52576400Y-49800263D01*
X-52576400Y-50199738D01*
X-52590342Y-50341298D01*
X-52645443Y-50522939D01*
X-52734918Y-50690335D01*
X-52734920Y-50690338D01*
X-52855335Y-50837065D01*
X-52977917Y-50937665D01*
X-53002064Y-50957482D01*
X-53169462Y-51046957D01*
X-53351103Y-51102058D01*
X-53540000Y-51120662D01*
X-53728898Y-51102058D01*
X-53910539Y-51046957D01*
X-54077935Y-50957482D01*
X-54077936Y-50957481D01*
X-54077938Y-50957480D01*
X-54224665Y-50837065D01*
X-54345080Y-50690338D01*
X-54345082Y-50690336D01*
X-54434557Y-50522938D01*
X-54489658Y-50341297D01*
X-54503600Y-50199737D01*
X-54503600Y-49800262D01*
X-54489658Y-49658702D01*
X-54434557Y-49477061D01*
X-54345082Y-49309665D01*
X-54314011Y-49271805D01*
X-54224664Y-49162935D01*
X-54077937Y-49042520D01*
X-54077935Y-49042519D01*
X-54077934Y-49042518D01*
X-53910538Y-48953043D01*
X-53728897Y-48897942D01*
X-53540000Y-48879338D01*
X-53351102Y-48897942D01*
G37*
G36*
X-58431102Y-48897942D02*
G01*
X-58249461Y-48953043D01*
X-58082065Y-49042518D01*
X-58082064Y-49042519D01*
X-58082062Y-49042520D01*
X-57935335Y-49162935D01*
X-57814920Y-49309662D01*
X-57814918Y-49309665D01*
X-57725443Y-49477061D01*
X-57670342Y-49658703D01*
X-57656400Y-49800263D01*
X-57656400Y-50199738D01*
X-57670342Y-50341298D01*
X-57725443Y-50522939D01*
X-57814918Y-50690335D01*
X-57814920Y-50690338D01*
X-57935335Y-50837065D01*
X-58057917Y-50937665D01*
X-58082064Y-50957482D01*
X-58249462Y-51046957D01*
X-58431103Y-51102058D01*
X-58620000Y-51120662D01*
X-58808898Y-51102058D01*
X-58990539Y-51046957D01*
X-59157935Y-50957482D01*
X-59157936Y-50957481D01*
X-59157938Y-50957480D01*
X-59304665Y-50837065D01*
X-59425080Y-50690338D01*
X-59425082Y-50690336D01*
X-59514557Y-50522938D01*
X-59569658Y-50341297D01*
X-59583600Y-50199737D01*
X-59583600Y-49800262D01*
X-59569658Y-49658702D01*
X-59514557Y-49477061D01*
X-59425082Y-49309665D01*
X-59394011Y-49271805D01*
X-59304664Y-49162935D01*
X-59157937Y-49042520D01*
X-59157935Y-49042519D01*
X-59157934Y-49042518D01*
X-58990538Y-48953043D01*
X-58808897Y-48897942D01*
X-58620000Y-48879338D01*
X-58431102Y-48897942D01*
G37*
G36*
X-55891102Y-48897942D02*
G01*
X-55709461Y-48953043D01*
X-55542065Y-49042518D01*
X-55542064Y-49042519D01*
X-55542062Y-49042520D01*
X-55395335Y-49162935D01*
X-55274920Y-49309662D01*
X-55274918Y-49309665D01*
X-55185443Y-49477061D01*
X-55130342Y-49658703D01*
X-55116400Y-49800263D01*
X-55116400Y-50199738D01*
X-55130342Y-50341298D01*
X-55185443Y-50522939D01*
X-55274918Y-50690335D01*
X-55274920Y-50690338D01*
X-55395335Y-50837065D01*
X-55517917Y-50937665D01*
X-55542064Y-50957482D01*
X-55709462Y-51046957D01*
X-55891103Y-51102058D01*
X-56080000Y-51120662D01*
X-56268898Y-51102058D01*
X-56450539Y-51046957D01*
X-56617935Y-50957482D01*
X-56617936Y-50957481D01*
X-56617938Y-50957480D01*
X-56764665Y-50837065D01*
X-56885080Y-50690338D01*
X-56885082Y-50690336D01*
X-56974557Y-50522938D01*
X-57029658Y-50341297D01*
X-57043600Y-50199737D01*
X-57043600Y-49800262D01*
X-57029658Y-49658702D01*
X-56974557Y-49477061D01*
X-56885082Y-49309665D01*
X-56854011Y-49271805D01*
X-56764664Y-49162935D01*
X-56617937Y-49042520D01*
X-56617935Y-49042519D01*
X-56617934Y-49042518D01*
X-56450538Y-48953043D01*
X-56268897Y-48897942D01*
X-56080000Y-48879338D01*
X-55891102Y-48897942D01*
G37*
G36*
X-50404130Y-48893014D02*
G01*
X-50318481Y-48918996D01*
X-50239552Y-48961184D01*
X-50170365Y-49017965D01*
X-50113584Y-49087152D01*
X-50071396Y-49166081D01*
X-50045414Y-49251730D01*
X-50036400Y-49343254D01*
X-50036400Y-50656746D01*
X-50045414Y-50748270D01*
X-50071396Y-50833919D01*
X-50113584Y-50912848D01*
X-50170365Y-50982035D01*
X-50239552Y-51038816D01*
X-50318481Y-51081004D01*
X-50404130Y-51106986D01*
X-50495654Y-51116000D01*
X-51504346Y-51116000D01*
X-51595870Y-51106986D01*
X-51681519Y-51081004D01*
X-51760448Y-51038816D01*
X-51829635Y-50982035D01*
X-51886416Y-50912848D01*
X-51928604Y-50833919D01*
X-51954586Y-50748270D01*
X-51963600Y-50656746D01*
X-51963600Y-49343254D01*
X-51954586Y-49251730D01*
X-51928604Y-49166081D01*
X-51886416Y-49087152D01*
X-51829635Y-49017965D01*
X-51760448Y-48961184D01*
X-51681519Y-48918996D01*
X-51595870Y-48893014D01*
X-51504346Y-48884000D01*
X-50495654Y-48884000D01*
X-50404130Y-48893014D01*
G37*
G36*
X-2078101Y-47481704D02*
G01*
X-1918713Y-47513408D01*
X-1794333Y-47564928D01*
X-1618433Y-47637788D01*
X-1618432Y-47637789D01*
X-1348186Y-47818361D01*
X-1118361Y-48048186D01*
X-1027462Y-48184226D01*
X-937788Y-48318433D01*
X-813408Y-48618714D01*
X-750000Y-48937488D01*
X-750000Y-49262512D01*
X-759379Y-49309662D01*
X-813408Y-49581287D01*
X-864928Y-49705667D01*
X-937788Y-49881567D01*
X-993708Y-49965257D01*
X-1118361Y-50151814D01*
X-1348186Y-50381639D01*
X-1484226Y-50472538D01*
X-1618433Y-50562212D01*
X-1792228Y-50634200D01*
X-1918713Y-50686592D01*
X-2078101Y-50718296D01*
X-2237488Y-50750000D01*
X-2562512Y-50750000D01*
X-2721899Y-50718296D01*
X-2881287Y-50686592D01*
X-3007772Y-50634200D01*
X-3181567Y-50562212D01*
X-3315774Y-50472538D01*
X-3451814Y-50381639D01*
X-3681639Y-50151814D01*
X-3806292Y-49965257D01*
X-3862212Y-49881567D01*
X-3935072Y-49705667D01*
X-3986592Y-49581287D01*
X-4040621Y-49309662D01*
X-4050000Y-49262512D01*
X-4050000Y-48937488D01*
X-3986592Y-48618714D01*
X-3862212Y-48318433D01*
X-3772538Y-48184226D01*
X-3681639Y-48048186D01*
X-3451814Y-47818361D01*
X-3181568Y-47637789D01*
X-3181567Y-47637788D01*
X-3005667Y-47564928D01*
X-2881287Y-47513408D01*
X-2721899Y-47481704D01*
X-2562512Y-47450000D01*
X-2237488Y-47450000D01*
X-2078101Y-47481704D01*
G37*
G36*
X-11361235Y-48888821D02*
G01*
X-11224743Y-48945358D01*
X-11101904Y-49027436D01*
X-10997436Y-49131904D01*
X-10915358Y-49254743D01*
X-10858821Y-49391235D01*
X-10830000Y-49536130D01*
X-10830000Y-49683870D01*
X-10858821Y-49828765D01*
X-10915358Y-49965257D01*
X-10997436Y-50088096D01*
X-11101904Y-50192564D01*
X-11224743Y-50274642D01*
X-11361235Y-50331179D01*
X-11506130Y-50360000D01*
X-11653870Y-50360000D01*
X-11798765Y-50331179D01*
X-11935257Y-50274642D01*
X-12058096Y-50192564D01*
X-12162564Y-50088096D01*
X-12244642Y-49965257D01*
X-12301179Y-49828765D01*
X-12330000Y-49683870D01*
X-12330000Y-49536130D01*
X-12301179Y-49391235D01*
X-12244642Y-49254743D01*
X-12162564Y-49131904D01*
X-12058096Y-49027436D01*
X-11935257Y-48945358D01*
X-11798765Y-48888821D01*
X-11653870Y-48860000D01*
X-11506130Y-48860000D01*
X-11361235Y-48888821D01*
G37*
G36*
X-11361235Y-46598821D02*
G01*
X-11224743Y-46655358D01*
X-11101904Y-46737436D01*
X-10997436Y-46841904D01*
X-10915358Y-46964743D01*
X-10858821Y-47101235D01*
X-10830000Y-47246130D01*
X-10830000Y-47393870D01*
X-10858821Y-47538765D01*
X-10915358Y-47675257D01*
X-10997436Y-47798096D01*
X-11101904Y-47902564D01*
X-11224743Y-47984642D01*
X-11361235Y-48041179D01*
X-11506130Y-48070000D01*
X-11653870Y-48070000D01*
X-11798765Y-48041179D01*
X-11935257Y-47984642D01*
X-12058096Y-47902564D01*
X-12162564Y-47798096D01*
X-12244642Y-47675257D01*
X-12301179Y-47538765D01*
X-12330000Y-47393870D01*
X-12330000Y-47246130D01*
X-12301179Y-47101235D01*
X-12244642Y-46964743D01*
X-12162564Y-46841904D01*
X-12058096Y-46737436D01*
X-11935257Y-46655358D01*
X-11798765Y-46598821D01*
X-11653870Y-46570000D01*
X-11506130Y-46570000D01*
X-11361235Y-46598821D01*
G37*
G36*
X-4721235Y-45598821D02*
G01*
X-4584743Y-45655358D01*
X-4461904Y-45737436D01*
X-4357436Y-45841904D01*
X-4275358Y-45964743D01*
X-4218821Y-46101235D01*
X-4190000Y-46246130D01*
X-4190000Y-46393870D01*
X-4218821Y-46538765D01*
X-4275358Y-46675257D01*
X-4357436Y-46798096D01*
X-4461904Y-46902564D01*
X-4584743Y-46984642D01*
X-4721235Y-47041179D01*
X-4866130Y-47070000D01*
X-5013870Y-47070000D01*
X-5158765Y-47041179D01*
X-5295257Y-46984642D01*
X-5418096Y-46902564D01*
X-5522564Y-46798096D01*
X-5604642Y-46675257D01*
X-5661179Y-46538765D01*
X-5690000Y-46393870D01*
X-5690000Y-46246130D01*
X-5661179Y-46101235D01*
X-5604642Y-45964743D01*
X-5522564Y-45841904D01*
X-5418096Y-45737436D01*
X-5295257Y-45655358D01*
X-5158765Y-45598821D01*
X-5013870Y-45570000D01*
X-4866130Y-45570000D01*
X-4721235Y-45598821D01*
G37*
G36*
X-6501235Y-44578821D02*
G01*
X-6364743Y-44635358D01*
X-6241904Y-44717436D01*
X-6137436Y-44821904D01*
X-6055358Y-44944743D01*
X-5998821Y-45081235D01*
X-5970000Y-45226130D01*
X-5970000Y-45373870D01*
X-5998821Y-45518765D01*
X-6055358Y-45655257D01*
X-6137436Y-45778096D01*
X-6241904Y-45882564D01*
X-6364743Y-45964642D01*
X-6501235Y-46021179D01*
X-6646130Y-46050000D01*
X-6793870Y-46050000D01*
X-6938765Y-46021179D01*
X-7075257Y-45964642D01*
X-7198096Y-45882564D01*
X-7302564Y-45778096D01*
X-7384642Y-45655257D01*
X-7441179Y-45518765D01*
X-7470000Y-45373870D01*
X-7470000Y-45226130D01*
X-7441179Y-45081235D01*
X-7384642Y-44944743D01*
X-7302564Y-44821904D01*
X-7198096Y-44717436D01*
X-7075257Y-44635358D01*
X-6938765Y-44578821D01*
X-6793870Y-44550000D01*
X-6646130Y-44550000D01*
X-6501235Y-44578821D01*
G37*
G36*
X-4721235Y-43558821D02*
G01*
X-4584743Y-43615358D01*
X-4461904Y-43697436D01*
X-4357436Y-43801904D01*
X-4275358Y-43924743D01*
X-4218821Y-44061235D01*
X-4190000Y-44206130D01*
X-4190000Y-44353870D01*
X-4218821Y-44498765D01*
X-4275358Y-44635257D01*
X-4357436Y-44758096D01*
X-4461904Y-44862564D01*
X-4584743Y-44944642D01*
X-4721235Y-45001179D01*
X-4866130Y-45030000D01*
X-5013870Y-45030000D01*
X-5158765Y-45001179D01*
X-5295257Y-44944642D01*
X-5418096Y-44862564D01*
X-5522564Y-44758096D01*
X-5604642Y-44635257D01*
X-5661179Y-44498765D01*
X-5690000Y-44353870D01*
X-5690000Y-44206130D01*
X-5661179Y-44061235D01*
X-5604642Y-43924743D01*
X-5522564Y-43801904D01*
X-5418096Y-43697436D01*
X-5295257Y-43615358D01*
X-5158765Y-43558821D01*
X-5013870Y-43530000D01*
X-4866130Y-43530000D01*
X-4721235Y-43558821D01*
G37*
G36*
X-6501235Y-42538821D02*
G01*
X-6364743Y-42595358D01*
X-6241904Y-42677436D01*
X-6137436Y-42781904D01*
X-6055358Y-42904743D01*
X-5998821Y-43041235D01*
X-5970000Y-43186130D01*
X-5970000Y-43333870D01*
X-5998821Y-43478765D01*
X-6055358Y-43615257D01*
X-6137436Y-43738096D01*
X-6241904Y-43842564D01*
X-6364743Y-43924642D01*
X-6501235Y-43981179D01*
X-6646130Y-44010000D01*
X-6793870Y-44010000D01*
X-6938765Y-43981179D01*
X-7075257Y-43924642D01*
X-7198096Y-43842564D01*
X-7302564Y-43738096D01*
X-7384642Y-43615257D01*
X-7441179Y-43478765D01*
X-7470000Y-43333870D01*
X-7470000Y-43186130D01*
X-7441179Y-43041235D01*
X-7384642Y-42904743D01*
X-7302564Y-42781904D01*
X-7198096Y-42677436D01*
X-7075257Y-42595358D01*
X-6938765Y-42538821D01*
X-6793870Y-42510000D01*
X-6646130Y-42510000D01*
X-6501235Y-42538821D01*
G37*
G36*
X-4721235Y-41518821D02*
G01*
X-4584743Y-41575358D01*
X-4461904Y-41657436D01*
X-4357436Y-41761904D01*
X-4275358Y-41884743D01*
X-4218821Y-42021235D01*
X-4190000Y-42166130D01*
X-4190000Y-42313870D01*
X-4218821Y-42458765D01*
X-4275358Y-42595257D01*
X-4357436Y-42718096D01*
X-4461904Y-42822564D01*
X-4584743Y-42904642D01*
X-4721235Y-42961179D01*
X-4866130Y-42990000D01*
X-5013870Y-42990000D01*
X-5158765Y-42961179D01*
X-5295257Y-42904642D01*
X-5418096Y-42822564D01*
X-5522564Y-42718096D01*
X-5604642Y-42595257D01*
X-5661179Y-42458765D01*
X-5690000Y-42313870D01*
X-5690000Y-42166130D01*
X-5661179Y-42021235D01*
X-5604642Y-41884743D01*
X-5522564Y-41761904D01*
X-5418096Y-41657436D01*
X-5295257Y-41575358D01*
X-5158765Y-41518821D01*
X-5013870Y-41490000D01*
X-4866130Y-41490000D01*
X-4721235Y-41518821D01*
G37*
G36*
X-6501235Y-40498821D02*
G01*
X-6364743Y-40555358D01*
X-6241904Y-40637436D01*
X-6137436Y-40741904D01*
X-6055358Y-40864743D01*
X-5998821Y-41001235D01*
X-5970000Y-41146130D01*
X-5970000Y-41293870D01*
X-5998821Y-41438765D01*
X-6055358Y-41575257D01*
X-6137436Y-41698096D01*
X-6241904Y-41802564D01*
X-6364743Y-41884642D01*
X-6501235Y-41941179D01*
X-6646130Y-41970000D01*
X-6793870Y-41970000D01*
X-6938765Y-41941179D01*
X-7075257Y-41884642D01*
X-7198096Y-41802564D01*
X-7302564Y-41698096D01*
X-7384642Y-41575257D01*
X-7441179Y-41438765D01*
X-7470000Y-41293870D01*
X-7470000Y-41146130D01*
X-7441179Y-41001235D01*
X-7384642Y-40864743D01*
X-7302564Y-40741904D01*
X-7198096Y-40637436D01*
X-7075257Y-40555358D01*
X-6938765Y-40498821D01*
X-6793870Y-40470000D01*
X-6646130Y-40470000D01*
X-6501235Y-40498821D01*
G37*
G36*
X-4721235Y-39478821D02*
G01*
X-4584743Y-39535358D01*
X-4461904Y-39617436D01*
X-4357436Y-39721904D01*
X-4275358Y-39844743D01*
X-4218821Y-39981235D01*
X-4190000Y-40126130D01*
X-4190000Y-40273870D01*
X-4218821Y-40418765D01*
X-4275358Y-40555257D01*
X-4357436Y-40678096D01*
X-4461904Y-40782564D01*
X-4584743Y-40864642D01*
X-4721235Y-40921179D01*
X-4866130Y-40950000D01*
X-5013870Y-40950000D01*
X-5158765Y-40921179D01*
X-5295257Y-40864642D01*
X-5418096Y-40782564D01*
X-5522564Y-40678096D01*
X-5604642Y-40555257D01*
X-5661179Y-40418765D01*
X-5690000Y-40273870D01*
X-5690000Y-40126130D01*
X-5661179Y-39981235D01*
X-5604642Y-39844743D01*
X-5522564Y-39721904D01*
X-5418096Y-39617436D01*
X-5295257Y-39535358D01*
X-5158765Y-39478821D01*
X-5013870Y-39450000D01*
X-4866130Y-39450000D01*
X-4721235Y-39478821D01*
G37*
G36*
X-6501235Y-38458821D02*
G01*
X-6364743Y-38515358D01*
X-6241904Y-38597436D01*
X-6137436Y-38701904D01*
X-6055358Y-38824743D01*
X-5998821Y-38961235D01*
X-5970000Y-39106130D01*
X-5970000Y-39253870D01*
X-5998821Y-39398765D01*
X-6055358Y-39535257D01*
X-6137436Y-39658096D01*
X-6241904Y-39762564D01*
X-6364743Y-39844642D01*
X-6501235Y-39901179D01*
X-6646130Y-39930000D01*
X-6793870Y-39930000D01*
X-6938765Y-39901179D01*
X-7075257Y-39844642D01*
X-7198096Y-39762564D01*
X-7302564Y-39658096D01*
X-7384642Y-39535257D01*
X-7441179Y-39398765D01*
X-7470000Y-39253870D01*
X-7470000Y-39106130D01*
X-7441179Y-38961235D01*
X-7384642Y-38824743D01*
X-7302564Y-38701904D01*
X-7198096Y-38597436D01*
X-7075257Y-38515358D01*
X-6938765Y-38458821D01*
X-6793870Y-38430000D01*
X-6646130Y-38430000D01*
X-6501235Y-38458821D01*
G37*
G36*
X-11361235Y-37458821D02*
G01*
X-11224743Y-37515358D01*
X-11101904Y-37597436D01*
X-10997436Y-37701904D01*
X-10915358Y-37824743D01*
X-10858821Y-37961235D01*
X-10830000Y-38106130D01*
X-10830000Y-38253870D01*
X-10858821Y-38398765D01*
X-10915358Y-38535257D01*
X-10997436Y-38658096D01*
X-11101904Y-38762564D01*
X-11224743Y-38844642D01*
X-11361235Y-38901179D01*
X-11506130Y-38930000D01*
X-11653870Y-38930000D01*
X-11798765Y-38901179D01*
X-11935257Y-38844642D01*
X-12058096Y-38762564D01*
X-12162564Y-38658096D01*
X-12244642Y-38535257D01*
X-12301179Y-38398765D01*
X-12330000Y-38253870D01*
X-12330000Y-38106130D01*
X-12301179Y-37961235D01*
X-12244642Y-37824743D01*
X-12162564Y-37701904D01*
X-12058096Y-37597436D01*
X-11935257Y-37515358D01*
X-11798765Y-37458821D01*
X-11653870Y-37430000D01*
X-11506130Y-37430000D01*
X-11361235Y-37458821D01*
G37*
G36*
X-2078101Y-34781704D02*
G01*
X-1918713Y-34813408D01*
X-1794333Y-34864928D01*
X-1618433Y-34937788D01*
X-1618432Y-34937789D01*
X-1348186Y-35118361D01*
X-1118361Y-35348186D01*
X-1118360Y-35348188D01*
X-937788Y-35618433D01*
X-915918Y-35671233D01*
X-855899Y-35816130D01*
X-813408Y-35918714D01*
X-750000Y-36237488D01*
X-750000Y-36562512D01*
X-813408Y-36881286D01*
X-937788Y-37181567D01*
X-937789Y-37181568D01*
X-1118361Y-37451814D01*
X-1348186Y-37681639D01*
X-1378515Y-37701904D01*
X-1618433Y-37862212D01*
X-1794333Y-37935072D01*
X-1918713Y-37986592D01*
X-2078101Y-38018296D01*
X-2237488Y-38050000D01*
X-2562512Y-38050000D01*
X-2721899Y-38018296D01*
X-2881287Y-37986592D01*
X-3005667Y-37935072D01*
X-3181567Y-37862212D01*
X-3421485Y-37701904D01*
X-3451814Y-37681639D01*
X-3681639Y-37451814D01*
X-3862211Y-37181568D01*
X-3862212Y-37181567D01*
X-3986592Y-36881286D01*
X-4050000Y-36562512D01*
X-4050000Y-36237488D01*
X-3986592Y-35918714D01*
X-3944100Y-35816130D01*
X-3884082Y-35671233D01*
X-3862212Y-35618433D01*
X-3681640Y-35348188D01*
X-3681639Y-35348186D01*
X-3451814Y-35118361D01*
X-3181568Y-34937789D01*
X-3181567Y-34937788D01*
X-3005667Y-34864928D01*
X-2881287Y-34813408D01*
X-2721899Y-34781704D01*
X-2562512Y-34750000D01*
X-2237488Y-34750000D01*
X-2078101Y-34781704D01*
G37*
G36*
X-11361235Y-35168821D02*
G01*
X-11224743Y-35225358D01*
X-11101904Y-35307436D01*
X-10997436Y-35411904D01*
X-10915358Y-35534743D01*
X-10858821Y-35671235D01*
X-10830000Y-35816130D01*
X-10830000Y-35963870D01*
X-10858821Y-36108765D01*
X-10915358Y-36245257D01*
X-10997436Y-36368096D01*
X-11101904Y-36472564D01*
X-11224743Y-36554642D01*
X-11361235Y-36611179D01*
X-11506130Y-36640000D01*
X-11653870Y-36640000D01*
X-11798765Y-36611179D01*
X-11935257Y-36554642D01*
X-12058096Y-36472564D01*
X-12162564Y-36368096D01*
X-12244642Y-36245257D01*
X-12301179Y-36108765D01*
X-12330000Y-35963870D01*
X-12330000Y-35816130D01*
X-12301179Y-35671235D01*
X-12244642Y-35534743D01*
X-12162564Y-35411904D01*
X-12058096Y-35307436D01*
X-11935257Y-35225358D01*
X-11798765Y-35168821D01*
X-11653870Y-35140000D01*
X-11506130Y-35140000D01*
X-11361235Y-35168821D01*
G37*
G36*
X-5701313Y-33455027D02*
G01*
X-5523726Y-33490350D01*
X-5332638Y-33569502D01*
X-5160664Y-33684411D01*
X-5014411Y-33830664D01*
X-4899502Y-34002638D01*
X-4820350Y-34193726D01*
X-4780000Y-34396584D01*
X-4780000Y-34603416D01*
X-4820350Y-34806274D01*
X-4899502Y-34997362D01*
X-5014411Y-35169336D01*
X-5160664Y-35315589D01*
X-5332638Y-35430498D01*
X-5523726Y-35509650D01*
X-5701313Y-35544973D01*
X-5726583Y-35550000D01*
X-5933417Y-35550000D01*
X-5958687Y-35544973D01*
X-6136274Y-35509650D01*
X-6327362Y-35430498D01*
X-6499336Y-35315589D01*
X-6645589Y-35169336D01*
X-6760498Y-34997362D01*
X-6839650Y-34806274D01*
X-6880000Y-34603416D01*
X-6880000Y-34396584D01*
X-6839650Y-34193726D01*
X-6760498Y-34002638D01*
X-6645589Y-33830664D01*
X-6499336Y-33684411D01*
X-6327362Y-33569502D01*
X-6136274Y-33490350D01*
X-5958687Y-33455027D01*
X-5933417Y-33450000D01*
X-5726583Y-33450000D01*
X-5701313Y-33455027D01*
G37*
G36*
X-2078101Y-30981704D02*
G01*
X-1918713Y-31013408D01*
X-1794333Y-31064928D01*
X-1618433Y-31137788D01*
X-1618432Y-31137789D01*
X-1348186Y-31318361D01*
X-1118361Y-31548186D01*
X-1027462Y-31684226D01*
X-937788Y-31818433D01*
X-904002Y-31900000D01*
X-813408Y-32118713D01*
X-781704Y-32278101D01*
X-759680Y-32388821D01*
X-750000Y-32437489D01*
X-750000Y-32762511D01*
X-813408Y-33081287D01*
X-864928Y-33205667D01*
X-937788Y-33381567D01*
X-993708Y-33465257D01*
X-1118361Y-33651814D01*
X-1348186Y-33881639D01*
X-1484226Y-33972538D01*
X-1618433Y-34062212D01*
X-1794333Y-34135072D01*
X-1918713Y-34186592D01*
X-2078101Y-34218296D01*
X-2237488Y-34250000D01*
X-2562512Y-34250000D01*
X-2721899Y-34218296D01*
X-2881287Y-34186592D01*
X-3005667Y-34135072D01*
X-3181567Y-34062212D01*
X-3315774Y-33972538D01*
X-3451814Y-33881639D01*
X-3681639Y-33651814D01*
X-3806292Y-33465257D01*
X-3862212Y-33381567D01*
X-3935072Y-33205667D01*
X-3986592Y-33081287D01*
X-4050000Y-32762511D01*
X-4050000Y-32437489D01*
X-4040319Y-32388821D01*
X-4018296Y-32278101D01*
X-3986592Y-32118713D01*
X-3895998Y-31900000D01*
X-3862212Y-31818433D01*
X-3772538Y-31684226D01*
X-3681639Y-31548186D01*
X-3451814Y-31318361D01*
X-3181568Y-31137789D01*
X-3181567Y-31137788D01*
X-3005667Y-31064928D01*
X-2881287Y-31013408D01*
X-2721899Y-30981704D01*
X-2562512Y-30950000D01*
X-2237488Y-30950000D01*
X-2078101Y-30981704D01*
G37*
G36*
X-11361235Y-32388821D02*
G01*
X-11224743Y-32445358D01*
X-11101904Y-32527436D01*
X-10997436Y-32631904D01*
X-10915358Y-32754743D01*
X-10858821Y-32891235D01*
X-10830000Y-33036130D01*
X-10830000Y-33183870D01*
X-10858821Y-33328765D01*
X-10915358Y-33465257D01*
X-10997436Y-33588096D01*
X-11101904Y-33692564D01*
X-11224743Y-33774642D01*
X-11361235Y-33831179D01*
X-11506130Y-33860000D01*
X-11653870Y-33860000D01*
X-11798765Y-33831179D01*
X-11935257Y-33774642D01*
X-12058096Y-33692564D01*
X-12162564Y-33588096D01*
X-12244642Y-33465257D01*
X-12301179Y-33328765D01*
X-12330000Y-33183870D01*
X-12330000Y-33036130D01*
X-12301179Y-32891235D01*
X-12244642Y-32754743D01*
X-12162564Y-32631904D01*
X-12058096Y-32527436D01*
X-11935257Y-32445358D01*
X-11798765Y-32388821D01*
X-11653870Y-32360000D01*
X-11506130Y-32360000D01*
X-11361235Y-32388821D01*
G37*
G36*
X-94752066Y-31932664D02*
G01*
X-94597375Y-31996739D01*
X-94597374Y-31996740D01*
X-94458156Y-32089762D01*
X-94339762Y-32208156D01*
X-94339761Y-32208158D01*
X-94246739Y-32347375D01*
X-94182664Y-32502066D01*
X-94150000Y-32666281D01*
X-94150000Y-32833719D01*
X-94182664Y-32997934D01*
X-94246739Y-33152625D01*
X-94246740Y-33152626D01*
X-94339762Y-33291844D01*
X-94458156Y-33410238D01*
X-94517664Y-33450000D01*
X-94597375Y-33503261D01*
X-94752066Y-33567336D01*
X-94916281Y-33600000D01*
X-95083719Y-33600000D01*
X-95247934Y-33567336D01*
X-95402625Y-33503261D01*
X-95482336Y-33450000D01*
X-95541844Y-33410238D01*
X-95660238Y-33291844D01*
X-95753260Y-33152626D01*
X-95753261Y-33152625D01*
X-95817336Y-32997934D01*
X-95850000Y-32833719D01*
X-95850000Y-32666281D01*
X-95817336Y-32502066D01*
X-95753261Y-32347375D01*
X-95660239Y-32208158D01*
X-95660238Y-32208156D01*
X-95541844Y-32089762D01*
X-95402626Y-31996740D01*
X-95402625Y-31996739D01*
X-95247934Y-31932664D01*
X-95083719Y-31900000D01*
X-94916281Y-31900000D01*
X-94752066Y-31932664D01*
G37*
G36*
X-11361235Y-30098821D02*
G01*
X-11224743Y-30155358D01*
X-11101904Y-30237436D01*
X-10997436Y-30341904D01*
X-10915358Y-30464743D01*
X-10858821Y-30601235D01*
X-10830000Y-30746130D01*
X-10830000Y-30893870D01*
X-10858821Y-31038765D01*
X-10915358Y-31175257D01*
X-10997436Y-31298096D01*
X-11101904Y-31402564D01*
X-11224743Y-31484642D01*
X-11361235Y-31541179D01*
X-11506130Y-31570000D01*
X-11653870Y-31570000D01*
X-11798765Y-31541179D01*
X-11935257Y-31484642D01*
X-12058096Y-31402564D01*
X-12162564Y-31298096D01*
X-12244642Y-31175257D01*
X-12301179Y-31038765D01*
X-12330000Y-30893870D01*
X-12330000Y-30746130D01*
X-12301179Y-30601235D01*
X-12244642Y-30464743D01*
X-12162564Y-30341904D01*
X-12058096Y-30237436D01*
X-11935257Y-30155358D01*
X-11798765Y-30098821D01*
X-11653870Y-30070000D01*
X-11506130Y-30070000D01*
X-11361235Y-30098821D01*
G37*
G36*
X-4721235Y-29098821D02*
G01*
X-4584743Y-29155358D01*
X-4461904Y-29237436D01*
X-4357436Y-29341904D01*
X-4275358Y-29464743D01*
X-4218821Y-29601235D01*
X-4190000Y-29746130D01*
X-4190000Y-29893870D01*
X-4218821Y-30038765D01*
X-4275358Y-30175257D01*
X-4357436Y-30298096D01*
X-4461904Y-30402564D01*
X-4584743Y-30484642D01*
X-4721235Y-30541179D01*
X-4866130Y-30570000D01*
X-5013870Y-30570000D01*
X-5158765Y-30541179D01*
X-5295257Y-30484642D01*
X-5418096Y-30402564D01*
X-5522564Y-30298096D01*
X-5604642Y-30175257D01*
X-5661179Y-30038765D01*
X-5690000Y-29893870D01*
X-5690000Y-29746130D01*
X-5661179Y-29601235D01*
X-5604642Y-29464743D01*
X-5522564Y-29341904D01*
X-5418096Y-29237436D01*
X-5295257Y-29155358D01*
X-5158765Y-29098821D01*
X-5013870Y-29070000D01*
X-4866130Y-29070000D01*
X-4721235Y-29098821D01*
G37*
G36*
X-94752066Y-28432664D02*
G01*
X-94597375Y-28496739D01*
X-94528238Y-28542935D01*
X-94458156Y-28589762D01*
X-94339762Y-28708156D01*
X-94339761Y-28708158D01*
X-94246739Y-28847375D01*
X-94182664Y-29002066D01*
X-94150000Y-29166281D01*
X-94150000Y-29333719D01*
X-94182664Y-29497934D01*
X-94246739Y-29652625D01*
X-94246740Y-29652626D01*
X-94339762Y-29791844D01*
X-94458156Y-29910238D01*
X-94528238Y-29957065D01*
X-94597375Y-30003261D01*
X-94752066Y-30067336D01*
X-94916281Y-30100000D01*
X-95083719Y-30100000D01*
X-95247934Y-30067336D01*
X-95402625Y-30003261D01*
X-95471762Y-29957065D01*
X-95541844Y-29910238D01*
X-95660238Y-29791844D01*
X-95753260Y-29652626D01*
X-95753261Y-29652625D01*
X-95817336Y-29497934D01*
X-95850000Y-29333719D01*
X-95850000Y-29166281D01*
X-95817336Y-29002066D01*
X-95753261Y-28847375D01*
X-95660239Y-28708158D01*
X-95660238Y-28708156D01*
X-95541844Y-28589762D01*
X-95471762Y-28542935D01*
X-95402625Y-28496739D01*
X-95247934Y-28432664D01*
X-95083719Y-28400000D01*
X-94916281Y-28400000D01*
X-94752066Y-28432664D01*
G37*
G36*
X-6501235Y-28078821D02*
G01*
X-6364743Y-28135358D01*
X-6241904Y-28217436D01*
X-6137436Y-28321904D01*
X-6055358Y-28444743D01*
X-5998821Y-28581235D01*
X-5970000Y-28726130D01*
X-5970000Y-28873870D01*
X-5998821Y-29018765D01*
X-6055358Y-29155257D01*
X-6137436Y-29278096D01*
X-6241904Y-29382564D01*
X-6364743Y-29464642D01*
X-6501235Y-29521179D01*
X-6646130Y-29550000D01*
X-6793870Y-29550000D01*
X-6938765Y-29521179D01*
X-7075257Y-29464642D01*
X-7198096Y-29382564D01*
X-7302564Y-29278096D01*
X-7384642Y-29155257D01*
X-7441179Y-29018765D01*
X-7470000Y-28873870D01*
X-7470000Y-28726130D01*
X-7441179Y-28581235D01*
X-7384642Y-28444743D01*
X-7302564Y-28321904D01*
X-7198096Y-28217436D01*
X-7075257Y-28135358D01*
X-6938765Y-28078821D01*
X-6793870Y-28050000D01*
X-6646130Y-28050000D01*
X-6501235Y-28078821D01*
G37*
G36*
X-4721235Y-27058821D02*
G01*
X-4584743Y-27115358D01*
X-4461904Y-27197436D01*
X-4357436Y-27301904D01*
X-4275358Y-27424743D01*
X-4218821Y-27561235D01*
X-4190000Y-27706130D01*
X-4190000Y-27853870D01*
X-4218821Y-27998765D01*
X-4275358Y-28135257D01*
X-4357436Y-28258096D01*
X-4461904Y-28362564D01*
X-4584743Y-28444642D01*
X-4721235Y-28501179D01*
X-4866130Y-28530000D01*
X-5013870Y-28530000D01*
X-5158765Y-28501179D01*
X-5295257Y-28444642D01*
X-5418096Y-28362564D01*
X-5522564Y-28258096D01*
X-5604642Y-28135257D01*
X-5661179Y-27998765D01*
X-5690000Y-27853870D01*
X-5690000Y-27706130D01*
X-5661179Y-27561235D01*
X-5604642Y-27424743D01*
X-5522564Y-27301904D01*
X-5418096Y-27197436D01*
X-5295257Y-27115358D01*
X-5158765Y-27058821D01*
X-5013870Y-27030000D01*
X-4866130Y-27030000D01*
X-4721235Y-27058821D01*
G37*
G36*
X-6501235Y-26038821D02*
G01*
X-6364743Y-26095358D01*
X-6241904Y-26177436D01*
X-6137436Y-26281904D01*
X-6055358Y-26404743D01*
X-5998821Y-26541235D01*
X-5970000Y-26686130D01*
X-5970000Y-26833870D01*
X-5998821Y-26978765D01*
X-6055358Y-27115257D01*
X-6137436Y-27238096D01*
X-6241904Y-27342564D01*
X-6364743Y-27424642D01*
X-6501235Y-27481179D01*
X-6646130Y-27510000D01*
X-6793870Y-27510000D01*
X-6938765Y-27481179D01*
X-7075257Y-27424642D01*
X-7198096Y-27342564D01*
X-7302564Y-27238096D01*
X-7384642Y-27115257D01*
X-7441179Y-26978765D01*
X-7470000Y-26833870D01*
X-7470000Y-26686130D01*
X-7441179Y-26541235D01*
X-7384642Y-26404743D01*
X-7302564Y-26281904D01*
X-7198096Y-26177436D01*
X-7075257Y-26095358D01*
X-6938765Y-26038821D01*
X-6793870Y-26010000D01*
X-6646130Y-26010000D01*
X-6501235Y-26038821D01*
G37*
G36*
X-94752066Y-24932664D02*
G01*
X-94597375Y-24996739D01*
X-94597374Y-24996740D01*
X-94458156Y-25089762D01*
X-94339762Y-25208156D01*
X-94339761Y-25208158D01*
X-94246739Y-25347375D01*
X-94182664Y-25502066D01*
X-94150000Y-25666281D01*
X-94150000Y-25833719D01*
X-94182664Y-25997934D01*
X-94246739Y-26152625D01*
X-94246740Y-26152626D01*
X-94339762Y-26291844D01*
X-94458156Y-26410238D01*
X-94528238Y-26457065D01*
X-94597375Y-26503261D01*
X-94752066Y-26567336D01*
X-94916281Y-26600000D01*
X-95083719Y-26600000D01*
X-95247934Y-26567336D01*
X-95402625Y-26503261D01*
X-95471762Y-26457065D01*
X-95541844Y-26410238D01*
X-95660238Y-26291844D01*
X-95753260Y-26152626D01*
X-95753261Y-26152625D01*
X-95817336Y-25997934D01*
X-95850000Y-25833719D01*
X-95850000Y-25666281D01*
X-95817336Y-25502066D01*
X-95753261Y-25347375D01*
X-95660239Y-25208158D01*
X-95660238Y-25208156D01*
X-95541844Y-25089762D01*
X-95402626Y-24996740D01*
X-95402625Y-24996739D01*
X-95247934Y-24932664D01*
X-95083719Y-24900000D01*
X-94916281Y-24900000D01*
X-94752066Y-24932664D01*
G37*
G36*
X-4721235Y-25018821D02*
G01*
X-4584743Y-25075358D01*
X-4461904Y-25157436D01*
X-4357436Y-25261904D01*
X-4275358Y-25384743D01*
X-4218821Y-25521235D01*
X-4190000Y-25666130D01*
X-4190000Y-25813870D01*
X-4218821Y-25958765D01*
X-4275358Y-26095257D01*
X-4357436Y-26218096D01*
X-4461904Y-26322564D01*
X-4584743Y-26404642D01*
X-4721235Y-26461179D01*
X-4866130Y-26490000D01*
X-5013870Y-26490000D01*
X-5158765Y-26461179D01*
X-5295257Y-26404642D01*
X-5418096Y-26322564D01*
X-5522564Y-26218096D01*
X-5604642Y-26095257D01*
X-5661179Y-25958765D01*
X-5690000Y-25813870D01*
X-5690000Y-25666130D01*
X-5661179Y-25521235D01*
X-5604642Y-25384743D01*
X-5522564Y-25261904D01*
X-5418096Y-25157436D01*
X-5295257Y-25075358D01*
X-5158765Y-25018821D01*
X-5013870Y-24990000D01*
X-4866130Y-24990000D01*
X-4721235Y-25018821D01*
G37*
G36*
X-6501235Y-23998821D02*
G01*
X-6364743Y-24055358D01*
X-6241904Y-24137436D01*
X-6137436Y-24241904D01*
X-6055358Y-24364743D01*
X-5998821Y-24501235D01*
X-5970000Y-24646130D01*
X-5970000Y-24793870D01*
X-5998821Y-24938765D01*
X-6055358Y-25075257D01*
X-6137436Y-25198096D01*
X-6241904Y-25302564D01*
X-6364743Y-25384642D01*
X-6501235Y-25441179D01*
X-6646130Y-25470000D01*
X-6793870Y-25470000D01*
X-6938765Y-25441179D01*
X-7075257Y-25384642D01*
X-7198096Y-25302564D01*
X-7302564Y-25198096D01*
X-7384642Y-25075257D01*
X-7441179Y-24938765D01*
X-7470000Y-24793870D01*
X-7470000Y-24646130D01*
X-7441179Y-24501235D01*
X-7384642Y-24364743D01*
X-7302564Y-24241904D01*
X-7198096Y-24137436D01*
X-7075257Y-24055358D01*
X-6938765Y-23998821D01*
X-6793870Y-23970000D01*
X-6646130Y-23970000D01*
X-6501235Y-23998821D01*
G37*
G36*
X-66093701Y-20336465D02*
G01*
X-65684227Y-20506075D01*
X-65684225Y-20506076D01*
X-65315708Y-20752311D01*
X-65002311Y-21065708D01*
X-64756076Y-21434225D01*
X-64756075Y-21434227D01*
X-64586465Y-21843701D01*
X-64500000Y-22278393D01*
X-64500000Y-22721607D01*
X-64586465Y-23156299D01*
X-64687898Y-23401179D01*
X-64756076Y-23565775D01*
X-65002311Y-23934292D01*
X-65315708Y-24247689D01*
X-65684225Y-24493924D01*
X-65684226Y-24493925D01*
X-65684227Y-24493925D01*
X-66093701Y-24663535D01*
X-66528393Y-24750000D01*
X-66971607Y-24750000D01*
X-67406299Y-24663535D01*
X-67815773Y-24493925D01*
X-67815774Y-24493925D01*
X-67815775Y-24493924D01*
X-68184292Y-24247689D01*
X-68497689Y-23934292D01*
X-68743924Y-23565775D01*
X-68812102Y-23401179D01*
X-68913535Y-23156299D01*
X-69000000Y-22721607D01*
X-69000000Y-22278393D01*
X-68913535Y-21843701D01*
X-68743925Y-21434227D01*
X-68743924Y-21434225D01*
X-68497689Y-21065708D01*
X-68184292Y-20752311D01*
X-67815775Y-20506076D01*
X-67815773Y-20506075D01*
X-67406299Y-20336465D01*
X-66971607Y-20250000D01*
X-66528393Y-20250000D01*
X-66093701Y-20336465D01*
G37*
G36*
X-4721235Y-22978821D02*
G01*
X-4584743Y-23035358D01*
X-4461904Y-23117436D01*
X-4357436Y-23221904D01*
X-4275358Y-23344743D01*
X-4218821Y-23481235D01*
X-4190000Y-23626130D01*
X-4190000Y-23773870D01*
X-4218821Y-23918765D01*
X-4275358Y-24055257D01*
X-4357436Y-24178096D01*
X-4461904Y-24282564D01*
X-4584743Y-24364642D01*
X-4721235Y-24421179D01*
X-4866130Y-24450000D01*
X-5013870Y-24450000D01*
X-5158765Y-24421179D01*
X-5295257Y-24364642D01*
X-5418096Y-24282564D01*
X-5522564Y-24178096D01*
X-5604642Y-24055257D01*
X-5661179Y-23918765D01*
X-5690000Y-23773870D01*
X-5690000Y-23626130D01*
X-5661179Y-23481235D01*
X-5604642Y-23344743D01*
X-5522564Y-23221904D01*
X-5418096Y-23117436D01*
X-5295257Y-23035358D01*
X-5158765Y-22978821D01*
X-5013870Y-22950000D01*
X-4866130Y-22950000D01*
X-4721235Y-22978821D01*
G37*
G36*
X-6501235Y-21958821D02*
G01*
X-6364743Y-22015358D01*
X-6241904Y-22097436D01*
X-6137436Y-22201904D01*
X-6055358Y-22324743D01*
X-5998821Y-22461235D01*
X-5970000Y-22606130D01*
X-5970000Y-22753870D01*
X-5998821Y-22898765D01*
X-6055358Y-23035257D01*
X-6137436Y-23158096D01*
X-6241904Y-23262564D01*
X-6364743Y-23344642D01*
X-6501235Y-23401179D01*
X-6646130Y-23430000D01*
X-6793870Y-23430000D01*
X-6938765Y-23401179D01*
X-7075257Y-23344642D01*
X-7198096Y-23262564D01*
X-7302564Y-23158096D01*
X-7384642Y-23035257D01*
X-7441179Y-22898765D01*
X-7470000Y-22753870D01*
X-7470000Y-22606130D01*
X-7441179Y-22461235D01*
X-7384642Y-22324743D01*
X-7302564Y-22201904D01*
X-7198096Y-22097436D01*
X-7075257Y-22015358D01*
X-6938765Y-21958821D01*
X-6793870Y-21930000D01*
X-6646130Y-21930000D01*
X-6501235Y-21958821D01*
G37*
G36*
X-94752066Y-21432664D02*
G01*
X-94597375Y-21496739D01*
X-94597374Y-21496740D01*
X-94458156Y-21589762D01*
X-94339762Y-21708156D01*
X-94339761Y-21708158D01*
X-94246739Y-21847375D01*
X-94182664Y-22002066D01*
X-94150000Y-22166281D01*
X-94150000Y-22333719D01*
X-94182664Y-22497934D01*
X-94246739Y-22652625D01*
X-94246740Y-22652626D01*
X-94339762Y-22791844D01*
X-94458156Y-22910238D01*
X-94517664Y-22950000D01*
X-94597375Y-23003261D01*
X-94752066Y-23067336D01*
X-94916281Y-23100000D01*
X-95083719Y-23100000D01*
X-95247934Y-23067336D01*
X-95402625Y-23003261D01*
X-95482336Y-22950000D01*
X-95541844Y-22910238D01*
X-95660238Y-22791844D01*
X-95753260Y-22652626D01*
X-95753261Y-22652625D01*
X-95817336Y-22497934D01*
X-95850000Y-22333719D01*
X-95850000Y-22166281D01*
X-95817336Y-22002066D01*
X-95753261Y-21847375D01*
X-95660239Y-21708158D01*
X-95660238Y-21708156D01*
X-95541844Y-21589762D01*
X-95402626Y-21496740D01*
X-95402625Y-21496739D01*
X-95247934Y-21432664D01*
X-95083719Y-21400000D01*
X-94916281Y-21400000D01*
X-94752066Y-21432664D01*
G37*
G36*
X-11361235Y-20958821D02*
G01*
X-11224743Y-21015358D01*
X-11101904Y-21097436D01*
X-10997436Y-21201904D01*
X-10915358Y-21324743D01*
X-10858821Y-21461235D01*
X-10830000Y-21606130D01*
X-10830000Y-21753870D01*
X-10858821Y-21898765D01*
X-10915358Y-22035257D01*
X-10997436Y-22158096D01*
X-11101904Y-22262564D01*
X-11224743Y-22344642D01*
X-11361235Y-22401179D01*
X-11506130Y-22430000D01*
X-11653870Y-22430000D01*
X-11798765Y-22401179D01*
X-11935257Y-22344642D01*
X-12058096Y-22262564D01*
X-12162564Y-22158096D01*
X-12244642Y-22035257D01*
X-12301179Y-21898765D01*
X-12330000Y-21753870D01*
X-12330000Y-21606130D01*
X-12301179Y-21461235D01*
X-12244642Y-21324743D01*
X-12162564Y-21201904D01*
X-12058096Y-21097436D01*
X-11935257Y-21015358D01*
X-11798765Y-20958821D01*
X-11653870Y-20930000D01*
X-11506130Y-20930000D01*
X-11361235Y-20958821D01*
G37*
G36*
X-2078101Y-18281704D02*
G01*
X-1918713Y-18313408D01*
X-1836710Y-18347375D01*
X-1618433Y-18437788D01*
X-1618432Y-18437789D01*
X-1348186Y-18618361D01*
X-1118361Y-18848186D01*
X-1118360Y-18848188D01*
X-937788Y-19118433D01*
X-923625Y-19152626D01*
X-813408Y-19418713D01*
X-783845Y-19567335D01*
X-750000Y-19737488D01*
X-750000Y-20062512D01*
X-765413Y-20140000D01*
X-804492Y-20336465D01*
X-813408Y-20381286D01*
X-937788Y-20681567D01*
X-937789Y-20681568D01*
X-1118361Y-20951814D01*
X-1348186Y-21181639D01*
X-1378515Y-21201904D01*
X-1618433Y-21362212D01*
X-1709662Y-21400000D01*
X-1918713Y-21486592D01*
X-2078101Y-21518296D01*
X-2237488Y-21550000D01*
X-2562512Y-21550000D01*
X-2721899Y-21518296D01*
X-2881287Y-21486592D01*
X-3090338Y-21400000D01*
X-3181567Y-21362212D01*
X-3421485Y-21201904D01*
X-3451814Y-21181639D01*
X-3681639Y-20951814D01*
X-3862211Y-20681568D01*
X-3862212Y-20681567D01*
X-3986592Y-20381286D01*
X-3995507Y-20336465D01*
X-4034587Y-20140000D01*
X-4050000Y-20062512D01*
X-4050000Y-19737488D01*
X-4016155Y-19567335D01*
X-3986592Y-19418713D01*
X-3876375Y-19152626D01*
X-3862212Y-19118433D01*
X-3681640Y-18848188D01*
X-3681639Y-18848186D01*
X-3451814Y-18618361D01*
X-3181568Y-18437789D01*
X-3181567Y-18437788D01*
X-2963290Y-18347375D01*
X-2881287Y-18313408D01*
X-2721899Y-18281704D01*
X-2562512Y-18250000D01*
X-2237488Y-18250000D01*
X-2078101Y-18281704D01*
G37*
G36*
X-11361235Y-18668821D02*
G01*
X-11224743Y-18725358D01*
X-11101904Y-18807436D01*
X-10997436Y-18911904D01*
X-10915358Y-19034743D01*
X-10858821Y-19171235D01*
X-10830000Y-19316130D01*
X-10830000Y-19463870D01*
X-10858821Y-19608765D01*
X-10915358Y-19745257D01*
X-10997436Y-19868096D01*
X-11101904Y-19972564D01*
X-11224743Y-20054642D01*
X-11361235Y-20111179D01*
X-11506130Y-20140000D01*
X-11653870Y-20140000D01*
X-11798765Y-20111179D01*
X-11935257Y-20054642D01*
X-12058096Y-19972564D01*
X-12162564Y-19868096D01*
X-12244642Y-19745257D01*
X-12301179Y-19608765D01*
X-12330000Y-19463870D01*
X-12330000Y-19316130D01*
X-12301179Y-19171235D01*
X-12244642Y-19034743D01*
X-12162564Y-18911904D01*
X-12058096Y-18807436D01*
X-11935257Y-18725358D01*
X-11798765Y-18668821D01*
X-11653870Y-18640000D01*
X-11506130Y-18640000D01*
X-11361235Y-18668821D01*
G37*
G36*
X-94752066Y-17932664D02*
G01*
X-94597375Y-17996739D01*
X-94597374Y-17996740D01*
X-94458156Y-18089762D01*
X-94339762Y-18208156D01*
X-94339761Y-18208158D01*
X-94246739Y-18347375D01*
X-94182664Y-18502066D01*
X-94150000Y-18666281D01*
X-94150000Y-18833719D01*
X-94182664Y-18997934D01*
X-94246739Y-19152625D01*
X-94259174Y-19171235D01*
X-94339762Y-19291844D01*
X-94458156Y-19410238D01*
X-94528238Y-19457065D01*
X-94597375Y-19503261D01*
X-94752066Y-19567336D01*
X-94916281Y-19600000D01*
X-95083719Y-19600000D01*
X-95247934Y-19567336D01*
X-95402625Y-19503261D01*
X-95471762Y-19457065D01*
X-95541844Y-19410238D01*
X-95660238Y-19291844D01*
X-95740826Y-19171235D01*
X-95753261Y-19152625D01*
X-95817336Y-18997934D01*
X-95850000Y-18833719D01*
X-95850000Y-18666281D01*
X-95817336Y-18502066D01*
X-95753261Y-18347375D01*
X-95660239Y-18208158D01*
X-95660238Y-18208156D01*
X-95541844Y-18089762D01*
X-95402626Y-17996740D01*
X-95402625Y-17996739D01*
X-95247934Y-17932664D01*
X-95083719Y-17900000D01*
X-94916281Y-17900000D01*
X-94752066Y-17932664D01*
G37*
G36*
X-89550000Y-19200000D02*
G01*
X-90950000Y-19200000D01*
X-90950000Y-18100000D01*
X-89550000Y-18100000D01*
X-89550000Y-19200000D01*
G37*
G36*
X-5701313Y-16955027D02*
G01*
X-5523726Y-16990350D01*
X-5332638Y-17069502D01*
X-5160664Y-17184411D01*
X-5014411Y-17330664D01*
X-4899502Y-17502638D01*
X-4820350Y-17693726D01*
X-4780000Y-17896584D01*
X-4780000Y-18103416D01*
X-4820350Y-18306274D01*
X-4899502Y-18497362D01*
X-5014411Y-18669336D01*
X-5160664Y-18815589D01*
X-5332638Y-18930498D01*
X-5523726Y-19009650D01*
X-5701313Y-19044973D01*
X-5726583Y-19050000D01*
X-5933417Y-19050000D01*
X-5958687Y-19044973D01*
X-6136274Y-19009650D01*
X-6327362Y-18930498D01*
X-6499336Y-18815589D01*
X-6645589Y-18669336D01*
X-6760498Y-18497362D01*
X-6839650Y-18306274D01*
X-6880000Y-18103416D01*
X-6880000Y-17896584D01*
X-6839650Y-17693726D01*
X-6760498Y-17502638D01*
X-6645589Y-17330664D01*
X-6499336Y-17184411D01*
X-6327362Y-17069502D01*
X-6136274Y-16990350D01*
X-5958687Y-16955027D01*
X-5933417Y-16950000D01*
X-5726583Y-16950000D01*
X-5701313Y-16955027D01*
G37*
G36*
X-70563065Y-16184478D02*
G01*
X-70463121Y-16214796D01*
X-70371017Y-16264026D01*
X-70290283Y-16330283D01*
X-70224026Y-16411017D01*
X-70174796Y-16503121D01*
X-70144478Y-16603065D01*
X-70134000Y-16709454D01*
X-70134000Y-17870546D01*
X-70144478Y-17976935D01*
X-70174796Y-18076879D01*
X-70224026Y-18168983D01*
X-70290283Y-18249717D01*
X-70371017Y-18315974D01*
X-70463121Y-18365204D01*
X-70563065Y-18395522D01*
X-70669454Y-18406000D01*
X-71830546Y-18406000D01*
X-71936935Y-18395522D01*
X-72036879Y-18365204D01*
X-72128983Y-18315974D01*
X-72209717Y-18249717D01*
X-72275974Y-18168983D01*
X-72325204Y-18076879D01*
X-72355522Y-17976935D01*
X-72366000Y-17870546D01*
X-72366000Y-16709454D01*
X-72355522Y-16603065D01*
X-72325204Y-16503121D01*
X-72275974Y-16411017D01*
X-72209717Y-16330283D01*
X-72128983Y-16264026D01*
X-72036879Y-16214796D01*
X-71936935Y-16184478D01*
X-71830546Y-16174000D01*
X-70669454Y-16174000D01*
X-70563065Y-16184478D01*
G37*
G36*
X-2078101Y-14481704D02*
G01*
X-1918713Y-14513408D01*
X-1794333Y-14564928D01*
X-1618433Y-14637788D01*
X-1618432Y-14637789D01*
X-1348186Y-14818361D01*
X-1118361Y-15048186D01*
X-1100095Y-15075523D01*
X-937788Y-15318433D01*
X-813408Y-15618714D01*
X-750000Y-15937488D01*
X-750000Y-16262512D01*
X-764903Y-16337434D01*
X-813408Y-16581287D01*
X-864928Y-16705667D01*
X-937788Y-16881567D01*
X-993708Y-16965257D01*
X-1118361Y-17151814D01*
X-1348186Y-17381639D01*
X-1484226Y-17472538D01*
X-1618433Y-17562212D01*
X-1794333Y-17635072D01*
X-1918713Y-17686592D01*
X-2078101Y-17718296D01*
X-2237488Y-17750000D01*
X-2562512Y-17750000D01*
X-2721899Y-17718296D01*
X-2881287Y-17686592D01*
X-3005667Y-17635072D01*
X-3181567Y-17562212D01*
X-3315774Y-17472538D01*
X-3451814Y-17381639D01*
X-3681639Y-17151814D01*
X-3806292Y-16965257D01*
X-3862212Y-16881567D01*
X-3935072Y-16705667D01*
X-3986592Y-16581287D01*
X-4035097Y-16337434D01*
X-4050000Y-16262512D01*
X-4050000Y-15937488D01*
X-3986592Y-15618714D01*
X-3862212Y-15318433D01*
X-3699905Y-15075523D01*
X-3681639Y-15048186D01*
X-3451814Y-14818361D01*
X-3181568Y-14637789D01*
X-3181567Y-14637788D01*
X-3005667Y-14564928D01*
X-2881287Y-14513408D01*
X-2721899Y-14481704D01*
X-2562512Y-14450000D01*
X-2237488Y-14450000D01*
X-2078101Y-14481704D01*
G37*
G36*
X-11361235Y-15888821D02*
G01*
X-11224743Y-15945358D01*
X-11101904Y-16027436D01*
X-10997436Y-16131904D01*
X-10915358Y-16254743D01*
X-10858821Y-16391235D01*
X-10830000Y-16536130D01*
X-10830000Y-16683870D01*
X-10858821Y-16828765D01*
X-10915358Y-16965257D01*
X-10997436Y-17088096D01*
X-11101904Y-17192564D01*
X-11224743Y-17274642D01*
X-11361235Y-17331179D01*
X-11506130Y-17360000D01*
X-11653870Y-17360000D01*
X-11798765Y-17331179D01*
X-11935257Y-17274642D01*
X-12058096Y-17192564D01*
X-12162564Y-17088096D01*
X-12244642Y-16965257D01*
X-12301179Y-16828765D01*
X-12330000Y-16683870D01*
X-12330000Y-16536130D01*
X-12301179Y-16391235D01*
X-12244642Y-16254743D01*
X-12162564Y-16131904D01*
X-12058096Y-16027436D01*
X-11935257Y-15945358D01*
X-11798765Y-15888821D01*
X-11653870Y-15860000D01*
X-11506130Y-15860000D01*
X-11361235Y-15888821D01*
G37*
G36*
X-94752066Y-14432664D02*
G01*
X-94597375Y-14496739D01*
X-94597374Y-14496740D01*
X-94458156Y-14589762D01*
X-94339762Y-14708156D01*
X-94339761Y-14708158D01*
X-94246739Y-14847375D01*
X-94182664Y-15002066D01*
X-94150000Y-15166281D01*
X-94150000Y-15333719D01*
X-94182664Y-15497934D01*
X-94246739Y-15652625D01*
X-94246740Y-15652626D01*
X-94339762Y-15791844D01*
X-94458156Y-15910238D01*
X-94498939Y-15937488D01*
X-94597375Y-16003261D01*
X-94752066Y-16067336D01*
X-94916281Y-16100000D01*
X-95083719Y-16100000D01*
X-95247934Y-16067336D01*
X-95402625Y-16003261D01*
X-95501061Y-15937488D01*
X-95541844Y-15910238D01*
X-95660238Y-15791844D01*
X-95753260Y-15652626D01*
X-95753261Y-15652625D01*
X-95817336Y-15497934D01*
X-95850000Y-15333719D01*
X-95850000Y-15166281D01*
X-95817336Y-15002066D01*
X-95753261Y-14847375D01*
X-95660239Y-14708158D01*
X-95660238Y-14708156D01*
X-95541844Y-14589762D01*
X-95402626Y-14496740D01*
X-95402625Y-14496739D01*
X-95247934Y-14432664D01*
X-95083719Y-14400000D01*
X-94916281Y-14400000D01*
X-94752066Y-14432664D01*
G37*
G36*
X-89550000Y-15900000D02*
G01*
X-90950000Y-15900000D01*
X-90950000Y-14800000D01*
X-89550000Y-14800000D01*
X-89550000Y-15900000D01*
G37*
G36*
X-70924477Y-13676886D02*
G01*
X-70924474Y-13676887D01*
X-70924475Y-13676887D01*
X-70721376Y-13761013D01*
X-70538591Y-13883146D01*
X-70383146Y-14038591D01*
X-70261013Y-14221376D01*
X-70201527Y-14364989D01*
X-70176886Y-14424477D01*
X-70134000Y-14640082D01*
X-70134000Y-14859918D01*
X-70176886Y-15075523D01*
X-70176887Y-15075525D01*
X-70261013Y-15278624D01*
X-70383146Y-15461409D01*
X-70538591Y-15616854D01*
X-70721376Y-15738987D01*
X-70848980Y-15791842D01*
X-70924477Y-15823114D01*
X-71140082Y-15866000D01*
X-71359918Y-15866000D01*
X-71575523Y-15823114D01*
X-71651020Y-15791842D01*
X-71778624Y-15738987D01*
X-71961409Y-15616854D01*
X-72116854Y-15461409D01*
X-72238987Y-15278624D01*
X-72323113Y-15075525D01*
X-72323114Y-15075523D01*
X-72366000Y-14859918D01*
X-72366000Y-14640082D01*
X-72323114Y-14424477D01*
X-72298473Y-14364989D01*
X-72238987Y-14221376D01*
X-72116854Y-14038591D01*
X-71961409Y-13883146D01*
X-71778624Y-13761013D01*
X-71575525Y-13676887D01*
X-71575526Y-13676887D01*
X-71575523Y-13676886D01*
X-71359918Y-13634000D01*
X-71140082Y-13634000D01*
X-70924477Y-13676886D01*
G37*
G36*
X-11361235Y-13598821D02*
G01*
X-11224743Y-13655358D01*
X-11101904Y-13737436D01*
X-10997436Y-13841904D01*
X-10915358Y-13964743D01*
X-10858821Y-14101235D01*
X-10830000Y-14246130D01*
X-10830000Y-14393870D01*
X-10858821Y-14538765D01*
X-10915358Y-14675257D01*
X-10997436Y-14798096D01*
X-11101904Y-14902564D01*
X-11224743Y-14984642D01*
X-11361235Y-15041179D01*
X-11506130Y-15070000D01*
X-11653870Y-15070000D01*
X-11798765Y-15041179D01*
X-11935257Y-14984642D01*
X-12058096Y-14902564D01*
X-12162564Y-14798096D01*
X-12244642Y-14675257D01*
X-12301179Y-14538765D01*
X-12330000Y-14393870D01*
X-12330000Y-14246130D01*
X-12301179Y-14101235D01*
X-12244642Y-13964743D01*
X-12162564Y-13841904D01*
X-12058096Y-13737436D01*
X-11935257Y-13655358D01*
X-11798765Y-13598821D01*
X-11653870Y-13570000D01*
X-11506130Y-13570000D01*
X-11361235Y-13598821D01*
G37*
G36*
X-90050000Y-14550000D02*
G01*
X-91050000Y-14550000D01*
X-91050000Y-13450000D01*
X-90050000Y-13450000D01*
X-90050000Y-14550000D01*
G37*
G36*
X-91950000Y-14550000D02*
G01*
X-92950000Y-14550000D01*
X-92950000Y-13450000D01*
X-91950000Y-13450000D01*
X-91950000Y-14550000D01*
G37*
G36*
X-88638895Y-13358551D02*
G01*
X-88606578Y-13368355D01*
X-88576797Y-13384273D01*
X-88550694Y-13405694D01*
X-88529273Y-13431797D01*
X-88513355Y-13461578D01*
X-88503551Y-13493895D01*
X-88500000Y-13529954D01*
X-88500000Y-13970046D01*
X-88503551Y-14006105D01*
X-88513355Y-14038422D01*
X-88529273Y-14068203D01*
X-88550694Y-14094306D01*
X-88576797Y-14115727D01*
X-88606578Y-14131645D01*
X-88638895Y-14141449D01*
X-88674954Y-14145000D01*
X-89325046Y-14145000D01*
X-89361105Y-14141449D01*
X-89393422Y-14131645D01*
X-89423203Y-14115727D01*
X-89449306Y-14094306D01*
X-89470727Y-14068203D01*
X-89486645Y-14038422D01*
X-89496449Y-14006105D01*
X-89500000Y-13970046D01*
X-89500000Y-13529954D01*
X-89496449Y-13493895D01*
X-89486645Y-13461578D01*
X-89470727Y-13431797D01*
X-89449306Y-13405694D01*
X-89423203Y-13384273D01*
X-89393422Y-13368355D01*
X-89361105Y-13358551D01*
X-89325046Y-13355000D01*
X-88674954Y-13355000D01*
X-88638895Y-13358551D01*
G37*
G36*
X-4721235Y-12598821D02*
G01*
X-4584743Y-12655358D01*
X-4461904Y-12737436D01*
X-4357436Y-12841904D01*
X-4275358Y-12964743D01*
X-4218821Y-13101235D01*
X-4190000Y-13246130D01*
X-4190000Y-13393870D01*
X-4218821Y-13538765D01*
X-4275358Y-13675257D01*
X-4357436Y-13798096D01*
X-4461904Y-13902564D01*
X-4584743Y-13984642D01*
X-4721235Y-14041179D01*
X-4866130Y-14070000D01*
X-5013870Y-14070000D01*
X-5158765Y-14041179D01*
X-5295257Y-13984642D01*
X-5418096Y-13902564D01*
X-5522564Y-13798096D01*
X-5604642Y-13675257D01*
X-5661179Y-13538765D01*
X-5690000Y-13393870D01*
X-5690000Y-13246130D01*
X-5661179Y-13101235D01*
X-5604642Y-12964743D01*
X-5522564Y-12841904D01*
X-5418096Y-12737436D01*
X-5295257Y-12655358D01*
X-5158765Y-12598821D01*
X-5013870Y-12570000D01*
X-4866130Y-12570000D01*
X-4721235Y-12598821D01*
G37*
G36*
X-84531766Y-12256962D02*
G01*
X-84466152Y-12276866D01*
X-84405687Y-12309185D01*
X-84352684Y-12352684D01*
X-84309185Y-12405687D01*
X-84276866Y-12466152D01*
X-84256962Y-12531766D01*
X-84250000Y-12602454D01*
X-84250000Y-13397546D01*
X-84256962Y-13468234D01*
X-84276866Y-13533848D01*
X-84309185Y-13594313D01*
X-84352684Y-13647316D01*
X-84405687Y-13690815D01*
X-84466152Y-13723134D01*
X-84531766Y-13743038D01*
X-84602454Y-13750000D01*
X-85397546Y-13750000D01*
X-85468234Y-13743038D01*
X-85533848Y-13723134D01*
X-85594313Y-13690815D01*
X-85647316Y-13647316D01*
X-85690815Y-13594313D01*
X-85723134Y-13533848D01*
X-85743038Y-13468234D01*
X-85750000Y-13397546D01*
X-85750000Y-12602454D01*
X-85743038Y-12531766D01*
X-85723134Y-12466152D01*
X-85690815Y-12405687D01*
X-85647316Y-12352684D01*
X-85594313Y-12309185D01*
X-85533848Y-12276866D01*
X-85468234Y-12256962D01*
X-85397546Y-12250000D01*
X-84602454Y-12250000D01*
X-84531766Y-12256962D01*
G37*
G36*
X-86781235Y-12278821D02*
G01*
X-86644743Y-12335358D01*
X-86521904Y-12417436D01*
X-86417436Y-12521904D01*
X-86335358Y-12644743D01*
X-86278821Y-12781235D01*
X-86250000Y-12926130D01*
X-86250000Y-13073870D01*
X-86278821Y-13218765D01*
X-86335358Y-13355257D01*
X-86417436Y-13478096D01*
X-86521904Y-13582564D01*
X-86644743Y-13664642D01*
X-86781235Y-13721179D01*
X-86926130Y-13750000D01*
X-87073870Y-13750000D01*
X-87218765Y-13721179D01*
X-87355257Y-13664642D01*
X-87478096Y-13582564D01*
X-87582564Y-13478096D01*
X-87664642Y-13355257D01*
X-87721179Y-13218765D01*
X-87750000Y-13073870D01*
X-87750000Y-12926130D01*
X-87721179Y-12781235D01*
X-87664642Y-12644743D01*
X-87582564Y-12521904D01*
X-87478096Y-12417436D01*
X-87355257Y-12335358D01*
X-87218765Y-12278821D01*
X-87073870Y-12250000D01*
X-86926130Y-12250000D01*
X-86781235Y-12278821D01*
G37*
G36*
X-6501235Y-11578821D02*
G01*
X-6364743Y-11635358D01*
X-6241904Y-11717436D01*
X-6137436Y-11821904D01*
X-6055358Y-11944743D01*
X-5998821Y-12081235D01*
X-5970000Y-12226130D01*
X-5970000Y-12373870D01*
X-5998821Y-12518765D01*
X-6055358Y-12655257D01*
X-6137436Y-12778096D01*
X-6241904Y-12882564D01*
X-6364743Y-12964642D01*
X-6501235Y-13021179D01*
X-6646130Y-13050000D01*
X-6793870Y-13050000D01*
X-6938765Y-13021179D01*
X-7075257Y-12964642D01*
X-7198096Y-12882564D01*
X-7302564Y-12778096D01*
X-7384642Y-12655257D01*
X-7441179Y-12518765D01*
X-7470000Y-12373870D01*
X-7470000Y-12226130D01*
X-7441179Y-12081235D01*
X-7384642Y-11944743D01*
X-7302564Y-11821904D01*
X-7198096Y-11717436D01*
X-7075257Y-11635358D01*
X-6938765Y-11578821D01*
X-6793870Y-11550000D01*
X-6646130Y-11550000D01*
X-6501235Y-11578821D01*
G37*
G36*
X-51098930Y-10823430D02*
G01*
X-51098927Y-10823431D01*
X-51098928Y-10823431D01*
X-50923564Y-10896069D01*
X-50765741Y-11001523D01*
X-50631523Y-11135741D01*
X-50526069Y-11293564D01*
X-50465893Y-11438842D01*
X-50453430Y-11468930D01*
X-50416400Y-11655092D01*
X-50416400Y-11844908D01*
X-50453430Y-12031070D01*
X-50453431Y-12031072D01*
X-50526069Y-12206436D01*
X-50631523Y-12364259D01*
X-50765741Y-12498477D01*
X-50923564Y-12603931D01*
X-51068842Y-12664107D01*
X-51098930Y-12676570D01*
X-51285092Y-12713600D01*
X-51474908Y-12713600D01*
X-51661070Y-12676570D01*
X-51691158Y-12664107D01*
X-51836436Y-12603931D01*
X-51994259Y-12498477D01*
X-52128477Y-12364259D01*
X-52233931Y-12206436D01*
X-52306569Y-12031072D01*
X-52306570Y-12031070D01*
X-52343600Y-11844908D01*
X-52343600Y-11655092D01*
X-52306570Y-11468930D01*
X-52294107Y-11438842D01*
X-52233931Y-11293564D01*
X-52128477Y-11135741D01*
X-51994259Y-11001523D01*
X-51836436Y-10896069D01*
X-51661072Y-10823431D01*
X-51661073Y-10823431D01*
X-51661070Y-10823430D01*
X-51474908Y-10786400D01*
X-51285092Y-10786400D01*
X-51098930Y-10823430D01*
G37*
G36*
X-48558930Y-10823430D02*
G01*
X-48558927Y-10823431D01*
X-48558928Y-10823431D01*
X-48383564Y-10896069D01*
X-48225741Y-11001523D01*
X-48091523Y-11135741D01*
X-47986069Y-11293564D01*
X-47925893Y-11438842D01*
X-47913430Y-11468930D01*
X-47876400Y-11655092D01*
X-47876400Y-11844908D01*
X-47913430Y-12031070D01*
X-47913431Y-12031072D01*
X-47986069Y-12206436D01*
X-48091523Y-12364259D01*
X-48225741Y-12498477D01*
X-48383564Y-12603931D01*
X-48528842Y-12664107D01*
X-48558930Y-12676570D01*
X-48745092Y-12713600D01*
X-48934908Y-12713600D01*
X-49121070Y-12676570D01*
X-49151158Y-12664107D01*
X-49296436Y-12603931D01*
X-49454259Y-12498477D01*
X-49588477Y-12364259D01*
X-49693931Y-12206436D01*
X-49766569Y-12031072D01*
X-49766570Y-12031070D01*
X-49803600Y-11844908D01*
X-49803600Y-11655092D01*
X-49766570Y-11468930D01*
X-49754107Y-11438842D01*
X-49693931Y-11293564D01*
X-49588477Y-11135741D01*
X-49454259Y-11001523D01*
X-49296436Y-10896069D01*
X-49121072Y-10823431D01*
X-49121073Y-10823431D01*
X-49121070Y-10823430D01*
X-48934908Y-10786400D01*
X-48745092Y-10786400D01*
X-48558930Y-10823430D01*
G37*
G36*
X-58404130Y-10795414D02*
G01*
X-58318481Y-10821396D01*
X-58239552Y-10863584D01*
X-58170365Y-10920365D01*
X-58113584Y-10989552D01*
X-58071396Y-11068481D01*
X-58045414Y-11154130D01*
X-58036400Y-11245654D01*
X-58036400Y-12254346D01*
X-58045414Y-12345870D01*
X-58071396Y-12431519D01*
X-58113584Y-12510448D01*
X-58170365Y-12579635D01*
X-58239552Y-12636416D01*
X-58318481Y-12678604D01*
X-58404130Y-12704586D01*
X-58495654Y-12713600D01*
X-59504346Y-12713600D01*
X-59595870Y-12704586D01*
X-59681519Y-12678604D01*
X-59760448Y-12636416D01*
X-59829635Y-12579635D01*
X-59886416Y-12510448D01*
X-59928604Y-12431519D01*
X-59954586Y-12345870D01*
X-59963600Y-12254346D01*
X-59963600Y-11245654D01*
X-59954586Y-11154130D01*
X-59928604Y-11068481D01*
X-59886416Y-10989552D01*
X-59829635Y-10920365D01*
X-59760448Y-10863584D01*
X-59681519Y-10821396D01*
X-59595870Y-10795414D01*
X-59504346Y-10786400D01*
X-58495654Y-10786400D01*
X-58404130Y-10795414D01*
G37*
G36*
X-56178930Y-10823430D02*
G01*
X-56178927Y-10823431D01*
X-56178928Y-10823431D01*
X-56003564Y-10896069D01*
X-55845741Y-11001523D01*
X-55711523Y-11135741D01*
X-55606069Y-11293564D01*
X-55545893Y-11438842D01*
X-55533430Y-11468930D01*
X-55496400Y-11655092D01*
X-55496400Y-11844908D01*
X-55533430Y-12031070D01*
X-55533431Y-12031072D01*
X-55606069Y-12206436D01*
X-55711523Y-12364259D01*
X-55845741Y-12498477D01*
X-56003564Y-12603931D01*
X-56148842Y-12664107D01*
X-56178930Y-12676570D01*
X-56365092Y-12713600D01*
X-56554908Y-12713600D01*
X-56741070Y-12676570D01*
X-56771158Y-12664107D01*
X-56916436Y-12603931D01*
X-57074259Y-12498477D01*
X-57208477Y-12364259D01*
X-57313931Y-12206436D01*
X-57386569Y-12031072D01*
X-57386570Y-12031070D01*
X-57423600Y-11844908D01*
X-57423600Y-11655092D01*
X-57386570Y-11468930D01*
X-57374107Y-11438842D01*
X-57313931Y-11293564D01*
X-57208477Y-11135741D01*
X-57074259Y-11001523D01*
X-56916436Y-10896069D01*
X-56741072Y-10823431D01*
X-56741073Y-10823431D01*
X-56741070Y-10823430D01*
X-56554908Y-10786400D01*
X-56365092Y-10786400D01*
X-56178930Y-10823430D01*
G37*
G36*
X-53638930Y-10823430D02*
G01*
X-53638927Y-10823431D01*
X-53638928Y-10823431D01*
X-53463564Y-10896069D01*
X-53305741Y-11001523D01*
X-53171523Y-11135741D01*
X-53066069Y-11293564D01*
X-53005893Y-11438842D01*
X-52993430Y-11468930D01*
X-52956400Y-11655092D01*
X-52956400Y-11844908D01*
X-52993430Y-12031070D01*
X-52993431Y-12031072D01*
X-53066069Y-12206436D01*
X-53171523Y-12364259D01*
X-53305741Y-12498477D01*
X-53463564Y-12603931D01*
X-53608842Y-12664107D01*
X-53638930Y-12676570D01*
X-53825092Y-12713600D01*
X-54014908Y-12713600D01*
X-54201070Y-12676570D01*
X-54231158Y-12664107D01*
X-54376436Y-12603931D01*
X-54534259Y-12498477D01*
X-54668477Y-12364259D01*
X-54773931Y-12206436D01*
X-54846569Y-12031072D01*
X-54846570Y-12031070D01*
X-54883600Y-11844908D01*
X-54883600Y-11655092D01*
X-54846570Y-11468930D01*
X-54834107Y-11438842D01*
X-54773931Y-11293564D01*
X-54668477Y-11135741D01*
X-54534259Y-11001523D01*
X-54376436Y-10896069D01*
X-54201072Y-10823431D01*
X-54201073Y-10823431D01*
X-54201070Y-10823430D01*
X-54014908Y-10786400D01*
X-53825092Y-10786400D01*
X-53638930Y-10823430D01*
G37*
G36*
X-46018930Y-10823430D02*
G01*
X-46018927Y-10823431D01*
X-46018928Y-10823431D01*
X-45843564Y-10896069D01*
X-45685741Y-11001523D01*
X-45551523Y-11135741D01*
X-45446069Y-11293564D01*
X-45385893Y-11438842D01*
X-45373430Y-11468930D01*
X-45336400Y-11655092D01*
X-45336400Y-11844908D01*
X-45373430Y-12031070D01*
X-45373431Y-12031072D01*
X-45446069Y-12206436D01*
X-45551523Y-12364259D01*
X-45685741Y-12498477D01*
X-45843564Y-12603931D01*
X-45988842Y-12664107D01*
X-46018930Y-12676570D01*
X-46205092Y-12713600D01*
X-46394908Y-12713600D01*
X-46581070Y-12676570D01*
X-46611158Y-12664107D01*
X-46756436Y-12603931D01*
X-46914259Y-12498477D01*
X-47048477Y-12364259D01*
X-47153931Y-12206436D01*
X-47226569Y-12031072D01*
X-47226570Y-12031070D01*
X-47263600Y-11844908D01*
X-47263600Y-11655092D01*
X-47226570Y-11468930D01*
X-47214107Y-11438842D01*
X-47153931Y-11293564D01*
X-47048477Y-11135741D01*
X-46914259Y-11001523D01*
X-46756436Y-10896069D01*
X-46581072Y-10823431D01*
X-46581073Y-10823431D01*
X-46581070Y-10823430D01*
X-46394908Y-10786400D01*
X-46205092Y-10786400D01*
X-46018930Y-10823430D01*
G37*
G36*
X-88638895Y-11858551D02*
G01*
X-88606578Y-11868355D01*
X-88576797Y-11884273D01*
X-88550694Y-11905694D01*
X-88529273Y-11931797D01*
X-88513355Y-11961578D01*
X-88503551Y-11993895D01*
X-88500000Y-12029954D01*
X-88500000Y-12470046D01*
X-88503551Y-12506105D01*
X-88513355Y-12538422D01*
X-88529273Y-12568203D01*
X-88550694Y-12594306D01*
X-88576797Y-12615727D01*
X-88606578Y-12631645D01*
X-88638895Y-12641449D01*
X-88674954Y-12645000D01*
X-89325046Y-12645000D01*
X-89361105Y-12641449D01*
X-89393422Y-12631645D01*
X-89423203Y-12615727D01*
X-89449306Y-12594306D01*
X-89470727Y-12568203D01*
X-89486645Y-12538422D01*
X-89496449Y-12506105D01*
X-89500000Y-12470046D01*
X-89500000Y-12029954D01*
X-89496449Y-11993895D01*
X-89486645Y-11961578D01*
X-89470727Y-11931797D01*
X-89449306Y-11905694D01*
X-89423203Y-11884273D01*
X-89393422Y-11868355D01*
X-89361105Y-11858551D01*
X-89325046Y-11855000D01*
X-88674954Y-11855000D01*
X-88638895Y-11858551D01*
G37*
G36*
X-91000000Y-12550000D02*
G01*
X-92000000Y-12550000D01*
X-92000000Y-11450000D01*
X-91000000Y-11450000D01*
X-91000000Y-12550000D01*
G37*
G36*
X-4721235Y-10558821D02*
G01*
X-4584743Y-10615358D01*
X-4461904Y-10697436D01*
X-4357436Y-10801904D01*
X-4275358Y-10924743D01*
X-4218821Y-11061235D01*
X-4190000Y-11206130D01*
X-4190000Y-11353870D01*
X-4218821Y-11498765D01*
X-4275358Y-11635257D01*
X-4357436Y-11758096D01*
X-4461904Y-11862564D01*
X-4584743Y-11944642D01*
X-4721235Y-12001179D01*
X-4866130Y-12030000D01*
X-5013870Y-12030000D01*
X-5158765Y-12001179D01*
X-5295257Y-11944642D01*
X-5418096Y-11862564D01*
X-5522564Y-11758096D01*
X-5604642Y-11635257D01*
X-5661179Y-11498765D01*
X-5690000Y-11353870D01*
X-5690000Y-11206130D01*
X-5661179Y-11061235D01*
X-5604642Y-10924743D01*
X-5522564Y-10801904D01*
X-5418096Y-10697436D01*
X-5295257Y-10615358D01*
X-5158765Y-10558821D01*
X-5013870Y-10530000D01*
X-4866130Y-10530000D01*
X-4721235Y-10558821D01*
G37*
G36*
X-6501235Y-9538821D02*
G01*
X-6364743Y-9595358D01*
X-6241904Y-9677436D01*
X-6137436Y-9781904D01*
X-6055358Y-9904743D01*
X-5998821Y-10041235D01*
X-5970000Y-10186130D01*
X-5970000Y-10333870D01*
X-5998821Y-10478765D01*
X-6055358Y-10615257D01*
X-6137436Y-10738096D01*
X-6241904Y-10842564D01*
X-6364743Y-10924642D01*
X-6501235Y-10981179D01*
X-6646130Y-11010000D01*
X-6793870Y-11010000D01*
X-6938765Y-10981179D01*
X-7075257Y-10924642D01*
X-7198096Y-10842564D01*
X-7302564Y-10738096D01*
X-7384642Y-10615257D01*
X-7441179Y-10478765D01*
X-7470000Y-10333870D01*
X-7470000Y-10186130D01*
X-7441179Y-10041235D01*
X-7384642Y-9904743D01*
X-7302564Y-9781904D01*
X-7198096Y-9677436D01*
X-7075257Y-9595358D01*
X-6938765Y-9538821D01*
X-6793870Y-9510000D01*
X-6646130Y-9510000D01*
X-6501235Y-9538821D01*
G37*
G36*
X-94752066Y-8932664D02*
G01*
X-94597375Y-8996739D01*
X-94597374Y-8996740D01*
X-94458156Y-9089762D01*
X-94339762Y-9208156D01*
X-94339761Y-9208158D01*
X-94246739Y-9347375D01*
X-94182664Y-9502066D01*
X-94150000Y-9666281D01*
X-94150000Y-9833719D01*
X-94182664Y-9997934D01*
X-94246739Y-10152625D01*
X-94269127Y-10186131D01*
X-94339762Y-10291844D01*
X-94458156Y-10410238D01*
X-94528238Y-10457065D01*
X-94597375Y-10503261D01*
X-94752066Y-10567336D01*
X-94916281Y-10600000D01*
X-95083719Y-10600000D01*
X-95247934Y-10567336D01*
X-95402625Y-10503261D01*
X-95471762Y-10457065D01*
X-95541844Y-10410238D01*
X-95660238Y-10291844D01*
X-95730873Y-10186131D01*
X-95753261Y-10152625D01*
X-95817336Y-9997934D01*
X-95850000Y-9833719D01*
X-95850000Y-9666281D01*
X-95817336Y-9502066D01*
X-95753261Y-9347375D01*
X-95660239Y-9208158D01*
X-95660238Y-9208156D01*
X-95541844Y-9089762D01*
X-95402626Y-8996740D01*
X-95402625Y-8996739D01*
X-95247934Y-8932664D01*
X-95083719Y-8900000D01*
X-94916281Y-8900000D01*
X-94752066Y-8932664D01*
G37*
G36*
X-58718930Y-8283430D02*
G01*
X-58718927Y-8283431D01*
X-58718928Y-8283431D01*
X-58543564Y-8356069D01*
X-58385741Y-8461523D01*
X-58251523Y-8595741D01*
X-58146069Y-8753564D01*
X-58125773Y-8802564D01*
X-58073430Y-8928930D01*
X-58036400Y-9115092D01*
X-58036400Y-9304908D01*
X-58073430Y-9491070D01*
X-58073431Y-9491072D01*
X-58146069Y-9666436D01*
X-58251523Y-9824259D01*
X-58385741Y-9958477D01*
X-58543564Y-10063931D01*
X-58688842Y-10124107D01*
X-58718930Y-10136570D01*
X-58905092Y-10173600D01*
X-59094908Y-10173600D01*
X-59281070Y-10136570D01*
X-59311158Y-10124107D01*
X-59456436Y-10063931D01*
X-59614259Y-9958477D01*
X-59748477Y-9824259D01*
X-59853931Y-9666436D01*
X-59926569Y-9491072D01*
X-59926570Y-9491070D01*
X-59963600Y-9304908D01*
X-59963600Y-9115092D01*
X-59926570Y-8928930D01*
X-59874227Y-8802564D01*
X-59853931Y-8753564D01*
X-59748477Y-8595741D01*
X-59614259Y-8461523D01*
X-59456436Y-8356069D01*
X-59281072Y-8283431D01*
X-59281073Y-8283431D01*
X-59281070Y-8283430D01*
X-59094908Y-8246400D01*
X-58905092Y-8246400D01*
X-58718930Y-8283430D01*
G37*
G36*
X-56178930Y-8283430D02*
G01*
X-56178927Y-8283431D01*
X-56178928Y-8283431D01*
X-56003564Y-8356069D01*
X-55845741Y-8461523D01*
X-55711523Y-8595741D01*
X-55606069Y-8753564D01*
X-55585773Y-8802564D01*
X-55533430Y-8928930D01*
X-55496400Y-9115092D01*
X-55496400Y-9304908D01*
X-55533430Y-9491070D01*
X-55533431Y-9491072D01*
X-55606069Y-9666436D01*
X-55711523Y-9824259D01*
X-55845741Y-9958477D01*
X-56003564Y-10063931D01*
X-56148842Y-10124107D01*
X-56178930Y-10136570D01*
X-56365092Y-10173600D01*
X-56554908Y-10173600D01*
X-56741070Y-10136570D01*
X-56771158Y-10124107D01*
X-56916436Y-10063931D01*
X-57074259Y-9958477D01*
X-57208477Y-9824259D01*
X-57313931Y-9666436D01*
X-57386569Y-9491072D01*
X-57386570Y-9491070D01*
X-57423600Y-9304908D01*
X-57423600Y-9115092D01*
X-57386570Y-8928930D01*
X-57334227Y-8802564D01*
X-57313931Y-8753564D01*
X-57208477Y-8595741D01*
X-57074259Y-8461523D01*
X-56916436Y-8356069D01*
X-56741072Y-8283431D01*
X-56741073Y-8283431D01*
X-56741070Y-8283430D01*
X-56554908Y-8246400D01*
X-56365092Y-8246400D01*
X-56178930Y-8283430D01*
G37*
G36*
X-53638930Y-8283430D02*
G01*
X-53638927Y-8283431D01*
X-53638928Y-8283431D01*
X-53463564Y-8356069D01*
X-53305741Y-8461523D01*
X-53171523Y-8595741D01*
X-53066069Y-8753564D01*
X-53045773Y-8802564D01*
X-52993430Y-8928930D01*
X-52956400Y-9115092D01*
X-52956400Y-9304908D01*
X-52993430Y-9491070D01*
X-52993431Y-9491072D01*
X-53066069Y-9666436D01*
X-53171523Y-9824259D01*
X-53305741Y-9958477D01*
X-53463564Y-10063931D01*
X-53608842Y-10124107D01*
X-53638930Y-10136570D01*
X-53825092Y-10173600D01*
X-54014908Y-10173600D01*
X-54201070Y-10136570D01*
X-54231158Y-10124107D01*
X-54376436Y-10063931D01*
X-54534259Y-9958477D01*
X-54668477Y-9824259D01*
X-54773931Y-9666436D01*
X-54846569Y-9491072D01*
X-54846570Y-9491070D01*
X-54883600Y-9304908D01*
X-54883600Y-9115092D01*
X-54846570Y-8928930D01*
X-54794227Y-8802564D01*
X-54773931Y-8753564D01*
X-54668477Y-8595741D01*
X-54534259Y-8461523D01*
X-54376436Y-8356069D01*
X-54201072Y-8283431D01*
X-54201073Y-8283431D01*
X-54201070Y-8283430D01*
X-54014908Y-8246400D01*
X-53825092Y-8246400D01*
X-53638930Y-8283430D01*
G37*
G36*
X-48558930Y-8283430D02*
G01*
X-48558927Y-8283431D01*
X-48558928Y-8283431D01*
X-48383564Y-8356069D01*
X-48225741Y-8461523D01*
X-48091523Y-8595741D01*
X-47986069Y-8753564D01*
X-47965773Y-8802564D01*
X-47913430Y-8928930D01*
X-47876400Y-9115092D01*
X-47876400Y-9304908D01*
X-47913430Y-9491070D01*
X-47913431Y-9491072D01*
X-47986069Y-9666436D01*
X-48091523Y-9824259D01*
X-48225741Y-9958477D01*
X-48383564Y-10063931D01*
X-48528842Y-10124107D01*
X-48558930Y-10136570D01*
X-48745092Y-10173600D01*
X-48934908Y-10173600D01*
X-49121070Y-10136570D01*
X-49151158Y-10124107D01*
X-49296436Y-10063931D01*
X-49454259Y-9958477D01*
X-49588477Y-9824259D01*
X-49693931Y-9666436D01*
X-49766569Y-9491072D01*
X-49766570Y-9491070D01*
X-49803600Y-9304908D01*
X-49803600Y-9115092D01*
X-49766570Y-8928930D01*
X-49714227Y-8802564D01*
X-49693931Y-8753564D01*
X-49588477Y-8595741D01*
X-49454259Y-8461523D01*
X-49296436Y-8356069D01*
X-49121072Y-8283431D01*
X-49121073Y-8283431D01*
X-49121070Y-8283430D01*
X-48934908Y-8246400D01*
X-48745092Y-8246400D01*
X-48558930Y-8283430D01*
G37*
G36*
X-46018930Y-8283430D02*
G01*
X-46018927Y-8283431D01*
X-46018928Y-8283431D01*
X-45843564Y-8356069D01*
X-45685741Y-8461523D01*
X-45551523Y-8595741D01*
X-45446069Y-8753564D01*
X-45425773Y-8802564D01*
X-45373430Y-8928930D01*
X-45336400Y-9115092D01*
X-45336400Y-9304908D01*
X-45373430Y-9491070D01*
X-45373431Y-9491072D01*
X-45446069Y-9666436D01*
X-45551523Y-9824259D01*
X-45685741Y-9958477D01*
X-45843564Y-10063931D01*
X-45988842Y-10124107D01*
X-46018930Y-10136570D01*
X-46205092Y-10173600D01*
X-46394908Y-10173600D01*
X-46581070Y-10136570D01*
X-46611158Y-10124107D01*
X-46756436Y-10063931D01*
X-46914259Y-9958477D01*
X-47048477Y-9824259D01*
X-47153931Y-9666436D01*
X-47226569Y-9491072D01*
X-47226570Y-9491070D01*
X-47263600Y-9304908D01*
X-47263600Y-9115092D01*
X-47226570Y-8928930D01*
X-47174227Y-8802564D01*
X-47153931Y-8753564D01*
X-47048477Y-8595741D01*
X-46914259Y-8461523D01*
X-46756436Y-8356069D01*
X-46581072Y-8283431D01*
X-46581073Y-8283431D01*
X-46581070Y-8283430D01*
X-46394908Y-8246400D01*
X-46205092Y-8246400D01*
X-46018930Y-8283430D01*
G37*
G36*
X-51098930Y-8283430D02*
G01*
X-51098927Y-8283431D01*
X-51098928Y-8283431D01*
X-50923564Y-8356069D01*
X-50765741Y-8461523D01*
X-50631523Y-8595741D01*
X-50526069Y-8753564D01*
X-50505773Y-8802564D01*
X-50453430Y-8928930D01*
X-50416400Y-9115092D01*
X-50416400Y-9304908D01*
X-50453430Y-9491070D01*
X-50453431Y-9491072D01*
X-50526069Y-9666436D01*
X-50631523Y-9824259D01*
X-50765741Y-9958477D01*
X-50923564Y-10063931D01*
X-51068842Y-10124107D01*
X-51098930Y-10136570D01*
X-51285092Y-10173600D01*
X-51474908Y-10173600D01*
X-51661070Y-10136570D01*
X-51691158Y-10124107D01*
X-51836436Y-10063931D01*
X-51994259Y-9958477D01*
X-52128477Y-9824259D01*
X-52233931Y-9666436D01*
X-52306569Y-9491072D01*
X-52306570Y-9491070D01*
X-52343600Y-9304908D01*
X-52343600Y-9115092D01*
X-52306570Y-8928930D01*
X-52254227Y-8802564D01*
X-52233931Y-8753564D01*
X-52128477Y-8595741D01*
X-51994259Y-8461523D01*
X-51836436Y-8356069D01*
X-51661072Y-8283431D01*
X-51661073Y-8283431D01*
X-51661070Y-8283430D01*
X-51474908Y-8246400D01*
X-51285092Y-8246400D01*
X-51098930Y-8283430D01*
G37*
G36*
X-4721235Y-8518821D02*
G01*
X-4584743Y-8575358D01*
X-4461904Y-8657436D01*
X-4357436Y-8761904D01*
X-4275358Y-8884743D01*
X-4218821Y-9021235D01*
X-4190000Y-9166130D01*
X-4190000Y-9313870D01*
X-4218821Y-9458765D01*
X-4275358Y-9595257D01*
X-4357436Y-9718096D01*
X-4461904Y-9822564D01*
X-4584743Y-9904642D01*
X-4721235Y-9961179D01*
X-4866130Y-9990000D01*
X-5013870Y-9990000D01*
X-5158765Y-9961179D01*
X-5295257Y-9904642D01*
X-5418096Y-9822564D01*
X-5522564Y-9718096D01*
X-5604642Y-9595257D01*
X-5661179Y-9458765D01*
X-5690000Y-9313870D01*
X-5690000Y-9166130D01*
X-5661179Y-9021235D01*
X-5604642Y-8884743D01*
X-5522564Y-8761904D01*
X-5418096Y-8657436D01*
X-5295257Y-8575358D01*
X-5158765Y-8518821D01*
X-5013870Y-8490000D01*
X-4866130Y-8490000D01*
X-4721235Y-8518821D01*
G37*
G36*
X-6501235Y-7498821D02*
G01*
X-6364743Y-7555358D01*
X-6241904Y-7637436D01*
X-6137436Y-7741904D01*
X-6055358Y-7864743D01*
X-5998821Y-8001235D01*
X-5970000Y-8146130D01*
X-5970000Y-8293870D01*
X-5998821Y-8438765D01*
X-6055358Y-8575257D01*
X-6137436Y-8698096D01*
X-6241904Y-8802564D01*
X-6364743Y-8884642D01*
X-6501235Y-8941179D01*
X-6646130Y-8970000D01*
X-6793870Y-8970000D01*
X-6938765Y-8941179D01*
X-7075257Y-8884642D01*
X-7198096Y-8802564D01*
X-7302564Y-8698096D01*
X-7384642Y-8575257D01*
X-7441179Y-8438765D01*
X-7470000Y-8293870D01*
X-7470000Y-8146130D01*
X-7441179Y-8001235D01*
X-7384642Y-7864743D01*
X-7302564Y-7741904D01*
X-7198096Y-7637436D01*
X-7075257Y-7555358D01*
X-6938765Y-7498821D01*
X-6793870Y-7470000D01*
X-6646130Y-7470000D01*
X-6501235Y-7498821D01*
G37*
G36*
X-4721235Y-6478821D02*
G01*
X-4584743Y-6535358D01*
X-4461904Y-6617436D01*
X-4357436Y-6721904D01*
X-4275358Y-6844743D01*
X-4218821Y-6981235D01*
X-4190000Y-7126130D01*
X-4190000Y-7273870D01*
X-4218821Y-7418765D01*
X-4275358Y-7555257D01*
X-4357436Y-7678096D01*
X-4461904Y-7782564D01*
X-4584743Y-7864642D01*
X-4721235Y-7921179D01*
X-4866130Y-7950000D01*
X-5013870Y-7950000D01*
X-5158765Y-7921179D01*
X-5295257Y-7864642D01*
X-5418096Y-7782564D01*
X-5522564Y-7678096D01*
X-5604642Y-7555257D01*
X-5661179Y-7418765D01*
X-5690000Y-7273870D01*
X-5690000Y-7126130D01*
X-5661179Y-6981235D01*
X-5604642Y-6844743D01*
X-5522564Y-6721904D01*
X-5418096Y-6617436D01*
X-5295257Y-6535358D01*
X-5158765Y-6478821D01*
X-5013870Y-6450000D01*
X-4866130Y-6450000D01*
X-4721235Y-6478821D01*
G37*
G36*
X-63252066Y-6182664D02*
G01*
X-63097375Y-6246739D01*
X-63086703Y-6253870D01*
X-62958156Y-6339762D01*
X-62839762Y-6458156D01*
X-62813183Y-6497934D01*
X-62746739Y-6597375D01*
X-62682664Y-6752066D01*
X-62650000Y-6916281D01*
X-62650000Y-7083719D01*
X-62682664Y-7247934D01*
X-62746739Y-7402625D01*
X-62757525Y-7418767D01*
X-62839762Y-7541844D01*
X-62958156Y-7660238D01*
X-62984883Y-7678096D01*
X-63097375Y-7753261D01*
X-63252066Y-7817336D01*
X-63416281Y-7850000D01*
X-63583719Y-7850000D01*
X-63747934Y-7817336D01*
X-63902625Y-7753261D01*
X-64015117Y-7678096D01*
X-64041844Y-7660238D01*
X-64160238Y-7541844D01*
X-64242475Y-7418767D01*
X-64253261Y-7402625D01*
X-64317336Y-7247934D01*
X-64350000Y-7083719D01*
X-64350000Y-6916281D01*
X-64317336Y-6752066D01*
X-64253261Y-6597375D01*
X-64186817Y-6497934D01*
X-64160238Y-6458156D01*
X-64041844Y-6339762D01*
X-63913297Y-6253870D01*
X-63902625Y-6246739D01*
X-63747934Y-6182664D01*
X-63583719Y-6150000D01*
X-63416281Y-6150000D01*
X-63252066Y-6182664D01*
G37*
G36*
X-66752066Y-6182664D02*
G01*
X-66597375Y-6246739D01*
X-66586703Y-6253870D01*
X-66458156Y-6339762D01*
X-66339762Y-6458156D01*
X-66313183Y-6497934D01*
X-66246739Y-6597375D01*
X-66182664Y-6752066D01*
X-66150000Y-6916281D01*
X-66150000Y-7083719D01*
X-66182664Y-7247934D01*
X-66246739Y-7402625D01*
X-66257525Y-7418767D01*
X-66339762Y-7541844D01*
X-66458156Y-7660238D01*
X-66484883Y-7678096D01*
X-66597375Y-7753261D01*
X-66752066Y-7817336D01*
X-66916281Y-7850000D01*
X-67083719Y-7850000D01*
X-67247934Y-7817336D01*
X-67402625Y-7753261D01*
X-67515117Y-7678096D01*
X-67541844Y-7660238D01*
X-67660238Y-7541844D01*
X-67742475Y-7418767D01*
X-67753261Y-7402625D01*
X-67817336Y-7247934D01*
X-67850000Y-7083719D01*
X-67850000Y-6916281D01*
X-67817336Y-6752066D01*
X-67753261Y-6597375D01*
X-67686817Y-6497934D01*
X-67660238Y-6458156D01*
X-67541844Y-6339762D01*
X-67413297Y-6253870D01*
X-67402625Y-6246739D01*
X-67247934Y-6182664D01*
X-67083719Y-6150000D01*
X-66916281Y-6150000D01*
X-66752066Y-6182664D01*
G37*
G36*
X-72252066Y-6182664D02*
G01*
X-72097375Y-6246739D01*
X-72086703Y-6253870D01*
X-71958156Y-6339762D01*
X-71839762Y-6458156D01*
X-71813183Y-6497934D01*
X-71746739Y-6597375D01*
X-71682664Y-6752066D01*
X-71650000Y-6916281D01*
X-71650000Y-7083719D01*
X-71682664Y-7247934D01*
X-71746739Y-7402625D01*
X-71757525Y-7418767D01*
X-71839762Y-7541844D01*
X-71958156Y-7660238D01*
X-71984883Y-7678096D01*
X-72097375Y-7753261D01*
X-72252066Y-7817336D01*
X-72416281Y-7850000D01*
X-72583719Y-7850000D01*
X-72747934Y-7817336D01*
X-72902625Y-7753261D01*
X-73015117Y-7678096D01*
X-73041844Y-7660238D01*
X-73160238Y-7541844D01*
X-73242475Y-7418767D01*
X-73253261Y-7402625D01*
X-73317336Y-7247934D01*
X-73350000Y-7083719D01*
X-73350000Y-6916281D01*
X-73317336Y-6752066D01*
X-73253261Y-6597375D01*
X-73186817Y-6497934D01*
X-73160238Y-6458156D01*
X-73041844Y-6339762D01*
X-72913297Y-6253870D01*
X-72902625Y-6246739D01*
X-72747934Y-6182664D01*
X-72583719Y-6150000D01*
X-72416281Y-6150000D01*
X-72252066Y-6182664D01*
G37*
G36*
X-75752066Y-6182664D02*
G01*
X-75597375Y-6246739D01*
X-75586703Y-6253870D01*
X-75458156Y-6339762D01*
X-75339762Y-6458156D01*
X-75313183Y-6497934D01*
X-75246739Y-6597375D01*
X-75182664Y-6752066D01*
X-75150000Y-6916281D01*
X-75150000Y-7083719D01*
X-75182664Y-7247934D01*
X-75246739Y-7402625D01*
X-75257525Y-7418767D01*
X-75339762Y-7541844D01*
X-75458156Y-7660238D01*
X-75484883Y-7678096D01*
X-75597375Y-7753261D01*
X-75752066Y-7817336D01*
X-75916281Y-7850000D01*
X-76083719Y-7850000D01*
X-76247934Y-7817336D01*
X-76402625Y-7753261D01*
X-76515117Y-7678096D01*
X-76541844Y-7660238D01*
X-76660238Y-7541844D01*
X-76742475Y-7418767D01*
X-76753261Y-7402625D01*
X-76817336Y-7247934D01*
X-76850000Y-7083719D01*
X-76850000Y-6916281D01*
X-76817336Y-6752066D01*
X-76753261Y-6597375D01*
X-76686817Y-6497934D01*
X-76660238Y-6458156D01*
X-76541844Y-6339762D01*
X-76413297Y-6253870D01*
X-76402625Y-6246739D01*
X-76247934Y-6182664D01*
X-76083719Y-6150000D01*
X-75916281Y-6150000D01*
X-75752066Y-6182664D01*
G37*
G36*
X-86252066Y-6182664D02*
G01*
X-86097375Y-6246739D01*
X-86086703Y-6253870D01*
X-85958156Y-6339762D01*
X-85839762Y-6458156D01*
X-85813183Y-6497934D01*
X-85746739Y-6597375D01*
X-85682664Y-6752066D01*
X-85650000Y-6916281D01*
X-85650000Y-7083719D01*
X-85682664Y-7247934D01*
X-85746739Y-7402625D01*
X-85757525Y-7418767D01*
X-85839762Y-7541844D01*
X-85958156Y-7660238D01*
X-85984883Y-7678096D01*
X-86097375Y-7753261D01*
X-86252066Y-7817336D01*
X-86416281Y-7850000D01*
X-86583719Y-7850000D01*
X-86747934Y-7817336D01*
X-86902625Y-7753261D01*
X-87015117Y-7678096D01*
X-87041844Y-7660238D01*
X-87160238Y-7541844D01*
X-87242475Y-7418767D01*
X-87253261Y-7402625D01*
X-87317336Y-7247934D01*
X-87350000Y-7083719D01*
X-87350000Y-6916281D01*
X-87317336Y-6752066D01*
X-87253261Y-6597375D01*
X-87186817Y-6497934D01*
X-87160238Y-6458156D01*
X-87041844Y-6339762D01*
X-86913297Y-6253870D01*
X-86902625Y-6246739D01*
X-86747934Y-6182664D01*
X-86583719Y-6150000D01*
X-86416281Y-6150000D01*
X-86252066Y-6182664D01*
G37*
G36*
X-82752066Y-6182664D02*
G01*
X-82597375Y-6246739D01*
X-82586703Y-6253870D01*
X-82458156Y-6339762D01*
X-82339762Y-6458156D01*
X-82313183Y-6497934D01*
X-82246739Y-6597375D01*
X-82182664Y-6752066D01*
X-82150000Y-6916281D01*
X-82150000Y-7083719D01*
X-82182664Y-7247934D01*
X-82246739Y-7402625D01*
X-82257525Y-7418767D01*
X-82339762Y-7541844D01*
X-82458156Y-7660238D01*
X-82484883Y-7678096D01*
X-82597375Y-7753261D01*
X-82752066Y-7817336D01*
X-82916281Y-7850000D01*
X-83083719Y-7850000D01*
X-83247934Y-7817336D01*
X-83402625Y-7753261D01*
X-83515117Y-7678096D01*
X-83541844Y-7660238D01*
X-83660238Y-7541844D01*
X-83742475Y-7418767D01*
X-83753261Y-7402625D01*
X-83817336Y-7247934D01*
X-83850000Y-7083719D01*
X-83850000Y-6916281D01*
X-83817336Y-6752066D01*
X-83753261Y-6597375D01*
X-83686817Y-6497934D01*
X-83660238Y-6458156D01*
X-83541844Y-6339762D01*
X-83413297Y-6253870D01*
X-83402625Y-6246739D01*
X-83247934Y-6182664D01*
X-83083719Y-6150000D01*
X-82916281Y-6150000D01*
X-82752066Y-6182664D01*
G37*
G36*
X-79252066Y-6182664D02*
G01*
X-79097375Y-6246739D01*
X-79086703Y-6253870D01*
X-78958156Y-6339762D01*
X-78839762Y-6458156D01*
X-78813183Y-6497934D01*
X-78746739Y-6597375D01*
X-78682664Y-6752066D01*
X-78650000Y-6916281D01*
X-78650000Y-7083719D01*
X-78682664Y-7247934D01*
X-78746739Y-7402625D01*
X-78757525Y-7418767D01*
X-78839762Y-7541844D01*
X-78958156Y-7660238D01*
X-78984883Y-7678096D01*
X-79097375Y-7753261D01*
X-79252066Y-7817336D01*
X-79416281Y-7850000D01*
X-79583719Y-7850000D01*
X-79747934Y-7817336D01*
X-79902625Y-7753261D01*
X-80015117Y-7678096D01*
X-80041844Y-7660238D01*
X-80160238Y-7541844D01*
X-80242475Y-7418767D01*
X-80253261Y-7402625D01*
X-80317336Y-7247934D01*
X-80350000Y-7083719D01*
X-80350000Y-6916281D01*
X-80317336Y-6752066D01*
X-80253261Y-6597375D01*
X-80186817Y-6497934D01*
X-80160238Y-6458156D01*
X-80041844Y-6339762D01*
X-79913297Y-6253870D01*
X-79902625Y-6246739D01*
X-79747934Y-6182664D01*
X-79583719Y-6150000D01*
X-79416281Y-6150000D01*
X-79252066Y-6182664D01*
G37*
G36*
X-89752066Y-6182664D02*
G01*
X-89597375Y-6246739D01*
X-89586703Y-6253870D01*
X-89458156Y-6339762D01*
X-89339762Y-6458156D01*
X-89313183Y-6497934D01*
X-89246739Y-6597375D01*
X-89182664Y-6752066D01*
X-89150000Y-6916281D01*
X-89150000Y-7083719D01*
X-89182664Y-7247934D01*
X-89246739Y-7402625D01*
X-89257525Y-7418767D01*
X-89339762Y-7541844D01*
X-89458156Y-7660238D01*
X-89484883Y-7678096D01*
X-89597375Y-7753261D01*
X-89752066Y-7817336D01*
X-89916281Y-7850000D01*
X-90083719Y-7850000D01*
X-90247934Y-7817336D01*
X-90402625Y-7753261D01*
X-90515117Y-7678096D01*
X-90541844Y-7660238D01*
X-90660238Y-7541844D01*
X-90742475Y-7418767D01*
X-90753261Y-7402625D01*
X-90817336Y-7247934D01*
X-90850000Y-7083719D01*
X-90850000Y-6916281D01*
X-90817336Y-6752066D01*
X-90753261Y-6597375D01*
X-90686817Y-6497934D01*
X-90660238Y-6458156D01*
X-90541844Y-6339762D01*
X-90413297Y-6253870D01*
X-90402625Y-6246739D01*
X-90247934Y-6182664D01*
X-90083719Y-6150000D01*
X-89916281Y-6150000D01*
X-89752066Y-6182664D01*
G37*
G36*
X-94752066Y-5432664D02*
G01*
X-94597375Y-5496739D01*
X-94539729Y-5535257D01*
X-94458156Y-5589762D01*
X-94339762Y-5708156D01*
X-94339761Y-5708158D01*
X-94246739Y-5847375D01*
X-94182664Y-6002066D01*
X-94150000Y-6166281D01*
X-94150000Y-6333719D01*
X-94182664Y-6497934D01*
X-94246739Y-6652625D01*
X-94292935Y-6721762D01*
X-94339762Y-6791844D01*
X-94458156Y-6910238D01*
X-94467200Y-6916281D01*
X-94597375Y-7003261D01*
X-94752066Y-7067336D01*
X-94916281Y-7100000D01*
X-95083719Y-7100000D01*
X-95247934Y-7067336D01*
X-95402625Y-7003261D01*
X-95532800Y-6916281D01*
X-95541844Y-6910238D01*
X-95660238Y-6791844D01*
X-95707065Y-6721762D01*
X-95753261Y-6652625D01*
X-95817336Y-6497934D01*
X-95850000Y-6333719D01*
X-95850000Y-6166281D01*
X-95817336Y-6002066D01*
X-95753261Y-5847375D01*
X-95660239Y-5708158D01*
X-95660238Y-5708156D01*
X-95541844Y-5589762D01*
X-95460271Y-5535257D01*
X-95402625Y-5496739D01*
X-95247934Y-5432664D01*
X-95083719Y-5400000D01*
X-94916281Y-5400000D01*
X-94752066Y-5432664D01*
G37*
G36*
X-6501235Y-5458821D02*
G01*
X-6364743Y-5515358D01*
X-6241904Y-5597436D01*
X-6137436Y-5701904D01*
X-6055358Y-5824743D01*
X-5998821Y-5961235D01*
X-5970000Y-6106130D01*
X-5970000Y-6253870D01*
X-5998821Y-6398765D01*
X-6055358Y-6535257D01*
X-6137436Y-6658096D01*
X-6241904Y-6762564D01*
X-6364743Y-6844642D01*
X-6501235Y-6901179D01*
X-6646130Y-6930000D01*
X-6793870Y-6930000D01*
X-6938765Y-6901179D01*
X-7075257Y-6844642D01*
X-7198096Y-6762564D01*
X-7302564Y-6658096D01*
X-7384642Y-6535257D01*
X-7441179Y-6398765D01*
X-7470000Y-6253870D01*
X-7470000Y-6106130D01*
X-7441179Y-5961235D01*
X-7384642Y-5824743D01*
X-7302564Y-5701904D01*
X-7198096Y-5597436D01*
X-7075257Y-5515358D01*
X-6938765Y-5458821D01*
X-6793870Y-5430000D01*
X-6646130Y-5430000D01*
X-6501235Y-5458821D01*
G37*
G36*
X-11361235Y-4458821D02*
G01*
X-11224743Y-4515358D01*
X-11101904Y-4597436D01*
X-10997436Y-4701904D01*
X-10915358Y-4824743D01*
X-10858821Y-4961235D01*
X-10830000Y-5106130D01*
X-10830000Y-5253870D01*
X-10858821Y-5398765D01*
X-10915358Y-5535257D01*
X-10997436Y-5658096D01*
X-11101904Y-5762564D01*
X-11224743Y-5844642D01*
X-11361235Y-5901179D01*
X-11506130Y-5930000D01*
X-11653870Y-5930000D01*
X-11798765Y-5901179D01*
X-11935257Y-5844642D01*
X-12058096Y-5762564D01*
X-12162564Y-5658096D01*
X-12244642Y-5535257D01*
X-12301179Y-5398765D01*
X-12330000Y-5253870D01*
X-12330000Y-5106130D01*
X-12301179Y-4961235D01*
X-12244642Y-4824743D01*
X-12162564Y-4701904D01*
X-12058096Y-4597436D01*
X-11935257Y-4515358D01*
X-11798765Y-4458821D01*
X-11653870Y-4430000D01*
X-11506130Y-4430000D01*
X-11361235Y-4458821D01*
G37*
G36*
X-39752066Y-3632664D02*
G01*
X-39597375Y-3696739D01*
X-39597374Y-3696740D01*
X-39458156Y-3789762D01*
X-39339762Y-3908156D01*
X-39339761Y-3908158D01*
X-39246739Y-4047375D01*
X-39182664Y-4202066D01*
X-39150000Y-4366281D01*
X-39150000Y-4533719D01*
X-39182664Y-4697934D01*
X-39246739Y-4852625D01*
X-39246740Y-4852626D01*
X-39339762Y-4991844D01*
X-39458156Y-5110238D01*
X-39528238Y-5157065D01*
X-39597375Y-5203261D01*
X-39752066Y-5267336D01*
X-39916281Y-5300000D01*
X-40083719Y-5300000D01*
X-40247934Y-5267336D01*
X-40402625Y-5203261D01*
X-40471762Y-5157065D01*
X-40541844Y-5110238D01*
X-40660238Y-4991844D01*
X-40753260Y-4852626D01*
X-40753261Y-4852625D01*
X-40817336Y-4697934D01*
X-40850000Y-4533719D01*
X-40850000Y-4366281D01*
X-40817336Y-4202066D01*
X-40753261Y-4047375D01*
X-40660239Y-3908158D01*
X-40660238Y-3908156D01*
X-40541844Y-3789762D01*
X-40402626Y-3696740D01*
X-40402625Y-3696739D01*
X-40247934Y-3632664D01*
X-40083719Y-3600000D01*
X-39916281Y-3600000D01*
X-39752066Y-3632664D01*
G37*
G36*
X-34752066Y-3632664D02*
G01*
X-34597375Y-3696739D01*
X-34597374Y-3696740D01*
X-34458156Y-3789762D01*
X-34339762Y-3908156D01*
X-34339761Y-3908158D01*
X-34246739Y-4047375D01*
X-34182664Y-4202066D01*
X-34150000Y-4366281D01*
X-34150000Y-4533719D01*
X-34182664Y-4697934D01*
X-34246739Y-4852625D01*
X-34246740Y-4852626D01*
X-34339762Y-4991844D01*
X-34458156Y-5110238D01*
X-34528238Y-5157065D01*
X-34597375Y-5203261D01*
X-34752066Y-5267336D01*
X-34916281Y-5300000D01*
X-35083719Y-5300000D01*
X-35247934Y-5267336D01*
X-35402625Y-5203261D01*
X-35471762Y-5157065D01*
X-35541844Y-5110238D01*
X-35660238Y-4991844D01*
X-35753260Y-4852626D01*
X-35753261Y-4852625D01*
X-35817336Y-4697934D01*
X-35850000Y-4533719D01*
X-35850000Y-4366281D01*
X-35817336Y-4202066D01*
X-35753261Y-4047375D01*
X-35660239Y-3908158D01*
X-35660238Y-3908156D01*
X-35541844Y-3789762D01*
X-35402626Y-3696740D01*
X-35402625Y-3696739D01*
X-35247934Y-3632664D01*
X-35083719Y-3600000D01*
X-34916281Y-3600000D01*
X-34752066Y-3632664D01*
G37*
G36*
X-2078101Y-1781704D02*
G01*
X-1918713Y-1813408D01*
X-1794333Y-1864928D01*
X-1618433Y-1937788D01*
X-1618432Y-1937789D01*
X-1348186Y-2118361D01*
X-1118361Y-2348186D01*
X-1102765Y-2371527D01*
X-937788Y-2618433D01*
X-893647Y-2725000D01*
X-855899Y-2816130D01*
X-813408Y-2918714D01*
X-750000Y-3237488D01*
X-750000Y-3562512D01*
X-763954Y-3632664D01*
X-813408Y-3881287D01*
X-864928Y-4005667D01*
X-937788Y-4181567D01*
X-937789Y-4181568D01*
X-1118361Y-4451814D01*
X-1348186Y-4681639D01*
X-1378515Y-4701904D01*
X-1618433Y-4862212D01*
X-1794333Y-4935072D01*
X-1918713Y-4986592D01*
X-2078101Y-5018296D01*
X-2237488Y-5050000D01*
X-2562512Y-5050000D01*
X-2721899Y-5018296D01*
X-2881287Y-4986592D01*
X-3005667Y-4935072D01*
X-3181567Y-4862212D01*
X-3421485Y-4701904D01*
X-3451814Y-4681639D01*
X-3681639Y-4451814D01*
X-3862211Y-4181568D01*
X-3862212Y-4181567D01*
X-3935072Y-4005667D01*
X-3986592Y-3881287D01*
X-4036046Y-3632664D01*
X-4050000Y-3562512D01*
X-4050000Y-3237488D01*
X-3986592Y-2918714D01*
X-3944100Y-2816130D01*
X-3906353Y-2725000D01*
X-3862212Y-2618433D01*
X-3697235Y-2371527D01*
X-3681639Y-2348186D01*
X-3451814Y-2118361D01*
X-3181568Y-1937789D01*
X-3181567Y-1937788D01*
X-3005667Y-1864928D01*
X-2881287Y-1813408D01*
X-2721899Y-1781704D01*
X-2562512Y-1750000D01*
X-2237488Y-1750000D01*
X-2078101Y-1781704D01*
G37*
G36*
X-28500000Y-4500000D02*
G01*
X-29000000Y-5000000D01*
X-32000000Y-5000000D01*
X-32500000Y-4500000D01*
X-32500000Y0D01*
X-28500000Y0D01*
X-28500000Y-4500000D01*
G37*
G36*
X-11361235Y-2168821D02*
G01*
X-11224743Y-2225358D01*
X-11101904Y-2307436D01*
X-10997436Y-2411904D01*
X-10915358Y-2534743D01*
X-10858821Y-2671235D01*
X-10830000Y-2816130D01*
X-10830000Y-2963870D01*
X-10858821Y-3108765D01*
X-10915358Y-3245257D01*
X-10997436Y-3368096D01*
X-11101904Y-3472564D01*
X-11224743Y-3554642D01*
X-11361235Y-3611179D01*
X-11506130Y-3640000D01*
X-11653870Y-3640000D01*
X-11798765Y-3611179D01*
X-11935257Y-3554642D01*
X-12058096Y-3472564D01*
X-12162564Y-3368096D01*
X-12244642Y-3245257D01*
X-12301179Y-3108765D01*
X-12330000Y-2963870D01*
X-12330000Y-2816130D01*
X-12301179Y-2671235D01*
X-12244642Y-2534743D01*
X-12162564Y-2411904D01*
X-12058096Y-2307436D01*
X-11935257Y-2225358D01*
X-11798765Y-2168821D01*
X-11653870Y-2140000D01*
X-11506130Y-2140000D01*
X-11361235Y-2168821D01*
G37*
G36*
X-33809787Y-793734D02*
G01*
X-33715603Y-812468D01*
X-33538164Y-885966D01*
X-33378473Y-992668D01*
X-33242668Y-1128473D01*
X-33135966Y-1288164D01*
X-33062468Y-1465603D01*
X-33062468Y-1465605D01*
X-33035055Y-1603417D01*
X-33025000Y-1653971D01*
X-33025000Y-1846029D01*
X-33062468Y-2034397D01*
X-33135966Y-2211836D01*
X-33242668Y-2371527D01*
X-33378473Y-2507332D01*
X-33538164Y-2614034D01*
X-33538165Y-2614035D01*
X-33538166Y-2614035D01*
X-33548784Y-2618433D01*
X-33715603Y-2687532D01*
X-33809787Y-2706266D01*
X-33903969Y-2725000D01*
X-34096031Y-2725000D01*
X-34190213Y-2706266D01*
X-34284397Y-2687532D01*
X-34451216Y-2618433D01*
X-34461834Y-2614035D01*
X-34461835Y-2614035D01*
X-34461836Y-2614034D01*
X-34621527Y-2507332D01*
X-34757332Y-2371527D01*
X-34864034Y-2211836D01*
X-34937532Y-2034397D01*
X-34975000Y-1846029D01*
X-34975000Y-1653971D01*
X-34964944Y-1603417D01*
X-34937532Y-1465605D01*
X-34937532Y-1465603D01*
X-34864034Y-1288164D01*
X-34757332Y-1128473D01*
X-34621527Y-992668D01*
X-34461836Y-885966D01*
X-34284397Y-812468D01*
X-34190213Y-793734D01*
X-34096031Y-775000D01*
X-33903969Y-775000D01*
X-33809787Y-793734D01*
G37*
G36*
X-40809787Y-793734D02*
G01*
X-40715603Y-812468D01*
X-40538164Y-885966D01*
X-40378473Y-992668D01*
X-40242668Y-1128473D01*
X-40135966Y-1288164D01*
X-40062468Y-1465603D01*
X-40062468Y-1465605D01*
X-40035055Y-1603417D01*
X-40025000Y-1653971D01*
X-40025000Y-1846029D01*
X-40062468Y-2034397D01*
X-40135966Y-2211836D01*
X-40242668Y-2371527D01*
X-40378473Y-2507332D01*
X-40538164Y-2614034D01*
X-40538165Y-2614035D01*
X-40538166Y-2614035D01*
X-40548784Y-2618433D01*
X-40715603Y-2687532D01*
X-40809787Y-2706266D01*
X-40903969Y-2725000D01*
X-41096031Y-2725000D01*
X-41190213Y-2706266D01*
X-41284397Y-2687532D01*
X-41451216Y-2618433D01*
X-41461834Y-2614035D01*
X-41461835Y-2614035D01*
X-41461836Y-2614034D01*
X-41621527Y-2507332D01*
X-41757332Y-2371527D01*
X-41864034Y-2211836D01*
X-41937532Y-2034397D01*
X-41975000Y-1846029D01*
X-41975000Y-1653971D01*
X-41964944Y-1603417D01*
X-41937532Y-1465605D01*
X-41937532Y-1465603D01*
X-41864034Y-1288164D01*
X-41757332Y-1128473D01*
X-41621527Y-992668D01*
X-41461836Y-885966D01*
X-41284397Y-812468D01*
X-41190213Y-793734D01*
X-41096031Y-775000D01*
X-40903969Y-775000D01*
X-40809787Y-793734D01*
G37*
G36*
X-5701313Y-455027D02*
G01*
X-5523726Y-490350D01*
X-5332638Y-569502D01*
X-5160664Y-684411D01*
X-5014411Y-830664D01*
X-4899502Y-1002638D01*
X-4820350Y-1193726D01*
X-4780000Y-1396584D01*
X-4780000Y-1603416D01*
X-4820350Y-1806274D01*
X-4899502Y-1997362D01*
X-5014411Y-2169336D01*
X-5160664Y-2315589D01*
X-5332638Y-2430498D01*
X-5523726Y-2509650D01*
X-5701313Y-2544973D01*
X-5726583Y-2550000D01*
X-5933417Y-2550000D01*
X-5958687Y-2544973D01*
X-6136274Y-2509650D01*
X-6327362Y-2430498D01*
X-6499336Y-2315589D01*
X-6645589Y-2169336D01*
X-6760498Y-1997362D01*
X-6839650Y-1806274D01*
X-6880000Y-1603416D01*
X-6880000Y-1396584D01*
X-6839650Y-1193726D01*
X-6760498Y-1002638D01*
X-6645589Y-830664D01*
X-6499336Y-684411D01*
X-6327362Y-569502D01*
X-6136274Y-490350D01*
X-5958687Y-455027D01*
X-5933417Y-450000D01*
X-5726583Y-450000D01*
X-5701313Y-455027D01*
G37*
M02*
