G04 #@! TF.GenerationSoftware,KiCad,Pcbnew,(5.1.5)-3*
G04 #@! TF.CreationDate,2019-12-17T16:33:14+01:00*
G04 #@! TF.ProjectId,Copper,436f7070-6572-42e6-9b69-6361645f7063,rev?*
G04 #@! TF.SameCoordinates,Original*
G04 #@! TF.FileFunction,Soldermask,Bot*
G04 #@! TF.FilePolarity,Negative*
%FSLAX46Y46*%
G04 Gerber Fmt 4.6, Leading zero omitted, Abs format (unit mm)*
G04 Created by KiCad (PCBNEW (5.1.5)-3) date 2019-12-17 16:33:14*
%MOMM*%
%LPD*%
G04 APERTURE LIST*
%ADD10C,0.100000*%
G04 APERTURE END LIST*
D10*
G36*
X153938953Y-166293233D02*
G01*
X154156301Y-166336466D01*
X154565775Y-166506076D01*
X154934292Y-166752311D01*
X155247689Y-167065708D01*
X155493924Y-167434225D01*
X155663534Y-167843699D01*
X155750000Y-168278394D01*
X155750000Y-168721606D01*
X155663534Y-169156301D01*
X155493924Y-169565775D01*
X155247689Y-169934292D01*
X154934292Y-170247689D01*
X154565775Y-170493924D01*
X154156301Y-170663534D01*
X153938953Y-170706767D01*
X153721607Y-170750000D01*
X153278393Y-170750000D01*
X153061047Y-170706767D01*
X152843699Y-170663534D01*
X152434225Y-170493924D01*
X152065708Y-170247689D01*
X151752311Y-169934292D01*
X151506076Y-169565775D01*
X151336466Y-169156301D01*
X151250000Y-168721606D01*
X151250000Y-168278394D01*
X151336466Y-167843699D01*
X151506076Y-167434225D01*
X151752311Y-167065708D01*
X152065708Y-166752311D01*
X152434225Y-166506076D01*
X152843699Y-166336466D01*
X153061047Y-166293233D01*
X153278393Y-166250000D01*
X153721607Y-166250000D01*
X153938953Y-166293233D01*
G37*
G36*
X113938953Y-166293233D02*
G01*
X114156301Y-166336466D01*
X114565775Y-166506076D01*
X114934292Y-166752311D01*
X115247689Y-167065708D01*
X115493924Y-167434225D01*
X115663534Y-167843699D01*
X115750000Y-168278394D01*
X115750000Y-168721606D01*
X115663534Y-169156301D01*
X115493924Y-169565775D01*
X115247689Y-169934292D01*
X114934292Y-170247689D01*
X114565775Y-170493924D01*
X114156301Y-170663534D01*
X113938953Y-170706767D01*
X113721607Y-170750000D01*
X113278393Y-170750000D01*
X113061047Y-170706767D01*
X112843699Y-170663534D01*
X112434225Y-170493924D01*
X112065708Y-170247689D01*
X111752311Y-169934292D01*
X111506076Y-169565775D01*
X111336466Y-169156301D01*
X111250000Y-168721606D01*
X111250000Y-168278394D01*
X111336466Y-167843699D01*
X111506076Y-167434225D01*
X111752311Y-167065708D01*
X112065708Y-166752311D01*
X112434225Y-166506076D01*
X112843699Y-166336466D01*
X113061047Y-166293233D01*
X113278393Y-166250000D01*
X113721607Y-166250000D01*
X113938953Y-166293233D01*
G37*
G36*
X83938953Y-166293233D02*
G01*
X84156301Y-166336466D01*
X84565775Y-166506076D01*
X84934292Y-166752311D01*
X85247689Y-167065708D01*
X85493924Y-167434225D01*
X85663534Y-167843699D01*
X85750000Y-168278394D01*
X85750000Y-168721606D01*
X85663534Y-169156301D01*
X85493924Y-169565775D01*
X85247689Y-169934292D01*
X84934292Y-170247689D01*
X84565775Y-170493924D01*
X84156301Y-170663534D01*
X83938953Y-170706767D01*
X83721607Y-170750000D01*
X83278393Y-170750000D01*
X83061047Y-170706767D01*
X82843699Y-170663534D01*
X82434225Y-170493924D01*
X82065708Y-170247689D01*
X81752311Y-169934292D01*
X81506076Y-169565775D01*
X81336466Y-169156301D01*
X81250000Y-168721606D01*
X81250000Y-168278394D01*
X81336466Y-167843699D01*
X81506076Y-167434225D01*
X81752311Y-167065708D01*
X82065708Y-166752311D01*
X82434225Y-166506076D01*
X82843699Y-166336466D01*
X83061047Y-166293233D01*
X83278393Y-166250000D01*
X83721607Y-166250000D01*
X83938953Y-166293233D01*
G37*
G36*
X123938953Y-166293233D02*
G01*
X124156301Y-166336466D01*
X124565775Y-166506076D01*
X124934292Y-166752311D01*
X125247689Y-167065708D01*
X125493924Y-167434225D01*
X125663534Y-167843699D01*
X125750000Y-168278394D01*
X125750000Y-168721606D01*
X125663534Y-169156301D01*
X125493924Y-169565775D01*
X125247689Y-169934292D01*
X124934292Y-170247689D01*
X124565775Y-170493924D01*
X124156301Y-170663534D01*
X123938953Y-170706767D01*
X123721607Y-170750000D01*
X123278393Y-170750000D01*
X123061047Y-170706767D01*
X122843699Y-170663534D01*
X122434225Y-170493924D01*
X122065708Y-170247689D01*
X121752311Y-169934292D01*
X121506076Y-169565775D01*
X121336466Y-169156301D01*
X121250000Y-168721606D01*
X121250000Y-168278394D01*
X121336466Y-167843699D01*
X121506076Y-167434225D01*
X121752311Y-167065708D01*
X122065708Y-166752311D01*
X122434225Y-166506076D01*
X122843699Y-166336466D01*
X123061047Y-166293233D01*
X123278393Y-166250000D01*
X123721607Y-166250000D01*
X123938953Y-166293233D01*
G37*
G36*
X113853097Y-159034069D02*
G01*
X113956032Y-159044207D01*
X114154146Y-159104305D01*
X114154149Y-159104306D01*
X114250975Y-159156061D01*
X114336729Y-159201897D01*
X114496765Y-159333235D01*
X114628103Y-159493271D01*
X114673939Y-159579025D01*
X114725694Y-159675851D01*
X114725695Y-159675854D01*
X114785793Y-159873968D01*
X114806085Y-160080000D01*
X114785793Y-160286032D01*
X114725695Y-160484146D01*
X114725694Y-160484149D01*
X114673939Y-160580975D01*
X114628103Y-160666729D01*
X114496765Y-160826765D01*
X114336729Y-160958103D01*
X114250975Y-161003939D01*
X114154149Y-161055694D01*
X114154146Y-161055695D01*
X113956032Y-161115793D01*
X113853097Y-161125931D01*
X113801631Y-161131000D01*
X112198369Y-161131000D01*
X112146903Y-161125931D01*
X112043968Y-161115793D01*
X111845854Y-161055695D01*
X111845851Y-161055694D01*
X111749025Y-161003939D01*
X111663271Y-160958103D01*
X111503235Y-160826765D01*
X111371897Y-160666729D01*
X111326061Y-160580975D01*
X111274306Y-160484149D01*
X111274305Y-160484146D01*
X111214207Y-160286032D01*
X111193915Y-160080000D01*
X111214207Y-159873968D01*
X111274305Y-159675854D01*
X111274306Y-159675851D01*
X111326061Y-159579025D01*
X111371897Y-159493271D01*
X111503235Y-159333235D01*
X111663271Y-159201897D01*
X111749025Y-159156061D01*
X111845851Y-159104306D01*
X111845854Y-159104305D01*
X112043968Y-159044207D01*
X112146903Y-159034069D01*
X112198369Y-159029000D01*
X113801631Y-159029000D01*
X113853097Y-159034069D01*
G37*
G36*
X84853097Y-159034069D02*
G01*
X84956032Y-159044207D01*
X85154146Y-159104305D01*
X85154149Y-159104306D01*
X85250975Y-159156061D01*
X85336729Y-159201897D01*
X85496765Y-159333235D01*
X85628103Y-159493271D01*
X85673939Y-159579025D01*
X85725694Y-159675851D01*
X85725695Y-159675854D01*
X85785793Y-159873968D01*
X85806085Y-160080000D01*
X85785793Y-160286032D01*
X85725695Y-160484146D01*
X85725694Y-160484149D01*
X85673939Y-160580975D01*
X85628103Y-160666729D01*
X85496765Y-160826765D01*
X85336729Y-160958103D01*
X85250975Y-161003939D01*
X85154149Y-161055694D01*
X85154146Y-161055695D01*
X84956032Y-161115793D01*
X84853097Y-161125931D01*
X84801631Y-161131000D01*
X83198369Y-161131000D01*
X83146903Y-161125931D01*
X83043968Y-161115793D01*
X82845854Y-161055695D01*
X82845851Y-161055694D01*
X82749025Y-161003939D01*
X82663271Y-160958103D01*
X82503235Y-160826765D01*
X82371897Y-160666729D01*
X82326061Y-160580975D01*
X82274306Y-160484149D01*
X82274305Y-160484146D01*
X82214207Y-160286032D01*
X82193915Y-160080000D01*
X82214207Y-159873968D01*
X82274305Y-159675854D01*
X82274306Y-159675851D01*
X82326061Y-159579025D01*
X82371897Y-159493271D01*
X82503235Y-159333235D01*
X82663271Y-159201897D01*
X82749025Y-159156061D01*
X82845851Y-159104306D01*
X82845854Y-159104305D01*
X83043968Y-159044207D01*
X83146903Y-159034069D01*
X83198369Y-159029000D01*
X84801631Y-159029000D01*
X84853097Y-159034069D01*
G37*
G36*
X124853097Y-159034069D02*
G01*
X124956032Y-159044207D01*
X125154146Y-159104305D01*
X125154149Y-159104306D01*
X125250975Y-159156061D01*
X125336729Y-159201897D01*
X125496765Y-159333235D01*
X125628103Y-159493271D01*
X125673939Y-159579025D01*
X125725694Y-159675851D01*
X125725695Y-159675854D01*
X125785793Y-159873968D01*
X125806085Y-160080000D01*
X125785793Y-160286032D01*
X125725695Y-160484146D01*
X125725694Y-160484149D01*
X125673939Y-160580975D01*
X125628103Y-160666729D01*
X125496765Y-160826765D01*
X125336729Y-160958103D01*
X125250975Y-161003939D01*
X125154149Y-161055694D01*
X125154146Y-161055695D01*
X124956032Y-161115793D01*
X124853097Y-161125931D01*
X124801631Y-161131000D01*
X123198369Y-161131000D01*
X123146903Y-161125931D01*
X123043968Y-161115793D01*
X122845854Y-161055695D01*
X122845851Y-161055694D01*
X122749025Y-161003939D01*
X122663271Y-160958103D01*
X122503235Y-160826765D01*
X122371897Y-160666729D01*
X122326061Y-160580975D01*
X122274306Y-160484149D01*
X122274305Y-160484146D01*
X122214207Y-160286032D01*
X122193915Y-160080000D01*
X122214207Y-159873968D01*
X122274305Y-159675854D01*
X122274306Y-159675851D01*
X122326061Y-159579025D01*
X122371897Y-159493271D01*
X122503235Y-159333235D01*
X122663271Y-159201897D01*
X122749025Y-159156061D01*
X122845851Y-159104306D01*
X122845854Y-159104305D01*
X123043968Y-159044207D01*
X123146903Y-159034069D01*
X123198369Y-159029000D01*
X124801631Y-159029000D01*
X124853097Y-159034069D01*
G37*
G36*
X153853097Y-159034069D02*
G01*
X153956032Y-159044207D01*
X154154146Y-159104305D01*
X154154149Y-159104306D01*
X154250975Y-159156061D01*
X154336729Y-159201897D01*
X154496765Y-159333235D01*
X154628103Y-159493271D01*
X154673939Y-159579025D01*
X154725694Y-159675851D01*
X154725695Y-159675854D01*
X154785793Y-159873968D01*
X154806085Y-160080000D01*
X154785793Y-160286032D01*
X154725695Y-160484146D01*
X154725694Y-160484149D01*
X154673939Y-160580975D01*
X154628103Y-160666729D01*
X154496765Y-160826765D01*
X154336729Y-160958103D01*
X154250975Y-161003939D01*
X154154149Y-161055694D01*
X154154146Y-161055695D01*
X153956032Y-161115793D01*
X153853097Y-161125931D01*
X153801631Y-161131000D01*
X152198369Y-161131000D01*
X152146903Y-161125931D01*
X152043968Y-161115793D01*
X151845854Y-161055695D01*
X151845851Y-161055694D01*
X151749025Y-161003939D01*
X151663271Y-160958103D01*
X151503235Y-160826765D01*
X151371897Y-160666729D01*
X151326061Y-160580975D01*
X151274306Y-160484149D01*
X151274305Y-160484146D01*
X151214207Y-160286032D01*
X151193915Y-160080000D01*
X151214207Y-159873968D01*
X151274305Y-159675854D01*
X151274306Y-159675851D01*
X151326061Y-159579025D01*
X151371897Y-159493271D01*
X151503235Y-159333235D01*
X151663271Y-159201897D01*
X151749025Y-159156061D01*
X151845851Y-159104306D01*
X151845854Y-159104305D01*
X152043968Y-159044207D01*
X152146903Y-159034069D01*
X152198369Y-159029000D01*
X153801631Y-159029000D01*
X153853097Y-159034069D01*
G37*
G36*
X113853097Y-153954069D02*
G01*
X113956032Y-153964207D01*
X114154146Y-154024305D01*
X114154149Y-154024306D01*
X114250975Y-154076061D01*
X114336729Y-154121897D01*
X114496765Y-154253235D01*
X114628103Y-154413271D01*
X114673939Y-154499025D01*
X114725694Y-154595851D01*
X114725695Y-154595854D01*
X114785793Y-154793968D01*
X114806085Y-155000000D01*
X114785793Y-155206032D01*
X114725695Y-155404146D01*
X114725694Y-155404149D01*
X114673939Y-155500975D01*
X114628103Y-155586729D01*
X114496765Y-155746765D01*
X114336729Y-155878103D01*
X114250975Y-155923939D01*
X114154149Y-155975694D01*
X114154146Y-155975695D01*
X113956032Y-156035793D01*
X113853097Y-156045931D01*
X113801631Y-156051000D01*
X112198369Y-156051000D01*
X112146903Y-156045931D01*
X112043968Y-156035793D01*
X111845854Y-155975695D01*
X111845851Y-155975694D01*
X111749025Y-155923939D01*
X111663271Y-155878103D01*
X111503235Y-155746765D01*
X111371897Y-155586729D01*
X111326061Y-155500975D01*
X111274306Y-155404149D01*
X111274305Y-155404146D01*
X111214207Y-155206032D01*
X111193915Y-155000000D01*
X111214207Y-154793968D01*
X111274305Y-154595854D01*
X111274306Y-154595851D01*
X111326061Y-154499025D01*
X111371897Y-154413271D01*
X111503235Y-154253235D01*
X111663271Y-154121897D01*
X111749025Y-154076061D01*
X111845851Y-154024306D01*
X111845854Y-154024305D01*
X112043968Y-153964207D01*
X112146903Y-153954069D01*
X112198369Y-153949000D01*
X113801631Y-153949000D01*
X113853097Y-153954069D01*
G37*
G36*
X124853097Y-153954069D02*
G01*
X124956032Y-153964207D01*
X125154146Y-154024305D01*
X125154149Y-154024306D01*
X125250975Y-154076061D01*
X125336729Y-154121897D01*
X125496765Y-154253235D01*
X125628103Y-154413271D01*
X125673939Y-154499025D01*
X125725694Y-154595851D01*
X125725695Y-154595854D01*
X125785793Y-154793968D01*
X125806085Y-155000000D01*
X125785793Y-155206032D01*
X125725695Y-155404146D01*
X125725694Y-155404149D01*
X125673939Y-155500975D01*
X125628103Y-155586729D01*
X125496765Y-155746765D01*
X125336729Y-155878103D01*
X125250975Y-155923939D01*
X125154149Y-155975694D01*
X125154146Y-155975695D01*
X124956032Y-156035793D01*
X124853097Y-156045931D01*
X124801631Y-156051000D01*
X123198369Y-156051000D01*
X123146903Y-156045931D01*
X123043968Y-156035793D01*
X122845854Y-155975695D01*
X122845851Y-155975694D01*
X122749025Y-155923939D01*
X122663271Y-155878103D01*
X122503235Y-155746765D01*
X122371897Y-155586729D01*
X122326061Y-155500975D01*
X122274306Y-155404149D01*
X122274305Y-155404146D01*
X122214207Y-155206032D01*
X122193915Y-155000000D01*
X122214207Y-154793968D01*
X122274305Y-154595854D01*
X122274306Y-154595851D01*
X122326061Y-154499025D01*
X122371897Y-154413271D01*
X122503235Y-154253235D01*
X122663271Y-154121897D01*
X122749025Y-154076061D01*
X122845851Y-154024306D01*
X122845854Y-154024305D01*
X123043968Y-153964207D01*
X123146903Y-153954069D01*
X123198369Y-153949000D01*
X124801631Y-153949000D01*
X124853097Y-153954069D01*
G37*
G36*
X153853097Y-153954069D02*
G01*
X153956032Y-153964207D01*
X154154146Y-154024305D01*
X154154149Y-154024306D01*
X154250975Y-154076061D01*
X154336729Y-154121897D01*
X154496765Y-154253235D01*
X154628103Y-154413271D01*
X154673939Y-154499025D01*
X154725694Y-154595851D01*
X154725695Y-154595854D01*
X154785793Y-154793968D01*
X154806085Y-155000000D01*
X154785793Y-155206032D01*
X154725695Y-155404146D01*
X154725694Y-155404149D01*
X154673939Y-155500975D01*
X154628103Y-155586729D01*
X154496765Y-155746765D01*
X154336729Y-155878103D01*
X154250975Y-155923939D01*
X154154149Y-155975694D01*
X154154146Y-155975695D01*
X153956032Y-156035793D01*
X153853097Y-156045931D01*
X153801631Y-156051000D01*
X152198369Y-156051000D01*
X152146903Y-156045931D01*
X152043968Y-156035793D01*
X151845854Y-155975695D01*
X151845851Y-155975694D01*
X151749025Y-155923939D01*
X151663271Y-155878103D01*
X151503235Y-155746765D01*
X151371897Y-155586729D01*
X151326061Y-155500975D01*
X151274306Y-155404149D01*
X151274305Y-155404146D01*
X151214207Y-155206032D01*
X151193915Y-155000000D01*
X151214207Y-154793968D01*
X151274305Y-154595854D01*
X151274306Y-154595851D01*
X151326061Y-154499025D01*
X151371897Y-154413271D01*
X151503235Y-154253235D01*
X151663271Y-154121897D01*
X151749025Y-154076061D01*
X151845851Y-154024306D01*
X151845854Y-154024305D01*
X152043968Y-153964207D01*
X152146903Y-153954069D01*
X152198369Y-153949000D01*
X153801631Y-153949000D01*
X153853097Y-153954069D01*
G37*
G36*
X84853097Y-153954069D02*
G01*
X84956032Y-153964207D01*
X85154146Y-154024305D01*
X85154149Y-154024306D01*
X85250975Y-154076061D01*
X85336729Y-154121897D01*
X85496765Y-154253235D01*
X85628103Y-154413271D01*
X85673939Y-154499025D01*
X85725694Y-154595851D01*
X85725695Y-154595854D01*
X85785793Y-154793968D01*
X85806085Y-155000000D01*
X85785793Y-155206032D01*
X85725695Y-155404146D01*
X85725694Y-155404149D01*
X85673939Y-155500975D01*
X85628103Y-155586729D01*
X85496765Y-155746765D01*
X85336729Y-155878103D01*
X85250975Y-155923939D01*
X85154149Y-155975694D01*
X85154146Y-155975695D01*
X84956032Y-156035793D01*
X84853097Y-156045931D01*
X84801631Y-156051000D01*
X83198369Y-156051000D01*
X83146903Y-156045931D01*
X83043968Y-156035793D01*
X82845854Y-155975695D01*
X82845851Y-155975694D01*
X82749025Y-155923939D01*
X82663271Y-155878103D01*
X82503235Y-155746765D01*
X82371897Y-155586729D01*
X82326061Y-155500975D01*
X82274306Y-155404149D01*
X82274305Y-155404146D01*
X82214207Y-155206032D01*
X82193915Y-155000000D01*
X82214207Y-154793968D01*
X82274305Y-154595854D01*
X82274306Y-154595851D01*
X82326061Y-154499025D01*
X82371897Y-154413271D01*
X82503235Y-154253235D01*
X82663271Y-154121897D01*
X82749025Y-154076061D01*
X82845851Y-154024306D01*
X82845854Y-154024305D01*
X83043968Y-153964207D01*
X83146903Y-153954069D01*
X83198369Y-153949000D01*
X84801631Y-153949000D01*
X84853097Y-153954069D01*
G37*
G36*
X82827593Y-147210891D02*
G01*
X82937789Y-147244319D01*
X83039338Y-147298598D01*
X83128351Y-147371649D01*
X83201402Y-147460662D01*
X83255681Y-147562211D01*
X83289109Y-147672407D01*
X83301000Y-147793140D01*
X83301000Y-149206860D01*
X83289109Y-149327593D01*
X83255681Y-149437789D01*
X83201402Y-149539338D01*
X83128351Y-149628351D01*
X83039338Y-149701402D01*
X82937789Y-149755681D01*
X82827593Y-149789109D01*
X82706860Y-149801000D01*
X81293140Y-149801000D01*
X81172407Y-149789109D01*
X81062211Y-149755681D01*
X80960662Y-149701402D01*
X80871649Y-149628351D01*
X80798598Y-149539338D01*
X80744319Y-149437789D01*
X80710891Y-149327593D01*
X80699000Y-149206860D01*
X80699000Y-147793140D01*
X80710891Y-147672407D01*
X80744319Y-147562211D01*
X80798598Y-147460662D01*
X80871649Y-147371649D01*
X80960662Y-147298598D01*
X81062211Y-147244319D01*
X81172407Y-147210891D01*
X81293140Y-147199000D01*
X82706860Y-147199000D01*
X82827593Y-147210891D01*
G37*
G36*
X122827593Y-147210891D02*
G01*
X122937789Y-147244319D01*
X123039338Y-147298598D01*
X123128351Y-147371649D01*
X123201402Y-147460662D01*
X123255681Y-147562211D01*
X123289109Y-147672407D01*
X123301000Y-147793140D01*
X123301000Y-149206860D01*
X123289109Y-149327593D01*
X123255681Y-149437789D01*
X123201402Y-149539338D01*
X123128351Y-149628351D01*
X123039338Y-149701402D01*
X122937789Y-149755681D01*
X122827593Y-149789109D01*
X122706860Y-149801000D01*
X121293140Y-149801000D01*
X121172407Y-149789109D01*
X121062211Y-149755681D01*
X120960662Y-149701402D01*
X120871649Y-149628351D01*
X120798598Y-149539338D01*
X120744319Y-149437789D01*
X120710891Y-149327593D01*
X120699000Y-149206860D01*
X120699000Y-147793140D01*
X120710891Y-147672407D01*
X120744319Y-147562211D01*
X120798598Y-147460662D01*
X120871649Y-147371649D01*
X120960662Y-147298598D01*
X121062211Y-147244319D01*
X121172407Y-147210891D01*
X121293140Y-147199000D01*
X122706860Y-147199000D01*
X122827593Y-147210891D01*
G37*
G36*
X122827593Y-143710891D02*
G01*
X122937789Y-143744319D01*
X123039338Y-143798598D01*
X123128351Y-143871649D01*
X123201402Y-143960662D01*
X123255681Y-144062211D01*
X123289109Y-144172407D01*
X123301000Y-144293140D01*
X123301000Y-145706860D01*
X123289109Y-145827593D01*
X123255681Y-145937789D01*
X123201402Y-146039338D01*
X123128351Y-146128351D01*
X123039338Y-146201402D01*
X122937789Y-146255681D01*
X122827593Y-146289109D01*
X122706860Y-146301000D01*
X121293140Y-146301000D01*
X121172407Y-146289109D01*
X121062211Y-146255681D01*
X120960662Y-146201402D01*
X120871649Y-146128351D01*
X120798598Y-146039338D01*
X120744319Y-145937789D01*
X120710891Y-145827593D01*
X120699000Y-145706860D01*
X120699000Y-144293140D01*
X120710891Y-144172407D01*
X120744319Y-144062211D01*
X120798598Y-143960662D01*
X120871649Y-143871649D01*
X120960662Y-143798598D01*
X121062211Y-143744319D01*
X121172407Y-143710891D01*
X121293140Y-143699000D01*
X122706860Y-143699000D01*
X122827593Y-143710891D01*
G37*
G36*
X82827593Y-143710891D02*
G01*
X82937789Y-143744319D01*
X83039338Y-143798598D01*
X83128351Y-143871649D01*
X83201402Y-143960662D01*
X83255681Y-144062211D01*
X83289109Y-144172407D01*
X83301000Y-144293140D01*
X83301000Y-145706860D01*
X83289109Y-145827593D01*
X83255681Y-145937789D01*
X83201402Y-146039338D01*
X83128351Y-146128351D01*
X83039338Y-146201402D01*
X82937789Y-146255681D01*
X82827593Y-146289109D01*
X82706860Y-146301000D01*
X81293140Y-146301000D01*
X81172407Y-146289109D01*
X81062211Y-146255681D01*
X80960662Y-146201402D01*
X80871649Y-146128351D01*
X80798598Y-146039338D01*
X80744319Y-145937789D01*
X80710891Y-145827593D01*
X80699000Y-145706860D01*
X80699000Y-144293140D01*
X80710891Y-144172407D01*
X80744319Y-144062211D01*
X80798598Y-143960662D01*
X80871649Y-143871649D01*
X80960662Y-143798598D01*
X81062211Y-143744319D01*
X81172407Y-143710891D01*
X81293140Y-143699000D01*
X82706860Y-143699000D01*
X82827593Y-143710891D01*
G37*
G36*
X114156301Y-136336466D02*
G01*
X114565775Y-136506076D01*
X114934292Y-136752311D01*
X115247689Y-137065708D01*
X115493924Y-137434225D01*
X115663534Y-137843699D01*
X115750000Y-138278394D01*
X115750000Y-138721606D01*
X115663534Y-139156301D01*
X115493924Y-139565775D01*
X115247689Y-139934292D01*
X114934292Y-140247689D01*
X114565775Y-140493924D01*
X114156301Y-140663534D01*
X113938953Y-140706767D01*
X113721607Y-140750000D01*
X113278393Y-140750000D01*
X113061047Y-140706767D01*
X112843699Y-140663534D01*
X112434225Y-140493924D01*
X112065708Y-140247689D01*
X111752311Y-139934292D01*
X111506076Y-139565775D01*
X111336466Y-139156301D01*
X111250000Y-138721606D01*
X111250000Y-138278394D01*
X111336466Y-137843699D01*
X111506076Y-137434225D01*
X111752311Y-137065708D01*
X112065708Y-136752311D01*
X112434225Y-136506076D01*
X112843699Y-136336466D01*
X113278393Y-136250000D01*
X113721607Y-136250000D01*
X114156301Y-136336466D01*
G37*
G36*
X154156301Y-136336466D02*
G01*
X154565775Y-136506076D01*
X154934292Y-136752311D01*
X155247689Y-137065708D01*
X155493924Y-137434225D01*
X155663534Y-137843699D01*
X155750000Y-138278394D01*
X155750000Y-138721606D01*
X155663534Y-139156301D01*
X155493924Y-139565775D01*
X155247689Y-139934292D01*
X154934292Y-140247689D01*
X154565775Y-140493924D01*
X154156301Y-140663534D01*
X153938953Y-140706767D01*
X153721607Y-140750000D01*
X153278393Y-140750000D01*
X153061047Y-140706767D01*
X152843699Y-140663534D01*
X152434225Y-140493924D01*
X152065708Y-140247689D01*
X151752311Y-139934292D01*
X151506076Y-139565775D01*
X151336466Y-139156301D01*
X151250000Y-138721606D01*
X151250000Y-138278394D01*
X151336466Y-137843699D01*
X151506076Y-137434225D01*
X151752311Y-137065708D01*
X152065708Y-136752311D01*
X152434225Y-136506076D01*
X152843699Y-136336466D01*
X153278393Y-136250000D01*
X153721607Y-136250000D01*
X154156301Y-136336466D01*
G37*
G36*
X124156301Y-136336466D02*
G01*
X124565775Y-136506076D01*
X124934292Y-136752311D01*
X125247689Y-137065708D01*
X125493924Y-137434225D01*
X125663534Y-137843699D01*
X125750000Y-138278394D01*
X125750000Y-138721606D01*
X125663534Y-139156301D01*
X125493924Y-139565775D01*
X125247689Y-139934292D01*
X124934292Y-140247689D01*
X124565775Y-140493924D01*
X124156301Y-140663534D01*
X123938953Y-140706767D01*
X123721607Y-140750000D01*
X123278393Y-140750000D01*
X123061047Y-140706767D01*
X122843699Y-140663534D01*
X122434225Y-140493924D01*
X122065708Y-140247689D01*
X121752311Y-139934292D01*
X121506076Y-139565775D01*
X121336466Y-139156301D01*
X121250000Y-138721606D01*
X121250000Y-138278394D01*
X121336466Y-137843699D01*
X121506076Y-137434225D01*
X121752311Y-137065708D01*
X122065708Y-136752311D01*
X122434225Y-136506076D01*
X122843699Y-136336466D01*
X123278393Y-136250000D01*
X123721607Y-136250000D01*
X124156301Y-136336466D01*
G37*
G36*
X84156301Y-136336466D02*
G01*
X84565775Y-136506076D01*
X84934292Y-136752311D01*
X85247689Y-137065708D01*
X85493924Y-137434225D01*
X85663534Y-137843699D01*
X85750000Y-138278394D01*
X85750000Y-138721606D01*
X85663534Y-139156301D01*
X85493924Y-139565775D01*
X85247689Y-139934292D01*
X84934292Y-140247689D01*
X84565775Y-140493924D01*
X84156301Y-140663534D01*
X83938953Y-140706767D01*
X83721607Y-140750000D01*
X83278393Y-140750000D01*
X83061047Y-140706767D01*
X82843699Y-140663534D01*
X82434225Y-140493924D01*
X82065708Y-140247689D01*
X81752311Y-139934292D01*
X81506076Y-139565775D01*
X81336466Y-139156301D01*
X81250000Y-138721606D01*
X81250000Y-138278394D01*
X81336466Y-137843699D01*
X81506076Y-137434225D01*
X81752311Y-137065708D01*
X82065708Y-136752311D01*
X82434225Y-136506076D01*
X82843699Y-136336466D01*
X83278393Y-136250000D01*
X83721607Y-136250000D01*
X84156301Y-136336466D01*
G37*
G36*
X124156301Y-126336466D02*
G01*
X124565775Y-126506076D01*
X124934292Y-126752311D01*
X125247689Y-127065708D01*
X125493924Y-127434225D01*
X125663534Y-127843699D01*
X125750000Y-128278394D01*
X125750000Y-128721606D01*
X125663534Y-129156301D01*
X125493924Y-129565775D01*
X125247689Y-129934292D01*
X124934292Y-130247689D01*
X124565775Y-130493924D01*
X124156301Y-130663534D01*
X123721607Y-130750000D01*
X123278393Y-130750000D01*
X122843699Y-130663534D01*
X122434225Y-130493924D01*
X122065708Y-130247689D01*
X121752311Y-129934292D01*
X121506076Y-129565775D01*
X121336466Y-129156301D01*
X121250000Y-128721606D01*
X121250000Y-128278394D01*
X121336466Y-127843699D01*
X121506076Y-127434225D01*
X121752311Y-127065708D01*
X122065708Y-126752311D01*
X122434225Y-126506076D01*
X122843699Y-126336466D01*
X123278393Y-126250000D01*
X123721607Y-126250000D01*
X124156301Y-126336466D01*
G37*
G36*
X154156301Y-126336466D02*
G01*
X154565775Y-126506076D01*
X154934292Y-126752311D01*
X155247689Y-127065708D01*
X155493924Y-127434225D01*
X155663534Y-127843699D01*
X155750000Y-128278394D01*
X155750000Y-128721606D01*
X155663534Y-129156301D01*
X155493924Y-129565775D01*
X155247689Y-129934292D01*
X154934292Y-130247689D01*
X154565775Y-130493924D01*
X154156301Y-130663534D01*
X153721607Y-130750000D01*
X153278393Y-130750000D01*
X152843699Y-130663534D01*
X152434225Y-130493924D01*
X152065708Y-130247689D01*
X151752311Y-129934292D01*
X151506076Y-129565775D01*
X151336466Y-129156301D01*
X151250000Y-128721606D01*
X151250000Y-128278394D01*
X151336466Y-127843699D01*
X151506076Y-127434225D01*
X151752311Y-127065708D01*
X152065708Y-126752311D01*
X152434225Y-126506076D01*
X152843699Y-126336466D01*
X153278393Y-126250000D01*
X153721607Y-126250000D01*
X154156301Y-126336466D01*
G37*
G36*
X114156301Y-126336466D02*
G01*
X114565775Y-126506076D01*
X114934292Y-126752311D01*
X115247689Y-127065708D01*
X115493924Y-127434225D01*
X115663534Y-127843699D01*
X115750000Y-128278394D01*
X115750000Y-128721606D01*
X115663534Y-129156301D01*
X115493924Y-129565775D01*
X115247689Y-129934292D01*
X114934292Y-130247689D01*
X114565775Y-130493924D01*
X114156301Y-130663534D01*
X113721607Y-130750000D01*
X113278393Y-130750000D01*
X112843699Y-130663534D01*
X112434225Y-130493924D01*
X112065708Y-130247689D01*
X111752311Y-129934292D01*
X111506076Y-129565775D01*
X111336466Y-129156301D01*
X111250000Y-128721606D01*
X111250000Y-128278394D01*
X111336466Y-127843699D01*
X111506076Y-127434225D01*
X111752311Y-127065708D01*
X112065708Y-126752311D01*
X112434225Y-126506076D01*
X112843699Y-126336466D01*
X113278393Y-126250000D01*
X113721607Y-126250000D01*
X114156301Y-126336466D01*
G37*
G36*
X84156301Y-126336466D02*
G01*
X84565775Y-126506076D01*
X84934292Y-126752311D01*
X85247689Y-127065708D01*
X85493924Y-127434225D01*
X85663534Y-127843699D01*
X85750000Y-128278394D01*
X85750000Y-128721606D01*
X85663534Y-129156301D01*
X85493924Y-129565775D01*
X85247689Y-129934292D01*
X84934292Y-130247689D01*
X84565775Y-130493924D01*
X84156301Y-130663534D01*
X83721607Y-130750000D01*
X83278393Y-130750000D01*
X82843699Y-130663534D01*
X82434225Y-130493924D01*
X82065708Y-130247689D01*
X81752311Y-129934292D01*
X81506076Y-129565775D01*
X81336466Y-129156301D01*
X81250000Y-128721606D01*
X81250000Y-128278394D01*
X81336466Y-127843699D01*
X81506076Y-127434225D01*
X81752311Y-127065708D01*
X82065708Y-126752311D01*
X82434225Y-126506076D01*
X82843699Y-126336466D01*
X83278393Y-126250000D01*
X83721607Y-126250000D01*
X84156301Y-126336466D01*
G37*
G36*
X124853097Y-119034069D02*
G01*
X124956032Y-119044207D01*
X125154146Y-119104305D01*
X125154149Y-119104306D01*
X125250975Y-119156061D01*
X125336729Y-119201897D01*
X125496765Y-119333235D01*
X125628103Y-119493271D01*
X125673939Y-119579025D01*
X125725694Y-119675851D01*
X125725695Y-119675854D01*
X125785793Y-119873968D01*
X125806085Y-120080000D01*
X125785793Y-120286032D01*
X125725695Y-120484146D01*
X125725694Y-120484149D01*
X125673939Y-120580975D01*
X125628103Y-120666729D01*
X125496765Y-120826765D01*
X125336729Y-120958103D01*
X125250975Y-121003939D01*
X125154149Y-121055694D01*
X125154146Y-121055695D01*
X124956032Y-121115793D01*
X124853097Y-121125931D01*
X124801631Y-121131000D01*
X123198369Y-121131000D01*
X123146903Y-121125931D01*
X123043968Y-121115793D01*
X122845854Y-121055695D01*
X122845851Y-121055694D01*
X122749025Y-121003939D01*
X122663271Y-120958103D01*
X122503235Y-120826765D01*
X122371897Y-120666729D01*
X122326061Y-120580975D01*
X122274306Y-120484149D01*
X122274305Y-120484146D01*
X122214207Y-120286032D01*
X122193915Y-120080000D01*
X122214207Y-119873968D01*
X122274305Y-119675854D01*
X122274306Y-119675851D01*
X122326061Y-119579025D01*
X122371897Y-119493271D01*
X122503235Y-119333235D01*
X122663271Y-119201897D01*
X122749025Y-119156061D01*
X122845851Y-119104306D01*
X122845854Y-119104305D01*
X123043968Y-119044207D01*
X123146903Y-119034069D01*
X123198369Y-119029000D01*
X124801631Y-119029000D01*
X124853097Y-119034069D01*
G37*
G36*
X153853097Y-119034069D02*
G01*
X153956032Y-119044207D01*
X154154146Y-119104305D01*
X154154149Y-119104306D01*
X154250975Y-119156061D01*
X154336729Y-119201897D01*
X154496765Y-119333235D01*
X154628103Y-119493271D01*
X154673939Y-119579025D01*
X154725694Y-119675851D01*
X154725695Y-119675854D01*
X154785793Y-119873968D01*
X154806085Y-120080000D01*
X154785793Y-120286032D01*
X154725695Y-120484146D01*
X154725694Y-120484149D01*
X154673939Y-120580975D01*
X154628103Y-120666729D01*
X154496765Y-120826765D01*
X154336729Y-120958103D01*
X154250975Y-121003939D01*
X154154149Y-121055694D01*
X154154146Y-121055695D01*
X153956032Y-121115793D01*
X153853097Y-121125931D01*
X153801631Y-121131000D01*
X152198369Y-121131000D01*
X152146903Y-121125931D01*
X152043968Y-121115793D01*
X151845854Y-121055695D01*
X151845851Y-121055694D01*
X151749025Y-121003939D01*
X151663271Y-120958103D01*
X151503235Y-120826765D01*
X151371897Y-120666729D01*
X151326061Y-120580975D01*
X151274306Y-120484149D01*
X151274305Y-120484146D01*
X151214207Y-120286032D01*
X151193915Y-120080000D01*
X151214207Y-119873968D01*
X151274305Y-119675854D01*
X151274306Y-119675851D01*
X151326061Y-119579025D01*
X151371897Y-119493271D01*
X151503235Y-119333235D01*
X151663271Y-119201897D01*
X151749025Y-119156061D01*
X151845851Y-119104306D01*
X151845854Y-119104305D01*
X152043968Y-119044207D01*
X152146903Y-119034069D01*
X152198369Y-119029000D01*
X153801631Y-119029000D01*
X153853097Y-119034069D01*
G37*
G36*
X113853097Y-119034069D02*
G01*
X113956032Y-119044207D01*
X114154146Y-119104305D01*
X114154149Y-119104306D01*
X114250975Y-119156061D01*
X114336729Y-119201897D01*
X114496765Y-119333235D01*
X114628103Y-119493271D01*
X114673939Y-119579025D01*
X114725694Y-119675851D01*
X114725695Y-119675854D01*
X114785793Y-119873968D01*
X114806085Y-120080000D01*
X114785793Y-120286032D01*
X114725695Y-120484146D01*
X114725694Y-120484149D01*
X114673939Y-120580975D01*
X114628103Y-120666729D01*
X114496765Y-120826765D01*
X114336729Y-120958103D01*
X114250975Y-121003939D01*
X114154149Y-121055694D01*
X114154146Y-121055695D01*
X113956032Y-121115793D01*
X113853097Y-121125931D01*
X113801631Y-121131000D01*
X112198369Y-121131000D01*
X112146903Y-121125931D01*
X112043968Y-121115793D01*
X111845854Y-121055695D01*
X111845851Y-121055694D01*
X111749025Y-121003939D01*
X111663271Y-120958103D01*
X111503235Y-120826765D01*
X111371897Y-120666729D01*
X111326061Y-120580975D01*
X111274306Y-120484149D01*
X111274305Y-120484146D01*
X111214207Y-120286032D01*
X111193915Y-120080000D01*
X111214207Y-119873968D01*
X111274305Y-119675854D01*
X111274306Y-119675851D01*
X111326061Y-119579025D01*
X111371897Y-119493271D01*
X111503235Y-119333235D01*
X111663271Y-119201897D01*
X111749025Y-119156061D01*
X111845851Y-119104306D01*
X111845854Y-119104305D01*
X112043968Y-119044207D01*
X112146903Y-119034069D01*
X112198369Y-119029000D01*
X113801631Y-119029000D01*
X113853097Y-119034069D01*
G37*
G36*
X84853097Y-119034069D02*
G01*
X84956032Y-119044207D01*
X85154146Y-119104305D01*
X85154149Y-119104306D01*
X85250975Y-119156061D01*
X85336729Y-119201897D01*
X85496765Y-119333235D01*
X85628103Y-119493271D01*
X85673939Y-119579025D01*
X85725694Y-119675851D01*
X85725695Y-119675854D01*
X85785793Y-119873968D01*
X85806085Y-120080000D01*
X85785793Y-120286032D01*
X85725695Y-120484146D01*
X85725694Y-120484149D01*
X85673939Y-120580975D01*
X85628103Y-120666729D01*
X85496765Y-120826765D01*
X85336729Y-120958103D01*
X85250975Y-121003939D01*
X85154149Y-121055694D01*
X85154146Y-121055695D01*
X84956032Y-121115793D01*
X84853097Y-121125931D01*
X84801631Y-121131000D01*
X83198369Y-121131000D01*
X83146903Y-121125931D01*
X83043968Y-121115793D01*
X82845854Y-121055695D01*
X82845851Y-121055694D01*
X82749025Y-121003939D01*
X82663271Y-120958103D01*
X82503235Y-120826765D01*
X82371897Y-120666729D01*
X82326061Y-120580975D01*
X82274306Y-120484149D01*
X82274305Y-120484146D01*
X82214207Y-120286032D01*
X82193915Y-120080000D01*
X82214207Y-119873968D01*
X82274305Y-119675854D01*
X82274306Y-119675851D01*
X82326061Y-119579025D01*
X82371897Y-119493271D01*
X82503235Y-119333235D01*
X82663271Y-119201897D01*
X82749025Y-119156061D01*
X82845851Y-119104306D01*
X82845854Y-119104305D01*
X83043968Y-119044207D01*
X83146903Y-119034069D01*
X83198369Y-119029000D01*
X84801631Y-119029000D01*
X84853097Y-119034069D01*
G37*
G36*
X153853097Y-113954069D02*
G01*
X153956032Y-113964207D01*
X154154146Y-114024305D01*
X154154149Y-114024306D01*
X154250975Y-114076061D01*
X154336729Y-114121897D01*
X154496765Y-114253235D01*
X154628103Y-114413271D01*
X154673939Y-114499025D01*
X154725694Y-114595851D01*
X154725695Y-114595854D01*
X154785793Y-114793968D01*
X154806085Y-115000000D01*
X154785793Y-115206032D01*
X154725695Y-115404146D01*
X154725694Y-115404149D01*
X154673939Y-115500975D01*
X154628103Y-115586729D01*
X154496765Y-115746765D01*
X154336729Y-115878103D01*
X154250975Y-115923939D01*
X154154149Y-115975694D01*
X154154146Y-115975695D01*
X153956032Y-116035793D01*
X153853097Y-116045931D01*
X153801631Y-116051000D01*
X152198369Y-116051000D01*
X152146903Y-116045931D01*
X152043968Y-116035793D01*
X151845854Y-115975695D01*
X151845851Y-115975694D01*
X151749025Y-115923939D01*
X151663271Y-115878103D01*
X151503235Y-115746765D01*
X151371897Y-115586729D01*
X151326061Y-115500975D01*
X151274306Y-115404149D01*
X151274305Y-115404146D01*
X151214207Y-115206032D01*
X151193915Y-115000000D01*
X151214207Y-114793968D01*
X151274305Y-114595854D01*
X151274306Y-114595851D01*
X151326061Y-114499025D01*
X151371897Y-114413271D01*
X151503235Y-114253235D01*
X151663271Y-114121897D01*
X151749025Y-114076061D01*
X151845851Y-114024306D01*
X151845854Y-114024305D01*
X152043968Y-113964207D01*
X152146903Y-113954069D01*
X152198369Y-113949000D01*
X153801631Y-113949000D01*
X153853097Y-113954069D01*
G37*
G36*
X113853097Y-113954069D02*
G01*
X113956032Y-113964207D01*
X114154146Y-114024305D01*
X114154149Y-114024306D01*
X114250975Y-114076061D01*
X114336729Y-114121897D01*
X114496765Y-114253235D01*
X114628103Y-114413271D01*
X114673939Y-114499025D01*
X114725694Y-114595851D01*
X114725695Y-114595854D01*
X114785793Y-114793968D01*
X114806085Y-115000000D01*
X114785793Y-115206032D01*
X114725695Y-115404146D01*
X114725694Y-115404149D01*
X114673939Y-115500975D01*
X114628103Y-115586729D01*
X114496765Y-115746765D01*
X114336729Y-115878103D01*
X114250975Y-115923939D01*
X114154149Y-115975694D01*
X114154146Y-115975695D01*
X113956032Y-116035793D01*
X113853097Y-116045931D01*
X113801631Y-116051000D01*
X112198369Y-116051000D01*
X112146903Y-116045931D01*
X112043968Y-116035793D01*
X111845854Y-115975695D01*
X111845851Y-115975694D01*
X111749025Y-115923939D01*
X111663271Y-115878103D01*
X111503235Y-115746765D01*
X111371897Y-115586729D01*
X111326061Y-115500975D01*
X111274306Y-115404149D01*
X111274305Y-115404146D01*
X111214207Y-115206032D01*
X111193915Y-115000000D01*
X111214207Y-114793968D01*
X111274305Y-114595854D01*
X111274306Y-114595851D01*
X111326061Y-114499025D01*
X111371897Y-114413271D01*
X111503235Y-114253235D01*
X111663271Y-114121897D01*
X111749025Y-114076061D01*
X111845851Y-114024306D01*
X111845854Y-114024305D01*
X112043968Y-113964207D01*
X112146903Y-113954069D01*
X112198369Y-113949000D01*
X113801631Y-113949000D01*
X113853097Y-113954069D01*
G37*
G36*
X84853097Y-113954069D02*
G01*
X84956032Y-113964207D01*
X85154146Y-114024305D01*
X85154149Y-114024306D01*
X85250975Y-114076061D01*
X85336729Y-114121897D01*
X85496765Y-114253235D01*
X85628103Y-114413271D01*
X85673939Y-114499025D01*
X85725694Y-114595851D01*
X85725695Y-114595854D01*
X85785793Y-114793968D01*
X85806085Y-115000000D01*
X85785793Y-115206032D01*
X85725695Y-115404146D01*
X85725694Y-115404149D01*
X85673939Y-115500975D01*
X85628103Y-115586729D01*
X85496765Y-115746765D01*
X85336729Y-115878103D01*
X85250975Y-115923939D01*
X85154149Y-115975694D01*
X85154146Y-115975695D01*
X84956032Y-116035793D01*
X84853097Y-116045931D01*
X84801631Y-116051000D01*
X83198369Y-116051000D01*
X83146903Y-116045931D01*
X83043968Y-116035793D01*
X82845854Y-115975695D01*
X82845851Y-115975694D01*
X82749025Y-115923939D01*
X82663271Y-115878103D01*
X82503235Y-115746765D01*
X82371897Y-115586729D01*
X82326061Y-115500975D01*
X82274306Y-115404149D01*
X82274305Y-115404146D01*
X82214207Y-115206032D01*
X82193915Y-115000000D01*
X82214207Y-114793968D01*
X82274305Y-114595854D01*
X82274306Y-114595851D01*
X82326061Y-114499025D01*
X82371897Y-114413271D01*
X82503235Y-114253235D01*
X82663271Y-114121897D01*
X82749025Y-114076061D01*
X82845851Y-114024306D01*
X82845854Y-114024305D01*
X83043968Y-113964207D01*
X83146903Y-113954069D01*
X83198369Y-113949000D01*
X84801631Y-113949000D01*
X84853097Y-113954069D01*
G37*
G36*
X124853097Y-113954069D02*
G01*
X124956032Y-113964207D01*
X125154146Y-114024305D01*
X125154149Y-114024306D01*
X125250975Y-114076061D01*
X125336729Y-114121897D01*
X125496765Y-114253235D01*
X125628103Y-114413271D01*
X125673939Y-114499025D01*
X125725694Y-114595851D01*
X125725695Y-114595854D01*
X125785793Y-114793968D01*
X125806085Y-115000000D01*
X125785793Y-115206032D01*
X125725695Y-115404146D01*
X125725694Y-115404149D01*
X125673939Y-115500975D01*
X125628103Y-115586729D01*
X125496765Y-115746765D01*
X125336729Y-115878103D01*
X125250975Y-115923939D01*
X125154149Y-115975694D01*
X125154146Y-115975695D01*
X124956032Y-116035793D01*
X124853097Y-116045931D01*
X124801631Y-116051000D01*
X123198369Y-116051000D01*
X123146903Y-116045931D01*
X123043968Y-116035793D01*
X122845854Y-115975695D01*
X122845851Y-115975694D01*
X122749025Y-115923939D01*
X122663271Y-115878103D01*
X122503235Y-115746765D01*
X122371897Y-115586729D01*
X122326061Y-115500975D01*
X122274306Y-115404149D01*
X122274305Y-115404146D01*
X122214207Y-115206032D01*
X122193915Y-115000000D01*
X122214207Y-114793968D01*
X122274305Y-114595854D01*
X122274306Y-114595851D01*
X122326061Y-114499025D01*
X122371897Y-114413271D01*
X122503235Y-114253235D01*
X122663271Y-114121897D01*
X122749025Y-114076061D01*
X122845851Y-114024306D01*
X122845854Y-114024305D01*
X123043968Y-113964207D01*
X123146903Y-113954069D01*
X123198369Y-113949000D01*
X124801631Y-113949000D01*
X124853097Y-113954069D01*
G37*
G36*
X82827593Y-107210891D02*
G01*
X82937789Y-107244319D01*
X83039338Y-107298598D01*
X83128351Y-107371649D01*
X83201402Y-107460662D01*
X83255681Y-107562211D01*
X83289109Y-107672407D01*
X83301000Y-107793140D01*
X83301000Y-109206860D01*
X83289109Y-109327593D01*
X83255681Y-109437789D01*
X83201402Y-109539338D01*
X83128351Y-109628351D01*
X83039338Y-109701402D01*
X82937789Y-109755681D01*
X82827593Y-109789109D01*
X82706860Y-109801000D01*
X81293140Y-109801000D01*
X81172407Y-109789109D01*
X81062211Y-109755681D01*
X80960662Y-109701402D01*
X80871649Y-109628351D01*
X80798598Y-109539338D01*
X80744319Y-109437789D01*
X80710891Y-109327593D01*
X80699000Y-109206860D01*
X80699000Y-107793140D01*
X80710891Y-107672407D01*
X80744319Y-107562211D01*
X80798598Y-107460662D01*
X80871649Y-107371649D01*
X80960662Y-107298598D01*
X81062211Y-107244319D01*
X81172407Y-107210891D01*
X81293140Y-107199000D01*
X82706860Y-107199000D01*
X82827593Y-107210891D01*
G37*
G36*
X122827593Y-107210891D02*
G01*
X122937789Y-107244319D01*
X123039338Y-107298598D01*
X123128351Y-107371649D01*
X123201402Y-107460662D01*
X123255681Y-107562211D01*
X123289109Y-107672407D01*
X123301000Y-107793140D01*
X123301000Y-109206860D01*
X123289109Y-109327593D01*
X123255681Y-109437789D01*
X123201402Y-109539338D01*
X123128351Y-109628351D01*
X123039338Y-109701402D01*
X122937789Y-109755681D01*
X122827593Y-109789109D01*
X122706860Y-109801000D01*
X121293140Y-109801000D01*
X121172407Y-109789109D01*
X121062211Y-109755681D01*
X120960662Y-109701402D01*
X120871649Y-109628351D01*
X120798598Y-109539338D01*
X120744319Y-109437789D01*
X120710891Y-109327593D01*
X120699000Y-109206860D01*
X120699000Y-107793140D01*
X120710891Y-107672407D01*
X120744319Y-107562211D01*
X120798598Y-107460662D01*
X120871649Y-107371649D01*
X120960662Y-107298598D01*
X121062211Y-107244319D01*
X121172407Y-107210891D01*
X121293140Y-107199000D01*
X122706860Y-107199000D01*
X122827593Y-107210891D01*
G37*
G36*
X82827593Y-103710891D02*
G01*
X82937789Y-103744319D01*
X83039338Y-103798598D01*
X83128351Y-103871649D01*
X83201402Y-103960662D01*
X83255681Y-104062211D01*
X83289109Y-104172407D01*
X83301000Y-104293140D01*
X83301000Y-105706860D01*
X83289109Y-105827593D01*
X83255681Y-105937789D01*
X83201402Y-106039338D01*
X83128351Y-106128351D01*
X83039338Y-106201402D01*
X82937789Y-106255681D01*
X82827593Y-106289109D01*
X82706860Y-106301000D01*
X81293140Y-106301000D01*
X81172407Y-106289109D01*
X81062211Y-106255681D01*
X80960662Y-106201402D01*
X80871649Y-106128351D01*
X80798598Y-106039338D01*
X80744319Y-105937789D01*
X80710891Y-105827593D01*
X80699000Y-105706860D01*
X80699000Y-104293140D01*
X80710891Y-104172407D01*
X80744319Y-104062211D01*
X80798598Y-103960662D01*
X80871649Y-103871649D01*
X80960662Y-103798598D01*
X81062211Y-103744319D01*
X81172407Y-103710891D01*
X81293140Y-103699000D01*
X82706860Y-103699000D01*
X82827593Y-103710891D01*
G37*
G36*
X122827593Y-103710891D02*
G01*
X122937789Y-103744319D01*
X123039338Y-103798598D01*
X123128351Y-103871649D01*
X123201402Y-103960662D01*
X123255681Y-104062211D01*
X123289109Y-104172407D01*
X123301000Y-104293140D01*
X123301000Y-105706860D01*
X123289109Y-105827593D01*
X123255681Y-105937789D01*
X123201402Y-106039338D01*
X123128351Y-106128351D01*
X123039338Y-106201402D01*
X122937789Y-106255681D01*
X122827593Y-106289109D01*
X122706860Y-106301000D01*
X121293140Y-106301000D01*
X121172407Y-106289109D01*
X121062211Y-106255681D01*
X120960662Y-106201402D01*
X120871649Y-106128351D01*
X120798598Y-106039338D01*
X120744319Y-105937789D01*
X120710891Y-105827593D01*
X120699000Y-105706860D01*
X120699000Y-104293140D01*
X120710891Y-104172407D01*
X120744319Y-104062211D01*
X120798598Y-103960662D01*
X120871649Y-103871649D01*
X120960662Y-103798598D01*
X121062211Y-103744319D01*
X121172407Y-103710891D01*
X121293140Y-103699000D01*
X122706860Y-103699000D01*
X122827593Y-103710891D01*
G37*
G36*
X123938953Y-96293233D02*
G01*
X124156301Y-96336466D01*
X124565775Y-96506076D01*
X124934292Y-96752311D01*
X125247689Y-97065708D01*
X125493924Y-97434225D01*
X125663534Y-97843699D01*
X125750000Y-98278394D01*
X125750000Y-98721606D01*
X125663534Y-99156301D01*
X125493924Y-99565775D01*
X125247689Y-99934292D01*
X124934292Y-100247689D01*
X124565775Y-100493924D01*
X124156301Y-100663534D01*
X123721607Y-100750000D01*
X123278393Y-100750000D01*
X122843699Y-100663534D01*
X122434225Y-100493924D01*
X122065708Y-100247689D01*
X121752311Y-99934292D01*
X121506076Y-99565775D01*
X121336466Y-99156301D01*
X121250000Y-98721606D01*
X121250000Y-98278394D01*
X121336466Y-97843699D01*
X121506076Y-97434225D01*
X121752311Y-97065708D01*
X122065708Y-96752311D01*
X122434225Y-96506076D01*
X122843699Y-96336466D01*
X123061047Y-96293233D01*
X123278393Y-96250000D01*
X123721607Y-96250000D01*
X123938953Y-96293233D01*
G37*
G36*
X153938953Y-96293233D02*
G01*
X154156301Y-96336466D01*
X154565775Y-96506076D01*
X154934292Y-96752311D01*
X155247689Y-97065708D01*
X155493924Y-97434225D01*
X155663534Y-97843699D01*
X155750000Y-98278394D01*
X155750000Y-98721606D01*
X155663534Y-99156301D01*
X155493924Y-99565775D01*
X155247689Y-99934292D01*
X154934292Y-100247689D01*
X154565775Y-100493924D01*
X154156301Y-100663534D01*
X153721607Y-100750000D01*
X153278393Y-100750000D01*
X152843699Y-100663534D01*
X152434225Y-100493924D01*
X152065708Y-100247689D01*
X151752311Y-99934292D01*
X151506076Y-99565775D01*
X151336466Y-99156301D01*
X151250000Y-98721606D01*
X151250000Y-98278394D01*
X151336466Y-97843699D01*
X151506076Y-97434225D01*
X151752311Y-97065708D01*
X152065708Y-96752311D01*
X152434225Y-96506076D01*
X152843699Y-96336466D01*
X153061047Y-96293233D01*
X153278393Y-96250000D01*
X153721607Y-96250000D01*
X153938953Y-96293233D01*
G37*
G36*
X113938953Y-96293233D02*
G01*
X114156301Y-96336466D01*
X114565775Y-96506076D01*
X114934292Y-96752311D01*
X115247689Y-97065708D01*
X115493924Y-97434225D01*
X115663534Y-97843699D01*
X115750000Y-98278394D01*
X115750000Y-98721606D01*
X115663534Y-99156301D01*
X115493924Y-99565775D01*
X115247689Y-99934292D01*
X114934292Y-100247689D01*
X114565775Y-100493924D01*
X114156301Y-100663534D01*
X113721607Y-100750000D01*
X113278393Y-100750000D01*
X112843699Y-100663534D01*
X112434225Y-100493924D01*
X112065708Y-100247689D01*
X111752311Y-99934292D01*
X111506076Y-99565775D01*
X111336466Y-99156301D01*
X111250000Y-98721606D01*
X111250000Y-98278394D01*
X111336466Y-97843699D01*
X111506076Y-97434225D01*
X111752311Y-97065708D01*
X112065708Y-96752311D01*
X112434225Y-96506076D01*
X112843699Y-96336466D01*
X113061047Y-96293233D01*
X113278393Y-96250000D01*
X113721607Y-96250000D01*
X113938953Y-96293233D01*
G37*
G36*
X83938953Y-96293233D02*
G01*
X84156301Y-96336466D01*
X84565775Y-96506076D01*
X84934292Y-96752311D01*
X85247689Y-97065708D01*
X85493924Y-97434225D01*
X85663534Y-97843699D01*
X85750000Y-98278394D01*
X85750000Y-98721606D01*
X85663534Y-99156301D01*
X85493924Y-99565775D01*
X85247689Y-99934292D01*
X84934292Y-100247689D01*
X84565775Y-100493924D01*
X84156301Y-100663534D01*
X83721607Y-100750000D01*
X83278393Y-100750000D01*
X82843699Y-100663534D01*
X82434225Y-100493924D01*
X82065708Y-100247689D01*
X81752311Y-99934292D01*
X81506076Y-99565775D01*
X81336466Y-99156301D01*
X81250000Y-98721606D01*
X81250000Y-98278394D01*
X81336466Y-97843699D01*
X81506076Y-97434225D01*
X81752311Y-97065708D01*
X82065708Y-96752311D01*
X82434225Y-96506076D01*
X82843699Y-96336466D01*
X83061047Y-96293233D01*
X83278393Y-96250000D01*
X83721607Y-96250000D01*
X83938953Y-96293233D01*
G37*
M02*
