G04 #@! TF.GenerationSoftware,KiCad,Pcbnew,(5.1.5)-3*
G04 #@! TF.CreationDate,2020-02-01T18:29:59+01:00*
G04 #@! TF.ProjectId,5i25Breakout,35693235-4272-4656-916b-6f75742e6b69,rev?*
G04 #@! TF.SameCoordinates,PXe4e1c0PY93d1cc0*
G04 #@! TF.FileFunction,Legend,Top*
G04 #@! TF.FilePolarity,Positive*
%FSLAX46Y46*%
G04 Gerber Fmt 4.6, Leading zero omitted, Abs format (unit mm)*
G04 Created by KiCad (PCBNEW (5.1.5)-3) date 2020-02-01 18:29:59*
%MOMM*%
%LPD*%
G04 APERTURE LIST*
%ADD10C,0.150000*%
%ADD11C,0.127000*%
%ADD12C,0.120000*%
%ADD13C,0.300000*%
%ADD14C,0.015000*%
%ADD15C,0.200000*%
G04 APERTURE END LIST*
D10*
X71571428Y33238096D02*
X71571428Y34000000D01*
X71952380Y33619048D02*
X71190476Y33619048D01*
X71047619Y34428572D02*
X71000000Y34476191D01*
X70952380Y34571429D01*
X70952380Y34809524D01*
X71000000Y34904762D01*
X71047619Y34952381D01*
X71142857Y35000000D01*
X71238095Y35000000D01*
X71380952Y34952381D01*
X71952380Y34380953D01*
X71952380Y35000000D01*
X71285714Y35857143D02*
X71952380Y35857143D01*
X70904761Y35619048D02*
X71619047Y35380953D01*
X71619047Y36000000D01*
X70952380Y36238096D02*
X71952380Y36571429D01*
X70952380Y36904762D01*
X66571428Y33714286D02*
X66571428Y34476191D01*
X66952380Y34095239D02*
X66190476Y34095239D01*
X65952380Y35428572D02*
X65952380Y34952381D01*
X66428571Y34904762D01*
X66380952Y34952381D01*
X66333333Y35047620D01*
X66333333Y35285715D01*
X66380952Y35380953D01*
X66428571Y35428572D01*
X66523809Y35476191D01*
X66761904Y35476191D01*
X66857142Y35428572D01*
X66904761Y35380953D01*
X66952380Y35285715D01*
X66952380Y35047620D01*
X66904761Y34952381D01*
X66857142Y34904762D01*
X65952380Y35761905D02*
X66952380Y36095239D01*
X65952380Y36428572D01*
X61952380Y33523810D02*
X60952380Y33523810D01*
X60952380Y34190477D02*
X60952380Y34380953D01*
X61000000Y34476191D01*
X61095238Y34571429D01*
X61285714Y34619048D01*
X61619047Y34619048D01*
X61809523Y34571429D01*
X61904761Y34476191D01*
X61952380Y34380953D01*
X61952380Y34190477D01*
X61904761Y34095239D01*
X61809523Y34000000D01*
X61619047Y33952381D01*
X61285714Y33952381D01*
X61095238Y34000000D01*
X61000000Y34095239D01*
X60952380Y34190477D01*
X61047619Y35000000D02*
X61000000Y35047620D01*
X60952380Y35142858D01*
X60952380Y35380953D01*
X61000000Y35476191D01*
X61047619Y35523810D01*
X61142857Y35571429D01*
X61238095Y35571429D01*
X61380952Y35523810D01*
X61952380Y34952381D01*
X61952380Y35571429D01*
X60952380Y36476191D02*
X60952380Y36000000D01*
X61428571Y35952381D01*
X61380952Y36000000D01*
X61333333Y36095239D01*
X61333333Y36333334D01*
X61380952Y36428572D01*
X61428571Y36476191D01*
X61523809Y36523810D01*
X61761904Y36523810D01*
X61857142Y36476191D01*
X61904761Y36428572D01*
X61952380Y36333334D01*
X61952380Y36095239D01*
X61904761Y36000000D01*
X61857142Y35952381D01*
X56952380Y33523810D02*
X55952380Y33523810D01*
X55952380Y34190477D02*
X55952380Y34380953D01*
X56000000Y34476191D01*
X56095238Y34571429D01*
X56285714Y34619048D01*
X56619047Y34619048D01*
X56809523Y34571429D01*
X56904761Y34476191D01*
X56952380Y34380953D01*
X56952380Y34190477D01*
X56904761Y34095239D01*
X56809523Y34000000D01*
X56619047Y33952381D01*
X56285714Y33952381D01*
X56095238Y34000000D01*
X56000000Y34095239D01*
X55952380Y34190477D01*
X56047619Y35000000D02*
X56000000Y35047620D01*
X55952380Y35142858D01*
X55952380Y35380953D01*
X56000000Y35476191D01*
X56047619Y35523810D01*
X56142857Y35571429D01*
X56238095Y35571429D01*
X56380952Y35523810D01*
X56952380Y34952381D01*
X56952380Y35571429D01*
X55952380Y35904762D02*
X55952380Y36571429D01*
X56952380Y36142858D01*
X51952380Y33523810D02*
X50952380Y33523810D01*
X50952380Y34190477D02*
X50952380Y34380953D01*
X51000000Y34476191D01*
X51095238Y34571429D01*
X51285714Y34619048D01*
X51619047Y34619048D01*
X51809523Y34571429D01*
X51904761Y34476191D01*
X51952380Y34380953D01*
X51952380Y34190477D01*
X51904761Y34095239D01*
X51809523Y34000000D01*
X51619047Y33952381D01*
X51285714Y33952381D01*
X51095238Y34000000D01*
X51000000Y34095239D01*
X50952380Y34190477D01*
X51952380Y35571429D02*
X51952380Y35000000D01*
X51952380Y35285715D02*
X50952380Y35285715D01*
X51095238Y35190477D01*
X51190476Y35095239D01*
X51238095Y35000000D01*
X50952380Y35904762D02*
X50952380Y36571429D01*
X51952380Y36142858D01*
X46952380Y33523810D02*
X45952380Y33523810D01*
X45952380Y34190477D02*
X45952380Y34380953D01*
X46000000Y34476191D01*
X46095238Y34571429D01*
X46285714Y34619048D01*
X46619047Y34619048D01*
X46809523Y34571429D01*
X46904761Y34476191D01*
X46952380Y34380953D01*
X46952380Y34190477D01*
X46904761Y34095239D01*
X46809523Y34000000D01*
X46619047Y33952381D01*
X46285714Y33952381D01*
X46095238Y34000000D01*
X46000000Y34095239D01*
X45952380Y34190477D01*
X46047619Y35000000D02*
X46000000Y35047620D01*
X45952380Y35142858D01*
X45952380Y35380953D01*
X46000000Y35476191D01*
X46047619Y35523810D01*
X46142857Y35571429D01*
X46238095Y35571429D01*
X46380952Y35523810D01*
X46952380Y34952381D01*
X46952380Y35571429D01*
X46952380Y36523810D02*
X46952380Y35952381D01*
X46952380Y36238096D02*
X45952380Y36238096D01*
X46095238Y36142858D01*
X46190476Y36047620D01*
X46238095Y35952381D01*
X41952380Y33523810D02*
X40952380Y33523810D01*
X40952380Y34190477D02*
X40952380Y34380953D01*
X41000000Y34476191D01*
X41095238Y34571429D01*
X41285714Y34619048D01*
X41619047Y34619048D01*
X41809523Y34571429D01*
X41904761Y34476191D01*
X41952380Y34380953D01*
X41952380Y34190477D01*
X41904761Y34095239D01*
X41809523Y34000000D01*
X41619047Y33952381D01*
X41285714Y33952381D01*
X41095238Y34000000D01*
X41000000Y34095239D01*
X40952380Y34190477D01*
X41047619Y35000000D02*
X41000000Y35047620D01*
X40952380Y35142858D01*
X40952380Y35380953D01*
X41000000Y35476191D01*
X41047619Y35523810D01*
X41142857Y35571429D01*
X41238095Y35571429D01*
X41380952Y35523810D01*
X41952380Y34952381D01*
X41952380Y35571429D01*
X41047619Y35952381D02*
X41000000Y36000000D01*
X40952380Y36095239D01*
X40952380Y36333334D01*
X41000000Y36428572D01*
X41047619Y36476191D01*
X41142857Y36523810D01*
X41238095Y36523810D01*
X41380952Y36476191D01*
X41952380Y35904762D01*
X41952380Y36523810D01*
X36000000Y34238096D02*
X35952380Y34142858D01*
X35952380Y34000000D01*
X36000000Y33857143D01*
X36095238Y33761905D01*
X36190476Y33714286D01*
X36380952Y33666667D01*
X36523809Y33666667D01*
X36714285Y33714286D01*
X36809523Y33761905D01*
X36904761Y33857143D01*
X36952380Y34000000D01*
X36952380Y34095239D01*
X36904761Y34238096D01*
X36857142Y34285715D01*
X36523809Y34285715D01*
X36523809Y34095239D01*
X36952380Y34714286D02*
X35952380Y34714286D01*
X36952380Y35285715D01*
X35952380Y35285715D01*
X36952380Y35761905D02*
X35952380Y35761905D01*
X35952380Y36000000D01*
X36000000Y36142858D01*
X36095238Y36238096D01*
X36190476Y36285715D01*
X36380952Y36333334D01*
X36523809Y36333334D01*
X36714285Y36285715D01*
X36809523Y36238096D01*
X36904761Y36142858D01*
X36952380Y36000000D01*
X36952380Y35761905D01*
X31952380Y33523810D02*
X30952380Y33523810D01*
X30952380Y34190477D02*
X30952380Y34380953D01*
X31000000Y34476191D01*
X31095238Y34571429D01*
X31285714Y34619048D01*
X31619047Y34619048D01*
X31809523Y34571429D01*
X31904761Y34476191D01*
X31952380Y34380953D01*
X31952380Y34190477D01*
X31904761Y34095239D01*
X31809523Y34000000D01*
X31619047Y33952381D01*
X31285714Y33952381D01*
X31095238Y34000000D01*
X31000000Y34095239D01*
X30952380Y34190477D01*
X30952380Y34952381D02*
X30952380Y35571429D01*
X31333333Y35238096D01*
X31333333Y35380953D01*
X31380952Y35476191D01*
X31428571Y35523810D01*
X31523809Y35571429D01*
X31761904Y35571429D01*
X31857142Y35523810D01*
X31904761Y35476191D01*
X31952380Y35380953D01*
X31952380Y35095239D01*
X31904761Y35000000D01*
X31857142Y34952381D01*
X30952380Y35904762D02*
X30952380Y36523810D01*
X31333333Y36190477D01*
X31333333Y36333334D01*
X31380952Y36428572D01*
X31428571Y36476191D01*
X31523809Y36523810D01*
X31761904Y36523810D01*
X31857142Y36476191D01*
X31904761Y36428572D01*
X31952380Y36333334D01*
X31952380Y36047620D01*
X31904761Y35952381D01*
X31857142Y35904762D01*
X26952380Y33523810D02*
X25952380Y33523810D01*
X25952380Y34190477D02*
X25952380Y34380953D01*
X26000000Y34476191D01*
X26095238Y34571429D01*
X26285714Y34619048D01*
X26619047Y34619048D01*
X26809523Y34571429D01*
X26904761Y34476191D01*
X26952380Y34380953D01*
X26952380Y34190477D01*
X26904761Y34095239D01*
X26809523Y34000000D01*
X26619047Y33952381D01*
X26285714Y33952381D01*
X26095238Y34000000D01*
X26000000Y34095239D01*
X25952380Y34190477D01*
X25952380Y34952381D02*
X25952380Y35571429D01*
X26333333Y35238096D01*
X26333333Y35380953D01*
X26380952Y35476191D01*
X26428571Y35523810D01*
X26523809Y35571429D01*
X26761904Y35571429D01*
X26857142Y35523810D01*
X26904761Y35476191D01*
X26952380Y35380953D01*
X26952380Y35095239D01*
X26904761Y35000000D01*
X26857142Y34952381D01*
X26047619Y35952381D02*
X26000000Y36000000D01*
X25952380Y36095239D01*
X25952380Y36333334D01*
X26000000Y36428572D01*
X26047619Y36476191D01*
X26142857Y36523810D01*
X26238095Y36523810D01*
X26380952Y36476191D01*
X26952380Y35904762D01*
X26952380Y36523810D01*
X21952380Y33523810D02*
X20952380Y33523810D01*
X20952380Y34190477D02*
X20952380Y34380953D01*
X21000000Y34476191D01*
X21095238Y34571429D01*
X21285714Y34619048D01*
X21619047Y34619048D01*
X21809523Y34571429D01*
X21904761Y34476191D01*
X21952380Y34380953D01*
X21952380Y34190477D01*
X21904761Y34095239D01*
X21809523Y34000000D01*
X21619047Y33952381D01*
X21285714Y33952381D01*
X21095238Y34000000D01*
X21000000Y34095239D01*
X20952380Y34190477D01*
X21047619Y35000000D02*
X21000000Y35047620D01*
X20952380Y35142858D01*
X20952380Y35380953D01*
X21000000Y35476191D01*
X21047619Y35523810D01*
X21142857Y35571429D01*
X21238095Y35571429D01*
X21380952Y35523810D01*
X21952380Y34952381D01*
X21952380Y35571429D01*
X21952380Y36047620D02*
X21952380Y36238096D01*
X21904761Y36333334D01*
X21857142Y36380953D01*
X21714285Y36476191D01*
X21523809Y36523810D01*
X21142857Y36523810D01*
X21047619Y36476191D01*
X21000000Y36428572D01*
X20952380Y36333334D01*
X20952380Y36142858D01*
X21000000Y36047620D01*
X21047619Y36000000D01*
X21142857Y35952381D01*
X21380952Y35952381D01*
X21476190Y36000000D01*
X21523809Y36047620D01*
X21571428Y36142858D01*
X21571428Y36333334D01*
X21523809Y36428572D01*
X21476190Y36476191D01*
X21380952Y36523810D01*
X16952380Y33523810D02*
X15952380Y33523810D01*
X15952380Y34190477D02*
X15952380Y34380953D01*
X16000000Y34476191D01*
X16095238Y34571429D01*
X16285714Y34619048D01*
X16619047Y34619048D01*
X16809523Y34571429D01*
X16904761Y34476191D01*
X16952380Y34380953D01*
X16952380Y34190477D01*
X16904761Y34095239D01*
X16809523Y34000000D01*
X16619047Y33952381D01*
X16285714Y33952381D01*
X16095238Y34000000D01*
X16000000Y34095239D01*
X15952380Y34190477D01*
X15952380Y34952381D02*
X15952380Y35571429D01*
X16333333Y35238096D01*
X16333333Y35380953D01*
X16380952Y35476191D01*
X16428571Y35523810D01*
X16523809Y35571429D01*
X16761904Y35571429D01*
X16857142Y35523810D01*
X16904761Y35476191D01*
X16952380Y35380953D01*
X16952380Y35095239D01*
X16904761Y35000000D01*
X16857142Y34952381D01*
X16952380Y36523810D02*
X16952380Y35952381D01*
X16952380Y36238096D02*
X15952380Y36238096D01*
X16095238Y36142858D01*
X16190476Y36047620D01*
X16238095Y35952381D01*
X68500000Y61738096D02*
X68452380Y61642858D01*
X68452380Y61500000D01*
X68500000Y61357143D01*
X68595238Y61261905D01*
X68690476Y61214286D01*
X68880952Y61166667D01*
X69023809Y61166667D01*
X69214285Y61214286D01*
X69309523Y61261905D01*
X69404761Y61357143D01*
X69452380Y61500000D01*
X69452380Y61595239D01*
X69404761Y61738096D01*
X69357142Y61785715D01*
X69023809Y61785715D01*
X69023809Y61595239D01*
X69452380Y62214286D02*
X68452380Y62214286D01*
X69452380Y62785715D01*
X68452380Y62785715D01*
X69452380Y63261905D02*
X68452380Y63261905D01*
X68452380Y63500000D01*
X68500000Y63642858D01*
X68595238Y63738096D01*
X68690476Y63785715D01*
X68880952Y63833334D01*
X69023809Y63833334D01*
X69214285Y63785715D01*
X69309523Y63738096D01*
X69404761Y63642858D01*
X69452380Y63500000D01*
X69452380Y63261905D01*
X63500000Y61738096D02*
X63452380Y61642858D01*
X63452380Y61500000D01*
X63500000Y61357143D01*
X63595238Y61261905D01*
X63690476Y61214286D01*
X63880952Y61166667D01*
X64023809Y61166667D01*
X64214285Y61214286D01*
X64309523Y61261905D01*
X64404761Y61357143D01*
X64452380Y61500000D01*
X64452380Y61595239D01*
X64404761Y61738096D01*
X64357142Y61785715D01*
X64023809Y61785715D01*
X64023809Y61595239D01*
X64452380Y62214286D02*
X63452380Y62214286D01*
X64452380Y62785715D01*
X63452380Y62785715D01*
X64452380Y63261905D02*
X63452380Y63261905D01*
X63452380Y63500000D01*
X63500000Y63642858D01*
X63595238Y63738096D01*
X63690476Y63785715D01*
X63880952Y63833334D01*
X64023809Y63833334D01*
X64214285Y63785715D01*
X64309523Y63738096D01*
X64404761Y63642858D01*
X64452380Y63500000D01*
X64452380Y63261905D01*
X59452380Y61023810D02*
X58452380Y61023810D01*
X58452380Y61690477D02*
X58452380Y61880953D01*
X58500000Y61976191D01*
X58595238Y62071429D01*
X58785714Y62119048D01*
X59119047Y62119048D01*
X59309523Y62071429D01*
X59404761Y61976191D01*
X59452380Y61880953D01*
X59452380Y61690477D01*
X59404761Y61595239D01*
X59309523Y61500000D01*
X59119047Y61452381D01*
X58785714Y61452381D01*
X58595238Y61500000D01*
X58500000Y61595239D01*
X58452380Y61690477D01*
X58547619Y62500000D02*
X58500000Y62547620D01*
X58452380Y62642858D01*
X58452380Y62880953D01*
X58500000Y62976191D01*
X58547619Y63023810D01*
X58642857Y63071429D01*
X58738095Y63071429D01*
X58880952Y63023810D01*
X59452380Y62452381D01*
X59452380Y63071429D01*
X58452380Y63928572D02*
X58452380Y63738096D01*
X58500000Y63642858D01*
X58547619Y63595239D01*
X58690476Y63500000D01*
X58880952Y63452381D01*
X59261904Y63452381D01*
X59357142Y63500000D01*
X59404761Y63547620D01*
X59452380Y63642858D01*
X59452380Y63833334D01*
X59404761Y63928572D01*
X59357142Y63976191D01*
X59261904Y64023810D01*
X59023809Y64023810D01*
X58928571Y63976191D01*
X58880952Y63928572D01*
X58833333Y63833334D01*
X58833333Y63642858D01*
X58880952Y63547620D01*
X58928571Y63500000D01*
X59023809Y63452381D01*
X54452380Y61023810D02*
X53452380Y61023810D01*
X53452380Y61690477D02*
X53452380Y61880953D01*
X53500000Y61976191D01*
X53595238Y62071429D01*
X53785714Y62119048D01*
X54119047Y62119048D01*
X54309523Y62071429D01*
X54404761Y61976191D01*
X54452380Y61880953D01*
X54452380Y61690477D01*
X54404761Y61595239D01*
X54309523Y61500000D01*
X54119047Y61452381D01*
X53785714Y61452381D01*
X53595238Y61500000D01*
X53500000Y61595239D01*
X53452380Y61690477D01*
X53547619Y62500000D02*
X53500000Y62547620D01*
X53452380Y62642858D01*
X53452380Y62880953D01*
X53500000Y62976191D01*
X53547619Y63023810D01*
X53642857Y63071429D01*
X53738095Y63071429D01*
X53880952Y63023810D01*
X54452380Y62452381D01*
X54452380Y63071429D01*
X53880952Y63642858D02*
X53833333Y63547620D01*
X53785714Y63500000D01*
X53690476Y63452381D01*
X53642857Y63452381D01*
X53547619Y63500000D01*
X53500000Y63547620D01*
X53452380Y63642858D01*
X53452380Y63833334D01*
X53500000Y63928572D01*
X53547619Y63976191D01*
X53642857Y64023810D01*
X53690476Y64023810D01*
X53785714Y63976191D01*
X53833333Y63928572D01*
X53880952Y63833334D01*
X53880952Y63642858D01*
X53928571Y63547620D01*
X53976190Y63500000D01*
X54071428Y63452381D01*
X54261904Y63452381D01*
X54357142Y63500000D01*
X54404761Y63547620D01*
X54452380Y63642858D01*
X54452380Y63833334D01*
X54404761Y63928572D01*
X54357142Y63976191D01*
X54261904Y64023810D01*
X54071428Y64023810D01*
X53976190Y63976191D01*
X53928571Y63928572D01*
X53880952Y63833334D01*
X49452380Y61023810D02*
X48452380Y61023810D01*
X48452380Y61690477D02*
X48452380Y61880953D01*
X48500000Y61976191D01*
X48595238Y62071429D01*
X48785714Y62119048D01*
X49119047Y62119048D01*
X49309523Y62071429D01*
X49404761Y61976191D01*
X49452380Y61880953D01*
X49452380Y61690477D01*
X49404761Y61595239D01*
X49309523Y61500000D01*
X49119047Y61452381D01*
X48785714Y61452381D01*
X48595238Y61500000D01*
X48500000Y61595239D01*
X48452380Y61690477D01*
X49452380Y63071429D02*
X49452380Y62500000D01*
X49452380Y62785715D02*
X48452380Y62785715D01*
X48595238Y62690477D01*
X48690476Y62595239D01*
X48738095Y62500000D01*
X49452380Y63547620D02*
X49452380Y63738096D01*
X49404761Y63833334D01*
X49357142Y63880953D01*
X49214285Y63976191D01*
X49023809Y64023810D01*
X48642857Y64023810D01*
X48547619Y63976191D01*
X48500000Y63928572D01*
X48452380Y63833334D01*
X48452380Y63642858D01*
X48500000Y63547620D01*
X48547619Y63500000D01*
X48642857Y63452381D01*
X48880952Y63452381D01*
X48976190Y63500000D01*
X49023809Y63547620D01*
X49071428Y63642858D01*
X49071428Y63833334D01*
X49023809Y63928572D01*
X48976190Y63976191D01*
X48880952Y64023810D01*
X44452380Y61023810D02*
X43452380Y61023810D01*
X43452380Y61690477D02*
X43452380Y61880953D01*
X43500000Y61976191D01*
X43595238Y62071429D01*
X43785714Y62119048D01*
X44119047Y62119048D01*
X44309523Y62071429D01*
X44404761Y61976191D01*
X44452380Y61880953D01*
X44452380Y61690477D01*
X44404761Y61595239D01*
X44309523Y61500000D01*
X44119047Y61452381D01*
X43785714Y61452381D01*
X43595238Y61500000D01*
X43500000Y61595239D01*
X43452380Y61690477D01*
X43547619Y62500000D02*
X43500000Y62547620D01*
X43452380Y62642858D01*
X43452380Y62880953D01*
X43500000Y62976191D01*
X43547619Y63023810D01*
X43642857Y63071429D01*
X43738095Y63071429D01*
X43880952Y63023810D01*
X44452380Y62452381D01*
X44452380Y63071429D01*
X43452380Y63404762D02*
X43452380Y64023810D01*
X43833333Y63690477D01*
X43833333Y63833334D01*
X43880952Y63928572D01*
X43928571Y63976191D01*
X44023809Y64023810D01*
X44261904Y64023810D01*
X44357142Y63976191D01*
X44404761Y63928572D01*
X44452380Y63833334D01*
X44452380Y63547620D01*
X44404761Y63452381D01*
X44357142Y63404762D01*
X39452380Y61023810D02*
X38452380Y61023810D01*
X38452380Y61690477D02*
X38452380Y61880953D01*
X38500000Y61976191D01*
X38595238Y62071429D01*
X38785714Y62119048D01*
X39119047Y62119048D01*
X39309523Y62071429D01*
X39404761Y61976191D01*
X39452380Y61880953D01*
X39452380Y61690477D01*
X39404761Y61595239D01*
X39309523Y61500000D01*
X39119047Y61452381D01*
X38785714Y61452381D01*
X38595238Y61500000D01*
X38500000Y61595239D01*
X38452380Y61690477D01*
X38547619Y62500000D02*
X38500000Y62547620D01*
X38452380Y62642858D01*
X38452380Y62880953D01*
X38500000Y62976191D01*
X38547619Y63023810D01*
X38642857Y63071429D01*
X38738095Y63071429D01*
X38880952Y63023810D01*
X39452380Y62452381D01*
X39452380Y63071429D01*
X38785714Y63928572D02*
X39452380Y63928572D01*
X38404761Y63690477D02*
X39119047Y63452381D01*
X39119047Y64071429D01*
X33500000Y61738096D02*
X33452380Y61642858D01*
X33452380Y61500000D01*
X33500000Y61357143D01*
X33595238Y61261905D01*
X33690476Y61214286D01*
X33880952Y61166667D01*
X34023809Y61166667D01*
X34214285Y61214286D01*
X34309523Y61261905D01*
X34404761Y61357143D01*
X34452380Y61500000D01*
X34452380Y61595239D01*
X34404761Y61738096D01*
X34357142Y61785715D01*
X34023809Y61785715D01*
X34023809Y61595239D01*
X34452380Y62214286D02*
X33452380Y62214286D01*
X34452380Y62785715D01*
X33452380Y62785715D01*
X34452380Y63261905D02*
X33452380Y63261905D01*
X33452380Y63500000D01*
X33500000Y63642858D01*
X33595238Y63738096D01*
X33690476Y63785715D01*
X33880952Y63833334D01*
X34023809Y63833334D01*
X34214285Y63785715D01*
X34309523Y63738096D01*
X34404761Y63642858D01*
X34452380Y63500000D01*
X34452380Y63261905D01*
X28500000Y61738096D02*
X28452380Y61642858D01*
X28452380Y61500000D01*
X28500000Y61357143D01*
X28595238Y61261905D01*
X28690476Y61214286D01*
X28880952Y61166667D01*
X29023809Y61166667D01*
X29214285Y61214286D01*
X29309523Y61261905D01*
X29404761Y61357143D01*
X29452380Y61500000D01*
X29452380Y61595239D01*
X29404761Y61738096D01*
X29357142Y61785715D01*
X29023809Y61785715D01*
X29023809Y61595239D01*
X29452380Y62214286D02*
X28452380Y62214286D01*
X29452380Y62785715D01*
X28452380Y62785715D01*
X29452380Y63261905D02*
X28452380Y63261905D01*
X28452380Y63500000D01*
X28500000Y63642858D01*
X28595238Y63738096D01*
X28690476Y63785715D01*
X28880952Y63833334D01*
X29023809Y63833334D01*
X29214285Y63785715D01*
X29309523Y63738096D01*
X29404761Y63642858D01*
X29452380Y63500000D01*
X29452380Y63261905D01*
X23500000Y61738096D02*
X23452380Y61642858D01*
X23452380Y61500000D01*
X23500000Y61357143D01*
X23595238Y61261905D01*
X23690476Y61214286D01*
X23880952Y61166667D01*
X24023809Y61166667D01*
X24214285Y61214286D01*
X24309523Y61261905D01*
X24404761Y61357143D01*
X24452380Y61500000D01*
X24452380Y61595239D01*
X24404761Y61738096D01*
X24357142Y61785715D01*
X24023809Y61785715D01*
X24023809Y61595239D01*
X24452380Y62214286D02*
X23452380Y62214286D01*
X24452380Y62785715D01*
X23452380Y62785715D01*
X24452380Y63261905D02*
X23452380Y63261905D01*
X23452380Y63500000D01*
X23500000Y63642858D01*
X23595238Y63738096D01*
X23690476Y63785715D01*
X23880952Y63833334D01*
X24023809Y63833334D01*
X24214285Y63785715D01*
X24309523Y63738096D01*
X24404761Y63642858D01*
X24452380Y63500000D01*
X24452380Y63261905D01*
X19952380Y61023810D02*
X18952380Y61023810D01*
X18952380Y61690477D02*
X18952380Y61880953D01*
X19000000Y61976191D01*
X19095238Y62071429D01*
X19285714Y62119048D01*
X19619047Y62119048D01*
X19809523Y62071429D01*
X19904761Y61976191D01*
X19952380Y61880953D01*
X19952380Y61690477D01*
X19904761Y61595239D01*
X19809523Y61500000D01*
X19619047Y61452381D01*
X19285714Y61452381D01*
X19095238Y61500000D01*
X19000000Y61595239D01*
X18952380Y61690477D01*
X18952380Y62452381D02*
X18952380Y63071429D01*
X19333333Y62738096D01*
X19333333Y62880953D01*
X19380952Y62976191D01*
X19428571Y63023810D01*
X19523809Y63071429D01*
X19761904Y63071429D01*
X19857142Y63023810D01*
X19904761Y62976191D01*
X19952380Y62880953D01*
X19952380Y62595239D01*
X19904761Y62500000D01*
X19857142Y62452381D01*
X18952380Y63690477D02*
X18952380Y63785715D01*
X19000000Y63880953D01*
X19047619Y63928572D01*
X19142857Y63976191D01*
X19333333Y64023810D01*
X19571428Y64023810D01*
X19761904Y63976191D01*
X19857142Y63928572D01*
X19904761Y63880953D01*
X19952380Y63785715D01*
X19952380Y63690477D01*
X19904761Y63595239D01*
X19857142Y63547620D01*
X19761904Y63500000D01*
X19571428Y63452381D01*
X19333333Y63452381D01*
X19142857Y63500000D01*
X19047619Y63547620D01*
X19000000Y63595239D01*
X18952380Y63690477D01*
X14452380Y61023810D02*
X13452380Y61023810D01*
X13452380Y61690477D02*
X13452380Y61880953D01*
X13500000Y61976191D01*
X13595238Y62071429D01*
X13785714Y62119048D01*
X14119047Y62119048D01*
X14309523Y62071429D01*
X14404761Y61976191D01*
X14452380Y61880953D01*
X14452380Y61690477D01*
X14404761Y61595239D01*
X14309523Y61500000D01*
X14119047Y61452381D01*
X13785714Y61452381D01*
X13595238Y61500000D01*
X13500000Y61595239D01*
X13452380Y61690477D01*
X13452380Y62452381D02*
X13452380Y63071429D01*
X13833333Y62738096D01*
X13833333Y62880953D01*
X13880952Y62976191D01*
X13928571Y63023810D01*
X14023809Y63071429D01*
X14261904Y63071429D01*
X14357142Y63023810D01*
X14404761Y62976191D01*
X14452380Y62880953D01*
X14452380Y62595239D01*
X14404761Y62500000D01*
X14357142Y62452381D01*
X13547619Y63452381D02*
X13500000Y63500000D01*
X13452380Y63595239D01*
X13452380Y63833334D01*
X13500000Y63928572D01*
X13547619Y63976191D01*
X13642857Y64023810D01*
X13738095Y64023810D01*
X13880952Y63976191D01*
X14452380Y63404762D01*
X14452380Y64023810D01*
X8750000Y-1000000D02*
X25250000Y-1000000D01*
X25250000Y-1000000D02*
X25250000Y14500000D01*
X25250000Y14500000D02*
X8750000Y14500000D01*
X8750000Y14500000D02*
X8750000Y-1000000D01*
X25250000Y-1000000D02*
X41750000Y-1000000D01*
X41750000Y-1000000D02*
X41750000Y14500000D01*
X41750000Y14500000D02*
X25250000Y14500000D01*
X25250000Y14500000D02*
X25250000Y-1000000D01*
X58250000Y-1000000D02*
X74750000Y-1000000D01*
X74750000Y-1000000D02*
X74750000Y14500000D01*
X74750000Y14500000D02*
X58250000Y14500000D01*
X58250000Y14500000D02*
X58250000Y-1000000D01*
D11*
X41500000Y60400000D02*
X51500000Y60400000D01*
X41500000Y48650000D02*
X41500000Y60400000D01*
X44000000Y48650000D02*
X41500000Y48650000D01*
X44000000Y38400000D02*
X44000000Y48650000D01*
X54000000Y38400000D02*
X44000000Y38400000D01*
X54000000Y48650000D02*
X54000000Y38400000D01*
X51500000Y48650000D02*
X54000000Y48650000D01*
X51500000Y60400000D02*
X51500000Y48650000D01*
X51500000Y60400000D02*
X61500000Y60400000D01*
X51500000Y48650000D02*
X51500000Y60400000D01*
X54000000Y48650000D02*
X51500000Y48650000D01*
X54000000Y38400000D02*
X54000000Y48650000D01*
X64000000Y38400000D02*
X54000000Y38400000D01*
X64000000Y48650000D02*
X64000000Y38400000D01*
X61500000Y48650000D02*
X64000000Y48650000D01*
X61500000Y60400000D02*
X61500000Y48650000D01*
X61500000Y60400000D02*
X71500000Y60400000D01*
X61500000Y48650000D02*
X61500000Y60400000D01*
X64000000Y48650000D02*
X61500000Y48650000D01*
X64000000Y38400000D02*
X64000000Y48650000D01*
X74000000Y38400000D02*
X64000000Y38400000D01*
X74000000Y48650000D02*
X74000000Y38400000D01*
X71500000Y48650000D02*
X74000000Y48650000D01*
X71500000Y60400000D02*
X71500000Y48650000D01*
X31500000Y60400000D02*
X41500000Y60400000D01*
X31500000Y48650000D02*
X31500000Y60400000D01*
X34000000Y48650000D02*
X31500000Y48650000D01*
X34000000Y38400000D02*
X34000000Y48650000D01*
X44000000Y38400000D02*
X34000000Y38400000D01*
X44000000Y48650000D02*
X44000000Y38400000D01*
X41500000Y48650000D02*
X44000000Y48650000D01*
X41500000Y60400000D02*
X41500000Y48650000D01*
X21500000Y60400000D02*
X31500000Y60400000D01*
X21500000Y48650000D02*
X21500000Y60400000D01*
X24000000Y48650000D02*
X21500000Y48650000D01*
X24000000Y38400000D02*
X24000000Y48650000D01*
X34000000Y38400000D02*
X24000000Y38400000D01*
X34000000Y48650000D02*
X34000000Y38400000D01*
X31500000Y48650000D02*
X34000000Y48650000D01*
X31500000Y60400000D02*
X31500000Y48650000D01*
X11500000Y60400000D02*
X21500000Y60400000D01*
X11500000Y48650000D02*
X11500000Y60400000D01*
X14000000Y48650000D02*
X11500000Y48650000D01*
X14000000Y38400000D02*
X14000000Y48650000D01*
X24000000Y38400000D02*
X14000000Y38400000D01*
X24000000Y48650000D02*
X24000000Y38400000D01*
X21500000Y48650000D02*
X24000000Y48650000D01*
X21500000Y60400000D02*
X21500000Y48650000D01*
D12*
X75345000Y53220000D02*
X77885000Y53220000D01*
X75345000Y53220000D02*
X75345000Y50680000D01*
X75595000Y52970000D02*
X84945000Y52970000D01*
X75595000Y11790000D02*
X75595000Y52970000D01*
X84945000Y11790000D02*
X75595000Y11790000D01*
X84945000Y52970000D02*
X84945000Y11790000D01*
D10*
X41750000Y-1000000D02*
X58250000Y-1000000D01*
X58250000Y-1000000D02*
X58250000Y14500000D01*
X58250000Y14500000D02*
X41750000Y14500000D01*
X41750000Y14500000D02*
X41750000Y-1000000D01*
X93000000Y20000000D02*
G75*
G03X93000000Y20000000I-3000000J0D01*
G01*
X93000000Y45000000D02*
G75*
G03X93000000Y45000000I-3000000J0D01*
G01*
X8000000Y20000000D02*
G75*
G03X8000000Y20000000I-3000000J0D01*
G01*
X8000000Y45000000D02*
G75*
G03X8000000Y45000000I-3000000J0D01*
G01*
D12*
X39154000Y32185241D02*
X38524000Y32185241D01*
X38839000Y32500241D02*
X38839000Y31870241D01*
X37402000Y25759000D02*
X36598000Y25759000D01*
X37633000Y25799000D02*
X36367000Y25799000D01*
X37802000Y25839000D02*
X36198000Y25839000D01*
X37940000Y25879000D02*
X36060000Y25879000D01*
X38059000Y25919000D02*
X35941000Y25919000D01*
X38165000Y25959000D02*
X35835000Y25959000D01*
X38262000Y25999000D02*
X35738000Y25999000D01*
X38350000Y26039000D02*
X35650000Y26039000D01*
X38432000Y26079000D02*
X35568000Y26079000D01*
X38509000Y26119000D02*
X35491000Y26119000D01*
X38581000Y26159000D02*
X35419000Y26159000D01*
X38650000Y26199000D02*
X35350000Y26199000D01*
X38714000Y26239000D02*
X35286000Y26239000D01*
X38776000Y26279000D02*
X35224000Y26279000D01*
X38834000Y26319000D02*
X35166000Y26319000D01*
X38890000Y26359000D02*
X35110000Y26359000D01*
X38944000Y26399000D02*
X35056000Y26399000D01*
X38995000Y26439000D02*
X35005000Y26439000D01*
X39044000Y26479000D02*
X34956000Y26479000D01*
X39092000Y26519000D02*
X34908000Y26519000D01*
X39137000Y26559000D02*
X34863000Y26559000D01*
X39182000Y26599000D02*
X34818000Y26599000D01*
X39224000Y26639000D02*
X34776000Y26639000D01*
X39265000Y26679000D02*
X34735000Y26679000D01*
X35960000Y26719000D02*
X34695000Y26719000D01*
X39305000Y26719000D02*
X38040000Y26719000D01*
X35960000Y26759000D02*
X34657000Y26759000D01*
X39343000Y26759000D02*
X38040000Y26759000D01*
X35960000Y26799000D02*
X34620000Y26799000D01*
X39380000Y26799000D02*
X38040000Y26799000D01*
X35960000Y26839000D02*
X34584000Y26839000D01*
X39416000Y26839000D02*
X38040000Y26839000D01*
X35960000Y26879000D02*
X34550000Y26879000D01*
X39450000Y26879000D02*
X38040000Y26879000D01*
X35960000Y26919000D02*
X34516000Y26919000D01*
X39484000Y26919000D02*
X38040000Y26919000D01*
X35960000Y26959000D02*
X34484000Y26959000D01*
X39516000Y26959000D02*
X38040000Y26959000D01*
X35960000Y26999000D02*
X34452000Y26999000D01*
X39548000Y26999000D02*
X38040000Y26999000D01*
X35960000Y27039000D02*
X34422000Y27039000D01*
X39578000Y27039000D02*
X38040000Y27039000D01*
X35960000Y27079000D02*
X34393000Y27079000D01*
X39607000Y27079000D02*
X38040000Y27079000D01*
X35960000Y27119000D02*
X34364000Y27119000D01*
X39636000Y27119000D02*
X38040000Y27119000D01*
X35960000Y27159000D02*
X34336000Y27159000D01*
X39664000Y27159000D02*
X38040000Y27159000D01*
X35960000Y27199000D02*
X34310000Y27199000D01*
X39690000Y27199000D02*
X38040000Y27199000D01*
X35960000Y27239000D02*
X34284000Y27239000D01*
X39716000Y27239000D02*
X38040000Y27239000D01*
X35960000Y27279000D02*
X34258000Y27279000D01*
X39742000Y27279000D02*
X38040000Y27279000D01*
X35960000Y27319000D02*
X34234000Y27319000D01*
X39766000Y27319000D02*
X38040000Y27319000D01*
X35960000Y27359000D02*
X34210000Y27359000D01*
X39790000Y27359000D02*
X38040000Y27359000D01*
X35960000Y27399000D02*
X34188000Y27399000D01*
X39812000Y27399000D02*
X38040000Y27399000D01*
X35960000Y27439000D02*
X34166000Y27439000D01*
X39834000Y27439000D02*
X38040000Y27439000D01*
X35960000Y27479000D02*
X34144000Y27479000D01*
X39856000Y27479000D02*
X38040000Y27479000D01*
X35960000Y27519000D02*
X34124000Y27519000D01*
X39876000Y27519000D02*
X38040000Y27519000D01*
X35960000Y27559000D02*
X34104000Y27559000D01*
X39896000Y27559000D02*
X38040000Y27559000D01*
X35960000Y27599000D02*
X34084000Y27599000D01*
X39916000Y27599000D02*
X38040000Y27599000D01*
X35960000Y27639000D02*
X34066000Y27639000D01*
X39934000Y27639000D02*
X38040000Y27639000D01*
X35960000Y27679000D02*
X34048000Y27679000D01*
X39952000Y27679000D02*
X38040000Y27679000D01*
X35960000Y27719000D02*
X34030000Y27719000D01*
X39970000Y27719000D02*
X38040000Y27719000D01*
X35960000Y27759000D02*
X34014000Y27759000D01*
X39986000Y27759000D02*
X38040000Y27759000D01*
X35960000Y27799000D02*
X33998000Y27799000D01*
X40002000Y27799000D02*
X38040000Y27799000D01*
X35960000Y27839000D02*
X33982000Y27839000D01*
X40018000Y27839000D02*
X38040000Y27839000D01*
X35960000Y27879000D02*
X33967000Y27879000D01*
X40033000Y27879000D02*
X38040000Y27879000D01*
X35960000Y27919000D02*
X33953000Y27919000D01*
X40047000Y27919000D02*
X38040000Y27919000D01*
X35960000Y27959000D02*
X33939000Y27959000D01*
X40061000Y27959000D02*
X38040000Y27959000D01*
X35960000Y27999000D02*
X33926000Y27999000D01*
X40074000Y27999000D02*
X38040000Y27999000D01*
X35960000Y28039000D02*
X33914000Y28039000D01*
X40086000Y28039000D02*
X38040000Y28039000D01*
X35960000Y28079000D02*
X33902000Y28079000D01*
X40098000Y28079000D02*
X38040000Y28079000D01*
X35960000Y28119000D02*
X33890000Y28119000D01*
X40110000Y28119000D02*
X38040000Y28119000D01*
X35960000Y28159000D02*
X33879000Y28159000D01*
X40121000Y28159000D02*
X38040000Y28159000D01*
X35960000Y28199000D02*
X33869000Y28199000D01*
X40131000Y28199000D02*
X38040000Y28199000D01*
X35960000Y28239000D02*
X33859000Y28239000D01*
X40141000Y28239000D02*
X38040000Y28239000D01*
X35960000Y28279000D02*
X33850000Y28279000D01*
X40150000Y28279000D02*
X38040000Y28279000D01*
X35960000Y28320000D02*
X33841000Y28320000D01*
X40159000Y28320000D02*
X38040000Y28320000D01*
X35960000Y28360000D02*
X33833000Y28360000D01*
X40167000Y28360000D02*
X38040000Y28360000D01*
X35960000Y28400000D02*
X33825000Y28400000D01*
X40175000Y28400000D02*
X38040000Y28400000D01*
X35960000Y28440000D02*
X33818000Y28440000D01*
X40182000Y28440000D02*
X38040000Y28440000D01*
X35960000Y28480000D02*
X33811000Y28480000D01*
X40189000Y28480000D02*
X38040000Y28480000D01*
X35960000Y28520000D02*
X33805000Y28520000D01*
X40195000Y28520000D02*
X38040000Y28520000D01*
X35960000Y28560000D02*
X33799000Y28560000D01*
X40201000Y28560000D02*
X38040000Y28560000D01*
X35960000Y28600000D02*
X33794000Y28600000D01*
X40206000Y28600000D02*
X38040000Y28600000D01*
X35960000Y28640000D02*
X33789000Y28640000D01*
X40211000Y28640000D02*
X38040000Y28640000D01*
X35960000Y28680000D02*
X33785000Y28680000D01*
X40215000Y28680000D02*
X38040000Y28680000D01*
X35960000Y28720000D02*
X33782000Y28720000D01*
X40218000Y28720000D02*
X38040000Y28720000D01*
X35960000Y28760000D02*
X33778000Y28760000D01*
X40222000Y28760000D02*
X38040000Y28760000D01*
X40224000Y28800000D02*
X33776000Y28800000D01*
X40227000Y28840000D02*
X33773000Y28840000D01*
X40228000Y28880000D02*
X33772000Y28880000D01*
X40230000Y28920000D02*
X33770000Y28920000D01*
X40230000Y28960000D02*
X33770000Y28960000D01*
X40230000Y29000000D02*
X33770000Y29000000D01*
X40270000Y29000000D02*
G75*
G03X40270000Y29000000I-3270000J0D01*
G01*
X16154000Y32185241D02*
X15524000Y32185241D01*
X15839000Y32500241D02*
X15839000Y31870241D01*
X14402000Y25759000D02*
X13598000Y25759000D01*
X14633000Y25799000D02*
X13367000Y25799000D01*
X14802000Y25839000D02*
X13198000Y25839000D01*
X14940000Y25879000D02*
X13060000Y25879000D01*
X15059000Y25919000D02*
X12941000Y25919000D01*
X15165000Y25959000D02*
X12835000Y25959000D01*
X15262000Y25999000D02*
X12738000Y25999000D01*
X15350000Y26039000D02*
X12650000Y26039000D01*
X15432000Y26079000D02*
X12568000Y26079000D01*
X15509000Y26119000D02*
X12491000Y26119000D01*
X15581000Y26159000D02*
X12419000Y26159000D01*
X15650000Y26199000D02*
X12350000Y26199000D01*
X15714000Y26239000D02*
X12286000Y26239000D01*
X15776000Y26279000D02*
X12224000Y26279000D01*
X15834000Y26319000D02*
X12166000Y26319000D01*
X15890000Y26359000D02*
X12110000Y26359000D01*
X15944000Y26399000D02*
X12056000Y26399000D01*
X15995000Y26439000D02*
X12005000Y26439000D01*
X16044000Y26479000D02*
X11956000Y26479000D01*
X16092000Y26519000D02*
X11908000Y26519000D01*
X16137000Y26559000D02*
X11863000Y26559000D01*
X16182000Y26599000D02*
X11818000Y26599000D01*
X16224000Y26639000D02*
X11776000Y26639000D01*
X16265000Y26679000D02*
X11735000Y26679000D01*
X12960000Y26719000D02*
X11695000Y26719000D01*
X16305000Y26719000D02*
X15040000Y26719000D01*
X12960000Y26759000D02*
X11657000Y26759000D01*
X16343000Y26759000D02*
X15040000Y26759000D01*
X12960000Y26799000D02*
X11620000Y26799000D01*
X16380000Y26799000D02*
X15040000Y26799000D01*
X12960000Y26839000D02*
X11584000Y26839000D01*
X16416000Y26839000D02*
X15040000Y26839000D01*
X12960000Y26879000D02*
X11550000Y26879000D01*
X16450000Y26879000D02*
X15040000Y26879000D01*
X12960000Y26919000D02*
X11516000Y26919000D01*
X16484000Y26919000D02*
X15040000Y26919000D01*
X12960000Y26959000D02*
X11484000Y26959000D01*
X16516000Y26959000D02*
X15040000Y26959000D01*
X12960000Y26999000D02*
X11452000Y26999000D01*
X16548000Y26999000D02*
X15040000Y26999000D01*
X12960000Y27039000D02*
X11422000Y27039000D01*
X16578000Y27039000D02*
X15040000Y27039000D01*
X12960000Y27079000D02*
X11393000Y27079000D01*
X16607000Y27079000D02*
X15040000Y27079000D01*
X12960000Y27119000D02*
X11364000Y27119000D01*
X16636000Y27119000D02*
X15040000Y27119000D01*
X12960000Y27159000D02*
X11336000Y27159000D01*
X16664000Y27159000D02*
X15040000Y27159000D01*
X12960000Y27199000D02*
X11310000Y27199000D01*
X16690000Y27199000D02*
X15040000Y27199000D01*
X12960000Y27239000D02*
X11284000Y27239000D01*
X16716000Y27239000D02*
X15040000Y27239000D01*
X12960000Y27279000D02*
X11258000Y27279000D01*
X16742000Y27279000D02*
X15040000Y27279000D01*
X12960000Y27319000D02*
X11234000Y27319000D01*
X16766000Y27319000D02*
X15040000Y27319000D01*
X12960000Y27359000D02*
X11210000Y27359000D01*
X16790000Y27359000D02*
X15040000Y27359000D01*
X12960000Y27399000D02*
X11188000Y27399000D01*
X16812000Y27399000D02*
X15040000Y27399000D01*
X12960000Y27439000D02*
X11166000Y27439000D01*
X16834000Y27439000D02*
X15040000Y27439000D01*
X12960000Y27479000D02*
X11144000Y27479000D01*
X16856000Y27479000D02*
X15040000Y27479000D01*
X12960000Y27519000D02*
X11124000Y27519000D01*
X16876000Y27519000D02*
X15040000Y27519000D01*
X12960000Y27559000D02*
X11104000Y27559000D01*
X16896000Y27559000D02*
X15040000Y27559000D01*
X12960000Y27599000D02*
X11084000Y27599000D01*
X16916000Y27599000D02*
X15040000Y27599000D01*
X12960000Y27639000D02*
X11066000Y27639000D01*
X16934000Y27639000D02*
X15040000Y27639000D01*
X12960000Y27679000D02*
X11048000Y27679000D01*
X16952000Y27679000D02*
X15040000Y27679000D01*
X12960000Y27719000D02*
X11030000Y27719000D01*
X16970000Y27719000D02*
X15040000Y27719000D01*
X12960000Y27759000D02*
X11014000Y27759000D01*
X16986000Y27759000D02*
X15040000Y27759000D01*
X12960000Y27799000D02*
X10998000Y27799000D01*
X17002000Y27799000D02*
X15040000Y27799000D01*
X12960000Y27839000D02*
X10982000Y27839000D01*
X17018000Y27839000D02*
X15040000Y27839000D01*
X12960000Y27879000D02*
X10967000Y27879000D01*
X17033000Y27879000D02*
X15040000Y27879000D01*
X12960000Y27919000D02*
X10953000Y27919000D01*
X17047000Y27919000D02*
X15040000Y27919000D01*
X12960000Y27959000D02*
X10939000Y27959000D01*
X17061000Y27959000D02*
X15040000Y27959000D01*
X12960000Y27999000D02*
X10926000Y27999000D01*
X17074000Y27999000D02*
X15040000Y27999000D01*
X12960000Y28039000D02*
X10914000Y28039000D01*
X17086000Y28039000D02*
X15040000Y28039000D01*
X12960000Y28079000D02*
X10902000Y28079000D01*
X17098000Y28079000D02*
X15040000Y28079000D01*
X12960000Y28119000D02*
X10890000Y28119000D01*
X17110000Y28119000D02*
X15040000Y28119000D01*
X12960000Y28159000D02*
X10879000Y28159000D01*
X17121000Y28159000D02*
X15040000Y28159000D01*
X12960000Y28199000D02*
X10869000Y28199000D01*
X17131000Y28199000D02*
X15040000Y28199000D01*
X12960000Y28239000D02*
X10859000Y28239000D01*
X17141000Y28239000D02*
X15040000Y28239000D01*
X12960000Y28279000D02*
X10850000Y28279000D01*
X17150000Y28279000D02*
X15040000Y28279000D01*
X12960000Y28320000D02*
X10841000Y28320000D01*
X17159000Y28320000D02*
X15040000Y28320000D01*
X12960000Y28360000D02*
X10833000Y28360000D01*
X17167000Y28360000D02*
X15040000Y28360000D01*
X12960000Y28400000D02*
X10825000Y28400000D01*
X17175000Y28400000D02*
X15040000Y28400000D01*
X12960000Y28440000D02*
X10818000Y28440000D01*
X17182000Y28440000D02*
X15040000Y28440000D01*
X12960000Y28480000D02*
X10811000Y28480000D01*
X17189000Y28480000D02*
X15040000Y28480000D01*
X12960000Y28520000D02*
X10805000Y28520000D01*
X17195000Y28520000D02*
X15040000Y28520000D01*
X12960000Y28560000D02*
X10799000Y28560000D01*
X17201000Y28560000D02*
X15040000Y28560000D01*
X12960000Y28600000D02*
X10794000Y28600000D01*
X17206000Y28600000D02*
X15040000Y28600000D01*
X12960000Y28640000D02*
X10789000Y28640000D01*
X17211000Y28640000D02*
X15040000Y28640000D01*
X12960000Y28680000D02*
X10785000Y28680000D01*
X17215000Y28680000D02*
X15040000Y28680000D01*
X12960000Y28720000D02*
X10782000Y28720000D01*
X17218000Y28720000D02*
X15040000Y28720000D01*
X12960000Y28760000D02*
X10778000Y28760000D01*
X17222000Y28760000D02*
X15040000Y28760000D01*
X17224000Y28800000D02*
X10776000Y28800000D01*
X17227000Y28840000D02*
X10773000Y28840000D01*
X17228000Y28880000D02*
X10772000Y28880000D01*
X17230000Y28920000D02*
X10770000Y28920000D01*
X17230000Y28960000D02*
X10770000Y28960000D01*
X17230000Y29000000D02*
X10770000Y29000000D01*
X17270000Y29000000D02*
G75*
G03X17270000Y29000000I-3270000J0D01*
G01*
D10*
X19400000Y29000000D02*
X18600000Y29000000D01*
X19400000Y30000000D02*
X18600000Y30000000D01*
X19400000Y28700000D02*
X19400000Y30300000D01*
X18600000Y28700000D02*
X19400000Y28700000D01*
X18600000Y30300000D02*
X18600000Y28700000D01*
X19400000Y30300000D02*
X18600000Y30300000D01*
D12*
X32611000Y32550000D02*
X31371000Y32550000D01*
X32611000Y31310000D02*
X32611000Y32550000D01*
X20650000Y23690000D02*
X20650000Y32310000D01*
X32371000Y23690000D02*
X32371000Y32310000D01*
X32371000Y32310000D02*
X20650000Y32310000D01*
X32371000Y23690000D02*
X20650000Y23690000D01*
D13*
X9591714Y16283429D02*
X9591714Y15212000D01*
X9520285Y14997715D01*
X9377428Y14854858D01*
X9163142Y14783429D01*
X9020285Y14783429D01*
X11091714Y14783429D02*
X10234571Y14783429D01*
X10663142Y14783429D02*
X10663142Y16283429D01*
X10520285Y16069143D01*
X10377428Y15926286D01*
X10234571Y15854858D01*
X11591714Y16283429D02*
X12520285Y16283429D01*
X12020285Y15712000D01*
X12234571Y15712000D01*
X12377428Y15640572D01*
X12448857Y15569143D01*
X12520285Y15426286D01*
X12520285Y15069143D01*
X12448857Y14926286D01*
X12377428Y14854858D01*
X12234571Y14783429D01*
X11806000Y14783429D01*
X11663142Y14854858D01*
X11591714Y14926286D01*
X26091714Y16283429D02*
X26091714Y15212000D01*
X26020285Y14997715D01*
X25877428Y14854858D01*
X25663142Y14783429D01*
X25520285Y14783429D01*
X27591714Y14783429D02*
X26734571Y14783429D01*
X27163142Y14783429D02*
X27163142Y16283429D01*
X27020285Y16069143D01*
X26877428Y15926286D01*
X26734571Y15854858D01*
X28877428Y15783429D02*
X28877428Y14783429D01*
X28520285Y16354858D02*
X28163142Y15283429D01*
X29091714Y15283429D01*
X59806000Y16283429D02*
X59806000Y15212000D01*
X59734571Y14997715D01*
X59591714Y14854858D01*
X59377428Y14783429D01*
X59234571Y14783429D01*
X61306000Y14783429D02*
X60448857Y14783429D01*
X60877428Y14783429D02*
X60877428Y16283429D01*
X60734571Y16069143D01*
X60591714Y15926286D01*
X60448857Y15854858D01*
D14*
X48737532Y55431197D02*
X48737532Y54868767D01*
X48700037Y54756281D01*
X48625046Y54681290D01*
X48512560Y54643795D01*
X48437570Y54643795D01*
X49074990Y55356206D02*
X49112486Y55393701D01*
X49187476Y55431197D01*
X49374953Y55431197D01*
X49449944Y55393701D01*
X49487439Y55356206D01*
X49524934Y55281215D01*
X49524934Y55206225D01*
X49487439Y55093739D01*
X49037495Y54643795D01*
X49524934Y54643795D01*
X58737532Y55431197D02*
X58737532Y54868767D01*
X58700037Y54756281D01*
X58625046Y54681290D01*
X58512560Y54643795D01*
X58437570Y54643795D01*
X59037495Y55431197D02*
X59524934Y55431197D01*
X59262467Y55131234D01*
X59374953Y55131234D01*
X59449944Y55093739D01*
X59487439Y55056243D01*
X59524934Y54981253D01*
X59524934Y54793776D01*
X59487439Y54718785D01*
X59449944Y54681290D01*
X59374953Y54643795D01*
X59149981Y54643795D01*
X59074990Y54681290D01*
X59037495Y54718785D01*
X68737532Y55431197D02*
X68737532Y54868767D01*
X68700037Y54756281D01*
X68625046Y54681290D01*
X68512560Y54643795D01*
X68437570Y54643795D01*
X69224972Y55093739D02*
X69149981Y55131234D01*
X69112486Y55168729D01*
X69074990Y55243720D01*
X69074990Y55281215D01*
X69112486Y55356206D01*
X69149981Y55393701D01*
X69224972Y55431197D01*
X69374953Y55431197D01*
X69449944Y55393701D01*
X69487439Y55356206D01*
X69524934Y55281215D01*
X69524934Y55243720D01*
X69487439Y55168729D01*
X69449944Y55131234D01*
X69374953Y55093739D01*
X69224972Y55093739D01*
X69149981Y55056243D01*
X69112486Y55018748D01*
X69074990Y54943757D01*
X69074990Y54793776D01*
X69112486Y54718785D01*
X69149981Y54681290D01*
X69224972Y54643795D01*
X69374953Y54643795D01*
X69449944Y54681290D01*
X69487439Y54718785D01*
X69524934Y54793776D01*
X69524934Y54943757D01*
X69487439Y55018748D01*
X69449944Y55056243D01*
X69374953Y55093739D01*
X38737532Y55431197D02*
X38737532Y54868767D01*
X38700037Y54756281D01*
X38625046Y54681290D01*
X38512560Y54643795D01*
X38437570Y54643795D01*
X39037495Y55431197D02*
X39562430Y55431197D01*
X39224972Y54643795D01*
X28737532Y55431197D02*
X28737532Y54868767D01*
X28700037Y54756281D01*
X28625046Y54681290D01*
X28512560Y54643795D01*
X28437570Y54643795D01*
X29449944Y55431197D02*
X29299962Y55431197D01*
X29224972Y55393701D01*
X29187476Y55356206D01*
X29112486Y55243720D01*
X29074990Y55093739D01*
X29074990Y54793776D01*
X29112486Y54718785D01*
X29149981Y54681290D01*
X29224972Y54643795D01*
X29374953Y54643795D01*
X29449944Y54681290D01*
X29487439Y54718785D01*
X29524934Y54793776D01*
X29524934Y54981253D01*
X29487439Y55056243D01*
X29449944Y55093739D01*
X29374953Y55131234D01*
X29224972Y55131234D01*
X29149981Y55093739D01*
X29112486Y55056243D01*
X29074990Y54981253D01*
X18737532Y55431197D02*
X18737532Y54868767D01*
X18700037Y54756281D01*
X18625046Y54681290D01*
X18512560Y54643795D01*
X18437570Y54643795D01*
X19449944Y55168729D02*
X19449944Y54643795D01*
X19262467Y55468692D02*
X19074990Y54906262D01*
X19562430Y54906262D01*
D10*
X79936666Y54771620D02*
X79936666Y54057334D01*
X79889047Y53914477D01*
X79793809Y53819239D01*
X79650952Y53771620D01*
X79555714Y53771620D01*
X80889047Y54771620D02*
X80412857Y54771620D01*
X80365238Y54295429D01*
X80412857Y54343048D01*
X80508095Y54390667D01*
X80746190Y54390667D01*
X80841428Y54343048D01*
X80889047Y54295429D01*
X80936666Y54200191D01*
X80936666Y53962096D01*
X80889047Y53866858D01*
X80841428Y53819239D01*
X80746190Y53771620D01*
X80508095Y53771620D01*
X80412857Y53819239D01*
X80365238Y53866858D01*
D13*
X42591714Y16283429D02*
X42591714Y15212000D01*
X42520285Y14997715D01*
X42377428Y14854858D01*
X42163142Y14783429D01*
X42020285Y14783429D01*
X44091714Y14783429D02*
X43234571Y14783429D01*
X43663142Y14783429D02*
X43663142Y16283429D01*
X43520285Y16069143D01*
X43377428Y15926286D01*
X43234571Y15854858D01*
X45448857Y16283429D02*
X44734571Y16283429D01*
X44663142Y15569143D01*
X44734571Y15640572D01*
X44877428Y15712000D01*
X45234571Y15712000D01*
X45377428Y15640572D01*
X45448857Y15569143D01*
X45520285Y15426286D01*
X45520285Y15069143D01*
X45448857Y14926286D01*
X45377428Y14854858D01*
X45234571Y14783429D01*
X44877428Y14783429D01*
X44734571Y14854858D01*
X44663142Y14926286D01*
D10*
X37357142Y33583334D02*
X37404761Y33535715D01*
X37452380Y33392858D01*
X37452380Y33297620D01*
X37404761Y33154762D01*
X37309523Y33059524D01*
X37214285Y33011905D01*
X37023809Y32964286D01*
X36880952Y32964286D01*
X36690476Y33011905D01*
X36595238Y33059524D01*
X36500000Y33154762D01*
X36452380Y33297620D01*
X36452380Y33392858D01*
X36500000Y33535715D01*
X36547619Y33583334D01*
X37452380Y34535715D02*
X37452380Y33964286D01*
X37452380Y34250000D02*
X36452380Y34250000D01*
X36595238Y34154762D01*
X36690476Y34059524D01*
X36738095Y33964286D01*
X14357142Y33583334D02*
X14404761Y33535715D01*
X14452380Y33392858D01*
X14452380Y33297620D01*
X14404761Y33154762D01*
X14309523Y33059524D01*
X14214285Y33011905D01*
X14023809Y32964286D01*
X13880952Y32964286D01*
X13690476Y33011905D01*
X13595238Y33059524D01*
X13500000Y33154762D01*
X13452380Y33297620D01*
X13452380Y33392858D01*
X13500000Y33535715D01*
X13547619Y33583334D01*
X13547619Y33964286D02*
X13500000Y34011905D01*
X13452380Y34107143D01*
X13452380Y34345239D01*
X13500000Y34440477D01*
X13547619Y34488096D01*
X13642857Y34535715D01*
X13738095Y34535715D01*
X13880952Y34488096D01*
X14452380Y33916667D01*
X14452380Y34535715D01*
D15*
X19285714Y31366667D02*
X19323809Y31328572D01*
X19361904Y31214286D01*
X19361904Y31138096D01*
X19323809Y31023810D01*
X19247619Y30947620D01*
X19171428Y30909524D01*
X19019047Y30871429D01*
X18904761Y30871429D01*
X18752380Y30909524D01*
X18676190Y30947620D01*
X18600000Y31023810D01*
X18561904Y31138096D01*
X18561904Y31214286D01*
X18600000Y31328572D01*
X18638095Y31366667D01*
X18561904Y31633334D02*
X18561904Y32128572D01*
X18866666Y31861905D01*
X18866666Y31976191D01*
X18904761Y32052381D01*
X18942857Y32090477D01*
X19019047Y32128572D01*
X19209523Y32128572D01*
X19285714Y32090477D01*
X19323809Y32052381D01*
X19361904Y31976191D01*
X19361904Y31747620D01*
X19323809Y31671429D01*
X19285714Y31633334D01*
D10*
X25698095Y23237620D02*
X25698095Y22428096D01*
X25745714Y22332858D01*
X25793333Y22285239D01*
X25888571Y22237620D01*
X26079047Y22237620D01*
X26174285Y22285239D01*
X26221904Y22332858D01*
X26269523Y22428096D01*
X26269523Y23237620D01*
X27269523Y22237620D02*
X26698095Y22237620D01*
X26983809Y22237620D02*
X26983809Y23237620D01*
X26888571Y23094762D01*
X26793333Y22999524D01*
X26698095Y22951905D01*
M02*
