G04 #@! TF.GenerationSoftware,KiCad,Pcbnew,(5.1.5)-3*
G04 #@! TF.CreationDate,2020-02-01T18:29:59+01:00*
G04 #@! TF.ProjectId,5i25Breakout,35693235-4272-4656-916b-6f75742e6b69,rev?*
G04 #@! TF.SameCoordinates,PXe4e1c0PY93d1cc0*
G04 #@! TF.FileFunction,Soldermask,Top*
G04 #@! TF.FilePolarity,Negative*
%FSLAX46Y46*%
G04 Gerber Fmt 4.6, Leading zero omitted, Abs format (unit mm)*
G04 Created by KiCad (PCBNEW (5.1.5)-3) date 2020-02-01 18:29:59*
%MOMM*%
%LPD*%
G04 APERTURE LIST*
%ADD10C,0.100000*%
G04 APERTURE END LIST*
D10*
G36*
X56546217Y5993335D02*
G01*
X56816995Y5939475D01*
X57108358Y5818788D01*
X57370578Y5643578D01*
X57593578Y5420578D01*
X57768788Y5158358D01*
X57889475Y4866995D01*
X57951000Y4557685D01*
X57951000Y4242315D01*
X57889475Y3933005D01*
X57768788Y3641642D01*
X57593578Y3379422D01*
X57370578Y3156422D01*
X57108358Y2981212D01*
X56816995Y2860525D01*
X56546217Y2806665D01*
X56507686Y2799000D01*
X56192314Y2799000D01*
X56153783Y2806665D01*
X55883005Y2860525D01*
X55591642Y2981212D01*
X55329422Y3156422D01*
X55106422Y3379422D01*
X54931212Y3641642D01*
X54810525Y3933005D01*
X54749000Y4242315D01*
X54749000Y4557685D01*
X54810525Y4866995D01*
X54931212Y5158358D01*
X55106422Y5420578D01*
X55329422Y5643578D01*
X55591642Y5818788D01*
X55883005Y5939475D01*
X56153783Y5993335D01*
X56192314Y6001000D01*
X56507686Y6001000D01*
X56546217Y5993335D01*
G37*
G36*
X60346217Y5993335D02*
G01*
X60616995Y5939475D01*
X60908358Y5818788D01*
X61170578Y5643578D01*
X61393578Y5420578D01*
X61568788Y5158358D01*
X61689475Y4866995D01*
X61751000Y4557685D01*
X61751000Y4242315D01*
X61689475Y3933005D01*
X61568788Y3641642D01*
X61393578Y3379422D01*
X61170578Y3156422D01*
X60908358Y2981212D01*
X60616995Y2860525D01*
X60346217Y2806665D01*
X60307686Y2799000D01*
X59992314Y2799000D01*
X59953783Y2806665D01*
X59683005Y2860525D01*
X59391642Y2981212D01*
X59129422Y3156422D01*
X58906422Y3379422D01*
X58731212Y3641642D01*
X58610525Y3933005D01*
X58549000Y4242315D01*
X58549000Y4557685D01*
X58610525Y4866995D01*
X58731212Y5158358D01*
X58906422Y5420578D01*
X59129422Y5643578D01*
X59391642Y5818788D01*
X59683005Y5939475D01*
X59953783Y5993335D01*
X59992314Y6001000D01*
X60307686Y6001000D01*
X60346217Y5993335D01*
G37*
G36*
X10846217Y5993335D02*
G01*
X11116995Y5939475D01*
X11408358Y5818788D01*
X11670578Y5643578D01*
X11893578Y5420578D01*
X12068788Y5158358D01*
X12189475Y4866995D01*
X12251000Y4557685D01*
X12251000Y4242315D01*
X12189475Y3933005D01*
X12068788Y3641642D01*
X11893578Y3379422D01*
X11670578Y3156422D01*
X11408358Y2981212D01*
X11116995Y2860525D01*
X10846217Y2806665D01*
X10807686Y2799000D01*
X10492314Y2799000D01*
X10453783Y2806665D01*
X10183005Y2860525D01*
X9891642Y2981212D01*
X9629422Y3156422D01*
X9406422Y3379422D01*
X9231212Y3641642D01*
X9110525Y3933005D01*
X9049000Y4242315D01*
X9049000Y4557685D01*
X9110525Y4866995D01*
X9231212Y5158358D01*
X9406422Y5420578D01*
X9629422Y5643578D01*
X9891642Y5818788D01*
X10183005Y5939475D01*
X10453783Y5993335D01*
X10492314Y6001000D01*
X10807686Y6001000D01*
X10846217Y5993335D01*
G37*
G36*
X23546217Y5993335D02*
G01*
X23816995Y5939475D01*
X24108358Y5818788D01*
X24370578Y5643578D01*
X24593578Y5420578D01*
X24768788Y5158358D01*
X24889475Y4866995D01*
X24951000Y4557685D01*
X24951000Y4242315D01*
X24889475Y3933005D01*
X24768788Y3641642D01*
X24593578Y3379422D01*
X24370578Y3156422D01*
X24108358Y2981212D01*
X23816995Y2860525D01*
X23546217Y2806665D01*
X23507686Y2799000D01*
X23192314Y2799000D01*
X23153783Y2806665D01*
X22883005Y2860525D01*
X22591642Y2981212D01*
X22329422Y3156422D01*
X22106422Y3379422D01*
X21931212Y3641642D01*
X21810525Y3933005D01*
X21749000Y4242315D01*
X21749000Y4557685D01*
X21810525Y4866995D01*
X21931212Y5158358D01*
X22106422Y5420578D01*
X22329422Y5643578D01*
X22591642Y5818788D01*
X22883005Y5939475D01*
X23153783Y5993335D01*
X23192314Y6001000D01*
X23507686Y6001000D01*
X23546217Y5993335D01*
G37*
G36*
X27346217Y5993335D02*
G01*
X27616995Y5939475D01*
X27908358Y5818788D01*
X28170578Y5643578D01*
X28393578Y5420578D01*
X28568788Y5158358D01*
X28689475Y4866995D01*
X28751000Y4557685D01*
X28751000Y4242315D01*
X28689475Y3933005D01*
X28568788Y3641642D01*
X28393578Y3379422D01*
X28170578Y3156422D01*
X27908358Y2981212D01*
X27616995Y2860525D01*
X27346217Y2806665D01*
X27307686Y2799000D01*
X26992314Y2799000D01*
X26953783Y2806665D01*
X26683005Y2860525D01*
X26391642Y2981212D01*
X26129422Y3156422D01*
X25906422Y3379422D01*
X25731212Y3641642D01*
X25610525Y3933005D01*
X25549000Y4242315D01*
X25549000Y4557685D01*
X25610525Y4866995D01*
X25731212Y5158358D01*
X25906422Y5420578D01*
X26129422Y5643578D01*
X26391642Y5818788D01*
X26683005Y5939475D01*
X26953783Y5993335D01*
X26992314Y6001000D01*
X27307686Y6001000D01*
X27346217Y5993335D01*
G37*
G36*
X73046217Y5993335D02*
G01*
X73316995Y5939475D01*
X73608358Y5818788D01*
X73870578Y5643578D01*
X74093578Y5420578D01*
X74268788Y5158358D01*
X74389475Y4866995D01*
X74451000Y4557685D01*
X74451000Y4242315D01*
X74389475Y3933005D01*
X74268788Y3641642D01*
X74093578Y3379422D01*
X73870578Y3156422D01*
X73608358Y2981212D01*
X73316995Y2860525D01*
X73046217Y2806665D01*
X73007686Y2799000D01*
X72692314Y2799000D01*
X72653783Y2806665D01*
X72383005Y2860525D01*
X72091642Y2981212D01*
X71829422Y3156422D01*
X71606422Y3379422D01*
X71431212Y3641642D01*
X71310525Y3933005D01*
X71249000Y4242315D01*
X71249000Y4557685D01*
X71310525Y4866995D01*
X71431212Y5158358D01*
X71606422Y5420578D01*
X71829422Y5643578D01*
X72091642Y5818788D01*
X72383005Y5939475D01*
X72653783Y5993335D01*
X72692314Y6001000D01*
X73007686Y6001000D01*
X73046217Y5993335D01*
G37*
G36*
X43846217Y5993335D02*
G01*
X44116995Y5939475D01*
X44408358Y5818788D01*
X44670578Y5643578D01*
X44893578Y5420578D01*
X45068788Y5158358D01*
X45189475Y4866995D01*
X45251000Y4557685D01*
X45251000Y4242315D01*
X45189475Y3933005D01*
X45068788Y3641642D01*
X44893578Y3379422D01*
X44670578Y3156422D01*
X44408358Y2981212D01*
X44116995Y2860525D01*
X43846217Y2806665D01*
X43807686Y2799000D01*
X43492314Y2799000D01*
X43453783Y2806665D01*
X43183005Y2860525D01*
X42891642Y2981212D01*
X42629422Y3156422D01*
X42406422Y3379422D01*
X42231212Y3641642D01*
X42110525Y3933005D01*
X42049000Y4242315D01*
X42049000Y4557685D01*
X42110525Y4866995D01*
X42231212Y5158358D01*
X42406422Y5420578D01*
X42629422Y5643578D01*
X42891642Y5818788D01*
X43183005Y5939475D01*
X43453783Y5993335D01*
X43492314Y6001000D01*
X43807686Y6001000D01*
X43846217Y5993335D01*
G37*
G36*
X40046217Y5993335D02*
G01*
X40316995Y5939475D01*
X40608358Y5818788D01*
X40870578Y5643578D01*
X41093578Y5420578D01*
X41268788Y5158358D01*
X41389475Y4866995D01*
X41451000Y4557685D01*
X41451000Y4242315D01*
X41389475Y3933005D01*
X41268788Y3641642D01*
X41093578Y3379422D01*
X40870578Y3156422D01*
X40608358Y2981212D01*
X40316995Y2860525D01*
X40046217Y2806665D01*
X40007686Y2799000D01*
X39692314Y2799000D01*
X39653783Y2806665D01*
X39383005Y2860525D01*
X39091642Y2981212D01*
X38829422Y3156422D01*
X38606422Y3379422D01*
X38431212Y3641642D01*
X38310525Y3933005D01*
X38249000Y4242315D01*
X38249000Y4557685D01*
X38310525Y4866995D01*
X38431212Y5158358D01*
X38606422Y5420578D01*
X38829422Y5643578D01*
X39091642Y5818788D01*
X39383005Y5939475D01*
X39653783Y5993335D01*
X39692314Y6001000D01*
X40007686Y6001000D01*
X40046217Y5993335D01*
G37*
G36*
X51734473Y7614062D02*
G01*
X51862049Y7561218D01*
X51976859Y7484505D01*
X52074505Y7386859D01*
X52151218Y7272049D01*
X52204062Y7144473D01*
X52231000Y7009044D01*
X52231000Y6870956D01*
X52204062Y6735527D01*
X52151218Y6607951D01*
X52074505Y6493141D01*
X51976859Y6395495D01*
X51862049Y6318782D01*
X51734473Y6265938D01*
X51599044Y6239000D01*
X51460956Y6239000D01*
X51325527Y6265938D01*
X51197951Y6318782D01*
X51083141Y6395495D01*
X50985495Y6493141D01*
X50908782Y6607951D01*
X50855938Y6735527D01*
X50829000Y6870956D01*
X50829000Y7009044D01*
X50855938Y7144473D01*
X50908782Y7272049D01*
X50985495Y7386859D01*
X51083141Y7484505D01*
X51197951Y7561218D01*
X51325527Y7614062D01*
X51460956Y7641000D01*
X51599044Y7641000D01*
X51734473Y7614062D01*
G37*
G36*
X47654473Y7614062D02*
G01*
X47782049Y7561218D01*
X47896859Y7484505D01*
X47994505Y7386859D01*
X48071218Y7272049D01*
X48124062Y7144473D01*
X48151000Y7009044D01*
X48151000Y6870956D01*
X48124062Y6735527D01*
X48071218Y6607951D01*
X47994505Y6493141D01*
X47896859Y6395495D01*
X47782049Y6318782D01*
X47654473Y6265938D01*
X47519044Y6239000D01*
X47380956Y6239000D01*
X47245527Y6265938D01*
X47117951Y6318782D01*
X47003141Y6395495D01*
X46905495Y6493141D01*
X46828782Y6607951D01*
X46775938Y6735527D01*
X46749000Y6870956D01*
X46749000Y7009044D01*
X46775938Y7144473D01*
X46828782Y7272049D01*
X46905495Y7386859D01*
X47003141Y7484505D01*
X47117951Y7561218D01*
X47245527Y7614062D01*
X47380956Y7641000D01*
X47519044Y7641000D01*
X47654473Y7614062D01*
G37*
G36*
X49694473Y7614062D02*
G01*
X49822049Y7561218D01*
X49936859Y7484505D01*
X50034505Y7386859D01*
X50111218Y7272049D01*
X50164062Y7144473D01*
X50191000Y7009044D01*
X50191000Y6870956D01*
X50164062Y6735527D01*
X50111218Y6607951D01*
X50034505Y6493141D01*
X49936859Y6395495D01*
X49822049Y6318782D01*
X49694473Y6265938D01*
X49559044Y6239000D01*
X49420956Y6239000D01*
X49285527Y6265938D01*
X49157951Y6318782D01*
X49043141Y6395495D01*
X48945495Y6493141D01*
X48868782Y6607951D01*
X48815938Y6735527D01*
X48789000Y6870956D01*
X48789000Y7009044D01*
X48815938Y7144473D01*
X48868782Y7272049D01*
X48945495Y7386859D01*
X49043141Y7484505D01*
X49157951Y7561218D01*
X49285527Y7614062D01*
X49420956Y7641000D01*
X49559044Y7641000D01*
X49694473Y7614062D01*
G37*
G36*
X53774473Y7614062D02*
G01*
X53902049Y7561218D01*
X54016859Y7484505D01*
X54114505Y7386859D01*
X54191218Y7272049D01*
X54244062Y7144473D01*
X54271000Y7009044D01*
X54271000Y6870956D01*
X54244062Y6735527D01*
X54191218Y6607951D01*
X54114505Y6493141D01*
X54016859Y6395495D01*
X53902049Y6318782D01*
X53774473Y6265938D01*
X53639044Y6239000D01*
X53500956Y6239000D01*
X53365527Y6265938D01*
X53237951Y6318782D01*
X53123141Y6395495D01*
X53025495Y6493141D01*
X52948782Y6607951D01*
X52895938Y6735527D01*
X52869000Y6870956D01*
X52869000Y7009044D01*
X52895938Y7144473D01*
X52948782Y7272049D01*
X53025495Y7386859D01*
X53123141Y7484505D01*
X53237951Y7561218D01*
X53365527Y7614062D01*
X53500956Y7641000D01*
X53639044Y7641000D01*
X53774473Y7614062D01*
G37*
G36*
X64154473Y7614062D02*
G01*
X64282049Y7561218D01*
X64396859Y7484505D01*
X64494505Y7386859D01*
X64571218Y7272049D01*
X64624062Y7144473D01*
X64651000Y7009044D01*
X64651000Y6870956D01*
X64624062Y6735527D01*
X64571218Y6607951D01*
X64494505Y6493141D01*
X64396859Y6395495D01*
X64282049Y6318782D01*
X64154473Y6265938D01*
X64019044Y6239000D01*
X63880956Y6239000D01*
X63745527Y6265938D01*
X63617951Y6318782D01*
X63503141Y6395495D01*
X63405495Y6493141D01*
X63328782Y6607951D01*
X63275938Y6735527D01*
X63249000Y6870956D01*
X63249000Y7009044D01*
X63275938Y7144473D01*
X63328782Y7272049D01*
X63405495Y7386859D01*
X63503141Y7484505D01*
X63617951Y7561218D01*
X63745527Y7614062D01*
X63880956Y7641000D01*
X64019044Y7641000D01*
X64154473Y7614062D01*
G37*
G36*
X68234473Y7614062D02*
G01*
X68362049Y7561218D01*
X68476859Y7484505D01*
X68574505Y7386859D01*
X68651218Y7272049D01*
X68704062Y7144473D01*
X68731000Y7009044D01*
X68731000Y6870956D01*
X68704062Y6735527D01*
X68651218Y6607951D01*
X68574505Y6493141D01*
X68476859Y6395495D01*
X68362049Y6318782D01*
X68234473Y6265938D01*
X68099044Y6239000D01*
X67960956Y6239000D01*
X67825527Y6265938D01*
X67697951Y6318782D01*
X67583141Y6395495D01*
X67485495Y6493141D01*
X67408782Y6607951D01*
X67355938Y6735527D01*
X67329000Y6870956D01*
X67329000Y7009044D01*
X67355938Y7144473D01*
X67408782Y7272049D01*
X67485495Y7386859D01*
X67583141Y7484505D01*
X67697951Y7561218D01*
X67825527Y7614062D01*
X67960956Y7641000D01*
X68099044Y7641000D01*
X68234473Y7614062D01*
G37*
G36*
X31154473Y7614062D02*
G01*
X31282049Y7561218D01*
X31396859Y7484505D01*
X31494505Y7386859D01*
X31571218Y7272049D01*
X31624062Y7144473D01*
X31651000Y7009044D01*
X31651000Y6870956D01*
X31624062Y6735527D01*
X31571218Y6607951D01*
X31494505Y6493141D01*
X31396859Y6395495D01*
X31282049Y6318782D01*
X31154473Y6265938D01*
X31019044Y6239000D01*
X30880956Y6239000D01*
X30745527Y6265938D01*
X30617951Y6318782D01*
X30503141Y6395495D01*
X30405495Y6493141D01*
X30328782Y6607951D01*
X30275938Y6735527D01*
X30249000Y6870956D01*
X30249000Y7009044D01*
X30275938Y7144473D01*
X30328782Y7272049D01*
X30405495Y7386859D01*
X30503141Y7484505D01*
X30617951Y7561218D01*
X30745527Y7614062D01*
X30880956Y7641000D01*
X31019044Y7641000D01*
X31154473Y7614062D01*
G37*
G36*
X33194473Y7614062D02*
G01*
X33322049Y7561218D01*
X33436859Y7484505D01*
X33534505Y7386859D01*
X33611218Y7272049D01*
X33664062Y7144473D01*
X33691000Y7009044D01*
X33691000Y6870956D01*
X33664062Y6735527D01*
X33611218Y6607951D01*
X33534505Y6493141D01*
X33436859Y6395495D01*
X33322049Y6318782D01*
X33194473Y6265938D01*
X33059044Y6239000D01*
X32920956Y6239000D01*
X32785527Y6265938D01*
X32657951Y6318782D01*
X32543141Y6395495D01*
X32445495Y6493141D01*
X32368782Y6607951D01*
X32315938Y6735527D01*
X32289000Y6870956D01*
X32289000Y7009044D01*
X32315938Y7144473D01*
X32368782Y7272049D01*
X32445495Y7386859D01*
X32543141Y7484505D01*
X32657951Y7561218D01*
X32785527Y7614062D01*
X32920956Y7641000D01*
X33059044Y7641000D01*
X33194473Y7614062D01*
G37*
G36*
X37274473Y7614062D02*
G01*
X37402049Y7561218D01*
X37516859Y7484505D01*
X37614505Y7386859D01*
X37691218Y7272049D01*
X37744062Y7144473D01*
X37771000Y7009044D01*
X37771000Y6870956D01*
X37744062Y6735527D01*
X37691218Y6607951D01*
X37614505Y6493141D01*
X37516859Y6395495D01*
X37402049Y6318782D01*
X37274473Y6265938D01*
X37139044Y6239000D01*
X37000956Y6239000D01*
X36865527Y6265938D01*
X36737951Y6318782D01*
X36623141Y6395495D01*
X36525495Y6493141D01*
X36448782Y6607951D01*
X36395938Y6735527D01*
X36369000Y6870956D01*
X36369000Y7009044D01*
X36395938Y7144473D01*
X36448782Y7272049D01*
X36525495Y7386859D01*
X36623141Y7484505D01*
X36737951Y7561218D01*
X36865527Y7614062D01*
X37000956Y7641000D01*
X37139044Y7641000D01*
X37274473Y7614062D01*
G37*
G36*
X14654473Y7614062D02*
G01*
X14782049Y7561218D01*
X14896859Y7484505D01*
X14994505Y7386859D01*
X15071218Y7272049D01*
X15124062Y7144473D01*
X15151000Y7009044D01*
X15151000Y6870956D01*
X15124062Y6735527D01*
X15071218Y6607951D01*
X14994505Y6493141D01*
X14896859Y6395495D01*
X14782049Y6318782D01*
X14654473Y6265938D01*
X14519044Y6239000D01*
X14380956Y6239000D01*
X14245527Y6265938D01*
X14117951Y6318782D01*
X14003141Y6395495D01*
X13905495Y6493141D01*
X13828782Y6607951D01*
X13775938Y6735527D01*
X13749000Y6870956D01*
X13749000Y7009044D01*
X13775938Y7144473D01*
X13828782Y7272049D01*
X13905495Y7386859D01*
X14003141Y7484505D01*
X14117951Y7561218D01*
X14245527Y7614062D01*
X14380956Y7641000D01*
X14519044Y7641000D01*
X14654473Y7614062D01*
G37*
G36*
X16694473Y7614062D02*
G01*
X16822049Y7561218D01*
X16936859Y7484505D01*
X17034505Y7386859D01*
X17111218Y7272049D01*
X17164062Y7144473D01*
X17191000Y7009044D01*
X17191000Y6870956D01*
X17164062Y6735527D01*
X17111218Y6607951D01*
X17034505Y6493141D01*
X16936859Y6395495D01*
X16822049Y6318782D01*
X16694473Y6265938D01*
X16559044Y6239000D01*
X16420956Y6239000D01*
X16285527Y6265938D01*
X16157951Y6318782D01*
X16043141Y6395495D01*
X15945495Y6493141D01*
X15868782Y6607951D01*
X15815938Y6735527D01*
X15789000Y6870956D01*
X15789000Y7009044D01*
X15815938Y7144473D01*
X15868782Y7272049D01*
X15945495Y7386859D01*
X16043141Y7484505D01*
X16157951Y7561218D01*
X16285527Y7614062D01*
X16420956Y7641000D01*
X16559044Y7641000D01*
X16694473Y7614062D01*
G37*
G36*
X18734473Y7614062D02*
G01*
X18862049Y7561218D01*
X18976859Y7484505D01*
X19074505Y7386859D01*
X19151218Y7272049D01*
X19204062Y7144473D01*
X19231000Y7009044D01*
X19231000Y6870956D01*
X19204062Y6735527D01*
X19151218Y6607951D01*
X19074505Y6493141D01*
X18976859Y6395495D01*
X18862049Y6318782D01*
X18734473Y6265938D01*
X18599044Y6239000D01*
X18460956Y6239000D01*
X18325527Y6265938D01*
X18197951Y6318782D01*
X18083141Y6395495D01*
X17985495Y6493141D01*
X17908782Y6607951D01*
X17855938Y6735527D01*
X17829000Y6870956D01*
X17829000Y7009044D01*
X17855938Y7144473D01*
X17908782Y7272049D01*
X17985495Y7386859D01*
X18083141Y7484505D01*
X18197951Y7561218D01*
X18325527Y7614062D01*
X18460956Y7641000D01*
X18599044Y7641000D01*
X18734473Y7614062D01*
G37*
G36*
X70274473Y7614062D02*
G01*
X70402049Y7561218D01*
X70516859Y7484505D01*
X70614505Y7386859D01*
X70691218Y7272049D01*
X70744062Y7144473D01*
X70771000Y7009044D01*
X70771000Y6870956D01*
X70744062Y6735527D01*
X70691218Y6607951D01*
X70614505Y6493141D01*
X70516859Y6395495D01*
X70402049Y6318782D01*
X70274473Y6265938D01*
X70139044Y6239000D01*
X70000956Y6239000D01*
X69865527Y6265938D01*
X69737951Y6318782D01*
X69623141Y6395495D01*
X69525495Y6493141D01*
X69448782Y6607951D01*
X69395938Y6735527D01*
X69369000Y6870956D01*
X69369000Y7009044D01*
X69395938Y7144473D01*
X69448782Y7272049D01*
X69525495Y7386859D01*
X69623141Y7484505D01*
X69737951Y7561218D01*
X69865527Y7614062D01*
X70000956Y7641000D01*
X70139044Y7641000D01*
X70274473Y7614062D01*
G37*
G36*
X20774473Y7614062D02*
G01*
X20902049Y7561218D01*
X21016859Y7484505D01*
X21114505Y7386859D01*
X21191218Y7272049D01*
X21244062Y7144473D01*
X21271000Y7009044D01*
X21271000Y6870956D01*
X21244062Y6735527D01*
X21191218Y6607951D01*
X21114505Y6493141D01*
X21016859Y6395495D01*
X20902049Y6318782D01*
X20774473Y6265938D01*
X20639044Y6239000D01*
X20500956Y6239000D01*
X20365527Y6265938D01*
X20237951Y6318782D01*
X20123141Y6395495D01*
X20025495Y6493141D01*
X19948782Y6607951D01*
X19895938Y6735527D01*
X19869000Y6870956D01*
X19869000Y7009044D01*
X19895938Y7144473D01*
X19948782Y7272049D01*
X20025495Y7386859D01*
X20123141Y7484505D01*
X20237951Y7561218D01*
X20365527Y7614062D01*
X20500956Y7641000D01*
X20639044Y7641000D01*
X20774473Y7614062D01*
G37*
G36*
X66194473Y7614062D02*
G01*
X66322049Y7561218D01*
X66436859Y7484505D01*
X66534505Y7386859D01*
X66611218Y7272049D01*
X66664062Y7144473D01*
X66691000Y7009044D01*
X66691000Y6870956D01*
X66664062Y6735527D01*
X66611218Y6607951D01*
X66534505Y6493141D01*
X66436859Y6395495D01*
X66322049Y6318782D01*
X66194473Y6265938D01*
X66059044Y6239000D01*
X65920956Y6239000D01*
X65785527Y6265938D01*
X65657951Y6318782D01*
X65543141Y6395495D01*
X65445495Y6493141D01*
X65368782Y6607951D01*
X65315938Y6735527D01*
X65289000Y6870956D01*
X65289000Y7009044D01*
X65315938Y7144473D01*
X65368782Y7272049D01*
X65445495Y7386859D01*
X65543141Y7484505D01*
X65657951Y7561218D01*
X65785527Y7614062D01*
X65920956Y7641000D01*
X66059044Y7641000D01*
X66194473Y7614062D01*
G37*
G36*
X35234473Y7614062D02*
G01*
X35362049Y7561218D01*
X35476859Y7484505D01*
X35574505Y7386859D01*
X35651218Y7272049D01*
X35704062Y7144473D01*
X35731000Y7009044D01*
X35731000Y6870956D01*
X35704062Y6735527D01*
X35651218Y6607951D01*
X35574505Y6493141D01*
X35476859Y6395495D01*
X35362049Y6318782D01*
X35234473Y6265938D01*
X35099044Y6239000D01*
X34960956Y6239000D01*
X34825527Y6265938D01*
X34697951Y6318782D01*
X34583141Y6395495D01*
X34485495Y6493141D01*
X34408782Y6607951D01*
X34355938Y6735527D01*
X34329000Y6870956D01*
X34329000Y7009044D01*
X34355938Y7144473D01*
X34408782Y7272049D01*
X34485495Y7386859D01*
X34583141Y7484505D01*
X34697951Y7561218D01*
X34825527Y7614062D01*
X34960956Y7641000D01*
X35099044Y7641000D01*
X35234473Y7614062D01*
G37*
G36*
X8945285Y8811766D02*
G01*
X9041981Y8792532D01*
X9224151Y8717074D01*
X9388100Y8607527D01*
X9527527Y8468100D01*
X9637074Y8304151D01*
X9712532Y8121981D01*
X9751000Y7928590D01*
X9751000Y7731410D01*
X9712532Y7538019D01*
X9637074Y7355849D01*
X9527527Y7191900D01*
X9388100Y7052473D01*
X9224151Y6942926D01*
X9041981Y6867468D01*
X8848591Y6829000D01*
X8651409Y6829000D01*
X8458019Y6867468D01*
X8275849Y6942926D01*
X8111900Y7052473D01*
X7972473Y7191900D01*
X7862926Y7355849D01*
X7787468Y7538019D01*
X7749000Y7731410D01*
X7749000Y7928590D01*
X7787468Y8121981D01*
X7862926Y8304151D01*
X7972473Y8468100D01*
X8111900Y8607527D01*
X8275849Y8717074D01*
X8458019Y8792532D01*
X8554715Y8811766D01*
X8651409Y8831000D01*
X8848591Y8831000D01*
X8945285Y8811766D01*
G37*
G36*
X41945285Y8811766D02*
G01*
X42041981Y8792532D01*
X42224151Y8717074D01*
X42388100Y8607527D01*
X42527527Y8468100D01*
X42637074Y8304151D01*
X42712532Y8121981D01*
X42751000Y7928590D01*
X42751000Y7731410D01*
X42712532Y7538019D01*
X42637074Y7355849D01*
X42527527Y7191900D01*
X42388100Y7052473D01*
X42224151Y6942926D01*
X42041981Y6867468D01*
X41848591Y6829000D01*
X41651409Y6829000D01*
X41458019Y6867468D01*
X41275849Y6942926D01*
X41111900Y7052473D01*
X40972473Y7191900D01*
X40862926Y7355849D01*
X40787468Y7538019D01*
X40749000Y7731410D01*
X40749000Y7928590D01*
X40787468Y8121981D01*
X40862926Y8304151D01*
X40972473Y8468100D01*
X41111900Y8607527D01*
X41275849Y8717074D01*
X41458019Y8792532D01*
X41554715Y8811766D01*
X41651409Y8831000D01*
X41848591Y8831000D01*
X41945285Y8811766D01*
G37*
G36*
X74945285Y8811766D02*
G01*
X75041981Y8792532D01*
X75224151Y8717074D01*
X75388100Y8607527D01*
X75527527Y8468100D01*
X75637074Y8304151D01*
X75712532Y8121981D01*
X75751000Y7928590D01*
X75751000Y7731410D01*
X75712532Y7538019D01*
X75637074Y7355849D01*
X75527527Y7191900D01*
X75388100Y7052473D01*
X75224151Y6942926D01*
X75041981Y6867468D01*
X74848591Y6829000D01*
X74651409Y6829000D01*
X74458019Y6867468D01*
X74275849Y6942926D01*
X74111900Y7052473D01*
X73972473Y7191900D01*
X73862926Y7355849D01*
X73787468Y7538019D01*
X73749000Y7731410D01*
X73749000Y7928590D01*
X73787468Y8121981D01*
X73862926Y8304151D01*
X73972473Y8468100D01*
X74111900Y8607527D01*
X74275849Y8717074D01*
X74458019Y8792532D01*
X74554715Y8811766D01*
X74651409Y8831000D01*
X74848591Y8831000D01*
X74945285Y8811766D01*
G37*
G36*
X25445285Y8811766D02*
G01*
X25541981Y8792532D01*
X25724151Y8717074D01*
X25888100Y8607527D01*
X26027527Y8468100D01*
X26137074Y8304151D01*
X26212532Y8121981D01*
X26251000Y7928590D01*
X26251000Y7731410D01*
X26212532Y7538019D01*
X26137074Y7355849D01*
X26027527Y7191900D01*
X25888100Y7052473D01*
X25724151Y6942926D01*
X25541981Y6867468D01*
X25348591Y6829000D01*
X25151409Y6829000D01*
X24958019Y6867468D01*
X24775849Y6942926D01*
X24611900Y7052473D01*
X24472473Y7191900D01*
X24362926Y7355849D01*
X24287468Y7538019D01*
X24249000Y7731410D01*
X24249000Y7928590D01*
X24287468Y8121981D01*
X24362926Y8304151D01*
X24472473Y8468100D01*
X24611900Y8607527D01*
X24775849Y8717074D01*
X24958019Y8792532D01*
X25054715Y8811766D01*
X25151409Y8831000D01*
X25348591Y8831000D01*
X25445285Y8811766D01*
G37*
G36*
X58445285Y8811766D02*
G01*
X58541981Y8792532D01*
X58724151Y8717074D01*
X58888100Y8607527D01*
X59027527Y8468100D01*
X59137074Y8304151D01*
X59212532Y8121981D01*
X59251000Y7928590D01*
X59251000Y7731410D01*
X59212532Y7538019D01*
X59137074Y7355849D01*
X59027527Y7191900D01*
X58888100Y7052473D01*
X58724151Y6942926D01*
X58541981Y6867468D01*
X58348591Y6829000D01*
X58151409Y6829000D01*
X57958019Y6867468D01*
X57775849Y6942926D01*
X57611900Y7052473D01*
X57472473Y7191900D01*
X57362926Y7355849D01*
X57287468Y7538019D01*
X57249000Y7731410D01*
X57249000Y7928590D01*
X57287468Y8121981D01*
X57362926Y8304151D01*
X57472473Y8468100D01*
X57611900Y8607527D01*
X57775849Y8717074D01*
X57958019Y8792532D01*
X58054715Y8811766D01*
X58151409Y8831000D01*
X58348591Y8831000D01*
X58445285Y8811766D01*
G37*
G36*
X46634473Y9394062D02*
G01*
X46762049Y9341218D01*
X46876859Y9264505D01*
X46974505Y9166859D01*
X47051218Y9052049D01*
X47104062Y8924473D01*
X47131000Y8789044D01*
X47131000Y8650956D01*
X47104062Y8515527D01*
X47051218Y8387951D01*
X46974505Y8273141D01*
X46876859Y8175495D01*
X46762049Y8098782D01*
X46634473Y8045938D01*
X46499044Y8019000D01*
X46360956Y8019000D01*
X46225527Y8045938D01*
X46097951Y8098782D01*
X45983141Y8175495D01*
X45885495Y8273141D01*
X45808782Y8387951D01*
X45755938Y8515527D01*
X45729000Y8650956D01*
X45729000Y8789044D01*
X45755938Y8924473D01*
X45808782Y9052049D01*
X45885495Y9166859D01*
X45983141Y9264505D01*
X46097951Y9341218D01*
X46225527Y9394062D01*
X46360956Y9421000D01*
X46499044Y9421000D01*
X46634473Y9394062D01*
G37*
G36*
X50714473Y9394062D02*
G01*
X50842049Y9341218D01*
X50956859Y9264505D01*
X51054505Y9166859D01*
X51131218Y9052049D01*
X51184062Y8924473D01*
X51211000Y8789044D01*
X51211000Y8650956D01*
X51184062Y8515527D01*
X51131218Y8387951D01*
X51054505Y8273141D01*
X50956859Y8175495D01*
X50842049Y8098782D01*
X50714473Y8045938D01*
X50579044Y8019000D01*
X50440956Y8019000D01*
X50305527Y8045938D01*
X50177951Y8098782D01*
X50063141Y8175495D01*
X49965495Y8273141D01*
X49888782Y8387951D01*
X49835938Y8515527D01*
X49809000Y8650956D01*
X49809000Y8789044D01*
X49835938Y8924473D01*
X49888782Y9052049D01*
X49965495Y9166859D01*
X50063141Y9264505D01*
X50177951Y9341218D01*
X50305527Y9394062D01*
X50440956Y9421000D01*
X50579044Y9421000D01*
X50714473Y9394062D01*
G37*
G36*
X30134473Y9394062D02*
G01*
X30262049Y9341218D01*
X30376859Y9264505D01*
X30474505Y9166859D01*
X30551218Y9052049D01*
X30604062Y8924473D01*
X30631000Y8789044D01*
X30631000Y8650956D01*
X30604062Y8515527D01*
X30551218Y8387951D01*
X30474505Y8273141D01*
X30376859Y8175495D01*
X30262049Y8098782D01*
X30134473Y8045938D01*
X29999044Y8019000D01*
X29860956Y8019000D01*
X29725527Y8045938D01*
X29597951Y8098782D01*
X29483141Y8175495D01*
X29385495Y8273141D01*
X29308782Y8387951D01*
X29255938Y8515527D01*
X29229000Y8650956D01*
X29229000Y8789044D01*
X29255938Y8924473D01*
X29308782Y9052049D01*
X29385495Y9166859D01*
X29483141Y9264505D01*
X29597951Y9341218D01*
X29725527Y9394062D01*
X29860956Y9421000D01*
X29999044Y9421000D01*
X30134473Y9394062D01*
G37*
G36*
X32174473Y9394062D02*
G01*
X32302049Y9341218D01*
X32416859Y9264505D01*
X32514505Y9166859D01*
X32591218Y9052049D01*
X32644062Y8924473D01*
X32671000Y8789044D01*
X32671000Y8650956D01*
X32644062Y8515527D01*
X32591218Y8387951D01*
X32514505Y8273141D01*
X32416859Y8175495D01*
X32302049Y8098782D01*
X32174473Y8045938D01*
X32039044Y8019000D01*
X31900956Y8019000D01*
X31765527Y8045938D01*
X31637951Y8098782D01*
X31523141Y8175495D01*
X31425495Y8273141D01*
X31348782Y8387951D01*
X31295938Y8515527D01*
X31269000Y8650956D01*
X31269000Y8789044D01*
X31295938Y8924473D01*
X31348782Y9052049D01*
X31425495Y9166859D01*
X31523141Y9264505D01*
X31637951Y9341218D01*
X31765527Y9394062D01*
X31900956Y9421000D01*
X32039044Y9421000D01*
X32174473Y9394062D01*
G37*
G36*
X15674473Y9394062D02*
G01*
X15802049Y9341218D01*
X15916859Y9264505D01*
X16014505Y9166859D01*
X16091218Y9052049D01*
X16144062Y8924473D01*
X16171000Y8789044D01*
X16171000Y8650956D01*
X16144062Y8515527D01*
X16091218Y8387951D01*
X16014505Y8273141D01*
X15916859Y8175495D01*
X15802049Y8098782D01*
X15674473Y8045938D01*
X15539044Y8019000D01*
X15400956Y8019000D01*
X15265527Y8045938D01*
X15137951Y8098782D01*
X15023141Y8175495D01*
X14925495Y8273141D01*
X14848782Y8387951D01*
X14795938Y8515527D01*
X14769000Y8650956D01*
X14769000Y8789044D01*
X14795938Y8924473D01*
X14848782Y9052049D01*
X14925495Y9166859D01*
X15023141Y9264505D01*
X15137951Y9341218D01*
X15265527Y9394062D01*
X15400956Y9421000D01*
X15539044Y9421000D01*
X15674473Y9394062D01*
G37*
G36*
X34214473Y9394062D02*
G01*
X34342049Y9341218D01*
X34456859Y9264505D01*
X34554505Y9166859D01*
X34631218Y9052049D01*
X34684062Y8924473D01*
X34711000Y8789044D01*
X34711000Y8650956D01*
X34684062Y8515527D01*
X34631218Y8387951D01*
X34554505Y8273141D01*
X34456859Y8175495D01*
X34342049Y8098782D01*
X34214473Y8045938D01*
X34079044Y8019000D01*
X33940956Y8019000D01*
X33805527Y8045938D01*
X33677951Y8098782D01*
X33563141Y8175495D01*
X33465495Y8273141D01*
X33388782Y8387951D01*
X33335938Y8515527D01*
X33309000Y8650956D01*
X33309000Y8789044D01*
X33335938Y8924473D01*
X33388782Y9052049D01*
X33465495Y9166859D01*
X33563141Y9264505D01*
X33677951Y9341218D01*
X33805527Y9394062D01*
X33940956Y9421000D01*
X34079044Y9421000D01*
X34214473Y9394062D01*
G37*
G36*
X36254473Y9394062D02*
G01*
X36382049Y9341218D01*
X36496859Y9264505D01*
X36594505Y9166859D01*
X36671218Y9052049D01*
X36724062Y8924473D01*
X36751000Y8789044D01*
X36751000Y8650956D01*
X36724062Y8515527D01*
X36671218Y8387951D01*
X36594505Y8273141D01*
X36496859Y8175495D01*
X36382049Y8098782D01*
X36254473Y8045938D01*
X36119044Y8019000D01*
X35980956Y8019000D01*
X35845527Y8045938D01*
X35717951Y8098782D01*
X35603141Y8175495D01*
X35505495Y8273141D01*
X35428782Y8387951D01*
X35375938Y8515527D01*
X35349000Y8650956D01*
X35349000Y8789044D01*
X35375938Y8924473D01*
X35428782Y9052049D01*
X35505495Y9166859D01*
X35603141Y9264505D01*
X35717951Y9341218D01*
X35845527Y9394062D01*
X35980956Y9421000D01*
X36119044Y9421000D01*
X36254473Y9394062D01*
G37*
G36*
X52754473Y9394062D02*
G01*
X52882049Y9341218D01*
X52996859Y9264505D01*
X53094505Y9166859D01*
X53171218Y9052049D01*
X53224062Y8924473D01*
X53251000Y8789044D01*
X53251000Y8650956D01*
X53224062Y8515527D01*
X53171218Y8387951D01*
X53094505Y8273141D01*
X52996859Y8175495D01*
X52882049Y8098782D01*
X52754473Y8045938D01*
X52619044Y8019000D01*
X52480956Y8019000D01*
X52345527Y8045938D01*
X52217951Y8098782D01*
X52103141Y8175495D01*
X52005495Y8273141D01*
X51928782Y8387951D01*
X51875938Y8515527D01*
X51849000Y8650956D01*
X51849000Y8789044D01*
X51875938Y8924473D01*
X51928782Y9052049D01*
X52005495Y9166859D01*
X52103141Y9264505D01*
X52217951Y9341218D01*
X52345527Y9394062D01*
X52480956Y9421000D01*
X52619044Y9421000D01*
X52754473Y9394062D01*
G37*
G36*
X63134473Y9394062D02*
G01*
X63262049Y9341218D01*
X63376859Y9264505D01*
X63474505Y9166859D01*
X63551218Y9052049D01*
X63604062Y8924473D01*
X63631000Y8789044D01*
X63631000Y8650956D01*
X63604062Y8515527D01*
X63551218Y8387951D01*
X63474505Y8273141D01*
X63376859Y8175495D01*
X63262049Y8098782D01*
X63134473Y8045938D01*
X62999044Y8019000D01*
X62860956Y8019000D01*
X62725527Y8045938D01*
X62597951Y8098782D01*
X62483141Y8175495D01*
X62385495Y8273141D01*
X62308782Y8387951D01*
X62255938Y8515527D01*
X62229000Y8650956D01*
X62229000Y8789044D01*
X62255938Y8924473D01*
X62308782Y9052049D01*
X62385495Y9166859D01*
X62483141Y9264505D01*
X62597951Y9341218D01*
X62725527Y9394062D01*
X62860956Y9421000D01*
X62999044Y9421000D01*
X63134473Y9394062D01*
G37*
G36*
X13634473Y9394062D02*
G01*
X13762049Y9341218D01*
X13876859Y9264505D01*
X13974505Y9166859D01*
X14051218Y9052049D01*
X14104062Y8924473D01*
X14131000Y8789044D01*
X14131000Y8650956D01*
X14104062Y8515527D01*
X14051218Y8387951D01*
X13974505Y8273141D01*
X13876859Y8175495D01*
X13762049Y8098782D01*
X13634473Y8045938D01*
X13499044Y8019000D01*
X13360956Y8019000D01*
X13225527Y8045938D01*
X13097951Y8098782D01*
X12983141Y8175495D01*
X12885495Y8273141D01*
X12808782Y8387951D01*
X12755938Y8515527D01*
X12729000Y8650956D01*
X12729000Y8789044D01*
X12755938Y8924473D01*
X12808782Y9052049D01*
X12885495Y9166859D01*
X12983141Y9264505D01*
X13097951Y9341218D01*
X13225527Y9394062D01*
X13360956Y9421000D01*
X13499044Y9421000D01*
X13634473Y9394062D01*
G37*
G36*
X65174473Y9394062D02*
G01*
X65302049Y9341218D01*
X65416859Y9264505D01*
X65514505Y9166859D01*
X65591218Y9052049D01*
X65644062Y8924473D01*
X65671000Y8789044D01*
X65671000Y8650956D01*
X65644062Y8515527D01*
X65591218Y8387951D01*
X65514505Y8273141D01*
X65416859Y8175495D01*
X65302049Y8098782D01*
X65174473Y8045938D01*
X65039044Y8019000D01*
X64900956Y8019000D01*
X64765527Y8045938D01*
X64637951Y8098782D01*
X64523141Y8175495D01*
X64425495Y8273141D01*
X64348782Y8387951D01*
X64295938Y8515527D01*
X64269000Y8650956D01*
X64269000Y8789044D01*
X64295938Y8924473D01*
X64348782Y9052049D01*
X64425495Y9166859D01*
X64523141Y9264505D01*
X64637951Y9341218D01*
X64765527Y9394062D01*
X64900956Y9421000D01*
X65039044Y9421000D01*
X65174473Y9394062D01*
G37*
G36*
X19754473Y9394062D02*
G01*
X19882049Y9341218D01*
X19996859Y9264505D01*
X20094505Y9166859D01*
X20171218Y9052049D01*
X20224062Y8924473D01*
X20251000Y8789044D01*
X20251000Y8650956D01*
X20224062Y8515527D01*
X20171218Y8387951D01*
X20094505Y8273141D01*
X19996859Y8175495D01*
X19882049Y8098782D01*
X19754473Y8045938D01*
X19619044Y8019000D01*
X19480956Y8019000D01*
X19345527Y8045938D01*
X19217951Y8098782D01*
X19103141Y8175495D01*
X19005495Y8273141D01*
X18928782Y8387951D01*
X18875938Y8515527D01*
X18849000Y8650956D01*
X18849000Y8789044D01*
X18875938Y8924473D01*
X18928782Y9052049D01*
X19005495Y9166859D01*
X19103141Y9264505D01*
X19217951Y9341218D01*
X19345527Y9394062D01*
X19480956Y9421000D01*
X19619044Y9421000D01*
X19754473Y9394062D01*
G37*
G36*
X69254473Y9394062D02*
G01*
X69382049Y9341218D01*
X69496859Y9264505D01*
X69594505Y9166859D01*
X69671218Y9052049D01*
X69724062Y8924473D01*
X69751000Y8789044D01*
X69751000Y8650956D01*
X69724062Y8515527D01*
X69671218Y8387951D01*
X69594505Y8273141D01*
X69496859Y8175495D01*
X69382049Y8098782D01*
X69254473Y8045938D01*
X69119044Y8019000D01*
X68980956Y8019000D01*
X68845527Y8045938D01*
X68717951Y8098782D01*
X68603141Y8175495D01*
X68505495Y8273141D01*
X68428782Y8387951D01*
X68375938Y8515527D01*
X68349000Y8650956D01*
X68349000Y8789044D01*
X68375938Y8924473D01*
X68428782Y9052049D01*
X68505495Y9166859D01*
X68603141Y9264505D01*
X68717951Y9341218D01*
X68845527Y9394062D01*
X68980956Y9421000D01*
X69119044Y9421000D01*
X69254473Y9394062D01*
G37*
G36*
X67214473Y9394062D02*
G01*
X67342049Y9341218D01*
X67456859Y9264505D01*
X67554505Y9166859D01*
X67631218Y9052049D01*
X67684062Y8924473D01*
X67711000Y8789044D01*
X67711000Y8650956D01*
X67684062Y8515527D01*
X67631218Y8387951D01*
X67554505Y8273141D01*
X67456859Y8175495D01*
X67342049Y8098782D01*
X67214473Y8045938D01*
X67079044Y8019000D01*
X66940956Y8019000D01*
X66805527Y8045938D01*
X66677951Y8098782D01*
X66563141Y8175495D01*
X66465495Y8273141D01*
X66388782Y8387951D01*
X66335938Y8515527D01*
X66309000Y8650956D01*
X66309000Y8789044D01*
X66335938Y8924473D01*
X66388782Y9052049D01*
X66465495Y9166859D01*
X66563141Y9264505D01*
X66677951Y9341218D01*
X66805527Y9394062D01*
X66940956Y9421000D01*
X67079044Y9421000D01*
X67214473Y9394062D01*
G37*
G36*
X17714473Y9394062D02*
G01*
X17842049Y9341218D01*
X17956859Y9264505D01*
X18054505Y9166859D01*
X18131218Y9052049D01*
X18184062Y8924473D01*
X18211000Y8789044D01*
X18211000Y8650956D01*
X18184062Y8515527D01*
X18131218Y8387951D01*
X18054505Y8273141D01*
X17956859Y8175495D01*
X17842049Y8098782D01*
X17714473Y8045938D01*
X17579044Y8019000D01*
X17440956Y8019000D01*
X17305527Y8045938D01*
X17177951Y8098782D01*
X17063141Y8175495D01*
X16965495Y8273141D01*
X16888782Y8387951D01*
X16835938Y8515527D01*
X16809000Y8650956D01*
X16809000Y8789044D01*
X16835938Y8924473D01*
X16888782Y9052049D01*
X16965495Y9166859D01*
X17063141Y9264505D01*
X17177951Y9341218D01*
X17305527Y9394062D01*
X17440956Y9421000D01*
X17579044Y9421000D01*
X17714473Y9394062D01*
G37*
G36*
X48674473Y9394062D02*
G01*
X48802049Y9341218D01*
X48916859Y9264505D01*
X49014505Y9166859D01*
X49091218Y9052049D01*
X49144062Y8924473D01*
X49171000Y8789044D01*
X49171000Y8650956D01*
X49144062Y8515527D01*
X49091218Y8387951D01*
X49014505Y8273141D01*
X48916859Y8175495D01*
X48802049Y8098782D01*
X48674473Y8045938D01*
X48539044Y8019000D01*
X48400956Y8019000D01*
X48265527Y8045938D01*
X48137951Y8098782D01*
X48023141Y8175495D01*
X47925495Y8273141D01*
X47848782Y8387951D01*
X47795938Y8515527D01*
X47769000Y8650956D01*
X47769000Y8789044D01*
X47795938Y8924473D01*
X47848782Y9052049D01*
X47925495Y9166859D01*
X48023141Y9264505D01*
X48137951Y9341218D01*
X48265527Y9394062D01*
X48400956Y9421000D01*
X48539044Y9421000D01*
X48674473Y9394062D01*
G37*
G36*
X12634473Y14254062D02*
G01*
X12762049Y14201218D01*
X12876859Y14124505D01*
X12974505Y14026859D01*
X13051218Y13912049D01*
X13104062Y13784473D01*
X13131000Y13649044D01*
X13131000Y13510956D01*
X13104062Y13375527D01*
X13051218Y13247951D01*
X12974505Y13133141D01*
X12876859Y13035495D01*
X12762049Y12958782D01*
X12634473Y12905938D01*
X12499044Y12879000D01*
X12360956Y12879000D01*
X12225527Y12905938D01*
X12097951Y12958782D01*
X11983141Y13035495D01*
X11885495Y13133141D01*
X11808782Y13247951D01*
X11755938Y13375527D01*
X11729000Y13510956D01*
X11729000Y13649044D01*
X11755938Y13784473D01*
X11808782Y13912049D01*
X11885495Y14026859D01*
X11983141Y14124505D01*
X12097951Y14201218D01*
X12225527Y14254062D01*
X12360956Y14281000D01*
X12499044Y14281000D01*
X12634473Y14254062D01*
G37*
G36*
X45634473Y14254062D02*
G01*
X45762049Y14201218D01*
X45876859Y14124505D01*
X45974505Y14026859D01*
X46051218Y13912049D01*
X46104062Y13784473D01*
X46131000Y13649044D01*
X46131000Y13510956D01*
X46104062Y13375527D01*
X46051218Y13247951D01*
X45974505Y13133141D01*
X45876859Y13035495D01*
X45762049Y12958782D01*
X45634473Y12905938D01*
X45499044Y12879000D01*
X45360956Y12879000D01*
X45225527Y12905938D01*
X45097951Y12958782D01*
X44983141Y13035495D01*
X44885495Y13133141D01*
X44808782Y13247951D01*
X44755938Y13375527D01*
X44729000Y13510956D01*
X44729000Y13649044D01*
X44755938Y13784473D01*
X44808782Y13912049D01*
X44885495Y14026859D01*
X44983141Y14124505D01*
X45097951Y14201218D01*
X45225527Y14254062D01*
X45360956Y14281000D01*
X45499044Y14281000D01*
X45634473Y14254062D01*
G37*
G36*
X43344473Y14254062D02*
G01*
X43472049Y14201218D01*
X43586859Y14124505D01*
X43684505Y14026859D01*
X43761218Y13912049D01*
X43814062Y13784473D01*
X43841000Y13649044D01*
X43841000Y13510956D01*
X43814062Y13375527D01*
X43761218Y13247951D01*
X43684505Y13133141D01*
X43586859Y13035495D01*
X43472049Y12958782D01*
X43344473Y12905938D01*
X43209044Y12879000D01*
X43070956Y12879000D01*
X42935527Y12905938D01*
X42807951Y12958782D01*
X42693141Y13035495D01*
X42595495Y13133141D01*
X42518782Y13247951D01*
X42465938Y13375527D01*
X42439000Y13510956D01*
X42439000Y13649044D01*
X42465938Y13784473D01*
X42518782Y13912049D01*
X42595495Y14026859D01*
X42693141Y14124505D01*
X42807951Y14201218D01*
X42935527Y14254062D01*
X43070956Y14281000D01*
X43209044Y14281000D01*
X43344473Y14254062D01*
G37*
G36*
X40564473Y14254062D02*
G01*
X40692049Y14201218D01*
X40806859Y14124505D01*
X40904505Y14026859D01*
X40981218Y13912049D01*
X41034062Y13784473D01*
X41061000Y13649044D01*
X41061000Y13510956D01*
X41034062Y13375527D01*
X40981218Y13247951D01*
X40904505Y13133141D01*
X40806859Y13035495D01*
X40692049Y12958782D01*
X40564473Y12905938D01*
X40429044Y12879000D01*
X40290956Y12879000D01*
X40155527Y12905938D01*
X40027951Y12958782D01*
X39913141Y13035495D01*
X39815495Y13133141D01*
X39738782Y13247951D01*
X39685938Y13375527D01*
X39659000Y13510956D01*
X39659000Y13649044D01*
X39685938Y13784473D01*
X39738782Y13912049D01*
X39815495Y14026859D01*
X39913141Y14124505D01*
X40027951Y14201218D01*
X40155527Y14254062D01*
X40290956Y14281000D01*
X40429044Y14281000D01*
X40564473Y14254062D01*
G37*
G36*
X38274473Y14254062D02*
G01*
X38402049Y14201218D01*
X38516859Y14124505D01*
X38614505Y14026859D01*
X38691218Y13912049D01*
X38744062Y13784473D01*
X38771000Y13649044D01*
X38771000Y13510956D01*
X38744062Y13375527D01*
X38691218Y13247951D01*
X38614505Y13133141D01*
X38516859Y13035495D01*
X38402049Y12958782D01*
X38274473Y12905938D01*
X38139044Y12879000D01*
X38000956Y12879000D01*
X37865527Y12905938D01*
X37737951Y12958782D01*
X37623141Y13035495D01*
X37525495Y13133141D01*
X37448782Y13247951D01*
X37395938Y13375527D01*
X37369000Y13510956D01*
X37369000Y13649044D01*
X37395938Y13784473D01*
X37448782Y13912049D01*
X37525495Y14026859D01*
X37623141Y14124505D01*
X37737951Y14201218D01*
X37865527Y14254062D01*
X38000956Y14281000D01*
X38139044Y14281000D01*
X38274473Y14254062D01*
G37*
G36*
X29134473Y14254062D02*
G01*
X29262049Y14201218D01*
X29376859Y14124505D01*
X29474505Y14026859D01*
X29551218Y13912049D01*
X29604062Y13784473D01*
X29631000Y13649044D01*
X29631000Y13510956D01*
X29604062Y13375527D01*
X29551218Y13247951D01*
X29474505Y13133141D01*
X29376859Y13035495D01*
X29262049Y12958782D01*
X29134473Y12905938D01*
X28999044Y12879000D01*
X28860956Y12879000D01*
X28725527Y12905938D01*
X28597951Y12958782D01*
X28483141Y13035495D01*
X28385495Y13133141D01*
X28308782Y13247951D01*
X28255938Y13375527D01*
X28229000Y13510956D01*
X28229000Y13649044D01*
X28255938Y13784473D01*
X28308782Y13912049D01*
X28385495Y14026859D01*
X28483141Y14124505D01*
X28597951Y14201218D01*
X28725527Y14254062D01*
X28860956Y14281000D01*
X28999044Y14281000D01*
X29134473Y14254062D01*
G37*
G36*
X26844473Y14254062D02*
G01*
X26972049Y14201218D01*
X27086859Y14124505D01*
X27184505Y14026859D01*
X27261218Y13912049D01*
X27314062Y13784473D01*
X27341000Y13649044D01*
X27341000Y13510956D01*
X27314062Y13375527D01*
X27261218Y13247951D01*
X27184505Y13133141D01*
X27086859Y13035495D01*
X26972049Y12958782D01*
X26844473Y12905938D01*
X26709044Y12879000D01*
X26570956Y12879000D01*
X26435527Y12905938D01*
X26307951Y12958782D01*
X26193141Y13035495D01*
X26095495Y13133141D01*
X26018782Y13247951D01*
X25965938Y13375527D01*
X25939000Y13510956D01*
X25939000Y13649044D01*
X25965938Y13784473D01*
X26018782Y13912049D01*
X26095495Y14026859D01*
X26193141Y14124505D01*
X26307951Y14201218D01*
X26435527Y14254062D01*
X26570956Y14281000D01*
X26709044Y14281000D01*
X26844473Y14254062D01*
G37*
G36*
X71274473Y14254062D02*
G01*
X71402049Y14201218D01*
X71516859Y14124505D01*
X71614505Y14026859D01*
X71691218Y13912049D01*
X71744062Y13784473D01*
X71771000Y13649044D01*
X71771000Y13510956D01*
X71744062Y13375527D01*
X71691218Y13247951D01*
X71614505Y13133141D01*
X71516859Y13035495D01*
X71402049Y12958782D01*
X71274473Y12905938D01*
X71139044Y12879000D01*
X71000956Y12879000D01*
X70865527Y12905938D01*
X70737951Y12958782D01*
X70623141Y13035495D01*
X70525495Y13133141D01*
X70448782Y13247951D01*
X70395938Y13375527D01*
X70369000Y13510956D01*
X70369000Y13649044D01*
X70395938Y13784473D01*
X70448782Y13912049D01*
X70525495Y14026859D01*
X70623141Y14124505D01*
X70737951Y14201218D01*
X70865527Y14254062D01*
X71000956Y14281000D01*
X71139044Y14281000D01*
X71274473Y14254062D01*
G37*
G36*
X62134473Y14254062D02*
G01*
X62262049Y14201218D01*
X62376859Y14124505D01*
X62474505Y14026859D01*
X62551218Y13912049D01*
X62604062Y13784473D01*
X62631000Y13649044D01*
X62631000Y13510956D01*
X62604062Y13375527D01*
X62551218Y13247951D01*
X62474505Y13133141D01*
X62376859Y13035495D01*
X62262049Y12958782D01*
X62134473Y12905938D01*
X61999044Y12879000D01*
X61860956Y12879000D01*
X61725527Y12905938D01*
X61597951Y12958782D01*
X61483141Y13035495D01*
X61385495Y13133141D01*
X61308782Y13247951D01*
X61255938Y13375527D01*
X61229000Y13510956D01*
X61229000Y13649044D01*
X61255938Y13784473D01*
X61308782Y13912049D01*
X61385495Y14026859D01*
X61483141Y14124505D01*
X61597951Y14201218D01*
X61725527Y14254062D01*
X61860956Y14281000D01*
X61999044Y14281000D01*
X62134473Y14254062D01*
G37*
G36*
X59844473Y14254062D02*
G01*
X59972049Y14201218D01*
X60086859Y14124505D01*
X60184505Y14026859D01*
X60261218Y13912049D01*
X60314062Y13784473D01*
X60341000Y13649044D01*
X60341000Y13510956D01*
X60314062Y13375527D01*
X60261218Y13247951D01*
X60184505Y13133141D01*
X60086859Y13035495D01*
X59972049Y12958782D01*
X59844473Y12905938D01*
X59709044Y12879000D01*
X59570956Y12879000D01*
X59435527Y12905938D01*
X59307951Y12958782D01*
X59193141Y13035495D01*
X59095495Y13133141D01*
X59018782Y13247951D01*
X58965938Y13375527D01*
X58939000Y13510956D01*
X58939000Y13649044D01*
X58965938Y13784473D01*
X59018782Y13912049D01*
X59095495Y14026859D01*
X59193141Y14124505D01*
X59307951Y14201218D01*
X59435527Y14254062D01*
X59570956Y14281000D01*
X59709044Y14281000D01*
X59844473Y14254062D01*
G37*
G36*
X57064473Y14254062D02*
G01*
X57192049Y14201218D01*
X57306859Y14124505D01*
X57404505Y14026859D01*
X57481218Y13912049D01*
X57534062Y13784473D01*
X57561000Y13649044D01*
X57561000Y13510956D01*
X57534062Y13375527D01*
X57481218Y13247951D01*
X57404505Y13133141D01*
X57306859Y13035495D01*
X57192049Y12958782D01*
X57064473Y12905938D01*
X56929044Y12879000D01*
X56790956Y12879000D01*
X56655527Y12905938D01*
X56527951Y12958782D01*
X56413141Y13035495D01*
X56315495Y13133141D01*
X56238782Y13247951D01*
X56185938Y13375527D01*
X56159000Y13510956D01*
X56159000Y13649044D01*
X56185938Y13784473D01*
X56238782Y13912049D01*
X56315495Y14026859D01*
X56413141Y14124505D01*
X56527951Y14201218D01*
X56655527Y14254062D01*
X56790956Y14281000D01*
X56929044Y14281000D01*
X57064473Y14254062D01*
G37*
G36*
X54774473Y14254062D02*
G01*
X54902049Y14201218D01*
X55016859Y14124505D01*
X55114505Y14026859D01*
X55191218Y13912049D01*
X55244062Y13784473D01*
X55271000Y13649044D01*
X55271000Y13510956D01*
X55244062Y13375527D01*
X55191218Y13247951D01*
X55114505Y13133141D01*
X55016859Y13035495D01*
X54902049Y12958782D01*
X54774473Y12905938D01*
X54639044Y12879000D01*
X54500956Y12879000D01*
X54365527Y12905938D01*
X54237951Y12958782D01*
X54123141Y13035495D01*
X54025495Y13133141D01*
X53948782Y13247951D01*
X53895938Y13375527D01*
X53869000Y13510956D01*
X53869000Y13649044D01*
X53895938Y13784473D01*
X53948782Y13912049D01*
X54025495Y14026859D01*
X54123141Y14124505D01*
X54237951Y14201218D01*
X54365527Y14254062D01*
X54500956Y14281000D01*
X54639044Y14281000D01*
X54774473Y14254062D01*
G37*
G36*
X21774473Y14254062D02*
G01*
X21902049Y14201218D01*
X22016859Y14124505D01*
X22114505Y14026859D01*
X22191218Y13912049D01*
X22244062Y13784473D01*
X22271000Y13649044D01*
X22271000Y13510956D01*
X22244062Y13375527D01*
X22191218Y13247951D01*
X22114505Y13133141D01*
X22016859Y13035495D01*
X21902049Y12958782D01*
X21774473Y12905938D01*
X21639044Y12879000D01*
X21500956Y12879000D01*
X21365527Y12905938D01*
X21237951Y12958782D01*
X21123141Y13035495D01*
X21025495Y13133141D01*
X20948782Y13247951D01*
X20895938Y13375527D01*
X20869000Y13510956D01*
X20869000Y13649044D01*
X20895938Y13784473D01*
X20948782Y13912049D01*
X21025495Y14026859D01*
X21123141Y14124505D01*
X21237951Y14201218D01*
X21365527Y14254062D01*
X21500956Y14281000D01*
X21639044Y14281000D01*
X21774473Y14254062D01*
G37*
G36*
X73564473Y14254062D02*
G01*
X73692049Y14201218D01*
X73806859Y14124505D01*
X73904505Y14026859D01*
X73981218Y13912049D01*
X74034062Y13784473D01*
X74061000Y13649044D01*
X74061000Y13510956D01*
X74034062Y13375527D01*
X73981218Y13247951D01*
X73904505Y13133141D01*
X73806859Y13035495D01*
X73692049Y12958782D01*
X73564473Y12905938D01*
X73429044Y12879000D01*
X73290956Y12879000D01*
X73155527Y12905938D01*
X73027951Y12958782D01*
X72913141Y13035495D01*
X72815495Y13133141D01*
X72738782Y13247951D01*
X72685938Y13375527D01*
X72659000Y13510956D01*
X72659000Y13649044D01*
X72685938Y13784473D01*
X72738782Y13912049D01*
X72815495Y14026859D01*
X72913141Y14124505D01*
X73027951Y14201218D01*
X73155527Y14254062D01*
X73290956Y14281000D01*
X73429044Y14281000D01*
X73564473Y14254062D01*
G37*
G36*
X10344473Y14254062D02*
G01*
X10472049Y14201218D01*
X10586859Y14124505D01*
X10684505Y14026859D01*
X10761218Y13912049D01*
X10814062Y13784473D01*
X10841000Y13649044D01*
X10841000Y13510956D01*
X10814062Y13375527D01*
X10761218Y13247951D01*
X10684505Y13133141D01*
X10586859Y13035495D01*
X10472049Y12958782D01*
X10344473Y12905938D01*
X10209044Y12879000D01*
X10070956Y12879000D01*
X9935527Y12905938D01*
X9807951Y12958782D01*
X9693141Y13035495D01*
X9595495Y13133141D01*
X9518782Y13247951D01*
X9465938Y13375527D01*
X9439000Y13510956D01*
X9439000Y13649044D01*
X9465938Y13784473D01*
X9518782Y13912049D01*
X9595495Y14026859D01*
X9693141Y14124505D01*
X9807951Y14201218D01*
X9935527Y14254062D01*
X10070956Y14281000D01*
X10209044Y14281000D01*
X10344473Y14254062D01*
G37*
G36*
X24064473Y14254062D02*
G01*
X24192049Y14201218D01*
X24306859Y14124505D01*
X24404505Y14026859D01*
X24481218Y13912049D01*
X24534062Y13784473D01*
X24561000Y13649044D01*
X24561000Y13510956D01*
X24534062Y13375527D01*
X24481218Y13247951D01*
X24404505Y13133141D01*
X24306859Y13035495D01*
X24192049Y12958782D01*
X24064473Y12905938D01*
X23929044Y12879000D01*
X23790956Y12879000D01*
X23655527Y12905938D01*
X23527951Y12958782D01*
X23413141Y13035495D01*
X23315495Y13133141D01*
X23238782Y13247951D01*
X23185938Y13375527D01*
X23159000Y13510956D01*
X23159000Y13649044D01*
X23185938Y13784473D01*
X23238782Y13912049D01*
X23315495Y14026859D01*
X23413141Y14124505D01*
X23527951Y14201218D01*
X23655527Y14254062D01*
X23790956Y14281000D01*
X23929044Y14281000D01*
X24064473Y14254062D01*
G37*
G36*
X79266778Y18019453D02*
G01*
X79433224Y17950509D01*
X79583022Y17850417D01*
X79710417Y17723022D01*
X79810509Y17573224D01*
X79879453Y17406778D01*
X79914600Y17230082D01*
X79914600Y17049918D01*
X79879453Y16873222D01*
X79810509Y16706776D01*
X79710417Y16556978D01*
X79583022Y16429583D01*
X79433224Y16329491D01*
X79266778Y16260547D01*
X79090082Y16225400D01*
X78909918Y16225400D01*
X78733222Y16260547D01*
X78566776Y16329491D01*
X78416978Y16429583D01*
X78289583Y16556978D01*
X78189491Y16706776D01*
X78120547Y16873222D01*
X78085400Y17049918D01*
X78085400Y17230082D01*
X78120547Y17406778D01*
X78189491Y17573224D01*
X78289583Y17723022D01*
X78416978Y17850417D01*
X78566776Y17950509D01*
X78733222Y18019453D01*
X78909918Y18054600D01*
X79090082Y18054600D01*
X79266778Y18019453D01*
G37*
G36*
X81806778Y18019453D02*
G01*
X81973224Y17950509D01*
X82123022Y17850417D01*
X82250417Y17723022D01*
X82350509Y17573224D01*
X82419453Y17406778D01*
X82454600Y17230082D01*
X82454600Y17049918D01*
X82419453Y16873222D01*
X82350509Y16706776D01*
X82250417Y16556978D01*
X82123022Y16429583D01*
X81973224Y16329491D01*
X81806778Y16260547D01*
X81630082Y16225400D01*
X81449918Y16225400D01*
X81273222Y16260547D01*
X81106776Y16329491D01*
X80956978Y16429583D01*
X80829583Y16556978D01*
X80729491Y16706776D01*
X80660547Y16873222D01*
X80625400Y17049918D01*
X80625400Y17230082D01*
X80660547Y17406778D01*
X80729491Y17573224D01*
X80829583Y17723022D01*
X80956978Y17850417D01*
X81106776Y17950509D01*
X81273222Y18019453D01*
X81449918Y18054600D01*
X81630082Y18054600D01*
X81806778Y18019453D01*
G37*
G36*
X90656301Y22163534D02*
G01*
X91065775Y21993924D01*
X91434292Y21747689D01*
X91747689Y21434292D01*
X91993924Y21065775D01*
X91993925Y21065773D01*
X92163534Y20656300D01*
X92216422Y20390417D01*
X92250000Y20221606D01*
X92250000Y19778394D01*
X92163534Y19343699D01*
X91993924Y18934225D01*
X91747689Y18565708D01*
X91434292Y18252311D01*
X91065775Y18006076D01*
X90656301Y17836466D01*
X90438953Y17793233D01*
X90221607Y17750000D01*
X89778393Y17750000D01*
X89561047Y17793233D01*
X89343699Y17836466D01*
X88934225Y18006076D01*
X88565708Y18252311D01*
X88252311Y18565708D01*
X88006076Y18934225D01*
X87836466Y19343699D01*
X87750000Y19778394D01*
X87750000Y20221606D01*
X87783579Y20390417D01*
X87836466Y20656300D01*
X88006075Y21065773D01*
X88006076Y21065775D01*
X88252311Y21434292D01*
X88565708Y21747689D01*
X88934225Y21993924D01*
X89343699Y22163534D01*
X89778393Y22250000D01*
X90221607Y22250000D01*
X90656301Y22163534D01*
G37*
G36*
X5656301Y22163534D02*
G01*
X6065775Y21993924D01*
X6434292Y21747689D01*
X6747689Y21434292D01*
X6993924Y21065775D01*
X6993925Y21065773D01*
X7163534Y20656300D01*
X7216422Y20390417D01*
X7250000Y20221606D01*
X7250000Y19778394D01*
X7163534Y19343699D01*
X6993924Y18934225D01*
X6747689Y18565708D01*
X6434292Y18252311D01*
X6065775Y18006076D01*
X5656301Y17836466D01*
X5438953Y17793233D01*
X5221607Y17750000D01*
X4778393Y17750000D01*
X4561047Y17793233D01*
X4343699Y17836466D01*
X3934225Y18006076D01*
X3565708Y18252311D01*
X3252311Y18565708D01*
X3006076Y18934225D01*
X2836466Y19343699D01*
X2750000Y19778394D01*
X2750000Y20221606D01*
X2783579Y20390417D01*
X2836466Y20656300D01*
X3006075Y21065773D01*
X3006076Y21065775D01*
X3252311Y21434292D01*
X3565708Y21747689D01*
X3934225Y21993924D01*
X4343699Y22163534D01*
X4778393Y22250000D01*
X5221607Y22250000D01*
X5656301Y22163534D01*
G37*
G36*
X79266778Y20559453D02*
G01*
X79433224Y20490509D01*
X79583022Y20390417D01*
X79710417Y20263022D01*
X79810509Y20113224D01*
X79879453Y19946778D01*
X79914600Y19770082D01*
X79914600Y19589918D01*
X79879453Y19413222D01*
X79810509Y19246776D01*
X79710417Y19096978D01*
X79583022Y18969583D01*
X79433224Y18869491D01*
X79266778Y18800547D01*
X79090082Y18765400D01*
X78909918Y18765400D01*
X78733222Y18800547D01*
X78566776Y18869491D01*
X78416978Y18969583D01*
X78289583Y19096978D01*
X78189491Y19246776D01*
X78120547Y19413222D01*
X78085400Y19589918D01*
X78085400Y19770082D01*
X78120547Y19946778D01*
X78189491Y20113224D01*
X78289583Y20263022D01*
X78416978Y20390417D01*
X78566776Y20490509D01*
X78733222Y20559453D01*
X78909918Y20594600D01*
X79090082Y20594600D01*
X79266778Y20559453D01*
G37*
G36*
X81806778Y20559453D02*
G01*
X81973224Y20490509D01*
X82123022Y20390417D01*
X82250417Y20263022D01*
X82350509Y20113224D01*
X82419453Y19946778D01*
X82454600Y19770082D01*
X82454600Y19589918D01*
X82419453Y19413222D01*
X82350509Y19246776D01*
X82250417Y19096978D01*
X82123022Y18969583D01*
X81973224Y18869491D01*
X81806778Y18800547D01*
X81630082Y18765400D01*
X81449918Y18765400D01*
X81273222Y18800547D01*
X81106776Y18869491D01*
X80956978Y18969583D01*
X80829583Y19096978D01*
X80729491Y19246776D01*
X80660547Y19413222D01*
X80625400Y19589918D01*
X80625400Y19770082D01*
X80660547Y19946778D01*
X80729491Y20113224D01*
X80829583Y20263022D01*
X80956978Y20390417D01*
X81106776Y20490509D01*
X81273222Y20559453D01*
X81449918Y20594600D01*
X81630082Y20594600D01*
X81806778Y20559453D01*
G37*
G36*
X79266778Y23099453D02*
G01*
X79433224Y23030509D01*
X79583022Y22930417D01*
X79710417Y22803022D01*
X79810509Y22653224D01*
X79879453Y22486778D01*
X79914600Y22310082D01*
X79914600Y22129918D01*
X79879453Y21953222D01*
X79810509Y21786776D01*
X79710417Y21636978D01*
X79583022Y21509583D01*
X79433224Y21409491D01*
X79266778Y21340547D01*
X79090082Y21305400D01*
X78909918Y21305400D01*
X78733222Y21340547D01*
X78566776Y21409491D01*
X78416978Y21509583D01*
X78289583Y21636978D01*
X78189491Y21786776D01*
X78120547Y21953222D01*
X78085400Y22129918D01*
X78085400Y22310082D01*
X78120547Y22486778D01*
X78189491Y22653224D01*
X78289583Y22803022D01*
X78416978Y22930417D01*
X78566776Y23030509D01*
X78733222Y23099453D01*
X78909918Y23134600D01*
X79090082Y23134600D01*
X79266778Y23099453D01*
G37*
G36*
X81806778Y23099453D02*
G01*
X81973224Y23030509D01*
X82123022Y22930417D01*
X82250417Y22803022D01*
X82350509Y22653224D01*
X82419453Y22486778D01*
X82454600Y22310082D01*
X82454600Y22129918D01*
X82419453Y21953222D01*
X82350509Y21786776D01*
X82250417Y21636978D01*
X82123022Y21509583D01*
X81973224Y21409491D01*
X81806778Y21340547D01*
X81630082Y21305400D01*
X81449918Y21305400D01*
X81273222Y21340547D01*
X81106776Y21409491D01*
X80956978Y21509583D01*
X80829583Y21636978D01*
X80729491Y21786776D01*
X80660547Y21953222D01*
X80625400Y22129918D01*
X80625400Y22310082D01*
X80660547Y22486778D01*
X80729491Y22653224D01*
X80829583Y22803022D01*
X80956978Y22930417D01*
X81106776Y23030509D01*
X81273222Y23099453D01*
X81449918Y23134600D01*
X81630082Y23134600D01*
X81806778Y23099453D01*
G37*
G36*
X81806778Y25639453D02*
G01*
X81973224Y25570509D01*
X82123022Y25470417D01*
X82250417Y25343022D01*
X82350509Y25193224D01*
X82419453Y25026778D01*
X82454600Y24850082D01*
X82454600Y24669918D01*
X82419453Y24493222D01*
X82350509Y24326776D01*
X82250417Y24176978D01*
X82123022Y24049583D01*
X81973224Y23949491D01*
X81806778Y23880547D01*
X81630082Y23845400D01*
X81449918Y23845400D01*
X81273222Y23880547D01*
X81106776Y23949491D01*
X80956978Y24049583D01*
X80829583Y24176978D01*
X80729491Y24326776D01*
X80660547Y24493222D01*
X80625400Y24669918D01*
X80625400Y24850082D01*
X80660547Y25026778D01*
X80729491Y25193224D01*
X80829583Y25343022D01*
X80956978Y25470417D01*
X81106776Y25570509D01*
X81273222Y25639453D01*
X81449918Y25674600D01*
X81630082Y25674600D01*
X81806778Y25639453D01*
G37*
G36*
X79266778Y25639453D02*
G01*
X79433224Y25570509D01*
X79583022Y25470417D01*
X79710417Y25343022D01*
X79810509Y25193224D01*
X79879453Y25026778D01*
X79914600Y24850082D01*
X79914600Y24669918D01*
X79879453Y24493222D01*
X79810509Y24326776D01*
X79710417Y24176978D01*
X79583022Y24049583D01*
X79433224Y23949491D01*
X79266778Y23880547D01*
X79090082Y23845400D01*
X78909918Y23845400D01*
X78733222Y23880547D01*
X78566776Y23949491D01*
X78416978Y24049583D01*
X78289583Y24176978D01*
X78189491Y24326776D01*
X78120547Y24493222D01*
X78085400Y24669918D01*
X78085400Y24850082D01*
X78120547Y25026778D01*
X78189491Y25193224D01*
X78289583Y25343022D01*
X78416978Y25470417D01*
X78566776Y25570509D01*
X78733222Y25639453D01*
X78909918Y25674600D01*
X79090082Y25674600D01*
X79266778Y25639453D01*
G37*
G36*
X79266778Y28179453D02*
G01*
X79433224Y28110509D01*
X79583022Y28010417D01*
X79710417Y27883022D01*
X79810509Y27733224D01*
X79879453Y27566778D01*
X79914600Y27390082D01*
X79914600Y27209918D01*
X79879453Y27033222D01*
X79810509Y26866776D01*
X79710417Y26716978D01*
X79583022Y26589583D01*
X79433224Y26489491D01*
X79266778Y26420547D01*
X79090082Y26385400D01*
X78909918Y26385400D01*
X78733222Y26420547D01*
X78566776Y26489491D01*
X78416978Y26589583D01*
X78289583Y26716978D01*
X78189491Y26866776D01*
X78120547Y27033222D01*
X78085400Y27209918D01*
X78085400Y27390082D01*
X78120547Y27566778D01*
X78189491Y27733224D01*
X78289583Y27883022D01*
X78416978Y28010417D01*
X78566776Y28110509D01*
X78733222Y28179453D01*
X78909918Y28214600D01*
X79090082Y28214600D01*
X79266778Y28179453D01*
G37*
G36*
X81806778Y28179453D02*
G01*
X81973224Y28110509D01*
X82123022Y28010417D01*
X82250417Y27883022D01*
X82350509Y27733224D01*
X82419453Y27566778D01*
X82454600Y27390082D01*
X82454600Y27209918D01*
X82419453Y27033222D01*
X82350509Y26866776D01*
X82250417Y26716978D01*
X82123022Y26589583D01*
X81973224Y26489491D01*
X81806778Y26420547D01*
X81630082Y26385400D01*
X81449918Y26385400D01*
X81273222Y26420547D01*
X81106776Y26489491D01*
X80956978Y26589583D01*
X80829583Y26716978D01*
X80729491Y26866776D01*
X80660547Y27033222D01*
X80625400Y27209918D01*
X80625400Y27390082D01*
X80660547Y27566778D01*
X80729491Y27733224D01*
X80829583Y27883022D01*
X80956978Y28010417D01*
X81106776Y28110509D01*
X81273222Y28179453D01*
X81449918Y28214600D01*
X81630082Y28214600D01*
X81806778Y28179453D01*
G37*
G36*
X37248228Y28568297D02*
G01*
X37403100Y28504147D01*
X37542481Y28411015D01*
X37661015Y28292481D01*
X37754147Y28153100D01*
X37818297Y27998228D01*
X37851000Y27833816D01*
X37851000Y27666184D01*
X37818297Y27501772D01*
X37754147Y27346900D01*
X37661015Y27207519D01*
X37542481Y27088985D01*
X37403100Y26995853D01*
X37248228Y26931703D01*
X37083816Y26899000D01*
X36916184Y26899000D01*
X36751772Y26931703D01*
X36596900Y26995853D01*
X36457519Y27088985D01*
X36338985Y27207519D01*
X36245853Y27346900D01*
X36181703Y27501772D01*
X36149000Y27666184D01*
X36149000Y27833816D01*
X36181703Y27998228D01*
X36245853Y28153100D01*
X36338985Y28292481D01*
X36457519Y28411015D01*
X36596900Y28504147D01*
X36751772Y28568297D01*
X36916184Y28601000D01*
X37083816Y28601000D01*
X37248228Y28568297D01*
G37*
G36*
X14248228Y28568297D02*
G01*
X14403100Y28504147D01*
X14542481Y28411015D01*
X14661015Y28292481D01*
X14754147Y28153100D01*
X14818297Y27998228D01*
X14851000Y27833816D01*
X14851000Y27666184D01*
X14818297Y27501772D01*
X14754147Y27346900D01*
X14661015Y27207519D01*
X14542481Y27088985D01*
X14403100Y26995853D01*
X14248228Y26931703D01*
X14083816Y26899000D01*
X13916184Y26899000D01*
X13751772Y26931703D01*
X13596900Y26995853D01*
X13457519Y27088985D01*
X13338985Y27207519D01*
X13245853Y27346900D01*
X13181703Y27501772D01*
X13149000Y27666184D01*
X13149000Y27833816D01*
X13181703Y27998228D01*
X13245853Y28153100D01*
X13338985Y28292481D01*
X13457519Y28411015D01*
X13596900Y28504147D01*
X13751772Y28568297D01*
X13916184Y28601000D01*
X14083816Y28601000D01*
X14248228Y28568297D01*
G37*
G36*
X19361938Y29093284D02*
G01*
X19382557Y29087029D01*
X19401553Y29076876D01*
X19418208Y29063208D01*
X19431876Y29046553D01*
X19442029Y29027557D01*
X19448284Y29006938D01*
X19451000Y28979360D01*
X19451000Y28520640D01*
X19448284Y28493062D01*
X19442029Y28472443D01*
X19431876Y28453447D01*
X19418208Y28436792D01*
X19401553Y28423124D01*
X19382557Y28412971D01*
X19361938Y28406716D01*
X19334360Y28404000D01*
X18665640Y28404000D01*
X18638062Y28406716D01*
X18617443Y28412971D01*
X18598447Y28423124D01*
X18581792Y28436792D01*
X18568124Y28453447D01*
X18557971Y28472443D01*
X18551716Y28493062D01*
X18549000Y28520640D01*
X18549000Y28979360D01*
X18551716Y29006938D01*
X18557971Y29027557D01*
X18568124Y29046553D01*
X18581792Y29063208D01*
X18598447Y29076876D01*
X18617443Y29087029D01*
X18638062Y29093284D01*
X18665640Y29096000D01*
X19334360Y29096000D01*
X19361938Y29093284D01*
G37*
G36*
X81806778Y30719453D02*
G01*
X81973224Y30650509D01*
X82123022Y30550417D01*
X82250417Y30423022D01*
X82350509Y30273224D01*
X82419453Y30106778D01*
X82454600Y29930082D01*
X82454600Y29749918D01*
X82419453Y29573222D01*
X82350509Y29406776D01*
X82250417Y29256978D01*
X82123022Y29129583D01*
X81973224Y29029491D01*
X81806778Y28960547D01*
X81630082Y28925400D01*
X81449918Y28925400D01*
X81273222Y28960547D01*
X81106776Y29029491D01*
X80956978Y29129583D01*
X80829583Y29256978D01*
X80729491Y29406776D01*
X80660547Y29573222D01*
X80625400Y29749918D01*
X80625400Y29930082D01*
X80660547Y30106778D01*
X80729491Y30273224D01*
X80829583Y30423022D01*
X80956978Y30550417D01*
X81106776Y30650509D01*
X81273222Y30719453D01*
X81449918Y30754600D01*
X81630082Y30754600D01*
X81806778Y30719453D01*
G37*
G36*
X79266778Y30719453D02*
G01*
X79433224Y30650509D01*
X79583022Y30550417D01*
X79710417Y30423022D01*
X79810509Y30273224D01*
X79879453Y30106778D01*
X79914600Y29930082D01*
X79914600Y29749918D01*
X79879453Y29573222D01*
X79810509Y29406776D01*
X79710417Y29256978D01*
X79583022Y29129583D01*
X79433224Y29029491D01*
X79266778Y28960547D01*
X79090082Y28925400D01*
X78909918Y28925400D01*
X78733222Y28960547D01*
X78566776Y29029491D01*
X78416978Y29129583D01*
X78289583Y29256978D01*
X78189491Y29406776D01*
X78120547Y29573222D01*
X78085400Y29749918D01*
X78085400Y29930082D01*
X78120547Y30106778D01*
X78189491Y30273224D01*
X78289583Y30423022D01*
X78416978Y30550417D01*
X78566776Y30650509D01*
X78733222Y30719453D01*
X78909918Y30754600D01*
X79090082Y30754600D01*
X79266778Y30719453D01*
G37*
G36*
X24077023Y31439410D02*
G01*
X24177682Y31408875D01*
X24228013Y31393608D01*
X24367165Y31319229D01*
X24489133Y31219133D01*
X24589229Y31097165D01*
X24663608Y30958013D01*
X24663608Y30958012D01*
X24709410Y30807023D01*
X24721000Y30689345D01*
X24721000Y29810655D01*
X24709410Y29692977D01*
X24678875Y29592318D01*
X24663608Y29541987D01*
X24591336Y29406776D01*
X24589229Y29402835D01*
X24489133Y29280867D01*
X24367164Y29180771D01*
X24228012Y29106392D01*
X24193753Y29096000D01*
X24077022Y29060590D01*
X23920000Y29045125D01*
X23762977Y29060590D01*
X23646246Y29096000D01*
X23611987Y29106392D01*
X23472835Y29180771D01*
X23350867Y29280867D01*
X23250771Y29402836D01*
X23176393Y29541987D01*
X23176392Y29541988D01*
X23161125Y29592319D01*
X23130590Y29692978D01*
X23119000Y29810656D01*
X23119000Y30689345D01*
X23130591Y30807023D01*
X23176393Y30958012D01*
X23176393Y30958013D01*
X23250772Y31097165D01*
X23350868Y31219133D01*
X23472836Y31319229D01*
X23611988Y31393608D01*
X23662319Y31408875D01*
X23762978Y31439410D01*
X23920000Y31454875D01*
X24077023Y31439410D01*
G37*
G36*
X26617023Y31439410D02*
G01*
X26717682Y31408875D01*
X26768013Y31393608D01*
X26907165Y31319229D01*
X27029133Y31219133D01*
X27129229Y31097165D01*
X27203608Y30958013D01*
X27203608Y30958012D01*
X27249410Y30807023D01*
X27261000Y30689345D01*
X27261000Y29810655D01*
X27249410Y29692977D01*
X27218875Y29592318D01*
X27203608Y29541987D01*
X27131336Y29406776D01*
X27129229Y29402835D01*
X27029133Y29280867D01*
X26907164Y29180771D01*
X26768012Y29106392D01*
X26733753Y29096000D01*
X26617022Y29060590D01*
X26460000Y29045125D01*
X26302977Y29060590D01*
X26186246Y29096000D01*
X26151987Y29106392D01*
X26012835Y29180771D01*
X25890867Y29280867D01*
X25790771Y29402836D01*
X25716393Y29541987D01*
X25716392Y29541988D01*
X25701125Y29592319D01*
X25670590Y29692978D01*
X25659000Y29810656D01*
X25659000Y30689345D01*
X25670591Y30807023D01*
X25716393Y30958012D01*
X25716393Y30958013D01*
X25790772Y31097165D01*
X25890868Y31219133D01*
X26012836Y31319229D01*
X26151988Y31393608D01*
X26202319Y31408875D01*
X26302978Y31439410D01*
X26460000Y31454875D01*
X26617023Y31439410D01*
G37*
G36*
X29801000Y29049000D02*
G01*
X28199000Y29049000D01*
X28199000Y31451000D01*
X29801000Y31451000D01*
X29801000Y29049000D01*
G37*
G36*
X37851000Y29399000D02*
G01*
X36149000Y29399000D01*
X36149000Y31101000D01*
X37851000Y31101000D01*
X37851000Y29399000D01*
G37*
G36*
X14851000Y29399000D02*
G01*
X13149000Y29399000D01*
X13149000Y31101000D01*
X14851000Y31101000D01*
X14851000Y29399000D01*
G37*
G36*
X19361938Y30593284D02*
G01*
X19382557Y30587029D01*
X19401553Y30576876D01*
X19418208Y30563208D01*
X19431876Y30546553D01*
X19442029Y30527557D01*
X19448284Y30506938D01*
X19451000Y30479360D01*
X19451000Y30020640D01*
X19448284Y29993062D01*
X19442029Y29972443D01*
X19431876Y29953447D01*
X19418208Y29936792D01*
X19401553Y29923124D01*
X19382557Y29912971D01*
X19361938Y29906716D01*
X19334360Y29904000D01*
X18665640Y29904000D01*
X18638062Y29906716D01*
X18617443Y29912971D01*
X18598447Y29923124D01*
X18581792Y29936792D01*
X18568124Y29953447D01*
X18557971Y29972443D01*
X18551716Y29993062D01*
X18549000Y30020640D01*
X18549000Y30479360D01*
X18551716Y30506938D01*
X18557971Y30527557D01*
X18568124Y30546553D01*
X18581792Y30563208D01*
X18598447Y30576876D01*
X18617443Y30587029D01*
X18638062Y30593284D01*
X18665640Y30596000D01*
X19334360Y30596000D01*
X19361938Y30593284D01*
G37*
G36*
X81806778Y33259453D02*
G01*
X81973224Y33190509D01*
X82123022Y33090417D01*
X82250417Y32963022D01*
X82350509Y32813224D01*
X82419453Y32646778D01*
X82454600Y32470082D01*
X82454600Y32289918D01*
X82419453Y32113222D01*
X82350509Y31946776D01*
X82250417Y31796978D01*
X82123022Y31669583D01*
X81973224Y31569491D01*
X81806778Y31500547D01*
X81630082Y31465400D01*
X81449918Y31465400D01*
X81273222Y31500547D01*
X81106776Y31569491D01*
X80956978Y31669583D01*
X80829583Y31796978D01*
X80729491Y31946776D01*
X80660547Y32113222D01*
X80625400Y32289918D01*
X80625400Y32470082D01*
X80660547Y32646778D01*
X80729491Y32813224D01*
X80829583Y32963022D01*
X80956978Y33090417D01*
X81106776Y33190509D01*
X81273222Y33259453D01*
X81449918Y33294600D01*
X81630082Y33294600D01*
X81806778Y33259453D01*
G37*
G36*
X79266778Y33259453D02*
G01*
X79433224Y33190509D01*
X79583022Y33090417D01*
X79710417Y32963022D01*
X79810509Y32813224D01*
X79879453Y32646778D01*
X79914600Y32470082D01*
X79914600Y32289918D01*
X79879453Y32113222D01*
X79810509Y31946776D01*
X79710417Y31796978D01*
X79583022Y31669583D01*
X79433224Y31569491D01*
X79266778Y31500547D01*
X79090082Y31465400D01*
X78909918Y31465400D01*
X78733222Y31500547D01*
X78566776Y31569491D01*
X78416978Y31669583D01*
X78289583Y31796978D01*
X78189491Y31946776D01*
X78120547Y32113222D01*
X78085400Y32289918D01*
X78085400Y32470082D01*
X78120547Y32646778D01*
X78189491Y32813224D01*
X78289583Y32963022D01*
X78416978Y33090417D01*
X78566776Y33190509D01*
X78733222Y33259453D01*
X78909918Y33294600D01*
X79090082Y33294600D01*
X79266778Y33259453D01*
G37*
G36*
X81806778Y35799453D02*
G01*
X81973224Y35730509D01*
X82123022Y35630417D01*
X82250417Y35503022D01*
X82350509Y35353224D01*
X82419453Y35186778D01*
X82454600Y35010082D01*
X82454600Y34829918D01*
X82419453Y34653222D01*
X82350509Y34486776D01*
X82250417Y34336978D01*
X82123022Y34209583D01*
X81973224Y34109491D01*
X81806778Y34040547D01*
X81630082Y34005400D01*
X81449918Y34005400D01*
X81273222Y34040547D01*
X81106776Y34109491D01*
X80956978Y34209583D01*
X80829583Y34336978D01*
X80729491Y34486776D01*
X80660547Y34653222D01*
X80625400Y34829918D01*
X80625400Y35010082D01*
X80660547Y35186778D01*
X80729491Y35353224D01*
X80829583Y35503022D01*
X80956978Y35630417D01*
X81106776Y35730509D01*
X81273222Y35799453D01*
X81449918Y35834600D01*
X81630082Y35834600D01*
X81806778Y35799453D01*
G37*
G36*
X79266778Y35799453D02*
G01*
X79433224Y35730509D01*
X79583022Y35630417D01*
X79710417Y35503022D01*
X79810509Y35353224D01*
X79879453Y35186778D01*
X79914600Y35010082D01*
X79914600Y34829918D01*
X79879453Y34653222D01*
X79810509Y34486776D01*
X79710417Y34336978D01*
X79583022Y34209583D01*
X79433224Y34109491D01*
X79266778Y34040547D01*
X79090082Y34005400D01*
X78909918Y34005400D01*
X78733222Y34040547D01*
X78566776Y34109491D01*
X78416978Y34209583D01*
X78289583Y34336978D01*
X78189491Y34486776D01*
X78120547Y34653222D01*
X78085400Y34829918D01*
X78085400Y35010082D01*
X78120547Y35186778D01*
X78189491Y35353224D01*
X78289583Y35503022D01*
X78416978Y35630417D01*
X78566776Y35730509D01*
X78733222Y35799453D01*
X78909918Y35834600D01*
X79090082Y35834600D01*
X79266778Y35799453D01*
G37*
G36*
X81806778Y38339453D02*
G01*
X81973224Y38270509D01*
X82123022Y38170417D01*
X82250417Y38043022D01*
X82350509Y37893224D01*
X82419453Y37726778D01*
X82454600Y37550082D01*
X82454600Y37369918D01*
X82419453Y37193222D01*
X82350509Y37026776D01*
X82250417Y36876978D01*
X82123022Y36749583D01*
X81973224Y36649491D01*
X81806778Y36580547D01*
X81630082Y36545400D01*
X81449918Y36545400D01*
X81273222Y36580547D01*
X81106776Y36649491D01*
X80956978Y36749583D01*
X80829583Y36876978D01*
X80729491Y37026776D01*
X80660547Y37193222D01*
X80625400Y37369918D01*
X80625400Y37550082D01*
X80660547Y37726778D01*
X80729491Y37893224D01*
X80829583Y38043022D01*
X80956978Y38170417D01*
X81106776Y38270509D01*
X81273222Y38339453D01*
X81449918Y38374600D01*
X81630082Y38374600D01*
X81806778Y38339453D01*
G37*
G36*
X79266778Y38339453D02*
G01*
X79433224Y38270509D01*
X79583022Y38170417D01*
X79710417Y38043022D01*
X79810509Y37893224D01*
X79879453Y37726778D01*
X79914600Y37550082D01*
X79914600Y37369918D01*
X79879453Y37193222D01*
X79810509Y37026776D01*
X79710417Y36876978D01*
X79583022Y36749583D01*
X79433224Y36649491D01*
X79266778Y36580547D01*
X79090082Y36545400D01*
X78909918Y36545400D01*
X78733222Y36580547D01*
X78566776Y36649491D01*
X78416978Y36749583D01*
X78289583Y36876978D01*
X78189491Y37026776D01*
X78120547Y37193222D01*
X78085400Y37369918D01*
X78085400Y37550082D01*
X78120547Y37726778D01*
X78189491Y37893224D01*
X78289583Y38043022D01*
X78416978Y38170417D01*
X78566776Y38270509D01*
X78733222Y38339453D01*
X78909918Y38374600D01*
X79090082Y38374600D01*
X79266778Y38339453D01*
G37*
G36*
X41758961Y42571886D02*
G01*
X42007971Y42496349D01*
X42007973Y42496348D01*
X42237458Y42373686D01*
X42438608Y42208608D01*
X42603686Y42007458D01*
X42698761Y41829584D01*
X42726349Y41777971D01*
X42801886Y41528961D01*
X42821000Y41334890D01*
X42821000Y38665110D01*
X42801886Y38471039D01*
X42772631Y38374600D01*
X42726348Y38222027D01*
X42603686Y37992541D01*
X42438607Y37791393D01*
X42237457Y37626314D01*
X42007972Y37503652D01*
X42007970Y37503651D01*
X41758960Y37428114D01*
X41500000Y37402609D01*
X41241039Y37428114D01*
X40992029Y37503651D01*
X40992027Y37503652D01*
X40762541Y37626314D01*
X40561393Y37791393D01*
X40396314Y37992543D01*
X40273652Y38222028D01*
X40273651Y38222030D01*
X40198114Y38471040D01*
X40179000Y38665111D01*
X40179001Y41334890D01*
X40198115Y41528961D01*
X40273652Y41777971D01*
X40301240Y41829584D01*
X40396315Y42007458D01*
X40561393Y42208608D01*
X40762543Y42373686D01*
X40992028Y42496348D01*
X40992030Y42496349D01*
X41241040Y42571886D01*
X41500000Y42597391D01*
X41758961Y42571886D01*
G37*
G36*
X51758961Y42571886D02*
G01*
X52007971Y42496349D01*
X52007973Y42496348D01*
X52237458Y42373686D01*
X52438608Y42208608D01*
X52603686Y42007458D01*
X52698761Y41829584D01*
X52726349Y41777971D01*
X52801886Y41528961D01*
X52821000Y41334890D01*
X52821000Y38665110D01*
X52801886Y38471039D01*
X52772631Y38374600D01*
X52726348Y38222027D01*
X52603686Y37992541D01*
X52438607Y37791393D01*
X52237457Y37626314D01*
X52007972Y37503652D01*
X52007970Y37503651D01*
X51758960Y37428114D01*
X51500000Y37402609D01*
X51241039Y37428114D01*
X50992029Y37503651D01*
X50992027Y37503652D01*
X50762541Y37626314D01*
X50561393Y37791393D01*
X50396314Y37992543D01*
X50273652Y38222028D01*
X50273651Y38222030D01*
X50198114Y38471040D01*
X50179000Y38665111D01*
X50179001Y41334890D01*
X50198115Y41528961D01*
X50273652Y41777971D01*
X50301240Y41829584D01*
X50396315Y42007458D01*
X50561393Y42208608D01*
X50762543Y42373686D01*
X50992028Y42496348D01*
X50992030Y42496349D01*
X51241040Y42571886D01*
X51500000Y42597391D01*
X51758961Y42571886D01*
G37*
G36*
X56758961Y42571886D02*
G01*
X57007971Y42496349D01*
X57007973Y42496348D01*
X57237458Y42373686D01*
X57438608Y42208608D01*
X57603686Y42007458D01*
X57698761Y41829584D01*
X57726349Y41777971D01*
X57801886Y41528961D01*
X57821000Y41334890D01*
X57821000Y38665110D01*
X57801886Y38471039D01*
X57772631Y38374600D01*
X57726348Y38222027D01*
X57603686Y37992541D01*
X57438607Y37791393D01*
X57237457Y37626314D01*
X57007972Y37503652D01*
X57007970Y37503651D01*
X56758960Y37428114D01*
X56500000Y37402609D01*
X56241039Y37428114D01*
X55992029Y37503651D01*
X55992027Y37503652D01*
X55762541Y37626314D01*
X55561393Y37791393D01*
X55396314Y37992543D01*
X55273652Y38222028D01*
X55273651Y38222030D01*
X55198114Y38471040D01*
X55179000Y38665111D01*
X55179001Y41334890D01*
X55198115Y41528961D01*
X55273652Y41777971D01*
X55301240Y41829584D01*
X55396315Y42007458D01*
X55561393Y42208608D01*
X55762543Y42373686D01*
X55992028Y42496348D01*
X55992030Y42496349D01*
X56241040Y42571886D01*
X56500000Y42597391D01*
X56758961Y42571886D01*
G37*
G36*
X61758961Y42571886D02*
G01*
X62007971Y42496349D01*
X62007973Y42496348D01*
X62237458Y42373686D01*
X62438608Y42208608D01*
X62603686Y42007458D01*
X62698761Y41829584D01*
X62726349Y41777971D01*
X62801886Y41528961D01*
X62821000Y41334890D01*
X62821000Y38665110D01*
X62801886Y38471039D01*
X62772631Y38374600D01*
X62726348Y38222027D01*
X62603686Y37992541D01*
X62438607Y37791393D01*
X62237457Y37626314D01*
X62007972Y37503652D01*
X62007970Y37503651D01*
X61758960Y37428114D01*
X61500000Y37402609D01*
X61241039Y37428114D01*
X60992029Y37503651D01*
X60992027Y37503652D01*
X60762541Y37626314D01*
X60561393Y37791393D01*
X60396314Y37992543D01*
X60273652Y38222028D01*
X60273651Y38222030D01*
X60198114Y38471040D01*
X60179000Y38665111D01*
X60179001Y41334890D01*
X60198115Y41528961D01*
X60273652Y41777971D01*
X60301240Y41829584D01*
X60396315Y42007458D01*
X60561393Y42208608D01*
X60762543Y42373686D01*
X60992028Y42496348D01*
X60992030Y42496349D01*
X61241040Y42571886D01*
X61500000Y42597391D01*
X61758961Y42571886D01*
G37*
G36*
X66758961Y42571886D02*
G01*
X67007971Y42496349D01*
X67007973Y42496348D01*
X67237458Y42373686D01*
X67438608Y42208608D01*
X67603686Y42007458D01*
X67698761Y41829584D01*
X67726349Y41777971D01*
X67801886Y41528961D01*
X67821000Y41334890D01*
X67821000Y38665110D01*
X67801886Y38471039D01*
X67772631Y38374600D01*
X67726348Y38222027D01*
X67603686Y37992541D01*
X67438607Y37791393D01*
X67237457Y37626314D01*
X67007972Y37503652D01*
X67007970Y37503651D01*
X66758960Y37428114D01*
X66500000Y37402609D01*
X66241039Y37428114D01*
X65992029Y37503651D01*
X65992027Y37503652D01*
X65762541Y37626314D01*
X65561393Y37791393D01*
X65396314Y37992543D01*
X65273652Y38222028D01*
X65273651Y38222030D01*
X65198114Y38471040D01*
X65179000Y38665111D01*
X65179001Y41334890D01*
X65198115Y41528961D01*
X65273652Y41777971D01*
X65301240Y41829584D01*
X65396315Y42007458D01*
X65561393Y42208608D01*
X65762543Y42373686D01*
X65992028Y42496348D01*
X65992030Y42496349D01*
X66241040Y42571886D01*
X66500000Y42597391D01*
X66758961Y42571886D01*
G37*
G36*
X71758961Y42571886D02*
G01*
X72007971Y42496349D01*
X72007973Y42496348D01*
X72237458Y42373686D01*
X72438608Y42208608D01*
X72603686Y42007458D01*
X72698761Y41829584D01*
X72726349Y41777971D01*
X72801886Y41528961D01*
X72821000Y41334890D01*
X72821000Y38665110D01*
X72801886Y38471039D01*
X72772631Y38374600D01*
X72726348Y38222027D01*
X72603686Y37992541D01*
X72438607Y37791393D01*
X72237457Y37626314D01*
X72007972Y37503652D01*
X72007970Y37503651D01*
X71758960Y37428114D01*
X71500000Y37402609D01*
X71241039Y37428114D01*
X70992029Y37503651D01*
X70992027Y37503652D01*
X70762541Y37626314D01*
X70561393Y37791393D01*
X70396314Y37992543D01*
X70273652Y38222028D01*
X70273651Y38222030D01*
X70198114Y38471040D01*
X70179000Y38665111D01*
X70179001Y41334890D01*
X70198115Y41528961D01*
X70273652Y41777971D01*
X70301240Y41829584D01*
X70396315Y42007458D01*
X70561393Y42208608D01*
X70762543Y42373686D01*
X70992028Y42496348D01*
X70992030Y42496349D01*
X71241040Y42571886D01*
X71500000Y42597391D01*
X71758961Y42571886D01*
G37*
G36*
X16758961Y42571886D02*
G01*
X17007971Y42496349D01*
X17007973Y42496348D01*
X17237458Y42373686D01*
X17438608Y42208608D01*
X17603686Y42007458D01*
X17698761Y41829584D01*
X17726349Y41777971D01*
X17801886Y41528961D01*
X17821000Y41334890D01*
X17821000Y38665110D01*
X17801886Y38471039D01*
X17772631Y38374600D01*
X17726348Y38222027D01*
X17603686Y37992541D01*
X17438607Y37791393D01*
X17237457Y37626314D01*
X17007972Y37503652D01*
X17007970Y37503651D01*
X16758960Y37428114D01*
X16500000Y37402609D01*
X16241039Y37428114D01*
X15992029Y37503651D01*
X15992027Y37503652D01*
X15762541Y37626314D01*
X15561393Y37791393D01*
X15396314Y37992543D01*
X15273652Y38222028D01*
X15273651Y38222030D01*
X15198114Y38471040D01*
X15179000Y38665111D01*
X15179001Y41334890D01*
X15198115Y41528961D01*
X15273652Y41777971D01*
X15301240Y41829584D01*
X15396315Y42007458D01*
X15561393Y42208608D01*
X15762543Y42373686D01*
X15992028Y42496348D01*
X15992030Y42496349D01*
X16241040Y42571886D01*
X16500000Y42597391D01*
X16758961Y42571886D01*
G37*
G36*
X36758961Y42571886D02*
G01*
X37007971Y42496349D01*
X37007973Y42496348D01*
X37237458Y42373686D01*
X37438608Y42208608D01*
X37603686Y42007458D01*
X37698761Y41829584D01*
X37726349Y41777971D01*
X37801886Y41528961D01*
X37821000Y41334890D01*
X37821000Y38665110D01*
X37801886Y38471039D01*
X37772631Y38374600D01*
X37726348Y38222027D01*
X37603686Y37992541D01*
X37438607Y37791393D01*
X37237457Y37626314D01*
X37007972Y37503652D01*
X37007970Y37503651D01*
X36758960Y37428114D01*
X36500000Y37402609D01*
X36241039Y37428114D01*
X35992029Y37503651D01*
X35992027Y37503652D01*
X35762541Y37626314D01*
X35561393Y37791393D01*
X35396314Y37992543D01*
X35273652Y38222028D01*
X35273651Y38222030D01*
X35198114Y38471040D01*
X35179000Y38665111D01*
X35179001Y41334890D01*
X35198115Y41528961D01*
X35273652Y41777971D01*
X35301240Y41829584D01*
X35396315Y42007458D01*
X35561393Y42208608D01*
X35762543Y42373686D01*
X35992028Y42496348D01*
X35992030Y42496349D01*
X36241040Y42571886D01*
X36500000Y42597391D01*
X36758961Y42571886D01*
G37*
G36*
X21758961Y42571886D02*
G01*
X22007971Y42496349D01*
X22007973Y42496348D01*
X22237458Y42373686D01*
X22438608Y42208608D01*
X22603686Y42007458D01*
X22698761Y41829584D01*
X22726349Y41777971D01*
X22801886Y41528961D01*
X22821000Y41334890D01*
X22821000Y38665110D01*
X22801886Y38471039D01*
X22772631Y38374600D01*
X22726348Y38222027D01*
X22603686Y37992541D01*
X22438607Y37791393D01*
X22237457Y37626314D01*
X22007972Y37503652D01*
X22007970Y37503651D01*
X21758960Y37428114D01*
X21500000Y37402609D01*
X21241039Y37428114D01*
X20992029Y37503651D01*
X20992027Y37503652D01*
X20762541Y37626314D01*
X20561393Y37791393D01*
X20396314Y37992543D01*
X20273652Y38222028D01*
X20273651Y38222030D01*
X20198114Y38471040D01*
X20179000Y38665111D01*
X20179001Y41334890D01*
X20198115Y41528961D01*
X20273652Y41777971D01*
X20301240Y41829584D01*
X20396315Y42007458D01*
X20561393Y42208608D01*
X20762543Y42373686D01*
X20992028Y42496348D01*
X20992030Y42496349D01*
X21241040Y42571886D01*
X21500000Y42597391D01*
X21758961Y42571886D01*
G37*
G36*
X26758961Y42571886D02*
G01*
X27007971Y42496349D01*
X27007973Y42496348D01*
X27237458Y42373686D01*
X27438608Y42208608D01*
X27603686Y42007458D01*
X27698761Y41829584D01*
X27726349Y41777971D01*
X27801886Y41528961D01*
X27821000Y41334890D01*
X27821000Y38665110D01*
X27801886Y38471039D01*
X27772631Y38374600D01*
X27726348Y38222027D01*
X27603686Y37992541D01*
X27438607Y37791393D01*
X27237457Y37626314D01*
X27007972Y37503652D01*
X27007970Y37503651D01*
X26758960Y37428114D01*
X26500000Y37402609D01*
X26241039Y37428114D01*
X25992029Y37503651D01*
X25992027Y37503652D01*
X25762541Y37626314D01*
X25561393Y37791393D01*
X25396314Y37992543D01*
X25273652Y38222028D01*
X25273651Y38222030D01*
X25198114Y38471040D01*
X25179000Y38665111D01*
X25179001Y41334890D01*
X25198115Y41528961D01*
X25273652Y41777971D01*
X25301240Y41829584D01*
X25396315Y42007458D01*
X25561393Y42208608D01*
X25762543Y42373686D01*
X25992028Y42496348D01*
X25992030Y42496349D01*
X26241040Y42571886D01*
X26500000Y42597391D01*
X26758961Y42571886D01*
G37*
G36*
X31758961Y42571886D02*
G01*
X32007971Y42496349D01*
X32007973Y42496348D01*
X32237458Y42373686D01*
X32438608Y42208608D01*
X32603686Y42007458D01*
X32698761Y41829584D01*
X32726349Y41777971D01*
X32801886Y41528961D01*
X32821000Y41334890D01*
X32821000Y38665110D01*
X32801886Y38471039D01*
X32772631Y38374600D01*
X32726348Y38222027D01*
X32603686Y37992541D01*
X32438607Y37791393D01*
X32237457Y37626314D01*
X32007972Y37503652D01*
X32007970Y37503651D01*
X31758960Y37428114D01*
X31500000Y37402609D01*
X31241039Y37428114D01*
X30992029Y37503651D01*
X30992027Y37503652D01*
X30762541Y37626314D01*
X30561393Y37791393D01*
X30396314Y37992543D01*
X30273652Y38222028D01*
X30273651Y38222030D01*
X30198114Y38471040D01*
X30179000Y38665111D01*
X30179001Y41334890D01*
X30198115Y41528961D01*
X30273652Y41777971D01*
X30301240Y41829584D01*
X30396315Y42007458D01*
X30561393Y42208608D01*
X30762543Y42373686D01*
X30992028Y42496348D01*
X30992030Y42496349D01*
X31241040Y42571886D01*
X31500000Y42597391D01*
X31758961Y42571886D01*
G37*
G36*
X46758961Y42571886D02*
G01*
X47007971Y42496349D01*
X47007973Y42496348D01*
X47237458Y42373686D01*
X47438608Y42208608D01*
X47603686Y42007458D01*
X47698761Y41829584D01*
X47726349Y41777971D01*
X47801886Y41528961D01*
X47821000Y41334890D01*
X47821000Y38665110D01*
X47801886Y38471039D01*
X47772631Y38374600D01*
X47726348Y38222027D01*
X47603686Y37992541D01*
X47438607Y37791393D01*
X47237457Y37626314D01*
X47007972Y37503652D01*
X47007970Y37503651D01*
X46758960Y37428114D01*
X46500000Y37402609D01*
X46241039Y37428114D01*
X45992029Y37503651D01*
X45992027Y37503652D01*
X45762541Y37626314D01*
X45561393Y37791393D01*
X45396314Y37992543D01*
X45273652Y38222028D01*
X45273651Y38222030D01*
X45198114Y38471040D01*
X45179000Y38665111D01*
X45179001Y41334890D01*
X45198115Y41528961D01*
X45273652Y41777971D01*
X45301240Y41829584D01*
X45396315Y42007458D01*
X45561393Y42208608D01*
X45762543Y42373686D01*
X45992028Y42496348D01*
X45992030Y42496349D01*
X46241040Y42571886D01*
X46500000Y42597391D01*
X46758961Y42571886D01*
G37*
G36*
X81806778Y40879453D02*
G01*
X81973224Y40810509D01*
X82123022Y40710417D01*
X82250417Y40583022D01*
X82350509Y40433224D01*
X82419453Y40266778D01*
X82454600Y40090082D01*
X82454600Y39909918D01*
X82419453Y39733222D01*
X82350509Y39566776D01*
X82250417Y39416978D01*
X82123022Y39289583D01*
X81973224Y39189491D01*
X81806778Y39120547D01*
X81630082Y39085400D01*
X81449918Y39085400D01*
X81273222Y39120547D01*
X81106776Y39189491D01*
X80956978Y39289583D01*
X80829583Y39416978D01*
X80729491Y39566776D01*
X80660547Y39733222D01*
X80625400Y39909918D01*
X80625400Y40090082D01*
X80660547Y40266778D01*
X80729491Y40433224D01*
X80829583Y40583022D01*
X80956978Y40710417D01*
X81106776Y40810509D01*
X81273222Y40879453D01*
X81449918Y40914600D01*
X81630082Y40914600D01*
X81806778Y40879453D01*
G37*
G36*
X79266778Y40879453D02*
G01*
X79433224Y40810509D01*
X79583022Y40710417D01*
X79710417Y40583022D01*
X79810509Y40433224D01*
X79879453Y40266778D01*
X79914600Y40090082D01*
X79914600Y39909918D01*
X79879453Y39733222D01*
X79810509Y39566776D01*
X79710417Y39416978D01*
X79583022Y39289583D01*
X79433224Y39189491D01*
X79266778Y39120547D01*
X79090082Y39085400D01*
X78909918Y39085400D01*
X78733222Y39120547D01*
X78566776Y39189491D01*
X78416978Y39289583D01*
X78289583Y39416978D01*
X78189491Y39566776D01*
X78120547Y39733222D01*
X78085400Y39909918D01*
X78085400Y40090082D01*
X78120547Y40266778D01*
X78189491Y40433224D01*
X78289583Y40583022D01*
X78416978Y40710417D01*
X78566776Y40810509D01*
X78733222Y40879453D01*
X78909918Y40914600D01*
X79090082Y40914600D01*
X79266778Y40879453D01*
G37*
G36*
X81806778Y43419453D02*
G01*
X81973224Y43350509D01*
X82123022Y43250417D01*
X82250417Y43123022D01*
X82350509Y42973224D01*
X82419453Y42806778D01*
X82454600Y42630082D01*
X82454600Y42449918D01*
X82419453Y42273222D01*
X82350509Y42106776D01*
X82250417Y41956978D01*
X82123022Y41829583D01*
X81973224Y41729491D01*
X81806778Y41660547D01*
X81630082Y41625400D01*
X81449918Y41625400D01*
X81273222Y41660547D01*
X81106776Y41729491D01*
X80956978Y41829583D01*
X80829583Y41956978D01*
X80729491Y42106776D01*
X80660547Y42273222D01*
X80625400Y42449918D01*
X80625400Y42630082D01*
X80660547Y42806778D01*
X80729491Y42973224D01*
X80829583Y43123022D01*
X80956978Y43250417D01*
X81106776Y43350509D01*
X81273222Y43419453D01*
X81449918Y43454600D01*
X81630082Y43454600D01*
X81806778Y43419453D01*
G37*
G36*
X79266778Y43419453D02*
G01*
X79433224Y43350509D01*
X79583022Y43250417D01*
X79710417Y43123022D01*
X79810509Y42973224D01*
X79879453Y42806778D01*
X79914600Y42630082D01*
X79914600Y42449918D01*
X79879453Y42273222D01*
X79810509Y42106776D01*
X79710417Y41956978D01*
X79583022Y41829583D01*
X79433224Y41729491D01*
X79266778Y41660547D01*
X79090082Y41625400D01*
X78909918Y41625400D01*
X78733222Y41660547D01*
X78566776Y41729491D01*
X78416978Y41829583D01*
X78289583Y41956978D01*
X78189491Y42106776D01*
X78120547Y42273222D01*
X78085400Y42449918D01*
X78085400Y42630082D01*
X78120547Y42806778D01*
X78189491Y42973224D01*
X78289583Y43123022D01*
X78416978Y43250417D01*
X78566776Y43350509D01*
X78733222Y43419453D01*
X78909918Y43454600D01*
X79090082Y43454600D01*
X79266778Y43419453D01*
G37*
G36*
X90656301Y47163534D02*
G01*
X91065775Y46993924D01*
X91434292Y46747689D01*
X91747689Y46434292D01*
X91993924Y46065775D01*
X92163534Y45656301D01*
X92250000Y45221606D01*
X92250000Y44778394D01*
X92163534Y44343699D01*
X91993924Y43934225D01*
X91747689Y43565708D01*
X91434292Y43252311D01*
X91065775Y43006076D01*
X91065774Y43006075D01*
X91065773Y43006075D01*
X90945842Y42956398D01*
X90656301Y42836466D01*
X90507054Y42806779D01*
X90221607Y42750000D01*
X89778393Y42750000D01*
X89492946Y42806779D01*
X89343699Y42836466D01*
X89054158Y42956398D01*
X88934227Y43006075D01*
X88934226Y43006075D01*
X88934225Y43006076D01*
X88565708Y43252311D01*
X88252311Y43565708D01*
X88006076Y43934225D01*
X87836466Y44343699D01*
X87750000Y44778394D01*
X87750000Y45221606D01*
X87836466Y45656301D01*
X88006076Y46065775D01*
X88252311Y46434292D01*
X88565708Y46747689D01*
X88934225Y46993924D01*
X89343699Y47163534D01*
X89778393Y47250000D01*
X90221607Y47250000D01*
X90656301Y47163534D01*
G37*
G36*
X5656301Y47163534D02*
G01*
X6065775Y46993924D01*
X6434292Y46747689D01*
X6747689Y46434292D01*
X6993924Y46065775D01*
X7163534Y45656301D01*
X7250000Y45221606D01*
X7250000Y44778394D01*
X7163534Y44343699D01*
X6993924Y43934225D01*
X6747689Y43565708D01*
X6434292Y43252311D01*
X6065775Y43006076D01*
X6065774Y43006075D01*
X6065773Y43006075D01*
X5945842Y42956398D01*
X5656301Y42836466D01*
X5507054Y42806779D01*
X5221607Y42750000D01*
X4778393Y42750000D01*
X4492946Y42806779D01*
X4343699Y42836466D01*
X4054158Y42956398D01*
X3934227Y43006075D01*
X3934226Y43006075D01*
X3934225Y43006076D01*
X3565708Y43252311D01*
X3252311Y43565708D01*
X3006076Y43934225D01*
X2836466Y44343699D01*
X2750000Y44778394D01*
X2750000Y45221606D01*
X2836466Y45656301D01*
X3006076Y46065775D01*
X3252311Y46434292D01*
X3565708Y46747689D01*
X3934225Y46993924D01*
X4343699Y47163534D01*
X4778393Y47250000D01*
X5221607Y47250000D01*
X5656301Y47163534D01*
G37*
G36*
X81806778Y45959453D02*
G01*
X81973224Y45890509D01*
X82123022Y45790417D01*
X82250417Y45663022D01*
X82350509Y45513224D01*
X82419453Y45346778D01*
X82454600Y45170082D01*
X82454600Y44989918D01*
X82419453Y44813222D01*
X82350509Y44646776D01*
X82250417Y44496978D01*
X82123022Y44369583D01*
X81973224Y44269491D01*
X81806778Y44200547D01*
X81630082Y44165400D01*
X81449918Y44165400D01*
X81273222Y44200547D01*
X81106776Y44269491D01*
X80956978Y44369583D01*
X80829583Y44496978D01*
X80729491Y44646776D01*
X80660547Y44813222D01*
X80625400Y44989918D01*
X80625400Y45170082D01*
X80660547Y45346778D01*
X80729491Y45513224D01*
X80829583Y45663022D01*
X80956978Y45790417D01*
X81106776Y45890509D01*
X81273222Y45959453D01*
X81449918Y45994600D01*
X81630082Y45994600D01*
X81806778Y45959453D01*
G37*
G36*
X79266778Y45959453D02*
G01*
X79433224Y45890509D01*
X79583022Y45790417D01*
X79710417Y45663022D01*
X79810509Y45513224D01*
X79879453Y45346778D01*
X79914600Y45170082D01*
X79914600Y44989918D01*
X79879453Y44813222D01*
X79810509Y44646776D01*
X79710417Y44496978D01*
X79583022Y44369583D01*
X79433224Y44269491D01*
X79266778Y44200547D01*
X79090082Y44165400D01*
X78909918Y44165400D01*
X78733222Y44200547D01*
X78566776Y44269491D01*
X78416978Y44369583D01*
X78289583Y44496978D01*
X78189491Y44646776D01*
X78120547Y44813222D01*
X78085400Y44989918D01*
X78085400Y45170082D01*
X78120547Y45346778D01*
X78189491Y45513224D01*
X78289583Y45663022D01*
X78416978Y45790417D01*
X78566776Y45890509D01*
X78733222Y45959453D01*
X78909918Y45994600D01*
X79090082Y45994600D01*
X79266778Y45959453D01*
G37*
G36*
X81806778Y48499453D02*
G01*
X81973224Y48430509D01*
X82123022Y48330417D01*
X82250417Y48203022D01*
X82350509Y48053224D01*
X82419453Y47886778D01*
X82454600Y47710082D01*
X82454600Y47529918D01*
X82419453Y47353222D01*
X82350509Y47186776D01*
X82250417Y47036978D01*
X82123022Y46909583D01*
X81973224Y46809491D01*
X81806778Y46740547D01*
X81630082Y46705400D01*
X81449918Y46705400D01*
X81273222Y46740547D01*
X81106776Y46809491D01*
X80956978Y46909583D01*
X80829583Y47036978D01*
X80729491Y47186776D01*
X80660547Y47353222D01*
X80625400Y47529918D01*
X80625400Y47710082D01*
X80660547Y47886778D01*
X80729491Y48053224D01*
X80829583Y48203022D01*
X80956978Y48330417D01*
X81106776Y48430509D01*
X81273222Y48499453D01*
X81449918Y48534600D01*
X81630082Y48534600D01*
X81806778Y48499453D01*
G37*
G36*
X79914600Y46705400D02*
G01*
X78085400Y46705400D01*
X78085400Y48534600D01*
X79914600Y48534600D01*
X79914600Y46705400D01*
G37*
G36*
X59258961Y57571886D02*
G01*
X59507971Y57496349D01*
X59507973Y57496348D01*
X59737458Y57373686D01*
X59938608Y57208608D01*
X60103685Y57007459D01*
X60226349Y56777971D01*
X60301886Y56528961D01*
X60321000Y56334890D01*
X60321000Y53665110D01*
X60301886Y53471039D01*
X60226349Y53222030D01*
X60226348Y53222027D01*
X60103686Y52992541D01*
X59938607Y52791393D01*
X59737457Y52626314D01*
X59507972Y52503652D01*
X59507970Y52503651D01*
X59258960Y52428114D01*
X59000000Y52402609D01*
X58741039Y52428114D01*
X58492029Y52503651D01*
X58492027Y52503652D01*
X58262541Y52626314D01*
X58061393Y52791393D01*
X57896314Y52992543D01*
X57773652Y53222028D01*
X57773651Y53222030D01*
X57698114Y53471040D01*
X57679000Y53665111D01*
X57679001Y56334890D01*
X57698115Y56528961D01*
X57773652Y56777971D01*
X57896316Y57007459D01*
X58061393Y57208608D01*
X58262543Y57373686D01*
X58492028Y57496348D01*
X58492030Y57496349D01*
X58741040Y57571886D01*
X59000000Y57597391D01*
X59258961Y57571886D01*
G37*
G36*
X54258961Y57571886D02*
G01*
X54507971Y57496349D01*
X54507973Y57496348D01*
X54737458Y57373686D01*
X54938608Y57208608D01*
X55103685Y57007459D01*
X55226349Y56777971D01*
X55301886Y56528961D01*
X55321000Y56334890D01*
X55321000Y53665110D01*
X55301886Y53471039D01*
X55226349Y53222030D01*
X55226348Y53222027D01*
X55103686Y52992541D01*
X54938607Y52791393D01*
X54737457Y52626314D01*
X54507972Y52503652D01*
X54507970Y52503651D01*
X54258960Y52428114D01*
X54000000Y52402609D01*
X53741039Y52428114D01*
X53492029Y52503651D01*
X53492027Y52503652D01*
X53262541Y52626314D01*
X53061393Y52791393D01*
X52896314Y52992543D01*
X52773652Y53222028D01*
X52773651Y53222030D01*
X52698114Y53471040D01*
X52679000Y53665111D01*
X52679001Y56334890D01*
X52698115Y56528961D01*
X52773652Y56777971D01*
X52896316Y57007459D01*
X53061393Y57208608D01*
X53262543Y57373686D01*
X53492028Y57496348D01*
X53492030Y57496349D01*
X53741040Y57571886D01*
X54000000Y57597391D01*
X54258961Y57571886D01*
G37*
G36*
X64258961Y57571886D02*
G01*
X64507971Y57496349D01*
X64507973Y57496348D01*
X64737458Y57373686D01*
X64938608Y57208608D01*
X65103685Y57007459D01*
X65226349Y56777971D01*
X65301886Y56528961D01*
X65321000Y56334890D01*
X65321000Y53665110D01*
X65301886Y53471039D01*
X65226349Y53222030D01*
X65226348Y53222027D01*
X65103686Y52992541D01*
X64938607Y52791393D01*
X64737457Y52626314D01*
X64507972Y52503652D01*
X64507970Y52503651D01*
X64258960Y52428114D01*
X64000000Y52402609D01*
X63741039Y52428114D01*
X63492029Y52503651D01*
X63492027Y52503652D01*
X63262541Y52626314D01*
X63061393Y52791393D01*
X62896314Y52992543D01*
X62773652Y53222028D01*
X62773651Y53222030D01*
X62698114Y53471040D01*
X62679000Y53665111D01*
X62679001Y56334890D01*
X62698115Y56528961D01*
X62773652Y56777971D01*
X62896316Y57007459D01*
X63061393Y57208608D01*
X63262543Y57373686D01*
X63492028Y57496348D01*
X63492030Y57496349D01*
X63741040Y57571886D01*
X64000000Y57597391D01*
X64258961Y57571886D01*
G37*
G36*
X69258961Y57571886D02*
G01*
X69507971Y57496349D01*
X69507973Y57496348D01*
X69737458Y57373686D01*
X69938608Y57208608D01*
X70103685Y57007459D01*
X70226349Y56777971D01*
X70301886Y56528961D01*
X70321000Y56334890D01*
X70321000Y53665110D01*
X70301886Y53471039D01*
X70226349Y53222030D01*
X70226348Y53222027D01*
X70103686Y52992541D01*
X69938607Y52791393D01*
X69737457Y52626314D01*
X69507972Y52503652D01*
X69507970Y52503651D01*
X69258960Y52428114D01*
X69000000Y52402609D01*
X68741039Y52428114D01*
X68492029Y52503651D01*
X68492027Y52503652D01*
X68262541Y52626314D01*
X68061393Y52791393D01*
X67896314Y52992543D01*
X67773652Y53222028D01*
X67773651Y53222030D01*
X67698114Y53471040D01*
X67679000Y53665111D01*
X67679001Y56334890D01*
X67698115Y56528961D01*
X67773652Y56777971D01*
X67896316Y57007459D01*
X68061393Y57208608D01*
X68262543Y57373686D01*
X68492028Y57496348D01*
X68492030Y57496349D01*
X68741040Y57571886D01*
X69000000Y57597391D01*
X69258961Y57571886D01*
G37*
G36*
X49258961Y57571886D02*
G01*
X49507971Y57496349D01*
X49507973Y57496348D01*
X49737458Y57373686D01*
X49938608Y57208608D01*
X50103685Y57007459D01*
X50226349Y56777971D01*
X50301886Y56528961D01*
X50321000Y56334890D01*
X50321000Y53665110D01*
X50301886Y53471039D01*
X50226349Y53222030D01*
X50226348Y53222027D01*
X50103686Y52992541D01*
X49938607Y52791393D01*
X49737457Y52626314D01*
X49507972Y52503652D01*
X49507970Y52503651D01*
X49258960Y52428114D01*
X49000000Y52402609D01*
X48741039Y52428114D01*
X48492029Y52503651D01*
X48492027Y52503652D01*
X48262541Y52626314D01*
X48061393Y52791393D01*
X47896314Y52992543D01*
X47773652Y53222028D01*
X47773651Y53222030D01*
X47698114Y53471040D01*
X47679000Y53665111D01*
X47679001Y56334890D01*
X47698115Y56528961D01*
X47773652Y56777971D01*
X47896316Y57007459D01*
X48061393Y57208608D01*
X48262543Y57373686D01*
X48492028Y57496348D01*
X48492030Y57496349D01*
X48741040Y57571886D01*
X49000000Y57597391D01*
X49258961Y57571886D01*
G37*
G36*
X29258961Y57571886D02*
G01*
X29507971Y57496349D01*
X29507973Y57496348D01*
X29737458Y57373686D01*
X29938608Y57208608D01*
X30103685Y57007459D01*
X30226349Y56777971D01*
X30301886Y56528961D01*
X30321000Y56334890D01*
X30321000Y53665110D01*
X30301886Y53471039D01*
X30226349Y53222030D01*
X30226348Y53222027D01*
X30103686Y52992541D01*
X29938607Y52791393D01*
X29737457Y52626314D01*
X29507972Y52503652D01*
X29507970Y52503651D01*
X29258960Y52428114D01*
X29000000Y52402609D01*
X28741039Y52428114D01*
X28492029Y52503651D01*
X28492027Y52503652D01*
X28262541Y52626314D01*
X28061393Y52791393D01*
X27896314Y52992543D01*
X27773652Y53222028D01*
X27773651Y53222030D01*
X27698114Y53471040D01*
X27679000Y53665111D01*
X27679001Y56334890D01*
X27698115Y56528961D01*
X27773652Y56777971D01*
X27896316Y57007459D01*
X28061393Y57208608D01*
X28262543Y57373686D01*
X28492028Y57496348D01*
X28492030Y57496349D01*
X28741040Y57571886D01*
X29000000Y57597391D01*
X29258961Y57571886D01*
G37*
G36*
X44258961Y57571886D02*
G01*
X44507971Y57496349D01*
X44507973Y57496348D01*
X44737458Y57373686D01*
X44938608Y57208608D01*
X45103685Y57007459D01*
X45226349Y56777971D01*
X45301886Y56528961D01*
X45321000Y56334890D01*
X45321000Y53665110D01*
X45301886Y53471039D01*
X45226349Y53222030D01*
X45226348Y53222027D01*
X45103686Y52992541D01*
X44938607Y52791393D01*
X44737457Y52626314D01*
X44507972Y52503652D01*
X44507970Y52503651D01*
X44258960Y52428114D01*
X44000000Y52402609D01*
X43741039Y52428114D01*
X43492029Y52503651D01*
X43492027Y52503652D01*
X43262541Y52626314D01*
X43061393Y52791393D01*
X42896314Y52992543D01*
X42773652Y53222028D01*
X42773651Y53222030D01*
X42698114Y53471040D01*
X42679000Y53665111D01*
X42679001Y56334890D01*
X42698115Y56528961D01*
X42773652Y56777971D01*
X42896316Y57007459D01*
X43061393Y57208608D01*
X43262543Y57373686D01*
X43492028Y57496348D01*
X43492030Y57496349D01*
X43741040Y57571886D01*
X44000000Y57597391D01*
X44258961Y57571886D01*
G37*
G36*
X34258961Y57571886D02*
G01*
X34507971Y57496349D01*
X34507973Y57496348D01*
X34737458Y57373686D01*
X34938608Y57208608D01*
X35103685Y57007459D01*
X35226349Y56777971D01*
X35301886Y56528961D01*
X35321000Y56334890D01*
X35321000Y53665110D01*
X35301886Y53471039D01*
X35226349Y53222030D01*
X35226348Y53222027D01*
X35103686Y52992541D01*
X34938607Y52791393D01*
X34737457Y52626314D01*
X34507972Y52503652D01*
X34507970Y52503651D01*
X34258960Y52428114D01*
X34000000Y52402609D01*
X33741039Y52428114D01*
X33492029Y52503651D01*
X33492027Y52503652D01*
X33262541Y52626314D01*
X33061393Y52791393D01*
X32896314Y52992543D01*
X32773652Y53222028D01*
X32773651Y53222030D01*
X32698114Y53471040D01*
X32679000Y53665111D01*
X32679001Y56334890D01*
X32698115Y56528961D01*
X32773652Y56777971D01*
X32896316Y57007459D01*
X33061393Y57208608D01*
X33262543Y57373686D01*
X33492028Y57496348D01*
X33492030Y57496349D01*
X33741040Y57571886D01*
X34000000Y57597391D01*
X34258961Y57571886D01*
G37*
G36*
X39258961Y57571886D02*
G01*
X39507971Y57496349D01*
X39507973Y57496348D01*
X39737458Y57373686D01*
X39938608Y57208608D01*
X40103685Y57007459D01*
X40226349Y56777971D01*
X40301886Y56528961D01*
X40321000Y56334890D01*
X40321000Y53665110D01*
X40301886Y53471039D01*
X40226349Y53222030D01*
X40226348Y53222027D01*
X40103686Y52992541D01*
X39938607Y52791393D01*
X39737457Y52626314D01*
X39507972Y52503652D01*
X39507970Y52503651D01*
X39258960Y52428114D01*
X39000000Y52402609D01*
X38741039Y52428114D01*
X38492029Y52503651D01*
X38492027Y52503652D01*
X38262541Y52626314D01*
X38061393Y52791393D01*
X37896314Y52992543D01*
X37773652Y53222028D01*
X37773651Y53222030D01*
X37698114Y53471040D01*
X37679000Y53665111D01*
X37679001Y56334890D01*
X37698115Y56528961D01*
X37773652Y56777971D01*
X37896316Y57007459D01*
X38061393Y57208608D01*
X38262543Y57373686D01*
X38492028Y57496348D01*
X38492030Y57496349D01*
X38741040Y57571886D01*
X39000000Y57597391D01*
X39258961Y57571886D01*
G37*
G36*
X24258961Y57571886D02*
G01*
X24507971Y57496349D01*
X24507973Y57496348D01*
X24737458Y57373686D01*
X24938608Y57208608D01*
X25103685Y57007459D01*
X25226349Y56777971D01*
X25301886Y56528961D01*
X25321000Y56334890D01*
X25321000Y53665110D01*
X25301886Y53471039D01*
X25226349Y53222030D01*
X25226348Y53222027D01*
X25103686Y52992541D01*
X24938607Y52791393D01*
X24737457Y52626314D01*
X24507972Y52503652D01*
X24507970Y52503651D01*
X24258960Y52428114D01*
X24000000Y52402609D01*
X23741039Y52428114D01*
X23492029Y52503651D01*
X23492027Y52503652D01*
X23262541Y52626314D01*
X23061393Y52791393D01*
X22896314Y52992543D01*
X22773652Y53222028D01*
X22773651Y53222030D01*
X22698114Y53471040D01*
X22679000Y53665111D01*
X22679001Y56334890D01*
X22698115Y56528961D01*
X22773652Y56777971D01*
X22896316Y57007459D01*
X23061393Y57208608D01*
X23262543Y57373686D01*
X23492028Y57496348D01*
X23492030Y57496349D01*
X23741040Y57571886D01*
X24000000Y57597391D01*
X24258961Y57571886D01*
G37*
G36*
X14258961Y57571886D02*
G01*
X14507971Y57496349D01*
X14507973Y57496348D01*
X14737458Y57373686D01*
X14938608Y57208608D01*
X15103685Y57007459D01*
X15226349Y56777971D01*
X15301886Y56528961D01*
X15321000Y56334890D01*
X15321000Y53665110D01*
X15301886Y53471039D01*
X15226349Y53222030D01*
X15226348Y53222027D01*
X15103686Y52992541D01*
X14938607Y52791393D01*
X14737457Y52626314D01*
X14507972Y52503652D01*
X14507970Y52503651D01*
X14258960Y52428114D01*
X14000000Y52402609D01*
X13741039Y52428114D01*
X13492029Y52503651D01*
X13492027Y52503652D01*
X13262541Y52626314D01*
X13061393Y52791393D01*
X12896314Y52992543D01*
X12773652Y53222028D01*
X12773651Y53222030D01*
X12698114Y53471040D01*
X12679000Y53665111D01*
X12679001Y56334890D01*
X12698115Y56528961D01*
X12773652Y56777971D01*
X12896316Y57007459D01*
X13061393Y57208608D01*
X13262543Y57373686D01*
X13492028Y57496348D01*
X13492030Y57496349D01*
X13741040Y57571886D01*
X14000000Y57597391D01*
X14258961Y57571886D01*
G37*
G36*
X19258961Y57571886D02*
G01*
X19507971Y57496349D01*
X19507973Y57496348D01*
X19737458Y57373686D01*
X19938608Y57208608D01*
X20103685Y57007459D01*
X20226349Y56777971D01*
X20301886Y56528961D01*
X20321000Y56334890D01*
X20321000Y53665110D01*
X20301886Y53471039D01*
X20226349Y53222030D01*
X20226348Y53222027D01*
X20103686Y52992541D01*
X19938607Y52791393D01*
X19737457Y52626314D01*
X19507972Y52503652D01*
X19507970Y52503651D01*
X19258960Y52428114D01*
X19000000Y52402609D01*
X18741039Y52428114D01*
X18492029Y52503651D01*
X18492027Y52503652D01*
X18262541Y52626314D01*
X18061393Y52791393D01*
X17896314Y52992543D01*
X17773652Y53222028D01*
X17773651Y53222030D01*
X17698114Y53471040D01*
X17679000Y53665111D01*
X17679001Y56334890D01*
X17698115Y56528961D01*
X17773652Y56777971D01*
X17896316Y57007459D01*
X18061393Y57208608D01*
X18262543Y57373686D01*
X18492028Y57496348D01*
X18492030Y57496349D01*
X18741040Y57571886D01*
X19000000Y57597391D01*
X19258961Y57571886D01*
G37*
M02*
