G04 #@! TF.GenerationSoftware,KiCad,Pcbnew,(5.1.5)-3*
G04 #@! TF.CreationDate,2020-02-01T18:29:59+01:00*
G04 #@! TF.ProjectId,5i25Breakout,35693235-4272-4656-916b-6f75742e6b69,rev?*
G04 #@! TF.SameCoordinates,PXe4e1c0PY93d1cc0*
G04 #@! TF.FileFunction,Legend,Bot*
G04 #@! TF.FilePolarity,Positive*
%FSLAX46Y46*%
G04 Gerber Fmt 4.6, Leading zero omitted, Abs format (unit mm)*
G04 Created by KiCad (PCBNEW (5.1.5)-3) date 2020-02-01 18:29:59*
%MOMM*%
%LPD*%
G04 APERTURE LIST*
%ADD10C,0.120000*%
%ADD11C,0.150000*%
%ADD12C,0.200000*%
G04 APERTURE END LIST*
D10*
X49300000Y24200000D02*
G75*
G03X50000000Y24900000I0J700000D01*
G01*
X48000000Y24900000D02*
G75*
G03X48700000Y24200000I700000J0D01*
G01*
X48700000Y28300000D02*
G75*
G03X48000000Y27600000I0J-700000D01*
G01*
X50000000Y27600000D02*
G75*
G03X49300000Y28300000I-700000J0D01*
G01*
X50000000Y24850000D02*
X50000000Y27650000D01*
X49300000Y28300000D02*
X48700000Y28300000D01*
X48000000Y27650000D02*
X48000000Y24850000D01*
X48700000Y24200000D02*
X49300000Y24200000D01*
D11*
X21652091Y6940000D02*
G75*
G03X21652091Y6940000I-1082091J0D01*
G01*
X38152091Y6940000D02*
G75*
G03X38152091Y6940000I-1082091J0D01*
G01*
X71152091Y6940000D02*
G75*
G03X71152091Y6940000I-1082091J0D01*
G01*
D10*
X65800000Y24200000D02*
G75*
G03X66500000Y24900000I0J700000D01*
G01*
X64500000Y24900000D02*
G75*
G03X65200000Y24200000I700000J0D01*
G01*
X65200000Y28300000D02*
G75*
G03X64500000Y27600000I0J-700000D01*
G01*
X66500000Y27600000D02*
G75*
G03X65800000Y28300000I-700000J0D01*
G01*
X66500000Y24850000D02*
X66500000Y27650000D01*
X65800000Y28300000D02*
X65200000Y28300000D01*
X64500000Y27650000D02*
X64500000Y24850000D01*
X65200000Y24200000D02*
X65800000Y24200000D01*
X71200000Y28300000D02*
G75*
G03X70500000Y27600000I0J-700000D01*
G01*
X72500000Y27600000D02*
G75*
G03X71800000Y28300000I-700000J0D01*
G01*
X71800000Y24200000D02*
G75*
G03X72500000Y24900000I0J700000D01*
G01*
X70500000Y24900000D02*
G75*
G03X71200000Y24200000I700000J0D01*
G01*
X70500000Y27650000D02*
X70500000Y24850000D01*
X71200000Y24200000D02*
X71800000Y24200000D01*
X72500000Y24850000D02*
X72500000Y27650000D01*
X71800000Y28300000D02*
X71200000Y28300000D01*
X54700000Y28300000D02*
G75*
G03X54000000Y27600000I0J-700000D01*
G01*
X56000000Y27600000D02*
G75*
G03X55300000Y28300000I-700000J0D01*
G01*
X55300000Y24200000D02*
G75*
G03X56000000Y24900000I0J700000D01*
G01*
X54000000Y24900000D02*
G75*
G03X54700000Y24200000I700000J0D01*
G01*
X54000000Y27650000D02*
X54000000Y24850000D01*
X54700000Y24200000D02*
X55300000Y24200000D01*
X56000000Y24850000D02*
X56000000Y27650000D01*
X55300000Y28300000D02*
X54700000Y28300000D01*
X35050000Y24200000D02*
G75*
G03X35750000Y24900000I0J700000D01*
G01*
X33750000Y24900000D02*
G75*
G03X34450000Y24200000I700000J0D01*
G01*
X34450000Y28300000D02*
G75*
G03X33750000Y27600000I0J-700000D01*
G01*
X35750000Y27600000D02*
G75*
G03X35050000Y28300000I-700000J0D01*
G01*
X35750000Y24850000D02*
X35750000Y27650000D01*
X35050000Y28300000D02*
X34450000Y28300000D01*
X33750000Y27650000D02*
X33750000Y24850000D01*
X34450000Y24200000D02*
X35050000Y24200000D01*
X40450000Y28300000D02*
G75*
G03X39750000Y27600000I0J-700000D01*
G01*
X41750000Y27600000D02*
G75*
G03X41050000Y28300000I-700000J0D01*
G01*
X41050000Y24200000D02*
G75*
G03X41750000Y24900000I0J700000D01*
G01*
X39750000Y24900000D02*
G75*
G03X40450000Y24200000I700000J0D01*
G01*
X39750000Y27650000D02*
X39750000Y24850000D01*
X40450000Y24200000D02*
X41050000Y24200000D01*
X41750000Y24850000D02*
X41750000Y27650000D01*
X41050000Y28300000D02*
X40450000Y28300000D01*
X21050000Y24200000D02*
G75*
G03X21750000Y24900000I0J700000D01*
G01*
X19750000Y24900000D02*
G75*
G03X20450000Y24200000I700000J0D01*
G01*
X20450000Y28300000D02*
G75*
G03X19750000Y27600000I0J-700000D01*
G01*
X21750000Y27600000D02*
G75*
G03X21050000Y28300000I-700000J0D01*
G01*
X21750000Y24850000D02*
X21750000Y27650000D01*
X21050000Y28300000D02*
X20450000Y28300000D01*
X19750000Y27650000D02*
X19750000Y24850000D01*
X20450000Y24200000D02*
X21050000Y24200000D01*
X26450000Y28300000D02*
G75*
G03X25750000Y27600000I0J-700000D01*
G01*
X27750000Y27600000D02*
G75*
G03X27050000Y28300000I-700000J0D01*
G01*
X27050000Y24200000D02*
G75*
G03X27750000Y24900000I0J700000D01*
G01*
X25750000Y24900000D02*
G75*
G03X26450000Y24200000I700000J0D01*
G01*
X25750000Y27650000D02*
X25750000Y24850000D01*
X26450000Y24200000D02*
X27050000Y24200000D01*
X27750000Y24850000D02*
X27750000Y27650000D01*
X27050000Y28300000D02*
X26450000Y28300000D01*
D11*
X44718000Y20258000D02*
X44210000Y20258000D01*
X44718000Y18988000D02*
X44718000Y20258000D01*
X44210000Y18988000D02*
X44718000Y18988000D01*
X44210000Y22036000D02*
X44210000Y17464000D01*
X49290000Y22036000D02*
X44210000Y22036000D01*
X49290000Y17464000D02*
X49290000Y22036000D01*
X44210000Y17464000D02*
X49290000Y17464000D01*
X44250000Y23500000D02*
X44250000Y22250000D01*
X45500000Y22250000D02*
X45500000Y23500000D01*
X45500000Y23500000D02*
X44250000Y23500000D01*
X50968000Y20258000D02*
X50460000Y20258000D01*
X50968000Y18988000D02*
X50968000Y20258000D01*
X50460000Y18988000D02*
X50968000Y18988000D01*
X50460000Y22036000D02*
X50460000Y17464000D01*
X55540000Y22036000D02*
X50460000Y22036000D01*
X55540000Y17464000D02*
X55540000Y22036000D01*
X50460000Y17464000D02*
X55540000Y17464000D01*
X50500000Y23500000D02*
X50500000Y22250000D01*
X51750000Y22250000D02*
X51750000Y23500000D01*
X51750000Y23500000D02*
X50500000Y23500000D01*
X47150000Y26000000D02*
X46350000Y26000000D01*
X47150000Y25000000D02*
X46350000Y25000000D01*
X47150000Y26300000D02*
X47150000Y24700000D01*
X46350000Y26300000D02*
X47150000Y26300000D01*
X46350000Y24700000D02*
X46350000Y26300000D01*
X47150000Y24700000D02*
X46350000Y24700000D01*
X53400000Y26000000D02*
X52600000Y26000000D01*
X53400000Y25000000D02*
X52600000Y25000000D01*
X53400000Y26300000D02*
X53400000Y24700000D01*
X52600000Y26300000D02*
X53400000Y26300000D01*
X52600000Y24700000D02*
X52600000Y26300000D01*
X53400000Y24700000D02*
X52600000Y24700000D01*
X47850000Y3500000D02*
X48650000Y3500000D01*
X47850000Y4500000D02*
X48650000Y4500000D01*
X47850000Y3200000D02*
X47850000Y4800000D01*
X48650000Y3200000D02*
X47850000Y3200000D01*
X48650000Y4800000D02*
X48650000Y3200000D01*
X47850000Y4800000D02*
X48650000Y4800000D01*
X47000000Y15150000D02*
X47000000Y14350000D01*
X48000000Y15150000D02*
X48000000Y14350000D01*
X46700000Y15150000D02*
X48300000Y15150000D01*
X46700000Y14350000D02*
X46700000Y15150000D01*
X48300000Y14350000D02*
X46700000Y14350000D01*
X48300000Y15150000D02*
X48300000Y14350000D01*
X50400000Y4500000D02*
X49600000Y4500000D01*
X50400000Y3500000D02*
X49600000Y3500000D01*
X50400000Y4800000D02*
X50400000Y3200000D01*
X49600000Y4800000D02*
X50400000Y4800000D01*
X49600000Y3200000D02*
X49600000Y4800000D01*
X50400000Y3200000D02*
X49600000Y3200000D01*
X51350000Y3500000D02*
X52150000Y3500000D01*
X51350000Y4500000D02*
X52150000Y4500000D01*
X51350000Y3200000D02*
X51350000Y4800000D01*
X52150000Y3200000D02*
X51350000Y3200000D01*
X52150000Y4800000D02*
X52150000Y3200000D01*
X51350000Y4800000D02*
X52150000Y4800000D01*
X52750000Y11900000D02*
X52750000Y11100000D01*
X53750000Y11900000D02*
X53750000Y11100000D01*
X52450000Y11900000D02*
X54050000Y11900000D01*
X52450000Y11100000D02*
X52450000Y11900000D01*
X54050000Y11100000D02*
X52450000Y11100000D01*
X54050000Y11900000D02*
X54050000Y11100000D01*
X53900000Y4500000D02*
X53100000Y4500000D01*
X53900000Y3500000D02*
X53100000Y3500000D01*
X53900000Y4800000D02*
X53900000Y3200000D01*
X53100000Y4800000D02*
X53900000Y4800000D01*
X53100000Y3200000D02*
X53100000Y4800000D01*
X53900000Y3200000D02*
X53100000Y3200000D01*
X44500000Y8350000D02*
X44500000Y9150000D01*
X43500000Y8350000D02*
X43500000Y9150000D01*
X44800000Y8350000D02*
X43200000Y8350000D01*
X44800000Y9150000D02*
X44800000Y8350000D01*
X43200000Y9150000D02*
X44800000Y9150000D01*
X43200000Y8350000D02*
X43200000Y9150000D01*
X56650000Y19750000D02*
X55850000Y19750000D01*
X56650000Y18750000D02*
X55850000Y18750000D01*
X56650000Y20050000D02*
X56650000Y18450000D01*
X55850000Y20050000D02*
X56650000Y20050000D01*
X55850000Y18450000D02*
X55850000Y20050000D01*
X56650000Y18450000D02*
X55850000Y18450000D01*
X54652091Y6940000D02*
G75*
G03X54652091Y6940000I-1082091J0D01*
G01*
X56650000Y22750000D02*
X55850000Y22750000D01*
X56650000Y21750000D02*
X55850000Y21750000D01*
X56650000Y23050000D02*
X56650000Y21450000D01*
X55850000Y23050000D02*
X56650000Y23050000D01*
X55850000Y21450000D02*
X55850000Y23050000D01*
X56650000Y21450000D02*
X55850000Y21450000D01*
X43100000Y15500000D02*
X43900000Y15500000D01*
X43100000Y16500000D02*
X43900000Y16500000D01*
X43100000Y15200000D02*
X43100000Y16800000D01*
X43900000Y15200000D02*
X43100000Y15200000D01*
X43900000Y16800000D02*
X43900000Y15200000D01*
X43100000Y16800000D02*
X43900000Y16800000D01*
X50000000Y15650000D02*
X50000000Y14850000D01*
X51000000Y15650000D02*
X51000000Y14850000D01*
X49700000Y15650000D02*
X51300000Y15650000D01*
X49700000Y14850000D02*
X49700000Y15650000D01*
X51300000Y14850000D02*
X49700000Y14850000D01*
X51300000Y15650000D02*
X51300000Y14850000D01*
X44750000Y6850000D02*
X44750000Y7650000D01*
X43750000Y6850000D02*
X43750000Y7650000D01*
X45050000Y6850000D02*
X43450000Y6850000D01*
X45050000Y7650000D02*
X45050000Y6850000D01*
X43450000Y7650000D02*
X45050000Y7650000D01*
X43450000Y6850000D02*
X43450000Y7650000D01*
X30468000Y20258000D02*
X29960000Y20258000D01*
X30468000Y18988000D02*
X30468000Y20258000D01*
X29960000Y18988000D02*
X30468000Y18988000D01*
X29960000Y22036000D02*
X29960000Y17464000D01*
X35040000Y22036000D02*
X29960000Y22036000D01*
X35040000Y17464000D02*
X35040000Y22036000D01*
X29960000Y17464000D02*
X35040000Y17464000D01*
X30000000Y23500000D02*
X30000000Y22250000D01*
X31250000Y22250000D02*
X31250000Y23500000D01*
X31250000Y23500000D02*
X30000000Y23500000D01*
X36718000Y20258000D02*
X36210000Y20258000D01*
X36718000Y18988000D02*
X36718000Y20258000D01*
X36210000Y18988000D02*
X36718000Y18988000D01*
X36210000Y22036000D02*
X36210000Y17464000D01*
X41290000Y22036000D02*
X36210000Y22036000D01*
X41290000Y17464000D02*
X41290000Y22036000D01*
X36210000Y17464000D02*
X41290000Y17464000D01*
X36250000Y23500000D02*
X36250000Y22250000D01*
X37500000Y22250000D02*
X37500000Y23500000D01*
X37500000Y23500000D02*
X36250000Y23500000D01*
X32900000Y26000000D02*
X32100000Y26000000D01*
X32900000Y25000000D02*
X32100000Y25000000D01*
X32900000Y26300000D02*
X32900000Y24700000D01*
X32100000Y26300000D02*
X32900000Y26300000D01*
X32100000Y24700000D02*
X32100000Y26300000D01*
X32900000Y24700000D02*
X32100000Y24700000D01*
X39150000Y26000000D02*
X38350000Y26000000D01*
X39150000Y25000000D02*
X38350000Y25000000D01*
X39150000Y26300000D02*
X39150000Y24700000D01*
X38350000Y26300000D02*
X39150000Y26300000D01*
X38350000Y24700000D02*
X38350000Y26300000D01*
X39150000Y24700000D02*
X38350000Y24700000D01*
X31350000Y3500000D02*
X32150000Y3500000D01*
X31350000Y4500000D02*
X32150000Y4500000D01*
X31350000Y3200000D02*
X31350000Y4800000D01*
X32150000Y3200000D02*
X31350000Y3200000D01*
X32150000Y4800000D02*
X32150000Y3200000D01*
X31350000Y4800000D02*
X32150000Y4800000D01*
X32000000Y15150000D02*
X32000000Y14350000D01*
X33000000Y15150000D02*
X33000000Y14350000D01*
X31700000Y15150000D02*
X33300000Y15150000D01*
X31700000Y14350000D02*
X31700000Y15150000D01*
X33300000Y14350000D02*
X31700000Y14350000D01*
X33300000Y15150000D02*
X33300000Y14350000D01*
X33900000Y4500000D02*
X33100000Y4500000D01*
X33900000Y3500000D02*
X33100000Y3500000D01*
X33900000Y4800000D02*
X33900000Y3200000D01*
X33100000Y4800000D02*
X33900000Y4800000D01*
X33100000Y3200000D02*
X33100000Y4800000D01*
X33900000Y3200000D02*
X33100000Y3200000D01*
X34850000Y3500000D02*
X35650000Y3500000D01*
X34850000Y4500000D02*
X35650000Y4500000D01*
X34850000Y3200000D02*
X34850000Y4800000D01*
X35650000Y3200000D02*
X34850000Y3200000D01*
X35650000Y4800000D02*
X35650000Y3200000D01*
X34850000Y4800000D02*
X35650000Y4800000D01*
X37750000Y11900000D02*
X37750000Y11100000D01*
X38750000Y11900000D02*
X38750000Y11100000D01*
X37450000Y11900000D02*
X39050000Y11900000D01*
X37450000Y11100000D02*
X37450000Y11900000D01*
X39050000Y11100000D02*
X37450000Y11100000D01*
X39050000Y11900000D02*
X39050000Y11100000D01*
X37400000Y4500000D02*
X36600000Y4500000D01*
X37400000Y3500000D02*
X36600000Y3500000D01*
X37400000Y4800000D02*
X37400000Y3200000D01*
X36600000Y4800000D02*
X37400000Y4800000D01*
X36600000Y3200000D02*
X36600000Y4800000D01*
X37400000Y3200000D02*
X36600000Y3200000D01*
X28000000Y8350000D02*
X28000000Y9150000D01*
X27000000Y8350000D02*
X27000000Y9150000D01*
X28300000Y8350000D02*
X26700000Y8350000D01*
X28300000Y9150000D02*
X28300000Y8350000D01*
X26700000Y9150000D02*
X28300000Y9150000D01*
X26700000Y8350000D02*
X26700000Y9150000D01*
X42400000Y19750000D02*
X41600000Y19750000D01*
X42400000Y18750000D02*
X41600000Y18750000D01*
X42400000Y20050000D02*
X42400000Y18450000D01*
X41600000Y20050000D02*
X42400000Y20050000D01*
X41600000Y18450000D02*
X41600000Y20050000D01*
X42400000Y18450000D02*
X41600000Y18450000D01*
X42400000Y22750000D02*
X41600000Y22750000D01*
X42400000Y21750000D02*
X41600000Y21750000D01*
X42400000Y23050000D02*
X42400000Y21450000D01*
X41600000Y23050000D02*
X42400000Y23050000D01*
X41600000Y21450000D02*
X41600000Y23050000D01*
X42400000Y21450000D02*
X41600000Y21450000D01*
X28850000Y15500000D02*
X29650000Y15500000D01*
X28850000Y16500000D02*
X29650000Y16500000D01*
X28850000Y15200000D02*
X28850000Y16800000D01*
X29650000Y15200000D02*
X28850000Y15200000D01*
X29650000Y16800000D02*
X29650000Y15200000D01*
X28850000Y16800000D02*
X29650000Y16800000D01*
X35750000Y15650000D02*
X35750000Y14850000D01*
X36750000Y15650000D02*
X36750000Y14850000D01*
X35450000Y15650000D02*
X37050000Y15650000D01*
X35450000Y14850000D02*
X35450000Y15650000D01*
X37050000Y14850000D02*
X35450000Y14850000D01*
X37050000Y15650000D02*
X37050000Y14850000D01*
X28250000Y6850000D02*
X28250000Y7650000D01*
X27250000Y6850000D02*
X27250000Y7650000D01*
X28550000Y6850000D02*
X26950000Y6850000D01*
X28550000Y7650000D02*
X28550000Y6850000D01*
X26950000Y7650000D02*
X28550000Y7650000D01*
X26950000Y6850000D02*
X26950000Y7650000D01*
X28400000Y19750000D02*
X27600000Y19750000D01*
X28400000Y18750000D02*
X27600000Y18750000D01*
X28400000Y20050000D02*
X28400000Y18450000D01*
X27600000Y20050000D02*
X28400000Y20050000D01*
X27600000Y18450000D02*
X27600000Y20050000D01*
X28400000Y18450000D02*
X27600000Y18450000D01*
X22500000Y11900000D02*
X22500000Y11100000D01*
X23500000Y11900000D02*
X23500000Y11100000D01*
X22200000Y11900000D02*
X23800000Y11900000D01*
X22200000Y11100000D02*
X22200000Y11900000D01*
X23800000Y11100000D02*
X22200000Y11100000D01*
X23800000Y11900000D02*
X23800000Y11100000D01*
X11750000Y6850000D02*
X11750000Y7650000D01*
X10750000Y6850000D02*
X10750000Y7650000D01*
X12050000Y6850000D02*
X10450000Y6850000D01*
X12050000Y7650000D02*
X12050000Y6850000D01*
X10450000Y7650000D02*
X12050000Y7650000D01*
X10450000Y6850000D02*
X10450000Y7650000D01*
X21750000Y15650000D02*
X21750000Y14850000D01*
X22750000Y15650000D02*
X22750000Y14850000D01*
X21450000Y15650000D02*
X23050000Y15650000D01*
X21450000Y14850000D02*
X21450000Y15650000D01*
X23050000Y14850000D02*
X21450000Y14850000D01*
X23050000Y15650000D02*
X23050000Y14850000D01*
X15850000Y13500000D02*
X16650000Y13500000D01*
X15850000Y14500000D02*
X16650000Y14500000D01*
X15850000Y13200000D02*
X15850000Y14800000D01*
X16650000Y13200000D02*
X15850000Y13200000D01*
X16650000Y14800000D02*
X16650000Y13200000D01*
X15850000Y14800000D02*
X16650000Y14800000D01*
X28400000Y22750000D02*
X27600000Y22750000D01*
X28400000Y21750000D02*
X27600000Y21750000D01*
X28400000Y23050000D02*
X28400000Y21450000D01*
X27600000Y23050000D02*
X28400000Y23050000D01*
X27600000Y21450000D02*
X27600000Y23050000D01*
X28400000Y21450000D02*
X27600000Y21450000D01*
X11500000Y8350000D02*
X11500000Y9150000D01*
X10500000Y8350000D02*
X10500000Y9150000D01*
X11800000Y8350000D02*
X10200000Y8350000D01*
X11800000Y9150000D02*
X11800000Y8350000D01*
X10200000Y9150000D02*
X11800000Y9150000D01*
X10200000Y8350000D02*
X10200000Y9150000D01*
X20900000Y4500000D02*
X20100000Y4500000D01*
X20900000Y3500000D02*
X20100000Y3500000D01*
X20900000Y4800000D02*
X20900000Y3200000D01*
X20100000Y4800000D02*
X20900000Y4800000D01*
X20100000Y3200000D02*
X20100000Y4800000D01*
X20900000Y3200000D02*
X20100000Y3200000D01*
X18350000Y3500000D02*
X19150000Y3500000D01*
X18350000Y4500000D02*
X19150000Y4500000D01*
X18350000Y3200000D02*
X18350000Y4800000D01*
X19150000Y3200000D02*
X18350000Y3200000D01*
X19150000Y4800000D02*
X19150000Y3200000D01*
X18350000Y4800000D02*
X19150000Y4800000D01*
X17400000Y4500000D02*
X16600000Y4500000D01*
X17400000Y3500000D02*
X16600000Y3500000D01*
X17400000Y4800000D02*
X17400000Y3200000D01*
X16600000Y4800000D02*
X17400000Y4800000D01*
X16600000Y3200000D02*
X16600000Y4800000D01*
X17400000Y3200000D02*
X16600000Y3200000D01*
X18000000Y15150000D02*
X18000000Y14350000D01*
X19000000Y15150000D02*
X19000000Y14350000D01*
X17700000Y15150000D02*
X19300000Y15150000D01*
X17700000Y14350000D02*
X17700000Y15150000D01*
X19300000Y14350000D02*
X17700000Y14350000D01*
X19300000Y15150000D02*
X19300000Y14350000D01*
X14850000Y3500000D02*
X15650000Y3500000D01*
X14850000Y4500000D02*
X15650000Y4500000D01*
X14850000Y3200000D02*
X14850000Y4800000D01*
X15650000Y3200000D02*
X14850000Y3200000D01*
X15650000Y4800000D02*
X15650000Y3200000D01*
X14850000Y4800000D02*
X15650000Y4800000D01*
X25150000Y26000000D02*
X24350000Y26000000D01*
X25150000Y25000000D02*
X24350000Y25000000D01*
X25150000Y26300000D02*
X25150000Y24700000D01*
X24350000Y26300000D02*
X25150000Y26300000D01*
X24350000Y24700000D02*
X24350000Y26300000D01*
X25150000Y24700000D02*
X24350000Y24700000D01*
X18900000Y26000000D02*
X18100000Y26000000D01*
X18900000Y25000000D02*
X18100000Y25000000D01*
X18900000Y26300000D02*
X18900000Y24700000D01*
X18100000Y26300000D02*
X18900000Y26300000D01*
X18100000Y24700000D02*
X18100000Y26300000D01*
X18900000Y24700000D02*
X18100000Y24700000D01*
X22718000Y20258000D02*
X22210000Y20258000D01*
X22718000Y18988000D02*
X22718000Y20258000D01*
X22210000Y18988000D02*
X22718000Y18988000D01*
X22210000Y22036000D02*
X22210000Y17464000D01*
X27290000Y22036000D02*
X22210000Y22036000D01*
X27290000Y17464000D02*
X27290000Y22036000D01*
X22210000Y17464000D02*
X27290000Y17464000D01*
X22250000Y23500000D02*
X22250000Y22250000D01*
X23500000Y22250000D02*
X23500000Y23500000D01*
X23500000Y23500000D02*
X22250000Y23500000D01*
X16468000Y20258000D02*
X15960000Y20258000D01*
X16468000Y18988000D02*
X16468000Y20258000D01*
X15960000Y18988000D02*
X16468000Y18988000D01*
X15960000Y22036000D02*
X15960000Y17464000D01*
X21040000Y22036000D02*
X15960000Y22036000D01*
X21040000Y17464000D02*
X21040000Y22036000D01*
X15960000Y17464000D02*
X21040000Y17464000D01*
X16000000Y23500000D02*
X16000000Y22250000D01*
X17250000Y22250000D02*
X17250000Y23500000D01*
X17250000Y23500000D02*
X16000000Y23500000D01*
X61250000Y6850000D02*
X61250000Y7650000D01*
X60250000Y6850000D02*
X60250000Y7650000D01*
X61550000Y6850000D02*
X59950000Y6850000D01*
X61550000Y7650000D02*
X61550000Y6850000D01*
X59950000Y7650000D02*
X61550000Y7650000D01*
X59950000Y6850000D02*
X59950000Y7650000D01*
X66500000Y15650000D02*
X66500000Y14850000D01*
X67500000Y15650000D02*
X67500000Y14850000D01*
X66200000Y15650000D02*
X67800000Y15650000D01*
X66200000Y14850000D02*
X66200000Y15650000D01*
X67800000Y14850000D02*
X66200000Y14850000D01*
X67800000Y15650000D02*
X67800000Y14850000D01*
X59600000Y15500000D02*
X60400000Y15500000D01*
X59600000Y16500000D02*
X60400000Y16500000D01*
X59600000Y15200000D02*
X59600000Y16800000D01*
X60400000Y15200000D02*
X59600000Y15200000D01*
X60400000Y16800000D02*
X60400000Y15200000D01*
X59600000Y16800000D02*
X60400000Y16800000D01*
X73150000Y22750000D02*
X72350000Y22750000D01*
X73150000Y21750000D02*
X72350000Y21750000D01*
X73150000Y23050000D02*
X73150000Y21450000D01*
X72350000Y23050000D02*
X73150000Y23050000D01*
X72350000Y21450000D02*
X72350000Y23050000D01*
X73150000Y21450000D02*
X72350000Y21450000D01*
X73150000Y20000000D02*
X72350000Y20000000D01*
X73150000Y19000000D02*
X72350000Y19000000D01*
X73150000Y20300000D02*
X73150000Y18700000D01*
X72350000Y20300000D02*
X73150000Y20300000D01*
X72350000Y18700000D02*
X72350000Y20300000D01*
X73150000Y18700000D02*
X72350000Y18700000D01*
X61000000Y8350000D02*
X61000000Y9150000D01*
X60000000Y8350000D02*
X60000000Y9150000D01*
X61300000Y8350000D02*
X59700000Y8350000D01*
X61300000Y9150000D02*
X61300000Y8350000D01*
X59700000Y9150000D02*
X61300000Y9150000D01*
X59700000Y8350000D02*
X59700000Y9150000D01*
X70400000Y4500000D02*
X69600000Y4500000D01*
X70400000Y3500000D02*
X69600000Y3500000D01*
X70400000Y4800000D02*
X70400000Y3200000D01*
X69600000Y4800000D02*
X70400000Y4800000D01*
X69600000Y3200000D02*
X69600000Y4800000D01*
X70400000Y3200000D02*
X69600000Y3200000D01*
X69500000Y11900000D02*
X69500000Y11100000D01*
X70500000Y11900000D02*
X70500000Y11100000D01*
X69200000Y11900000D02*
X70800000Y11900000D01*
X69200000Y11100000D02*
X69200000Y11900000D01*
X70800000Y11100000D02*
X69200000Y11100000D01*
X70800000Y11900000D02*
X70800000Y11100000D01*
X67850000Y3500000D02*
X68650000Y3500000D01*
X67850000Y4500000D02*
X68650000Y4500000D01*
X67850000Y3200000D02*
X67850000Y4800000D01*
X68650000Y3200000D02*
X67850000Y3200000D01*
X68650000Y4800000D02*
X68650000Y3200000D01*
X67850000Y4800000D02*
X68650000Y4800000D01*
X66900000Y4500000D02*
X66100000Y4500000D01*
X66900000Y3500000D02*
X66100000Y3500000D01*
X66900000Y4800000D02*
X66900000Y3200000D01*
X66100000Y4800000D02*
X66900000Y4800000D01*
X66100000Y3200000D02*
X66100000Y4800000D01*
X66900000Y3200000D02*
X66100000Y3200000D01*
X63500000Y15150000D02*
X63500000Y14350000D01*
X64500000Y15150000D02*
X64500000Y14350000D01*
X63200000Y15150000D02*
X64800000Y15150000D01*
X63200000Y14350000D02*
X63200000Y15150000D01*
X64800000Y14350000D02*
X63200000Y14350000D01*
X64800000Y15150000D02*
X64800000Y14350000D01*
X64350000Y3500000D02*
X65150000Y3500000D01*
X64350000Y4500000D02*
X65150000Y4500000D01*
X64350000Y3200000D02*
X64350000Y4800000D01*
X65150000Y3200000D02*
X64350000Y3200000D01*
X65150000Y4800000D02*
X65150000Y3200000D01*
X64350000Y4800000D02*
X65150000Y4800000D01*
X69900000Y26000000D02*
X69100000Y26000000D01*
X69900000Y25000000D02*
X69100000Y25000000D01*
X69900000Y26300000D02*
X69900000Y24700000D01*
X69100000Y26300000D02*
X69900000Y26300000D01*
X69100000Y24700000D02*
X69100000Y26300000D01*
X69900000Y24700000D02*
X69100000Y24700000D01*
X63650000Y26000000D02*
X62850000Y26000000D01*
X63650000Y25000000D02*
X62850000Y25000000D01*
X63650000Y26300000D02*
X63650000Y24700000D01*
X62850000Y26300000D02*
X63650000Y26300000D01*
X62850000Y24700000D02*
X62850000Y26300000D01*
X63650000Y24700000D02*
X62850000Y24700000D01*
X67468000Y20258000D02*
X66960000Y20258000D01*
X67468000Y18988000D02*
X67468000Y20258000D01*
X66960000Y18988000D02*
X67468000Y18988000D01*
X66960000Y22036000D02*
X66960000Y17464000D01*
X72040000Y22036000D02*
X66960000Y22036000D01*
X72040000Y17464000D02*
X72040000Y22036000D01*
X66960000Y17464000D02*
X72040000Y17464000D01*
X67000000Y23500000D02*
X67000000Y22250000D01*
X68250000Y22250000D02*
X68250000Y23500000D01*
X68250000Y23500000D02*
X67000000Y23500000D01*
X61218000Y20258000D02*
X60710000Y20258000D01*
X61218000Y18988000D02*
X61218000Y20258000D01*
X60710000Y18988000D02*
X61218000Y18988000D01*
X60710000Y22036000D02*
X60710000Y17464000D01*
X65790000Y22036000D02*
X60710000Y22036000D01*
X65790000Y17464000D02*
X65790000Y22036000D01*
X60710000Y17464000D02*
X65790000Y17464000D01*
X60750000Y23500000D02*
X60750000Y22250000D01*
X62000000Y22250000D02*
X62000000Y23500000D01*
X62000000Y23500000D02*
X60750000Y23500000D01*
X50252380Y27083334D02*
X50966666Y27083334D01*
X51109523Y27130953D01*
X51204761Y27226191D01*
X51252380Y27369048D01*
X51252380Y27464286D01*
X51252380Y26607143D02*
X50252380Y26607143D01*
X50252380Y26226191D01*
X50300000Y26130953D01*
X50347619Y26083334D01*
X50442857Y26035715D01*
X50585714Y26035715D01*
X50680952Y26083334D01*
X50728571Y26130953D01*
X50776190Y26226191D01*
X50776190Y26607143D01*
X50252380Y25178572D02*
X50252380Y25369048D01*
X50300000Y25464286D01*
X50347619Y25511905D01*
X50490476Y25607143D01*
X50680952Y25654762D01*
X51061904Y25654762D01*
X51157142Y25607143D01*
X51204761Y25559524D01*
X51252380Y25464286D01*
X51252380Y25273810D01*
X51204761Y25178572D01*
X51157142Y25130953D01*
X51061904Y25083334D01*
X50823809Y25083334D01*
X50728571Y25130953D01*
X50680952Y25178572D01*
X50633333Y25273810D01*
X50633333Y25464286D01*
X50680952Y25559524D01*
X50728571Y25607143D01*
X50823809Y25654762D01*
X49452380Y23364286D02*
X49452380Y23935715D01*
X49452380Y23650000D02*
X48452380Y23650000D01*
X48595238Y23745239D01*
X48690476Y23840477D01*
X48738095Y23935715D01*
X48452380Y29183334D02*
X48452380Y28564286D01*
X48833333Y28897620D01*
X48833333Y28754762D01*
X48880952Y28659524D01*
X48928571Y28611905D01*
X49023809Y28564286D01*
X49261904Y28564286D01*
X49357142Y28611905D01*
X49404761Y28659524D01*
X49452380Y28754762D01*
X49452380Y29040477D01*
X49404761Y29135715D01*
X49357142Y29183334D01*
X66752380Y27083334D02*
X67466666Y27083334D01*
X67609523Y27130953D01*
X67704761Y27226191D01*
X67752380Y27369048D01*
X67752380Y27464286D01*
X67752380Y26607143D02*
X66752380Y26607143D01*
X66752380Y26226191D01*
X66800000Y26130953D01*
X66847619Y26083334D01*
X66942857Y26035715D01*
X67085714Y26035715D01*
X67180952Y26083334D01*
X67228571Y26130953D01*
X67276190Y26226191D01*
X67276190Y26607143D01*
X67180952Y25464286D02*
X67133333Y25559524D01*
X67085714Y25607143D01*
X66990476Y25654762D01*
X66942857Y25654762D01*
X66847619Y25607143D01*
X66800000Y25559524D01*
X66752380Y25464286D01*
X66752380Y25273810D01*
X66800000Y25178572D01*
X66847619Y25130953D01*
X66942857Y25083334D01*
X66990476Y25083334D01*
X67085714Y25130953D01*
X67133333Y25178572D01*
X67180952Y25273810D01*
X67180952Y25464286D01*
X67228571Y25559524D01*
X67276190Y25607143D01*
X67371428Y25654762D01*
X67561904Y25654762D01*
X67657142Y25607143D01*
X67704761Y25559524D01*
X67752380Y25464286D01*
X67752380Y25273810D01*
X67704761Y25178572D01*
X67657142Y25130953D01*
X67561904Y25083334D01*
X67371428Y25083334D01*
X67276190Y25130953D01*
X67228571Y25178572D01*
X67180952Y25273810D01*
X65952380Y23364286D02*
X65952380Y23935715D01*
X65952380Y23650000D02*
X64952380Y23650000D01*
X65095238Y23745239D01*
X65190476Y23840477D01*
X65238095Y23935715D01*
X64952380Y29183334D02*
X64952380Y28564286D01*
X65333333Y28897620D01*
X65333333Y28754762D01*
X65380952Y28659524D01*
X65428571Y28611905D01*
X65523809Y28564286D01*
X65761904Y28564286D01*
X65857142Y28611905D01*
X65904761Y28659524D01*
X65952380Y28754762D01*
X65952380Y29040477D01*
X65904761Y29135715D01*
X65857142Y29183334D01*
X69152380Y27083334D02*
X69866666Y27083334D01*
X70009523Y27130953D01*
X70104761Y27226191D01*
X70152380Y27369048D01*
X70152380Y27464286D01*
X70152380Y26607143D02*
X69152380Y26607143D01*
X69152380Y26226191D01*
X69200000Y26130953D01*
X69247619Y26083334D01*
X69342857Y26035715D01*
X69485714Y26035715D01*
X69580952Y26083334D01*
X69628571Y26130953D01*
X69676190Y26226191D01*
X69676190Y26607143D01*
X69152380Y25702381D02*
X69152380Y25035715D01*
X70152380Y25464286D01*
X71952380Y28564286D02*
X71952380Y29135715D01*
X71952380Y28850000D02*
X70952380Y28850000D01*
X71095238Y28945239D01*
X71190476Y29040477D01*
X71238095Y29135715D01*
X70952380Y23983334D02*
X70952380Y23364286D01*
X71333333Y23697620D01*
X71333333Y23554762D01*
X71380952Y23459524D01*
X71428571Y23411905D01*
X71523809Y23364286D01*
X71761904Y23364286D01*
X71857142Y23411905D01*
X71904761Y23459524D01*
X71952380Y23554762D01*
X71952380Y23840477D01*
X71904761Y23935715D01*
X71857142Y23983334D01*
X52652380Y27083334D02*
X53366666Y27083334D01*
X53509523Y27130953D01*
X53604761Y27226191D01*
X53652380Y27369048D01*
X53652380Y27464286D01*
X53652380Y26607143D02*
X52652380Y26607143D01*
X52652380Y26226191D01*
X52700000Y26130953D01*
X52747619Y26083334D01*
X52842857Y26035715D01*
X52985714Y26035715D01*
X53080952Y26083334D01*
X53128571Y26130953D01*
X53176190Y26226191D01*
X53176190Y26607143D01*
X52652380Y25130953D02*
X52652380Y25607143D01*
X53128571Y25654762D01*
X53080952Y25607143D01*
X53033333Y25511905D01*
X53033333Y25273810D01*
X53080952Y25178572D01*
X53128571Y25130953D01*
X53223809Y25083334D01*
X53461904Y25083334D01*
X53557142Y25130953D01*
X53604761Y25178572D01*
X53652380Y25273810D01*
X53652380Y25511905D01*
X53604761Y25607143D01*
X53557142Y25654762D01*
X55452380Y28564286D02*
X55452380Y29135715D01*
X55452380Y28850000D02*
X54452380Y28850000D01*
X54595238Y28945239D01*
X54690476Y29040477D01*
X54738095Y29135715D01*
X54452380Y23983334D02*
X54452380Y23364286D01*
X54833333Y23697620D01*
X54833333Y23554762D01*
X54880952Y23459524D01*
X54928571Y23411905D01*
X55023809Y23364286D01*
X55261904Y23364286D01*
X55357142Y23411905D01*
X55404761Y23459524D01*
X55452380Y23554762D01*
X55452380Y23840477D01*
X55404761Y23935715D01*
X55357142Y23983334D01*
X36002380Y27083334D02*
X36716666Y27083334D01*
X36859523Y27130953D01*
X36954761Y27226191D01*
X37002380Y27369048D01*
X37002380Y27464286D01*
X37002380Y26607143D02*
X36002380Y26607143D01*
X36002380Y26226191D01*
X36050000Y26130953D01*
X36097619Y26083334D01*
X36192857Y26035715D01*
X36335714Y26035715D01*
X36430952Y26083334D01*
X36478571Y26130953D01*
X36526190Y26226191D01*
X36526190Y26607143D01*
X36335714Y25178572D02*
X37002380Y25178572D01*
X35954761Y25416667D02*
X36669047Y25654762D01*
X36669047Y25035715D01*
X35202380Y23364286D02*
X35202380Y23935715D01*
X35202380Y23650000D02*
X34202380Y23650000D01*
X34345238Y23745239D01*
X34440476Y23840477D01*
X34488095Y23935715D01*
X34202380Y29183334D02*
X34202380Y28564286D01*
X34583333Y28897620D01*
X34583333Y28754762D01*
X34630952Y28659524D01*
X34678571Y28611905D01*
X34773809Y28564286D01*
X35011904Y28564286D01*
X35107142Y28611905D01*
X35154761Y28659524D01*
X35202380Y28754762D01*
X35202380Y29040477D01*
X35154761Y29135715D01*
X35107142Y29183334D01*
X38402380Y27083334D02*
X39116666Y27083334D01*
X39259523Y27130953D01*
X39354761Y27226191D01*
X39402380Y27369048D01*
X39402380Y27464286D01*
X39402380Y26607143D02*
X38402380Y26607143D01*
X38402380Y26226191D01*
X38450000Y26130953D01*
X38497619Y26083334D01*
X38592857Y26035715D01*
X38735714Y26035715D01*
X38830952Y26083334D01*
X38878571Y26130953D01*
X38926190Y26226191D01*
X38926190Y26607143D01*
X38402380Y25702381D02*
X38402380Y25083334D01*
X38783333Y25416667D01*
X38783333Y25273810D01*
X38830952Y25178572D01*
X38878571Y25130953D01*
X38973809Y25083334D01*
X39211904Y25083334D01*
X39307142Y25130953D01*
X39354761Y25178572D01*
X39402380Y25273810D01*
X39402380Y25559524D01*
X39354761Y25654762D01*
X39307142Y25702381D01*
X41202380Y28564286D02*
X41202380Y29135715D01*
X41202380Y28850000D02*
X40202380Y28850000D01*
X40345238Y28945239D01*
X40440476Y29040477D01*
X40488095Y29135715D01*
X40202380Y23983334D02*
X40202380Y23364286D01*
X40583333Y23697620D01*
X40583333Y23554762D01*
X40630952Y23459524D01*
X40678571Y23411905D01*
X40773809Y23364286D01*
X41011904Y23364286D01*
X41107142Y23411905D01*
X41154761Y23459524D01*
X41202380Y23554762D01*
X41202380Y23840477D01*
X41154761Y23935715D01*
X41107142Y23983334D01*
X22002380Y27083334D02*
X22716666Y27083334D01*
X22859523Y27130953D01*
X22954761Y27226191D01*
X23002380Y27369048D01*
X23002380Y27464286D01*
X23002380Y26607143D02*
X22002380Y26607143D01*
X22002380Y26226191D01*
X22050000Y26130953D01*
X22097619Y26083334D01*
X22192857Y26035715D01*
X22335714Y26035715D01*
X22430952Y26083334D01*
X22478571Y26130953D01*
X22526190Y26226191D01*
X22526190Y26607143D01*
X22097619Y25654762D02*
X22050000Y25607143D01*
X22002380Y25511905D01*
X22002380Y25273810D01*
X22050000Y25178572D01*
X22097619Y25130953D01*
X22192857Y25083334D01*
X22288095Y25083334D01*
X22430952Y25130953D01*
X23002380Y25702381D01*
X23002380Y25083334D01*
X21202380Y23364286D02*
X21202380Y23935715D01*
X21202380Y23650000D02*
X20202380Y23650000D01*
X20345238Y23745239D01*
X20440476Y23840477D01*
X20488095Y23935715D01*
X20202380Y29183334D02*
X20202380Y28564286D01*
X20583333Y28897620D01*
X20583333Y28754762D01*
X20630952Y28659524D01*
X20678571Y28611905D01*
X20773809Y28564286D01*
X21011904Y28564286D01*
X21107142Y28611905D01*
X21154761Y28659524D01*
X21202380Y28754762D01*
X21202380Y29040477D01*
X21154761Y29135715D01*
X21107142Y29183334D01*
X24402380Y27083334D02*
X25116666Y27083334D01*
X25259523Y27130953D01*
X25354761Y27226191D01*
X25402380Y27369048D01*
X25402380Y27464286D01*
X25402380Y26607143D02*
X24402380Y26607143D01*
X24402380Y26226191D01*
X24450000Y26130953D01*
X24497619Y26083334D01*
X24592857Y26035715D01*
X24735714Y26035715D01*
X24830952Y26083334D01*
X24878571Y26130953D01*
X24926190Y26226191D01*
X24926190Y26607143D01*
X25402380Y25083334D02*
X25402380Y25654762D01*
X25402380Y25369048D02*
X24402380Y25369048D01*
X24545238Y25464286D01*
X24640476Y25559524D01*
X24688095Y25654762D01*
X27202380Y28564286D02*
X27202380Y29135715D01*
X27202380Y28850000D02*
X26202380Y28850000D01*
X26345238Y28945239D01*
X26440476Y29040477D01*
X26488095Y29135715D01*
X26202380Y23983334D02*
X26202380Y23364286D01*
X26583333Y23697620D01*
X26583333Y23554762D01*
X26630952Y23459524D01*
X26678571Y23411905D01*
X26773809Y23364286D01*
X27011904Y23364286D01*
X27107142Y23411905D01*
X27154761Y23459524D01*
X27202380Y23554762D01*
X27202380Y23840477D01*
X27154761Y23935715D01*
X27107142Y23983334D01*
D12*
X45202380Y20511905D02*
X46011904Y20511905D01*
X46107142Y20464286D01*
X46154761Y20416667D01*
X46202380Y20321429D01*
X46202380Y20130953D01*
X46154761Y20035715D01*
X46107142Y19988096D01*
X46011904Y19940477D01*
X45202380Y19940477D01*
X45202380Y19559524D02*
X45202380Y18892858D01*
X46202380Y19321429D01*
X51452380Y20511905D02*
X52261904Y20511905D01*
X52357142Y20464286D01*
X52404761Y20416667D01*
X52452380Y20321429D01*
X52452380Y20130953D01*
X52404761Y20035715D01*
X52357142Y19988096D01*
X52261904Y19940477D01*
X51452380Y19940477D01*
X51452380Y19035715D02*
X51452380Y19226191D01*
X51500000Y19321429D01*
X51547619Y19369048D01*
X51690476Y19464286D01*
X51880952Y19511905D01*
X52261904Y19511905D01*
X52357142Y19464286D01*
X52404761Y19416667D01*
X52452380Y19321429D01*
X52452380Y19130953D01*
X52404761Y19035715D01*
X52357142Y18988096D01*
X52261904Y18940477D01*
X52023809Y18940477D01*
X51928571Y18988096D01*
X51880952Y19035715D01*
X51833333Y19130953D01*
X51833333Y19321429D01*
X51880952Y19416667D01*
X51928571Y19464286D01*
X52023809Y19511905D01*
X57785714Y22764286D02*
X57823809Y22802381D01*
X57861904Y22916667D01*
X57861904Y22992858D01*
X57823809Y23107143D01*
X57747619Y23183334D01*
X57671428Y23221429D01*
X57519047Y23259524D01*
X57404761Y23259524D01*
X57252380Y23221429D01*
X57176190Y23183334D01*
X57100000Y23107143D01*
X57061904Y22992858D01*
X57061904Y22916667D01*
X57100000Y22802381D01*
X57138095Y22764286D01*
X57861904Y22002381D02*
X57861904Y22459524D01*
X57861904Y22230953D02*
X57061904Y22230953D01*
X57176190Y22307143D01*
X57252380Y22383334D01*
X57290476Y22459524D01*
X57061904Y21278572D02*
X57061904Y21659524D01*
X57442857Y21697620D01*
X57404761Y21659524D01*
X57366666Y21583334D01*
X57366666Y21392858D01*
X57404761Y21316667D01*
X57442857Y21278572D01*
X57519047Y21240477D01*
X57709523Y21240477D01*
X57785714Y21278572D01*
X57823809Y21316667D01*
X57861904Y21392858D01*
X57861904Y21583334D01*
X57823809Y21659524D01*
X57785714Y21697620D01*
X42535714Y16514286D02*
X42573809Y16552381D01*
X42611904Y16666667D01*
X42611904Y16742858D01*
X42573809Y16857143D01*
X42497619Y16933334D01*
X42421428Y16971429D01*
X42269047Y17009524D01*
X42154761Y17009524D01*
X42002380Y16971429D01*
X41926190Y16933334D01*
X41850000Y16857143D01*
X41811904Y16742858D01*
X41811904Y16666667D01*
X41850000Y16552381D01*
X41888095Y16514286D01*
X42611904Y15752381D02*
X42611904Y16209524D01*
X42611904Y15980953D02*
X41811904Y15980953D01*
X41926190Y16057143D01*
X42002380Y16133334D01*
X42040476Y16209524D01*
X42078571Y15066667D02*
X42611904Y15066667D01*
X41773809Y15257143D02*
X42345238Y15447620D01*
X42345238Y14952381D01*
X50764285Y15964286D02*
X50802380Y15926191D01*
X50916666Y15888096D01*
X50992857Y15888096D01*
X51107142Y15926191D01*
X51183333Y16002381D01*
X51221428Y16078572D01*
X51259523Y16230953D01*
X51259523Y16345239D01*
X51221428Y16497620D01*
X51183333Y16573810D01*
X51107142Y16650000D01*
X50992857Y16688096D01*
X50916666Y16688096D01*
X50802380Y16650000D01*
X50764285Y16611905D01*
X50002380Y15888096D02*
X50459523Y15888096D01*
X50230952Y15888096D02*
X50230952Y16688096D01*
X50307142Y16573810D01*
X50383333Y16497620D01*
X50459523Y16459524D01*
X49735714Y16688096D02*
X49240476Y16688096D01*
X49507142Y16383334D01*
X49392857Y16383334D01*
X49316666Y16345239D01*
X49278571Y16307143D01*
X49240476Y16230953D01*
X49240476Y16040477D01*
X49278571Y15964286D01*
X49316666Y15926191D01*
X49392857Y15888096D01*
X49621428Y15888096D01*
X49697619Y15926191D01*
X49735714Y15964286D01*
X46014285Y5714286D02*
X46052380Y5676191D01*
X46166666Y5638096D01*
X46242857Y5638096D01*
X46357142Y5676191D01*
X46433333Y5752381D01*
X46471428Y5828572D01*
X46509523Y5980953D01*
X46509523Y6095239D01*
X46471428Y6247620D01*
X46433333Y6323810D01*
X46357142Y6400000D01*
X46242857Y6438096D01*
X46166666Y6438096D01*
X46052380Y6400000D01*
X46014285Y6361905D01*
X45252380Y5638096D02*
X45709523Y5638096D01*
X45480952Y5638096D02*
X45480952Y6438096D01*
X45557142Y6323810D01*
X45633333Y6247620D01*
X45709523Y6209524D01*
X44947619Y6361905D02*
X44909523Y6400000D01*
X44833333Y6438096D01*
X44642857Y6438096D01*
X44566666Y6400000D01*
X44528571Y6361905D01*
X44490476Y6285715D01*
X44490476Y6209524D01*
X44528571Y6095239D01*
X44985714Y5638096D01*
X44490476Y5638096D01*
X30952380Y20511905D02*
X31761904Y20511905D01*
X31857142Y20464286D01*
X31904761Y20416667D01*
X31952380Y20321429D01*
X31952380Y20130953D01*
X31904761Y20035715D01*
X31857142Y19988096D01*
X31761904Y19940477D01*
X30952380Y19940477D01*
X30952380Y18988096D02*
X30952380Y19464286D01*
X31428571Y19511905D01*
X31380952Y19464286D01*
X31333333Y19369048D01*
X31333333Y19130953D01*
X31380952Y19035715D01*
X31428571Y18988096D01*
X31523809Y18940477D01*
X31761904Y18940477D01*
X31857142Y18988096D01*
X31904761Y19035715D01*
X31952380Y19130953D01*
X31952380Y19369048D01*
X31904761Y19464286D01*
X31857142Y19511905D01*
X37202380Y20511905D02*
X38011904Y20511905D01*
X38107142Y20464286D01*
X38154761Y20416667D01*
X38202380Y20321429D01*
X38202380Y20130953D01*
X38154761Y20035715D01*
X38107142Y19988096D01*
X38011904Y19940477D01*
X37202380Y19940477D01*
X37535714Y19035715D02*
X38202380Y19035715D01*
X37154761Y19273810D02*
X37869047Y19511905D01*
X37869047Y18892858D01*
X42285714Y25014286D02*
X42323809Y25052381D01*
X42361904Y25166667D01*
X42361904Y25242858D01*
X42323809Y25357143D01*
X42247619Y25433334D01*
X42171428Y25471429D01*
X42019047Y25509524D01*
X41904761Y25509524D01*
X41752380Y25471429D01*
X41676190Y25433334D01*
X41600000Y25357143D01*
X41561904Y25242858D01*
X41561904Y25166667D01*
X41600000Y25052381D01*
X41638095Y25014286D01*
X42361904Y24252381D02*
X42361904Y24709524D01*
X42361904Y24480953D02*
X41561904Y24480953D01*
X41676190Y24557143D01*
X41752380Y24633334D01*
X41790476Y24709524D01*
X42361904Y23490477D02*
X42361904Y23947620D01*
X42361904Y23719048D02*
X41561904Y23719048D01*
X41676190Y23795239D01*
X41752380Y23871429D01*
X41790476Y23947620D01*
X28285714Y16514286D02*
X28323809Y16552381D01*
X28361904Y16666667D01*
X28361904Y16742858D01*
X28323809Y16857143D01*
X28247619Y16933334D01*
X28171428Y16971429D01*
X28019047Y17009524D01*
X27904761Y17009524D01*
X27752380Y16971429D01*
X27676190Y16933334D01*
X27600000Y16857143D01*
X27561904Y16742858D01*
X27561904Y16666667D01*
X27600000Y16552381D01*
X27638095Y16514286D01*
X28361904Y15752381D02*
X28361904Y16209524D01*
X28361904Y15980953D02*
X27561904Y15980953D01*
X27676190Y16057143D01*
X27752380Y16133334D01*
X27790476Y16209524D01*
X27561904Y15257143D02*
X27561904Y15180953D01*
X27600000Y15104762D01*
X27638095Y15066667D01*
X27714285Y15028572D01*
X27866666Y14990477D01*
X28057142Y14990477D01*
X28209523Y15028572D01*
X28285714Y15066667D01*
X28323809Y15104762D01*
X28361904Y15180953D01*
X28361904Y15257143D01*
X28323809Y15333334D01*
X28285714Y15371429D01*
X28209523Y15409524D01*
X28057142Y15447620D01*
X27866666Y15447620D01*
X27714285Y15409524D01*
X27638095Y15371429D01*
X27600000Y15333334D01*
X27561904Y15257143D01*
X36133333Y15964286D02*
X36171428Y15926191D01*
X36285714Y15888096D01*
X36361904Y15888096D01*
X36476190Y15926191D01*
X36552380Y16002381D01*
X36590476Y16078572D01*
X36628571Y16230953D01*
X36628571Y16345239D01*
X36590476Y16497620D01*
X36552380Y16573810D01*
X36476190Y16650000D01*
X36361904Y16688096D01*
X36285714Y16688096D01*
X36171428Y16650000D01*
X36133333Y16611905D01*
X35752380Y15888096D02*
X35600000Y15888096D01*
X35523809Y15926191D01*
X35485714Y15964286D01*
X35409523Y16078572D01*
X35371428Y16230953D01*
X35371428Y16535715D01*
X35409523Y16611905D01*
X35447619Y16650000D01*
X35523809Y16688096D01*
X35676190Y16688096D01*
X35752380Y16650000D01*
X35790476Y16611905D01*
X35828571Y16535715D01*
X35828571Y16345239D01*
X35790476Y16269048D01*
X35752380Y16230953D01*
X35676190Y16192858D01*
X35523809Y16192858D01*
X35447619Y16230953D01*
X35409523Y16269048D01*
X35371428Y16345239D01*
X29133333Y5714286D02*
X29171428Y5676191D01*
X29285714Y5638096D01*
X29361904Y5638096D01*
X29476190Y5676191D01*
X29552380Y5752381D01*
X29590476Y5828572D01*
X29628571Y5980953D01*
X29628571Y6095239D01*
X29590476Y6247620D01*
X29552380Y6323810D01*
X29476190Y6400000D01*
X29361904Y6438096D01*
X29285714Y6438096D01*
X29171428Y6400000D01*
X29133333Y6361905D01*
X28676190Y6095239D02*
X28752380Y6133334D01*
X28790476Y6171429D01*
X28828571Y6247620D01*
X28828571Y6285715D01*
X28790476Y6361905D01*
X28752380Y6400000D01*
X28676190Y6438096D01*
X28523809Y6438096D01*
X28447619Y6400000D01*
X28409523Y6361905D01*
X28371428Y6285715D01*
X28371428Y6247620D01*
X28409523Y6171429D01*
X28447619Y6133334D01*
X28523809Y6095239D01*
X28676190Y6095239D01*
X28752380Y6057143D01*
X28790476Y6019048D01*
X28828571Y5942858D01*
X28828571Y5790477D01*
X28790476Y5714286D01*
X28752380Y5676191D01*
X28676190Y5638096D01*
X28523809Y5638096D01*
X28447619Y5676191D01*
X28409523Y5714286D01*
X28371428Y5790477D01*
X28371428Y5942858D01*
X28409523Y6019048D01*
X28447619Y6057143D01*
X28523809Y6095239D01*
X12633333Y5714286D02*
X12671428Y5676191D01*
X12785714Y5638096D01*
X12861904Y5638096D01*
X12976190Y5676191D01*
X13052380Y5752381D01*
X13090476Y5828572D01*
X13128571Y5980953D01*
X13128571Y6095239D01*
X13090476Y6247620D01*
X13052380Y6323810D01*
X12976190Y6400000D01*
X12861904Y6438096D01*
X12785714Y6438096D01*
X12671428Y6400000D01*
X12633333Y6361905D01*
X11947619Y6171429D02*
X11947619Y5638096D01*
X12138095Y6476191D02*
X12328571Y5904762D01*
X11833333Y5904762D01*
X22133333Y15964286D02*
X22171428Y15926191D01*
X22285714Y15888096D01*
X22361904Y15888096D01*
X22476190Y15926191D01*
X22552380Y16002381D01*
X22590476Y16078572D01*
X22628571Y16230953D01*
X22628571Y16345239D01*
X22590476Y16497620D01*
X22552380Y16573810D01*
X22476190Y16650000D01*
X22361904Y16688096D01*
X22285714Y16688096D01*
X22171428Y16650000D01*
X22133333Y16611905D01*
X21409523Y16688096D02*
X21790476Y16688096D01*
X21828571Y16307143D01*
X21790476Y16345239D01*
X21714285Y16383334D01*
X21523809Y16383334D01*
X21447619Y16345239D01*
X21409523Y16307143D01*
X21371428Y16230953D01*
X21371428Y16040477D01*
X21409523Y15964286D01*
X21447619Y15926191D01*
X21523809Y15888096D01*
X21714285Y15888096D01*
X21790476Y15926191D01*
X21828571Y15964286D01*
X15285714Y14133334D02*
X15323809Y14171429D01*
X15361904Y14285715D01*
X15361904Y14361905D01*
X15323809Y14476191D01*
X15247619Y14552381D01*
X15171428Y14590477D01*
X15019047Y14628572D01*
X14904761Y14628572D01*
X14752380Y14590477D01*
X14676190Y14552381D01*
X14600000Y14476191D01*
X14561904Y14361905D01*
X14561904Y14285715D01*
X14600000Y14171429D01*
X14638095Y14133334D01*
X14561904Y13447620D02*
X14561904Y13600000D01*
X14600000Y13676191D01*
X14638095Y13714286D01*
X14752380Y13790477D01*
X14904761Y13828572D01*
X15209523Y13828572D01*
X15285714Y13790477D01*
X15323809Y13752381D01*
X15361904Y13676191D01*
X15361904Y13523810D01*
X15323809Y13447620D01*
X15285714Y13409524D01*
X15209523Y13371429D01*
X15019047Y13371429D01*
X14942857Y13409524D01*
X14904761Y13447620D01*
X14866666Y13523810D01*
X14866666Y13676191D01*
X14904761Y13752381D01*
X14942857Y13790477D01*
X15019047Y13828572D01*
X28285714Y24633334D02*
X28323809Y24671429D01*
X28361904Y24785715D01*
X28361904Y24861905D01*
X28323809Y24976191D01*
X28247619Y25052381D01*
X28171428Y25090477D01*
X28019047Y25128572D01*
X27904761Y25128572D01*
X27752380Y25090477D01*
X27676190Y25052381D01*
X27600000Y24976191D01*
X27561904Y24861905D01*
X27561904Y24785715D01*
X27600000Y24671429D01*
X27638095Y24633334D01*
X27561904Y24366667D02*
X27561904Y23833334D01*
X28361904Y24176191D01*
X23202380Y20511905D02*
X24011904Y20511905D01*
X24107142Y20464286D01*
X24154761Y20416667D01*
X24202380Y20321429D01*
X24202380Y20130953D01*
X24154761Y20035715D01*
X24107142Y19988096D01*
X24011904Y19940477D01*
X23202380Y19940477D01*
X23297619Y19511905D02*
X23250000Y19464286D01*
X23202380Y19369048D01*
X23202380Y19130953D01*
X23250000Y19035715D01*
X23297619Y18988096D01*
X23392857Y18940477D01*
X23488095Y18940477D01*
X23630952Y18988096D01*
X24202380Y19559524D01*
X24202380Y18940477D01*
X16952380Y20511905D02*
X17761904Y20511905D01*
X17857142Y20464286D01*
X17904761Y20416667D01*
X17952380Y20321429D01*
X17952380Y20130953D01*
X17904761Y20035715D01*
X17857142Y19988096D01*
X17761904Y19940477D01*
X16952380Y19940477D01*
X16952380Y19559524D02*
X16952380Y18940477D01*
X17333333Y19273810D01*
X17333333Y19130953D01*
X17380952Y19035715D01*
X17428571Y18988096D01*
X17523809Y18940477D01*
X17761904Y18940477D01*
X17857142Y18988096D01*
X17904761Y19035715D01*
X17952380Y19130953D01*
X17952380Y19416667D01*
X17904761Y19511905D01*
X17857142Y19559524D01*
X62514285Y5714286D02*
X62552380Y5676191D01*
X62666666Y5638096D01*
X62742857Y5638096D01*
X62857142Y5676191D01*
X62933333Y5752381D01*
X62971428Y5828572D01*
X63009523Y5980953D01*
X63009523Y6095239D01*
X62971428Y6247620D01*
X62933333Y6323810D01*
X62857142Y6400000D01*
X62742857Y6438096D01*
X62666666Y6438096D01*
X62552380Y6400000D01*
X62514285Y6361905D01*
X61752380Y5638096D02*
X62209523Y5638096D01*
X61980952Y5638096D02*
X61980952Y6438096D01*
X62057142Y6323810D01*
X62133333Y6247620D01*
X62209523Y6209524D01*
X61066666Y6438096D02*
X61219047Y6438096D01*
X61295238Y6400000D01*
X61333333Y6361905D01*
X61409523Y6247620D01*
X61447619Y6095239D01*
X61447619Y5790477D01*
X61409523Y5714286D01*
X61371428Y5676191D01*
X61295238Y5638096D01*
X61142857Y5638096D01*
X61066666Y5676191D01*
X61028571Y5714286D01*
X60990476Y5790477D01*
X60990476Y5980953D01*
X61028571Y6057143D01*
X61066666Y6095239D01*
X61142857Y6133334D01*
X61295238Y6133334D01*
X61371428Y6095239D01*
X61409523Y6057143D01*
X61447619Y5980953D01*
X67264285Y15964286D02*
X67302380Y15926191D01*
X67416666Y15888096D01*
X67492857Y15888096D01*
X67607142Y15926191D01*
X67683333Y16002381D01*
X67721428Y16078572D01*
X67759523Y16230953D01*
X67759523Y16345239D01*
X67721428Y16497620D01*
X67683333Y16573810D01*
X67607142Y16650000D01*
X67492857Y16688096D01*
X67416666Y16688096D01*
X67302380Y16650000D01*
X67264285Y16611905D01*
X66502380Y15888096D02*
X66959523Y15888096D01*
X66730952Y15888096D02*
X66730952Y16688096D01*
X66807142Y16573810D01*
X66883333Y16497620D01*
X66959523Y16459524D01*
X66235714Y16688096D02*
X65702380Y16688096D01*
X66045238Y15888096D01*
X59035714Y16514286D02*
X59073809Y16552381D01*
X59111904Y16666667D01*
X59111904Y16742858D01*
X59073809Y16857143D01*
X58997619Y16933334D01*
X58921428Y16971429D01*
X58769047Y17009524D01*
X58654761Y17009524D01*
X58502380Y16971429D01*
X58426190Y16933334D01*
X58350000Y16857143D01*
X58311904Y16742858D01*
X58311904Y16666667D01*
X58350000Y16552381D01*
X58388095Y16514286D01*
X59111904Y15752381D02*
X59111904Y16209524D01*
X59111904Y15980953D02*
X58311904Y15980953D01*
X58426190Y16057143D01*
X58502380Y16133334D01*
X58540476Y16209524D01*
X58654761Y15295239D02*
X58616666Y15371429D01*
X58578571Y15409524D01*
X58502380Y15447620D01*
X58464285Y15447620D01*
X58388095Y15409524D01*
X58350000Y15371429D01*
X58311904Y15295239D01*
X58311904Y15142858D01*
X58350000Y15066667D01*
X58388095Y15028572D01*
X58464285Y14990477D01*
X58502380Y14990477D01*
X58578571Y15028572D01*
X58616666Y15066667D01*
X58654761Y15142858D01*
X58654761Y15295239D01*
X58692857Y15371429D01*
X58730952Y15409524D01*
X58807142Y15447620D01*
X58959523Y15447620D01*
X59035714Y15409524D01*
X59073809Y15371429D01*
X59111904Y15295239D01*
X59111904Y15142858D01*
X59073809Y15066667D01*
X59035714Y15028572D01*
X58959523Y14990477D01*
X58807142Y14990477D01*
X58730952Y15028572D01*
X58692857Y15066667D01*
X58654761Y15142858D01*
X74285714Y22764286D02*
X74323809Y22802381D01*
X74361904Y22916667D01*
X74361904Y22992858D01*
X74323809Y23107143D01*
X74247619Y23183334D01*
X74171428Y23221429D01*
X74019047Y23259524D01*
X73904761Y23259524D01*
X73752380Y23221429D01*
X73676190Y23183334D01*
X73600000Y23107143D01*
X73561904Y22992858D01*
X73561904Y22916667D01*
X73600000Y22802381D01*
X73638095Y22764286D01*
X74361904Y22002381D02*
X74361904Y22459524D01*
X74361904Y22230953D02*
X73561904Y22230953D01*
X73676190Y22307143D01*
X73752380Y22383334D01*
X73790476Y22459524D01*
X74361904Y21621429D02*
X74361904Y21469048D01*
X74323809Y21392858D01*
X74285714Y21354762D01*
X74171428Y21278572D01*
X74019047Y21240477D01*
X73714285Y21240477D01*
X73638095Y21278572D01*
X73600000Y21316667D01*
X73561904Y21392858D01*
X73561904Y21545239D01*
X73600000Y21621429D01*
X73638095Y21659524D01*
X73714285Y21697620D01*
X73904761Y21697620D01*
X73980952Y21659524D01*
X74019047Y21621429D01*
X74057142Y21545239D01*
X74057142Y21392858D01*
X74019047Y21316667D01*
X73980952Y21278572D01*
X73904761Y21240477D01*
X67952380Y20511905D02*
X68761904Y20511905D01*
X68857142Y20464286D01*
X68904761Y20416667D01*
X68952380Y20321429D01*
X68952380Y20130953D01*
X68904761Y20035715D01*
X68857142Y19988096D01*
X68761904Y19940477D01*
X67952380Y19940477D01*
X68380952Y19321429D02*
X68333333Y19416667D01*
X68285714Y19464286D01*
X68190476Y19511905D01*
X68142857Y19511905D01*
X68047619Y19464286D01*
X68000000Y19416667D01*
X67952380Y19321429D01*
X67952380Y19130953D01*
X68000000Y19035715D01*
X68047619Y18988096D01*
X68142857Y18940477D01*
X68190476Y18940477D01*
X68285714Y18988096D01*
X68333333Y19035715D01*
X68380952Y19130953D01*
X68380952Y19321429D01*
X68428571Y19416667D01*
X68476190Y19464286D01*
X68571428Y19511905D01*
X68761904Y19511905D01*
X68857142Y19464286D01*
X68904761Y19416667D01*
X68952380Y19321429D01*
X68952380Y19130953D01*
X68904761Y19035715D01*
X68857142Y18988096D01*
X68761904Y18940477D01*
X68571428Y18940477D01*
X68476190Y18988096D01*
X68428571Y19035715D01*
X68380952Y19130953D01*
X61702380Y20511905D02*
X62511904Y20511905D01*
X62607142Y20464286D01*
X62654761Y20416667D01*
X62702380Y20321429D01*
X62702380Y20130953D01*
X62654761Y20035715D01*
X62607142Y19988096D01*
X62511904Y19940477D01*
X61702380Y19940477D01*
X62702380Y19416667D02*
X62702380Y19226191D01*
X62654761Y19130953D01*
X62607142Y19083334D01*
X62464285Y18988096D01*
X62273809Y18940477D01*
X61892857Y18940477D01*
X61797619Y18988096D01*
X61750000Y19035715D01*
X61702380Y19130953D01*
X61702380Y19321429D01*
X61750000Y19416667D01*
X61797619Y19464286D01*
X61892857Y19511905D01*
X62130952Y19511905D01*
X62226190Y19464286D01*
X62273809Y19416667D01*
X62321428Y19321429D01*
X62321428Y19130953D01*
X62273809Y19035715D01*
X62226190Y18988096D01*
X62130952Y18940477D01*
M02*
