G04 #@! TF.GenerationSoftware,KiCad,Pcbnew,(5.1.5)-3*
G04 #@! TF.CreationDate,2020-01-24T16:47:09+01:00*
G04 #@! TF.ProjectId,STMBLBreakout,53544d42-4c42-4726-9561-6b6f75742e6b,rev?*
G04 #@! TF.SameCoordinates,PX2faf080PY8f0d180*
G04 #@! TF.FileFunction,Copper,L2,Bot*
G04 #@! TF.FilePolarity,Positive*
%FSLAX46Y46*%
G04 Gerber Fmt 4.6, Leading zero omitted, Abs format (unit mm)*
G04 Created by KiCad (PCBNEW (5.1.5)-3) date 2020-01-24 16:47:09*
%MOMM*%
%LPD*%
G04 APERTURE LIST*
%ADD10C,2.400000*%
%ADD11R,2.400000X2.400000*%
%ADD12O,2.540000X5.080000*%
%ADD13C,1.900000*%
%ADD14C,1.300000*%
%ADD15C,0.600000*%
%ADD16C,0.200000*%
%ADD17C,0.500000*%
%ADD18C,0.254000*%
G04 APERTURE END LIST*
D10*
X32000000Y35500000D03*
D11*
X28500000Y35500000D03*
D12*
X37500000Y35500000D03*
X39250000Y24100000D03*
X41000000Y35500000D03*
X42750000Y24100000D03*
X44500000Y35500000D03*
X46250000Y24100000D03*
X48000000Y35500000D03*
X49750000Y24100000D03*
D13*
X30250000Y7330000D03*
X46750000Y7330000D03*
D14*
X42070000Y6440000D03*
X41050000Y8220000D03*
X40030000Y6440000D03*
X39010000Y8220000D03*
X37990000Y6440000D03*
X36970000Y8220000D03*
X35950000Y6440000D03*
X34930000Y8220000D03*
X31640000Y13080000D03*
X33930000Y13080000D03*
X43070000Y13080000D03*
X45360000Y13080000D03*
D12*
X12000000Y35500000D03*
X13750000Y24100000D03*
X15500000Y35500000D03*
X17250000Y24100000D03*
X19000000Y35500000D03*
X20750000Y24100000D03*
X22500000Y35500000D03*
X24250000Y24100000D03*
D13*
X13750000Y7330000D03*
X30250000Y7330000D03*
D14*
X25570000Y6440000D03*
X24550000Y8220000D03*
X23530000Y6440000D03*
X22510000Y8220000D03*
X21490000Y6440000D03*
X20470000Y8220000D03*
X19450000Y6440000D03*
X18430000Y8220000D03*
X15140000Y13080000D03*
X17430000Y13080000D03*
X26570000Y13080000D03*
X28860000Y13080000D03*
D15*
X38041636Y16059406D03*
X37440594Y15458364D03*
D16*
X36974320Y8224320D02*
X36970000Y8220000D01*
X37540000Y8790000D02*
X36974320Y8224320D01*
X37540000Y10297560D02*
X37540000Y8790000D01*
X37555356Y10433841D02*
X37540000Y10297560D01*
X37600651Y10563288D02*
X37555356Y10433841D01*
X37673616Y10679410D02*
X37600651Y10563288D01*
X37770591Y10776385D02*
X37673616Y10679410D01*
X37886713Y10849350D02*
X37770591Y10776385D01*
X38016160Y10894645D02*
X37886713Y10849350D01*
X38152441Y10910000D02*
X38016160Y10894645D01*
X39303331Y10910000D02*
X38152441Y10910000D01*
X39347836Y10915015D02*
X39303331Y10910000D01*
X39390108Y10929807D02*
X39347836Y10915015D01*
X39428029Y10953634D02*
X39390108Y10929807D01*
X39459698Y10985303D02*
X39428029Y10953634D01*
X39483525Y11023224D02*
X39459698Y10985303D01*
X39498317Y11065496D02*
X39483525Y11023224D01*
X39503331Y11110000D02*
X39498317Y11065496D01*
X39498317Y11154505D02*
X39503331Y11110000D01*
X39483525Y11196777D02*
X39498317Y11154505D01*
X39459698Y11234698D02*
X39483525Y11196777D01*
X39428029Y11266367D02*
X39459698Y11234698D01*
X39390108Y11290194D02*
X39428029Y11266367D01*
X39347836Y11304986D02*
X39390108Y11290194D01*
X39303331Y11310000D02*
X39347836Y11304986D01*
X37539109Y11310000D02*
X39303331Y11310000D01*
X37472352Y11302479D02*
X37539109Y11310000D01*
X37408943Y11280291D02*
X37472352Y11302479D01*
X37352062Y11244550D02*
X37408943Y11280291D01*
X37304559Y11197047D02*
X37352062Y11244550D01*
X37268818Y11140166D02*
X37304559Y11197047D01*
X37246630Y11076757D02*
X37268818Y11140166D01*
X37239109Y11010000D02*
X37246630Y11076757D01*
X37239109Y9946872D02*
X37239109Y11010000D01*
X37231587Y9880116D02*
X37239109Y9946872D01*
X37209399Y9816707D02*
X37231587Y9880116D01*
X37173658Y9759826D02*
X37209399Y9816707D01*
X37126155Y9712323D02*
X37173658Y9759826D01*
X37069274Y9676582D02*
X37126155Y9712323D01*
X37005865Y9654394D02*
X37069274Y9676582D01*
X36939109Y9646872D02*
X37005865Y9654394D01*
X36872352Y9654394D02*
X36939109Y9646872D01*
X36808943Y9676582D02*
X36872352Y9654394D01*
X36752062Y9712323D02*
X36808943Y9676582D01*
X36704559Y9759826D02*
X36752062Y9712323D01*
X36668818Y9816707D02*
X36704559Y9759826D01*
X36646630Y9880116D02*
X36668818Y9816707D01*
X36639109Y9946872D02*
X36646630Y9880116D01*
X36639109Y11010000D02*
X36639109Y9946872D01*
X36631587Y11076757D02*
X36639109Y11010000D01*
X36609399Y11140166D02*
X36631587Y11076757D01*
X36573658Y11197047D02*
X36609399Y11140166D01*
X36526155Y11244550D02*
X36573658Y11197047D01*
X36469274Y11280291D02*
X36526155Y11244550D01*
X36405865Y11302479D02*
X36469274Y11280291D01*
X36202828Y11325356D02*
X36405865Y11302479D01*
X36073381Y11370651D02*
X36202828Y11325356D01*
X35957259Y11443616D02*
X36073381Y11370651D01*
X35860284Y11540591D02*
X35957259Y11443616D01*
X35787319Y11656713D02*
X35860284Y11540591D01*
X35742024Y11786160D02*
X35787319Y11656713D01*
X35726669Y11922441D02*
X35742024Y11786160D01*
X35726669Y11997560D02*
X35726669Y11922441D01*
X35742024Y12133841D02*
X35726669Y11997560D01*
X35787319Y12263288D02*
X35742024Y12133841D01*
X35860284Y12379410D02*
X35787319Y12263288D01*
X42221417Y20165480D02*
X42087713Y20134963D01*
X37426776Y12629807D02*
X37384504Y12615015D01*
X42358561Y20165480D02*
X42221417Y20165480D01*
X42492265Y20134963D02*
X42358561Y20165480D01*
X42615827Y20075458D02*
X42492265Y20134963D01*
X42723050Y19989951D02*
X42615827Y20075458D01*
X46037314Y16682775D02*
X46002300Y16710700D01*
X46077664Y16663343D02*
X46037314Y16682775D01*
X46121328Y16653378D02*
X46077664Y16663343D01*
X46209776Y16663343D02*
X46166114Y16653378D01*
X46250128Y16682776D02*
X46209776Y16663343D01*
X46285142Y16710700D02*
X46250128Y16682776D01*
X46313065Y16745714D02*
X46285142Y16710700D01*
X46342464Y16829728D02*
X46332497Y16786064D01*
X46342464Y16874514D02*
X46342464Y16829728D01*
X46332497Y16918176D02*
X46342464Y16874514D01*
X46313066Y16958528D02*
X46332497Y16918176D01*
X46285142Y16993542D02*
X46313066Y16958528D01*
X43032448Y20246234D02*
X46285142Y16993542D01*
X36073381Y12549350D02*
X35957259Y12476385D01*
X43005889Y20272792D02*
X43032448Y20246234D01*
X42860878Y20503577D02*
X42920382Y20380015D01*
X43925128Y21192031D02*
X43817905Y21277538D01*
X46332497Y16786064D02*
X46313065Y16745714D01*
X37464697Y12653634D02*
X37426776Y12629807D01*
X44923959Y20193200D02*
X43925128Y21192031D01*
X42920382Y20380015D02*
X43005889Y20272792D01*
X37534985Y12765496D02*
X37520193Y12723224D01*
X44958974Y20165276D02*
X44923959Y20193200D01*
X45087773Y20135878D02*
X45042987Y20135878D01*
X44999324Y20145844D02*
X44958974Y20165276D01*
X46002300Y16710700D02*
X42723050Y19989951D01*
X45131436Y20145844D02*
X45087773Y20135878D01*
X45048049Y15480697D02*
X45007697Y15461264D01*
X43005889Y21138914D02*
X42920382Y21031691D01*
X46250000Y21236397D02*
X45206801Y20193200D01*
X45042987Y20135878D02*
X44999324Y20145844D01*
X42729794Y17390085D02*
X42592652Y17390086D01*
X46250000Y24100000D02*
X46250000Y21236397D01*
X45171787Y20165276D02*
X45131436Y20145844D01*
X42920382Y21031691D02*
X42860878Y20908129D01*
X46166114Y16653378D02*
X46121328Y16653378D01*
X42830360Y20774425D02*
X42830360Y20637281D01*
X42863499Y17359568D02*
X42729794Y17390085D01*
X45206801Y20193200D02*
X45171787Y20165276D01*
X43817905Y21277538D02*
X43694344Y21337042D01*
X37384504Y12615015D02*
X37340000Y12610000D01*
X43560639Y21367560D02*
X43423496Y21367560D01*
X42987061Y17300064D02*
X42863499Y17359568D01*
X43694344Y21337042D02*
X43560639Y21367560D01*
X43094285Y17214557D02*
X42987061Y17300064D01*
X43423496Y21367560D02*
X43289791Y21337042D01*
X43166229Y21277538D02*
X43059006Y21192031D01*
X43289791Y21337042D02*
X43166229Y21277538D01*
X42592652Y17390086D02*
X42458947Y17359569D01*
X43059006Y21192031D02*
X43005889Y21138914D01*
X42860878Y20908129D02*
X42830360Y20774425D01*
X42830360Y20637281D02*
X42860878Y20503577D01*
X42087713Y20134963D02*
X41964151Y20075458D01*
X41964151Y20075458D02*
X41856928Y19989951D01*
X41856928Y19989951D02*
X41803811Y19936835D01*
X41803811Y19936835D02*
X41718304Y19829612D01*
X37340000Y12610000D02*
X36339109Y12610000D01*
X41718304Y19829612D02*
X41658800Y19706050D01*
X41658800Y19706050D02*
X41628282Y19572346D01*
X41628282Y19572346D02*
X41628282Y19435202D01*
X45140385Y15672435D02*
X45140385Y15627649D01*
X41628282Y19435202D02*
X41658800Y19301498D01*
X45110986Y15543635D02*
X45083063Y15508621D01*
X41658800Y19301498D02*
X41718304Y19177936D01*
X44875585Y15461264D02*
X44835235Y15480696D01*
X41718304Y19177936D02*
X41803811Y19070713D01*
X42228161Y17214556D02*
X41488603Y16475000D01*
X41803811Y19070713D02*
X41830370Y19044155D01*
X37540000Y14108200D02*
X37540000Y12810000D01*
X41830370Y19044155D02*
X45083063Y15791463D01*
X42458947Y17359569D02*
X42335385Y17300065D01*
X45083063Y15791463D02*
X45110987Y15756449D01*
X35957259Y12476385D02*
X35860284Y12379410D01*
X45110987Y15756449D02*
X45130418Y15716097D01*
X45130418Y15716097D02*
X45140385Y15672435D01*
X45140385Y15627649D02*
X45130418Y15583985D01*
X45130418Y15583985D02*
X45110986Y15543635D01*
X45083063Y15508621D02*
X45048049Y15480697D01*
X45007697Y15461264D02*
X44964035Y15451299D01*
X44964035Y15451299D02*
X44919249Y15451299D01*
X44919249Y15451299D02*
X44875585Y15461264D01*
X44835235Y15480696D02*
X44800221Y15508621D01*
X44800221Y15508621D02*
X43094285Y17214557D01*
X42335385Y17300065D02*
X42228161Y17214556D01*
X41488603Y16475000D02*
X39906800Y16475000D01*
X39906800Y16475000D02*
X37540000Y14108200D01*
X37540000Y12810000D02*
X37534985Y12765496D01*
X37520193Y12723224D02*
X37496366Y12685303D01*
X37496366Y12685303D02*
X37464697Y12653634D01*
X36339109Y12610000D02*
X36202828Y12594645D01*
X36202828Y12594645D02*
X36073381Y12549350D01*
X37257486Y19616193D02*
X37217135Y19635625D01*
X37292500Y19588269D02*
X37257486Y19616193D01*
X39802731Y17078039D02*
X37292500Y19588269D01*
X38801102Y17492268D02*
X38860606Y17368706D01*
X39936513Y16965974D02*
X39829290Y17051481D01*
X40060075Y16906470D02*
X39936513Y16965974D01*
X40464627Y16906470D02*
X40330923Y16875952D01*
X36962302Y19380792D02*
X36981734Y19340442D01*
X40588189Y16965974D02*
X40464627Y16906470D01*
X40695412Y17051481D02*
X40588189Y16965974D01*
X40748527Y17104597D02*
X40695412Y17051481D01*
X40834034Y17211820D02*
X40748527Y17104597D01*
X40924056Y17469086D02*
X40893540Y17335383D01*
X40924056Y17606230D02*
X40924056Y17469086D01*
X40893538Y17739933D02*
X40924056Y17606230D01*
X40834034Y17863496D02*
X40893538Y17739933D01*
X40748527Y17970719D02*
X40834034Y17863496D01*
X37217135Y19635625D02*
X37173472Y19645591D01*
X38211737Y20507507D02*
X40748527Y17970719D01*
X38183813Y20542522D02*
X38211737Y20507507D01*
X40307740Y18998905D02*
X40200517Y19084412D01*
X38715594Y17599491D02*
X38801102Y17492268D01*
X40565006Y18908883D02*
X40431302Y18939401D01*
X40702150Y18908883D02*
X40565006Y18908883D01*
X38154415Y20626535D02*
X38164381Y20582872D01*
X38689036Y16706810D02*
X38041636Y16059406D01*
X38375551Y20847670D02*
X38330766Y20847670D01*
X40835855Y18939401D02*
X40702150Y18908883D01*
X39829290Y17051481D02*
X39802731Y17078039D01*
X38801102Y16840591D02*
X38715594Y16733368D01*
X38459565Y20818273D02*
X38419214Y20837704D01*
X38246752Y20818273D02*
X38211737Y20790349D01*
X40959416Y18998905D02*
X40835855Y18939401D01*
X40893540Y17335383D02*
X40834034Y17211820D01*
X36981734Y19340442D02*
X37009658Y19305427D01*
X40431302Y18939401D02*
X40307740Y18998905D01*
X38164381Y20582872D02*
X38183813Y20542522D01*
X42750000Y21560000D02*
X41225000Y20035000D01*
X41225000Y20035000D02*
X41225000Y19242770D01*
X41225000Y19242770D02*
X41066639Y19084412D01*
X38211737Y20790349D02*
X38183813Y20755335D01*
X42750000Y24100000D02*
X42750000Y21560000D01*
X40330923Y16875952D02*
X40193779Y16875952D01*
X38330766Y20847670D02*
X38287103Y20837704D01*
X41066639Y19084412D02*
X40959416Y18998905D01*
X40200517Y19084412D02*
X38494580Y20790349D01*
X40193779Y16875952D02*
X40060075Y16906470D01*
X38494580Y20790349D02*
X38459565Y20818273D01*
X38419214Y20837704D02*
X38375551Y20847670D01*
X38183813Y20755335D02*
X38164381Y20714984D01*
X38154415Y20671321D02*
X38154415Y20626535D01*
X38287103Y20837704D02*
X38246752Y20818273D01*
X38860606Y17368706D02*
X38891123Y17235001D01*
X38164381Y20714984D02*
X38154415Y20671321D01*
X37173472Y19645591D02*
X37128686Y19645591D01*
X37128686Y19645591D02*
X37085023Y19635625D01*
X37085023Y19635625D02*
X37044673Y19616193D01*
X37044673Y19616193D02*
X37009658Y19588269D01*
X37009658Y19305427D02*
X38715594Y17599491D01*
X37009658Y19588269D02*
X36981734Y19553255D01*
X38860606Y16964153D02*
X38801102Y16840591D01*
X36981734Y19553255D02*
X36962302Y19512904D01*
X36962302Y19512904D02*
X36952336Y19469241D01*
X36952336Y19469241D02*
X36952336Y19424455D01*
X36952336Y19424455D02*
X36962302Y19380792D01*
X38891123Y17235001D02*
X38891123Y17097858D01*
X38891123Y17097858D02*
X38860606Y16964153D01*
X38715594Y16733368D02*
X38689036Y16706810D01*
X37440594Y16094762D02*
X37440594Y15458364D01*
X37441635Y16095803D02*
X37440594Y16094762D01*
X37441635Y16347407D02*
X37441635Y16095803D01*
X37753635Y16659407D02*
X37441635Y16347407D01*
X38005239Y16659407D02*
X37753635Y16659407D01*
X38370838Y17025009D02*
X38005239Y16659407D01*
X38398762Y17060024D02*
X38370838Y17025009D01*
X38418193Y17100375D02*
X38398762Y17060024D01*
X38428159Y17144038D02*
X38418193Y17100375D01*
X38428159Y17188823D02*
X38428159Y17144038D01*
X38418193Y17232486D02*
X38428159Y17188823D01*
X38398762Y17272837D02*
X38418193Y17232486D01*
X38370838Y17307852D02*
X38398762Y17272837D01*
X36691460Y18987230D02*
X38370838Y17307852D01*
X36664901Y19013788D02*
X36691460Y18987230D01*
X36579394Y19121011D02*
X36664901Y19013788D01*
X36519890Y19244573D02*
X36579394Y19121011D01*
X36489372Y19378277D02*
X36519890Y19244573D01*
X36489372Y19515421D02*
X36489372Y19378277D01*
X36519890Y19649125D02*
X36489372Y19515421D01*
X36579394Y19772687D02*
X36519890Y19649125D01*
X36664901Y19879910D02*
X36579394Y19772687D01*
X36718018Y19933026D02*
X36664901Y19879910D01*
X36825241Y20018533D02*
X36718018Y19933026D01*
X36948803Y20078037D02*
X36825241Y20018533D01*
X37082508Y20108555D02*
X36948803Y20078037D01*
X37219651Y20108555D02*
X37082508Y20108555D01*
X37353356Y20078037D02*
X37219651Y20108555D01*
X37476917Y20018533D02*
X37353356Y20078037D01*
X37584140Y19933026D02*
X37476917Y20018533D01*
X40120929Y17396237D02*
X37584140Y19933026D01*
X40155945Y17368314D02*
X40120929Y17396237D01*
X40196295Y17348882D02*
X40155945Y17368314D01*
X40239957Y17338915D02*
X40196295Y17348882D01*
X40284743Y17338915D02*
X40239957Y17338915D01*
X40328407Y17348882D02*
X40284743Y17338915D01*
X40368757Y17368313D02*
X40328407Y17348882D01*
X40403771Y17396237D02*
X40368757Y17368313D01*
X40431694Y17431252D02*
X40403771Y17396237D01*
X40451126Y17471602D02*
X40431694Y17431252D01*
X40461093Y17515266D02*
X40451126Y17471602D01*
X40461093Y17560052D02*
X40461093Y17515266D01*
X40451126Y17603714D02*
X40461093Y17560052D01*
X40431694Y17644064D02*
X40451126Y17603714D01*
X38786220Y21135106D02*
X38678997Y21220614D01*
X40699634Y19381813D02*
X40655971Y19371847D01*
X40655971Y19371847D02*
X40611185Y19371847D01*
X40527172Y19401245D02*
X40492157Y19429169D01*
X40774999Y19429169D02*
X40739985Y19401245D01*
X38150882Y21280118D02*
X38027320Y21220614D01*
X38421730Y21310635D02*
X38284587Y21310635D01*
X37781473Y20323091D02*
X37866980Y20215868D01*
X37920097Y21135106D02*
X37866980Y21081990D01*
X37691451Y20580357D02*
X37721969Y20446653D01*
X40567522Y19381813D02*
X40527172Y19401245D01*
X38027320Y21220614D02*
X37920097Y21135106D01*
X37781473Y20974767D02*
X37721969Y20851205D01*
X39250000Y24100000D02*
X39250000Y21560000D01*
X39250000Y21560000D02*
X40775000Y20035000D01*
X40775000Y20035000D02*
X40774999Y19429169D01*
X40739985Y19401245D02*
X40699634Y19381813D01*
X40611185Y19371847D02*
X40567522Y19381813D01*
X40492157Y19429169D02*
X38786220Y21135106D01*
X38678997Y21220614D02*
X38555435Y21280118D01*
X38555435Y21280118D02*
X38421730Y21310635D01*
X38284587Y21310635D02*
X38150882Y21280118D01*
X37866980Y21081990D02*
X37781473Y20974767D01*
X37721969Y20851205D02*
X37691451Y20717501D01*
X37691451Y20717501D02*
X37691451Y20580357D01*
X37721969Y20446653D02*
X37781473Y20323091D01*
X37866980Y20215868D02*
X37893539Y20189310D01*
X37893539Y20189310D02*
X40403771Y17679079D01*
X40403771Y17679079D02*
X40431694Y17644064D01*
X36220302Y12084698D02*
X36196475Y12046777D01*
X36289892Y12140194D02*
X36251971Y12116367D01*
X37759409Y12293616D02*
X37643287Y12220651D01*
X37929349Y12506713D02*
X37856384Y12390591D01*
X37974644Y12636160D02*
X37929349Y12506713D01*
X37990000Y12772441D02*
X37974644Y12636160D01*
X37990000Y13921800D02*
X37990000Y12772441D01*
X41675000Y16025000D02*
X40093200Y16025000D01*
X42683616Y16927121D02*
X42638832Y16927122D01*
X42767631Y16897725D02*
X42727280Y16917156D01*
X42802645Y16869800D02*
X42767631Y16897725D01*
X45010215Y14988335D02*
X44873071Y14988335D01*
X45267481Y15078357D02*
X45143919Y15018853D01*
X45374704Y15163864D02*
X45267481Y15078357D01*
X45513326Y15324203D02*
X45427819Y15216980D01*
X45572830Y15447765D02*
X45513326Y15324203D01*
X45603349Y15581471D02*
X45572830Y15447765D01*
X45572829Y15852317D02*
X45603348Y15718613D01*
X42120644Y19397368D02*
X42148568Y19362353D01*
X42091246Y19526167D02*
X42091246Y19481381D01*
X42101212Y19569830D02*
X42091246Y19526167D01*
X42120644Y19610181D02*
X42101212Y19569830D01*
X42148568Y19645195D02*
X42120644Y19610181D01*
X42183582Y19673118D02*
X42148568Y19645195D01*
X39477172Y11744645D02*
X39606619Y11699350D01*
X37377559Y12160000D02*
X36376669Y12160000D01*
X39340891Y10460000D02*
X38190000Y10460000D01*
X36196475Y12046777D02*
X36181683Y12004505D01*
X45710661Y16365943D02*
X45684102Y16392501D01*
X36376669Y12160000D02*
X36332164Y12154986D01*
X43385661Y20875197D02*
X43350646Y20847273D01*
X36181683Y11915496D02*
X36196475Y11873224D01*
X45603348Y15718613D02*
X45603349Y15581471D01*
X42638832Y16927122D02*
X42595168Y16917155D01*
X44739542Y19762936D02*
X44632319Y19848443D01*
X39953331Y11072441D02*
X39937976Y10936160D01*
X37513840Y12175356D02*
X37377559Y12160000D01*
X43426012Y20894629D02*
X43385661Y20875197D01*
X42519803Y16869801D02*
X41675000Y16025000D01*
X36289892Y11779807D02*
X36332164Y11765015D01*
X43469674Y20904594D02*
X43426012Y20894629D01*
X36332164Y12154986D02*
X36289892Y12140194D01*
X42431410Y19645195D02*
X42396395Y19673118D01*
X42727280Y16917156D02*
X42683616Y16927121D01*
X36181683Y12004505D02*
X36176669Y11960000D01*
X45684102Y16392501D02*
X42431410Y19645195D01*
X49750000Y24100000D02*
X45498441Y19848443D01*
X40093200Y16025000D02*
X37990000Y13921800D01*
X43633489Y20847273D02*
X43598474Y20875197D01*
X44508582Y15163864D02*
X44482023Y15190422D01*
X37643287Y12220651D02*
X37513840Y12175356D01*
X44863104Y19703432D02*
X44739542Y19762936D01*
X38145496Y10454986D02*
X38103224Y10440194D01*
X45267657Y19703432D02*
X45133952Y19672914D01*
X38033634Y10384698D02*
X38009807Y10346777D01*
X39892681Y11413288D02*
X39937976Y11283841D01*
X44632319Y19848443D02*
X43633489Y20847273D01*
X37995015Y10304505D02*
X37990000Y10260000D01*
X43598474Y20875197D02*
X43558123Y20894629D01*
X43350646Y20564431D02*
X46629898Y17285181D01*
X39722741Y10593616D02*
X39606619Y10520651D01*
X39477172Y10475356D02*
X39340891Y10460000D01*
X45513326Y15975879D02*
X45572829Y15852317D01*
X43514460Y20904594D02*
X43469674Y20904594D01*
X37990000Y9799303D02*
X37990000Y6440000D01*
X45941446Y16220932D02*
X45817884Y16280436D01*
X42595168Y16917155D02*
X42554817Y16897724D01*
X38103224Y10440194D02*
X38065303Y10416367D01*
X46345998Y16220932D02*
X46212294Y16190414D01*
X44739367Y15018853D02*
X44615805Y15078357D01*
X46805428Y16783550D02*
X46774909Y16649844D01*
X36376669Y11760000D02*
X39340891Y11760000D01*
X39606619Y10520651D02*
X39477172Y10475356D01*
X46629898Y16419059D02*
X46576783Y16365943D01*
X38009807Y10346777D02*
X37995015Y10304505D01*
X46576783Y16365943D02*
X46469560Y16280436D01*
X46212294Y16190414D02*
X46075150Y16190414D01*
X46629898Y17285181D02*
X46715405Y17177958D01*
X45427819Y15216980D02*
X45374704Y15163864D01*
X42312382Y19702516D02*
X42267596Y19702516D01*
X42267596Y19702516D02*
X42223933Y19692550D01*
X45498441Y19848443D02*
X45391218Y19762936D01*
X36176669Y11960000D02*
X36181683Y11915496D01*
X43303290Y20771908D02*
X43293324Y20728245D01*
X36196475Y11873224D02*
X36220302Y11835303D01*
X44615805Y15078357D02*
X44508582Y15163864D01*
X43293324Y20728245D02*
X43293324Y20683459D01*
X36220302Y11835303D02*
X36251971Y11803634D01*
X46469560Y16280436D02*
X46345998Y16220932D01*
X36251971Y11803634D02*
X36289892Y11779807D01*
X36332164Y11765015D02*
X36376669Y11760000D01*
X46805427Y16920692D02*
X46805428Y16783550D01*
X39340891Y11760000D02*
X39477172Y11744645D01*
X39606619Y11699350D02*
X39722741Y11626385D01*
X46715405Y17177958D02*
X46774908Y17054396D01*
X39722741Y11626385D02*
X39819716Y11529410D01*
X42148568Y19362353D02*
X45427819Y16083102D01*
X39819716Y11529410D02*
X39892681Y11413288D01*
X45817884Y16280436D02*
X45710661Y16365943D01*
X39937976Y11283841D02*
X39953331Y11147560D01*
X42223933Y19692550D02*
X42183582Y19673118D01*
X43350646Y20847273D02*
X43322722Y20812259D01*
X39953331Y11147560D02*
X39953331Y11072441D01*
X42091246Y19481381D02*
X42101212Y19437718D01*
X43293324Y20683459D02*
X43303290Y20639796D01*
X39937976Y10936160D02*
X39892681Y10806713D01*
X46774909Y16649844D02*
X46715405Y16526282D01*
X39892681Y10806713D02*
X39819716Y10690591D01*
X44482023Y15190422D02*
X42802645Y16869800D01*
X44996808Y19672914D02*
X44863104Y19703432D01*
X39819716Y10690591D02*
X39722741Y10593616D01*
X42554817Y16897724D02*
X42519803Y16869801D01*
X45391218Y19762936D02*
X45267657Y19703432D01*
X38190000Y10460000D02*
X38145496Y10454986D01*
X42101212Y19437718D02*
X42120644Y19397368D01*
X43322722Y20599446D02*
X43350646Y20564431D01*
X38065303Y10416367D02*
X38033634Y10384698D01*
X44873071Y14988335D02*
X44739367Y15018853D01*
X43303290Y20639796D02*
X43322722Y20599446D01*
X37990000Y10260000D02*
X37990000Y9799303D01*
X43322722Y20812259D02*
X43303290Y20771908D01*
X46715405Y16526282D02*
X46629898Y16419059D01*
X36251971Y12116367D02*
X36220302Y12084698D01*
X43558123Y20894629D02*
X43514460Y20904594D01*
X37856384Y12390591D02*
X37759409Y12293616D01*
X46774908Y17054396D02*
X46805427Y16920692D01*
X45133952Y19672914D02*
X44996808Y19672914D01*
X45427819Y16083102D02*
X45513326Y15975879D01*
X45143919Y15018853D02*
X45010215Y14988335D01*
X46075150Y16190414D02*
X45941446Y16220932D01*
X42356045Y19692550D02*
X42312382Y19702516D01*
X42396395Y19673118D02*
X42356045Y19692550D01*
X16433525Y17804578D02*
X16393174Y17785146D01*
X16468539Y17832501D02*
X16433525Y17804578D01*
X16733705Y18097666D02*
X16468539Y17832501D01*
X16760263Y18124225D02*
X16733705Y18097666D01*
X16867486Y18209732D02*
X16760263Y18124225D01*
X16991048Y18269236D02*
X16867486Y18209732D01*
X17124752Y18299754D02*
X16991048Y18269236D01*
X17261896Y18299754D02*
X17124752Y18299754D01*
X17395600Y18269236D02*
X17261896Y18299754D01*
X17519162Y18209732D02*
X17395600Y18269236D01*
X17626385Y18124225D02*
X17519162Y18209732D01*
X17679502Y18071107D02*
X17626385Y18124225D01*
X17765010Y17963884D02*
X17679502Y18071107D01*
X17824514Y17840323D02*
X17765010Y17963884D01*
X17855031Y17706618D02*
X17824514Y17840323D01*
X17855031Y17569475D02*
X17855031Y17706618D01*
X17824514Y17435770D02*
X17855031Y17569475D01*
X17765010Y17312208D02*
X17824514Y17435770D01*
X17679502Y17204985D02*
X17765010Y17312208D01*
X16521575Y16047054D02*
X17679502Y17204985D01*
X16493650Y16012040D02*
X16521575Y16047054D01*
X16474218Y15971690D02*
X16493650Y16012040D01*
X16464253Y15928026D02*
X16474218Y15971690D01*
X16464253Y15883240D02*
X16464253Y15928026D01*
X16474218Y15839578D02*
X16464253Y15883240D01*
X16493651Y15799226D02*
X16474218Y15839578D01*
X16521574Y15764212D02*
X16493651Y15799226D01*
X16556589Y15736289D02*
X16521574Y15764212D01*
X16596941Y15716856D02*
X16556589Y15736289D01*
X16640603Y15706891D02*
X16596941Y15716856D01*
X16685389Y15706891D02*
X16640603Y15706891D01*
X16729053Y15716856D02*
X16685389Y15706891D01*
X16769403Y15736288D02*
X16729053Y15716856D01*
X16804418Y15764211D02*
X16769403Y15736288D01*
X17935789Y16895582D02*
X16804418Y15764211D01*
X17962347Y16922141D02*
X17935789Y16895582D01*
X18069570Y17007648D02*
X17962347Y16922141D01*
X18193132Y17067152D02*
X18069570Y17007648D01*
X18326836Y17097670D02*
X18193132Y17067152D01*
X18463980Y17097670D02*
X18326836Y17097670D01*
X18597684Y17067152D02*
X18463980Y17097670D01*
X18721246Y17007648D02*
X18597684Y17067152D01*
X18828469Y16922141D02*
X18721246Y17007648D01*
X18881586Y16869023D02*
X18828469Y16922141D01*
X18967094Y16761800D02*
X18881586Y16869023D01*
X19026598Y16638239D02*
X18967094Y16761800D01*
X19057115Y16504534D02*
X19026598Y16638239D01*
X19057115Y16367391D02*
X19057115Y16504534D01*
X19026598Y16233686D02*
X19057115Y16367391D01*
X18967094Y16110124D02*
X19026598Y16233686D01*
X18881586Y16002901D02*
X18967094Y16110124D01*
X17723659Y14844970D02*
X18881586Y16002901D01*
X17695734Y14809956D02*
X17723659Y14844970D01*
X17676302Y14769606D02*
X17695734Y14809956D01*
X17666337Y14725942D02*
X17676302Y14769606D01*
X17666337Y14681156D02*
X17666337Y14725942D01*
X17676302Y14637494D02*
X17666337Y14681156D01*
X17695735Y14597142D02*
X17676302Y14637494D01*
X17723658Y14562128D02*
X17695735Y14597142D01*
X17758673Y14534205D02*
X17723658Y14562128D01*
X17799025Y14514772D02*
X17758673Y14534205D01*
X17842687Y14504807D02*
X17799025Y14514772D01*
X17887473Y14504807D02*
X17842687Y14504807D01*
X17931137Y14514772D02*
X17887473Y14504807D01*
X17971487Y14534204D02*
X17931137Y14514772D01*
X18006502Y14562127D02*
X17971487Y14534204D01*
X19137873Y15693498D02*
X18006502Y14562127D01*
X19164431Y15720057D02*
X19137873Y15693498D01*
X19271654Y15805564D02*
X19164431Y15720057D01*
X19395216Y15865068D02*
X19271654Y15805564D01*
X19528920Y15895586D02*
X19395216Y15865068D01*
X19666064Y15895586D02*
X19528920Y15895586D01*
X19799768Y15865068D02*
X19666064Y15895586D01*
X19923330Y15805564D02*
X19799768Y15865068D01*
X20030553Y15720057D02*
X19923330Y15805564D01*
X20083670Y15666939D02*
X20030553Y15720057D01*
X20169178Y15559716D02*
X20083670Y15666939D01*
X20228682Y15436155D02*
X20169178Y15559716D01*
X20259199Y15302450D02*
X20228682Y15436155D01*
X20259199Y15165307D02*
X20259199Y15302450D01*
X20228682Y15031602D02*
X20259199Y15165307D01*
X20169178Y14908040D02*
X20228682Y15031602D01*
X20083670Y14800817D02*
X20169178Y14908040D01*
X18925743Y13642886D02*
X20083670Y14800817D01*
X18897818Y13607872D02*
X18925743Y13642886D01*
X18878386Y13567522D02*
X18897818Y13607872D01*
X18868421Y13523858D02*
X18878386Y13567522D01*
X18868421Y13479072D02*
X18868421Y13523858D01*
X18878386Y13435410D02*
X18868421Y13479072D01*
X18897819Y13395058D02*
X18878386Y13435410D01*
X18925742Y13360044D02*
X18897819Y13395058D01*
X18960757Y13332121D02*
X18925742Y13360044D01*
X22663367Y12898282D02*
X22632850Y13031987D01*
X22487838Y12396649D02*
X22573346Y12503872D01*
X21301986Y11203704D02*
X21329911Y11238718D01*
X20099902Y12405788D02*
X20127827Y12440802D01*
X15725000Y18293200D02*
X15725000Y18325000D01*
X21282554Y11163354D02*
X21301986Y11203704D01*
X20080470Y12233326D02*
X20070505Y12276988D01*
X22663367Y12761139D02*
X22663367Y12898282D01*
X21272589Y11119690D02*
X21282554Y11163354D01*
X21272589Y11074904D02*
X21272589Y11119690D01*
X21329910Y10955876D02*
X21301987Y10990890D01*
X20868148Y14693502D02*
X20731004Y14693502D01*
X21364925Y10927953D02*
X21329910Y10955876D01*
X21405277Y10908520D02*
X21364925Y10927953D01*
X21448939Y10898555D02*
X21405277Y10908520D01*
X21537389Y10908520D02*
X21493725Y10898555D01*
X21577739Y10927952D02*
X21537389Y10908520D01*
X21612754Y10955875D02*
X21577739Y10927952D01*
X22744125Y12087246D02*
X21612754Y10955875D01*
X22770683Y12113805D02*
X22744125Y12087246D01*
X20597300Y14662984D02*
X20473738Y14603480D01*
X22877906Y12199312D02*
X22770683Y12113805D01*
X20080470Y12365438D02*
X20099902Y12405788D01*
X21301987Y10990890D02*
X21282554Y11031242D01*
X15725000Y18325000D02*
X15730014Y18369505D01*
X23001468Y12258816D02*
X22877906Y12199312D01*
X23398199Y10902842D02*
X23689922Y11194566D01*
X16185697Y17832501D02*
X15725000Y18293200D01*
X23865451Y11696199D02*
X23834933Y11829903D01*
X23689922Y11194566D02*
X23775429Y11301789D01*
X23530000Y10488200D02*
X23398199Y10620000D01*
X23350843Y10827477D02*
X23370275Y10867827D01*
X23340877Y10783814D02*
X23350843Y10827477D01*
X21493725Y10898555D02*
X21448939Y10898555D01*
X23530000Y6440000D02*
X23530000Y10488200D01*
X21001852Y14662984D02*
X20868148Y14693502D01*
X16304725Y17775180D02*
X16261062Y17785146D01*
X21282554Y11031242D02*
X21272589Y11074904D01*
X23398199Y10620000D02*
X23370275Y10655014D01*
X23370275Y10867827D02*
X23398199Y10902842D01*
X23135172Y12289334D02*
X23001468Y12258816D01*
X20339957Y14491414D02*
X19208586Y13360043D01*
X23350843Y10695365D02*
X23340877Y10739028D01*
X20291641Y12100639D02*
X20246855Y12100639D01*
X23775429Y11301789D02*
X23834933Y11425351D01*
X19208586Y13360043D02*
X19173571Y13332120D01*
X23406020Y12258816D02*
X23272316Y12289334D01*
X23834933Y11425351D02*
X23865451Y11559055D01*
X21371262Y13705956D02*
X21430766Y13829518D01*
X23370275Y10655014D02*
X23350843Y10695365D01*
X20366515Y14517973D02*
X20339957Y14491414D01*
X23865451Y11559055D02*
X23865451Y11696199D01*
X23775429Y11953465D02*
X23689922Y12060688D01*
X15730014Y18369505D02*
X15744806Y18411777D01*
X22632850Y12627434D02*
X22663367Y12761139D01*
X23529582Y12199312D02*
X23406020Y12258816D01*
X21329911Y11238718D02*
X22487838Y12396649D01*
X15744806Y18411777D02*
X15768633Y18449698D01*
X23834933Y11829903D02*
X23775429Y11953465D01*
X20099903Y12192974D02*
X20080470Y12233326D01*
X22573346Y12503872D02*
X22632850Y12627434D01*
X16393174Y17785146D02*
X16349511Y17775180D01*
X23689922Y12060688D02*
X23636805Y12113805D01*
X20070505Y12276988D02*
X20070505Y12321774D01*
X23636805Y12113805D02*
X23529582Y12199312D01*
X16261062Y17785146D02*
X16220712Y17804578D01*
X23340877Y10739028D02*
X23340877Y10783814D01*
X16349511Y17775180D02*
X16304725Y17775180D01*
X23272316Y12289334D02*
X23135172Y12289334D01*
X22632850Y13031987D02*
X22573346Y13155548D01*
X22573346Y13155548D02*
X22487838Y13262771D01*
X22487838Y13262771D02*
X22434721Y13315889D01*
X19001109Y13312688D02*
X18960757Y13332121D01*
X16220712Y17804578D02*
X16185697Y17832501D01*
X22434721Y13315889D02*
X22327498Y13401396D01*
X22327498Y13401396D02*
X22203936Y13460900D01*
X22203936Y13460900D02*
X22070232Y13491418D01*
X22070232Y13491418D02*
X21933088Y13491418D01*
X21933088Y13491418D02*
X21799384Y13460900D01*
X21799384Y13460900D02*
X21675822Y13401396D01*
X21675822Y13401396D02*
X21568599Y13315889D01*
X20335305Y12110604D02*
X20291641Y12100639D01*
X21568599Y13315889D02*
X21542041Y13289330D01*
X21542041Y13289330D02*
X20410670Y12157959D01*
X20410670Y12157959D02*
X20375655Y12130036D01*
X20375655Y12130036D02*
X20335305Y12110604D01*
X20246855Y12100639D02*
X20203193Y12110604D01*
X20203193Y12110604D02*
X20162841Y12130037D01*
X20162841Y12130037D02*
X20127826Y12157960D01*
X20127826Y12157960D02*
X20099903Y12192974D01*
X20070505Y12321774D02*
X20080470Y12365438D01*
X20127827Y12440802D02*
X21285754Y13598733D01*
X21285754Y13598733D02*
X21371262Y13705956D01*
X21430766Y13829518D02*
X21461283Y13963223D01*
X21461283Y13963223D02*
X21461283Y14100366D01*
X21461283Y14100366D02*
X21430766Y14234071D01*
X21430766Y14234071D02*
X21371262Y14357632D01*
X21371262Y14357632D02*
X21285754Y14464855D01*
X21285754Y14464855D02*
X21232637Y14517973D01*
X21232637Y14517973D02*
X21125414Y14603480D01*
X21125414Y14603480D02*
X21001852Y14662984D01*
X20731004Y14693502D02*
X20597300Y14662984D01*
X20473738Y14603480D02*
X20366515Y14517973D01*
X19173571Y13332120D02*
X19133221Y13312688D01*
X19133221Y13312688D02*
X19089557Y13302723D01*
X19089557Y13302723D02*
X19044771Y13302723D01*
X19044771Y13302723D02*
X19001109Y13312688D01*
X15768633Y18449698D02*
X15800302Y18481367D01*
X15800302Y18481367D02*
X15838223Y18505194D01*
X15838223Y18505194D02*
X15880495Y18519986D01*
X15880495Y18519986D02*
X15925000Y18525000D01*
X15925000Y18525000D02*
X16337559Y18525000D01*
X16337559Y18525000D02*
X16473840Y18540356D01*
X16473840Y18540356D02*
X16603287Y18585651D01*
X16603287Y18585651D02*
X16719409Y18658616D01*
X16719409Y18658616D02*
X16816384Y18755591D01*
X16816384Y18755591D02*
X16889349Y18871713D01*
X16889349Y18871713D02*
X16934644Y19001160D01*
X16934644Y19001160D02*
X16950000Y19137441D01*
X16950000Y19137441D02*
X16950000Y19212560D01*
X16950000Y19212560D02*
X16934644Y19348841D01*
X16934644Y19348841D02*
X16889349Y19478288D01*
X16889349Y19478288D02*
X16816384Y19594410D01*
X16816384Y19594410D02*
X16719409Y19691385D01*
X16719409Y19691385D02*
X16603287Y19764350D01*
X16603287Y19764350D02*
X16473840Y19809645D01*
X16473840Y19809645D02*
X16337559Y19825000D01*
X16337559Y19825000D02*
X14700000Y19825000D01*
X14700000Y19825000D02*
X14655496Y19830015D01*
X14655496Y19830015D02*
X14613224Y19844807D01*
X14613224Y19844807D02*
X14575303Y19868634D01*
X14575303Y19868634D02*
X14543634Y19900303D01*
X14543634Y19900303D02*
X14519807Y19938224D01*
X14519807Y19938224D02*
X14505015Y19980496D01*
X14505015Y19980496D02*
X14500000Y20025000D01*
X14500000Y20025000D02*
X14505015Y20069505D01*
X14505015Y20069505D02*
X14519807Y20111777D01*
X14519807Y20111777D02*
X14543634Y20149698D01*
X14543634Y20149698D02*
X14575303Y20181367D01*
X14575303Y20181367D02*
X14613224Y20205194D01*
X14613224Y20205194D02*
X14655496Y20219986D01*
X14655496Y20219986D02*
X14700000Y20225000D01*
X14700000Y20225000D02*
X15112560Y20225000D01*
X15112560Y20225000D02*
X15248841Y20240356D01*
X15248841Y20240356D02*
X15378288Y20285651D01*
X15378288Y20285651D02*
X15494410Y20358616D01*
X15494410Y20358616D02*
X15591385Y20455591D01*
X15591385Y20455591D02*
X15664350Y20571713D01*
X15664350Y20571713D02*
X15709645Y20701160D01*
X15709645Y20701160D02*
X15725000Y20837441D01*
X15725000Y20837441D02*
X15725000Y21305000D01*
X15725000Y21305000D02*
X17250000Y22830000D01*
X17250000Y22830000D02*
X17250000Y24100000D01*
X13750000Y22830000D02*
X13750000Y24100000D01*
X15275000Y21305000D02*
X13750000Y22830000D01*
X15275000Y20875000D02*
X15275000Y21305000D01*
X15269986Y20830496D02*
X15275000Y20875000D01*
X15255194Y20788224D02*
X15269986Y20830496D01*
X15231367Y20750303D02*
X15255194Y20788224D01*
X15199698Y20718634D02*
X15231367Y20750303D01*
X15161777Y20694807D02*
X15199698Y20718634D01*
X15119505Y20680015D02*
X15161777Y20694807D01*
X15075000Y20675000D02*
X15119505Y20680015D01*
X14662441Y20675000D02*
X15075000Y20675000D01*
X14526160Y20659645D02*
X14662441Y20675000D01*
X14396713Y20614350D02*
X14526160Y20659645D01*
X14280591Y20541385D02*
X14396713Y20614350D01*
X14183616Y20444410D02*
X14280591Y20541385D01*
X14110651Y20328288D02*
X14183616Y20444410D01*
X14065356Y20198841D02*
X14110651Y20328288D01*
X14050000Y20062560D02*
X14065356Y20198841D01*
X14050000Y19987441D02*
X14050000Y20062560D01*
X14065356Y19851160D02*
X14050000Y19987441D01*
X14110651Y19721713D02*
X14065356Y19851160D01*
X14183616Y19605591D02*
X14110651Y19721713D01*
X14280591Y19508616D02*
X14183616Y19605591D01*
X14396713Y19435651D02*
X14280591Y19508616D01*
X14526160Y19390356D02*
X14396713Y19435651D01*
X14662441Y19375000D02*
X14526160Y19390356D01*
X16300000Y19375000D02*
X14662441Y19375000D01*
X16344504Y19369986D02*
X16300000Y19375000D01*
X16386776Y19355194D02*
X16344504Y19369986D01*
X16424697Y19331367D02*
X16386776Y19355194D01*
X16456366Y19299698D02*
X16424697Y19331367D01*
X16480193Y19261777D02*
X16456366Y19299698D01*
X16494985Y19219505D02*
X16480193Y19261777D01*
X16500000Y19175000D02*
X16494985Y19219505D01*
X16494985Y19130496D02*
X16500000Y19175000D01*
X16480193Y19088224D02*
X16494985Y19130496D01*
X16456366Y19050303D02*
X16480193Y19088224D01*
X16424697Y19018634D02*
X16456366Y19050303D01*
X16386776Y18994807D02*
X16424697Y19018634D01*
X16344504Y18980015D02*
X16386776Y18994807D01*
X16300000Y18975000D02*
X16344504Y18980015D01*
X15887440Y18975000D02*
X16300000Y18975000D01*
X15751159Y18959645D02*
X15887440Y18975000D01*
X15621712Y18914350D02*
X15751159Y18959645D01*
X15505590Y18841385D02*
X15621712Y18914350D01*
X15408615Y18744410D02*
X15505590Y18841385D01*
X15335650Y18628288D02*
X15408615Y18744410D01*
X15290355Y18498841D02*
X15335650Y18628288D01*
X15275000Y18362560D02*
X15290355Y18498841D01*
X15275000Y18106800D02*
X15275000Y18362560D01*
X15894057Y17487745D02*
X15275000Y18106800D01*
X16001280Y17402238D02*
X15894057Y17487745D01*
X16124842Y17342734D02*
X16001280Y17402238D01*
X16258546Y17312216D02*
X16124842Y17342734D01*
X16395690Y17312216D02*
X16258546Y17312216D01*
X16529394Y17342734D02*
X16395690Y17312216D01*
X16652956Y17402238D02*
X16529394Y17342734D01*
X16760179Y17487745D02*
X16652956Y17402238D01*
X17051903Y17779468D02*
X16760179Y17487745D01*
X17086918Y17807392D02*
X17051903Y17779468D01*
X17127268Y17826824D02*
X17086918Y17807392D01*
X17170931Y17836790D02*
X17127268Y17826824D01*
X17215717Y17836790D02*
X17170931Y17836790D01*
X17259380Y17826824D02*
X17215717Y17836790D01*
X17299731Y17807392D02*
X17259380Y17826824D01*
X17334746Y17779468D02*
X17299731Y17807392D01*
X17362669Y17744453D02*
X17334746Y17779468D01*
X17382101Y17704102D02*
X17362669Y17744453D01*
X17392067Y17660439D02*
X17382101Y17704102D01*
X17392067Y17615653D02*
X17392067Y17660439D01*
X17382101Y17571990D02*
X17392067Y17615653D01*
X17362669Y17531640D02*
X17382101Y17571990D01*
X17334746Y17496625D02*
X17362669Y17531640D01*
X16203377Y16365252D02*
X17334746Y17496625D01*
X16176817Y16338695D02*
X16203377Y16365252D01*
X16091310Y16231472D02*
X16176817Y16338695D01*
X16031806Y16107910D02*
X16091310Y16231472D01*
X16001288Y15974206D02*
X16031806Y16107910D01*
X16001288Y15837062D02*
X16001288Y15974206D01*
X16031806Y15703358D02*
X16001288Y15837062D01*
X18373015Y16634706D02*
X18329352Y16624740D01*
X18594151Y16458355D02*
X18584185Y16502018D01*
X18536830Y16577384D02*
X18501815Y16605308D01*
X16988834Y15333948D02*
X16865272Y15274444D01*
X18461464Y16624740D02*
X18417801Y16634706D01*
X16460720Y15274443D02*
X16337158Y15333948D01*
X17096056Y15419457D02*
X16988834Y15333948D01*
X18501815Y16605308D02*
X18461464Y16624740D01*
X18329352Y16624740D02*
X18289002Y16605308D01*
X18253987Y16577384D02*
X17096056Y15419457D01*
X22510000Y8220000D02*
X23080000Y8790000D01*
X16176817Y15472573D02*
X16091310Y15579796D01*
X23080000Y8790000D02*
X23080000Y10301801D01*
X18417801Y16634706D02*
X18373015Y16634706D01*
X23080000Y10301801D02*
X23053442Y10328360D01*
X16594425Y15243926D02*
X16460720Y15274443D01*
X23053442Y10328360D02*
X22967935Y10435583D01*
X22967935Y10435583D02*
X22908431Y10559144D01*
X22908431Y10559144D02*
X22877913Y10692849D01*
X22877913Y10692849D02*
X22877913Y10829993D01*
X22877913Y10829993D02*
X22908431Y10963697D01*
X22908431Y10963697D02*
X22967935Y11087259D01*
X22967935Y11087259D02*
X23053442Y11194482D01*
X23053442Y11194482D02*
X23345165Y11486206D01*
X23345165Y11486206D02*
X23373088Y11521220D01*
X23373088Y11521220D02*
X23392520Y11561571D01*
X23392520Y11561571D02*
X23402486Y11605234D01*
X23402486Y11605234D02*
X23402486Y11650020D01*
X23402486Y11650020D02*
X23392520Y11693683D01*
X23392520Y11693683D02*
X23373088Y11734033D01*
X18289002Y16605308D02*
X18253987Y16577384D01*
X23373088Y11734033D02*
X23345165Y11769048D01*
X23345165Y11769048D02*
X23310150Y11796972D01*
X23310150Y11796972D02*
X23269799Y11816404D01*
X23269799Y11816404D02*
X23226136Y11826370D01*
X23226136Y11826370D02*
X23181350Y11826370D01*
X16091310Y15579796D02*
X16031806Y15703358D01*
X23181350Y11826370D02*
X23137687Y11816404D01*
X23137687Y11816404D02*
X23097337Y11796972D01*
X23097337Y11796972D02*
X23062322Y11769048D01*
X18584185Y16502018D02*
X18564753Y16542369D01*
X23062322Y11769048D02*
X21904392Y10611121D01*
X21904392Y10611121D02*
X21797170Y10525612D01*
X21797170Y10525612D02*
X21673608Y10466108D01*
X21673608Y10466108D02*
X21539903Y10435591D01*
X21539903Y10435591D02*
X21402761Y10435590D01*
X21402761Y10435590D02*
X21269056Y10466107D01*
X21269056Y10466107D02*
X21145494Y10525612D01*
X21145494Y10525612D02*
X21038272Y10611119D01*
X21038272Y10611119D02*
X20985153Y10664237D01*
X20985153Y10664237D02*
X20899646Y10771460D01*
X20899646Y10771460D02*
X20840142Y10895022D01*
X20840142Y10895022D02*
X20809624Y11028726D01*
X20809624Y11028726D02*
X20809624Y11165870D01*
X20809624Y11165870D02*
X20840142Y11299574D01*
X20840142Y11299574D02*
X20899646Y11423136D01*
X20899646Y11423136D02*
X20985153Y11530359D01*
X16229936Y15419455D02*
X16176817Y15472573D01*
X20985153Y11530359D02*
X21011713Y11556916D01*
X21011713Y11556916D02*
X22143082Y12688289D01*
X22143082Y12688289D02*
X22171005Y12723304D01*
X22171005Y12723304D02*
X22190437Y12763654D01*
X16337158Y15333948D02*
X16229936Y15419455D01*
X22190437Y12763654D02*
X22200403Y12807317D01*
X18564753Y16542369D02*
X18536830Y16577384D01*
X22200403Y12807317D02*
X22200403Y12852103D01*
X22200403Y12852103D02*
X22190437Y12895766D01*
X22190437Y12895766D02*
X22171005Y12936117D01*
X22171005Y12936117D02*
X22143082Y12971132D01*
X22143082Y12971132D02*
X22108067Y12999056D01*
X22108067Y12999056D02*
X22067716Y13018488D01*
X22067716Y13018488D02*
X22024053Y13028454D01*
X16865272Y15274444D02*
X16731567Y15243927D01*
X22024053Y13028454D02*
X21979267Y13028454D01*
X21979267Y13028454D02*
X21935604Y13018488D01*
X21935604Y13018488D02*
X21895254Y12999056D01*
X21895254Y12999056D02*
X21860239Y12971132D01*
X21860239Y12971132D02*
X20702308Y11813205D01*
X20702308Y11813205D02*
X20595086Y11727696D01*
X20595086Y11727696D02*
X20471524Y11668192D01*
X16731567Y15243927D02*
X16594425Y15243926D01*
X20471524Y11668192D02*
X20337819Y11637675D01*
X20337819Y11637675D02*
X20200677Y11637674D01*
X20200677Y11637674D02*
X20066972Y11668191D01*
X20066972Y11668191D02*
X19943410Y11727696D01*
X19943410Y11727696D02*
X19836188Y11813203D01*
X19836188Y11813203D02*
X19783069Y11866321D01*
X19783069Y11866321D02*
X19697562Y11973544D01*
X19697562Y11973544D02*
X19638058Y12097106D01*
X19638058Y12097106D02*
X19607540Y12230810D01*
X19607540Y12230810D02*
X19607540Y12367954D01*
X19607540Y12367954D02*
X19638058Y12501658D01*
X19638058Y12501658D02*
X19697562Y12625220D01*
X19697562Y12625220D02*
X19783069Y12732443D01*
X19783069Y12732443D02*
X19809629Y12759000D01*
X19809629Y12759000D02*
X20940998Y13890373D01*
X20940998Y13890373D02*
X20968921Y13925388D01*
X20968921Y13925388D02*
X20988353Y13965738D01*
X20988353Y13965738D02*
X20998319Y14009401D01*
X20998319Y14009401D02*
X20998319Y14054187D01*
X20998319Y14054187D02*
X20988353Y14097850D01*
X20988353Y14097850D02*
X20968921Y14138201D01*
X20968921Y14138201D02*
X20940998Y14173216D01*
X20940998Y14173216D02*
X20905983Y14201140D01*
X20905983Y14201140D02*
X20865632Y14220572D01*
X20865632Y14220572D02*
X20821969Y14230538D01*
X20821969Y14230538D02*
X20777183Y14230538D01*
X20777183Y14230538D02*
X20733520Y14220572D01*
X20733520Y14220572D02*
X20693170Y14201140D01*
X20693170Y14201140D02*
X20658155Y14173216D01*
X20658155Y14173216D02*
X19500224Y13015289D01*
X19500224Y13015289D02*
X19393002Y12929780D01*
X19393002Y12929780D02*
X19269440Y12870276D01*
X19269440Y12870276D02*
X19135735Y12839759D01*
X19135735Y12839759D02*
X18998593Y12839758D01*
X18998593Y12839758D02*
X18864888Y12870275D01*
X18864888Y12870275D02*
X18741326Y12929780D01*
X18741326Y12929780D02*
X18634104Y13015287D01*
X18634104Y13015287D02*
X18580985Y13068405D01*
X18580985Y13068405D02*
X18495478Y13175628D01*
X18495478Y13175628D02*
X18435974Y13299190D01*
X18435974Y13299190D02*
X18405456Y13432894D01*
X18405456Y13432894D02*
X18405456Y13570038D01*
X18405456Y13570038D02*
X18435974Y13703742D01*
X18435974Y13703742D02*
X18495478Y13827304D01*
X18495478Y13827304D02*
X18580985Y13934527D01*
X18580985Y13934527D02*
X18607545Y13961084D01*
X18607545Y13961084D02*
X19738914Y15092457D01*
X19738914Y15092457D02*
X19766837Y15127472D01*
X19766837Y15127472D02*
X19786269Y15167822D01*
X19786269Y15167822D02*
X19796235Y15211485D01*
X19796235Y15211485D02*
X19796235Y15256271D01*
X19796235Y15256271D02*
X19786269Y15299934D01*
X19786269Y15299934D02*
X19766837Y15340285D01*
X19766837Y15340285D02*
X19738914Y15375300D01*
X19738914Y15375300D02*
X19703899Y15403224D01*
X19703899Y15403224D02*
X19663548Y15422656D01*
X19663548Y15422656D02*
X19619885Y15432622D01*
X19619885Y15432622D02*
X19575099Y15432622D01*
X19575099Y15432622D02*
X19531436Y15422656D01*
X19531436Y15422656D02*
X19491086Y15403224D01*
X19491086Y15403224D02*
X19456071Y15375300D01*
X19456071Y15375300D02*
X18298140Y14217373D01*
X18298140Y14217373D02*
X18190918Y14131864D01*
X18190918Y14131864D02*
X18067356Y14072360D01*
X18067356Y14072360D02*
X17933651Y14041843D01*
X17933651Y14041843D02*
X17796509Y14041842D01*
X17796509Y14041842D02*
X17662804Y14072359D01*
X17662804Y14072359D02*
X17539242Y14131864D01*
X17539242Y14131864D02*
X17432020Y14217371D01*
X17432020Y14217371D02*
X17378901Y14270489D01*
X17378901Y14270489D02*
X17293394Y14377712D01*
X17293394Y14377712D02*
X17233890Y14501274D01*
X17233890Y14501274D02*
X17203372Y14634978D01*
X17203372Y14634978D02*
X17203372Y14772122D01*
X17203372Y14772122D02*
X17233890Y14905826D01*
X17233890Y14905826D02*
X17293394Y15029388D01*
X17293394Y15029388D02*
X17378901Y15136611D01*
X17378901Y15136611D02*
X17405461Y15163168D01*
X17405461Y15163168D02*
X18536830Y16294541D01*
X18536830Y16294541D02*
X18564753Y16329556D01*
X18564753Y16329556D02*
X18584185Y16369906D01*
X18584185Y16369906D02*
X18594151Y16413569D01*
X18594151Y16413569D02*
X18594151Y16458355D01*
D17*
X48000000Y32460000D02*
X51900000Y28560000D01*
X48000000Y35500000D02*
X48000000Y32460000D01*
X51900000Y14552002D02*
X41847998Y4500000D01*
X51900000Y28560000D02*
X51900000Y14552002D01*
X37890000Y4500000D02*
X35950000Y6440000D01*
X41847998Y4500000D02*
X37890000Y4500000D01*
X22500000Y34230000D02*
X17270000Y29000000D01*
X22500000Y35500000D02*
X22500000Y34230000D01*
X17270000Y29000000D02*
X12100000Y29000000D01*
X8250001Y25150001D02*
X8250001Y15749999D01*
X12100000Y29000000D02*
X8250001Y25150001D01*
X17560000Y6440000D02*
X19450000Y6440000D01*
X8250001Y15749999D02*
X17560000Y6440000D01*
D18*
G36*
X59340000Y660000D02*
G01*
X660000Y660000D01*
X660000Y4115204D01*
X13465000Y4115204D01*
X13465000Y3684796D01*
X13548969Y3262659D01*
X13713678Y2865015D01*
X13952800Y2507144D01*
X14257144Y2202800D01*
X14615015Y1963678D01*
X15012659Y1798969D01*
X15434796Y1715000D01*
X15865204Y1715000D01*
X16287341Y1798969D01*
X16684985Y1963678D01*
X17042856Y2202800D01*
X17347200Y2507144D01*
X17586322Y2865015D01*
X17751031Y3262659D01*
X17835000Y3684796D01*
X17835000Y4115204D01*
X26165000Y4115204D01*
X26165000Y3684796D01*
X26248969Y3262659D01*
X26413678Y2865015D01*
X26652800Y2507144D01*
X26957144Y2202800D01*
X27315015Y1963678D01*
X27712659Y1798969D01*
X28134796Y1715000D01*
X28565204Y1715000D01*
X28987341Y1798969D01*
X29384985Y1963678D01*
X29742856Y2202800D01*
X30047200Y2507144D01*
X30250000Y2810655D01*
X30452800Y2507144D01*
X30757144Y2202800D01*
X31115015Y1963678D01*
X31512659Y1798969D01*
X31934796Y1715000D01*
X32365204Y1715000D01*
X32787341Y1798969D01*
X33184985Y1963678D01*
X33542856Y2202800D01*
X33847200Y2507144D01*
X34086322Y2865015D01*
X34251031Y3262659D01*
X34335000Y3684796D01*
X34335000Y4115204D01*
X34251031Y4537341D01*
X34086322Y4934985D01*
X33847200Y5292856D01*
X33542856Y5597200D01*
X33184985Y5836322D01*
X32787341Y6001031D01*
X32365204Y6085000D01*
X31934796Y6085000D01*
X31512659Y6001031D01*
X31115015Y5836322D01*
X30757144Y5597200D01*
X30452800Y5292856D01*
X30250000Y4989345D01*
X30047200Y5292856D01*
X29742856Y5597200D01*
X29384985Y5836322D01*
X28987341Y6001031D01*
X28565204Y6085000D01*
X28134796Y6085000D01*
X27712659Y6001031D01*
X27315015Y5836322D01*
X26957144Y5597200D01*
X26652800Y5292856D01*
X26413678Y4934985D01*
X26248969Y4537341D01*
X26165000Y4115204D01*
X17835000Y4115204D01*
X17751031Y4537341D01*
X17586322Y4934985D01*
X17347200Y5292856D01*
X17042856Y5597200D01*
X16684985Y5836322D01*
X16287341Y6001031D01*
X15865204Y6085000D01*
X15434796Y6085000D01*
X15012659Y6001031D01*
X14615015Y5836322D01*
X14257144Y5597200D01*
X13952800Y5292856D01*
X13713678Y4934985D01*
X13548969Y4537341D01*
X13465000Y4115204D01*
X660000Y4115204D01*
X660000Y10307983D01*
X1873000Y10307983D01*
X1873000Y9692017D01*
X1993169Y9087888D01*
X2228889Y8518810D01*
X2571101Y8006654D01*
X3006654Y7571101D01*
X3518810Y7228889D01*
X4087888Y6993169D01*
X4692017Y6873000D01*
X5307983Y6873000D01*
X5912112Y6993169D01*
X6481190Y7228889D01*
X6993346Y7571101D01*
X7428899Y8006654D01*
X7771111Y8518810D01*
X8006831Y9087888D01*
X8127000Y9692017D01*
X8127000Y10307983D01*
X8006831Y10912112D01*
X7771111Y11481190D01*
X7428899Y11993346D01*
X6993346Y12428899D01*
X6481190Y12771111D01*
X5912112Y13006831D01*
X5307983Y13127000D01*
X4692017Y13127000D01*
X4087888Y13006831D01*
X3518810Y12771111D01*
X3006654Y12428899D01*
X2571101Y11993346D01*
X2228889Y11481190D01*
X1993169Y10912112D01*
X1873000Y10307983D01*
X660000Y10307983D01*
X660000Y25150001D01*
X7360720Y25150001D01*
X7365001Y25106532D01*
X7365002Y15793478D01*
X7360720Y15749999D01*
X7377806Y15576509D01*
X7428413Y15409686D01*
X7510591Y15255940D01*
X7593469Y15154953D01*
X7593472Y15154950D01*
X7621185Y15121182D01*
X7654953Y15093469D01*
X13833421Y8915000D01*
X13593891Y8915000D01*
X13287673Y8854089D01*
X12999221Y8734609D01*
X12739621Y8561150D01*
X12518850Y8340379D01*
X12345391Y8080779D01*
X12225911Y7792327D01*
X12165000Y7486109D01*
X12165000Y7173891D01*
X12225911Y6867673D01*
X12345391Y6579221D01*
X12518850Y6319621D01*
X12739621Y6098850D01*
X12999221Y5925391D01*
X13287673Y5805911D01*
X13593891Y5745000D01*
X13906109Y5745000D01*
X14212327Y5805911D01*
X14500779Y5925391D01*
X14760379Y6098850D01*
X14981150Y6319621D01*
X15154609Y6579221D01*
X15274089Y6867673D01*
X15335000Y7173891D01*
X15335000Y7413421D01*
X16903470Y5844951D01*
X16931183Y5811183D01*
X16964951Y5783470D01*
X16964953Y5783468D01*
X17064899Y5701444D01*
X17065941Y5700589D01*
X17219687Y5618411D01*
X17386510Y5567805D01*
X17516523Y5555000D01*
X17516531Y5555000D01*
X17560000Y5550719D01*
X17603469Y5555000D01*
X18517735Y5555000D01*
X18630860Y5441875D01*
X18841324Y5301247D01*
X19075179Y5204381D01*
X19323439Y5155000D01*
X19576561Y5155000D01*
X19824821Y5204381D01*
X20058676Y5301247D01*
X20269140Y5441875D01*
X20448125Y5620860D01*
X20470000Y5653598D01*
X20491875Y5620860D01*
X20670860Y5441875D01*
X20881324Y5301247D01*
X21115179Y5204381D01*
X21363439Y5155000D01*
X21616561Y5155000D01*
X21864821Y5204381D01*
X22098676Y5301247D01*
X22309140Y5441875D01*
X22488125Y5620860D01*
X22510000Y5653598D01*
X22531875Y5620860D01*
X22710860Y5441875D01*
X22921324Y5301247D01*
X23155179Y5204381D01*
X23403439Y5155000D01*
X23656561Y5155000D01*
X23904821Y5204381D01*
X24138676Y5301247D01*
X24349140Y5441875D01*
X24528125Y5620860D01*
X24550000Y5653598D01*
X24571875Y5620860D01*
X24750860Y5441875D01*
X24961324Y5301247D01*
X25195179Y5204381D01*
X25443439Y5155000D01*
X25696561Y5155000D01*
X25944821Y5204381D01*
X26178676Y5301247D01*
X26389140Y5441875D01*
X26568125Y5620860D01*
X26708753Y5831324D01*
X26805619Y6065179D01*
X26855000Y6313439D01*
X26855000Y6566561D01*
X26805619Y6814821D01*
X26708753Y7048676D01*
X26568125Y7259140D01*
X26389140Y7438125D01*
X26317328Y7486109D01*
X28665000Y7486109D01*
X28665000Y7173891D01*
X28725911Y6867673D01*
X28845391Y6579221D01*
X29018850Y6319621D01*
X29239621Y6098850D01*
X29499221Y5925391D01*
X29787673Y5805911D01*
X30093891Y5745000D01*
X30406109Y5745000D01*
X30712327Y5805911D01*
X31000779Y5925391D01*
X31260379Y6098850D01*
X31481150Y6319621D01*
X31654609Y6579221D01*
X31774089Y6867673D01*
X31835000Y7173891D01*
X31835000Y7334473D01*
X34224078Y7334473D01*
X34277466Y7105799D01*
X34507374Y6999905D01*
X34753524Y6940898D01*
X34766396Y6940397D01*
X34714381Y6814821D01*
X34665000Y6566561D01*
X34665000Y6313439D01*
X34714381Y6065179D01*
X34811247Y5831324D01*
X34951875Y5620860D01*
X35130860Y5441875D01*
X35341324Y5301247D01*
X35575179Y5204381D01*
X35823439Y5155000D01*
X35983422Y5155000D01*
X37233470Y3904951D01*
X37261183Y3871183D01*
X37294951Y3843470D01*
X37294953Y3843468D01*
X37366452Y3784790D01*
X37395941Y3760589D01*
X37549687Y3678411D01*
X37716510Y3627805D01*
X37846523Y3615000D01*
X37846533Y3615000D01*
X37889999Y3610719D01*
X37933465Y3615000D01*
X41804529Y3615000D01*
X41847998Y3610719D01*
X41891467Y3615000D01*
X41891475Y3615000D01*
X42021488Y3627805D01*
X42188311Y3678411D01*
X42342057Y3760589D01*
X42476815Y3871183D01*
X42504532Y3904956D01*
X42665000Y4065424D01*
X42665000Y3684796D01*
X42748969Y3262659D01*
X42913678Y2865015D01*
X43152800Y2507144D01*
X43457144Y2202800D01*
X43815015Y1963678D01*
X44212659Y1798969D01*
X44634796Y1715000D01*
X45065204Y1715000D01*
X45487341Y1798969D01*
X45884985Y1963678D01*
X46242856Y2202800D01*
X46547200Y2507144D01*
X46786322Y2865015D01*
X46951031Y3262659D01*
X47035000Y3684796D01*
X47035000Y4115204D01*
X46951031Y4537341D01*
X46786322Y4934985D01*
X46547200Y5292856D01*
X46242856Y5597200D01*
X45884985Y5836322D01*
X45487341Y6001031D01*
X45065204Y6085000D01*
X44684576Y6085000D01*
X45296597Y6697021D01*
X45345391Y6579221D01*
X45518850Y6319621D01*
X45739621Y6098850D01*
X45999221Y5925391D01*
X46287673Y5805911D01*
X46593891Y5745000D01*
X46906109Y5745000D01*
X47212327Y5805911D01*
X47500779Y5925391D01*
X47760379Y6098850D01*
X47981150Y6319621D01*
X48154609Y6579221D01*
X48274089Y6867673D01*
X48335000Y7173891D01*
X48335000Y7486109D01*
X48274089Y7792327D01*
X48154609Y8080779D01*
X47981150Y8340379D01*
X47760379Y8561150D01*
X47500779Y8734609D01*
X47382979Y8783403D01*
X48907559Y10307983D01*
X51873000Y10307983D01*
X51873000Y9692017D01*
X51993169Y9087888D01*
X52228889Y8518810D01*
X52571101Y8006654D01*
X53006654Y7571101D01*
X53518810Y7228889D01*
X54087888Y6993169D01*
X54692017Y6873000D01*
X55307983Y6873000D01*
X55912112Y6993169D01*
X56481190Y7228889D01*
X56993346Y7571101D01*
X57428899Y8006654D01*
X57771111Y8518810D01*
X58006831Y9087888D01*
X58127000Y9692017D01*
X58127000Y10307983D01*
X58006831Y10912112D01*
X57771111Y11481190D01*
X57428899Y11993346D01*
X56993346Y12428899D01*
X56481190Y12771111D01*
X55912112Y13006831D01*
X55307983Y13127000D01*
X54692017Y13127000D01*
X54087888Y13006831D01*
X53518810Y12771111D01*
X53006654Y12428899D01*
X52571101Y11993346D01*
X52228889Y11481190D01*
X51993169Y10912112D01*
X51873000Y10307983D01*
X48907559Y10307983D01*
X52495049Y13895472D01*
X52528817Y13923185D01*
X52557311Y13957904D01*
X52639411Y14057943D01*
X52721589Y14211688D01*
X52772195Y14378512D01*
X52773334Y14390079D01*
X52785000Y14508525D01*
X52785000Y14508533D01*
X52789281Y14552002D01*
X52785000Y14595471D01*
X52785000Y28516531D01*
X52789281Y28560000D01*
X52785000Y28603469D01*
X52785000Y28603477D01*
X52772195Y28733490D01*
X52721589Y28900313D01*
X52639411Y29054059D01*
X52528817Y29188817D01*
X52495050Y29216528D01*
X49068815Y32642763D01*
X49353556Y32876444D01*
X49591613Y33166518D01*
X49768506Y33497461D01*
X49877436Y33856555D01*
X49905000Y34136418D01*
X49905000Y35307983D01*
X51873000Y35307983D01*
X51873000Y34692017D01*
X51993169Y34087888D01*
X52228889Y33518810D01*
X52571101Y33006654D01*
X53006654Y32571101D01*
X53518810Y32228889D01*
X54087888Y31993169D01*
X54692017Y31873000D01*
X55307983Y31873000D01*
X55912112Y31993169D01*
X56481190Y32228889D01*
X56993346Y32571101D01*
X57428899Y33006654D01*
X57771111Y33518810D01*
X58006831Y34087888D01*
X58127000Y34692017D01*
X58127000Y35307983D01*
X58006831Y35912112D01*
X57771111Y36481190D01*
X57428899Y36993346D01*
X56993346Y37428899D01*
X56481190Y37771111D01*
X55912112Y38006831D01*
X55307983Y38127000D01*
X54692017Y38127000D01*
X54087888Y38006831D01*
X53518810Y37771111D01*
X53006654Y37428899D01*
X52571101Y36993346D01*
X52228889Y36481190D01*
X51993169Y35912112D01*
X51873000Y35307983D01*
X49905000Y35307983D01*
X49905000Y36863582D01*
X49877436Y37143445D01*
X49768506Y37502539D01*
X49591613Y37833482D01*
X49353556Y38123556D01*
X49063482Y38361613D01*
X48732539Y38538506D01*
X48373445Y38647436D01*
X48000000Y38684217D01*
X47626556Y38647436D01*
X47267462Y38538506D01*
X46936519Y38361613D01*
X46646445Y38123556D01*
X46408388Y37833482D01*
X46244898Y37527615D01*
X46211389Y37616345D01*
X46013391Y37933958D01*
X45757235Y38206841D01*
X45452764Y38424507D01*
X45111679Y38578591D01*
X44922781Y38627493D01*
X44627000Y38511626D01*
X44627000Y35627000D01*
X44647000Y35627000D01*
X44647000Y35373000D01*
X44627000Y35373000D01*
X44627000Y32488374D01*
X44922781Y32372507D01*
X45111679Y32421409D01*
X45452764Y32575493D01*
X45757235Y32793159D01*
X46013391Y33066042D01*
X46211389Y33383655D01*
X46244898Y33472385D01*
X46408387Y33166518D01*
X46646444Y32876444D01*
X46936518Y32638387D01*
X47115001Y32542986D01*
X47115001Y32503479D01*
X47110719Y32460000D01*
X47127805Y32286510D01*
X47178412Y32119687D01*
X47260590Y31965941D01*
X47343468Y31864954D01*
X47343471Y31864951D01*
X47371184Y31831183D01*
X47404951Y31803470D01*
X51015000Y28193421D01*
X51015000Y26796232D01*
X50813482Y26961613D01*
X50482539Y27138506D01*
X50123445Y27247436D01*
X49750000Y27284217D01*
X49376556Y27247436D01*
X49017462Y27138506D01*
X48686519Y26961613D01*
X48396445Y26723556D01*
X48158388Y26433482D01*
X48000001Y26137160D01*
X47841613Y26433482D01*
X47603556Y26723556D01*
X47313482Y26961613D01*
X46982539Y27138506D01*
X46623445Y27247436D01*
X46250000Y27284217D01*
X45876556Y27247436D01*
X45517462Y27138506D01*
X45186519Y26961613D01*
X44896445Y26723556D01*
X44658388Y26433482D01*
X44500001Y26137160D01*
X44341613Y26433482D01*
X44103556Y26723556D01*
X43813482Y26961613D01*
X43482539Y27138506D01*
X43123445Y27247436D01*
X42750000Y27284217D01*
X42376556Y27247436D01*
X42017462Y27138506D01*
X41686519Y26961613D01*
X41396445Y26723556D01*
X41158388Y26433482D01*
X41000001Y26137160D01*
X40841613Y26433482D01*
X40603556Y26723556D01*
X40313482Y26961613D01*
X39982539Y27138506D01*
X39623445Y27247436D01*
X39250000Y27284217D01*
X38876556Y27247436D01*
X38517462Y27138506D01*
X38186519Y26961613D01*
X37896445Y26723556D01*
X37658388Y26433482D01*
X37481495Y26102539D01*
X37372565Y25743445D01*
X37345001Y25463582D01*
X37345000Y22736419D01*
X37372564Y22456556D01*
X37481494Y22097462D01*
X37622100Y21834407D01*
X37583215Y21810729D01*
X37548898Y21779185D01*
X37514365Y21751645D01*
X37509783Y21749196D01*
X37457800Y21706536D01*
X37433603Y21687239D01*
X37429905Y21683644D01*
X37425909Y21680364D01*
X37403990Y21658445D01*
X37393871Y21648606D01*
X37390483Y21646273D01*
X37373359Y21628662D01*
X37355812Y21611600D01*
X37353487Y21608224D01*
X37343610Y21598065D01*
X37321732Y21576188D01*
X37318453Y21572193D01*
X37314844Y21568481D01*
X37295527Y21544259D01*
X37252897Y21492315D01*
X37250444Y21487725D01*
X37222897Y21453182D01*
X37191358Y21418871D01*
X37159071Y21365849D01*
X37125306Y21313749D01*
X37108078Y21270448D01*
X37070941Y21193332D01*
X37047830Y21152868D01*
X37028149Y21093989D01*
X37006823Y21035677D01*
X36999662Y20989630D01*
X36980617Y20906191D01*
X36967086Y20861585D01*
X36964516Y20835490D01*
X36938423Y20832920D01*
X36893814Y20819388D01*
X36810383Y20800345D01*
X36764331Y20793183D01*
X36706040Y20771864D01*
X36647141Y20752177D01*
X36606663Y20729058D01*
X36529563Y20691929D01*
X36486259Y20674700D01*
X36434166Y20640940D01*
X36381136Y20608648D01*
X36346821Y20577105D01*
X36312287Y20549566D01*
X36307704Y20547116D01*
X36255735Y20504467D01*
X36231527Y20485162D01*
X36227826Y20481563D01*
X36223830Y20478284D01*
X36201927Y20456382D01*
X36191790Y20446525D01*
X36188404Y20444193D01*
X36171295Y20426597D01*
X36153735Y20409523D01*
X36151408Y20406144D01*
X36141531Y20395985D01*
X36119653Y20374108D01*
X36116374Y20370113D01*
X36112765Y20366401D01*
X36093448Y20342179D01*
X36050818Y20290235D01*
X36048365Y20285645D01*
X36020818Y20251102D01*
X35989279Y20216791D01*
X35956992Y20163769D01*
X35923227Y20111669D01*
X35905999Y20068368D01*
X35868862Y19991252D01*
X35845751Y19950788D01*
X35826070Y19891909D01*
X35804744Y19833597D01*
X35797583Y19787550D01*
X35778538Y19704111D01*
X35765007Y19659505D01*
X35758921Y19597713D01*
X35751107Y19536139D01*
X35754372Y19489654D01*
X35754372Y19404044D01*
X35751107Y19357559D01*
X35758921Y19295989D01*
X35765007Y19234192D01*
X35778539Y19189583D01*
X35797583Y19106148D01*
X35804744Y19060101D01*
X35826070Y19001789D01*
X35845751Y18942910D01*
X35868862Y18902446D01*
X35905999Y18825330D01*
X35923227Y18782029D01*
X35956992Y18729929D01*
X35989279Y18676907D01*
X36020818Y18642596D01*
X36048367Y18608050D01*
X36050822Y18603457D01*
X36093463Y18551502D01*
X36112765Y18527297D01*
X36116373Y18523586D01*
X36119657Y18519585D01*
X36141543Y18497699D01*
X36188404Y18449505D01*
X36192692Y18446552D01*
X37357935Y17281308D01*
X37343315Y17273494D01*
X37231397Y17181645D01*
X37208376Y17153594D01*
X36947443Y16892661D01*
X36919397Y16869644D01*
X36827548Y16757726D01*
X36759298Y16630039D01*
X36731659Y16538925D01*
X36717270Y16491492D01*
X36703079Y16347407D01*
X36706635Y16311302D01*
X36706635Y16141437D01*
X36702038Y16094762D01*
X36705594Y16058657D01*
X36705594Y16041315D01*
X36612008Y15901253D01*
X36541526Y15731093D01*
X36505594Y15550453D01*
X36505594Y15366275D01*
X36541526Y15185635D01*
X36612008Y15015475D01*
X36714332Y14862336D01*
X36844566Y14732102D01*
X36997705Y14629778D01*
X37012270Y14623745D01*
X36925913Y14518519D01*
X36857663Y14390832D01*
X36832119Y14306624D01*
X36815635Y14252285D01*
X36801444Y14108200D01*
X36805000Y14072094D01*
X36805001Y13345000D01*
X36406294Y13345000D01*
X36401185Y13345942D01*
X36334037Y13345000D01*
X36303004Y13345000D01*
X36297850Y13344492D01*
X36292693Y13344420D01*
X36261974Y13340959D01*
X36195024Y13334365D01*
X36190046Y13332855D01*
X36146152Y13327909D01*
X36099587Y13325949D01*
X36039275Y13311290D01*
X35978547Y13298323D01*
X35935736Y13279883D01*
X35854964Y13251620D01*
X35809993Y13239344D01*
X35754431Y13211619D01*
X35698142Y13185478D01*
X35660515Y13157979D01*
X35588039Y13112439D01*
X35546939Y13090471D01*
X35498956Y13051093D01*
X35449871Y13013062D01*
X35419304Y12977876D01*
X35358793Y12917365D01*
X35323607Y12886798D01*
X35285570Y12837705D01*
X35246198Y12789729D01*
X35224232Y12748634D01*
X35178693Y12676159D01*
X35151191Y12638528D01*
X35125047Y12582232D01*
X35097325Y12526676D01*
X35085049Y12481705D01*
X35056785Y12400929D01*
X35038346Y12358121D01*
X35025379Y12297393D01*
X35010720Y12237081D01*
X35008760Y12190521D01*
X35003813Y12146620D01*
X35002304Y12141644D01*
X34995715Y12074748D01*
X34992248Y12043974D01*
X34992176Y12038807D01*
X34991669Y12033664D01*
X34991669Y12002675D01*
X34991471Y11988552D01*
X34990727Y11984517D01*
X34991071Y11960000D01*
X34990727Y11935484D01*
X34991471Y11931449D01*
X34991669Y11917326D01*
X34991669Y11886336D01*
X34992176Y11881193D01*
X34992248Y11876027D01*
X34995715Y11845260D01*
X35002304Y11778356D01*
X35003813Y11773380D01*
X35008760Y11729480D01*
X35010720Y11682920D01*
X35025379Y11622608D01*
X35038346Y11561880D01*
X35056785Y11519072D01*
X35085049Y11438296D01*
X35097325Y11393325D01*
X35125047Y11337769D01*
X35151191Y11281473D01*
X35178693Y11243842D01*
X35224232Y11171367D01*
X35246198Y11130272D01*
X35285570Y11082296D01*
X35323607Y11033203D01*
X35358793Y11002636D01*
X35419304Y10942125D01*
X35449871Y10906939D01*
X35498956Y10868908D01*
X35546939Y10829530D01*
X35588039Y10807562D01*
X35660515Y10762022D01*
X35698142Y10734523D01*
X35754431Y10708382D01*
X35809993Y10680657D01*
X35854964Y10668381D01*
X35904109Y10651185D01*
X35904110Y10014068D01*
X35903167Y10008954D01*
X35904110Y9941709D01*
X35904110Y9910767D01*
X35904615Y9905635D01*
X35904688Y9900463D01*
X35908161Y9869637D01*
X35913855Y9811819D01*
X35915327Y9776871D01*
X35929987Y9716554D01*
X35942951Y9655841D01*
X35961387Y9613040D01*
X35966551Y9598282D01*
X35978824Y9553320D01*
X36006541Y9497772D01*
X36032692Y9441463D01*
X36060197Y9403829D01*
X36068505Y9390606D01*
X36090473Y9349507D01*
X36129859Y9301514D01*
X36167882Y9252439D01*
X36182808Y9239472D01*
X36150860Y9218125D01*
X35971875Y9039140D01*
X35885335Y8909624D01*
X35815527Y8925922D01*
X35109605Y8220000D01*
X35123748Y8205857D01*
X34944143Y8026252D01*
X34930000Y8040395D01*
X34224078Y7334473D01*
X31835000Y7334473D01*
X31835000Y7486109D01*
X31774089Y7792327D01*
X31654609Y8080779D01*
X31612671Y8143545D01*
X33641048Y8143545D01*
X33680730Y7893551D01*
X33768422Y7656104D01*
X33815799Y7567466D01*
X34044473Y7514078D01*
X34750395Y8220000D01*
X34044473Y8925922D01*
X33815799Y8872534D01*
X33709905Y8642626D01*
X33650898Y8396476D01*
X33641048Y8143545D01*
X31612671Y8143545D01*
X31481150Y8340379D01*
X31260379Y8561150D01*
X31000779Y8734609D01*
X30712327Y8854089D01*
X30406109Y8915000D01*
X30093891Y8915000D01*
X29787673Y8854089D01*
X29499221Y8734609D01*
X29239621Y8561150D01*
X29018850Y8340379D01*
X28845391Y8080779D01*
X28725911Y7792327D01*
X28665000Y7486109D01*
X26317328Y7486109D01*
X26178676Y7578753D01*
X25944821Y7675619D01*
X25732849Y7717782D01*
X25785619Y7845179D01*
X25835000Y8093439D01*
X25835000Y8346561D01*
X25785619Y8594821D01*
X25688753Y8828676D01*
X25548125Y9039140D01*
X25481738Y9105527D01*
X34224078Y9105527D01*
X34930000Y8399605D01*
X35635922Y9105527D01*
X35582534Y9334201D01*
X35352626Y9440095D01*
X35106476Y9499102D01*
X34853545Y9508952D01*
X34603551Y9469270D01*
X34366104Y9381578D01*
X34277466Y9334201D01*
X34224078Y9105527D01*
X25481738Y9105527D01*
X25369140Y9218125D01*
X25158676Y9358753D01*
X24924821Y9455619D01*
X24676561Y9505000D01*
X24423439Y9505000D01*
X24265000Y9473485D01*
X24265000Y10452098D01*
X24268556Y10488203D01*
X24262813Y10546506D01*
X24254365Y10632285D01*
X24234052Y10699250D01*
X24235176Y10700374D01*
X24238455Y10704369D01*
X24242058Y10708075D01*
X24261364Y10732284D01*
X24304009Y10784247D01*
X24306461Y10788834D01*
X24334001Y10823369D01*
X24365544Y10857684D01*
X24397836Y10910714D01*
X24431596Y10962807D01*
X24448825Y11006111D01*
X24485957Y11083216D01*
X24509072Y11123688D01*
X24528759Y11182585D01*
X24550079Y11240879D01*
X24557240Y11286926D01*
X24576285Y11370363D01*
X24589816Y11414970D01*
X24595902Y11476762D01*
X24603716Y11538336D01*
X24600451Y11584827D01*
X24600451Y11670427D01*
X24603716Y11716918D01*
X24595902Y11778495D01*
X24589816Y11840283D01*
X24576285Y11884887D01*
X24557240Y11968328D01*
X24550079Y12014375D01*
X24528759Y12072669D01*
X24509072Y12131566D01*
X24485957Y12172038D01*
X24475153Y12194473D01*
X25864078Y12194473D01*
X25917466Y11965799D01*
X26147374Y11859905D01*
X26393524Y11800898D01*
X26646455Y11791048D01*
X26896449Y11830730D01*
X27133896Y11918422D01*
X27222534Y11965799D01*
X27275922Y12194473D01*
X28154078Y12194473D01*
X28207466Y11965799D01*
X28437374Y11859905D01*
X28683524Y11800898D01*
X28936455Y11791048D01*
X29186449Y11830730D01*
X29423896Y11918422D01*
X29512534Y11965799D01*
X29565922Y12194473D01*
X30934078Y12194473D01*
X30987466Y11965799D01*
X31217374Y11859905D01*
X31463524Y11800898D01*
X31716455Y11791048D01*
X31966449Y11830730D01*
X32203896Y11918422D01*
X32292534Y11965799D01*
X32345922Y12194473D01*
X33224078Y12194473D01*
X33277466Y11965799D01*
X33507374Y11859905D01*
X33753524Y11800898D01*
X34006455Y11791048D01*
X34256449Y11830730D01*
X34493896Y11918422D01*
X34582534Y11965799D01*
X34635922Y12194473D01*
X33930000Y12900395D01*
X33224078Y12194473D01*
X32345922Y12194473D01*
X31640000Y12900395D01*
X30934078Y12194473D01*
X29565922Y12194473D01*
X28860000Y12900395D01*
X28154078Y12194473D01*
X27275922Y12194473D01*
X26570000Y12900395D01*
X25864078Y12194473D01*
X24475153Y12194473D01*
X24448825Y12249143D01*
X24431596Y12292447D01*
X24397836Y12344540D01*
X24365544Y12397570D01*
X24334001Y12431885D01*
X24306461Y12466420D01*
X24304009Y12471007D01*
X24261368Y12522965D01*
X24242058Y12547179D01*
X24238454Y12550886D01*
X24235175Y12554881D01*
X24213285Y12576771D01*
X24203417Y12586919D01*
X24201088Y12590302D01*
X24183510Y12607393D01*
X24166419Y12624971D01*
X24163036Y12627300D01*
X24152888Y12637168D01*
X24130998Y12659058D01*
X24127003Y12662337D01*
X24123296Y12665941D01*
X24099066Y12685264D01*
X24047124Y12727891D01*
X24042541Y12730341D01*
X24007997Y12757888D01*
X23973686Y12789427D01*
X23920664Y12821714D01*
X23868564Y12855479D01*
X23825263Y12872707D01*
X23748147Y12909844D01*
X23707683Y12932955D01*
X23648804Y12952636D01*
X23590492Y12973962D01*
X23544445Y12981123D01*
X23461010Y13000167D01*
X23449875Y13003545D01*
X25281048Y13003545D01*
X25320730Y12753551D01*
X25408422Y12516104D01*
X25455799Y12427466D01*
X25684473Y12374078D01*
X26390395Y13080000D01*
X26749605Y13080000D01*
X27455527Y12374078D01*
X27684201Y12427466D01*
X27712713Y12489368D01*
X27745799Y12427466D01*
X27974473Y12374078D01*
X28680395Y13080000D01*
X29039605Y13080000D01*
X29745527Y12374078D01*
X29974201Y12427466D01*
X30080095Y12657374D01*
X30139102Y12903524D01*
X30142997Y13003545D01*
X30351048Y13003545D01*
X30390730Y12753551D01*
X30478422Y12516104D01*
X30525799Y12427466D01*
X30754473Y12374078D01*
X31460395Y13080000D01*
X31819605Y13080000D01*
X32525527Y12374078D01*
X32754201Y12427466D01*
X32782713Y12489368D01*
X32815799Y12427466D01*
X33044473Y12374078D01*
X33750395Y13080000D01*
X34109605Y13080000D01*
X34815527Y12374078D01*
X35044201Y12427466D01*
X35150095Y12657374D01*
X35209102Y12903524D01*
X35218952Y13156455D01*
X35179270Y13406449D01*
X35091578Y13643896D01*
X35044201Y13732534D01*
X34815527Y13785922D01*
X34109605Y13080000D01*
X33750395Y13080000D01*
X33044473Y13785922D01*
X32815799Y13732534D01*
X32787287Y13670632D01*
X32754201Y13732534D01*
X32525527Y13785922D01*
X31819605Y13080000D01*
X31460395Y13080000D01*
X30754473Y13785922D01*
X30525799Y13732534D01*
X30419905Y13502626D01*
X30360898Y13256476D01*
X30351048Y13003545D01*
X30142997Y13003545D01*
X30148952Y13156455D01*
X30109270Y13406449D01*
X30021578Y13643896D01*
X29974201Y13732534D01*
X29745527Y13785922D01*
X29039605Y13080000D01*
X28680395Y13080000D01*
X27974473Y13785922D01*
X27745799Y13732534D01*
X27717287Y13670632D01*
X27684201Y13732534D01*
X27455527Y13785922D01*
X26749605Y13080000D01*
X26390395Y13080000D01*
X25684473Y13785922D01*
X25455799Y13732534D01*
X25349905Y13502626D01*
X25290898Y13256476D01*
X25281048Y13003545D01*
X23449875Y13003545D01*
X23416401Y13013699D01*
X23390302Y13016269D01*
X23387732Y13042366D01*
X23374203Y13086966D01*
X23355158Y13170405D01*
X23347996Y13216462D01*
X23326669Y13274775D01*
X23306992Y13333644D01*
X23283880Y13374111D01*
X23246742Y13451228D01*
X23229512Y13494533D01*
X23195739Y13546645D01*
X23163459Y13599654D01*
X23131924Y13633961D01*
X23104377Y13668503D01*
X23101928Y13673085D01*
X23059289Y13725041D01*
X23039971Y13749265D01*
X23036370Y13752969D01*
X23033095Y13756959D01*
X23011205Y13778849D01*
X23001337Y13788998D01*
X22999004Y13792386D01*
X22981393Y13809509D01*
X22964332Y13827056D01*
X22960956Y13829381D01*
X22950789Y13839267D01*
X22928919Y13861137D01*
X22924924Y13864416D01*
X22921212Y13868025D01*
X22896990Y13887342D01*
X22845046Y13929972D01*
X22840456Y13932425D01*
X22805913Y13959972D01*
X22799870Y13965527D01*
X25864078Y13965527D01*
X26570000Y13259605D01*
X27275922Y13965527D01*
X28154078Y13965527D01*
X28860000Y13259605D01*
X29565922Y13965527D01*
X30934078Y13965527D01*
X31640000Y13259605D01*
X32345922Y13965527D01*
X33224078Y13965527D01*
X33930000Y13259605D01*
X34635922Y13965527D01*
X34582534Y14194201D01*
X34352626Y14300095D01*
X34106476Y14359102D01*
X33853545Y14368952D01*
X33603551Y14329270D01*
X33366104Y14241578D01*
X33277466Y14194201D01*
X33224078Y13965527D01*
X32345922Y13965527D01*
X32292534Y14194201D01*
X32062626Y14300095D01*
X31816476Y14359102D01*
X31563545Y14368952D01*
X31313551Y14329270D01*
X31076104Y14241578D01*
X30987466Y14194201D01*
X30934078Y13965527D01*
X29565922Y13965527D01*
X29512534Y14194201D01*
X29282626Y14300095D01*
X29036476Y14359102D01*
X28783545Y14368952D01*
X28533551Y14329270D01*
X28296104Y14241578D01*
X28207466Y14194201D01*
X28154078Y13965527D01*
X27275922Y13965527D01*
X27222534Y14194201D01*
X26992626Y14300095D01*
X26746476Y14359102D01*
X26493545Y14368952D01*
X26243551Y14329270D01*
X26006104Y14241578D01*
X25917466Y14194201D01*
X25864078Y13965527D01*
X22799870Y13965527D01*
X22771602Y13991511D01*
X22718580Y14023798D01*
X22666480Y14057563D01*
X22623179Y14074791D01*
X22546063Y14111928D01*
X22505599Y14135039D01*
X22446720Y14154720D01*
X22388408Y14176046D01*
X22342361Y14183207D01*
X22258926Y14202251D01*
X22214317Y14215783D01*
X22188218Y14218353D01*
X22185648Y14244450D01*
X22172119Y14289050D01*
X22153074Y14372489D01*
X22145912Y14418546D01*
X22124585Y14476859D01*
X22104908Y14535728D01*
X22081796Y14576195D01*
X22044658Y14653312D01*
X22027428Y14696617D01*
X21993655Y14748729D01*
X21961375Y14801738D01*
X21929840Y14836045D01*
X21902293Y14870587D01*
X21899844Y14875169D01*
X21857205Y14927125D01*
X21837887Y14951349D01*
X21834286Y14955053D01*
X21831011Y14959043D01*
X21809121Y14980933D01*
X21799253Y14991082D01*
X21796920Y14994470D01*
X21779309Y15011593D01*
X21762248Y15029140D01*
X21758872Y15031465D01*
X21748705Y15041351D01*
X21726835Y15063221D01*
X21722840Y15066500D01*
X21719128Y15070109D01*
X21694906Y15089426D01*
X21642962Y15132056D01*
X21638372Y15134509D01*
X21603829Y15162056D01*
X21569518Y15193595D01*
X21516496Y15225882D01*
X21464396Y15259647D01*
X21421095Y15276875D01*
X21343979Y15314012D01*
X21303515Y15337123D01*
X21244636Y15356804D01*
X21186324Y15378130D01*
X21140277Y15385291D01*
X21056842Y15404335D01*
X21012233Y15417867D01*
X20986134Y15420437D01*
X20983564Y15446534D01*
X20970035Y15491134D01*
X20950990Y15574573D01*
X20943828Y15620630D01*
X20922501Y15678943D01*
X20902824Y15737812D01*
X20879712Y15778279D01*
X20842574Y15855396D01*
X20825344Y15898701D01*
X20791571Y15950813D01*
X20759291Y16003822D01*
X20727756Y16038129D01*
X20700209Y16072671D01*
X20697760Y16077253D01*
X20655121Y16129209D01*
X20635803Y16153433D01*
X20632202Y16157137D01*
X20628927Y16161127D01*
X20607037Y16183017D01*
X20597169Y16193166D01*
X20594836Y16196554D01*
X20577225Y16213677D01*
X20560164Y16231224D01*
X20556788Y16233549D01*
X20546621Y16243435D01*
X20524751Y16265305D01*
X20520756Y16268584D01*
X20517044Y16272193D01*
X20492822Y16291510D01*
X20440878Y16334140D01*
X20436288Y16336593D01*
X20401745Y16364140D01*
X20367434Y16395679D01*
X20314412Y16427966D01*
X20262312Y16461731D01*
X20219011Y16478959D01*
X20141895Y16516096D01*
X20101431Y16539207D01*
X20042552Y16558888D01*
X19984240Y16580214D01*
X19938193Y16587375D01*
X19854758Y16606419D01*
X19810149Y16619951D01*
X19784050Y16622521D01*
X19781480Y16648618D01*
X19767951Y16693218D01*
X19748906Y16776657D01*
X19741744Y16822714D01*
X19720417Y16881027D01*
X19700740Y16939896D01*
X19677628Y16980363D01*
X19640490Y17057480D01*
X19623260Y17100785D01*
X19589487Y17152897D01*
X19557207Y17205906D01*
X19525672Y17240213D01*
X19498125Y17274755D01*
X19495676Y17279337D01*
X19453037Y17331293D01*
X19433719Y17355517D01*
X19430118Y17359221D01*
X19426843Y17363211D01*
X19404953Y17385101D01*
X19395085Y17395250D01*
X19392752Y17398638D01*
X19375141Y17415761D01*
X19358080Y17433308D01*
X19354704Y17435633D01*
X19344537Y17445519D01*
X19322667Y17467389D01*
X19318672Y17470668D01*
X19314960Y17474277D01*
X19290738Y17493594D01*
X19238794Y17536224D01*
X19234204Y17538677D01*
X19199661Y17566224D01*
X19165350Y17597763D01*
X19112328Y17630050D01*
X19060228Y17663815D01*
X19016927Y17681043D01*
X18939811Y17718180D01*
X18899347Y17741291D01*
X18840468Y17760972D01*
X18782156Y17782298D01*
X18736109Y17789459D01*
X18652674Y17808503D01*
X18608065Y17822035D01*
X18581966Y17824605D01*
X18579396Y17850702D01*
X18565867Y17895302D01*
X18546822Y17978741D01*
X18539660Y18024798D01*
X18518333Y18083111D01*
X18498656Y18141980D01*
X18475544Y18182447D01*
X18438406Y18259564D01*
X18421176Y18302869D01*
X18387403Y18354981D01*
X18355123Y18407990D01*
X18323588Y18442297D01*
X18296041Y18476839D01*
X18293592Y18481421D01*
X18250953Y18533377D01*
X18231635Y18557601D01*
X18228034Y18561305D01*
X18224759Y18565295D01*
X18202869Y18587185D01*
X18193001Y18597334D01*
X18190668Y18600722D01*
X18173057Y18617845D01*
X18155996Y18635392D01*
X18152620Y18637717D01*
X18142453Y18647603D01*
X18120583Y18669473D01*
X18116588Y18672752D01*
X18112876Y18676361D01*
X18088654Y18695678D01*
X18036710Y18738308D01*
X18032120Y18740761D01*
X17997577Y18768308D01*
X17963266Y18799847D01*
X17910244Y18832134D01*
X17858144Y18865899D01*
X17814843Y18883127D01*
X17737727Y18920264D01*
X17697263Y18943375D01*
X17668854Y18952871D01*
X17672854Y18988376D01*
X17674365Y18993356D01*
X17680957Y19060286D01*
X17684420Y19091020D01*
X17684492Y19096183D01*
X17685000Y19101336D01*
X17685000Y19132337D01*
X17685198Y19146449D01*
X17685943Y19150489D01*
X17685599Y19175001D01*
X17685943Y19199512D01*
X17685198Y19203552D01*
X17685000Y19217664D01*
X17685000Y19248664D01*
X17684492Y19253817D01*
X17684420Y19258981D01*
X17680956Y19289722D01*
X17674365Y19356644D01*
X17672854Y19361623D01*
X17667908Y19405521D01*
X17665948Y19452082D01*
X17651287Y19512402D01*
X17638320Y19573127D01*
X17619882Y19615931D01*
X17591619Y19696705D01*
X17579343Y19741676D01*
X17551618Y19797238D01*
X17525477Y19853527D01*
X17497978Y19891154D01*
X17452438Y19963630D01*
X17430470Y20004730D01*
X17391092Y20052713D01*
X17353061Y20101798D01*
X17317875Y20132365D01*
X17257364Y20192876D01*
X17226797Y20228062D01*
X17177704Y20266099D01*
X17129728Y20305471D01*
X17088633Y20327437D01*
X17016158Y20372976D01*
X16978527Y20400478D01*
X16922231Y20426622D01*
X16866675Y20454344D01*
X16821704Y20466620D01*
X16740928Y20494884D01*
X16698120Y20513323D01*
X16637392Y20526290D01*
X16577080Y20540949D01*
X16530520Y20542909D01*
X16486620Y20547856D01*
X16481644Y20549365D01*
X16430375Y20554414D01*
X16440949Y20597919D01*
X16442909Y20644484D01*
X16447855Y20688378D01*
X16449365Y20693356D01*
X16455959Y20760306D01*
X16459420Y20791025D01*
X16459492Y20796182D01*
X16460000Y20801336D01*
X16460000Y20832369D01*
X16460942Y20899517D01*
X16460000Y20904626D01*
X16460000Y21000554D01*
X16520130Y21060684D01*
X16876555Y20952564D01*
X17250000Y20915783D01*
X17623444Y20952564D01*
X17982538Y21061494D01*
X18313482Y21238387D01*
X18603556Y21476444D01*
X18841613Y21766518D01*
X19000000Y22062839D01*
X19158387Y21766518D01*
X19396444Y21476444D01*
X19686518Y21238387D01*
X20017461Y21061494D01*
X20376555Y20952564D01*
X20750000Y20915783D01*
X21123444Y20952564D01*
X21482538Y21061494D01*
X21813482Y21238387D01*
X22103556Y21476444D01*
X22341613Y21766518D01*
X22500000Y22062839D01*
X22658387Y21766518D01*
X22896444Y21476444D01*
X23186518Y21238387D01*
X23517461Y21061494D01*
X23876555Y20952564D01*
X24250000Y20915783D01*
X24623444Y20952564D01*
X24982538Y21061494D01*
X25313482Y21238387D01*
X25603556Y21476444D01*
X25841613Y21766518D01*
X26018506Y22097461D01*
X26127436Y22456555D01*
X26155000Y22736418D01*
X26155000Y25463582D01*
X26127436Y25743445D01*
X26018506Y26102539D01*
X25841613Y26433482D01*
X25603556Y26723556D01*
X25313482Y26961613D01*
X24982539Y27138506D01*
X24623445Y27247436D01*
X24250000Y27284217D01*
X23876556Y27247436D01*
X23517462Y27138506D01*
X23186519Y26961613D01*
X22896445Y26723556D01*
X22658388Y26433482D01*
X22500001Y26137160D01*
X22341613Y26433482D01*
X22103556Y26723556D01*
X21813482Y26961613D01*
X21482539Y27138506D01*
X21123445Y27247436D01*
X20750000Y27284217D01*
X20376556Y27247436D01*
X20017462Y27138506D01*
X19686519Y26961613D01*
X19396445Y26723556D01*
X19158388Y26433482D01*
X19000001Y26137160D01*
X18841613Y26433482D01*
X18603556Y26723556D01*
X18313482Y26961613D01*
X17982539Y27138506D01*
X17623445Y27247436D01*
X17250000Y27284217D01*
X16876556Y27247436D01*
X16517462Y27138506D01*
X16186519Y26961613D01*
X15896445Y26723556D01*
X15658388Y26433482D01*
X15500001Y26137160D01*
X15341613Y26433482D01*
X15103556Y26723556D01*
X14813482Y26961613D01*
X14482539Y27138506D01*
X14123445Y27247436D01*
X13750000Y27284217D01*
X13376556Y27247436D01*
X13017462Y27138506D01*
X12686519Y26961613D01*
X12396445Y26723556D01*
X12158388Y26433482D01*
X11981495Y26102539D01*
X11872565Y25743445D01*
X11845001Y25463582D01*
X11845000Y22736419D01*
X11872564Y22456556D01*
X11981494Y22097462D01*
X12158387Y21766518D01*
X12396444Y21476444D01*
X12686518Y21238387D01*
X13017461Y21061494D01*
X13376555Y20952564D01*
X13628320Y20927767D01*
X13608902Y20902705D01*
X13569530Y20854729D01*
X13547564Y20813634D01*
X13502025Y20741159D01*
X13474523Y20703528D01*
X13448379Y20647232D01*
X13420657Y20591676D01*
X13408381Y20546705D01*
X13380116Y20465925D01*
X13361680Y20423126D01*
X13348714Y20362406D01*
X13334052Y20302081D01*
X13332092Y20255520D01*
X13327146Y20211626D01*
X13325635Y20206645D01*
X13319042Y20139707D01*
X13315580Y20108980D01*
X13315508Y20103818D01*
X13315000Y20098665D01*
X13315000Y20067664D01*
X13314802Y20053552D01*
X13314057Y20049512D01*
X13314401Y20025000D01*
X13314057Y20000489D01*
X13314802Y19996449D01*
X13315000Y19982337D01*
X13315000Y19951337D01*
X13315508Y19946184D01*
X13315580Y19941021D01*
X13319043Y19910287D01*
X13325635Y19843357D01*
X13327146Y19838377D01*
X13332092Y19794481D01*
X13334052Y19747920D01*
X13348714Y19687595D01*
X13361680Y19626875D01*
X13380116Y19584076D01*
X13408381Y19503296D01*
X13420657Y19458325D01*
X13448379Y19402769D01*
X13474523Y19346473D01*
X13502025Y19308842D01*
X13547564Y19236367D01*
X13569530Y19195272D01*
X13608902Y19147296D01*
X13646939Y19098203D01*
X13682125Y19067636D01*
X13742636Y19007125D01*
X13773203Y18971939D01*
X13822288Y18933908D01*
X13870271Y18894530D01*
X13911371Y18872562D01*
X13983847Y18827022D01*
X14021474Y18799523D01*
X14077763Y18773382D01*
X14133325Y18745657D01*
X14178296Y18733381D01*
X14259070Y18705118D01*
X14301874Y18686680D01*
X14362599Y18673713D01*
X14422919Y18659052D01*
X14469480Y18657092D01*
X14513376Y18652146D01*
X14518356Y18650635D01*
X14569625Y18645586D01*
X14559051Y18602081D01*
X14557091Y18555521D01*
X14552144Y18511621D01*
X14550635Y18506645D01*
X14544046Y18439741D01*
X14540579Y18408974D01*
X14540507Y18403808D01*
X14540000Y18398665D01*
X14540000Y18367675D01*
X14539058Y18300484D01*
X14540000Y18295375D01*
X14540000Y18142904D01*
X14536444Y18106799D01*
X14540000Y18070697D01*
X14540000Y18070696D01*
X14550635Y17962716D01*
X14592663Y17824168D01*
X14660913Y17696481D01*
X14752762Y17584563D01*
X14780809Y17561545D01*
X15326826Y17015529D01*
X15329774Y17011248D01*
X15377937Y16964418D01*
X15399864Y16942491D01*
X15403866Y16939207D01*
X15407566Y16935609D01*
X15431740Y16916331D01*
X15483737Y16873658D01*
X15488327Y16871205D01*
X15522860Y16843666D01*
X15557175Y16812123D01*
X15595412Y16788839D01*
X15562754Y16749049D01*
X15560293Y16744446D01*
X15532735Y16709889D01*
X15501195Y16675576D01*
X15468908Y16622554D01*
X15435143Y16570454D01*
X15417915Y16527153D01*
X15380778Y16450037D01*
X15357667Y16409573D01*
X15337986Y16350694D01*
X15316660Y16292382D01*
X15309499Y16246335D01*
X15290458Y16162911D01*
X15276923Y16118291D01*
X15270837Y16056494D01*
X15263023Y15994924D01*
X15266288Y15948439D01*
X15266288Y15862829D01*
X15263023Y15816344D01*
X15270837Y15754770D01*
X15276923Y15692978D01*
X15290454Y15648372D01*
X15309499Y15564933D01*
X15316660Y15518886D01*
X15337986Y15460574D01*
X15357667Y15401695D01*
X15380778Y15361231D01*
X15417915Y15284115D01*
X15435143Y15240814D01*
X15468908Y15188714D01*
X15501195Y15135692D01*
X15532734Y15101381D01*
X15560281Y15066838D01*
X15562734Y15062248D01*
X15605364Y15010304D01*
X15624681Y14986082D01*
X15628290Y14982370D01*
X15631569Y14978375D01*
X15653438Y14956506D01*
X15663326Y14946337D01*
X15665651Y14942961D01*
X15683201Y14925896D01*
X15700320Y14908290D01*
X15703706Y14905958D01*
X15713851Y14896093D01*
X15735748Y14874197D01*
X15739738Y14870923D01*
X15743442Y14867321D01*
X15767675Y14847996D01*
X15819622Y14805365D01*
X15824202Y14802917D01*
X15858741Y14775373D01*
X15893050Y14743836D01*
X15946067Y14711551D01*
X15998173Y14677782D01*
X16041478Y14660552D01*
X16118590Y14623417D01*
X16159063Y14600301D01*
X16217948Y14580619D01*
X16276243Y14559298D01*
X16322297Y14552136D01*
X16405742Y14533090D01*
X16450346Y14519560D01*
X16476437Y14516991D01*
X16479007Y14490894D01*
X16492538Y14446288D01*
X16511583Y14362849D01*
X16518744Y14316802D01*
X16540070Y14258490D01*
X16559751Y14199611D01*
X16582862Y14159147D01*
X16619999Y14082031D01*
X16637227Y14038730D01*
X16670992Y13986630D01*
X16703279Y13933608D01*
X16734818Y13899297D01*
X16762365Y13864754D01*
X16764818Y13860164D01*
X16807448Y13808220D01*
X16826765Y13783998D01*
X16830374Y13780286D01*
X16833653Y13776291D01*
X16855531Y13754414D01*
X16865410Y13744253D01*
X16867735Y13740877D01*
X16885285Y13723812D01*
X16902404Y13706206D01*
X16905790Y13703874D01*
X16915935Y13694009D01*
X16937832Y13672113D01*
X16941822Y13668839D01*
X16945526Y13665237D01*
X16969759Y13645912D01*
X17021706Y13603281D01*
X17026286Y13600833D01*
X17060825Y13573289D01*
X17095134Y13541752D01*
X17148151Y13509467D01*
X17200257Y13475698D01*
X17222927Y13466678D01*
X17430000Y13259605D01*
X17444143Y13273747D01*
X17623748Y13094142D01*
X17609605Y13080000D01*
X17830293Y12859312D01*
X17839311Y12836646D01*
X17873076Y12784546D01*
X17905363Y12731524D01*
X17936902Y12697213D01*
X17964449Y12662670D01*
X17966902Y12658080D01*
X18009532Y12606136D01*
X18028849Y12581914D01*
X18032458Y12578202D01*
X18035737Y12574207D01*
X18057615Y12552330D01*
X18067494Y12542169D01*
X18069819Y12538793D01*
X18087369Y12521728D01*
X18104488Y12504122D01*
X18107874Y12501790D01*
X18118019Y12491925D01*
X18139916Y12470029D01*
X18143906Y12466755D01*
X18147610Y12463153D01*
X18171843Y12443828D01*
X18223790Y12401197D01*
X18228370Y12398749D01*
X18262909Y12371205D01*
X18297218Y12339668D01*
X18350235Y12307383D01*
X18402341Y12273614D01*
X18445646Y12256384D01*
X18522758Y12219249D01*
X18563231Y12196133D01*
X18622116Y12176451D01*
X18680411Y12155130D01*
X18726465Y12147968D01*
X18809910Y12128922D01*
X18854514Y12115392D01*
X18880605Y12112823D01*
X18883175Y12086726D01*
X18896706Y12042120D01*
X18915751Y11958681D01*
X18922912Y11912634D01*
X18944238Y11854322D01*
X18963919Y11795443D01*
X18987030Y11754979D01*
X19024167Y11677863D01*
X19041395Y11634562D01*
X19075160Y11582462D01*
X19107447Y11529440D01*
X19138986Y11495129D01*
X19166533Y11460586D01*
X19168986Y11455996D01*
X19211616Y11404052D01*
X19230933Y11379830D01*
X19234542Y11376118D01*
X19237821Y11372123D01*
X19259699Y11350246D01*
X19269578Y11340085D01*
X19271903Y11336709D01*
X19289453Y11319644D01*
X19306572Y11302038D01*
X19309958Y11299706D01*
X19320103Y11289841D01*
X19342000Y11267945D01*
X19345990Y11264671D01*
X19349694Y11261069D01*
X19373927Y11241744D01*
X19425874Y11199113D01*
X19430454Y11196665D01*
X19464993Y11169121D01*
X19499302Y11137584D01*
X19552319Y11105299D01*
X19604425Y11071530D01*
X19647730Y11054300D01*
X19724842Y11017165D01*
X19765315Y10994049D01*
X19824200Y10974367D01*
X19882495Y10953046D01*
X19928549Y10945884D01*
X20011994Y10926838D01*
X20056598Y10913308D01*
X20082689Y10910739D01*
X20085259Y10884642D01*
X20098790Y10840036D01*
X20117835Y10756597D01*
X20124996Y10710550D01*
X20146322Y10652238D01*
X20166003Y10593359D01*
X20189114Y10552895D01*
X20226251Y10475779D01*
X20243479Y10432478D01*
X20277244Y10380378D01*
X20309531Y10327356D01*
X20341070Y10293045D01*
X20368617Y10258502D01*
X20371070Y10253912D01*
X20413700Y10201968D01*
X20433017Y10177746D01*
X20436626Y10174034D01*
X20439905Y10170039D01*
X20461783Y10148162D01*
X20471662Y10138001D01*
X20473987Y10134625D01*
X20491537Y10117560D01*
X20508656Y10099954D01*
X20512042Y10097622D01*
X20522187Y10087757D01*
X20544084Y10065861D01*
X20548074Y10062587D01*
X20551778Y10058985D01*
X20576011Y10039660D01*
X20627958Y9997029D01*
X20632538Y9994581D01*
X20667077Y9967037D01*
X20701386Y9935500D01*
X20754403Y9903215D01*
X20806509Y9869446D01*
X20849814Y9852216D01*
X20926926Y9815081D01*
X20967399Y9791965D01*
X21026284Y9772283D01*
X21084579Y9750962D01*
X21130633Y9743800D01*
X21214078Y9724754D01*
X21258682Y9711224D01*
X21320469Y9705139D01*
X21382048Y9697325D01*
X21428538Y9700591D01*
X21514128Y9700591D01*
X21560615Y9697326D01*
X21622217Y9705143D01*
X21683993Y9711228D01*
X21728582Y9724754D01*
X21812030Y9743801D01*
X21858080Y9750962D01*
X21916385Y9772286D01*
X21975265Y9791966D01*
X22015734Y9815079D01*
X22092853Y9852218D01*
X22136162Y9869450D01*
X22188251Y9903209D01*
X22241274Y9935497D01*
X22275593Y9967043D01*
X22310128Y9994584D01*
X22314711Y9997034D01*
X22345001Y10021892D01*
X22345000Y9497354D01*
X22135179Y9455619D01*
X21901324Y9358753D01*
X21690860Y9218125D01*
X21511875Y9039140D01*
X21490000Y9006402D01*
X21468125Y9039140D01*
X21289140Y9218125D01*
X21078676Y9358753D01*
X20844821Y9455619D01*
X20596561Y9505000D01*
X20343439Y9505000D01*
X20095179Y9455619D01*
X19861324Y9358753D01*
X19650860Y9218125D01*
X19471875Y9039140D01*
X19385335Y8909624D01*
X19315527Y8925922D01*
X18609605Y8220000D01*
X18623748Y8205857D01*
X18444143Y8026252D01*
X18430000Y8040395D01*
X18415858Y8026252D01*
X18236253Y8205857D01*
X18250395Y8220000D01*
X17544473Y8925922D01*
X17315799Y8872534D01*
X17209905Y8642626D01*
X17150898Y8396476D01*
X17141048Y8143545D01*
X17147277Y8104302D01*
X16146052Y9105527D01*
X17724078Y9105527D01*
X18430000Y8399605D01*
X19135922Y9105527D01*
X19082534Y9334201D01*
X18852626Y9440095D01*
X18606476Y9499102D01*
X18353545Y9508952D01*
X18103551Y9469270D01*
X17866104Y9381578D01*
X17777466Y9334201D01*
X17724078Y9105527D01*
X16146052Y9105527D01*
X13057106Y12194473D01*
X14434078Y12194473D01*
X14487466Y11965799D01*
X14717374Y11859905D01*
X14963524Y11800898D01*
X15216455Y11791048D01*
X15466449Y11830730D01*
X15703896Y11918422D01*
X15792534Y11965799D01*
X15845922Y12194473D01*
X16724078Y12194473D01*
X16777466Y11965799D01*
X17007374Y11859905D01*
X17253524Y11800898D01*
X17506455Y11791048D01*
X17756449Y11830730D01*
X17993896Y11918422D01*
X18082534Y11965799D01*
X18135922Y12194473D01*
X17430000Y12900395D01*
X16724078Y12194473D01*
X15845922Y12194473D01*
X15140000Y12900395D01*
X14434078Y12194473D01*
X13057106Y12194473D01*
X12248034Y13003545D01*
X13851048Y13003545D01*
X13890730Y12753551D01*
X13978422Y12516104D01*
X14025799Y12427466D01*
X14254473Y12374078D01*
X14960395Y13080000D01*
X15319605Y13080000D01*
X16025527Y12374078D01*
X16254201Y12427466D01*
X16282713Y12489368D01*
X16315799Y12427466D01*
X16544473Y12374078D01*
X17250395Y13080000D01*
X16544473Y13785922D01*
X16315799Y13732534D01*
X16287287Y13670632D01*
X16254201Y13732534D01*
X16025527Y13785922D01*
X15319605Y13080000D01*
X14960395Y13080000D01*
X14254473Y13785922D01*
X14025799Y13732534D01*
X13919905Y13502626D01*
X13860898Y13256476D01*
X13851048Y13003545D01*
X12248034Y13003545D01*
X11286052Y13965527D01*
X14434078Y13965527D01*
X15140000Y13259605D01*
X15845922Y13965527D01*
X15792534Y14194201D01*
X15562626Y14300095D01*
X15316476Y14359102D01*
X15063545Y14368952D01*
X14813551Y14329270D01*
X14576104Y14241578D01*
X14487466Y14194201D01*
X14434078Y13965527D01*
X11286052Y13965527D01*
X9135001Y16116577D01*
X9135001Y24783423D01*
X12466579Y28115000D01*
X17226531Y28115000D01*
X17270000Y28110719D01*
X17313469Y28115000D01*
X17313477Y28115000D01*
X17443490Y28127805D01*
X17610313Y28178411D01*
X17764059Y28260589D01*
X17898817Y28371183D01*
X17926534Y28404956D01*
X21932890Y32411312D01*
X22126555Y32352564D01*
X22500000Y32315783D01*
X22873444Y32352564D01*
X23232538Y32461494D01*
X23563482Y32638387D01*
X23853556Y32876444D01*
X24091613Y33166518D01*
X24268506Y33497461D01*
X24377436Y33856555D01*
X24405000Y34136418D01*
X24405000Y34300000D01*
X26661928Y34300000D01*
X26674188Y34175518D01*
X26710498Y34055820D01*
X26769463Y33945506D01*
X26848815Y33848815D01*
X26945506Y33769463D01*
X27055820Y33710498D01*
X27175518Y33674188D01*
X27300000Y33661928D01*
X28214250Y33665000D01*
X28373000Y33823750D01*
X28373000Y35373000D01*
X26823750Y35373000D01*
X26665000Y35214250D01*
X26661928Y34300000D01*
X24405000Y34300000D01*
X24405000Y36700000D01*
X26661928Y36700000D01*
X26665000Y35785750D01*
X26823750Y35627000D01*
X28373000Y35627000D01*
X28373000Y37176250D01*
X28627000Y37176250D01*
X28627000Y35627000D01*
X28647000Y35627000D01*
X28647000Y35373000D01*
X28627000Y35373000D01*
X28627000Y33823750D01*
X28785750Y33665000D01*
X29700000Y33661928D01*
X29824482Y33674188D01*
X29944180Y33710498D01*
X30054494Y33769463D01*
X30151185Y33848815D01*
X30230537Y33945506D01*
X30289502Y34055820D01*
X30325812Y34175518D01*
X30330391Y34222020D01*
X30901626Y34222020D01*
X31021514Y33937164D01*
X31345210Y33776301D01*
X31694069Y33681678D01*
X32054684Y33656933D01*
X32413198Y33703015D01*
X32755833Y33818154D01*
X32978486Y33937164D01*
X33062346Y34136419D01*
X35595000Y34136419D01*
X35622564Y33856556D01*
X35731494Y33497462D01*
X35908387Y33166518D01*
X36146444Y32876444D01*
X36436518Y32638387D01*
X36767461Y32461494D01*
X37126555Y32352564D01*
X37500000Y32315783D01*
X37873444Y32352564D01*
X38232538Y32461494D01*
X38563482Y32638387D01*
X38853556Y32876444D01*
X39091613Y33166518D01*
X39250000Y33462839D01*
X39408387Y33166518D01*
X39646444Y32876444D01*
X39936518Y32638387D01*
X40267461Y32461494D01*
X40626555Y32352564D01*
X41000000Y32315783D01*
X41373444Y32352564D01*
X41732538Y32461494D01*
X42063482Y32638387D01*
X42353556Y32876444D01*
X42591613Y33166518D01*
X42755102Y33472384D01*
X42788611Y33383655D01*
X42986609Y33066042D01*
X43242765Y32793159D01*
X43547236Y32575493D01*
X43888321Y32421409D01*
X44077219Y32372507D01*
X44373000Y32488374D01*
X44373000Y35373000D01*
X44353000Y35373000D01*
X44353000Y35627000D01*
X44373000Y35627000D01*
X44373000Y38511626D01*
X44077219Y38627493D01*
X43888321Y38578591D01*
X43547236Y38424507D01*
X43242765Y38206841D01*
X42986609Y37933958D01*
X42788611Y37616345D01*
X42755102Y37527616D01*
X42591613Y37833482D01*
X42353556Y38123556D01*
X42063482Y38361613D01*
X41732539Y38538506D01*
X41373445Y38647436D01*
X41000000Y38684217D01*
X40626556Y38647436D01*
X40267462Y38538506D01*
X39936519Y38361613D01*
X39646445Y38123556D01*
X39408388Y37833482D01*
X39250001Y37537160D01*
X39091613Y37833482D01*
X38853556Y38123556D01*
X38563482Y38361613D01*
X38232539Y38538506D01*
X37873445Y38647436D01*
X37500000Y38684217D01*
X37126556Y38647436D01*
X36767462Y38538506D01*
X36436519Y38361613D01*
X36146445Y38123556D01*
X35908388Y37833482D01*
X35731495Y37502539D01*
X35622565Y37143445D01*
X35595001Y36863582D01*
X35595000Y34136419D01*
X33062346Y34136419D01*
X33098374Y34222020D01*
X32000000Y35320395D01*
X30901626Y34222020D01*
X30330391Y34222020D01*
X30338072Y34300000D01*
X30336696Y34709477D01*
X30437164Y34521514D01*
X30722020Y34401626D01*
X31820395Y35500000D01*
X32179605Y35500000D01*
X33277980Y34401626D01*
X33562836Y34521514D01*
X33723699Y34845210D01*
X33818322Y35194069D01*
X33843067Y35554684D01*
X33796985Y35913198D01*
X33681846Y36255833D01*
X33562836Y36478486D01*
X33277980Y36598374D01*
X32179605Y35500000D01*
X31820395Y35500000D01*
X30722020Y36598374D01*
X30437164Y36478486D01*
X30336648Y36276223D01*
X30338072Y36700000D01*
X30330392Y36777980D01*
X30901626Y36777980D01*
X32000000Y35679605D01*
X33098374Y36777980D01*
X32978486Y37062836D01*
X32654790Y37223699D01*
X32305931Y37318322D01*
X31945316Y37343067D01*
X31586802Y37296985D01*
X31244167Y37181846D01*
X31021514Y37062836D01*
X30901626Y36777980D01*
X30330392Y36777980D01*
X30325812Y36824482D01*
X30289502Y36944180D01*
X30230537Y37054494D01*
X30151185Y37151185D01*
X30054494Y37230537D01*
X29944180Y37289502D01*
X29824482Y37325812D01*
X29700000Y37338072D01*
X28785750Y37335000D01*
X28627000Y37176250D01*
X28373000Y37176250D01*
X28214250Y37335000D01*
X27300000Y37338072D01*
X27175518Y37325812D01*
X27055820Y37289502D01*
X26945506Y37230537D01*
X26848815Y37151185D01*
X26769463Y37054494D01*
X26710498Y36944180D01*
X26674188Y36824482D01*
X26661928Y36700000D01*
X24405000Y36700000D01*
X24405000Y36863582D01*
X24377436Y37143445D01*
X24268506Y37502539D01*
X24091613Y37833482D01*
X23853556Y38123556D01*
X23563482Y38361613D01*
X23232539Y38538506D01*
X22873445Y38647436D01*
X22500000Y38684217D01*
X22126556Y38647436D01*
X21767462Y38538506D01*
X21436519Y38361613D01*
X21146445Y38123556D01*
X20908388Y37833482D01*
X20744898Y37527615D01*
X20711389Y37616345D01*
X20513391Y37933958D01*
X20257235Y38206841D01*
X19952764Y38424507D01*
X19611679Y38578591D01*
X19422781Y38627493D01*
X19127000Y38511626D01*
X19127000Y35627000D01*
X19147000Y35627000D01*
X19147000Y35373000D01*
X19127000Y35373000D01*
X19127000Y32488374D01*
X19399894Y32381473D01*
X16903422Y29885000D01*
X12143469Y29885000D01*
X12100000Y29889281D01*
X12056531Y29885000D01*
X12056523Y29885000D01*
X11926510Y29872195D01*
X11759687Y29821589D01*
X11605941Y29739411D01*
X11504953Y29656532D01*
X11504951Y29656530D01*
X11471183Y29628817D01*
X11443470Y29595049D01*
X7654957Y25806535D01*
X7621184Y25778818D01*
X7510590Y25644059D01*
X7428412Y25490313D01*
X7377806Y25323490D01*
X7365001Y25193477D01*
X7365001Y25193470D01*
X7360720Y25150001D01*
X660000Y25150001D01*
X660000Y35307983D01*
X1873000Y35307983D01*
X1873000Y34692017D01*
X1993169Y34087888D01*
X2228889Y33518810D01*
X2571101Y33006654D01*
X3006654Y32571101D01*
X3518810Y32228889D01*
X4087888Y31993169D01*
X4692017Y31873000D01*
X5307983Y31873000D01*
X5912112Y31993169D01*
X6481190Y32228889D01*
X6993346Y32571101D01*
X7428899Y33006654D01*
X7771111Y33518810D01*
X8006831Y34087888D01*
X8016484Y34136419D01*
X10095000Y34136419D01*
X10122564Y33856556D01*
X10231494Y33497462D01*
X10408387Y33166518D01*
X10646444Y32876444D01*
X10936518Y32638387D01*
X11267461Y32461494D01*
X11626555Y32352564D01*
X12000000Y32315783D01*
X12373444Y32352564D01*
X12732538Y32461494D01*
X13063482Y32638387D01*
X13353556Y32876444D01*
X13591613Y33166518D01*
X13750000Y33462839D01*
X13908387Y33166518D01*
X14146444Y32876444D01*
X14436518Y32638387D01*
X14767461Y32461494D01*
X15126555Y32352564D01*
X15500000Y32315783D01*
X15873444Y32352564D01*
X16232538Y32461494D01*
X16563482Y32638387D01*
X16853556Y32876444D01*
X17091613Y33166518D01*
X17255102Y33472384D01*
X17288611Y33383655D01*
X17486609Y33066042D01*
X17742765Y32793159D01*
X18047236Y32575493D01*
X18388321Y32421409D01*
X18577219Y32372507D01*
X18873000Y32488374D01*
X18873000Y35373000D01*
X18853000Y35373000D01*
X18853000Y35627000D01*
X18873000Y35627000D01*
X18873000Y38511626D01*
X18577219Y38627493D01*
X18388321Y38578591D01*
X18047236Y38424507D01*
X17742765Y38206841D01*
X17486609Y37933958D01*
X17288611Y37616345D01*
X17255102Y37527616D01*
X17091613Y37833482D01*
X16853556Y38123556D01*
X16563482Y38361613D01*
X16232539Y38538506D01*
X15873445Y38647436D01*
X15500000Y38684217D01*
X15126556Y38647436D01*
X14767462Y38538506D01*
X14436519Y38361613D01*
X14146445Y38123556D01*
X13908388Y37833482D01*
X13750001Y37537160D01*
X13591613Y37833482D01*
X13353556Y38123556D01*
X13063482Y38361613D01*
X12732539Y38538506D01*
X12373445Y38647436D01*
X12000000Y38684217D01*
X11626556Y38647436D01*
X11267462Y38538506D01*
X10936519Y38361613D01*
X10646445Y38123556D01*
X10408388Y37833482D01*
X10231495Y37502539D01*
X10122565Y37143445D01*
X10095001Y36863582D01*
X10095000Y34136419D01*
X8016484Y34136419D01*
X8127000Y34692017D01*
X8127000Y35307983D01*
X8006831Y35912112D01*
X7771111Y36481190D01*
X7428899Y36993346D01*
X6993346Y37428899D01*
X6481190Y37771111D01*
X5912112Y38006831D01*
X5307983Y38127000D01*
X4692017Y38127000D01*
X4087888Y38006831D01*
X3518810Y37771111D01*
X3006654Y37428899D01*
X2571101Y36993346D01*
X2228889Y36481190D01*
X1993169Y35912112D01*
X1873000Y35307983D01*
X660000Y35307983D01*
X660000Y44340000D01*
X59340001Y44340000D01*
X59340000Y660000D01*
G37*
X59340000Y660000D02*
X660000Y660000D01*
X660000Y4115204D01*
X13465000Y4115204D01*
X13465000Y3684796D01*
X13548969Y3262659D01*
X13713678Y2865015D01*
X13952800Y2507144D01*
X14257144Y2202800D01*
X14615015Y1963678D01*
X15012659Y1798969D01*
X15434796Y1715000D01*
X15865204Y1715000D01*
X16287341Y1798969D01*
X16684985Y1963678D01*
X17042856Y2202800D01*
X17347200Y2507144D01*
X17586322Y2865015D01*
X17751031Y3262659D01*
X17835000Y3684796D01*
X17835000Y4115204D01*
X26165000Y4115204D01*
X26165000Y3684796D01*
X26248969Y3262659D01*
X26413678Y2865015D01*
X26652800Y2507144D01*
X26957144Y2202800D01*
X27315015Y1963678D01*
X27712659Y1798969D01*
X28134796Y1715000D01*
X28565204Y1715000D01*
X28987341Y1798969D01*
X29384985Y1963678D01*
X29742856Y2202800D01*
X30047200Y2507144D01*
X30250000Y2810655D01*
X30452800Y2507144D01*
X30757144Y2202800D01*
X31115015Y1963678D01*
X31512659Y1798969D01*
X31934796Y1715000D01*
X32365204Y1715000D01*
X32787341Y1798969D01*
X33184985Y1963678D01*
X33542856Y2202800D01*
X33847200Y2507144D01*
X34086322Y2865015D01*
X34251031Y3262659D01*
X34335000Y3684796D01*
X34335000Y4115204D01*
X34251031Y4537341D01*
X34086322Y4934985D01*
X33847200Y5292856D01*
X33542856Y5597200D01*
X33184985Y5836322D01*
X32787341Y6001031D01*
X32365204Y6085000D01*
X31934796Y6085000D01*
X31512659Y6001031D01*
X31115015Y5836322D01*
X30757144Y5597200D01*
X30452800Y5292856D01*
X30250000Y4989345D01*
X30047200Y5292856D01*
X29742856Y5597200D01*
X29384985Y5836322D01*
X28987341Y6001031D01*
X28565204Y6085000D01*
X28134796Y6085000D01*
X27712659Y6001031D01*
X27315015Y5836322D01*
X26957144Y5597200D01*
X26652800Y5292856D01*
X26413678Y4934985D01*
X26248969Y4537341D01*
X26165000Y4115204D01*
X17835000Y4115204D01*
X17751031Y4537341D01*
X17586322Y4934985D01*
X17347200Y5292856D01*
X17042856Y5597200D01*
X16684985Y5836322D01*
X16287341Y6001031D01*
X15865204Y6085000D01*
X15434796Y6085000D01*
X15012659Y6001031D01*
X14615015Y5836322D01*
X14257144Y5597200D01*
X13952800Y5292856D01*
X13713678Y4934985D01*
X13548969Y4537341D01*
X13465000Y4115204D01*
X660000Y4115204D01*
X660000Y10307983D01*
X1873000Y10307983D01*
X1873000Y9692017D01*
X1993169Y9087888D01*
X2228889Y8518810D01*
X2571101Y8006654D01*
X3006654Y7571101D01*
X3518810Y7228889D01*
X4087888Y6993169D01*
X4692017Y6873000D01*
X5307983Y6873000D01*
X5912112Y6993169D01*
X6481190Y7228889D01*
X6993346Y7571101D01*
X7428899Y8006654D01*
X7771111Y8518810D01*
X8006831Y9087888D01*
X8127000Y9692017D01*
X8127000Y10307983D01*
X8006831Y10912112D01*
X7771111Y11481190D01*
X7428899Y11993346D01*
X6993346Y12428899D01*
X6481190Y12771111D01*
X5912112Y13006831D01*
X5307983Y13127000D01*
X4692017Y13127000D01*
X4087888Y13006831D01*
X3518810Y12771111D01*
X3006654Y12428899D01*
X2571101Y11993346D01*
X2228889Y11481190D01*
X1993169Y10912112D01*
X1873000Y10307983D01*
X660000Y10307983D01*
X660000Y25150001D01*
X7360720Y25150001D01*
X7365001Y25106532D01*
X7365002Y15793478D01*
X7360720Y15749999D01*
X7377806Y15576509D01*
X7428413Y15409686D01*
X7510591Y15255940D01*
X7593469Y15154953D01*
X7593472Y15154950D01*
X7621185Y15121182D01*
X7654953Y15093469D01*
X13833421Y8915000D01*
X13593891Y8915000D01*
X13287673Y8854089D01*
X12999221Y8734609D01*
X12739621Y8561150D01*
X12518850Y8340379D01*
X12345391Y8080779D01*
X12225911Y7792327D01*
X12165000Y7486109D01*
X12165000Y7173891D01*
X12225911Y6867673D01*
X12345391Y6579221D01*
X12518850Y6319621D01*
X12739621Y6098850D01*
X12999221Y5925391D01*
X13287673Y5805911D01*
X13593891Y5745000D01*
X13906109Y5745000D01*
X14212327Y5805911D01*
X14500779Y5925391D01*
X14760379Y6098850D01*
X14981150Y6319621D01*
X15154609Y6579221D01*
X15274089Y6867673D01*
X15335000Y7173891D01*
X15335000Y7413421D01*
X16903470Y5844951D01*
X16931183Y5811183D01*
X16964951Y5783470D01*
X16964953Y5783468D01*
X17064899Y5701444D01*
X17065941Y5700589D01*
X17219687Y5618411D01*
X17386510Y5567805D01*
X17516523Y5555000D01*
X17516531Y5555000D01*
X17560000Y5550719D01*
X17603469Y5555000D01*
X18517735Y5555000D01*
X18630860Y5441875D01*
X18841324Y5301247D01*
X19075179Y5204381D01*
X19323439Y5155000D01*
X19576561Y5155000D01*
X19824821Y5204381D01*
X20058676Y5301247D01*
X20269140Y5441875D01*
X20448125Y5620860D01*
X20470000Y5653598D01*
X20491875Y5620860D01*
X20670860Y5441875D01*
X20881324Y5301247D01*
X21115179Y5204381D01*
X21363439Y5155000D01*
X21616561Y5155000D01*
X21864821Y5204381D01*
X22098676Y5301247D01*
X22309140Y5441875D01*
X22488125Y5620860D01*
X22510000Y5653598D01*
X22531875Y5620860D01*
X22710860Y5441875D01*
X22921324Y5301247D01*
X23155179Y5204381D01*
X23403439Y5155000D01*
X23656561Y5155000D01*
X23904821Y5204381D01*
X24138676Y5301247D01*
X24349140Y5441875D01*
X24528125Y5620860D01*
X24550000Y5653598D01*
X24571875Y5620860D01*
X24750860Y5441875D01*
X24961324Y5301247D01*
X25195179Y5204381D01*
X25443439Y5155000D01*
X25696561Y5155000D01*
X25944821Y5204381D01*
X26178676Y5301247D01*
X26389140Y5441875D01*
X26568125Y5620860D01*
X26708753Y5831324D01*
X26805619Y6065179D01*
X26855000Y6313439D01*
X26855000Y6566561D01*
X26805619Y6814821D01*
X26708753Y7048676D01*
X26568125Y7259140D01*
X26389140Y7438125D01*
X26317328Y7486109D01*
X28665000Y7486109D01*
X28665000Y7173891D01*
X28725911Y6867673D01*
X28845391Y6579221D01*
X29018850Y6319621D01*
X29239621Y6098850D01*
X29499221Y5925391D01*
X29787673Y5805911D01*
X30093891Y5745000D01*
X30406109Y5745000D01*
X30712327Y5805911D01*
X31000779Y5925391D01*
X31260379Y6098850D01*
X31481150Y6319621D01*
X31654609Y6579221D01*
X31774089Y6867673D01*
X31835000Y7173891D01*
X31835000Y7334473D01*
X34224078Y7334473D01*
X34277466Y7105799D01*
X34507374Y6999905D01*
X34753524Y6940898D01*
X34766396Y6940397D01*
X34714381Y6814821D01*
X34665000Y6566561D01*
X34665000Y6313439D01*
X34714381Y6065179D01*
X34811247Y5831324D01*
X34951875Y5620860D01*
X35130860Y5441875D01*
X35341324Y5301247D01*
X35575179Y5204381D01*
X35823439Y5155000D01*
X35983422Y5155000D01*
X37233470Y3904951D01*
X37261183Y3871183D01*
X37294951Y3843470D01*
X37294953Y3843468D01*
X37366452Y3784790D01*
X37395941Y3760589D01*
X37549687Y3678411D01*
X37716510Y3627805D01*
X37846523Y3615000D01*
X37846533Y3615000D01*
X37889999Y3610719D01*
X37933465Y3615000D01*
X41804529Y3615000D01*
X41847998Y3610719D01*
X41891467Y3615000D01*
X41891475Y3615000D01*
X42021488Y3627805D01*
X42188311Y3678411D01*
X42342057Y3760589D01*
X42476815Y3871183D01*
X42504532Y3904956D01*
X42665000Y4065424D01*
X42665000Y3684796D01*
X42748969Y3262659D01*
X42913678Y2865015D01*
X43152800Y2507144D01*
X43457144Y2202800D01*
X43815015Y1963678D01*
X44212659Y1798969D01*
X44634796Y1715000D01*
X45065204Y1715000D01*
X45487341Y1798969D01*
X45884985Y1963678D01*
X46242856Y2202800D01*
X46547200Y2507144D01*
X46786322Y2865015D01*
X46951031Y3262659D01*
X47035000Y3684796D01*
X47035000Y4115204D01*
X46951031Y4537341D01*
X46786322Y4934985D01*
X46547200Y5292856D01*
X46242856Y5597200D01*
X45884985Y5836322D01*
X45487341Y6001031D01*
X45065204Y6085000D01*
X44684576Y6085000D01*
X45296597Y6697021D01*
X45345391Y6579221D01*
X45518850Y6319621D01*
X45739621Y6098850D01*
X45999221Y5925391D01*
X46287673Y5805911D01*
X46593891Y5745000D01*
X46906109Y5745000D01*
X47212327Y5805911D01*
X47500779Y5925391D01*
X47760379Y6098850D01*
X47981150Y6319621D01*
X48154609Y6579221D01*
X48274089Y6867673D01*
X48335000Y7173891D01*
X48335000Y7486109D01*
X48274089Y7792327D01*
X48154609Y8080779D01*
X47981150Y8340379D01*
X47760379Y8561150D01*
X47500779Y8734609D01*
X47382979Y8783403D01*
X48907559Y10307983D01*
X51873000Y10307983D01*
X51873000Y9692017D01*
X51993169Y9087888D01*
X52228889Y8518810D01*
X52571101Y8006654D01*
X53006654Y7571101D01*
X53518810Y7228889D01*
X54087888Y6993169D01*
X54692017Y6873000D01*
X55307983Y6873000D01*
X55912112Y6993169D01*
X56481190Y7228889D01*
X56993346Y7571101D01*
X57428899Y8006654D01*
X57771111Y8518810D01*
X58006831Y9087888D01*
X58127000Y9692017D01*
X58127000Y10307983D01*
X58006831Y10912112D01*
X57771111Y11481190D01*
X57428899Y11993346D01*
X56993346Y12428899D01*
X56481190Y12771111D01*
X55912112Y13006831D01*
X55307983Y13127000D01*
X54692017Y13127000D01*
X54087888Y13006831D01*
X53518810Y12771111D01*
X53006654Y12428899D01*
X52571101Y11993346D01*
X52228889Y11481190D01*
X51993169Y10912112D01*
X51873000Y10307983D01*
X48907559Y10307983D01*
X52495049Y13895472D01*
X52528817Y13923185D01*
X52557311Y13957904D01*
X52639411Y14057943D01*
X52721589Y14211688D01*
X52772195Y14378512D01*
X52773334Y14390079D01*
X52785000Y14508525D01*
X52785000Y14508533D01*
X52789281Y14552002D01*
X52785000Y14595471D01*
X52785000Y28516531D01*
X52789281Y28560000D01*
X52785000Y28603469D01*
X52785000Y28603477D01*
X52772195Y28733490D01*
X52721589Y28900313D01*
X52639411Y29054059D01*
X52528817Y29188817D01*
X52495050Y29216528D01*
X49068815Y32642763D01*
X49353556Y32876444D01*
X49591613Y33166518D01*
X49768506Y33497461D01*
X49877436Y33856555D01*
X49905000Y34136418D01*
X49905000Y35307983D01*
X51873000Y35307983D01*
X51873000Y34692017D01*
X51993169Y34087888D01*
X52228889Y33518810D01*
X52571101Y33006654D01*
X53006654Y32571101D01*
X53518810Y32228889D01*
X54087888Y31993169D01*
X54692017Y31873000D01*
X55307983Y31873000D01*
X55912112Y31993169D01*
X56481190Y32228889D01*
X56993346Y32571101D01*
X57428899Y33006654D01*
X57771111Y33518810D01*
X58006831Y34087888D01*
X58127000Y34692017D01*
X58127000Y35307983D01*
X58006831Y35912112D01*
X57771111Y36481190D01*
X57428899Y36993346D01*
X56993346Y37428899D01*
X56481190Y37771111D01*
X55912112Y38006831D01*
X55307983Y38127000D01*
X54692017Y38127000D01*
X54087888Y38006831D01*
X53518810Y37771111D01*
X53006654Y37428899D01*
X52571101Y36993346D01*
X52228889Y36481190D01*
X51993169Y35912112D01*
X51873000Y35307983D01*
X49905000Y35307983D01*
X49905000Y36863582D01*
X49877436Y37143445D01*
X49768506Y37502539D01*
X49591613Y37833482D01*
X49353556Y38123556D01*
X49063482Y38361613D01*
X48732539Y38538506D01*
X48373445Y38647436D01*
X48000000Y38684217D01*
X47626556Y38647436D01*
X47267462Y38538506D01*
X46936519Y38361613D01*
X46646445Y38123556D01*
X46408388Y37833482D01*
X46244898Y37527615D01*
X46211389Y37616345D01*
X46013391Y37933958D01*
X45757235Y38206841D01*
X45452764Y38424507D01*
X45111679Y38578591D01*
X44922781Y38627493D01*
X44627000Y38511626D01*
X44627000Y35627000D01*
X44647000Y35627000D01*
X44647000Y35373000D01*
X44627000Y35373000D01*
X44627000Y32488374D01*
X44922781Y32372507D01*
X45111679Y32421409D01*
X45452764Y32575493D01*
X45757235Y32793159D01*
X46013391Y33066042D01*
X46211389Y33383655D01*
X46244898Y33472385D01*
X46408387Y33166518D01*
X46646444Y32876444D01*
X46936518Y32638387D01*
X47115001Y32542986D01*
X47115001Y32503479D01*
X47110719Y32460000D01*
X47127805Y32286510D01*
X47178412Y32119687D01*
X47260590Y31965941D01*
X47343468Y31864954D01*
X47343471Y31864951D01*
X47371184Y31831183D01*
X47404951Y31803470D01*
X51015000Y28193421D01*
X51015000Y26796232D01*
X50813482Y26961613D01*
X50482539Y27138506D01*
X50123445Y27247436D01*
X49750000Y27284217D01*
X49376556Y27247436D01*
X49017462Y27138506D01*
X48686519Y26961613D01*
X48396445Y26723556D01*
X48158388Y26433482D01*
X48000001Y26137160D01*
X47841613Y26433482D01*
X47603556Y26723556D01*
X47313482Y26961613D01*
X46982539Y27138506D01*
X46623445Y27247436D01*
X46250000Y27284217D01*
X45876556Y27247436D01*
X45517462Y27138506D01*
X45186519Y26961613D01*
X44896445Y26723556D01*
X44658388Y26433482D01*
X44500001Y26137160D01*
X44341613Y26433482D01*
X44103556Y26723556D01*
X43813482Y26961613D01*
X43482539Y27138506D01*
X43123445Y27247436D01*
X42750000Y27284217D01*
X42376556Y27247436D01*
X42017462Y27138506D01*
X41686519Y26961613D01*
X41396445Y26723556D01*
X41158388Y26433482D01*
X41000001Y26137160D01*
X40841613Y26433482D01*
X40603556Y26723556D01*
X40313482Y26961613D01*
X39982539Y27138506D01*
X39623445Y27247436D01*
X39250000Y27284217D01*
X38876556Y27247436D01*
X38517462Y27138506D01*
X38186519Y26961613D01*
X37896445Y26723556D01*
X37658388Y26433482D01*
X37481495Y26102539D01*
X37372565Y25743445D01*
X37345001Y25463582D01*
X37345000Y22736419D01*
X37372564Y22456556D01*
X37481494Y22097462D01*
X37622100Y21834407D01*
X37583215Y21810729D01*
X37548898Y21779185D01*
X37514365Y21751645D01*
X37509783Y21749196D01*
X37457800Y21706536D01*
X37433603Y21687239D01*
X37429905Y21683644D01*
X37425909Y21680364D01*
X37403990Y21658445D01*
X37393871Y21648606D01*
X37390483Y21646273D01*
X37373359Y21628662D01*
X37355812Y21611600D01*
X37353487Y21608224D01*
X37343610Y21598065D01*
X37321732Y21576188D01*
X37318453Y21572193D01*
X37314844Y21568481D01*
X37295527Y21544259D01*
X37252897Y21492315D01*
X37250444Y21487725D01*
X37222897Y21453182D01*
X37191358Y21418871D01*
X37159071Y21365849D01*
X37125306Y21313749D01*
X37108078Y21270448D01*
X37070941Y21193332D01*
X37047830Y21152868D01*
X37028149Y21093989D01*
X37006823Y21035677D01*
X36999662Y20989630D01*
X36980617Y20906191D01*
X36967086Y20861585D01*
X36964516Y20835490D01*
X36938423Y20832920D01*
X36893814Y20819388D01*
X36810383Y20800345D01*
X36764331Y20793183D01*
X36706040Y20771864D01*
X36647141Y20752177D01*
X36606663Y20729058D01*
X36529563Y20691929D01*
X36486259Y20674700D01*
X36434166Y20640940D01*
X36381136Y20608648D01*
X36346821Y20577105D01*
X36312287Y20549566D01*
X36307704Y20547116D01*
X36255735Y20504467D01*
X36231527Y20485162D01*
X36227826Y20481563D01*
X36223830Y20478284D01*
X36201927Y20456382D01*
X36191790Y20446525D01*
X36188404Y20444193D01*
X36171295Y20426597D01*
X36153735Y20409523D01*
X36151408Y20406144D01*
X36141531Y20395985D01*
X36119653Y20374108D01*
X36116374Y20370113D01*
X36112765Y20366401D01*
X36093448Y20342179D01*
X36050818Y20290235D01*
X36048365Y20285645D01*
X36020818Y20251102D01*
X35989279Y20216791D01*
X35956992Y20163769D01*
X35923227Y20111669D01*
X35905999Y20068368D01*
X35868862Y19991252D01*
X35845751Y19950788D01*
X35826070Y19891909D01*
X35804744Y19833597D01*
X35797583Y19787550D01*
X35778538Y19704111D01*
X35765007Y19659505D01*
X35758921Y19597713D01*
X35751107Y19536139D01*
X35754372Y19489654D01*
X35754372Y19404044D01*
X35751107Y19357559D01*
X35758921Y19295989D01*
X35765007Y19234192D01*
X35778539Y19189583D01*
X35797583Y19106148D01*
X35804744Y19060101D01*
X35826070Y19001789D01*
X35845751Y18942910D01*
X35868862Y18902446D01*
X35905999Y18825330D01*
X35923227Y18782029D01*
X35956992Y18729929D01*
X35989279Y18676907D01*
X36020818Y18642596D01*
X36048367Y18608050D01*
X36050822Y18603457D01*
X36093463Y18551502D01*
X36112765Y18527297D01*
X36116373Y18523586D01*
X36119657Y18519585D01*
X36141543Y18497699D01*
X36188404Y18449505D01*
X36192692Y18446552D01*
X37357935Y17281308D01*
X37343315Y17273494D01*
X37231397Y17181645D01*
X37208376Y17153594D01*
X36947443Y16892661D01*
X36919397Y16869644D01*
X36827548Y16757726D01*
X36759298Y16630039D01*
X36731659Y16538925D01*
X36717270Y16491492D01*
X36703079Y16347407D01*
X36706635Y16311302D01*
X36706635Y16141437D01*
X36702038Y16094762D01*
X36705594Y16058657D01*
X36705594Y16041315D01*
X36612008Y15901253D01*
X36541526Y15731093D01*
X36505594Y15550453D01*
X36505594Y15366275D01*
X36541526Y15185635D01*
X36612008Y15015475D01*
X36714332Y14862336D01*
X36844566Y14732102D01*
X36997705Y14629778D01*
X37012270Y14623745D01*
X36925913Y14518519D01*
X36857663Y14390832D01*
X36832119Y14306624D01*
X36815635Y14252285D01*
X36801444Y14108200D01*
X36805000Y14072094D01*
X36805001Y13345000D01*
X36406294Y13345000D01*
X36401185Y13345942D01*
X36334037Y13345000D01*
X36303004Y13345000D01*
X36297850Y13344492D01*
X36292693Y13344420D01*
X36261974Y13340959D01*
X36195024Y13334365D01*
X36190046Y13332855D01*
X36146152Y13327909D01*
X36099587Y13325949D01*
X36039275Y13311290D01*
X35978547Y13298323D01*
X35935736Y13279883D01*
X35854964Y13251620D01*
X35809993Y13239344D01*
X35754431Y13211619D01*
X35698142Y13185478D01*
X35660515Y13157979D01*
X35588039Y13112439D01*
X35546939Y13090471D01*
X35498956Y13051093D01*
X35449871Y13013062D01*
X35419304Y12977876D01*
X35358793Y12917365D01*
X35323607Y12886798D01*
X35285570Y12837705D01*
X35246198Y12789729D01*
X35224232Y12748634D01*
X35178693Y12676159D01*
X35151191Y12638528D01*
X35125047Y12582232D01*
X35097325Y12526676D01*
X35085049Y12481705D01*
X35056785Y12400929D01*
X35038346Y12358121D01*
X35025379Y12297393D01*
X35010720Y12237081D01*
X35008760Y12190521D01*
X35003813Y12146620D01*
X35002304Y12141644D01*
X34995715Y12074748D01*
X34992248Y12043974D01*
X34992176Y12038807D01*
X34991669Y12033664D01*
X34991669Y12002675D01*
X34991471Y11988552D01*
X34990727Y11984517D01*
X34991071Y11960000D01*
X34990727Y11935484D01*
X34991471Y11931449D01*
X34991669Y11917326D01*
X34991669Y11886336D01*
X34992176Y11881193D01*
X34992248Y11876027D01*
X34995715Y11845260D01*
X35002304Y11778356D01*
X35003813Y11773380D01*
X35008760Y11729480D01*
X35010720Y11682920D01*
X35025379Y11622608D01*
X35038346Y11561880D01*
X35056785Y11519072D01*
X35085049Y11438296D01*
X35097325Y11393325D01*
X35125047Y11337769D01*
X35151191Y11281473D01*
X35178693Y11243842D01*
X35224232Y11171367D01*
X35246198Y11130272D01*
X35285570Y11082296D01*
X35323607Y11033203D01*
X35358793Y11002636D01*
X35419304Y10942125D01*
X35449871Y10906939D01*
X35498956Y10868908D01*
X35546939Y10829530D01*
X35588039Y10807562D01*
X35660515Y10762022D01*
X35698142Y10734523D01*
X35754431Y10708382D01*
X35809993Y10680657D01*
X35854964Y10668381D01*
X35904109Y10651185D01*
X35904110Y10014068D01*
X35903167Y10008954D01*
X35904110Y9941709D01*
X35904110Y9910767D01*
X35904615Y9905635D01*
X35904688Y9900463D01*
X35908161Y9869637D01*
X35913855Y9811819D01*
X35915327Y9776871D01*
X35929987Y9716554D01*
X35942951Y9655841D01*
X35961387Y9613040D01*
X35966551Y9598282D01*
X35978824Y9553320D01*
X36006541Y9497772D01*
X36032692Y9441463D01*
X36060197Y9403829D01*
X36068505Y9390606D01*
X36090473Y9349507D01*
X36129859Y9301514D01*
X36167882Y9252439D01*
X36182808Y9239472D01*
X36150860Y9218125D01*
X35971875Y9039140D01*
X35885335Y8909624D01*
X35815527Y8925922D01*
X35109605Y8220000D01*
X35123748Y8205857D01*
X34944143Y8026252D01*
X34930000Y8040395D01*
X34224078Y7334473D01*
X31835000Y7334473D01*
X31835000Y7486109D01*
X31774089Y7792327D01*
X31654609Y8080779D01*
X31612671Y8143545D01*
X33641048Y8143545D01*
X33680730Y7893551D01*
X33768422Y7656104D01*
X33815799Y7567466D01*
X34044473Y7514078D01*
X34750395Y8220000D01*
X34044473Y8925922D01*
X33815799Y8872534D01*
X33709905Y8642626D01*
X33650898Y8396476D01*
X33641048Y8143545D01*
X31612671Y8143545D01*
X31481150Y8340379D01*
X31260379Y8561150D01*
X31000779Y8734609D01*
X30712327Y8854089D01*
X30406109Y8915000D01*
X30093891Y8915000D01*
X29787673Y8854089D01*
X29499221Y8734609D01*
X29239621Y8561150D01*
X29018850Y8340379D01*
X28845391Y8080779D01*
X28725911Y7792327D01*
X28665000Y7486109D01*
X26317328Y7486109D01*
X26178676Y7578753D01*
X25944821Y7675619D01*
X25732849Y7717782D01*
X25785619Y7845179D01*
X25835000Y8093439D01*
X25835000Y8346561D01*
X25785619Y8594821D01*
X25688753Y8828676D01*
X25548125Y9039140D01*
X25481738Y9105527D01*
X34224078Y9105527D01*
X34930000Y8399605D01*
X35635922Y9105527D01*
X35582534Y9334201D01*
X35352626Y9440095D01*
X35106476Y9499102D01*
X34853545Y9508952D01*
X34603551Y9469270D01*
X34366104Y9381578D01*
X34277466Y9334201D01*
X34224078Y9105527D01*
X25481738Y9105527D01*
X25369140Y9218125D01*
X25158676Y9358753D01*
X24924821Y9455619D01*
X24676561Y9505000D01*
X24423439Y9505000D01*
X24265000Y9473485D01*
X24265000Y10452098D01*
X24268556Y10488203D01*
X24262813Y10546506D01*
X24254365Y10632285D01*
X24234052Y10699250D01*
X24235176Y10700374D01*
X24238455Y10704369D01*
X24242058Y10708075D01*
X24261364Y10732284D01*
X24304009Y10784247D01*
X24306461Y10788834D01*
X24334001Y10823369D01*
X24365544Y10857684D01*
X24397836Y10910714D01*
X24431596Y10962807D01*
X24448825Y11006111D01*
X24485957Y11083216D01*
X24509072Y11123688D01*
X24528759Y11182585D01*
X24550079Y11240879D01*
X24557240Y11286926D01*
X24576285Y11370363D01*
X24589816Y11414970D01*
X24595902Y11476762D01*
X24603716Y11538336D01*
X24600451Y11584827D01*
X24600451Y11670427D01*
X24603716Y11716918D01*
X24595902Y11778495D01*
X24589816Y11840283D01*
X24576285Y11884887D01*
X24557240Y11968328D01*
X24550079Y12014375D01*
X24528759Y12072669D01*
X24509072Y12131566D01*
X24485957Y12172038D01*
X24475153Y12194473D01*
X25864078Y12194473D01*
X25917466Y11965799D01*
X26147374Y11859905D01*
X26393524Y11800898D01*
X26646455Y11791048D01*
X26896449Y11830730D01*
X27133896Y11918422D01*
X27222534Y11965799D01*
X27275922Y12194473D01*
X28154078Y12194473D01*
X28207466Y11965799D01*
X28437374Y11859905D01*
X28683524Y11800898D01*
X28936455Y11791048D01*
X29186449Y11830730D01*
X29423896Y11918422D01*
X29512534Y11965799D01*
X29565922Y12194473D01*
X30934078Y12194473D01*
X30987466Y11965799D01*
X31217374Y11859905D01*
X31463524Y11800898D01*
X31716455Y11791048D01*
X31966449Y11830730D01*
X32203896Y11918422D01*
X32292534Y11965799D01*
X32345922Y12194473D01*
X33224078Y12194473D01*
X33277466Y11965799D01*
X33507374Y11859905D01*
X33753524Y11800898D01*
X34006455Y11791048D01*
X34256449Y11830730D01*
X34493896Y11918422D01*
X34582534Y11965799D01*
X34635922Y12194473D01*
X33930000Y12900395D01*
X33224078Y12194473D01*
X32345922Y12194473D01*
X31640000Y12900395D01*
X30934078Y12194473D01*
X29565922Y12194473D01*
X28860000Y12900395D01*
X28154078Y12194473D01*
X27275922Y12194473D01*
X26570000Y12900395D01*
X25864078Y12194473D01*
X24475153Y12194473D01*
X24448825Y12249143D01*
X24431596Y12292447D01*
X24397836Y12344540D01*
X24365544Y12397570D01*
X24334001Y12431885D01*
X24306461Y12466420D01*
X24304009Y12471007D01*
X24261368Y12522965D01*
X24242058Y12547179D01*
X24238454Y12550886D01*
X24235175Y12554881D01*
X24213285Y12576771D01*
X24203417Y12586919D01*
X24201088Y12590302D01*
X24183510Y12607393D01*
X24166419Y12624971D01*
X24163036Y12627300D01*
X24152888Y12637168D01*
X24130998Y12659058D01*
X24127003Y12662337D01*
X24123296Y12665941D01*
X24099066Y12685264D01*
X24047124Y12727891D01*
X24042541Y12730341D01*
X24007997Y12757888D01*
X23973686Y12789427D01*
X23920664Y12821714D01*
X23868564Y12855479D01*
X23825263Y12872707D01*
X23748147Y12909844D01*
X23707683Y12932955D01*
X23648804Y12952636D01*
X23590492Y12973962D01*
X23544445Y12981123D01*
X23461010Y13000167D01*
X23449875Y13003545D01*
X25281048Y13003545D01*
X25320730Y12753551D01*
X25408422Y12516104D01*
X25455799Y12427466D01*
X25684473Y12374078D01*
X26390395Y13080000D01*
X26749605Y13080000D01*
X27455527Y12374078D01*
X27684201Y12427466D01*
X27712713Y12489368D01*
X27745799Y12427466D01*
X27974473Y12374078D01*
X28680395Y13080000D01*
X29039605Y13080000D01*
X29745527Y12374078D01*
X29974201Y12427466D01*
X30080095Y12657374D01*
X30139102Y12903524D01*
X30142997Y13003545D01*
X30351048Y13003545D01*
X30390730Y12753551D01*
X30478422Y12516104D01*
X30525799Y12427466D01*
X30754473Y12374078D01*
X31460395Y13080000D01*
X31819605Y13080000D01*
X32525527Y12374078D01*
X32754201Y12427466D01*
X32782713Y12489368D01*
X32815799Y12427466D01*
X33044473Y12374078D01*
X33750395Y13080000D01*
X34109605Y13080000D01*
X34815527Y12374078D01*
X35044201Y12427466D01*
X35150095Y12657374D01*
X35209102Y12903524D01*
X35218952Y13156455D01*
X35179270Y13406449D01*
X35091578Y13643896D01*
X35044201Y13732534D01*
X34815527Y13785922D01*
X34109605Y13080000D01*
X33750395Y13080000D01*
X33044473Y13785922D01*
X32815799Y13732534D01*
X32787287Y13670632D01*
X32754201Y13732534D01*
X32525527Y13785922D01*
X31819605Y13080000D01*
X31460395Y13080000D01*
X30754473Y13785922D01*
X30525799Y13732534D01*
X30419905Y13502626D01*
X30360898Y13256476D01*
X30351048Y13003545D01*
X30142997Y13003545D01*
X30148952Y13156455D01*
X30109270Y13406449D01*
X30021578Y13643896D01*
X29974201Y13732534D01*
X29745527Y13785922D01*
X29039605Y13080000D01*
X28680395Y13080000D01*
X27974473Y13785922D01*
X27745799Y13732534D01*
X27717287Y13670632D01*
X27684201Y13732534D01*
X27455527Y13785922D01*
X26749605Y13080000D01*
X26390395Y13080000D01*
X25684473Y13785922D01*
X25455799Y13732534D01*
X25349905Y13502626D01*
X25290898Y13256476D01*
X25281048Y13003545D01*
X23449875Y13003545D01*
X23416401Y13013699D01*
X23390302Y13016269D01*
X23387732Y13042366D01*
X23374203Y13086966D01*
X23355158Y13170405D01*
X23347996Y13216462D01*
X23326669Y13274775D01*
X23306992Y13333644D01*
X23283880Y13374111D01*
X23246742Y13451228D01*
X23229512Y13494533D01*
X23195739Y13546645D01*
X23163459Y13599654D01*
X23131924Y13633961D01*
X23104377Y13668503D01*
X23101928Y13673085D01*
X23059289Y13725041D01*
X23039971Y13749265D01*
X23036370Y13752969D01*
X23033095Y13756959D01*
X23011205Y13778849D01*
X23001337Y13788998D01*
X22999004Y13792386D01*
X22981393Y13809509D01*
X22964332Y13827056D01*
X22960956Y13829381D01*
X22950789Y13839267D01*
X22928919Y13861137D01*
X22924924Y13864416D01*
X22921212Y13868025D01*
X22896990Y13887342D01*
X22845046Y13929972D01*
X22840456Y13932425D01*
X22805913Y13959972D01*
X22799870Y13965527D01*
X25864078Y13965527D01*
X26570000Y13259605D01*
X27275922Y13965527D01*
X28154078Y13965527D01*
X28860000Y13259605D01*
X29565922Y13965527D01*
X30934078Y13965527D01*
X31640000Y13259605D01*
X32345922Y13965527D01*
X33224078Y13965527D01*
X33930000Y13259605D01*
X34635922Y13965527D01*
X34582534Y14194201D01*
X34352626Y14300095D01*
X34106476Y14359102D01*
X33853545Y14368952D01*
X33603551Y14329270D01*
X33366104Y14241578D01*
X33277466Y14194201D01*
X33224078Y13965527D01*
X32345922Y13965527D01*
X32292534Y14194201D01*
X32062626Y14300095D01*
X31816476Y14359102D01*
X31563545Y14368952D01*
X31313551Y14329270D01*
X31076104Y14241578D01*
X30987466Y14194201D01*
X30934078Y13965527D01*
X29565922Y13965527D01*
X29512534Y14194201D01*
X29282626Y14300095D01*
X29036476Y14359102D01*
X28783545Y14368952D01*
X28533551Y14329270D01*
X28296104Y14241578D01*
X28207466Y14194201D01*
X28154078Y13965527D01*
X27275922Y13965527D01*
X27222534Y14194201D01*
X26992626Y14300095D01*
X26746476Y14359102D01*
X26493545Y14368952D01*
X26243551Y14329270D01*
X26006104Y14241578D01*
X25917466Y14194201D01*
X25864078Y13965527D01*
X22799870Y13965527D01*
X22771602Y13991511D01*
X22718580Y14023798D01*
X22666480Y14057563D01*
X22623179Y14074791D01*
X22546063Y14111928D01*
X22505599Y14135039D01*
X22446720Y14154720D01*
X22388408Y14176046D01*
X22342361Y14183207D01*
X22258926Y14202251D01*
X22214317Y14215783D01*
X22188218Y14218353D01*
X22185648Y14244450D01*
X22172119Y14289050D01*
X22153074Y14372489D01*
X22145912Y14418546D01*
X22124585Y14476859D01*
X22104908Y14535728D01*
X22081796Y14576195D01*
X22044658Y14653312D01*
X22027428Y14696617D01*
X21993655Y14748729D01*
X21961375Y14801738D01*
X21929840Y14836045D01*
X21902293Y14870587D01*
X21899844Y14875169D01*
X21857205Y14927125D01*
X21837887Y14951349D01*
X21834286Y14955053D01*
X21831011Y14959043D01*
X21809121Y14980933D01*
X21799253Y14991082D01*
X21796920Y14994470D01*
X21779309Y15011593D01*
X21762248Y15029140D01*
X21758872Y15031465D01*
X21748705Y15041351D01*
X21726835Y15063221D01*
X21722840Y15066500D01*
X21719128Y15070109D01*
X21694906Y15089426D01*
X21642962Y15132056D01*
X21638372Y15134509D01*
X21603829Y15162056D01*
X21569518Y15193595D01*
X21516496Y15225882D01*
X21464396Y15259647D01*
X21421095Y15276875D01*
X21343979Y15314012D01*
X21303515Y15337123D01*
X21244636Y15356804D01*
X21186324Y15378130D01*
X21140277Y15385291D01*
X21056842Y15404335D01*
X21012233Y15417867D01*
X20986134Y15420437D01*
X20983564Y15446534D01*
X20970035Y15491134D01*
X20950990Y15574573D01*
X20943828Y15620630D01*
X20922501Y15678943D01*
X20902824Y15737812D01*
X20879712Y15778279D01*
X20842574Y15855396D01*
X20825344Y15898701D01*
X20791571Y15950813D01*
X20759291Y16003822D01*
X20727756Y16038129D01*
X20700209Y16072671D01*
X20697760Y16077253D01*
X20655121Y16129209D01*
X20635803Y16153433D01*
X20632202Y16157137D01*
X20628927Y16161127D01*
X20607037Y16183017D01*
X20597169Y16193166D01*
X20594836Y16196554D01*
X20577225Y16213677D01*
X20560164Y16231224D01*
X20556788Y16233549D01*
X20546621Y16243435D01*
X20524751Y16265305D01*
X20520756Y16268584D01*
X20517044Y16272193D01*
X20492822Y16291510D01*
X20440878Y16334140D01*
X20436288Y16336593D01*
X20401745Y16364140D01*
X20367434Y16395679D01*
X20314412Y16427966D01*
X20262312Y16461731D01*
X20219011Y16478959D01*
X20141895Y16516096D01*
X20101431Y16539207D01*
X20042552Y16558888D01*
X19984240Y16580214D01*
X19938193Y16587375D01*
X19854758Y16606419D01*
X19810149Y16619951D01*
X19784050Y16622521D01*
X19781480Y16648618D01*
X19767951Y16693218D01*
X19748906Y16776657D01*
X19741744Y16822714D01*
X19720417Y16881027D01*
X19700740Y16939896D01*
X19677628Y16980363D01*
X19640490Y17057480D01*
X19623260Y17100785D01*
X19589487Y17152897D01*
X19557207Y17205906D01*
X19525672Y17240213D01*
X19498125Y17274755D01*
X19495676Y17279337D01*
X19453037Y17331293D01*
X19433719Y17355517D01*
X19430118Y17359221D01*
X19426843Y17363211D01*
X19404953Y17385101D01*
X19395085Y17395250D01*
X19392752Y17398638D01*
X19375141Y17415761D01*
X19358080Y17433308D01*
X19354704Y17435633D01*
X19344537Y17445519D01*
X19322667Y17467389D01*
X19318672Y17470668D01*
X19314960Y17474277D01*
X19290738Y17493594D01*
X19238794Y17536224D01*
X19234204Y17538677D01*
X19199661Y17566224D01*
X19165350Y17597763D01*
X19112328Y17630050D01*
X19060228Y17663815D01*
X19016927Y17681043D01*
X18939811Y17718180D01*
X18899347Y17741291D01*
X18840468Y17760972D01*
X18782156Y17782298D01*
X18736109Y17789459D01*
X18652674Y17808503D01*
X18608065Y17822035D01*
X18581966Y17824605D01*
X18579396Y17850702D01*
X18565867Y17895302D01*
X18546822Y17978741D01*
X18539660Y18024798D01*
X18518333Y18083111D01*
X18498656Y18141980D01*
X18475544Y18182447D01*
X18438406Y18259564D01*
X18421176Y18302869D01*
X18387403Y18354981D01*
X18355123Y18407990D01*
X18323588Y18442297D01*
X18296041Y18476839D01*
X18293592Y18481421D01*
X18250953Y18533377D01*
X18231635Y18557601D01*
X18228034Y18561305D01*
X18224759Y18565295D01*
X18202869Y18587185D01*
X18193001Y18597334D01*
X18190668Y18600722D01*
X18173057Y18617845D01*
X18155996Y18635392D01*
X18152620Y18637717D01*
X18142453Y18647603D01*
X18120583Y18669473D01*
X18116588Y18672752D01*
X18112876Y18676361D01*
X18088654Y18695678D01*
X18036710Y18738308D01*
X18032120Y18740761D01*
X17997577Y18768308D01*
X17963266Y18799847D01*
X17910244Y18832134D01*
X17858144Y18865899D01*
X17814843Y18883127D01*
X17737727Y18920264D01*
X17697263Y18943375D01*
X17668854Y18952871D01*
X17672854Y18988376D01*
X17674365Y18993356D01*
X17680957Y19060286D01*
X17684420Y19091020D01*
X17684492Y19096183D01*
X17685000Y19101336D01*
X17685000Y19132337D01*
X17685198Y19146449D01*
X17685943Y19150489D01*
X17685599Y19175001D01*
X17685943Y19199512D01*
X17685198Y19203552D01*
X17685000Y19217664D01*
X17685000Y19248664D01*
X17684492Y19253817D01*
X17684420Y19258981D01*
X17680956Y19289722D01*
X17674365Y19356644D01*
X17672854Y19361623D01*
X17667908Y19405521D01*
X17665948Y19452082D01*
X17651287Y19512402D01*
X17638320Y19573127D01*
X17619882Y19615931D01*
X17591619Y19696705D01*
X17579343Y19741676D01*
X17551618Y19797238D01*
X17525477Y19853527D01*
X17497978Y19891154D01*
X17452438Y19963630D01*
X17430470Y20004730D01*
X17391092Y20052713D01*
X17353061Y20101798D01*
X17317875Y20132365D01*
X17257364Y20192876D01*
X17226797Y20228062D01*
X17177704Y20266099D01*
X17129728Y20305471D01*
X17088633Y20327437D01*
X17016158Y20372976D01*
X16978527Y20400478D01*
X16922231Y20426622D01*
X16866675Y20454344D01*
X16821704Y20466620D01*
X16740928Y20494884D01*
X16698120Y20513323D01*
X16637392Y20526290D01*
X16577080Y20540949D01*
X16530520Y20542909D01*
X16486620Y20547856D01*
X16481644Y20549365D01*
X16430375Y20554414D01*
X16440949Y20597919D01*
X16442909Y20644484D01*
X16447855Y20688378D01*
X16449365Y20693356D01*
X16455959Y20760306D01*
X16459420Y20791025D01*
X16459492Y20796182D01*
X16460000Y20801336D01*
X16460000Y20832369D01*
X16460942Y20899517D01*
X16460000Y20904626D01*
X16460000Y21000554D01*
X16520130Y21060684D01*
X16876555Y20952564D01*
X17250000Y20915783D01*
X17623444Y20952564D01*
X17982538Y21061494D01*
X18313482Y21238387D01*
X18603556Y21476444D01*
X18841613Y21766518D01*
X19000000Y22062839D01*
X19158387Y21766518D01*
X19396444Y21476444D01*
X19686518Y21238387D01*
X20017461Y21061494D01*
X20376555Y20952564D01*
X20750000Y20915783D01*
X21123444Y20952564D01*
X21482538Y21061494D01*
X21813482Y21238387D01*
X22103556Y21476444D01*
X22341613Y21766518D01*
X22500000Y22062839D01*
X22658387Y21766518D01*
X22896444Y21476444D01*
X23186518Y21238387D01*
X23517461Y21061494D01*
X23876555Y20952564D01*
X24250000Y20915783D01*
X24623444Y20952564D01*
X24982538Y21061494D01*
X25313482Y21238387D01*
X25603556Y21476444D01*
X25841613Y21766518D01*
X26018506Y22097461D01*
X26127436Y22456555D01*
X26155000Y22736418D01*
X26155000Y25463582D01*
X26127436Y25743445D01*
X26018506Y26102539D01*
X25841613Y26433482D01*
X25603556Y26723556D01*
X25313482Y26961613D01*
X24982539Y27138506D01*
X24623445Y27247436D01*
X24250000Y27284217D01*
X23876556Y27247436D01*
X23517462Y27138506D01*
X23186519Y26961613D01*
X22896445Y26723556D01*
X22658388Y26433482D01*
X22500001Y26137160D01*
X22341613Y26433482D01*
X22103556Y26723556D01*
X21813482Y26961613D01*
X21482539Y27138506D01*
X21123445Y27247436D01*
X20750000Y27284217D01*
X20376556Y27247436D01*
X20017462Y27138506D01*
X19686519Y26961613D01*
X19396445Y26723556D01*
X19158388Y26433482D01*
X19000001Y26137160D01*
X18841613Y26433482D01*
X18603556Y26723556D01*
X18313482Y26961613D01*
X17982539Y27138506D01*
X17623445Y27247436D01*
X17250000Y27284217D01*
X16876556Y27247436D01*
X16517462Y27138506D01*
X16186519Y26961613D01*
X15896445Y26723556D01*
X15658388Y26433482D01*
X15500001Y26137160D01*
X15341613Y26433482D01*
X15103556Y26723556D01*
X14813482Y26961613D01*
X14482539Y27138506D01*
X14123445Y27247436D01*
X13750000Y27284217D01*
X13376556Y27247436D01*
X13017462Y27138506D01*
X12686519Y26961613D01*
X12396445Y26723556D01*
X12158388Y26433482D01*
X11981495Y26102539D01*
X11872565Y25743445D01*
X11845001Y25463582D01*
X11845000Y22736419D01*
X11872564Y22456556D01*
X11981494Y22097462D01*
X12158387Y21766518D01*
X12396444Y21476444D01*
X12686518Y21238387D01*
X13017461Y21061494D01*
X13376555Y20952564D01*
X13628320Y20927767D01*
X13608902Y20902705D01*
X13569530Y20854729D01*
X13547564Y20813634D01*
X13502025Y20741159D01*
X13474523Y20703528D01*
X13448379Y20647232D01*
X13420657Y20591676D01*
X13408381Y20546705D01*
X13380116Y20465925D01*
X13361680Y20423126D01*
X13348714Y20362406D01*
X13334052Y20302081D01*
X13332092Y20255520D01*
X13327146Y20211626D01*
X13325635Y20206645D01*
X13319042Y20139707D01*
X13315580Y20108980D01*
X13315508Y20103818D01*
X13315000Y20098665D01*
X13315000Y20067664D01*
X13314802Y20053552D01*
X13314057Y20049512D01*
X13314401Y20025000D01*
X13314057Y20000489D01*
X13314802Y19996449D01*
X13315000Y19982337D01*
X13315000Y19951337D01*
X13315508Y19946184D01*
X13315580Y19941021D01*
X13319043Y19910287D01*
X13325635Y19843357D01*
X13327146Y19838377D01*
X13332092Y19794481D01*
X13334052Y19747920D01*
X13348714Y19687595D01*
X13361680Y19626875D01*
X13380116Y19584076D01*
X13408381Y19503296D01*
X13420657Y19458325D01*
X13448379Y19402769D01*
X13474523Y19346473D01*
X13502025Y19308842D01*
X13547564Y19236367D01*
X13569530Y19195272D01*
X13608902Y19147296D01*
X13646939Y19098203D01*
X13682125Y19067636D01*
X13742636Y19007125D01*
X13773203Y18971939D01*
X13822288Y18933908D01*
X13870271Y18894530D01*
X13911371Y18872562D01*
X13983847Y18827022D01*
X14021474Y18799523D01*
X14077763Y18773382D01*
X14133325Y18745657D01*
X14178296Y18733381D01*
X14259070Y18705118D01*
X14301874Y18686680D01*
X14362599Y18673713D01*
X14422919Y18659052D01*
X14469480Y18657092D01*
X14513376Y18652146D01*
X14518356Y18650635D01*
X14569625Y18645586D01*
X14559051Y18602081D01*
X14557091Y18555521D01*
X14552144Y18511621D01*
X14550635Y18506645D01*
X14544046Y18439741D01*
X14540579Y18408974D01*
X14540507Y18403808D01*
X14540000Y18398665D01*
X14540000Y18367675D01*
X14539058Y18300484D01*
X14540000Y18295375D01*
X14540000Y18142904D01*
X14536444Y18106799D01*
X14540000Y18070697D01*
X14540000Y18070696D01*
X14550635Y17962716D01*
X14592663Y17824168D01*
X14660913Y17696481D01*
X14752762Y17584563D01*
X14780809Y17561545D01*
X15326826Y17015529D01*
X15329774Y17011248D01*
X15377937Y16964418D01*
X15399864Y16942491D01*
X15403866Y16939207D01*
X15407566Y16935609D01*
X15431740Y16916331D01*
X15483737Y16873658D01*
X15488327Y16871205D01*
X15522860Y16843666D01*
X15557175Y16812123D01*
X15595412Y16788839D01*
X15562754Y16749049D01*
X15560293Y16744446D01*
X15532735Y16709889D01*
X15501195Y16675576D01*
X15468908Y16622554D01*
X15435143Y16570454D01*
X15417915Y16527153D01*
X15380778Y16450037D01*
X15357667Y16409573D01*
X15337986Y16350694D01*
X15316660Y16292382D01*
X15309499Y16246335D01*
X15290458Y16162911D01*
X15276923Y16118291D01*
X15270837Y16056494D01*
X15263023Y15994924D01*
X15266288Y15948439D01*
X15266288Y15862829D01*
X15263023Y15816344D01*
X15270837Y15754770D01*
X15276923Y15692978D01*
X15290454Y15648372D01*
X15309499Y15564933D01*
X15316660Y15518886D01*
X15337986Y15460574D01*
X15357667Y15401695D01*
X15380778Y15361231D01*
X15417915Y15284115D01*
X15435143Y15240814D01*
X15468908Y15188714D01*
X15501195Y15135692D01*
X15532734Y15101381D01*
X15560281Y15066838D01*
X15562734Y15062248D01*
X15605364Y15010304D01*
X15624681Y14986082D01*
X15628290Y14982370D01*
X15631569Y14978375D01*
X15653438Y14956506D01*
X15663326Y14946337D01*
X15665651Y14942961D01*
X15683201Y14925896D01*
X15700320Y14908290D01*
X15703706Y14905958D01*
X15713851Y14896093D01*
X15735748Y14874197D01*
X15739738Y14870923D01*
X15743442Y14867321D01*
X15767675Y14847996D01*
X15819622Y14805365D01*
X15824202Y14802917D01*
X15858741Y14775373D01*
X15893050Y14743836D01*
X15946067Y14711551D01*
X15998173Y14677782D01*
X16041478Y14660552D01*
X16118590Y14623417D01*
X16159063Y14600301D01*
X16217948Y14580619D01*
X16276243Y14559298D01*
X16322297Y14552136D01*
X16405742Y14533090D01*
X16450346Y14519560D01*
X16476437Y14516991D01*
X16479007Y14490894D01*
X16492538Y14446288D01*
X16511583Y14362849D01*
X16518744Y14316802D01*
X16540070Y14258490D01*
X16559751Y14199611D01*
X16582862Y14159147D01*
X16619999Y14082031D01*
X16637227Y14038730D01*
X16670992Y13986630D01*
X16703279Y13933608D01*
X16734818Y13899297D01*
X16762365Y13864754D01*
X16764818Y13860164D01*
X16807448Y13808220D01*
X16826765Y13783998D01*
X16830374Y13780286D01*
X16833653Y13776291D01*
X16855531Y13754414D01*
X16865410Y13744253D01*
X16867735Y13740877D01*
X16885285Y13723812D01*
X16902404Y13706206D01*
X16905790Y13703874D01*
X16915935Y13694009D01*
X16937832Y13672113D01*
X16941822Y13668839D01*
X16945526Y13665237D01*
X16969759Y13645912D01*
X17021706Y13603281D01*
X17026286Y13600833D01*
X17060825Y13573289D01*
X17095134Y13541752D01*
X17148151Y13509467D01*
X17200257Y13475698D01*
X17222927Y13466678D01*
X17430000Y13259605D01*
X17444143Y13273747D01*
X17623748Y13094142D01*
X17609605Y13080000D01*
X17830293Y12859312D01*
X17839311Y12836646D01*
X17873076Y12784546D01*
X17905363Y12731524D01*
X17936902Y12697213D01*
X17964449Y12662670D01*
X17966902Y12658080D01*
X18009532Y12606136D01*
X18028849Y12581914D01*
X18032458Y12578202D01*
X18035737Y12574207D01*
X18057615Y12552330D01*
X18067494Y12542169D01*
X18069819Y12538793D01*
X18087369Y12521728D01*
X18104488Y12504122D01*
X18107874Y12501790D01*
X18118019Y12491925D01*
X18139916Y12470029D01*
X18143906Y12466755D01*
X18147610Y12463153D01*
X18171843Y12443828D01*
X18223790Y12401197D01*
X18228370Y12398749D01*
X18262909Y12371205D01*
X18297218Y12339668D01*
X18350235Y12307383D01*
X18402341Y12273614D01*
X18445646Y12256384D01*
X18522758Y12219249D01*
X18563231Y12196133D01*
X18622116Y12176451D01*
X18680411Y12155130D01*
X18726465Y12147968D01*
X18809910Y12128922D01*
X18854514Y12115392D01*
X18880605Y12112823D01*
X18883175Y12086726D01*
X18896706Y12042120D01*
X18915751Y11958681D01*
X18922912Y11912634D01*
X18944238Y11854322D01*
X18963919Y11795443D01*
X18987030Y11754979D01*
X19024167Y11677863D01*
X19041395Y11634562D01*
X19075160Y11582462D01*
X19107447Y11529440D01*
X19138986Y11495129D01*
X19166533Y11460586D01*
X19168986Y11455996D01*
X19211616Y11404052D01*
X19230933Y11379830D01*
X19234542Y11376118D01*
X19237821Y11372123D01*
X19259699Y11350246D01*
X19269578Y11340085D01*
X19271903Y11336709D01*
X19289453Y11319644D01*
X19306572Y11302038D01*
X19309958Y11299706D01*
X19320103Y11289841D01*
X19342000Y11267945D01*
X19345990Y11264671D01*
X19349694Y11261069D01*
X19373927Y11241744D01*
X19425874Y11199113D01*
X19430454Y11196665D01*
X19464993Y11169121D01*
X19499302Y11137584D01*
X19552319Y11105299D01*
X19604425Y11071530D01*
X19647730Y11054300D01*
X19724842Y11017165D01*
X19765315Y10994049D01*
X19824200Y10974367D01*
X19882495Y10953046D01*
X19928549Y10945884D01*
X20011994Y10926838D01*
X20056598Y10913308D01*
X20082689Y10910739D01*
X20085259Y10884642D01*
X20098790Y10840036D01*
X20117835Y10756597D01*
X20124996Y10710550D01*
X20146322Y10652238D01*
X20166003Y10593359D01*
X20189114Y10552895D01*
X20226251Y10475779D01*
X20243479Y10432478D01*
X20277244Y10380378D01*
X20309531Y10327356D01*
X20341070Y10293045D01*
X20368617Y10258502D01*
X20371070Y10253912D01*
X20413700Y10201968D01*
X20433017Y10177746D01*
X20436626Y10174034D01*
X20439905Y10170039D01*
X20461783Y10148162D01*
X20471662Y10138001D01*
X20473987Y10134625D01*
X20491537Y10117560D01*
X20508656Y10099954D01*
X20512042Y10097622D01*
X20522187Y10087757D01*
X20544084Y10065861D01*
X20548074Y10062587D01*
X20551778Y10058985D01*
X20576011Y10039660D01*
X20627958Y9997029D01*
X20632538Y9994581D01*
X20667077Y9967037D01*
X20701386Y9935500D01*
X20754403Y9903215D01*
X20806509Y9869446D01*
X20849814Y9852216D01*
X20926926Y9815081D01*
X20967399Y9791965D01*
X21026284Y9772283D01*
X21084579Y9750962D01*
X21130633Y9743800D01*
X21214078Y9724754D01*
X21258682Y9711224D01*
X21320469Y9705139D01*
X21382048Y9697325D01*
X21428538Y9700591D01*
X21514128Y9700591D01*
X21560615Y9697326D01*
X21622217Y9705143D01*
X21683993Y9711228D01*
X21728582Y9724754D01*
X21812030Y9743801D01*
X21858080Y9750962D01*
X21916385Y9772286D01*
X21975265Y9791966D01*
X22015734Y9815079D01*
X22092853Y9852218D01*
X22136162Y9869450D01*
X22188251Y9903209D01*
X22241274Y9935497D01*
X22275593Y9967043D01*
X22310128Y9994584D01*
X22314711Y9997034D01*
X22345001Y10021892D01*
X22345000Y9497354D01*
X22135179Y9455619D01*
X21901324Y9358753D01*
X21690860Y9218125D01*
X21511875Y9039140D01*
X21490000Y9006402D01*
X21468125Y9039140D01*
X21289140Y9218125D01*
X21078676Y9358753D01*
X20844821Y9455619D01*
X20596561Y9505000D01*
X20343439Y9505000D01*
X20095179Y9455619D01*
X19861324Y9358753D01*
X19650860Y9218125D01*
X19471875Y9039140D01*
X19385335Y8909624D01*
X19315527Y8925922D01*
X18609605Y8220000D01*
X18623748Y8205857D01*
X18444143Y8026252D01*
X18430000Y8040395D01*
X18415858Y8026252D01*
X18236253Y8205857D01*
X18250395Y8220000D01*
X17544473Y8925922D01*
X17315799Y8872534D01*
X17209905Y8642626D01*
X17150898Y8396476D01*
X17141048Y8143545D01*
X17147277Y8104302D01*
X16146052Y9105527D01*
X17724078Y9105527D01*
X18430000Y8399605D01*
X19135922Y9105527D01*
X19082534Y9334201D01*
X18852626Y9440095D01*
X18606476Y9499102D01*
X18353545Y9508952D01*
X18103551Y9469270D01*
X17866104Y9381578D01*
X17777466Y9334201D01*
X17724078Y9105527D01*
X16146052Y9105527D01*
X13057106Y12194473D01*
X14434078Y12194473D01*
X14487466Y11965799D01*
X14717374Y11859905D01*
X14963524Y11800898D01*
X15216455Y11791048D01*
X15466449Y11830730D01*
X15703896Y11918422D01*
X15792534Y11965799D01*
X15845922Y12194473D01*
X16724078Y12194473D01*
X16777466Y11965799D01*
X17007374Y11859905D01*
X17253524Y11800898D01*
X17506455Y11791048D01*
X17756449Y11830730D01*
X17993896Y11918422D01*
X18082534Y11965799D01*
X18135922Y12194473D01*
X17430000Y12900395D01*
X16724078Y12194473D01*
X15845922Y12194473D01*
X15140000Y12900395D01*
X14434078Y12194473D01*
X13057106Y12194473D01*
X12248034Y13003545D01*
X13851048Y13003545D01*
X13890730Y12753551D01*
X13978422Y12516104D01*
X14025799Y12427466D01*
X14254473Y12374078D01*
X14960395Y13080000D01*
X15319605Y13080000D01*
X16025527Y12374078D01*
X16254201Y12427466D01*
X16282713Y12489368D01*
X16315799Y12427466D01*
X16544473Y12374078D01*
X17250395Y13080000D01*
X16544473Y13785922D01*
X16315799Y13732534D01*
X16287287Y13670632D01*
X16254201Y13732534D01*
X16025527Y13785922D01*
X15319605Y13080000D01*
X14960395Y13080000D01*
X14254473Y13785922D01*
X14025799Y13732534D01*
X13919905Y13502626D01*
X13860898Y13256476D01*
X13851048Y13003545D01*
X12248034Y13003545D01*
X11286052Y13965527D01*
X14434078Y13965527D01*
X15140000Y13259605D01*
X15845922Y13965527D01*
X15792534Y14194201D01*
X15562626Y14300095D01*
X15316476Y14359102D01*
X15063545Y14368952D01*
X14813551Y14329270D01*
X14576104Y14241578D01*
X14487466Y14194201D01*
X14434078Y13965527D01*
X11286052Y13965527D01*
X9135001Y16116577D01*
X9135001Y24783423D01*
X12466579Y28115000D01*
X17226531Y28115000D01*
X17270000Y28110719D01*
X17313469Y28115000D01*
X17313477Y28115000D01*
X17443490Y28127805D01*
X17610313Y28178411D01*
X17764059Y28260589D01*
X17898817Y28371183D01*
X17926534Y28404956D01*
X21932890Y32411312D01*
X22126555Y32352564D01*
X22500000Y32315783D01*
X22873444Y32352564D01*
X23232538Y32461494D01*
X23563482Y32638387D01*
X23853556Y32876444D01*
X24091613Y33166518D01*
X24268506Y33497461D01*
X24377436Y33856555D01*
X24405000Y34136418D01*
X24405000Y34300000D01*
X26661928Y34300000D01*
X26674188Y34175518D01*
X26710498Y34055820D01*
X26769463Y33945506D01*
X26848815Y33848815D01*
X26945506Y33769463D01*
X27055820Y33710498D01*
X27175518Y33674188D01*
X27300000Y33661928D01*
X28214250Y33665000D01*
X28373000Y33823750D01*
X28373000Y35373000D01*
X26823750Y35373000D01*
X26665000Y35214250D01*
X26661928Y34300000D01*
X24405000Y34300000D01*
X24405000Y36700000D01*
X26661928Y36700000D01*
X26665000Y35785750D01*
X26823750Y35627000D01*
X28373000Y35627000D01*
X28373000Y37176250D01*
X28627000Y37176250D01*
X28627000Y35627000D01*
X28647000Y35627000D01*
X28647000Y35373000D01*
X28627000Y35373000D01*
X28627000Y33823750D01*
X28785750Y33665000D01*
X29700000Y33661928D01*
X29824482Y33674188D01*
X29944180Y33710498D01*
X30054494Y33769463D01*
X30151185Y33848815D01*
X30230537Y33945506D01*
X30289502Y34055820D01*
X30325812Y34175518D01*
X30330391Y34222020D01*
X30901626Y34222020D01*
X31021514Y33937164D01*
X31345210Y33776301D01*
X31694069Y33681678D01*
X32054684Y33656933D01*
X32413198Y33703015D01*
X32755833Y33818154D01*
X32978486Y33937164D01*
X33062346Y34136419D01*
X35595000Y34136419D01*
X35622564Y33856556D01*
X35731494Y33497462D01*
X35908387Y33166518D01*
X36146444Y32876444D01*
X36436518Y32638387D01*
X36767461Y32461494D01*
X37126555Y32352564D01*
X37500000Y32315783D01*
X37873444Y32352564D01*
X38232538Y32461494D01*
X38563482Y32638387D01*
X38853556Y32876444D01*
X39091613Y33166518D01*
X39250000Y33462839D01*
X39408387Y33166518D01*
X39646444Y32876444D01*
X39936518Y32638387D01*
X40267461Y32461494D01*
X40626555Y32352564D01*
X41000000Y32315783D01*
X41373444Y32352564D01*
X41732538Y32461494D01*
X42063482Y32638387D01*
X42353556Y32876444D01*
X42591613Y33166518D01*
X42755102Y33472384D01*
X42788611Y33383655D01*
X42986609Y33066042D01*
X43242765Y32793159D01*
X43547236Y32575493D01*
X43888321Y32421409D01*
X44077219Y32372507D01*
X44373000Y32488374D01*
X44373000Y35373000D01*
X44353000Y35373000D01*
X44353000Y35627000D01*
X44373000Y35627000D01*
X44373000Y38511626D01*
X44077219Y38627493D01*
X43888321Y38578591D01*
X43547236Y38424507D01*
X43242765Y38206841D01*
X42986609Y37933958D01*
X42788611Y37616345D01*
X42755102Y37527616D01*
X42591613Y37833482D01*
X42353556Y38123556D01*
X42063482Y38361613D01*
X41732539Y38538506D01*
X41373445Y38647436D01*
X41000000Y38684217D01*
X40626556Y38647436D01*
X40267462Y38538506D01*
X39936519Y38361613D01*
X39646445Y38123556D01*
X39408388Y37833482D01*
X39250001Y37537160D01*
X39091613Y37833482D01*
X38853556Y38123556D01*
X38563482Y38361613D01*
X38232539Y38538506D01*
X37873445Y38647436D01*
X37500000Y38684217D01*
X37126556Y38647436D01*
X36767462Y38538506D01*
X36436519Y38361613D01*
X36146445Y38123556D01*
X35908388Y37833482D01*
X35731495Y37502539D01*
X35622565Y37143445D01*
X35595001Y36863582D01*
X35595000Y34136419D01*
X33062346Y34136419D01*
X33098374Y34222020D01*
X32000000Y35320395D01*
X30901626Y34222020D01*
X30330391Y34222020D01*
X30338072Y34300000D01*
X30336696Y34709477D01*
X30437164Y34521514D01*
X30722020Y34401626D01*
X31820395Y35500000D01*
X32179605Y35500000D01*
X33277980Y34401626D01*
X33562836Y34521514D01*
X33723699Y34845210D01*
X33818322Y35194069D01*
X33843067Y35554684D01*
X33796985Y35913198D01*
X33681846Y36255833D01*
X33562836Y36478486D01*
X33277980Y36598374D01*
X32179605Y35500000D01*
X31820395Y35500000D01*
X30722020Y36598374D01*
X30437164Y36478486D01*
X30336648Y36276223D01*
X30338072Y36700000D01*
X30330392Y36777980D01*
X30901626Y36777980D01*
X32000000Y35679605D01*
X33098374Y36777980D01*
X32978486Y37062836D01*
X32654790Y37223699D01*
X32305931Y37318322D01*
X31945316Y37343067D01*
X31586802Y37296985D01*
X31244167Y37181846D01*
X31021514Y37062836D01*
X30901626Y36777980D01*
X30330392Y36777980D01*
X30325812Y36824482D01*
X30289502Y36944180D01*
X30230537Y37054494D01*
X30151185Y37151185D01*
X30054494Y37230537D01*
X29944180Y37289502D01*
X29824482Y37325812D01*
X29700000Y37338072D01*
X28785750Y37335000D01*
X28627000Y37176250D01*
X28373000Y37176250D01*
X28214250Y37335000D01*
X27300000Y37338072D01*
X27175518Y37325812D01*
X27055820Y37289502D01*
X26945506Y37230537D01*
X26848815Y37151185D01*
X26769463Y37054494D01*
X26710498Y36944180D01*
X26674188Y36824482D01*
X26661928Y36700000D01*
X24405000Y36700000D01*
X24405000Y36863582D01*
X24377436Y37143445D01*
X24268506Y37502539D01*
X24091613Y37833482D01*
X23853556Y38123556D01*
X23563482Y38361613D01*
X23232539Y38538506D01*
X22873445Y38647436D01*
X22500000Y38684217D01*
X22126556Y38647436D01*
X21767462Y38538506D01*
X21436519Y38361613D01*
X21146445Y38123556D01*
X20908388Y37833482D01*
X20744898Y37527615D01*
X20711389Y37616345D01*
X20513391Y37933958D01*
X20257235Y38206841D01*
X19952764Y38424507D01*
X19611679Y38578591D01*
X19422781Y38627493D01*
X19127000Y38511626D01*
X19127000Y35627000D01*
X19147000Y35627000D01*
X19147000Y35373000D01*
X19127000Y35373000D01*
X19127000Y32488374D01*
X19399894Y32381473D01*
X16903422Y29885000D01*
X12143469Y29885000D01*
X12100000Y29889281D01*
X12056531Y29885000D01*
X12056523Y29885000D01*
X11926510Y29872195D01*
X11759687Y29821589D01*
X11605941Y29739411D01*
X11504953Y29656532D01*
X11504951Y29656530D01*
X11471183Y29628817D01*
X11443470Y29595049D01*
X7654957Y25806535D01*
X7621184Y25778818D01*
X7510590Y25644059D01*
X7428412Y25490313D01*
X7377806Y25323490D01*
X7365001Y25193477D01*
X7365001Y25193470D01*
X7360720Y25150001D01*
X660000Y25150001D01*
X660000Y35307983D01*
X1873000Y35307983D01*
X1873000Y34692017D01*
X1993169Y34087888D01*
X2228889Y33518810D01*
X2571101Y33006654D01*
X3006654Y32571101D01*
X3518810Y32228889D01*
X4087888Y31993169D01*
X4692017Y31873000D01*
X5307983Y31873000D01*
X5912112Y31993169D01*
X6481190Y32228889D01*
X6993346Y32571101D01*
X7428899Y33006654D01*
X7771111Y33518810D01*
X8006831Y34087888D01*
X8016484Y34136419D01*
X10095000Y34136419D01*
X10122564Y33856556D01*
X10231494Y33497462D01*
X10408387Y33166518D01*
X10646444Y32876444D01*
X10936518Y32638387D01*
X11267461Y32461494D01*
X11626555Y32352564D01*
X12000000Y32315783D01*
X12373444Y32352564D01*
X12732538Y32461494D01*
X13063482Y32638387D01*
X13353556Y32876444D01*
X13591613Y33166518D01*
X13750000Y33462839D01*
X13908387Y33166518D01*
X14146444Y32876444D01*
X14436518Y32638387D01*
X14767461Y32461494D01*
X15126555Y32352564D01*
X15500000Y32315783D01*
X15873444Y32352564D01*
X16232538Y32461494D01*
X16563482Y32638387D01*
X16853556Y32876444D01*
X17091613Y33166518D01*
X17255102Y33472384D01*
X17288611Y33383655D01*
X17486609Y33066042D01*
X17742765Y32793159D01*
X18047236Y32575493D01*
X18388321Y32421409D01*
X18577219Y32372507D01*
X18873000Y32488374D01*
X18873000Y35373000D01*
X18853000Y35373000D01*
X18853000Y35627000D01*
X18873000Y35627000D01*
X18873000Y38511626D01*
X18577219Y38627493D01*
X18388321Y38578591D01*
X18047236Y38424507D01*
X17742765Y38206841D01*
X17486609Y37933958D01*
X17288611Y37616345D01*
X17255102Y37527616D01*
X17091613Y37833482D01*
X16853556Y38123556D01*
X16563482Y38361613D01*
X16232539Y38538506D01*
X15873445Y38647436D01*
X15500000Y38684217D01*
X15126556Y38647436D01*
X14767462Y38538506D01*
X14436519Y38361613D01*
X14146445Y38123556D01*
X13908388Y37833482D01*
X13750001Y37537160D01*
X13591613Y37833482D01*
X13353556Y38123556D01*
X13063482Y38361613D01*
X12732539Y38538506D01*
X12373445Y38647436D01*
X12000000Y38684217D01*
X11626556Y38647436D01*
X11267462Y38538506D01*
X10936519Y38361613D01*
X10646445Y38123556D01*
X10408388Y37833482D01*
X10231495Y37502539D01*
X10122565Y37143445D01*
X10095001Y36863582D01*
X10095000Y34136419D01*
X8016484Y34136419D01*
X8127000Y34692017D01*
X8127000Y35307983D01*
X8006831Y35912112D01*
X7771111Y36481190D01*
X7428899Y36993346D01*
X6993346Y37428899D01*
X6481190Y37771111D01*
X5912112Y38006831D01*
X5307983Y38127000D01*
X4692017Y38127000D01*
X4087888Y38006831D01*
X3518810Y37771111D01*
X3006654Y37428899D01*
X2571101Y36993346D01*
X2228889Y36481190D01*
X1993169Y35912112D01*
X1873000Y35307983D01*
X660000Y35307983D01*
X660000Y44340000D01*
X59340001Y44340000D01*
X59340000Y660000D01*
G36*
X48396444Y21476444D02*
G01*
X48686518Y21238387D01*
X49017461Y21061494D01*
X49376555Y20952564D01*
X49750000Y20915783D01*
X50123444Y20952564D01*
X50482538Y21061494D01*
X50813482Y21238387D01*
X51015001Y21403769D01*
X51015001Y14918582D01*
X43183255Y7086836D01*
X43068125Y7259140D01*
X42889140Y7438125D01*
X42678676Y7578753D01*
X42444821Y7675619D01*
X42232849Y7717782D01*
X42285619Y7845179D01*
X42335000Y8093439D01*
X42335000Y8346561D01*
X42285619Y8594821D01*
X42188753Y8828676D01*
X42048125Y9039140D01*
X41869140Y9218125D01*
X41658676Y9358753D01*
X41424821Y9455619D01*
X41176561Y9505000D01*
X40923439Y9505000D01*
X40675179Y9455619D01*
X40441324Y9358753D01*
X40230860Y9218125D01*
X40051875Y9039140D01*
X40030000Y9006402D01*
X40008125Y9039140D01*
X39829140Y9218125D01*
X39618676Y9358753D01*
X39384821Y9455619D01*
X39136561Y9505000D01*
X38883439Y9505000D01*
X38725000Y9473485D01*
X38725000Y9725000D01*
X39273705Y9725000D01*
X39278820Y9724057D01*
X39345995Y9725000D01*
X39376996Y9725000D01*
X39382149Y9725508D01*
X39387311Y9725580D01*
X39418038Y9729042D01*
X39484976Y9735635D01*
X39489957Y9737146D01*
X39533851Y9742092D01*
X39580412Y9744052D01*
X39640737Y9758714D01*
X39701457Y9771680D01*
X39744256Y9790116D01*
X39825036Y9818381D01*
X39870007Y9830657D01*
X39925563Y9858379D01*
X39981859Y9884523D01*
X40019490Y9912025D01*
X40091965Y9957564D01*
X40133060Y9979530D01*
X40181036Y10018902D01*
X40230129Y10056939D01*
X40260696Y10092125D01*
X40321207Y10152636D01*
X40356393Y10183203D01*
X40394424Y10232288D01*
X40433802Y10280271D01*
X40455770Y10321371D01*
X40501310Y10393847D01*
X40528809Y10431474D01*
X40554950Y10487763D01*
X40582675Y10543325D01*
X40594951Y10588296D01*
X40623214Y10669068D01*
X40641654Y10711879D01*
X40654621Y10772607D01*
X40669280Y10832919D01*
X40671240Y10879484D01*
X40676186Y10923379D01*
X40677696Y10928357D01*
X40684289Y10995299D01*
X40687751Y11026025D01*
X40687823Y11031183D01*
X40688331Y11036337D01*
X40688331Y11067369D01*
X40688528Y11081446D01*
X40689273Y11085484D01*
X40688929Y11110000D01*
X40689273Y11134517D01*
X40688528Y11138555D01*
X40688331Y11152632D01*
X40688331Y11183665D01*
X40687823Y11188819D01*
X40687751Y11193976D01*
X40684290Y11224695D01*
X40677696Y11291645D01*
X40676186Y11296623D01*
X40671240Y11340517D01*
X40669280Y11387082D01*
X40654621Y11447394D01*
X40641654Y11508122D01*
X40623214Y11550933D01*
X40594951Y11631705D01*
X40582675Y11676676D01*
X40554950Y11732238D01*
X40528809Y11788527D01*
X40501310Y11826154D01*
X40455770Y11898630D01*
X40433802Y11939730D01*
X40394424Y11987713D01*
X40356393Y12036798D01*
X40321207Y12067365D01*
X40260696Y12127876D01*
X40230129Y12163062D01*
X40189588Y12194473D01*
X42364078Y12194473D01*
X42417466Y11965799D01*
X42647374Y11859905D01*
X42893524Y11800898D01*
X43146455Y11791048D01*
X43396449Y11830730D01*
X43633896Y11918422D01*
X43722534Y11965799D01*
X43775922Y12194473D01*
X44654078Y12194473D01*
X44707466Y11965799D01*
X44937374Y11859905D01*
X45183524Y11800898D01*
X45436455Y11791048D01*
X45686449Y11830730D01*
X45923896Y11918422D01*
X46012534Y11965799D01*
X46065922Y12194473D01*
X45360000Y12900395D01*
X44654078Y12194473D01*
X43775922Y12194473D01*
X43070000Y12900395D01*
X42364078Y12194473D01*
X40189588Y12194473D01*
X40181036Y12201099D01*
X40133060Y12240471D01*
X40091965Y12262437D01*
X40019490Y12307976D01*
X39981859Y12335478D01*
X39925563Y12361622D01*
X39870007Y12389344D01*
X39825036Y12401620D01*
X39744260Y12429884D01*
X39701452Y12448323D01*
X39640724Y12461290D01*
X39580412Y12475949D01*
X39533852Y12477909D01*
X39489952Y12482856D01*
X39484976Y12484365D01*
X39418072Y12490954D01*
X39387305Y12494421D01*
X39382139Y12494493D01*
X39376996Y12495000D01*
X39346006Y12495000D01*
X39278815Y12495942D01*
X39273706Y12495000D01*
X38696732Y12495000D01*
X38705948Y12532919D01*
X38707908Y12579480D01*
X38712854Y12623376D01*
X38714365Y12628356D01*
X38720957Y12695286D01*
X38724420Y12726020D01*
X38724492Y12731183D01*
X38725000Y12736336D01*
X38725000Y12767337D01*
X38725943Y12834512D01*
X38725000Y12839627D01*
X38725000Y13003545D01*
X41781048Y13003545D01*
X41820730Y12753551D01*
X41908422Y12516104D01*
X41955799Y12427466D01*
X42184473Y12374078D01*
X42890395Y13080000D01*
X43249605Y13080000D01*
X43955527Y12374078D01*
X44184201Y12427466D01*
X44212713Y12489368D01*
X44245799Y12427466D01*
X44474473Y12374078D01*
X45180395Y13080000D01*
X45539605Y13080000D01*
X46245527Y12374078D01*
X46474201Y12427466D01*
X46580095Y12657374D01*
X46639102Y12903524D01*
X46648952Y13156455D01*
X46609270Y13406449D01*
X46521578Y13643896D01*
X46474201Y13732534D01*
X46245527Y13785922D01*
X45539605Y13080000D01*
X45180395Y13080000D01*
X44474473Y13785922D01*
X44245799Y13732534D01*
X44217287Y13670632D01*
X44184201Y13732534D01*
X43955527Y13785922D01*
X43249605Y13080000D01*
X42890395Y13080000D01*
X42184473Y13785922D01*
X41955799Y13732534D01*
X41849905Y13502626D01*
X41790898Y13256476D01*
X41781048Y13003545D01*
X38725000Y13003545D01*
X38725000Y13617354D01*
X39073173Y13965527D01*
X42364078Y13965527D01*
X43070000Y13259605D01*
X43775922Y13965527D01*
X43722534Y14194201D01*
X43492626Y14300095D01*
X43246476Y14359102D01*
X42993545Y14368952D01*
X42743551Y14329270D01*
X42506104Y14241578D01*
X42417466Y14194201D01*
X42364078Y13965527D01*
X39073173Y13965527D01*
X40397647Y15290000D01*
X41638898Y15290000D01*
X41675000Y15286444D01*
X41711105Y15290000D01*
X41819085Y15300635D01*
X41957633Y15342663D01*
X42085320Y15410913D01*
X42197238Y15502762D01*
X42220258Y15530812D01*
X42661223Y15971776D01*
X43941353Y14691645D01*
X43944299Y14687367D01*
X43992505Y14640496D01*
X44014399Y14618602D01*
X44018389Y14615328D01*
X44022091Y14611728D01*
X44046317Y14592409D01*
X44098274Y14549770D01*
X44102854Y14547322D01*
X44137385Y14519785D01*
X44171700Y14488242D01*
X44224730Y14455950D01*
X44276823Y14422190D01*
X44320127Y14404961D01*
X44397232Y14367829D01*
X44437704Y14344714D01*
X44496601Y14325027D01*
X44554895Y14303707D01*
X44600942Y14296546D01*
X44684379Y14277501D01*
X44728986Y14263970D01*
X44790778Y14257884D01*
X44827603Y14253211D01*
X44796104Y14241578D01*
X44707466Y14194201D01*
X44654078Y13965527D01*
X45360000Y13259605D01*
X46065922Y13965527D01*
X46012534Y14194201D01*
X45782626Y14300095D01*
X45536476Y14359102D01*
X45474968Y14361497D01*
X45486046Y14367825D01*
X45563162Y14404962D01*
X45606463Y14422190D01*
X45658563Y14455955D01*
X45711585Y14488242D01*
X45745896Y14519781D01*
X45780439Y14547328D01*
X45785029Y14549781D01*
X45836973Y14592411D01*
X45861195Y14611728D01*
X45864907Y14615337D01*
X45868902Y14618616D01*
X45890779Y14640494D01*
X45900937Y14650370D01*
X45904316Y14652697D01*
X45921390Y14670257D01*
X45938987Y14687367D01*
X45941319Y14690753D01*
X45951175Y14700889D01*
X45973077Y14722792D01*
X45976356Y14726787D01*
X45979955Y14730489D01*
X45999271Y14754710D01*
X46041909Y14806667D01*
X46044357Y14811247D01*
X46071898Y14845783D01*
X46103441Y14880098D01*
X46135733Y14933128D01*
X46169493Y14985221D01*
X46186722Y15028525D01*
X46223853Y15105628D01*
X46246968Y15146100D01*
X46266654Y15204994D01*
X46287976Y15263293D01*
X46295137Y15309343D01*
X46314182Y15392778D01*
X46327715Y15437392D01*
X46330284Y15463479D01*
X46356379Y15466049D01*
X46400988Y15479581D01*
X46484423Y15498625D01*
X46530470Y15505786D01*
X46588782Y15527112D01*
X46647661Y15546793D01*
X46688125Y15569904D01*
X46765241Y15607041D01*
X46808542Y15624269D01*
X46860642Y15658034D01*
X46913664Y15690321D01*
X46947975Y15721860D01*
X46982518Y15749407D01*
X46987108Y15751860D01*
X47039052Y15794490D01*
X47063274Y15813807D01*
X47066986Y15817416D01*
X47070981Y15820695D01*
X47092858Y15842573D01*
X47103016Y15852449D01*
X47106395Y15854776D01*
X47123469Y15872336D01*
X47141066Y15889446D01*
X47143398Y15892832D01*
X47153254Y15902968D01*
X47175156Y15924871D01*
X47178435Y15928866D01*
X47182034Y15932568D01*
X47201350Y15956789D01*
X47243988Y16008746D01*
X47246436Y16013326D01*
X47273977Y16047862D01*
X47305520Y16082177D01*
X47337812Y16135207D01*
X47371572Y16187300D01*
X47388801Y16230604D01*
X47425932Y16307707D01*
X47449047Y16348179D01*
X47468733Y16407073D01*
X47490055Y16465372D01*
X47497216Y16511422D01*
X47516261Y16594857D01*
X47529794Y16639471D01*
X47535879Y16701258D01*
X47543693Y16762828D01*
X47540427Y16809327D01*
X47540427Y16894920D01*
X47543692Y16941416D01*
X47535874Y17003020D01*
X47529790Y17064782D01*
X47516263Y17109374D01*
X47497216Y17192819D01*
X47490056Y17238863D01*
X47468726Y17297185D01*
X47449045Y17356064D01*
X47425937Y17396523D01*
X47388801Y17473637D01*
X47371572Y17516940D01*
X47337812Y17569033D01*
X47305523Y17622059D01*
X47273978Y17656378D01*
X47246437Y17690913D01*
X47243984Y17695502D01*
X47201318Y17747491D01*
X47182034Y17771672D01*
X47178435Y17775373D01*
X47175151Y17779375D01*
X47153227Y17801299D01*
X47106395Y17849464D01*
X47102113Y17852413D01*
X45801997Y19152528D01*
X45835324Y19172823D01*
X45869632Y19204359D01*
X45904177Y19231907D01*
X45908760Y19234357D01*
X45960702Y19276984D01*
X45984932Y19296307D01*
X45988639Y19299911D01*
X45992634Y19303190D01*
X46014525Y19325081D01*
X46062724Y19371946D01*
X46065675Y19376231D01*
X48292521Y21603075D01*
X48396444Y21476444D01*
G37*
X48396444Y21476444D02*
X48686518Y21238387D01*
X49017461Y21061494D01*
X49376555Y20952564D01*
X49750000Y20915783D01*
X50123444Y20952564D01*
X50482538Y21061494D01*
X50813482Y21238387D01*
X51015001Y21403769D01*
X51015001Y14918582D01*
X43183255Y7086836D01*
X43068125Y7259140D01*
X42889140Y7438125D01*
X42678676Y7578753D01*
X42444821Y7675619D01*
X42232849Y7717782D01*
X42285619Y7845179D01*
X42335000Y8093439D01*
X42335000Y8346561D01*
X42285619Y8594821D01*
X42188753Y8828676D01*
X42048125Y9039140D01*
X41869140Y9218125D01*
X41658676Y9358753D01*
X41424821Y9455619D01*
X41176561Y9505000D01*
X40923439Y9505000D01*
X40675179Y9455619D01*
X40441324Y9358753D01*
X40230860Y9218125D01*
X40051875Y9039140D01*
X40030000Y9006402D01*
X40008125Y9039140D01*
X39829140Y9218125D01*
X39618676Y9358753D01*
X39384821Y9455619D01*
X39136561Y9505000D01*
X38883439Y9505000D01*
X38725000Y9473485D01*
X38725000Y9725000D01*
X39273705Y9725000D01*
X39278820Y9724057D01*
X39345995Y9725000D01*
X39376996Y9725000D01*
X39382149Y9725508D01*
X39387311Y9725580D01*
X39418038Y9729042D01*
X39484976Y9735635D01*
X39489957Y9737146D01*
X39533851Y9742092D01*
X39580412Y9744052D01*
X39640737Y9758714D01*
X39701457Y9771680D01*
X39744256Y9790116D01*
X39825036Y9818381D01*
X39870007Y9830657D01*
X39925563Y9858379D01*
X39981859Y9884523D01*
X40019490Y9912025D01*
X40091965Y9957564D01*
X40133060Y9979530D01*
X40181036Y10018902D01*
X40230129Y10056939D01*
X40260696Y10092125D01*
X40321207Y10152636D01*
X40356393Y10183203D01*
X40394424Y10232288D01*
X40433802Y10280271D01*
X40455770Y10321371D01*
X40501310Y10393847D01*
X40528809Y10431474D01*
X40554950Y10487763D01*
X40582675Y10543325D01*
X40594951Y10588296D01*
X40623214Y10669068D01*
X40641654Y10711879D01*
X40654621Y10772607D01*
X40669280Y10832919D01*
X40671240Y10879484D01*
X40676186Y10923379D01*
X40677696Y10928357D01*
X40684289Y10995299D01*
X40687751Y11026025D01*
X40687823Y11031183D01*
X40688331Y11036337D01*
X40688331Y11067369D01*
X40688528Y11081446D01*
X40689273Y11085484D01*
X40688929Y11110000D01*
X40689273Y11134517D01*
X40688528Y11138555D01*
X40688331Y11152632D01*
X40688331Y11183665D01*
X40687823Y11188819D01*
X40687751Y11193976D01*
X40684290Y11224695D01*
X40677696Y11291645D01*
X40676186Y11296623D01*
X40671240Y11340517D01*
X40669280Y11387082D01*
X40654621Y11447394D01*
X40641654Y11508122D01*
X40623214Y11550933D01*
X40594951Y11631705D01*
X40582675Y11676676D01*
X40554950Y11732238D01*
X40528809Y11788527D01*
X40501310Y11826154D01*
X40455770Y11898630D01*
X40433802Y11939730D01*
X40394424Y11987713D01*
X40356393Y12036798D01*
X40321207Y12067365D01*
X40260696Y12127876D01*
X40230129Y12163062D01*
X40189588Y12194473D01*
X42364078Y12194473D01*
X42417466Y11965799D01*
X42647374Y11859905D01*
X42893524Y11800898D01*
X43146455Y11791048D01*
X43396449Y11830730D01*
X43633896Y11918422D01*
X43722534Y11965799D01*
X43775922Y12194473D01*
X44654078Y12194473D01*
X44707466Y11965799D01*
X44937374Y11859905D01*
X45183524Y11800898D01*
X45436455Y11791048D01*
X45686449Y11830730D01*
X45923896Y11918422D01*
X46012534Y11965799D01*
X46065922Y12194473D01*
X45360000Y12900395D01*
X44654078Y12194473D01*
X43775922Y12194473D01*
X43070000Y12900395D01*
X42364078Y12194473D01*
X40189588Y12194473D01*
X40181036Y12201099D01*
X40133060Y12240471D01*
X40091965Y12262437D01*
X40019490Y12307976D01*
X39981859Y12335478D01*
X39925563Y12361622D01*
X39870007Y12389344D01*
X39825036Y12401620D01*
X39744260Y12429884D01*
X39701452Y12448323D01*
X39640724Y12461290D01*
X39580412Y12475949D01*
X39533852Y12477909D01*
X39489952Y12482856D01*
X39484976Y12484365D01*
X39418072Y12490954D01*
X39387305Y12494421D01*
X39382139Y12494493D01*
X39376996Y12495000D01*
X39346006Y12495000D01*
X39278815Y12495942D01*
X39273706Y12495000D01*
X38696732Y12495000D01*
X38705948Y12532919D01*
X38707908Y12579480D01*
X38712854Y12623376D01*
X38714365Y12628356D01*
X38720957Y12695286D01*
X38724420Y12726020D01*
X38724492Y12731183D01*
X38725000Y12736336D01*
X38725000Y12767337D01*
X38725943Y12834512D01*
X38725000Y12839627D01*
X38725000Y13003545D01*
X41781048Y13003545D01*
X41820730Y12753551D01*
X41908422Y12516104D01*
X41955799Y12427466D01*
X42184473Y12374078D01*
X42890395Y13080000D01*
X43249605Y13080000D01*
X43955527Y12374078D01*
X44184201Y12427466D01*
X44212713Y12489368D01*
X44245799Y12427466D01*
X44474473Y12374078D01*
X45180395Y13080000D01*
X45539605Y13080000D01*
X46245527Y12374078D01*
X46474201Y12427466D01*
X46580095Y12657374D01*
X46639102Y12903524D01*
X46648952Y13156455D01*
X46609270Y13406449D01*
X46521578Y13643896D01*
X46474201Y13732534D01*
X46245527Y13785922D01*
X45539605Y13080000D01*
X45180395Y13080000D01*
X44474473Y13785922D01*
X44245799Y13732534D01*
X44217287Y13670632D01*
X44184201Y13732534D01*
X43955527Y13785922D01*
X43249605Y13080000D01*
X42890395Y13080000D01*
X42184473Y13785922D01*
X41955799Y13732534D01*
X41849905Y13502626D01*
X41790898Y13256476D01*
X41781048Y13003545D01*
X38725000Y13003545D01*
X38725000Y13617354D01*
X39073173Y13965527D01*
X42364078Y13965527D01*
X43070000Y13259605D01*
X43775922Y13965527D01*
X43722534Y14194201D01*
X43492626Y14300095D01*
X43246476Y14359102D01*
X42993545Y14368952D01*
X42743551Y14329270D01*
X42506104Y14241578D01*
X42417466Y14194201D01*
X42364078Y13965527D01*
X39073173Y13965527D01*
X40397647Y15290000D01*
X41638898Y15290000D01*
X41675000Y15286444D01*
X41711105Y15290000D01*
X41819085Y15300635D01*
X41957633Y15342663D01*
X42085320Y15410913D01*
X42197238Y15502762D01*
X42220258Y15530812D01*
X42661223Y15971776D01*
X43941353Y14691645D01*
X43944299Y14687367D01*
X43992505Y14640496D01*
X44014399Y14618602D01*
X44018389Y14615328D01*
X44022091Y14611728D01*
X44046317Y14592409D01*
X44098274Y14549770D01*
X44102854Y14547322D01*
X44137385Y14519785D01*
X44171700Y14488242D01*
X44224730Y14455950D01*
X44276823Y14422190D01*
X44320127Y14404961D01*
X44397232Y14367829D01*
X44437704Y14344714D01*
X44496601Y14325027D01*
X44554895Y14303707D01*
X44600942Y14296546D01*
X44684379Y14277501D01*
X44728986Y14263970D01*
X44790778Y14257884D01*
X44827603Y14253211D01*
X44796104Y14241578D01*
X44707466Y14194201D01*
X44654078Y13965527D01*
X45360000Y13259605D01*
X46065922Y13965527D01*
X46012534Y14194201D01*
X45782626Y14300095D01*
X45536476Y14359102D01*
X45474968Y14361497D01*
X45486046Y14367825D01*
X45563162Y14404962D01*
X45606463Y14422190D01*
X45658563Y14455955D01*
X45711585Y14488242D01*
X45745896Y14519781D01*
X45780439Y14547328D01*
X45785029Y14549781D01*
X45836973Y14592411D01*
X45861195Y14611728D01*
X45864907Y14615337D01*
X45868902Y14618616D01*
X45890779Y14640494D01*
X45900937Y14650370D01*
X45904316Y14652697D01*
X45921390Y14670257D01*
X45938987Y14687367D01*
X45941319Y14690753D01*
X45951175Y14700889D01*
X45973077Y14722792D01*
X45976356Y14726787D01*
X45979955Y14730489D01*
X45999271Y14754710D01*
X46041909Y14806667D01*
X46044357Y14811247D01*
X46071898Y14845783D01*
X46103441Y14880098D01*
X46135733Y14933128D01*
X46169493Y14985221D01*
X46186722Y15028525D01*
X46223853Y15105628D01*
X46246968Y15146100D01*
X46266654Y15204994D01*
X46287976Y15263293D01*
X46295137Y15309343D01*
X46314182Y15392778D01*
X46327715Y15437392D01*
X46330284Y15463479D01*
X46356379Y15466049D01*
X46400988Y15479581D01*
X46484423Y15498625D01*
X46530470Y15505786D01*
X46588782Y15527112D01*
X46647661Y15546793D01*
X46688125Y15569904D01*
X46765241Y15607041D01*
X46808542Y15624269D01*
X46860642Y15658034D01*
X46913664Y15690321D01*
X46947975Y15721860D01*
X46982518Y15749407D01*
X46987108Y15751860D01*
X47039052Y15794490D01*
X47063274Y15813807D01*
X47066986Y15817416D01*
X47070981Y15820695D01*
X47092858Y15842573D01*
X47103016Y15852449D01*
X47106395Y15854776D01*
X47123469Y15872336D01*
X47141066Y15889446D01*
X47143398Y15892832D01*
X47153254Y15902968D01*
X47175156Y15924871D01*
X47178435Y15928866D01*
X47182034Y15932568D01*
X47201350Y15956789D01*
X47243988Y16008746D01*
X47246436Y16013326D01*
X47273977Y16047862D01*
X47305520Y16082177D01*
X47337812Y16135207D01*
X47371572Y16187300D01*
X47388801Y16230604D01*
X47425932Y16307707D01*
X47449047Y16348179D01*
X47468733Y16407073D01*
X47490055Y16465372D01*
X47497216Y16511422D01*
X47516261Y16594857D01*
X47529794Y16639471D01*
X47535879Y16701258D01*
X47543693Y16762828D01*
X47540427Y16809327D01*
X47540427Y16894920D01*
X47543692Y16941416D01*
X47535874Y17003020D01*
X47529790Y17064782D01*
X47516263Y17109374D01*
X47497216Y17192819D01*
X47490056Y17238863D01*
X47468726Y17297185D01*
X47449045Y17356064D01*
X47425937Y17396523D01*
X47388801Y17473637D01*
X47371572Y17516940D01*
X47337812Y17569033D01*
X47305523Y17622059D01*
X47273978Y17656378D01*
X47246437Y17690913D01*
X47243984Y17695502D01*
X47201318Y17747491D01*
X47182034Y17771672D01*
X47178435Y17775373D01*
X47175151Y17779375D01*
X47153227Y17801299D01*
X47106395Y17849464D01*
X47102113Y17852413D01*
X45801997Y19152528D01*
X45835324Y19172823D01*
X45869632Y19204359D01*
X45904177Y19231907D01*
X45908760Y19234357D01*
X45960702Y19276984D01*
X45984932Y19296307D01*
X45988639Y19299911D01*
X45992634Y19303190D01*
X46014525Y19325081D01*
X46062724Y19371946D01*
X46065675Y19376231D01*
X48292521Y21603075D01*
X48396444Y21476444D01*
M02*
