G04 #@! TF.GenerationSoftware,KiCad,Pcbnew,(5.1.5)-3*
G04 #@! TF.CreationDate,2020-02-01T18:30:37+01:00*
G04 #@! TF.ProjectId,STMBLBreakout,53544d42-4c42-4726-9561-6b6f75742e6b,rev?*
G04 #@! TF.SameCoordinates,PX2faf080PY8f0d180*
G04 #@! TF.FileFunction,Copper,L1,Top*
G04 #@! TF.FilePolarity,Positive*
%FSLAX46Y46*%
G04 Gerber Fmt 4.6, Leading zero omitted, Abs format (unit mm)*
G04 Created by KiCad (PCBNEW (5.1.5)-3) date 2020-02-01 18:30:37*
%MOMM*%
%LPD*%
G04 APERTURE LIST*
%ADD10C,2.400000*%
%ADD11R,2.400000X2.400000*%
%ADD12C,0.100000*%
%ADD13O,2.540000X5.080000*%
%ADD14C,1.900000*%
%ADD15C,1.300000*%
%ADD16C,0.600000*%
%ADD17C,0.250000*%
%ADD18C,0.200000*%
%ADD19C,0.254000*%
G04 APERTURE END LIST*
D10*
X32000000Y35500000D03*
D11*
X28500000Y35500000D03*
G04 #@! TA.AperFunction,SMDPad,CuDef*
D12*
G36*
X48774504Y5623796D02*
G01*
X48798773Y5620196D01*
X48822571Y5614235D01*
X48845671Y5605970D01*
X48867849Y5595480D01*
X48888893Y5582867D01*
X48908598Y5568253D01*
X48926777Y5551777D01*
X48943253Y5533598D01*
X48957867Y5513893D01*
X48970480Y5492849D01*
X48980970Y5470671D01*
X48989235Y5447571D01*
X48995196Y5423773D01*
X48998796Y5399504D01*
X49000000Y5375000D01*
X49000000Y4625000D01*
X48998796Y4600496D01*
X48995196Y4576227D01*
X48989235Y4552429D01*
X48980970Y4529329D01*
X48970480Y4507151D01*
X48957867Y4486107D01*
X48943253Y4466402D01*
X48926777Y4448223D01*
X48908598Y4431747D01*
X48888893Y4417133D01*
X48867849Y4404520D01*
X48845671Y4394030D01*
X48822571Y4385765D01*
X48798773Y4379804D01*
X48774504Y4376204D01*
X48750000Y4375000D01*
X48250000Y4375000D01*
X48225496Y4376204D01*
X48201227Y4379804D01*
X48177429Y4385765D01*
X48154329Y4394030D01*
X48132151Y4404520D01*
X48111107Y4417133D01*
X48091402Y4431747D01*
X48073223Y4448223D01*
X48056747Y4466402D01*
X48042133Y4486107D01*
X48029520Y4507151D01*
X48019030Y4529329D01*
X48010765Y4552429D01*
X48004804Y4576227D01*
X48001204Y4600496D01*
X48000000Y4625000D01*
X48000000Y5375000D01*
X48001204Y5399504D01*
X48004804Y5423773D01*
X48010765Y5447571D01*
X48019030Y5470671D01*
X48029520Y5492849D01*
X48042133Y5513893D01*
X48056747Y5533598D01*
X48073223Y5551777D01*
X48091402Y5568253D01*
X48111107Y5582867D01*
X48132151Y5595480D01*
X48154329Y5605970D01*
X48177429Y5614235D01*
X48201227Y5620196D01*
X48225496Y5623796D01*
X48250000Y5625000D01*
X48750000Y5625000D01*
X48774504Y5623796D01*
G37*
G04 #@! TD.AperFunction*
G04 #@! TA.AperFunction,SMDPad,CuDef*
G36*
X50774504Y5623796D02*
G01*
X50798773Y5620196D01*
X50822571Y5614235D01*
X50845671Y5605970D01*
X50867849Y5595480D01*
X50888893Y5582867D01*
X50908598Y5568253D01*
X50926777Y5551777D01*
X50943253Y5533598D01*
X50957867Y5513893D01*
X50970480Y5492849D01*
X50980970Y5470671D01*
X50989235Y5447571D01*
X50995196Y5423773D01*
X50998796Y5399504D01*
X51000000Y5375000D01*
X51000000Y4625000D01*
X50998796Y4600496D01*
X50995196Y4576227D01*
X50989235Y4552429D01*
X50980970Y4529329D01*
X50970480Y4507151D01*
X50957867Y4486107D01*
X50943253Y4466402D01*
X50926777Y4448223D01*
X50908598Y4431747D01*
X50888893Y4417133D01*
X50867849Y4404520D01*
X50845671Y4394030D01*
X50822571Y4385765D01*
X50798773Y4379804D01*
X50774504Y4376204D01*
X50750000Y4375000D01*
X50250000Y4375000D01*
X50225496Y4376204D01*
X50201227Y4379804D01*
X50177429Y4385765D01*
X50154329Y4394030D01*
X50132151Y4404520D01*
X50111107Y4417133D01*
X50091402Y4431747D01*
X50073223Y4448223D01*
X50056747Y4466402D01*
X50042133Y4486107D01*
X50029520Y4507151D01*
X50019030Y4529329D01*
X50010765Y4552429D01*
X50004804Y4576227D01*
X50001204Y4600496D01*
X50000000Y4625000D01*
X50000000Y5375000D01*
X50001204Y5399504D01*
X50004804Y5423773D01*
X50010765Y5447571D01*
X50019030Y5470671D01*
X50029520Y5492849D01*
X50042133Y5513893D01*
X50056747Y5533598D01*
X50073223Y5551777D01*
X50091402Y5568253D01*
X50111107Y5582867D01*
X50132151Y5595480D01*
X50154329Y5605970D01*
X50177429Y5614235D01*
X50201227Y5620196D01*
X50225496Y5623796D01*
X50250000Y5625000D01*
X50750000Y5625000D01*
X50774504Y5623796D01*
G37*
G04 #@! TD.AperFunction*
G04 #@! TA.AperFunction,SMDPad,CuDef*
G36*
X12774504Y5623796D02*
G01*
X12798773Y5620196D01*
X12822571Y5614235D01*
X12845671Y5605970D01*
X12867849Y5595480D01*
X12888893Y5582867D01*
X12908598Y5568253D01*
X12926777Y5551777D01*
X12943253Y5533598D01*
X12957867Y5513893D01*
X12970480Y5492849D01*
X12980970Y5470671D01*
X12989235Y5447571D01*
X12995196Y5423773D01*
X12998796Y5399504D01*
X13000000Y5375000D01*
X13000000Y4625000D01*
X12998796Y4600496D01*
X12995196Y4576227D01*
X12989235Y4552429D01*
X12980970Y4529329D01*
X12970480Y4507151D01*
X12957867Y4486107D01*
X12943253Y4466402D01*
X12926777Y4448223D01*
X12908598Y4431747D01*
X12888893Y4417133D01*
X12867849Y4404520D01*
X12845671Y4394030D01*
X12822571Y4385765D01*
X12798773Y4379804D01*
X12774504Y4376204D01*
X12750000Y4375000D01*
X12250000Y4375000D01*
X12225496Y4376204D01*
X12201227Y4379804D01*
X12177429Y4385765D01*
X12154329Y4394030D01*
X12132151Y4404520D01*
X12111107Y4417133D01*
X12091402Y4431747D01*
X12073223Y4448223D01*
X12056747Y4466402D01*
X12042133Y4486107D01*
X12029520Y4507151D01*
X12019030Y4529329D01*
X12010765Y4552429D01*
X12004804Y4576227D01*
X12001204Y4600496D01*
X12000000Y4625000D01*
X12000000Y5375000D01*
X12001204Y5399504D01*
X12004804Y5423773D01*
X12010765Y5447571D01*
X12019030Y5470671D01*
X12029520Y5492849D01*
X12042133Y5513893D01*
X12056747Y5533598D01*
X12073223Y5551777D01*
X12091402Y5568253D01*
X12111107Y5582867D01*
X12132151Y5595480D01*
X12154329Y5605970D01*
X12177429Y5614235D01*
X12201227Y5620196D01*
X12225496Y5623796D01*
X12250000Y5625000D01*
X12750000Y5625000D01*
X12774504Y5623796D01*
G37*
G04 #@! TD.AperFunction*
G04 #@! TA.AperFunction,SMDPad,CuDef*
G36*
X10774504Y5623796D02*
G01*
X10798773Y5620196D01*
X10822571Y5614235D01*
X10845671Y5605970D01*
X10867849Y5595480D01*
X10888893Y5582867D01*
X10908598Y5568253D01*
X10926777Y5551777D01*
X10943253Y5533598D01*
X10957867Y5513893D01*
X10970480Y5492849D01*
X10980970Y5470671D01*
X10989235Y5447571D01*
X10995196Y5423773D01*
X10998796Y5399504D01*
X11000000Y5375000D01*
X11000000Y4625000D01*
X10998796Y4600496D01*
X10995196Y4576227D01*
X10989235Y4552429D01*
X10980970Y4529329D01*
X10970480Y4507151D01*
X10957867Y4486107D01*
X10943253Y4466402D01*
X10926777Y4448223D01*
X10908598Y4431747D01*
X10888893Y4417133D01*
X10867849Y4404520D01*
X10845671Y4394030D01*
X10822571Y4385765D01*
X10798773Y4379804D01*
X10774504Y4376204D01*
X10750000Y4375000D01*
X10250000Y4375000D01*
X10225496Y4376204D01*
X10201227Y4379804D01*
X10177429Y4385765D01*
X10154329Y4394030D01*
X10132151Y4404520D01*
X10111107Y4417133D01*
X10091402Y4431747D01*
X10073223Y4448223D01*
X10056747Y4466402D01*
X10042133Y4486107D01*
X10029520Y4507151D01*
X10019030Y4529329D01*
X10010765Y4552429D01*
X10004804Y4576227D01*
X10001204Y4600496D01*
X10000000Y4625000D01*
X10000000Y5375000D01*
X10001204Y5399504D01*
X10004804Y5423773D01*
X10010765Y5447571D01*
X10019030Y5470671D01*
X10029520Y5492849D01*
X10042133Y5513893D01*
X10056747Y5533598D01*
X10073223Y5551777D01*
X10091402Y5568253D01*
X10111107Y5582867D01*
X10132151Y5595480D01*
X10154329Y5605970D01*
X10177429Y5614235D01*
X10201227Y5620196D01*
X10225496Y5623796D01*
X10250000Y5625000D01*
X10750000Y5625000D01*
X10774504Y5623796D01*
G37*
G04 #@! TD.AperFunction*
D13*
X37500000Y35500000D03*
X39250000Y24100000D03*
X41000000Y35500000D03*
X42750000Y24100000D03*
X44500000Y35500000D03*
X46250000Y24100000D03*
X48000000Y35500000D03*
X49750000Y24100000D03*
D14*
X30250000Y7330000D03*
X46750000Y7330000D03*
D15*
X42070000Y6440000D03*
X41050000Y8220000D03*
X40030000Y6440000D03*
X39010000Y8220000D03*
X37990000Y6440000D03*
X36970000Y8220000D03*
X35950000Y6440000D03*
X34930000Y8220000D03*
X31640000Y13080000D03*
X33930000Y13080000D03*
X43070000Y13080000D03*
X45360000Y13080000D03*
D13*
X12000000Y35500000D03*
X13750000Y24100000D03*
X15500000Y35500000D03*
X17250000Y24100000D03*
X19000000Y35500000D03*
X20750000Y24100000D03*
X22500000Y35500000D03*
X24250000Y24100000D03*
D14*
X13750000Y7330000D03*
X30250000Y7330000D03*
D15*
X25570000Y6440000D03*
X24550000Y8220000D03*
X23530000Y6440000D03*
X22510000Y8220000D03*
X21490000Y6440000D03*
X20470000Y8220000D03*
X19450000Y6440000D03*
X18430000Y8220000D03*
X15140000Y13080000D03*
X17430000Y13080000D03*
X26570000Y13080000D03*
X28860000Y13080000D03*
G04 #@! TA.AperFunction,SMDPad,CuDef*
D12*
G36*
X48774504Y10123796D02*
G01*
X48798773Y10120196D01*
X48822571Y10114235D01*
X48845671Y10105970D01*
X48867849Y10095480D01*
X48888893Y10082867D01*
X48908598Y10068253D01*
X48926777Y10051777D01*
X48943253Y10033598D01*
X48957867Y10013893D01*
X48970480Y9992849D01*
X48980970Y9970671D01*
X48989235Y9947571D01*
X48995196Y9923773D01*
X48998796Y9899504D01*
X49000000Y9875000D01*
X49000000Y9125000D01*
X48998796Y9100496D01*
X48995196Y9076227D01*
X48989235Y9052429D01*
X48980970Y9029329D01*
X48970480Y9007151D01*
X48957867Y8986107D01*
X48943253Y8966402D01*
X48926777Y8948223D01*
X48908598Y8931747D01*
X48888893Y8917133D01*
X48867849Y8904520D01*
X48845671Y8894030D01*
X48822571Y8885765D01*
X48798773Y8879804D01*
X48774504Y8876204D01*
X48750000Y8875000D01*
X48250000Y8875000D01*
X48225496Y8876204D01*
X48201227Y8879804D01*
X48177429Y8885765D01*
X48154329Y8894030D01*
X48132151Y8904520D01*
X48111107Y8917133D01*
X48091402Y8931747D01*
X48073223Y8948223D01*
X48056747Y8966402D01*
X48042133Y8986107D01*
X48029520Y9007151D01*
X48019030Y9029329D01*
X48010765Y9052429D01*
X48004804Y9076227D01*
X48001204Y9100496D01*
X48000000Y9125000D01*
X48000000Y9875000D01*
X48001204Y9899504D01*
X48004804Y9923773D01*
X48010765Y9947571D01*
X48019030Y9970671D01*
X48029520Y9992849D01*
X48042133Y10013893D01*
X48056747Y10033598D01*
X48073223Y10051777D01*
X48091402Y10068253D01*
X48111107Y10082867D01*
X48132151Y10095480D01*
X48154329Y10105970D01*
X48177429Y10114235D01*
X48201227Y10120196D01*
X48225496Y10123796D01*
X48250000Y10125000D01*
X48750000Y10125000D01*
X48774504Y10123796D01*
G37*
G04 #@! TD.AperFunction*
G04 #@! TA.AperFunction,SMDPad,CuDef*
G36*
X50774504Y10123796D02*
G01*
X50798773Y10120196D01*
X50822571Y10114235D01*
X50845671Y10105970D01*
X50867849Y10095480D01*
X50888893Y10082867D01*
X50908598Y10068253D01*
X50926777Y10051777D01*
X50943253Y10033598D01*
X50957867Y10013893D01*
X50970480Y9992849D01*
X50980970Y9970671D01*
X50989235Y9947571D01*
X50995196Y9923773D01*
X50998796Y9899504D01*
X51000000Y9875000D01*
X51000000Y9125000D01*
X50998796Y9100496D01*
X50995196Y9076227D01*
X50989235Y9052429D01*
X50980970Y9029329D01*
X50970480Y9007151D01*
X50957867Y8986107D01*
X50943253Y8966402D01*
X50926777Y8948223D01*
X50908598Y8931747D01*
X50888893Y8917133D01*
X50867849Y8904520D01*
X50845671Y8894030D01*
X50822571Y8885765D01*
X50798773Y8879804D01*
X50774504Y8876204D01*
X50750000Y8875000D01*
X50250000Y8875000D01*
X50225496Y8876204D01*
X50201227Y8879804D01*
X50177429Y8885765D01*
X50154329Y8894030D01*
X50132151Y8904520D01*
X50111107Y8917133D01*
X50091402Y8931747D01*
X50073223Y8948223D01*
X50056747Y8966402D01*
X50042133Y8986107D01*
X50029520Y9007151D01*
X50019030Y9029329D01*
X50010765Y9052429D01*
X50004804Y9076227D01*
X50001204Y9100496D01*
X50000000Y9125000D01*
X50000000Y9875000D01*
X50001204Y9899504D01*
X50004804Y9923773D01*
X50010765Y9947571D01*
X50019030Y9970671D01*
X50029520Y9992849D01*
X50042133Y10013893D01*
X50056747Y10033598D01*
X50073223Y10051777D01*
X50091402Y10068253D01*
X50111107Y10082867D01*
X50132151Y10095480D01*
X50154329Y10105970D01*
X50177429Y10114235D01*
X50201227Y10120196D01*
X50225496Y10123796D01*
X50250000Y10125000D01*
X50750000Y10125000D01*
X50774504Y10123796D01*
G37*
G04 #@! TD.AperFunction*
G04 #@! TA.AperFunction,SMDPad,CuDef*
G36*
X12774504Y10123796D02*
G01*
X12798773Y10120196D01*
X12822571Y10114235D01*
X12845671Y10105970D01*
X12867849Y10095480D01*
X12888893Y10082867D01*
X12908598Y10068253D01*
X12926777Y10051777D01*
X12943253Y10033598D01*
X12957867Y10013893D01*
X12970480Y9992849D01*
X12980970Y9970671D01*
X12989235Y9947571D01*
X12995196Y9923773D01*
X12998796Y9899504D01*
X13000000Y9875000D01*
X13000000Y9125000D01*
X12998796Y9100496D01*
X12995196Y9076227D01*
X12989235Y9052429D01*
X12980970Y9029329D01*
X12970480Y9007151D01*
X12957867Y8986107D01*
X12943253Y8966402D01*
X12926777Y8948223D01*
X12908598Y8931747D01*
X12888893Y8917133D01*
X12867849Y8904520D01*
X12845671Y8894030D01*
X12822571Y8885765D01*
X12798773Y8879804D01*
X12774504Y8876204D01*
X12750000Y8875000D01*
X12250000Y8875000D01*
X12225496Y8876204D01*
X12201227Y8879804D01*
X12177429Y8885765D01*
X12154329Y8894030D01*
X12132151Y8904520D01*
X12111107Y8917133D01*
X12091402Y8931747D01*
X12073223Y8948223D01*
X12056747Y8966402D01*
X12042133Y8986107D01*
X12029520Y9007151D01*
X12019030Y9029329D01*
X12010765Y9052429D01*
X12004804Y9076227D01*
X12001204Y9100496D01*
X12000000Y9125000D01*
X12000000Y9875000D01*
X12001204Y9899504D01*
X12004804Y9923773D01*
X12010765Y9947571D01*
X12019030Y9970671D01*
X12029520Y9992849D01*
X12042133Y10013893D01*
X12056747Y10033598D01*
X12073223Y10051777D01*
X12091402Y10068253D01*
X12111107Y10082867D01*
X12132151Y10095480D01*
X12154329Y10105970D01*
X12177429Y10114235D01*
X12201227Y10120196D01*
X12225496Y10123796D01*
X12250000Y10125000D01*
X12750000Y10125000D01*
X12774504Y10123796D01*
G37*
G04 #@! TD.AperFunction*
G04 #@! TA.AperFunction,SMDPad,CuDef*
G36*
X10774504Y10123796D02*
G01*
X10798773Y10120196D01*
X10822571Y10114235D01*
X10845671Y10105970D01*
X10867849Y10095480D01*
X10888893Y10082867D01*
X10908598Y10068253D01*
X10926777Y10051777D01*
X10943253Y10033598D01*
X10957867Y10013893D01*
X10970480Y9992849D01*
X10980970Y9970671D01*
X10989235Y9947571D01*
X10995196Y9923773D01*
X10998796Y9899504D01*
X11000000Y9875000D01*
X11000000Y9125000D01*
X10998796Y9100496D01*
X10995196Y9076227D01*
X10989235Y9052429D01*
X10980970Y9029329D01*
X10970480Y9007151D01*
X10957867Y8986107D01*
X10943253Y8966402D01*
X10926777Y8948223D01*
X10908598Y8931747D01*
X10888893Y8917133D01*
X10867849Y8904520D01*
X10845671Y8894030D01*
X10822571Y8885765D01*
X10798773Y8879804D01*
X10774504Y8876204D01*
X10750000Y8875000D01*
X10250000Y8875000D01*
X10225496Y8876204D01*
X10201227Y8879804D01*
X10177429Y8885765D01*
X10154329Y8894030D01*
X10132151Y8904520D01*
X10111107Y8917133D01*
X10091402Y8931747D01*
X10073223Y8948223D01*
X10056747Y8966402D01*
X10042133Y8986107D01*
X10029520Y9007151D01*
X10019030Y9029329D01*
X10010765Y9052429D01*
X10004804Y9076227D01*
X10001204Y9100496D01*
X10000000Y9125000D01*
X10000000Y9875000D01*
X10001204Y9899504D01*
X10004804Y9923773D01*
X10010765Y9947571D01*
X10019030Y9970671D01*
X10029520Y9992849D01*
X10042133Y10013893D01*
X10056747Y10033598D01*
X10073223Y10051777D01*
X10091402Y10068253D01*
X10111107Y10082867D01*
X10132151Y10095480D01*
X10154329Y10105970D01*
X10177429Y10114235D01*
X10201227Y10120196D01*
X10225496Y10123796D01*
X10250000Y10125000D01*
X10750000Y10125000D01*
X10774504Y10123796D01*
G37*
G04 #@! TD.AperFunction*
D16*
X38041636Y16059406D03*
X37440594Y15458364D03*
D17*
X48500000Y9080000D02*
X48500000Y9500000D01*
X46750000Y7330000D02*
X48500000Y9080000D01*
X48500000Y5580000D02*
X48500000Y5000000D01*
X46750000Y7330000D02*
X48500000Y5580000D01*
X12500000Y8580000D02*
X12500000Y9500000D01*
X13750000Y7330000D02*
X12500000Y8580000D01*
X12500000Y6080000D02*
X12500000Y5000000D01*
X13750000Y7330000D02*
X12500000Y6080000D01*
D18*
X36895479Y11208168D02*
X36863810Y11176499D01*
X36933400Y11231995D02*
X36895479Y11208168D01*
X37020177Y11251801D02*
X36975672Y11246787D01*
X36933400Y12931995D02*
X36895479Y12908168D01*
X40577383Y11251801D02*
X37020177Y11251801D01*
X40843111Y11312452D02*
X40713664Y11267157D01*
X41174468Y11727961D02*
X41129173Y11598514D01*
X41189823Y11864242D02*
X41174468Y11727961D01*
X41129173Y12205089D02*
X41174468Y12075642D01*
X37020177Y12951801D02*
X36975672Y12946787D01*
X40959233Y12418186D02*
X41056208Y12321211D01*
X40713664Y12536446D02*
X40843111Y12491151D01*
X40577383Y12551801D02*
X40713664Y12536446D01*
X37020177Y12551801D02*
X40577383Y12551801D01*
X36975672Y12556816D02*
X37020177Y12551801D01*
X36933400Y12571608D02*
X36975672Y12556816D01*
X38041636Y16059406D02*
X38041636Y15776563D01*
X39683287Y13012452D02*
X39553840Y12967157D01*
X39417559Y12951801D02*
X37020177Y12951801D01*
X40843111Y12491151D02*
X40959233Y12418186D01*
X41129173Y11598514D02*
X41056208Y11482392D01*
X36863810Y12627104D02*
X36895479Y12595435D01*
X40959233Y11385417D02*
X40843111Y11312452D01*
X39969349Y13298514D02*
X39896384Y13182392D01*
X40035015Y9396306D02*
X40030000Y9351801D01*
X36820177Y12751801D02*
X36825191Y12707297D01*
X36839983Y12665025D02*
X36863810Y12627104D01*
X38041636Y15776563D02*
X40030000Y13788199D01*
X36975672Y11246787D02*
X36933400Y11231995D01*
X36839983Y12838578D02*
X36825191Y12796306D01*
X40014644Y13427961D02*
X39969349Y13298514D01*
X39896384Y13182392D02*
X39799409Y13085417D01*
X41056208Y12321211D02*
X41129173Y12205089D01*
X39553840Y12967157D02*
X39417559Y12951801D01*
X40030000Y13564242D02*
X40014644Y13427961D01*
X40030000Y13788199D02*
X40030000Y13564242D01*
X40713664Y11267157D02*
X40577383Y11251801D01*
X36975672Y12946787D02*
X36933400Y12931995D01*
X36863810Y11176499D02*
X36839983Y11138578D01*
X41189823Y11939361D02*
X41189823Y11864242D01*
X36895479Y12908168D02*
X36863810Y12876499D01*
X41174468Y12075642D02*
X41189823Y11939361D01*
X36825191Y12707297D02*
X36839983Y12665025D01*
X36863810Y12876499D02*
X36839983Y12838578D01*
X36863810Y10927104D02*
X36895479Y10895435D01*
X41056208Y11482392D02*
X40959233Y11385417D01*
X36825191Y12796306D02*
X36820177Y12751801D01*
X39799409Y13085417D02*
X39683287Y13012452D01*
X40185496Y9546787D02*
X40143224Y9531995D01*
X36895479Y12595435D02*
X36933400Y12571608D01*
X36839983Y11138578D02*
X36825191Y11096306D01*
X36825191Y11096306D02*
X36820177Y11051801D01*
X36820177Y11051801D02*
X36825191Y11007297D01*
X36825191Y11007297D02*
X36839983Y10965025D01*
X36839983Y10965025D02*
X36863810Y10927104D01*
X36895479Y10895435D02*
X36933400Y10871608D01*
X36933400Y10871608D02*
X36975672Y10856816D01*
X36975672Y10856816D02*
X37020177Y10851801D01*
X37020177Y10851801D02*
X40577383Y10851801D01*
X40577383Y10851801D02*
X40713664Y10836446D01*
X40713664Y10836446D02*
X40843111Y10791151D01*
X40843111Y10791151D02*
X40959233Y10718186D01*
X40959233Y10718186D02*
X41056208Y10621211D01*
X41056208Y10621211D02*
X41129173Y10505089D01*
X41129173Y10505089D02*
X41174468Y10375642D01*
X41174468Y10375642D02*
X41189823Y10239361D01*
X41189823Y10239361D02*
X41189823Y10164242D01*
X41189823Y10164242D02*
X41174468Y10027961D01*
X41174468Y10027961D02*
X41129173Y9898514D01*
X41129173Y9898514D02*
X41056208Y9782392D01*
X41056208Y9782392D02*
X40959233Y9685417D01*
X40959233Y9685417D02*
X40843111Y9612452D01*
X40843111Y9612452D02*
X40713664Y9567157D01*
X40713664Y9567157D02*
X40577383Y9551801D01*
X40577383Y9551801D02*
X40230000Y9551801D01*
X40230000Y9551801D02*
X40185496Y9546787D01*
X40143224Y9531995D02*
X40105303Y9508168D01*
X40105303Y9508168D02*
X40073634Y9476499D01*
X40073634Y9476499D02*
X40049807Y9438578D01*
X40049807Y9438578D02*
X40035015Y9396306D01*
X40030000Y9351801D02*
X40030000Y8221268D01*
X40030000Y8221268D02*
X40030000Y6440000D01*
X33433615Y30044410D02*
X33530590Y30141385D01*
X33300000Y29662560D02*
X33315355Y29798841D01*
X33315355Y29451160D02*
X33300000Y29587441D01*
X33360650Y29321713D02*
X33315355Y29451160D01*
X33433615Y29205591D02*
X33360650Y29321713D01*
X33530590Y29108616D02*
X33433615Y29205591D01*
X35369504Y30280015D02*
X35411776Y30294807D01*
X33646712Y29035651D02*
X33530590Y29108616D01*
X33776159Y28990356D02*
X33646712Y29035651D01*
X35525000Y30475000D02*
X35525000Y30661397D01*
X33912440Y28975000D02*
X33776159Y28990356D01*
X37550000Y28975000D02*
X33912440Y28975000D01*
X37594505Y28969986D02*
X37550000Y28975000D01*
X37636777Y28955194D02*
X37594505Y28969986D01*
X35481366Y30350303D02*
X35505193Y30388224D01*
X37674698Y28931367D02*
X37636777Y28955194D01*
X37706367Y28899698D02*
X37674698Y28931367D01*
X37730194Y28861777D02*
X37706367Y28899698D01*
X37500000Y32636397D02*
X37500000Y35500000D01*
X37744986Y28819505D02*
X37730194Y28861777D01*
X33776159Y30259645D02*
X33912440Y30275000D01*
X37750000Y28775000D02*
X37744986Y28819505D01*
X37744986Y28730496D02*
X37750000Y28775000D01*
X37730194Y28688224D02*
X37744986Y28730496D01*
X33360650Y29928288D02*
X33433615Y30044410D01*
X37706367Y28650303D02*
X37730194Y28688224D01*
X37674698Y28618634D02*
X37706367Y28650303D01*
X37636777Y28594807D02*
X37674698Y28618634D01*
X37594505Y28580015D02*
X37636777Y28594807D01*
X35411776Y30294807D02*
X35449697Y30318634D01*
X37550000Y28575000D02*
X37594505Y28580015D01*
X33315355Y29798841D02*
X33360650Y29928288D01*
X33912440Y28575000D02*
X37550000Y28575000D01*
X33646712Y30214350D02*
X33776159Y30259645D01*
X33776159Y28559645D02*
X33912440Y28575000D01*
X33646712Y28514350D02*
X33776159Y28559645D01*
X33530590Y28441385D02*
X33646712Y28514350D01*
X33433615Y28344410D02*
X33530590Y28441385D01*
X33360650Y28228288D02*
X33433615Y28344410D01*
X33315355Y28098841D02*
X33360650Y28228288D01*
X33300000Y27962560D02*
X33315355Y28098841D01*
X33300000Y27887441D02*
X33300000Y27962560D01*
X33315355Y27751160D02*
X33300000Y27887441D01*
X33360650Y27621713D02*
X33315355Y27751160D01*
X33433615Y27505591D02*
X33360650Y27621713D01*
X33530590Y27408616D02*
X33433615Y27505591D01*
X35325000Y30275000D02*
X35369504Y30280015D01*
X33646712Y27335651D02*
X33530590Y27408616D01*
X33776159Y27290356D02*
X33646712Y27335651D01*
X33912440Y27275000D02*
X33776159Y27290356D01*
X35519985Y30430496D02*
X35525000Y30475000D01*
X37550000Y27275000D02*
X33912440Y27275000D01*
X37594505Y27269986D02*
X37550000Y27275000D01*
X37636777Y27255194D02*
X37594505Y27269986D01*
X37674698Y27231367D02*
X37636777Y27255194D01*
X37706367Y27199698D02*
X37674698Y27231367D01*
X37730194Y27161777D02*
X37706367Y27199698D01*
X37744986Y27119505D02*
X37730194Y27161777D01*
X37750000Y27075000D02*
X37744986Y27119505D01*
X37744986Y27030496D02*
X37750000Y27075000D01*
X37730194Y26988224D02*
X37744986Y27030496D01*
X37706367Y26950303D02*
X37730194Y26988224D01*
X37674698Y26918634D02*
X37706367Y26950303D01*
X37636777Y26894807D02*
X37674698Y26918634D01*
X37594505Y26880015D02*
X37636777Y26894807D01*
X37550000Y26875000D02*
X37594505Y26880015D01*
X36137441Y26875000D02*
X37550000Y26875000D01*
X36001160Y26859645D02*
X36137441Y26875000D01*
X35871713Y26814350D02*
X36001160Y26859645D01*
X35755591Y26741385D02*
X35871713Y26814350D01*
X35658616Y26644410D02*
X35755591Y26741385D01*
X39908963Y14801943D02*
X39856440Y14843828D01*
X39969489Y14772794D02*
X39908963Y14801943D01*
X40102163Y14757846D02*
X40034983Y14757847D01*
X39007912Y16116621D02*
X39074412Y16183124D01*
X40167657Y14772794D02*
X40102163Y14757846D01*
X40280704Y14843828D02*
X40228183Y14801942D01*
X40347207Y14910328D02*
X40280704Y14843828D01*
X35525000Y30661397D02*
X37500000Y32636397D01*
X38936879Y16003572D02*
X38966025Y16064099D01*
X40399729Y14952215D02*
X40347207Y14910328D01*
X39993975Y15447642D02*
X40008923Y15513136D01*
X40460256Y14981361D02*
X40399729Y14952215D01*
X40525749Y14996311D02*
X40460256Y14981361D01*
X40592929Y14996310D02*
X40525749Y14996311D01*
X40658422Y14981362D02*
X40592929Y14996310D01*
X40771471Y14910329D02*
X40718949Y14952214D01*
X39964827Y15387116D02*
X39993975Y15447642D01*
X40813356Y14857807D02*
X40771471Y14910329D01*
X40842502Y14797282D02*
X40813356Y14857807D01*
X38921929Y15938079D02*
X38936879Y16003572D01*
X40857452Y14731787D02*
X40842502Y14797282D01*
X40857451Y14664609D02*
X40857452Y14731787D01*
X39160394Y16361665D02*
X39160393Y16428845D01*
X40842503Y14599114D02*
X40857451Y14664609D01*
X40813355Y14538589D02*
X40842503Y14599114D01*
X40771470Y14486065D02*
X40813355Y14538589D01*
X40228183Y14801942D02*
X40167657Y14772794D01*
X40592373Y14296330D02*
X40634258Y14348854D01*
X38936878Y15805406D02*
X38921930Y15870899D01*
X33530590Y30141385D02*
X33646712Y30214350D01*
X41058523Y13924589D02*
X41006001Y13882702D01*
X41195736Y14061799D02*
X41058523Y13924589D01*
X41567478Y14103685D02*
X41506951Y14132833D01*
X41308785Y14132832D02*
X41248258Y14103686D01*
X41374278Y14147782D02*
X41308785Y14132832D01*
X39116297Y16554865D02*
X39074413Y16607387D01*
X40812801Y13838607D02*
X40747308Y13853555D01*
X41248258Y14103686D02*
X41195736Y14061799D01*
X35449697Y30318634D02*
X35481366Y30350303D01*
X39074412Y16183124D02*
X39116298Y16235645D01*
X41506951Y14132833D02*
X41441458Y14147781D01*
X40548276Y14103132D02*
X40548277Y14170310D01*
X41620000Y8790000D02*
X41620000Y14061800D01*
X40879981Y13838606D02*
X40812801Y13838607D01*
X38966026Y15744879D02*
X38936878Y15805406D01*
X41050000Y8220000D02*
X41620000Y8790000D01*
X41620000Y14061800D02*
X41567478Y14103685D01*
X38966025Y16064099D02*
X39007912Y16116621D01*
X40634258Y14348854D02*
X40771470Y14486065D01*
X41006001Y13882702D02*
X40945474Y13853556D01*
X40945474Y13853556D02*
X40879981Y13838606D01*
X40747308Y13853555D02*
X40686781Y13882703D01*
X40592372Y13977112D02*
X40563226Y14037637D01*
X40634259Y13924588D02*
X40592372Y13977112D01*
X40718949Y14952214D02*
X40658422Y14981362D01*
X40686781Y13882703D02*
X40634259Y13924588D01*
X40034983Y14757847D02*
X39969489Y14772794D01*
X40563226Y14037637D02*
X40548276Y14103132D01*
X40548277Y14170310D02*
X40563225Y14235805D01*
X39870420Y15800743D02*
X39809893Y15829891D01*
X41441458Y14147781D02*
X41374278Y14147782D01*
X40563225Y14235805D02*
X40592373Y14296330D01*
X39856440Y14843828D02*
X39814555Y14896350D01*
X39814555Y14896350D02*
X39785407Y14956877D01*
X39785407Y14956877D02*
X39770459Y15022370D01*
X39770459Y15022370D02*
X39770458Y15089550D01*
X39770458Y15089550D02*
X39785408Y15155043D01*
X39785408Y15155043D02*
X39814554Y15215570D01*
X39814554Y15215570D02*
X39856441Y15268092D01*
X39498678Y15758857D02*
X39432175Y15692357D01*
X39856441Y15268092D02*
X39922941Y15334595D01*
X39922941Y15334595D02*
X39964827Y15387116D01*
X33912440Y30275000D02*
X35325000Y30275000D01*
X40008922Y15580316D02*
X39993975Y15645810D01*
X33300000Y29587441D02*
X33300000Y29662560D01*
X40008923Y15513136D02*
X40008922Y15580316D01*
X39993975Y15645810D02*
X39964826Y15706336D01*
X39964826Y15706336D02*
X39922942Y15758858D01*
X39922942Y15758858D02*
X39870420Y15800743D01*
X39809893Y15829891D02*
X39744400Y15844839D01*
X39744400Y15844839D02*
X39677220Y15844840D01*
X39677220Y15844840D02*
X39611727Y15829890D01*
X39611727Y15829890D02*
X39551200Y15800744D01*
X39551200Y15800744D02*
X39498678Y15758857D01*
X39432175Y15692357D02*
X39379654Y15650471D01*
X39379654Y15650471D02*
X39319128Y15621323D01*
X39319128Y15621323D02*
X39253634Y15606375D01*
X35505193Y30388224D02*
X35519985Y30430496D01*
X39253634Y15606375D02*
X39186454Y15606376D01*
X39186454Y15606376D02*
X39120960Y15621323D01*
X39120960Y15621323D02*
X39060434Y15650472D01*
X39060434Y15650472D02*
X39007911Y15692357D01*
X39007911Y15692357D02*
X38966026Y15744879D01*
X38921930Y15870899D02*
X38921929Y15938079D01*
X39116298Y16235645D02*
X39145446Y16296171D01*
X39145446Y16296171D02*
X39160394Y16361665D01*
X39160393Y16428845D02*
X39145446Y16494339D01*
X39145446Y16494339D02*
X39116297Y16554865D01*
X39074413Y16607387D02*
X35525000Y20156800D01*
X35525000Y20156800D02*
X35525000Y26262560D01*
X35525000Y26262560D02*
X35540356Y26398841D01*
X35540356Y26398841D02*
X35585651Y26528288D01*
X35585651Y26528288D02*
X35658616Y26644410D01*
X33769806Y28011777D02*
X33755014Y27969505D01*
X33863223Y28105194D02*
X33825302Y28081367D01*
X33905495Y28119986D02*
X33863223Y28105194D01*
X37853288Y28185651D02*
X37723841Y28140356D01*
X36050303Y26381367D02*
X36018634Y26349698D01*
X37969410Y28258616D02*
X37853288Y28185651D01*
X38066385Y28355591D02*
X37969410Y28258616D01*
X33825302Y27768634D02*
X33863223Y27744807D01*
X38139350Y28471713D02*
X38066385Y28355591D01*
X37969410Y26558616D02*
X37853288Y26485651D01*
X38184645Y28601160D02*
X38139350Y28471713D01*
X37587560Y28125000D02*
X33950000Y28125000D01*
X38200000Y28737441D02*
X38184645Y28601160D01*
X35975000Y20343200D02*
X42070000Y14248200D01*
X38200000Y28812560D02*
X38200000Y28737441D01*
X38200000Y27037441D02*
X38184645Y26901160D01*
X38184645Y28948841D02*
X38200000Y28812560D01*
X38139350Y29078288D02*
X38184645Y28948841D01*
X38066385Y29194410D02*
X38139350Y29078288D01*
X37969410Y29291385D02*
X38066385Y29194410D01*
X33825302Y28081367D02*
X33793633Y28049698D01*
X33769806Y29538224D02*
X33793633Y29500303D01*
X37853288Y29364350D02*
X37969410Y29291385D01*
X37587560Y27725000D02*
X37723841Y27709645D01*
X37723841Y29409645D02*
X37853288Y29364350D01*
X37587560Y29425000D02*
X37723841Y29409645D01*
X38066385Y26655591D02*
X37969410Y26558616D01*
X33950000Y29425000D02*
X37587560Y29425000D01*
X35362559Y29825000D02*
X33950000Y29825000D01*
X33905495Y29430015D02*
X33950000Y29425000D01*
X35980015Y26269505D02*
X35975000Y26225000D01*
X35498840Y29840356D02*
X35362559Y29825000D01*
X35975000Y30475000D02*
X35975000Y30437441D01*
X37587560Y26425000D02*
X36175000Y26425000D01*
X35744409Y29958616D02*
X35628287Y29885651D01*
X35959644Y30301160D02*
X35914349Y30171713D01*
X35841384Y30055591D02*
X35744409Y29958616D01*
X33863223Y29805194D02*
X33825302Y29781367D01*
X33905495Y27730015D02*
X33950000Y27725000D01*
X41000000Y35500000D02*
X35975000Y30475000D01*
X33950000Y29825000D02*
X33905495Y29819986D01*
X35994807Y26311777D02*
X35980015Y26269505D01*
X35628287Y29885651D02*
X35498840Y29840356D01*
X33769806Y27838224D02*
X33793633Y27800303D01*
X35975000Y30437441D02*
X35959644Y30301160D01*
X35914349Y30171713D02*
X35841384Y30055591D01*
X36088224Y26405194D02*
X36050303Y26381367D01*
X33793633Y28049698D02*
X33769806Y28011777D01*
X33793633Y29749698D02*
X33769806Y29711777D01*
X33750000Y29625000D02*
X33755014Y29580496D01*
X37723841Y26440356D02*
X37587560Y26425000D01*
X33905495Y29819986D02*
X33863223Y29805194D01*
X33793633Y29500303D02*
X33825302Y29468634D01*
X33950000Y28125000D02*
X33905495Y28119986D01*
X33825302Y29781367D02*
X33793633Y29749698D01*
X38184645Y26901160D02*
X38139350Y26771713D01*
X33769806Y29711777D02*
X33755014Y29669505D01*
X33755014Y29669505D02*
X33750000Y29625000D01*
X33755014Y29580496D02*
X33769806Y29538224D01*
X33825302Y29468634D02*
X33863223Y29444807D01*
X37723841Y28140356D02*
X37587560Y28125000D01*
X33863223Y29444807D02*
X33905495Y29430015D01*
X33755014Y27969505D02*
X33750000Y27925000D01*
X33750000Y27925000D02*
X33755014Y27880496D01*
X33755014Y27880496D02*
X33769806Y27838224D01*
X33793633Y27800303D02*
X33825302Y27768634D01*
X33863223Y27744807D02*
X33905495Y27730015D01*
X33950000Y27725000D02*
X37587560Y27725000D01*
X37723841Y27709645D02*
X37853288Y27664350D01*
X37853288Y27664350D02*
X37969410Y27591385D01*
X37969410Y27591385D02*
X38066385Y27494410D01*
X38066385Y27494410D02*
X38139350Y27378288D01*
X38139350Y27378288D02*
X38184645Y27248841D01*
X38184645Y27248841D02*
X38200000Y27112560D01*
X38200000Y27112560D02*
X38200000Y27037441D01*
X38139350Y26771713D02*
X38066385Y26655591D01*
X37853288Y26485651D02*
X37723841Y26440356D01*
X36175000Y26425000D02*
X36130496Y26419986D01*
X36130496Y26419986D02*
X36088224Y26405194D01*
X36018634Y26349698D02*
X35994807Y26311777D01*
X35975000Y26225000D02*
X35975000Y20343200D01*
X42070000Y14248200D02*
X42070000Y6440000D01*
X37473437Y15458364D02*
X37440594Y15458364D01*
X37723437Y15458364D02*
X37473437Y15458364D01*
X38242371Y14939430D02*
X37723437Y15458364D01*
X38284256Y14886908D02*
X38242371Y14939430D01*
X38313404Y14826382D02*
X38284256Y14886908D01*
X38328353Y14760887D02*
X38313404Y14826382D01*
X38328353Y14693709D02*
X38328353Y14760887D01*
X38313404Y14628214D02*
X38328353Y14693709D01*
X38284256Y14567688D02*
X38313404Y14628214D01*
X38242370Y14515167D02*
X38284256Y14567688D01*
X38092216Y14365010D02*
X38242370Y14515167D01*
X38050329Y14312488D02*
X38092216Y14365010D01*
X38021183Y14251961D02*
X38050329Y14312488D01*
X38006233Y14186468D02*
X38021183Y14251961D01*
X38006234Y14119288D02*
X38006233Y14186468D01*
X38021182Y14053795D02*
X38006234Y14119288D01*
X36503792Y11471211D02*
X36600767Y11568186D01*
X36430827Y11355089D02*
X36503792Y11471211D01*
X36385532Y11225642D02*
X36430827Y11355089D01*
X36370177Y11089361D02*
X36385532Y11225642D01*
X36370177Y11014242D02*
X36370177Y11089361D01*
X36385532Y10877961D02*
X36370177Y11014242D01*
X36982617Y13401801D02*
X39380000Y13401801D01*
X36846336Y11686446D02*
X36982617Y11701801D01*
X36430827Y10748514D02*
X36385532Y10877961D01*
X40626600Y11721608D02*
X40664521Y11745435D01*
X36503792Y10632392D02*
X36430827Y10748514D01*
X36600767Y10535417D02*
X36503792Y10632392D01*
X36503792Y13171211D02*
X36600767Y13268186D01*
X36716889Y10462452D02*
X36600767Y10535417D01*
X40584328Y12096787D02*
X40539823Y12101801D01*
X36846336Y10417157D02*
X36716889Y10462452D01*
X36846336Y12117157D02*
X36716889Y12162452D01*
X36982617Y10401801D02*
X36846336Y10417157D01*
X40584328Y10396787D02*
X40539823Y10401801D01*
X39038378Y14132786D02*
X38977851Y14161934D01*
X36716889Y11641151D02*
X36846336Y11686446D01*
X40192441Y10001801D02*
X40539823Y10001801D01*
X40539823Y11701801D02*
X40584328Y11706816D01*
X40720017Y10288578D02*
X40696190Y10326499D01*
X39580000Y13601801D02*
X39090900Y14090901D01*
X39713616Y9771211D02*
X39810591Y9868186D01*
X36600767Y13268186D02*
X36716889Y13341151D01*
X36982617Y11701801D02*
X40539823Y11701801D01*
X40056160Y9986446D02*
X40192441Y10001801D01*
X40664521Y10045435D02*
X40696190Y10077104D01*
X36503792Y12332392D02*
X36430827Y12448514D01*
X39926713Y9941151D02*
X40056160Y9986446D01*
X38144738Y13898860D02*
X38092215Y13940746D01*
X39810591Y9868186D02*
X39926713Y9941151D01*
X39010000Y8220000D02*
X39580000Y8790000D01*
X40626600Y10381995D02*
X40584328Y10396787D01*
X38050330Y13993268D02*
X38021182Y14053795D01*
X40696190Y10326499D02*
X40664521Y10358168D01*
X40696190Y11777104D02*
X40720017Y11815025D01*
X40539823Y10001801D02*
X40584328Y10006816D01*
X40539823Y12101801D02*
X36982617Y12101801D01*
X39580000Y8790000D02*
X39580000Y9389361D01*
X40734809Y10246306D02*
X40720017Y10288578D01*
X39424504Y13406816D02*
X39466776Y13421608D01*
X39580000Y9389361D02*
X39595356Y9525642D01*
X39595356Y9525642D02*
X39640651Y9655089D01*
X38337937Y13854763D02*
X38270759Y13854763D01*
X40664521Y11745435D02*
X40696190Y11777104D01*
X39640651Y9655089D02*
X39713616Y9771211D01*
X40539823Y10401801D02*
X36982617Y10401801D01*
X40584328Y10006816D02*
X40626600Y10021608D01*
X39504697Y13445435D02*
X39536366Y13477104D01*
X40720017Y10115025D02*
X40734809Y10157297D01*
X40626600Y10021608D02*
X40664521Y10045435D01*
X38779685Y14161933D02*
X38719158Y14132787D01*
X36600767Y11568186D02*
X36716889Y11641151D01*
X40696190Y10077104D02*
X40720017Y10115025D01*
X36716889Y13341151D02*
X36846336Y13386446D01*
X40584328Y11706816D02*
X40626600Y11721608D01*
X40734809Y10157297D02*
X40739823Y10201801D01*
X40720017Y11815025D02*
X40734809Y11857297D01*
X40739823Y10201801D02*
X40734809Y10246306D01*
X40664521Y10358168D02*
X40626600Y10381995D01*
X40734809Y11857297D02*
X40739823Y11901801D01*
X40739823Y11901801D02*
X40734809Y11946306D01*
X40734809Y11946306D02*
X40720017Y11988578D01*
X40720017Y11988578D02*
X40696190Y12026499D01*
X40696190Y12026499D02*
X40664521Y12058168D01*
X40664521Y12058168D02*
X40626600Y12081995D01*
X40626600Y12081995D02*
X40584328Y12096787D01*
X36982617Y12101801D02*
X36846336Y12117157D01*
X36716889Y12162452D02*
X36600767Y12235417D01*
X36600767Y12235417D02*
X36503792Y12332392D01*
X36430827Y12448514D02*
X36385532Y12577961D01*
X36385532Y12577961D02*
X36370177Y12714242D01*
X36370177Y12714242D02*
X36370177Y12789361D01*
X36370177Y12789361D02*
X36385532Y12925642D01*
X36385532Y12925642D02*
X36430827Y13055089D01*
X36430827Y13055089D02*
X36503792Y13171211D01*
X36846336Y13386446D02*
X36982617Y13401801D01*
X39380000Y13401801D02*
X39424504Y13406816D01*
X39466776Y13421608D02*
X39504697Y13445435D01*
X39536366Y13477104D02*
X39560193Y13515025D01*
X39560193Y13515025D02*
X39574985Y13557297D01*
X39574985Y13557297D02*
X39580000Y13601801D01*
X39090900Y14090901D02*
X39038378Y14132786D01*
X38977851Y14161934D02*
X38912358Y14176882D01*
X38912358Y14176882D02*
X38845178Y14176883D01*
X38845178Y14176883D02*
X38779685Y14161933D01*
X38719158Y14132787D02*
X38666636Y14090900D01*
X38666636Y14090900D02*
X38516479Y13940746D01*
X38516479Y13940746D02*
X38463958Y13898860D01*
X38463958Y13898860D02*
X38403432Y13869712D01*
X38403432Y13869712D02*
X38337937Y13854763D01*
X38270759Y13854763D02*
X38205264Y13869712D01*
X38205264Y13869712D02*
X38144738Y13898860D01*
X38092215Y13940746D02*
X38050330Y13993268D01*
X21034984Y19497296D02*
X21039999Y19541800D01*
X20996365Y19417103D02*
X21020192Y19455024D01*
X19383722Y19326445D02*
X19520003Y19341800D01*
X19254274Y19281150D02*
X19383722Y19326445D01*
X19138151Y19208185D02*
X19254274Y19281150D01*
X19041176Y19111210D02*
X19138151Y19208185D01*
X20750000Y19831800D02*
X20750000Y24100000D01*
X18922916Y18865639D02*
X18968211Y18995087D01*
X18907561Y18729358D02*
X18922916Y18865639D01*
X18907561Y18654239D02*
X18907561Y18729358D01*
X18922916Y18517958D02*
X18907561Y18654239D01*
X18968211Y18388510D02*
X18922916Y18517958D01*
X19041176Y18272387D02*
X18968211Y18388510D01*
X20839999Y19341800D02*
X20884503Y19346815D01*
X19138151Y18175412D02*
X19041176Y18272387D01*
X19254274Y18102447D02*
X19138151Y18175412D01*
X19383722Y18057152D02*
X19254274Y18102447D01*
X19520003Y18041796D02*
X19383722Y18057152D01*
X22972437Y18041796D02*
X19520003Y18041796D01*
X20926775Y19361607D02*
X20964696Y19385434D01*
X23016942Y18036782D02*
X22972437Y18041796D01*
X23059214Y18021990D02*
X23016942Y18036782D01*
X23097135Y17998163D02*
X23059214Y18021990D01*
X23128804Y17966494D02*
X23097135Y17998163D01*
X23152631Y17928573D02*
X23128804Y17966494D01*
X18968211Y18995087D02*
X19041176Y19111210D01*
X23167423Y17886301D02*
X23152631Y17928573D01*
X23172437Y17841796D02*
X23167423Y17886301D01*
X23167423Y17797292D02*
X23172437Y17841796D01*
X23152631Y17755020D02*
X23167423Y17797292D01*
X23128804Y17717099D02*
X23152631Y17755020D01*
X23097135Y17685430D02*
X23128804Y17717099D01*
X23059214Y17661603D02*
X23097135Y17685430D01*
X21020192Y19455024D02*
X21034984Y19497296D01*
X23016942Y17646811D02*
X23059214Y17661603D01*
X22972437Y17641796D02*
X23016942Y17646811D01*
X19520003Y17641796D02*
X22972437Y17641796D01*
X21039999Y19541800D02*
X20750000Y19831800D01*
X19383722Y17626441D02*
X19520003Y17641796D01*
X19254274Y17581146D02*
X19383722Y17626441D01*
X19138151Y17508181D02*
X19254274Y17581146D01*
X19041176Y17411206D02*
X19138151Y17508181D01*
X18968211Y17295083D02*
X19041176Y17411206D01*
X20964696Y19385434D02*
X20996365Y19417103D01*
X18922916Y17165635D02*
X18968211Y17295083D01*
X18907561Y17029354D02*
X18922916Y17165635D01*
X18907561Y16954235D02*
X18907561Y17029354D01*
X18922916Y16817954D02*
X18907561Y16954235D01*
X18968211Y16688506D02*
X18922916Y16817954D01*
X19041176Y16572383D02*
X18968211Y16688506D01*
X19138151Y16475408D02*
X19041176Y16572383D01*
X19254274Y16402443D02*
X19138151Y16475408D01*
X19383722Y16357148D02*
X19254274Y16402443D01*
X19520003Y16341792D02*
X19383722Y16357148D01*
X22972437Y16341792D02*
X19520003Y16341792D01*
X23016942Y16336778D02*
X22972437Y16341792D01*
X23059214Y16321986D02*
X23016942Y16336778D01*
X23097135Y16298159D02*
X23059214Y16321986D01*
X23128804Y16266490D02*
X23097135Y16298159D01*
X23152631Y16228569D02*
X23128804Y16266490D01*
X23167423Y16186297D02*
X23152631Y16228569D01*
X23172437Y16141792D02*
X23167423Y16186297D01*
X23167423Y16097288D02*
X23172437Y16141792D01*
X23152631Y16055016D02*
X23167423Y16097288D01*
X23128804Y16017095D02*
X23152631Y16055016D01*
X23097135Y15985426D02*
X23128804Y16017095D01*
X23059214Y15961599D02*
X23097135Y15985426D01*
X23016942Y15946807D02*
X23059214Y15961599D01*
X22972437Y15941792D02*
X23016942Y15946807D01*
X19520003Y15941792D02*
X22972437Y15941792D01*
X19383722Y15926437D02*
X19520003Y15941792D01*
X19254274Y15881142D02*
X19383722Y15926437D01*
X19138151Y15808177D02*
X19254274Y15881142D01*
X19041176Y15711202D02*
X19138151Y15808177D01*
X18968211Y15595079D02*
X19041176Y15711202D01*
X18922916Y15465631D02*
X18968211Y15595079D01*
X23097135Y12585418D02*
X23128804Y12617087D01*
X19520003Y12941784D02*
X19383722Y12957140D01*
X23016942Y12546799D02*
X23059214Y12561591D01*
X22972437Y12541784D02*
X23016942Y12546799D01*
X21270590Y12408169D02*
X21386713Y12481134D01*
X19520003Y14641788D02*
X19383722Y14657144D01*
X21173615Y12311194D02*
X21270590Y12408169D01*
X21516161Y12526429D02*
X21652442Y12541784D01*
X21040001Y9990000D02*
X21039999Y10954934D01*
X23016942Y14636774D02*
X22972437Y14641788D01*
X21652442Y12541784D02*
X22972437Y12541784D01*
X21032482Y9923244D02*
X21040004Y9990002D01*
X21010294Y9859835D02*
X21032482Y9923244D01*
X21040004Y9990002D02*
X21040001Y9990000D01*
X20974553Y9802953D02*
X21010294Y9859835D01*
X18907561Y13629346D02*
X18922916Y13765627D01*
X20927050Y9755450D02*
X20974553Y9802953D01*
X19520003Y19341800D02*
X20839999Y19341800D01*
X20870169Y9719709D02*
X20927050Y9755450D01*
X23167423Y14486293D02*
X23152631Y14528565D01*
X21039999Y10954934D02*
X21039999Y11929342D01*
X20806760Y9697522D02*
X20870169Y9719709D01*
X19041176Y13172375D02*
X18968211Y13288498D01*
X20740003Y9690000D02*
X20806760Y9697522D01*
X19676872Y9690000D02*
X20740003Y9690000D01*
X20884503Y19346815D02*
X20926775Y19361607D01*
X21055355Y12065623D02*
X21100650Y12195071D01*
X23167423Y14397284D02*
X23172437Y14441788D01*
X20740001Y9089999D02*
X19676871Y9090000D01*
X20974550Y8977045D02*
X20927048Y9024548D01*
X23172437Y14441788D02*
X23167423Y14486293D01*
X20806757Y9082477D02*
X20740001Y9089999D01*
X21010291Y8920164D02*
X20974550Y8977045D01*
X23152631Y14528565D02*
X23128804Y14566486D01*
X21040000Y8790000D02*
X21032479Y8856755D01*
X23059214Y12561591D02*
X23097135Y12585418D01*
X19610114Y9097522D02*
X19546705Y9119709D01*
X21032479Y8856755D02*
X21010291Y8920164D01*
X20927048Y9024548D02*
X20870166Y9060289D01*
X20470000Y8220000D02*
X21040000Y8790000D01*
X23059214Y14261595D02*
X23097135Y14285422D01*
X20870166Y9060289D02*
X20806757Y9082477D01*
X21100650Y12195071D02*
X21173615Y12311194D01*
X19138151Y14775404D02*
X19041176Y14872379D01*
X19384393Y9456757D02*
X19406581Y9520166D01*
X19676871Y9090000D02*
X19610114Y9097522D01*
X18922916Y13417946D02*
X18907561Y13554227D01*
X19376871Y9390000D02*
X19384393Y9456757D01*
X19546705Y9119709D02*
X19489824Y9155451D01*
X19489824Y9155451D02*
X19442321Y9202953D01*
X21386713Y12481134D02*
X21516161Y12526429D01*
X19383722Y14226433D02*
X19520003Y14241788D01*
X19406581Y9520166D02*
X19442322Y9577047D01*
X19442321Y9202953D02*
X19406580Y9259835D01*
X18922916Y15117950D02*
X18907561Y15254231D01*
X19406580Y9259835D02*
X19384392Y9323244D01*
X19384392Y9323244D02*
X19376871Y9390000D01*
X21039999Y11929342D02*
X21055355Y12065623D01*
X19442322Y9577047D02*
X19489825Y9624550D01*
X19489825Y9624550D02*
X19546707Y9660291D01*
X23128804Y12617087D02*
X23152631Y12655008D01*
X19138151Y13075400D02*
X19041176Y13172375D01*
X19546707Y9660291D02*
X19610115Y9682479D01*
X19610115Y9682479D02*
X19676872Y9690000D01*
X23152631Y12655008D02*
X23167423Y12697280D01*
X23167423Y12697280D02*
X23172437Y12741784D01*
X23172437Y12741784D02*
X23167423Y12786289D01*
X23167423Y12786289D02*
X23152631Y12828561D01*
X22972437Y14241788D02*
X23016942Y14246803D01*
X23152631Y12828561D02*
X23128804Y12866482D01*
X23128804Y14317091D02*
X23152631Y14355012D01*
X23128804Y12866482D02*
X23097135Y12898151D01*
X18968211Y13288498D02*
X18922916Y13417946D01*
X23097135Y12898151D02*
X23059214Y12921978D01*
X18907561Y15329350D02*
X18922916Y15465631D01*
X23059214Y12921978D02*
X23016942Y12936770D01*
X23016942Y12936770D02*
X22972437Y12941784D01*
X22972437Y12941784D02*
X19520003Y12941784D01*
X19383722Y12957140D02*
X19254274Y13002435D01*
X19254274Y13002435D02*
X19138151Y13075400D01*
X18907561Y13554227D02*
X18907561Y13629346D01*
X18922916Y13765627D02*
X18968211Y13895075D01*
X18968211Y13895075D02*
X19041176Y14011198D01*
X19041176Y14011198D02*
X19138151Y14108173D01*
X19138151Y14108173D02*
X19254274Y14181138D01*
X19254274Y14181138D02*
X19383722Y14226433D01*
X19520003Y14241788D02*
X22972437Y14241788D01*
X23016942Y14246803D02*
X23059214Y14261595D01*
X23097135Y14285422D02*
X23128804Y14317091D01*
X23152631Y14355012D02*
X23167423Y14397284D01*
X23128804Y14566486D02*
X23097135Y14598155D01*
X23097135Y14598155D02*
X23059214Y14621982D01*
X23059214Y14621982D02*
X23016942Y14636774D01*
X22972437Y14641788D02*
X19520003Y14641788D01*
X19383722Y14657144D02*
X19254274Y14702439D01*
X19254274Y14702439D02*
X19138151Y14775404D01*
X19041176Y14872379D02*
X18968211Y14988502D01*
X18968211Y14988502D02*
X18922916Y15117950D01*
X18907561Y15254231D02*
X18907561Y15329350D01*
X24714871Y8384871D02*
X24550000Y8220000D01*
X25120000Y8790000D02*
X24714871Y8384871D01*
X25120000Y10361800D02*
X25120000Y8790000D01*
X25112478Y10428557D02*
X25120000Y10361800D01*
X25090290Y10491966D02*
X25112478Y10428557D01*
X25054549Y10548847D02*
X25090290Y10491966D01*
X25007046Y10596350D02*
X25054549Y10548847D01*
X24950165Y10632091D02*
X25007046Y10596350D01*
X24886756Y10654279D02*
X24950165Y10632091D01*
X24820000Y10661800D02*
X24886756Y10654279D01*
X24420000Y10661800D02*
X24820000Y10661800D01*
X24353243Y10669322D02*
X24420000Y10661800D01*
X27775000Y26906800D02*
X27775000Y24275000D01*
X25906800Y28775000D02*
X27775000Y26906800D01*
X16406800Y28775000D02*
X25906800Y28775000D01*
X13525000Y31656800D02*
X16406800Y28775000D01*
X13525000Y32705000D02*
X13525000Y31656800D01*
X12000000Y35500000D02*
X12000000Y34230000D01*
X24820000Y11261800D02*
X24420000Y11261800D01*
X24289834Y11232091D02*
X24232953Y11196350D01*
X24127521Y10895044D02*
X24149709Y10831635D01*
X24127521Y11028557D02*
X24120000Y10961800D01*
X24232953Y11196350D02*
X24185450Y11148847D01*
X24120000Y10961800D02*
X24127521Y10895044D01*
X12000000Y34230000D02*
X13525000Y32705000D01*
X24149709Y10831635D02*
X24185450Y10774754D01*
X24232953Y10727251D02*
X24289834Y10691510D01*
X24289834Y10691510D02*
X24353243Y10669322D01*
X24420000Y11261800D02*
X24353243Y11254279D01*
X24185450Y10774754D02*
X24232953Y10727251D01*
X24185450Y11148847D02*
X24149709Y11091966D01*
X27775000Y24275000D02*
X27769985Y24230496D01*
X27769985Y24230496D02*
X27755193Y24188224D01*
X27755193Y24188224D02*
X27731366Y24150303D01*
X27731366Y24150303D02*
X27699697Y24118634D01*
X27699697Y24118634D02*
X27661776Y24094807D01*
X27661776Y24094807D02*
X27619504Y24080015D01*
X27619504Y24080015D02*
X27575000Y24075000D01*
X27575000Y24075000D02*
X27235916Y24075000D01*
X27235916Y24075000D02*
X27099635Y24059645D01*
X27099635Y24059645D02*
X26970188Y24014350D01*
X26970188Y24014350D02*
X26854066Y23941385D01*
X26854066Y23941385D02*
X26757091Y23844410D01*
X26757091Y23844410D02*
X26684126Y23728288D01*
X26684126Y23728288D02*
X26638831Y23598841D01*
X26638831Y23598841D02*
X26623476Y23462560D01*
X26623476Y23462560D02*
X26623476Y23387441D01*
X26623476Y23387441D02*
X26638831Y23251160D01*
X26638831Y23251160D02*
X26684126Y23121713D01*
X26684126Y23121713D02*
X26757091Y23005591D01*
X26757091Y23005591D02*
X26854066Y22908616D01*
X26854066Y22908616D02*
X26970188Y22835651D01*
X26970188Y22835651D02*
X27099635Y22790356D01*
X27099635Y22790356D02*
X27235916Y22775000D01*
X27235916Y22775000D02*
X28726524Y22775000D01*
X28726524Y22775000D02*
X28771029Y22769986D01*
X28771029Y22769986D02*
X28813301Y22755194D01*
X28813301Y22755194D02*
X28851222Y22731367D01*
X28851222Y22731367D02*
X28882891Y22699698D01*
X28882891Y22699698D02*
X28906718Y22661777D01*
X28906718Y22661777D02*
X28921510Y22619505D01*
X28921510Y22619505D02*
X28926524Y22575000D01*
X28926524Y22575000D02*
X28921510Y22530496D01*
X28921510Y22530496D02*
X28906718Y22488224D01*
X28906718Y22488224D02*
X28882891Y22450303D01*
X28882891Y22450303D02*
X28851222Y22418634D01*
X28851222Y22418634D02*
X28813301Y22394807D01*
X28813301Y22394807D02*
X28771029Y22380015D01*
X28771029Y22380015D02*
X28726524Y22375000D01*
X28726524Y22375000D02*
X27235916Y22375000D01*
X27235916Y22375000D02*
X27099635Y22359645D01*
X27099635Y22359645D02*
X26970188Y22314350D01*
X26970188Y22314350D02*
X26854066Y22241385D01*
X26854066Y22241385D02*
X26757091Y22144410D01*
X26757091Y22144410D02*
X26684126Y22028288D01*
X26684126Y22028288D02*
X26638831Y21898841D01*
X26638831Y21898841D02*
X26623476Y21762560D01*
X26623476Y21762560D02*
X26623476Y21687441D01*
X26623476Y21687441D02*
X26638831Y21551160D01*
X26638831Y21551160D02*
X26684126Y21421713D01*
X26684126Y21421713D02*
X26757091Y21305591D01*
X26757091Y21305591D02*
X26854066Y21208616D01*
X26854066Y21208616D02*
X26970188Y21135651D01*
X26970188Y21135651D02*
X27099635Y21090356D01*
X27099635Y21090356D02*
X27235916Y21075000D01*
X27235916Y21075000D02*
X28726524Y21075000D01*
X28726524Y21075000D02*
X28771029Y21069986D01*
X28771029Y21069986D02*
X28813301Y21055194D01*
X28813301Y21055194D02*
X28851222Y21031367D01*
X28851222Y21031367D02*
X28882891Y20999698D01*
X28882891Y20999698D02*
X28906718Y20961777D01*
X28906718Y20961777D02*
X28921510Y20919505D01*
X28921510Y20919505D02*
X28926524Y20875000D01*
X28926524Y20875000D02*
X28921510Y20830496D01*
X28921510Y20830496D02*
X28906718Y20788224D01*
X28906718Y20788224D02*
X28882891Y20750303D01*
X28882891Y20750303D02*
X28851222Y20718634D01*
X28851222Y20718634D02*
X28813301Y20694807D01*
X28813301Y20694807D02*
X28771029Y20680015D01*
X28771029Y20680015D02*
X28726524Y20675000D01*
X28726524Y20675000D02*
X28387441Y20675000D01*
X28387441Y20675000D02*
X28251160Y20659645D01*
X28251160Y20659645D02*
X28121713Y20614350D01*
X28121713Y20614350D02*
X28005591Y20541385D01*
X28005591Y20541385D02*
X27908616Y20444410D01*
X27908616Y20444410D02*
X27835651Y20328288D01*
X27835651Y20328288D02*
X27790356Y20198841D01*
X27790356Y20198841D02*
X27775000Y20062560D01*
X27775000Y20062560D02*
X27775000Y17593200D01*
X27775000Y17593200D02*
X24775000Y14593200D01*
X24775000Y14593200D02*
X24775000Y11906800D01*
X24775000Y11906800D02*
X25120000Y11561800D01*
X25120000Y11561800D02*
X25112478Y11495044D01*
X25112478Y11495044D02*
X25090290Y11431635D01*
X25090290Y11431635D02*
X25054549Y11374754D01*
X25054549Y11374754D02*
X25007046Y11327251D01*
X25007046Y11327251D02*
X24950165Y11291510D01*
X24950165Y11291510D02*
X24886756Y11269322D01*
X24886756Y11269322D02*
X24820000Y11261800D01*
X24353243Y11254279D02*
X24289834Y11232091D01*
X24149709Y11091966D02*
X24127521Y11028557D01*
X25570000Y11748200D02*
X25570000Y8790000D01*
X28225000Y17406800D02*
X25225000Y14406800D01*
X28230015Y20069505D02*
X28225000Y20025000D01*
X28764084Y20225000D02*
X28425000Y20225000D01*
X29029812Y20285651D02*
X28900365Y20240356D01*
X29145934Y20358616D02*
X29029812Y20285651D01*
X29315874Y20571713D02*
X29242909Y20455591D01*
X29376524Y20837441D02*
X29361169Y20701160D01*
X29315874Y21178288D02*
X29361169Y21048841D01*
X29029812Y21464350D02*
X29145934Y21391385D01*
X28764084Y21525000D02*
X28900365Y21509645D01*
X27228971Y21530015D02*
X27273476Y21525000D01*
X27186699Y21544807D02*
X27228971Y21530015D01*
X27148778Y21568634D02*
X27186699Y21544807D01*
X27093282Y21638224D02*
X27117109Y21600303D01*
X27078490Y21680496D02*
X27093282Y21638224D01*
X27073476Y21725000D02*
X27078490Y21680496D01*
X27078490Y21769505D02*
X27073476Y21725000D01*
X29242909Y21294410D02*
X29315874Y21178288D01*
X27093282Y21811777D02*
X27078490Y21769505D01*
X29145934Y21391385D02*
X29242909Y21294410D01*
X27117109Y21849698D02*
X27093282Y21811777D01*
X28338224Y20205194D02*
X28300303Y20181367D01*
X27148778Y21881367D02*
X27117109Y21849698D01*
X28900365Y21509645D02*
X29029812Y21464350D01*
X27186699Y21905194D02*
X27148778Y21881367D01*
X27228971Y21919986D02*
X27186699Y21905194D01*
X27078490Y23469505D02*
X27073476Y23425000D01*
X28268634Y20149698D02*
X28244807Y20111777D01*
X29145934Y23091385D02*
X29242909Y22994410D01*
X27093282Y23511777D02*
X27078490Y23469505D01*
X25225000Y12093200D02*
X25570000Y11748200D01*
X27148778Y23268634D02*
X27186699Y23244807D01*
X28900365Y20240356D02*
X28764084Y20225000D01*
X27148778Y23581367D02*
X27117109Y23549698D01*
X29361169Y22401160D02*
X29315874Y22271713D01*
X28380496Y20219986D02*
X28338224Y20205194D01*
X27186699Y23605194D02*
X27148778Y23581367D01*
X27117109Y23549698D02*
X27093282Y23511777D01*
X27228971Y23619986D02*
X27186699Y23605194D01*
X29242909Y20455591D02*
X29145934Y20358616D01*
X28225000Y24237441D02*
X28209644Y24101160D01*
X27273476Y23625000D02*
X27228971Y23619986D01*
X29361169Y21048841D02*
X29376524Y20912560D01*
X13975000Y31843200D02*
X16593200Y29225000D01*
X27612559Y23625000D02*
X27273476Y23625000D01*
X29361169Y20701160D02*
X29315874Y20571713D01*
X28900365Y23209645D02*
X29029812Y23164350D01*
X27878287Y23685651D02*
X27748840Y23640356D01*
X27994409Y23758616D02*
X27878287Y23685651D01*
X28225000Y27093200D02*
X28225000Y24237441D01*
X29361169Y22748841D02*
X29376524Y22612560D01*
X27748840Y23640356D02*
X27612559Y23625000D01*
X28244807Y20111777D02*
X28230015Y20069505D01*
X29315874Y22271713D02*
X29242909Y22155591D01*
X28164349Y23971713D02*
X28091384Y23855591D01*
X13975000Y32705000D02*
X13975000Y31843200D01*
X27117109Y21600303D02*
X27148778Y21568634D01*
X29315874Y22878288D02*
X29361169Y22748841D01*
X15500000Y35500000D02*
X15500000Y34230000D01*
X29376524Y20912560D02*
X29376524Y20837441D01*
X15500000Y34230000D02*
X13975000Y32705000D01*
X28764084Y23225000D02*
X28900365Y23209645D01*
X27073476Y23425000D02*
X27078490Y23380496D01*
X26093200Y29225000D02*
X28225000Y27093200D01*
X28300303Y20181367D02*
X28268634Y20149698D01*
X28209644Y24101160D02*
X28164349Y23971713D01*
X16593200Y29225000D02*
X26093200Y29225000D01*
X25570000Y8790000D02*
X25570000Y6440000D01*
X28091384Y23855591D02*
X27994409Y23758616D01*
X27078490Y23380496D02*
X27093282Y23338224D01*
X27093282Y23338224D02*
X27117109Y23300303D01*
X28425000Y20225000D02*
X28380496Y20219986D01*
X29145934Y22058616D02*
X29029812Y21985651D01*
X27117109Y23300303D02*
X27148778Y23268634D01*
X29029812Y23164350D02*
X29145934Y23091385D01*
X27186699Y23244807D02*
X27228971Y23230015D01*
X27228971Y23230015D02*
X27273476Y23225000D01*
X27273476Y23225000D02*
X28764084Y23225000D01*
X29242909Y22994410D02*
X29315874Y22878288D01*
X28225000Y20025000D02*
X28225000Y17406800D01*
X29376524Y22612560D02*
X29376524Y22537441D01*
X29376524Y22537441D02*
X29361169Y22401160D01*
X29242909Y22155591D02*
X29145934Y22058616D01*
X25225000Y14406800D02*
X25225000Y12093200D01*
X29029812Y21985651D02*
X28900365Y21940356D01*
X28900365Y21940356D02*
X28764084Y21925000D01*
X27273476Y21525000D02*
X28764084Y21525000D01*
X28764084Y21925000D02*
X27273476Y21925000D01*
X27273476Y21925000D02*
X27228971Y21919986D01*
X23622439Y14479348D02*
X23622439Y14404229D01*
X23488824Y14861200D02*
X23561789Y14745077D01*
X23275726Y15031140D02*
X23391849Y14958175D01*
X23146278Y15076435D02*
X23275726Y15031140D01*
X23009997Y15091790D02*
X23146278Y15076435D01*
X19432865Y15135424D02*
X19470786Y15111597D01*
X19362577Y15247286D02*
X19377369Y15205014D01*
X19362577Y15336295D02*
X19357563Y15291790D01*
X19401196Y15416488D02*
X19377369Y15378567D01*
X19432865Y15448157D02*
X19401196Y15416488D01*
X19513058Y15486776D02*
X19470786Y15471984D01*
X23009997Y15491790D02*
X19557563Y15491790D01*
X23146278Y15507146D02*
X23009997Y15491790D01*
X23275726Y15552441D02*
X23146278Y15507146D01*
X23488824Y15722381D02*
X23391849Y15625406D01*
X23561789Y15838504D02*
X23488824Y15722381D01*
X23607084Y15967952D02*
X23561789Y15838504D01*
X23622439Y16179352D02*
X23622439Y16104233D01*
X23488824Y16561204D02*
X23561789Y16445081D01*
X23275726Y16731144D02*
X23391849Y16658179D01*
X23391849Y14958175D02*
X23488824Y14861200D01*
X23009997Y16791794D02*
X23146278Y16776439D01*
X19557563Y16791794D02*
X23009997Y16791794D01*
X19377369Y15378567D02*
X19362577Y15336295D01*
X19513058Y16796809D02*
X19557563Y16791794D01*
X19470786Y16811601D02*
X19513058Y16796809D01*
X19432865Y16835428D02*
X19470786Y16811601D01*
X19401196Y16867097D02*
X19432865Y16835428D01*
X19377369Y16905018D02*
X19401196Y16867097D01*
X19362577Y16947290D02*
X19377369Y16905018D01*
X19357563Y16991794D02*
X19362577Y16947290D01*
X19362577Y17036299D02*
X19357563Y16991794D01*
X19377369Y17078571D02*
X19362577Y17036299D01*
X19357563Y15291790D02*
X19362577Y15247286D01*
X19401196Y17116492D02*
X19377369Y17078571D01*
X19401196Y18567101D02*
X19432865Y18535432D01*
X19557563Y15091790D02*
X23009997Y15091790D01*
X19357563Y18691798D02*
X19362577Y18647294D01*
X19377369Y18778575D02*
X19362577Y18736303D01*
X19377369Y18605022D02*
X19401196Y18567101D01*
X19557563Y15491790D02*
X19513058Y15486776D01*
X19362577Y18736303D02*
X19357563Y18691798D01*
X19377369Y15205014D02*
X19401196Y15167093D01*
X19401196Y18816496D02*
X19377369Y18778575D01*
X23391849Y18358183D02*
X23488824Y18261208D01*
X19362577Y18647294D02*
X19377369Y18605022D01*
X23391849Y15625406D02*
X23275726Y15552441D01*
X19432865Y18848165D02*
X19401196Y18816496D01*
X19470786Y15111597D02*
X19513058Y15096805D01*
X19513058Y18886784D02*
X19470786Y18871992D01*
X19513058Y15096805D02*
X19557563Y15091790D01*
X19557563Y18891798D02*
X19513058Y18886784D01*
X21490001Y19504241D02*
X21474645Y19367960D01*
X19470786Y18871992D02*
X19432865Y18848165D01*
X19470786Y17171988D02*
X19432865Y17148161D01*
X21490000Y19728200D02*
X21490001Y19504241D01*
X24250000Y24100000D02*
X21200000Y21050000D01*
X21200000Y20018200D02*
X21490000Y19728200D01*
X23391849Y16658179D02*
X23488824Y16561204D01*
X21200000Y21050000D02*
X21200000Y20018200D01*
X21013839Y18907154D02*
X20877558Y18891798D01*
X23622439Y16104233D02*
X23607084Y15967952D01*
X23391849Y17325410D02*
X23275726Y17252445D01*
X19401196Y15167093D02*
X19432865Y15135424D01*
X21474645Y19367960D02*
X21429350Y19238512D01*
X23561789Y14745077D02*
X23607084Y14615629D01*
X21429350Y19238512D02*
X21356385Y19122389D01*
X21259410Y19025414D02*
X21143287Y18952449D01*
X20877558Y18891798D02*
X19557563Y18891798D01*
X21356385Y19122389D02*
X21259410Y19025414D01*
X21143287Y18952449D02*
X21013839Y18907154D01*
X23622439Y17879356D02*
X23622439Y17804237D01*
X19432865Y18535432D02*
X19470786Y18511605D01*
X19470786Y18511605D02*
X19513058Y18496813D01*
X19513058Y18496813D02*
X19557563Y18491798D01*
X19557563Y18491798D02*
X23009997Y18491798D01*
X23561789Y16445081D02*
X23607084Y16315633D01*
X23009997Y17191794D02*
X19557563Y17191794D01*
X19470786Y15471984D02*
X19432865Y15448157D01*
X23009997Y18491798D02*
X23146278Y18476443D01*
X23146278Y18476443D02*
X23275726Y18431148D01*
X23275726Y18431148D02*
X23391849Y18358183D01*
X23488824Y18261208D02*
X23561789Y18145085D01*
X23607084Y16315633D02*
X23622439Y16179352D01*
X23561789Y18145085D02*
X23607084Y18015637D01*
X23607084Y18015637D02*
X23622439Y17879356D01*
X23622439Y17804237D02*
X23607084Y17667956D01*
X23607084Y17667956D02*
X23561789Y17538508D01*
X23607084Y14615629D02*
X23622439Y14479348D01*
X23561789Y17538508D02*
X23488824Y17422385D01*
X23146278Y17207150D02*
X23009997Y17191794D01*
X23488824Y17422385D02*
X23391849Y17325410D01*
X23146278Y16776439D02*
X23275726Y16731144D01*
X23275726Y17252445D02*
X23146278Y17207150D01*
X19557563Y17191794D02*
X19513058Y17186780D01*
X19513058Y17186780D02*
X19470786Y17171988D01*
X19432865Y17148161D02*
X19401196Y17116492D01*
X23622439Y14404229D02*
X23607084Y14267948D01*
X23607084Y14267948D02*
X23561789Y14138500D01*
X23561789Y14138500D02*
X23488824Y14022377D01*
X23488824Y14022377D02*
X23391849Y13925402D01*
X23391849Y13925402D02*
X23275726Y13852437D01*
X23275726Y13852437D02*
X23146278Y13807142D01*
X23146278Y13807142D02*
X23009997Y13791786D01*
X23009997Y13791786D02*
X19557563Y13791786D01*
X19557563Y13791786D02*
X19513058Y13786772D01*
X19513058Y13786772D02*
X19470786Y13771980D01*
X19470786Y13771980D02*
X19432865Y13748153D01*
X19432865Y13748153D02*
X19401196Y13716484D01*
X19401196Y13716484D02*
X19377369Y13678563D01*
X19377369Y13678563D02*
X19362577Y13636291D01*
X19362577Y13636291D02*
X19357563Y13591786D01*
X19357563Y13591786D02*
X19362577Y13547282D01*
X19362577Y13547282D02*
X19377369Y13505010D01*
X19377369Y13505010D02*
X19401196Y13467089D01*
X19401196Y13467089D02*
X19432865Y13435420D01*
X19432865Y13435420D02*
X19470786Y13411593D01*
X19470786Y13411593D02*
X19513058Y13396801D01*
X19513058Y13396801D02*
X19557563Y13391786D01*
X19557563Y13391786D02*
X23009997Y13391786D01*
X23009997Y13391786D02*
X23146278Y13376431D01*
X23146278Y13376431D02*
X23275726Y13331136D01*
X23275726Y13331136D02*
X23391849Y13258171D01*
X23391849Y13258171D02*
X23488824Y13161196D01*
X23488824Y13161196D02*
X23561789Y13045073D01*
X23561789Y13045073D02*
X23607084Y12915625D01*
X23607084Y12915625D02*
X23622439Y12779344D01*
X23622439Y12779344D02*
X23622439Y12704225D01*
X23622439Y12704225D02*
X23607084Y12567944D01*
X23607084Y12567944D02*
X23561789Y12438496D01*
X23561789Y12438496D02*
X23488824Y12322373D01*
X23488824Y12322373D02*
X23391849Y12225398D01*
X23391849Y12225398D02*
X23275726Y12152433D01*
X23275726Y12152433D02*
X23146278Y12107138D01*
X23146278Y12107138D02*
X23009997Y12091782D01*
X23009997Y12091782D02*
X21690001Y12091782D01*
X21690001Y12091782D02*
X21645497Y12086768D01*
X21645497Y12086768D02*
X21603225Y12071976D01*
X21603225Y12071976D02*
X21565304Y12048149D01*
X21565304Y12048149D02*
X21533635Y12016480D01*
X21533635Y12016480D02*
X21509808Y11978559D01*
X21509808Y11978559D02*
X21495016Y11936287D01*
X21495016Y11936287D02*
X21490001Y11891782D01*
X21490001Y11891782D02*
X21490000Y10522647D01*
X21490000Y10522647D02*
X21490000Y6440000D01*
D19*
G36*
X59340000Y660000D02*
G01*
X660000Y660000D01*
X660000Y4375000D01*
X9361928Y4375000D01*
X9374188Y4250518D01*
X9410498Y4130820D01*
X9469463Y4020506D01*
X9548815Y3923815D01*
X9645506Y3844463D01*
X9755820Y3785498D01*
X9875518Y3749188D01*
X10000000Y3736928D01*
X10214250Y3740000D01*
X10373000Y3898750D01*
X10373000Y4873000D01*
X9523750Y4873000D01*
X9365000Y4714250D01*
X9361928Y4375000D01*
X660000Y4375000D01*
X660000Y5625000D01*
X9361928Y5625000D01*
X9365000Y5285750D01*
X9523750Y5127000D01*
X10373000Y5127000D01*
X10373000Y6101250D01*
X10627000Y6101250D01*
X10627000Y5127000D01*
X10647000Y5127000D01*
X10647000Y4873000D01*
X10627000Y4873000D01*
X10627000Y3898750D01*
X10785750Y3740000D01*
X11000000Y3736928D01*
X11124482Y3749188D01*
X11244180Y3785498D01*
X11354494Y3844463D01*
X11451185Y3923815D01*
X11530537Y4020506D01*
X11559031Y4073813D01*
X11622038Y3997038D01*
X11756614Y3886595D01*
X11910150Y3804528D01*
X12076746Y3753992D01*
X12250000Y3736928D01*
X12750000Y3736928D01*
X12923254Y3753992D01*
X13089850Y3804528D01*
X13243386Y3886595D01*
X13377962Y3997038D01*
X13465000Y4103095D01*
X13465000Y3684796D01*
X13548969Y3262659D01*
X13713678Y2865015D01*
X13952800Y2507144D01*
X14257144Y2202800D01*
X14615015Y1963678D01*
X15012659Y1798969D01*
X15434796Y1715000D01*
X15865204Y1715000D01*
X16287341Y1798969D01*
X16684985Y1963678D01*
X17042856Y2202800D01*
X17347200Y2507144D01*
X17586322Y2865015D01*
X17751031Y3262659D01*
X17835000Y3684796D01*
X17835000Y4115204D01*
X26165000Y4115204D01*
X26165000Y3684796D01*
X26248969Y3262659D01*
X26413678Y2865015D01*
X26652800Y2507144D01*
X26957144Y2202800D01*
X27315015Y1963678D01*
X27712659Y1798969D01*
X28134796Y1715000D01*
X28565204Y1715000D01*
X28987341Y1798969D01*
X29384985Y1963678D01*
X29742856Y2202800D01*
X30047200Y2507144D01*
X30250000Y2810655D01*
X30452800Y2507144D01*
X30757144Y2202800D01*
X31115015Y1963678D01*
X31512659Y1798969D01*
X31934796Y1715000D01*
X32365204Y1715000D01*
X32787341Y1798969D01*
X33184985Y1963678D01*
X33542856Y2202800D01*
X33847200Y2507144D01*
X34086322Y2865015D01*
X34251031Y3262659D01*
X34335000Y3684796D01*
X34335000Y4115204D01*
X42665000Y4115204D01*
X42665000Y3684796D01*
X42748969Y3262659D01*
X42913678Y2865015D01*
X43152800Y2507144D01*
X43457144Y2202800D01*
X43815015Y1963678D01*
X44212659Y1798969D01*
X44634796Y1715000D01*
X45065204Y1715000D01*
X45487341Y1798969D01*
X45884985Y1963678D01*
X46242856Y2202800D01*
X46547200Y2507144D01*
X46786322Y2865015D01*
X46951031Y3262659D01*
X47035000Y3684796D01*
X47035000Y4115204D01*
X46951031Y4537341D01*
X46786322Y4934985D01*
X46547200Y5292856D01*
X46242856Y5597200D01*
X45884985Y5836322D01*
X45487341Y6001031D01*
X45065204Y6085000D01*
X44634796Y6085000D01*
X44212659Y6001031D01*
X43815015Y5836322D01*
X43457144Y5597200D01*
X43152800Y5292856D01*
X42913678Y4934985D01*
X42748969Y4537341D01*
X42665000Y4115204D01*
X34335000Y4115204D01*
X34251031Y4537341D01*
X34086322Y4934985D01*
X33847200Y5292856D01*
X33542856Y5597200D01*
X33184985Y5836322D01*
X32787341Y6001031D01*
X32365204Y6085000D01*
X31934796Y6085000D01*
X31512659Y6001031D01*
X31115015Y5836322D01*
X30757144Y5597200D01*
X30452800Y5292856D01*
X30250000Y4989345D01*
X30047200Y5292856D01*
X29742856Y5597200D01*
X29384985Y5836322D01*
X28987341Y6001031D01*
X28565204Y6085000D01*
X28134796Y6085000D01*
X27712659Y6001031D01*
X27315015Y5836322D01*
X26957144Y5597200D01*
X26652800Y5292856D01*
X26413678Y4934985D01*
X26248969Y4537341D01*
X26165000Y4115204D01*
X17835000Y4115204D01*
X17751031Y4537341D01*
X17586322Y4934985D01*
X17347200Y5292856D01*
X17042856Y5597200D01*
X16684985Y5836322D01*
X16287341Y6001031D01*
X15865204Y6085000D01*
X15434796Y6085000D01*
X15012659Y6001031D01*
X14615015Y5836322D01*
X14257144Y5597200D01*
X13952800Y5292856D01*
X13713678Y4934985D01*
X13638072Y4752455D01*
X13638072Y5375000D01*
X13621008Y5548254D01*
X13570472Y5714850D01*
X13549653Y5753800D01*
X13593891Y5745000D01*
X13906109Y5745000D01*
X14212327Y5805911D01*
X14500779Y5925391D01*
X14760379Y6098850D01*
X14981150Y6319621D01*
X15154609Y6579221D01*
X15274089Y6867673D01*
X15335000Y7173891D01*
X15335000Y7486109D01*
X15274089Y7792327D01*
X15154609Y8080779D01*
X15112671Y8143545D01*
X17141048Y8143545D01*
X17180730Y7893551D01*
X17268422Y7656104D01*
X17315799Y7567466D01*
X17544473Y7514078D01*
X18250395Y8220000D01*
X17544473Y8925922D01*
X17315799Y8872534D01*
X17209905Y8642626D01*
X17150898Y8396476D01*
X17141048Y8143545D01*
X15112671Y8143545D01*
X14981150Y8340379D01*
X14760379Y8561150D01*
X14500779Y8734609D01*
X14212327Y8854089D01*
X13906109Y8915000D01*
X13609861Y8915000D01*
X13621008Y8951746D01*
X13638072Y9125000D01*
X13638072Y9875000D01*
X13621008Y10048254D01*
X13570472Y10214850D01*
X13488405Y10368386D01*
X13377962Y10502962D01*
X13243386Y10613405D01*
X13089850Y10695472D01*
X12923254Y10746008D01*
X12750000Y10763072D01*
X12250000Y10763072D01*
X12076746Y10746008D01*
X11910150Y10695472D01*
X11756614Y10613405D01*
X11622038Y10502962D01*
X11511595Y10368386D01*
X11429528Y10214850D01*
X11378992Y10048254D01*
X11361928Y9875000D01*
X11361928Y9125000D01*
X11378992Y8951746D01*
X11429528Y8785150D01*
X11511595Y8631614D01*
X11622038Y8497038D01*
X11756614Y8386595D01*
X11765992Y8381582D01*
X11794454Y8287754D01*
X11865026Y8155724D01*
X11889871Y8125451D01*
X11959999Y8039999D01*
X11989003Y8016196D01*
X12223748Y7781451D01*
X12165000Y7486109D01*
X12165000Y7173891D01*
X12223748Y6878549D01*
X11989003Y6643804D01*
X11959999Y6620001D01*
X11915948Y6566324D01*
X11865026Y6504276D01*
X11811371Y6403895D01*
X11794454Y6372246D01*
X11750997Y6228985D01*
X11740000Y6117332D01*
X11740000Y6117322D01*
X11738119Y6098227D01*
X11622038Y6002962D01*
X11559031Y5926187D01*
X11530537Y5979494D01*
X11451185Y6076185D01*
X11354494Y6155537D01*
X11244180Y6214502D01*
X11124482Y6250812D01*
X11000000Y6263072D01*
X10785750Y6260000D01*
X10627000Y6101250D01*
X10373000Y6101250D01*
X10214250Y6260000D01*
X10000000Y6263072D01*
X9875518Y6250812D01*
X9755820Y6214502D01*
X9645506Y6155537D01*
X9548815Y6076185D01*
X9469463Y5979494D01*
X9410498Y5869180D01*
X9374188Y5749482D01*
X9361928Y5625000D01*
X660000Y5625000D01*
X660000Y10307983D01*
X1873000Y10307983D01*
X1873000Y9692017D01*
X1993169Y9087888D01*
X2228889Y8518810D01*
X2571101Y8006654D01*
X3006654Y7571101D01*
X3518810Y7228889D01*
X4087888Y6993169D01*
X4692017Y6873000D01*
X5307983Y6873000D01*
X5912112Y6993169D01*
X6481190Y7228889D01*
X6993346Y7571101D01*
X7428899Y8006654D01*
X7771111Y8518810D01*
X8006831Y9087888D01*
X8127000Y9692017D01*
X8127000Y10307983D01*
X8006831Y10912112D01*
X7771111Y11481190D01*
X7428899Y11993346D01*
X7227772Y12194473D01*
X14434078Y12194473D01*
X14487466Y11965799D01*
X14717374Y11859905D01*
X14963524Y11800898D01*
X15216455Y11791048D01*
X15466449Y11830730D01*
X15703896Y11918422D01*
X15792534Y11965799D01*
X15845922Y12194473D01*
X16724078Y12194473D01*
X16777466Y11965799D01*
X17007374Y11859905D01*
X17253524Y11800898D01*
X17506455Y11791048D01*
X17756449Y11830730D01*
X17993896Y11918422D01*
X18082534Y11965799D01*
X18135922Y12194473D01*
X17430000Y12900395D01*
X16724078Y12194473D01*
X15845922Y12194473D01*
X15140000Y12900395D01*
X14434078Y12194473D01*
X7227772Y12194473D01*
X6993346Y12428899D01*
X6481190Y12771111D01*
X5920046Y13003545D01*
X13851048Y13003545D01*
X13890730Y12753551D01*
X13978422Y12516104D01*
X14025799Y12427466D01*
X14254473Y12374078D01*
X14960395Y13080000D01*
X15319605Y13080000D01*
X16025527Y12374078D01*
X16254201Y12427466D01*
X16282713Y12489368D01*
X16315799Y12427466D01*
X16544473Y12374078D01*
X17250395Y13080000D01*
X16544473Y13785922D01*
X16315799Y13732534D01*
X16287287Y13670632D01*
X16254201Y13732534D01*
X16025527Y13785922D01*
X15319605Y13080000D01*
X14960395Y13080000D01*
X14254473Y13785922D01*
X14025799Y13732534D01*
X13919905Y13502626D01*
X13860898Y13256476D01*
X13851048Y13003545D01*
X5920046Y13003545D01*
X5912112Y13006831D01*
X5307983Y13127000D01*
X4692017Y13127000D01*
X4087888Y13006831D01*
X3518810Y12771111D01*
X3006654Y12428899D01*
X2571101Y11993346D01*
X2228889Y11481190D01*
X1993169Y10912112D01*
X1873000Y10307983D01*
X660000Y10307983D01*
X660000Y13965527D01*
X14434078Y13965527D01*
X15140000Y13259605D01*
X15845922Y13965527D01*
X15792534Y14194201D01*
X15562626Y14300095D01*
X15316476Y14359102D01*
X15063545Y14368952D01*
X14813551Y14329270D01*
X14576104Y14241578D01*
X14487466Y14194201D01*
X14434078Y13965527D01*
X660000Y13965527D01*
X660000Y35307983D01*
X1873000Y35307983D01*
X1873000Y34692017D01*
X1993169Y34087888D01*
X2228889Y33518810D01*
X2571101Y33006654D01*
X3006654Y32571101D01*
X3518810Y32228889D01*
X4087888Y31993169D01*
X4692017Y31873000D01*
X5307983Y31873000D01*
X5912112Y31993169D01*
X6481190Y32228889D01*
X6993346Y32571101D01*
X7428899Y33006654D01*
X7771111Y33518810D01*
X8006831Y34087888D01*
X8016484Y34136419D01*
X10095000Y34136419D01*
X10122564Y33856556D01*
X10231494Y33497462D01*
X10408387Y33166518D01*
X10646444Y32876444D01*
X10936518Y32638387D01*
X11267461Y32461494D01*
X11626555Y32352564D01*
X12000000Y32315783D01*
X12373444Y32352564D01*
X12729869Y32460684D01*
X12790000Y32400553D01*
X12790001Y31692915D01*
X12786444Y31656800D01*
X12800635Y31512715D01*
X12834842Y31399953D01*
X12842664Y31374167D01*
X12910914Y31246480D01*
X13002763Y31134562D01*
X13030808Y31111546D01*
X15861546Y28280807D01*
X15884562Y28252762D01*
X15966551Y28185475D01*
X15996480Y28160913D01*
X16124166Y28092663D01*
X16262715Y28050635D01*
X16406800Y28036444D01*
X16442905Y28040000D01*
X25602354Y28040000D01*
X27040000Y26602353D01*
X27040001Y24792785D01*
X26996394Y24790949D01*
X26936082Y24776290D01*
X26875354Y24763323D01*
X26832543Y24744883D01*
X26751771Y24716620D01*
X26706800Y24704344D01*
X26651238Y24676619D01*
X26594949Y24650478D01*
X26557322Y24622979D01*
X26484846Y24577439D01*
X26443746Y24555471D01*
X26395763Y24516093D01*
X26346678Y24478062D01*
X26316111Y24442876D01*
X26255600Y24382365D01*
X26220414Y24351798D01*
X26182377Y24302705D01*
X26155000Y24269345D01*
X26155000Y25463582D01*
X26127436Y25743445D01*
X26018506Y26102539D01*
X25841613Y26433482D01*
X25603556Y26723556D01*
X25313482Y26961613D01*
X24982539Y27138506D01*
X24623445Y27247436D01*
X24250000Y27284217D01*
X23876556Y27247436D01*
X23517462Y27138506D01*
X23186519Y26961613D01*
X22896445Y26723556D01*
X22658388Y26433482D01*
X22500001Y26137160D01*
X22341613Y26433482D01*
X22103556Y26723556D01*
X21813482Y26961613D01*
X21482539Y27138506D01*
X21123445Y27247436D01*
X20750000Y27284217D01*
X20376556Y27247436D01*
X20017462Y27138506D01*
X19686519Y26961613D01*
X19396445Y26723556D01*
X19158388Y26433482D01*
X19000001Y26137160D01*
X18841613Y26433482D01*
X18603556Y26723556D01*
X18313482Y26961613D01*
X17982539Y27138506D01*
X17623445Y27247436D01*
X17250000Y27284217D01*
X16876556Y27247436D01*
X16517462Y27138506D01*
X16186519Y26961613D01*
X15896445Y26723556D01*
X15658388Y26433482D01*
X15500001Y26137160D01*
X15341613Y26433482D01*
X15103556Y26723556D01*
X14813482Y26961613D01*
X14482539Y27138506D01*
X14123445Y27247436D01*
X13750000Y27284217D01*
X13376556Y27247436D01*
X13017462Y27138506D01*
X12686519Y26961613D01*
X12396445Y26723556D01*
X12158388Y26433482D01*
X11981495Y26102539D01*
X11872565Y25743445D01*
X11845001Y25463582D01*
X11845000Y22736419D01*
X11872564Y22456556D01*
X11981494Y22097462D01*
X12158387Y21766518D01*
X12396444Y21476444D01*
X12686518Y21238387D01*
X13017461Y21061494D01*
X13376555Y20952564D01*
X13750000Y20915783D01*
X14123444Y20952564D01*
X14482538Y21061494D01*
X14813482Y21238387D01*
X15103556Y21476444D01*
X15341613Y21766518D01*
X15500000Y22062839D01*
X15658387Y21766518D01*
X15896444Y21476444D01*
X16186518Y21238387D01*
X16517461Y21061494D01*
X16876555Y20952564D01*
X17250000Y20915783D01*
X17623444Y20952564D01*
X17982538Y21061494D01*
X18313482Y21238387D01*
X18603556Y21476444D01*
X18841613Y21766518D01*
X19000000Y22062839D01*
X19158387Y21766518D01*
X19396444Y21476444D01*
X19686518Y21238387D01*
X20015000Y21062809D01*
X20015000Y20076800D01*
X19587188Y20076800D01*
X19582079Y20077742D01*
X19514931Y20076800D01*
X19483898Y20076800D01*
X19478744Y20076292D01*
X19473587Y20076220D01*
X19442868Y20072759D01*
X19375918Y20066165D01*
X19370940Y20064655D01*
X19327044Y20059709D01*
X19280483Y20057749D01*
X19220162Y20043089D01*
X19159441Y20030123D01*
X19116640Y20011687D01*
X19035852Y19983419D01*
X18990889Y19971145D01*
X18935337Y19943426D01*
X18879036Y19917279D01*
X18841408Y19889780D01*
X18768931Y19844240D01*
X18727831Y19822271D01*
X18679841Y19782887D01*
X18630766Y19744864D01*
X18600201Y19709681D01*
X18539685Y19649165D01*
X18504497Y19618596D01*
X18466473Y19569517D01*
X18427090Y19521529D01*
X18405120Y19480426D01*
X18359583Y19407955D01*
X18332082Y19370325D01*
X18305935Y19314024D01*
X18278216Y19258472D01*
X18265942Y19213509D01*
X18237673Y19132718D01*
X18219238Y19089919D01*
X18206273Y19029202D01*
X18191612Y18968878D01*
X18189652Y18922320D01*
X18184705Y18878419D01*
X18183196Y18873443D01*
X18176607Y18806539D01*
X18173140Y18775772D01*
X18173068Y18770606D01*
X18172561Y18765463D01*
X18172561Y18734473D01*
X18172363Y18720350D01*
X18171619Y18716315D01*
X18171963Y18691799D01*
X18171619Y18667282D01*
X18172363Y18663247D01*
X18172561Y18649124D01*
X18172561Y18618135D01*
X18173068Y18612992D01*
X18173140Y18607825D01*
X18176607Y18577051D01*
X18183196Y18510155D01*
X18184705Y18505179D01*
X18189652Y18461277D01*
X18191612Y18414719D01*
X18206273Y18354395D01*
X18219238Y18293678D01*
X18237673Y18250879D01*
X18265942Y18170088D01*
X18278216Y18125125D01*
X18305935Y18069573D01*
X18332082Y18013272D01*
X18359583Y17975642D01*
X18405120Y17903171D01*
X18427090Y17862068D01*
X18443726Y17841796D01*
X18427090Y17821525D01*
X18405120Y17780422D01*
X18359583Y17707951D01*
X18332082Y17670321D01*
X18305935Y17614020D01*
X18278216Y17558468D01*
X18265942Y17513505D01*
X18237673Y17432714D01*
X18219238Y17389915D01*
X18206273Y17329198D01*
X18191612Y17268874D01*
X18189652Y17222316D01*
X18184705Y17178415D01*
X18183196Y17173439D01*
X18176607Y17106535D01*
X18173140Y17075768D01*
X18173068Y17070602D01*
X18172561Y17065459D01*
X18172561Y17034469D01*
X18172363Y17020346D01*
X18171619Y17016311D01*
X18171963Y16991795D01*
X18171619Y16967278D01*
X18172363Y16963243D01*
X18172561Y16949120D01*
X18172561Y16918131D01*
X18173068Y16912988D01*
X18173140Y16907821D01*
X18176607Y16877047D01*
X18183196Y16810151D01*
X18184705Y16805175D01*
X18189652Y16761273D01*
X18191612Y16714715D01*
X18206273Y16654391D01*
X18219238Y16593674D01*
X18237673Y16550875D01*
X18265942Y16470084D01*
X18278216Y16425121D01*
X18305935Y16369569D01*
X18332082Y16313268D01*
X18359583Y16275638D01*
X18405120Y16203167D01*
X18427090Y16162064D01*
X18443726Y16141792D01*
X18427090Y16121521D01*
X18405120Y16080418D01*
X18359583Y16007947D01*
X18332082Y15970317D01*
X18305935Y15914016D01*
X18278216Y15858464D01*
X18265942Y15813501D01*
X18237673Y15732710D01*
X18219238Y15689911D01*
X18206273Y15629194D01*
X18191612Y15568870D01*
X18189652Y15522312D01*
X18184705Y15478411D01*
X18183196Y15473435D01*
X18176609Y15406554D01*
X18173140Y15375764D01*
X18173068Y15370598D01*
X18172561Y15365455D01*
X18172561Y15334465D01*
X18172363Y15320342D01*
X18171619Y15316307D01*
X18171963Y15291790D01*
X18171619Y15267274D01*
X18172363Y15263239D01*
X18172561Y15249116D01*
X18172561Y15218127D01*
X18173068Y15212984D01*
X18173140Y15207817D01*
X18176607Y15177043D01*
X18183196Y15110147D01*
X18184705Y15105171D01*
X18189652Y15061269D01*
X18191612Y15014711D01*
X18206273Y14954387D01*
X18219238Y14893670D01*
X18237673Y14850871D01*
X18265942Y14770080D01*
X18278216Y14725117D01*
X18305935Y14669565D01*
X18332082Y14613264D01*
X18359583Y14575634D01*
X18405120Y14503163D01*
X18427090Y14462060D01*
X18443726Y14441788D01*
X18427090Y14421517D01*
X18405120Y14380414D01*
X18359583Y14307943D01*
X18332082Y14270313D01*
X18305935Y14214012D01*
X18278216Y14158460D01*
X18265942Y14113497D01*
X18254472Y14080716D01*
X18252790Y14082398D01*
X18135921Y13965529D01*
X18082534Y14194201D01*
X17852626Y14300095D01*
X17606476Y14359102D01*
X17353545Y14368952D01*
X17103551Y14329270D01*
X16866104Y14241578D01*
X16777466Y14194201D01*
X16724078Y13965527D01*
X17430000Y13259605D01*
X17444143Y13273747D01*
X17623748Y13094142D01*
X17609605Y13080000D01*
X18315527Y12374078D01*
X18544201Y12427466D01*
X18607683Y12565292D01*
X18630766Y12538721D01*
X18679841Y12500698D01*
X18727831Y12461314D01*
X18768931Y12439345D01*
X18841408Y12393805D01*
X18879036Y12366306D01*
X18935337Y12340159D01*
X18990889Y12312440D01*
X19035852Y12300166D01*
X19116642Y12271898D01*
X19159436Y12253464D01*
X19220154Y12240498D01*
X19280483Y12225836D01*
X19327041Y12223876D01*
X19370938Y12218930D01*
X19375918Y12217419D01*
X19442848Y12210827D01*
X19473582Y12207364D01*
X19478745Y12207292D01*
X19483898Y12206784D01*
X19514899Y12206784D01*
X19582074Y12205841D01*
X19587189Y12206784D01*
X20333267Y12206784D01*
X20324051Y12168862D01*
X20322091Y12122302D01*
X20317144Y12078402D01*
X20315635Y12073427D01*
X20309049Y12006560D01*
X20305579Y11975762D01*
X20305506Y11970588D01*
X20305000Y11965447D01*
X20305000Y11934515D01*
X20304056Y11867271D01*
X20305000Y11862151D01*
X20304999Y10991040D01*
X20304999Y10991037D01*
X20305001Y10425000D01*
X19744064Y10425000D01*
X19738955Y10425942D01*
X19671763Y10425000D01*
X19640767Y10425000D01*
X19635623Y10424493D01*
X19630463Y10424421D01*
X19599707Y10420956D01*
X19541805Y10415253D01*
X19506866Y10413782D01*
X19446552Y10399122D01*
X19385841Y10386159D01*
X19343031Y10367719D01*
X19328282Y10362558D01*
X19283325Y10350287D01*
X19227777Y10322570D01*
X19171460Y10296415D01*
X19133837Y10268918D01*
X19120607Y10260605D01*
X19079505Y10238636D01*
X19031525Y10199260D01*
X18982442Y10161231D01*
X18951877Y10126048D01*
X18940828Y10114999D01*
X18905645Y10084434D01*
X18867622Y10035359D01*
X18828236Y9987366D01*
X18806268Y9946267D01*
X18797960Y9933044D01*
X18770455Y9895410D01*
X18744304Y9839101D01*
X18716587Y9783553D01*
X18704314Y9738591D01*
X18699154Y9723846D01*
X18680716Y9681041D01*
X18667750Y9620322D01*
X18653090Y9560002D01*
X18651129Y9513439D01*
X18649381Y9497918D01*
X18647773Y9489202D01*
X18606476Y9499102D01*
X18353545Y9508952D01*
X18103551Y9469270D01*
X17866104Y9381578D01*
X17777466Y9334201D01*
X17724078Y9105527D01*
X18430000Y8399605D01*
X18444143Y8413747D01*
X18623748Y8234142D01*
X18609605Y8220000D01*
X18623748Y8205857D01*
X18444143Y8026252D01*
X18430000Y8040395D01*
X17724078Y7334473D01*
X17777466Y7105799D01*
X18007374Y6999905D01*
X18253524Y6940898D01*
X18266396Y6940397D01*
X18214381Y6814821D01*
X18165000Y6566561D01*
X18165000Y6313439D01*
X18214381Y6065179D01*
X18311247Y5831324D01*
X18451875Y5620860D01*
X18630860Y5441875D01*
X18841324Y5301247D01*
X19075179Y5204381D01*
X19323439Y5155000D01*
X19576561Y5155000D01*
X19824821Y5204381D01*
X20058676Y5301247D01*
X20269140Y5441875D01*
X20448125Y5620860D01*
X20470000Y5653598D01*
X20491875Y5620860D01*
X20670860Y5441875D01*
X20881324Y5301247D01*
X21115179Y5204381D01*
X21363439Y5155000D01*
X21616561Y5155000D01*
X21864821Y5204381D01*
X22098676Y5301247D01*
X22309140Y5441875D01*
X22488125Y5620860D01*
X22510000Y5653598D01*
X22531875Y5620860D01*
X22710860Y5441875D01*
X22921324Y5301247D01*
X23155179Y5204381D01*
X23403439Y5155000D01*
X23656561Y5155000D01*
X23904821Y5204381D01*
X24138676Y5301247D01*
X24349140Y5441875D01*
X24528125Y5620860D01*
X24550000Y5653598D01*
X24571875Y5620860D01*
X24750860Y5441875D01*
X24961324Y5301247D01*
X25195179Y5204381D01*
X25443439Y5155000D01*
X25696561Y5155000D01*
X25944821Y5204381D01*
X26178676Y5301247D01*
X26389140Y5441875D01*
X26568125Y5620860D01*
X26708753Y5831324D01*
X26805619Y6065179D01*
X26855000Y6313439D01*
X26855000Y6566561D01*
X26805619Y6814821D01*
X26708753Y7048676D01*
X26568125Y7259140D01*
X26389140Y7438125D01*
X26317328Y7486109D01*
X28665000Y7486109D01*
X28665000Y7173891D01*
X28725911Y6867673D01*
X28845391Y6579221D01*
X29018850Y6319621D01*
X29239621Y6098850D01*
X29499221Y5925391D01*
X29787673Y5805911D01*
X30093891Y5745000D01*
X30406109Y5745000D01*
X30712327Y5805911D01*
X31000779Y5925391D01*
X31260379Y6098850D01*
X31481150Y6319621D01*
X31654609Y6579221D01*
X31774089Y6867673D01*
X31835000Y7173891D01*
X31835000Y7486109D01*
X31774089Y7792327D01*
X31654609Y8080779D01*
X31612671Y8143545D01*
X33641048Y8143545D01*
X33680730Y7893551D01*
X33768422Y7656104D01*
X33815799Y7567466D01*
X34044473Y7514078D01*
X34750395Y8220000D01*
X34044473Y8925922D01*
X33815799Y8872534D01*
X33709905Y8642626D01*
X33650898Y8396476D01*
X33641048Y8143545D01*
X31612671Y8143545D01*
X31481150Y8340379D01*
X31260379Y8561150D01*
X31000779Y8734609D01*
X30712327Y8854089D01*
X30406109Y8915000D01*
X30093891Y8915000D01*
X29787673Y8854089D01*
X29499221Y8734609D01*
X29239621Y8561150D01*
X29018850Y8340379D01*
X28845391Y8080779D01*
X28725911Y7792327D01*
X28665000Y7486109D01*
X26317328Y7486109D01*
X26305000Y7494346D01*
X26305000Y9105527D01*
X34224078Y9105527D01*
X34930000Y8399605D01*
X35635922Y9105527D01*
X35582534Y9334201D01*
X35352626Y9440095D01*
X35106476Y9499102D01*
X34853545Y9508952D01*
X34603551Y9469270D01*
X34366104Y9381578D01*
X34277466Y9334201D01*
X34224078Y9105527D01*
X26305000Y9105527D01*
X26305000Y11712095D01*
X26308556Y11748200D01*
X26301186Y11823033D01*
X26393524Y11800898D01*
X26646455Y11791048D01*
X26896449Y11830730D01*
X27133896Y11918422D01*
X27222534Y11965799D01*
X27275922Y12194473D01*
X28154078Y12194473D01*
X28207466Y11965799D01*
X28437374Y11859905D01*
X28683524Y11800898D01*
X28936455Y11791048D01*
X29186449Y11830730D01*
X29423896Y11918422D01*
X29512534Y11965799D01*
X29565922Y12194473D01*
X30934078Y12194473D01*
X30987466Y11965799D01*
X31217374Y11859905D01*
X31463524Y11800898D01*
X31716455Y11791048D01*
X31966449Y11830730D01*
X32203896Y11918422D01*
X32292534Y11965799D01*
X32345922Y12194473D01*
X33224078Y12194473D01*
X33277466Y11965799D01*
X33507374Y11859905D01*
X33753524Y11800898D01*
X34006455Y11791048D01*
X34256449Y11830730D01*
X34493896Y11918422D01*
X34582534Y11965799D01*
X34635922Y12194473D01*
X33930000Y12900395D01*
X33224078Y12194473D01*
X32345922Y12194473D01*
X31640000Y12900395D01*
X30934078Y12194473D01*
X29565922Y12194473D01*
X28860000Y12900395D01*
X28154078Y12194473D01*
X27275922Y12194473D01*
X26570000Y12900395D01*
X26555858Y12886252D01*
X26376253Y13065857D01*
X26390395Y13080000D01*
X26749605Y13080000D01*
X27455527Y12374078D01*
X27684201Y12427466D01*
X27712713Y12489368D01*
X27745799Y12427466D01*
X27974473Y12374078D01*
X28680395Y13080000D01*
X29039605Y13080000D01*
X29745527Y12374078D01*
X29974201Y12427466D01*
X30080095Y12657374D01*
X30139102Y12903524D01*
X30142997Y13003545D01*
X30351048Y13003545D01*
X30390730Y12753551D01*
X30478422Y12516104D01*
X30525799Y12427466D01*
X30754473Y12374078D01*
X31460395Y13080000D01*
X31819605Y13080000D01*
X32525527Y12374078D01*
X32754201Y12427466D01*
X32782713Y12489368D01*
X32815799Y12427466D01*
X33044473Y12374078D01*
X33750395Y13080000D01*
X34109605Y13080000D01*
X34815527Y12374078D01*
X35044201Y12427466D01*
X35150095Y12657374D01*
X35209102Y12903524D01*
X35218952Y13156455D01*
X35179270Y13406449D01*
X35091578Y13643896D01*
X35044201Y13732534D01*
X34815527Y13785922D01*
X34109605Y13080000D01*
X33750395Y13080000D01*
X33044473Y13785922D01*
X32815799Y13732534D01*
X32787287Y13670632D01*
X32754201Y13732534D01*
X32525527Y13785922D01*
X31819605Y13080000D01*
X31460395Y13080000D01*
X30754473Y13785922D01*
X30525799Y13732534D01*
X30419905Y13502626D01*
X30360898Y13256476D01*
X30351048Y13003545D01*
X30142997Y13003545D01*
X30148952Y13156455D01*
X30109270Y13406449D01*
X30021578Y13643896D01*
X29974201Y13732534D01*
X29745527Y13785922D01*
X29039605Y13080000D01*
X28680395Y13080000D01*
X27974473Y13785922D01*
X27745799Y13732534D01*
X27717287Y13670632D01*
X27684201Y13732534D01*
X27455527Y13785922D01*
X26749605Y13080000D01*
X26390395Y13080000D01*
X26376253Y13094142D01*
X26555858Y13273747D01*
X26570000Y13259605D01*
X27275922Y13965527D01*
X28154078Y13965527D01*
X28860000Y13259605D01*
X29565922Y13965527D01*
X30934078Y13965527D01*
X31640000Y13259605D01*
X32345922Y13965527D01*
X33224078Y13965527D01*
X33930000Y13259605D01*
X34635922Y13965527D01*
X34582534Y14194201D01*
X34352626Y14300095D01*
X34106476Y14359102D01*
X33853545Y14368952D01*
X33603551Y14329270D01*
X33366104Y14241578D01*
X33277466Y14194201D01*
X33224078Y13965527D01*
X32345922Y13965527D01*
X32292534Y14194201D01*
X32062626Y14300095D01*
X31816476Y14359102D01*
X31563545Y14368952D01*
X31313551Y14329270D01*
X31076104Y14241578D01*
X30987466Y14194201D01*
X30934078Y13965527D01*
X29565922Y13965527D01*
X29512534Y14194201D01*
X29282626Y14300095D01*
X29036476Y14359102D01*
X28783545Y14368952D01*
X28533551Y14329270D01*
X28296104Y14241578D01*
X28207466Y14194201D01*
X28154078Y13965527D01*
X27275922Y13965527D01*
X27222534Y14194201D01*
X26992626Y14300095D01*
X26746476Y14359102D01*
X26493545Y14368952D01*
X26243551Y14329270D01*
X26153752Y14296106D01*
X28719193Y16861546D01*
X28747238Y16884562D01*
X28839087Y16996480D01*
X28851290Y17019311D01*
X28907337Y17124166D01*
X28949365Y17262715D01*
X28963556Y17406800D01*
X28960000Y17442905D01*
X28960000Y19507216D01*
X29003605Y19509052D01*
X29063930Y19523714D01*
X29124650Y19536680D01*
X29167449Y19555116D01*
X29248229Y19583381D01*
X29293200Y19595657D01*
X29348756Y19623379D01*
X29405052Y19649523D01*
X29442683Y19677025D01*
X29515158Y19722564D01*
X29556253Y19744530D01*
X29604229Y19783902D01*
X29653322Y19821939D01*
X29683889Y19857125D01*
X29744400Y19917636D01*
X29779586Y19948203D01*
X29817617Y19997288D01*
X29856995Y20045271D01*
X29878963Y20086371D01*
X29924503Y20158847D01*
X29952002Y20196474D01*
X29978143Y20252763D01*
X30005868Y20308325D01*
X30018144Y20353296D01*
X30046407Y20434068D01*
X30064847Y20476879D01*
X30077814Y20537607D01*
X30092473Y20597919D01*
X30094433Y20644484D01*
X30099379Y20688379D01*
X30100889Y20693357D01*
X30107482Y20760299D01*
X30110944Y20791025D01*
X30111016Y20796183D01*
X30111524Y20801337D01*
X30111524Y20832369D01*
X30111721Y20846446D01*
X30112466Y20850484D01*
X30112122Y20875000D01*
X30112466Y20899517D01*
X30111721Y20903555D01*
X30111524Y20917632D01*
X30111524Y20948665D01*
X30111016Y20953819D01*
X30110944Y20958976D01*
X30107483Y20989695D01*
X30100889Y21056645D01*
X30099379Y21061623D01*
X30094433Y21105517D01*
X30092473Y21152082D01*
X30077814Y21212394D01*
X30064847Y21273122D01*
X30046407Y21315933D01*
X30018144Y21396705D01*
X30005868Y21441676D01*
X29978143Y21497238D01*
X29952002Y21553527D01*
X29924503Y21591154D01*
X29878963Y21663630D01*
X29856995Y21704730D01*
X29840359Y21725001D01*
X29856995Y21745271D01*
X29878963Y21786371D01*
X29924503Y21858847D01*
X29952002Y21896474D01*
X29978143Y21952763D01*
X30005868Y22008325D01*
X30018144Y22053296D01*
X30046407Y22134068D01*
X30064847Y22176879D01*
X30077814Y22237607D01*
X30092473Y22297919D01*
X30094433Y22344484D01*
X30099379Y22388379D01*
X30100889Y22393357D01*
X30107482Y22460299D01*
X30110944Y22491025D01*
X30111016Y22496183D01*
X30111524Y22501337D01*
X30111524Y22532369D01*
X30111721Y22546446D01*
X30112466Y22550484D01*
X30112122Y22575000D01*
X30112466Y22599517D01*
X30111721Y22603555D01*
X30111524Y22617632D01*
X30111524Y22648665D01*
X30111016Y22653819D01*
X30110944Y22658976D01*
X30107483Y22689695D01*
X30100889Y22756645D01*
X30099379Y22761623D01*
X30094433Y22805517D01*
X30092473Y22852082D01*
X30077814Y22912394D01*
X30064847Y22973122D01*
X30046407Y23015933D01*
X30018144Y23096705D01*
X30005868Y23141676D01*
X29978143Y23197238D01*
X29952002Y23253527D01*
X29924503Y23291154D01*
X29878963Y23363630D01*
X29856995Y23404730D01*
X29817617Y23452713D01*
X29779586Y23501798D01*
X29744400Y23532365D01*
X29683889Y23592876D01*
X29653322Y23628062D01*
X29604229Y23666099D01*
X29556253Y23705471D01*
X29515158Y23727437D01*
X29442683Y23772976D01*
X29405052Y23800478D01*
X29348756Y23826622D01*
X29293200Y23854344D01*
X29248229Y23866620D01*
X29167453Y23894884D01*
X29124645Y23913323D01*
X29063917Y23926290D01*
X29003605Y23940949D01*
X28957045Y23942909D01*
X28928363Y23946141D01*
X28940948Y23997919D01*
X28942908Y24044480D01*
X28947854Y24088376D01*
X28949365Y24093356D01*
X28955957Y24160286D01*
X28959420Y24191020D01*
X28959492Y24196183D01*
X28960000Y24201336D01*
X28960000Y24232337D01*
X28960943Y24299512D01*
X28960000Y24304627D01*
X28960000Y27057106D01*
X28963555Y27093201D01*
X28960000Y27129296D01*
X28960000Y27129305D01*
X28949365Y27237285D01*
X28907337Y27375833D01*
X28839087Y27503520D01*
X28815441Y27532332D01*
X28770253Y27587394D01*
X28770250Y27587397D01*
X28747237Y27615438D01*
X28719197Y27638450D01*
X26708130Y29649517D01*
X32564058Y29649517D01*
X32564402Y29625001D01*
X32564058Y29600484D01*
X32564802Y29596449D01*
X32565000Y29582326D01*
X32565000Y29551337D01*
X32565507Y29546194D01*
X32565579Y29541027D01*
X32569046Y29510253D01*
X32575635Y29443357D01*
X32577144Y29438381D01*
X32582091Y29394480D01*
X32584051Y29347920D01*
X32598710Y29287608D01*
X32611677Y29226880D01*
X32630116Y29184072D01*
X32658380Y29103296D01*
X32670656Y29058325D01*
X32698378Y29002769D01*
X32724522Y28946473D01*
X32752024Y28908842D01*
X32797563Y28836367D01*
X32819529Y28795272D01*
X32836165Y28775000D01*
X32819529Y28754729D01*
X32797563Y28713634D01*
X32752024Y28641159D01*
X32724522Y28603528D01*
X32698378Y28547232D01*
X32670656Y28491676D01*
X32658380Y28446705D01*
X32630116Y28365929D01*
X32611677Y28323121D01*
X32598710Y28262393D01*
X32584051Y28202081D01*
X32582091Y28155521D01*
X32577144Y28111621D01*
X32575635Y28106645D01*
X32569046Y28039741D01*
X32565579Y28008974D01*
X32565507Y28003808D01*
X32565000Y27998665D01*
X32565000Y27967675D01*
X32564802Y27953552D01*
X32564058Y27949517D01*
X32564402Y27925000D01*
X32564058Y27900484D01*
X32564802Y27896449D01*
X32565000Y27882326D01*
X32565000Y27851337D01*
X32565507Y27846194D01*
X32565579Y27841027D01*
X32569046Y27810253D01*
X32575635Y27743357D01*
X32577144Y27738381D01*
X32582091Y27694480D01*
X32584051Y27647920D01*
X32598710Y27587608D01*
X32611677Y27526880D01*
X32630116Y27484072D01*
X32658380Y27403296D01*
X32670656Y27358325D01*
X32698378Y27302769D01*
X32724522Y27246473D01*
X32752024Y27208842D01*
X32797563Y27136367D01*
X32819529Y27095272D01*
X32858901Y27047296D01*
X32896938Y26998203D01*
X32932124Y26967636D01*
X32992635Y26907125D01*
X33023202Y26871939D01*
X33072287Y26833908D01*
X33120270Y26794530D01*
X33161370Y26772562D01*
X33233846Y26727022D01*
X33271473Y26699523D01*
X33327762Y26673382D01*
X33383324Y26645657D01*
X33428295Y26633381D01*
X33509069Y26605118D01*
X33551873Y26586680D01*
X33612598Y26573713D01*
X33672918Y26559052D01*
X33719479Y26557092D01*
X33763375Y26552146D01*
X33768355Y26550635D01*
X33835285Y26544043D01*
X33866019Y26540580D01*
X33871182Y26540508D01*
X33876335Y26540000D01*
X33907336Y26540000D01*
X33974511Y26539057D01*
X33979626Y26540000D01*
X34818268Y26540000D01*
X34809052Y26502081D01*
X34807092Y26455520D01*
X34802145Y26411620D01*
X34800636Y26406645D01*
X34794050Y26339778D01*
X34790580Y26308980D01*
X34790507Y26303806D01*
X34790001Y26298665D01*
X34790001Y26267735D01*
X34789057Y26200489D01*
X34790001Y26195369D01*
X34790000Y20192905D01*
X34786444Y20156800D01*
X34800635Y20012715D01*
X34811807Y19975886D01*
X34842663Y19874168D01*
X34910913Y19746481D01*
X35002762Y19634563D01*
X35030808Y19611546D01*
X37708783Y16933570D01*
X37598747Y16887992D01*
X37445608Y16785668D01*
X37315374Y16655434D01*
X37213050Y16502295D01*
X37149977Y16350023D01*
X36997705Y16286950D01*
X36844566Y16184626D01*
X36714332Y16054392D01*
X36612008Y15901253D01*
X36541526Y15731093D01*
X36505594Y15550453D01*
X36505594Y15366275D01*
X36541526Y15185635D01*
X36612008Y15015475D01*
X36714332Y14862336D01*
X36844566Y14732102D01*
X36997705Y14629778D01*
X37167865Y14559296D01*
X37337651Y14525523D01*
X37327362Y14494742D01*
X37306031Y14436413D01*
X37298874Y14390381D01*
X37295399Y14375155D01*
X37281866Y14330542D01*
X37275784Y14268782D01*
X37267968Y14207199D01*
X37271234Y14160687D01*
X37271234Y14145061D01*
X37270654Y14136801D01*
X37049802Y14136801D01*
X37044693Y14137743D01*
X36977545Y14136801D01*
X36946512Y14136801D01*
X36941358Y14136293D01*
X36936201Y14136221D01*
X36905482Y14132760D01*
X36838532Y14126166D01*
X36833554Y14124656D01*
X36789660Y14119710D01*
X36743095Y14117750D01*
X36682783Y14103091D01*
X36622055Y14090124D01*
X36579244Y14071684D01*
X36498472Y14043421D01*
X36453501Y14031145D01*
X36397939Y14003420D01*
X36341650Y13977279D01*
X36304023Y13949780D01*
X36231547Y13904240D01*
X36190447Y13882272D01*
X36142464Y13842894D01*
X36093379Y13804863D01*
X36062812Y13769677D01*
X36002301Y13709166D01*
X35967115Y13678599D01*
X35929078Y13629506D01*
X35889706Y13581530D01*
X35867740Y13540435D01*
X35822201Y13467960D01*
X35794699Y13430329D01*
X35768555Y13374033D01*
X35740833Y13318477D01*
X35728557Y13273506D01*
X35700293Y13192730D01*
X35681854Y13149922D01*
X35668887Y13089194D01*
X35654228Y13028882D01*
X35652268Y12982322D01*
X35647321Y12938422D01*
X35645812Y12933446D01*
X35639223Y12866542D01*
X35635756Y12835775D01*
X35635684Y12830609D01*
X35635177Y12825466D01*
X35635177Y12794476D01*
X35634979Y12780353D01*
X35634235Y12776318D01*
X35634579Y12751801D01*
X35634235Y12727285D01*
X35634979Y12723250D01*
X35635177Y12709127D01*
X35635177Y12678138D01*
X35635684Y12672995D01*
X35635756Y12667828D01*
X35639223Y12637054D01*
X35645812Y12570158D01*
X35647321Y12565182D01*
X35652268Y12521281D01*
X35654228Y12474721D01*
X35668887Y12414409D01*
X35681854Y12353681D01*
X35700293Y12310873D01*
X35728557Y12230097D01*
X35740833Y12185126D01*
X35768555Y12129570D01*
X35794699Y12073274D01*
X35822201Y12035643D01*
X35867740Y11963168D01*
X35889706Y11922073D01*
X35906342Y11901802D01*
X35889706Y11881530D01*
X35867740Y11840435D01*
X35822201Y11767960D01*
X35794699Y11730329D01*
X35768555Y11674033D01*
X35740833Y11618477D01*
X35728557Y11573506D01*
X35700293Y11492730D01*
X35681854Y11449922D01*
X35668887Y11389194D01*
X35654228Y11328882D01*
X35652268Y11282322D01*
X35647321Y11238422D01*
X35645812Y11233446D01*
X35639223Y11166542D01*
X35635756Y11135775D01*
X35635684Y11130609D01*
X35635177Y11125466D01*
X35635177Y11094476D01*
X35634979Y11080353D01*
X35634235Y11076318D01*
X35634579Y11051802D01*
X35634235Y11027285D01*
X35634979Y11023250D01*
X35635177Y11009127D01*
X35635177Y10978138D01*
X35635684Y10972995D01*
X35635756Y10967828D01*
X35639223Y10937054D01*
X35645812Y10870158D01*
X35647321Y10865182D01*
X35652268Y10821281D01*
X35654228Y10774721D01*
X35668887Y10714409D01*
X35681854Y10653681D01*
X35700293Y10610873D01*
X35728557Y10530097D01*
X35740833Y10485126D01*
X35768555Y10429570D01*
X35794699Y10373274D01*
X35822201Y10335643D01*
X35867740Y10263168D01*
X35889706Y10222073D01*
X35929078Y10174097D01*
X35967115Y10125004D01*
X36002301Y10094437D01*
X36062812Y10033926D01*
X36093379Y9998740D01*
X36142464Y9960709D01*
X36190447Y9921331D01*
X36231547Y9899363D01*
X36304023Y9853823D01*
X36341650Y9826324D01*
X36397939Y9800183D01*
X36453501Y9772458D01*
X36498472Y9760182D01*
X36579246Y9731919D01*
X36622050Y9713481D01*
X36682775Y9700514D01*
X36743095Y9685853D01*
X36789656Y9683893D01*
X36833552Y9678947D01*
X36838532Y9677436D01*
X36905462Y9670844D01*
X36936196Y9667381D01*
X36941359Y9667309D01*
X36946512Y9666801D01*
X36977513Y9666801D01*
X37044688Y9665858D01*
X37049803Y9666801D01*
X38873268Y9666801D01*
X38864052Y9628882D01*
X38862092Y9582321D01*
X38857146Y9538427D01*
X38855635Y9533446D01*
X38852222Y9498791D01*
X38635179Y9455619D01*
X38401324Y9358753D01*
X38190860Y9218125D01*
X38011875Y9039140D01*
X37990000Y9006402D01*
X37968125Y9039140D01*
X37789140Y9218125D01*
X37578676Y9358753D01*
X37344821Y9455619D01*
X37096561Y9505000D01*
X36843439Y9505000D01*
X36595179Y9455619D01*
X36361324Y9358753D01*
X36150860Y9218125D01*
X35971875Y9039140D01*
X35885335Y8909624D01*
X35815527Y8925922D01*
X35109605Y8220000D01*
X35123748Y8205857D01*
X34944143Y8026252D01*
X34930000Y8040395D01*
X34224078Y7334473D01*
X34277466Y7105799D01*
X34507374Y6999905D01*
X34753524Y6940898D01*
X34766396Y6940397D01*
X34714381Y6814821D01*
X34665000Y6566561D01*
X34665000Y6313439D01*
X34714381Y6065179D01*
X34811247Y5831324D01*
X34951875Y5620860D01*
X35130860Y5441875D01*
X35341324Y5301247D01*
X35575179Y5204381D01*
X35823439Y5155000D01*
X36076561Y5155000D01*
X36324821Y5204381D01*
X36558676Y5301247D01*
X36769140Y5441875D01*
X36948125Y5620860D01*
X36970000Y5653598D01*
X36991875Y5620860D01*
X37170860Y5441875D01*
X37381324Y5301247D01*
X37615179Y5204381D01*
X37863439Y5155000D01*
X38116561Y5155000D01*
X38364821Y5204381D01*
X38598676Y5301247D01*
X38809140Y5441875D01*
X38988125Y5620860D01*
X39010000Y5653598D01*
X39031875Y5620860D01*
X39210860Y5441875D01*
X39421324Y5301247D01*
X39655179Y5204381D01*
X39903439Y5155000D01*
X40156561Y5155000D01*
X40404821Y5204381D01*
X40638676Y5301247D01*
X40849140Y5441875D01*
X41028125Y5620860D01*
X41050000Y5653598D01*
X41071875Y5620860D01*
X41250860Y5441875D01*
X41461324Y5301247D01*
X41695179Y5204381D01*
X41943439Y5155000D01*
X42196561Y5155000D01*
X42444821Y5204381D01*
X42678676Y5301247D01*
X42889140Y5441875D01*
X43068125Y5620860D01*
X43208753Y5831324D01*
X43305619Y6065179D01*
X43355000Y6313439D01*
X43355000Y6566561D01*
X43305619Y6814821D01*
X43208753Y7048676D01*
X43068125Y7259140D01*
X42889140Y7438125D01*
X42817328Y7486109D01*
X45165000Y7486109D01*
X45165000Y7173891D01*
X45225911Y6867673D01*
X45345391Y6579221D01*
X45518850Y6319621D01*
X45739621Y6098850D01*
X45999221Y5925391D01*
X46287673Y5805911D01*
X46593891Y5745000D01*
X46906109Y5745000D01*
X47201451Y5803748D01*
X47397135Y5608063D01*
X47378992Y5548254D01*
X47361928Y5375000D01*
X47361928Y4625000D01*
X47378992Y4451746D01*
X47429528Y4285150D01*
X47511595Y4131614D01*
X47622038Y3997038D01*
X47756614Y3886595D01*
X47910150Y3804528D01*
X48076746Y3753992D01*
X48250000Y3736928D01*
X48750000Y3736928D01*
X48923254Y3753992D01*
X49089850Y3804528D01*
X49243386Y3886595D01*
X49377962Y3997038D01*
X49440969Y4073813D01*
X49469463Y4020506D01*
X49548815Y3923815D01*
X49645506Y3844463D01*
X49755820Y3785498D01*
X49875518Y3749188D01*
X50000000Y3736928D01*
X50214250Y3740000D01*
X50373000Y3898750D01*
X50373000Y4873000D01*
X50627000Y4873000D01*
X50627000Y3898750D01*
X50785750Y3740000D01*
X51000000Y3736928D01*
X51124482Y3749188D01*
X51244180Y3785498D01*
X51354494Y3844463D01*
X51451185Y3923815D01*
X51530537Y4020506D01*
X51589502Y4130820D01*
X51625812Y4250518D01*
X51638072Y4375000D01*
X51635000Y4714250D01*
X51476250Y4873000D01*
X50627000Y4873000D01*
X50373000Y4873000D01*
X50353000Y4873000D01*
X50353000Y5127000D01*
X50373000Y5127000D01*
X50373000Y6101250D01*
X50627000Y6101250D01*
X50627000Y5127000D01*
X51476250Y5127000D01*
X51635000Y5285750D01*
X51638072Y5625000D01*
X51625812Y5749482D01*
X51589502Y5869180D01*
X51530537Y5979494D01*
X51451185Y6076185D01*
X51354494Y6155537D01*
X51244180Y6214502D01*
X51124482Y6250812D01*
X51000000Y6263072D01*
X50785750Y6260000D01*
X50627000Y6101250D01*
X50373000Y6101250D01*
X50214250Y6260000D01*
X50000000Y6263072D01*
X49875518Y6250812D01*
X49755820Y6214502D01*
X49645506Y6155537D01*
X49548815Y6076185D01*
X49469463Y5979494D01*
X49440969Y5926187D01*
X49377962Y6002962D01*
X49243386Y6113405D01*
X49089850Y6195472D01*
X48923254Y6246008D01*
X48907214Y6247588D01*
X48276252Y6878549D01*
X48335000Y7173891D01*
X48335000Y7486109D01*
X48276252Y7781451D01*
X48731730Y8236928D01*
X48750000Y8236928D01*
X48923254Y8253992D01*
X49089850Y8304528D01*
X49243386Y8386595D01*
X49377962Y8497038D01*
X49488405Y8631614D01*
X49570472Y8785150D01*
X49621008Y8951746D01*
X49638072Y9125000D01*
X49638072Y9875000D01*
X49621008Y10048254D01*
X49570472Y10214850D01*
X49520692Y10307983D01*
X51873000Y10307983D01*
X51873000Y9692017D01*
X51993169Y9087888D01*
X52228889Y8518810D01*
X52571101Y8006654D01*
X53006654Y7571101D01*
X53518810Y7228889D01*
X54087888Y6993169D01*
X54692017Y6873000D01*
X55307983Y6873000D01*
X55912112Y6993169D01*
X56481190Y7228889D01*
X56993346Y7571101D01*
X57428899Y8006654D01*
X57771111Y8518810D01*
X58006831Y9087888D01*
X58127000Y9692017D01*
X58127000Y10307983D01*
X58006831Y10912112D01*
X57771111Y11481190D01*
X57428899Y11993346D01*
X56993346Y12428899D01*
X56481190Y12771111D01*
X55912112Y13006831D01*
X55307983Y13127000D01*
X54692017Y13127000D01*
X54087888Y13006831D01*
X53518810Y12771111D01*
X53006654Y12428899D01*
X52571101Y11993346D01*
X52228889Y11481190D01*
X51993169Y10912112D01*
X51873000Y10307983D01*
X49520692Y10307983D01*
X49488405Y10368386D01*
X49377962Y10502962D01*
X49243386Y10613405D01*
X49089850Y10695472D01*
X48923254Y10746008D01*
X48750000Y10763072D01*
X48250000Y10763072D01*
X48076746Y10746008D01*
X47910150Y10695472D01*
X47756614Y10613405D01*
X47622038Y10502962D01*
X47511595Y10368386D01*
X47429528Y10214850D01*
X47378992Y10048254D01*
X47361928Y9875000D01*
X47361928Y9125000D01*
X47371636Y9026437D01*
X47201451Y8856252D01*
X46906109Y8915000D01*
X46593891Y8915000D01*
X46287673Y8854089D01*
X45999221Y8734609D01*
X45739621Y8561150D01*
X45518850Y8340379D01*
X45345391Y8080779D01*
X45225911Y7792327D01*
X45165000Y7486109D01*
X42817328Y7486109D01*
X42805000Y7494346D01*
X42805000Y11822119D01*
X42893524Y11800898D01*
X43146455Y11791048D01*
X43396449Y11830730D01*
X43633896Y11918422D01*
X43722534Y11965799D01*
X43775922Y12194473D01*
X44654078Y12194473D01*
X44707466Y11965799D01*
X44937374Y11859905D01*
X45183524Y11800898D01*
X45436455Y11791048D01*
X45686449Y11830730D01*
X45923896Y11918422D01*
X46012534Y11965799D01*
X46065922Y12194473D01*
X45360000Y12900395D01*
X44654078Y12194473D01*
X43775922Y12194473D01*
X43070000Y12900395D01*
X43055858Y12886252D01*
X42876253Y13065857D01*
X42890395Y13080000D01*
X43249605Y13080000D01*
X43955527Y12374078D01*
X44184201Y12427466D01*
X44212713Y12489368D01*
X44245799Y12427466D01*
X44474473Y12374078D01*
X45180395Y13080000D01*
X45539605Y13080000D01*
X46245527Y12374078D01*
X46474201Y12427466D01*
X46580095Y12657374D01*
X46639102Y12903524D01*
X46648952Y13156455D01*
X46609270Y13406449D01*
X46521578Y13643896D01*
X46474201Y13732534D01*
X46245527Y13785922D01*
X45539605Y13080000D01*
X45180395Y13080000D01*
X44474473Y13785922D01*
X44245799Y13732534D01*
X44217287Y13670632D01*
X44184201Y13732534D01*
X43955527Y13785922D01*
X43249605Y13080000D01*
X42890395Y13080000D01*
X42876253Y13094142D01*
X43055858Y13273747D01*
X43070000Y13259605D01*
X43775922Y13965527D01*
X44654078Y13965527D01*
X45360000Y13259605D01*
X46065922Y13965527D01*
X46012534Y14194201D01*
X45782626Y14300095D01*
X45536476Y14359102D01*
X45283545Y14368952D01*
X45033551Y14329270D01*
X44796104Y14241578D01*
X44707466Y14194201D01*
X44654078Y13965527D01*
X43775922Y13965527D01*
X43722534Y14194201D01*
X43492626Y14300095D01*
X43246476Y14359102D01*
X42993545Y14368952D01*
X42799694Y14338182D01*
X42794365Y14392285D01*
X42752337Y14530834D01*
X42684087Y14658520D01*
X42615253Y14742394D01*
X42615250Y14742397D01*
X42592237Y14770438D01*
X42564198Y14793449D01*
X36710000Y20647646D01*
X36710000Y25690000D01*
X37367301Y25690000D01*
X37345001Y25463582D01*
X37345000Y22736419D01*
X37372564Y22456556D01*
X37481494Y22097462D01*
X37658387Y21766518D01*
X37896444Y21476444D01*
X38186518Y21238387D01*
X38517461Y21061494D01*
X38876555Y20952564D01*
X39250000Y20915783D01*
X39623444Y20952564D01*
X39982538Y21061494D01*
X40313482Y21238387D01*
X40603556Y21476444D01*
X40841613Y21766518D01*
X41000000Y22062839D01*
X41158387Y21766518D01*
X41396444Y21476444D01*
X41686518Y21238387D01*
X42017461Y21061494D01*
X42376555Y20952564D01*
X42750000Y20915783D01*
X43123444Y20952564D01*
X43482538Y21061494D01*
X43813482Y21238387D01*
X44103556Y21476444D01*
X44341613Y21766518D01*
X44500000Y22062839D01*
X44658387Y21766518D01*
X44896444Y21476444D01*
X45186518Y21238387D01*
X45517461Y21061494D01*
X45876555Y20952564D01*
X46250000Y20915783D01*
X46623444Y20952564D01*
X46982538Y21061494D01*
X47313482Y21238387D01*
X47603556Y21476444D01*
X47841613Y21766518D01*
X48000000Y22062839D01*
X48158387Y21766518D01*
X48396444Y21476444D01*
X48686518Y21238387D01*
X49017461Y21061494D01*
X49376555Y20952564D01*
X49750000Y20915783D01*
X50123444Y20952564D01*
X50482538Y21061494D01*
X50813482Y21238387D01*
X51103556Y21476444D01*
X51341613Y21766518D01*
X51518506Y22097461D01*
X51627436Y22456555D01*
X51655000Y22736418D01*
X51655000Y25463582D01*
X51627436Y25743445D01*
X51518506Y26102539D01*
X51341613Y26433482D01*
X51103556Y26723556D01*
X50813482Y26961613D01*
X50482539Y27138506D01*
X50123445Y27247436D01*
X49750000Y27284217D01*
X49376556Y27247436D01*
X49017462Y27138506D01*
X48686519Y26961613D01*
X48396445Y26723556D01*
X48158388Y26433482D01*
X48000001Y26137160D01*
X47841613Y26433482D01*
X47603556Y26723556D01*
X47313482Y26961613D01*
X46982539Y27138506D01*
X46623445Y27247436D01*
X46250000Y27284217D01*
X45876556Y27247436D01*
X45517462Y27138506D01*
X45186519Y26961613D01*
X44896445Y26723556D01*
X44658388Y26433482D01*
X44500001Y26137160D01*
X44341613Y26433482D01*
X44103556Y26723556D01*
X43813482Y26961613D01*
X43482539Y27138506D01*
X43123445Y27247436D01*
X42750000Y27284217D01*
X42376556Y27247436D01*
X42017462Y27138506D01*
X41686519Y26961613D01*
X41396445Y26723556D01*
X41158388Y26433482D01*
X41000001Y26137160D01*
X40841613Y26433482D01*
X40603556Y26723556D01*
X40313482Y26961613D01*
X39982539Y27138506D01*
X39623445Y27247436D01*
X39250000Y27284217D01*
X38924804Y27252188D01*
X38924365Y27256645D01*
X38922855Y27261623D01*
X38917909Y27305517D01*
X38915949Y27352082D01*
X38901290Y27412394D01*
X38888323Y27473122D01*
X38869883Y27515933D01*
X38841620Y27596705D01*
X38829344Y27641676D01*
X38801619Y27697238D01*
X38775478Y27753527D01*
X38747979Y27791154D01*
X38702439Y27863630D01*
X38680471Y27904730D01*
X38663835Y27925000D01*
X38680471Y27945271D01*
X38702439Y27986371D01*
X38747979Y28058847D01*
X38775478Y28096474D01*
X38801619Y28152763D01*
X38829344Y28208325D01*
X38841620Y28253296D01*
X38869883Y28334068D01*
X38888323Y28376879D01*
X38901290Y28437607D01*
X38915949Y28497919D01*
X38917909Y28544484D01*
X38922855Y28588379D01*
X38924365Y28593357D01*
X38930958Y28660299D01*
X38934420Y28691025D01*
X38934492Y28696183D01*
X38935000Y28701337D01*
X38935000Y28732369D01*
X38935197Y28746446D01*
X38935942Y28750484D01*
X38935598Y28775000D01*
X38935942Y28799517D01*
X38935197Y28803555D01*
X38935000Y28817632D01*
X38935000Y28848665D01*
X38934492Y28853819D01*
X38934420Y28858976D01*
X38930959Y28889695D01*
X38924365Y28956645D01*
X38922855Y28961623D01*
X38917909Y29005517D01*
X38915949Y29052082D01*
X38901290Y29112394D01*
X38888323Y29173122D01*
X38869883Y29215933D01*
X38841620Y29296705D01*
X38829344Y29341676D01*
X38801619Y29397238D01*
X38775478Y29453527D01*
X38747979Y29491154D01*
X38702439Y29563630D01*
X38680471Y29604730D01*
X38641093Y29652713D01*
X38603062Y29701798D01*
X38567876Y29732365D01*
X38507365Y29792876D01*
X38476798Y29828062D01*
X38427705Y29866099D01*
X38379729Y29905471D01*
X38338634Y29927437D01*
X38266159Y29972976D01*
X38228528Y30000478D01*
X38172232Y30026622D01*
X38116676Y30054344D01*
X38071705Y30066620D01*
X37990929Y30094884D01*
X37948121Y30113323D01*
X37887393Y30126290D01*
X37827081Y30140949D01*
X37780521Y30142909D01*
X37736621Y30147856D01*
X37731645Y30149365D01*
X37664741Y30155954D01*
X37633974Y30159421D01*
X37628808Y30159493D01*
X37623665Y30160000D01*
X37592675Y30160000D01*
X37525484Y30160942D01*
X37520375Y30160000D01*
X36699446Y30160000D01*
X39542521Y33003075D01*
X39646444Y32876444D01*
X39936518Y32638387D01*
X40267461Y32461494D01*
X40626555Y32352564D01*
X41000000Y32315783D01*
X41373444Y32352564D01*
X41732538Y32461494D01*
X42063482Y32638387D01*
X42353556Y32876444D01*
X42591613Y33166518D01*
X42755102Y33472384D01*
X42788611Y33383655D01*
X42986609Y33066042D01*
X43242765Y32793159D01*
X43547236Y32575493D01*
X43888321Y32421409D01*
X44077219Y32372507D01*
X44373000Y32488374D01*
X44373000Y35373000D01*
X44353000Y35373000D01*
X44353000Y35627000D01*
X44373000Y35627000D01*
X44373000Y38511626D01*
X44627000Y38511626D01*
X44627000Y35627000D01*
X44647000Y35627000D01*
X44647000Y35373000D01*
X44627000Y35373000D01*
X44627000Y32488374D01*
X44922781Y32372507D01*
X45111679Y32421409D01*
X45452764Y32575493D01*
X45757235Y32793159D01*
X46013391Y33066042D01*
X46211389Y33383655D01*
X46244898Y33472385D01*
X46408387Y33166518D01*
X46646444Y32876444D01*
X46936518Y32638387D01*
X47267461Y32461494D01*
X47626555Y32352564D01*
X48000000Y32315783D01*
X48373444Y32352564D01*
X48732538Y32461494D01*
X49063482Y32638387D01*
X49353556Y32876444D01*
X49591613Y33166518D01*
X49768506Y33497461D01*
X49877436Y33856555D01*
X49905000Y34136418D01*
X49905000Y35307983D01*
X51873000Y35307983D01*
X51873000Y34692017D01*
X51993169Y34087888D01*
X52228889Y33518810D01*
X52571101Y33006654D01*
X53006654Y32571101D01*
X53518810Y32228889D01*
X54087888Y31993169D01*
X54692017Y31873000D01*
X55307983Y31873000D01*
X55912112Y31993169D01*
X56481190Y32228889D01*
X56993346Y32571101D01*
X57428899Y33006654D01*
X57771111Y33518810D01*
X58006831Y34087888D01*
X58127000Y34692017D01*
X58127000Y35307983D01*
X58006831Y35912112D01*
X57771111Y36481190D01*
X57428899Y36993346D01*
X56993346Y37428899D01*
X56481190Y37771111D01*
X55912112Y38006831D01*
X55307983Y38127000D01*
X54692017Y38127000D01*
X54087888Y38006831D01*
X53518810Y37771111D01*
X53006654Y37428899D01*
X52571101Y36993346D01*
X52228889Y36481190D01*
X51993169Y35912112D01*
X51873000Y35307983D01*
X49905000Y35307983D01*
X49905000Y36863582D01*
X49877436Y37143445D01*
X49768506Y37502539D01*
X49591613Y37833482D01*
X49353556Y38123556D01*
X49063482Y38361613D01*
X48732539Y38538506D01*
X48373445Y38647436D01*
X48000000Y38684217D01*
X47626556Y38647436D01*
X47267462Y38538506D01*
X46936519Y38361613D01*
X46646445Y38123556D01*
X46408388Y37833482D01*
X46244898Y37527615D01*
X46211389Y37616345D01*
X46013391Y37933958D01*
X45757235Y38206841D01*
X45452764Y38424507D01*
X45111679Y38578591D01*
X44922781Y38627493D01*
X44627000Y38511626D01*
X44373000Y38511626D01*
X44077219Y38627493D01*
X43888321Y38578591D01*
X43547236Y38424507D01*
X43242765Y38206841D01*
X42986609Y37933958D01*
X42788611Y37616345D01*
X42755102Y37527616D01*
X42591613Y37833482D01*
X42353556Y38123556D01*
X42063482Y38361613D01*
X41732539Y38538506D01*
X41373445Y38647436D01*
X41000000Y38684217D01*
X40626556Y38647436D01*
X40267462Y38538506D01*
X39936519Y38361613D01*
X39646445Y38123556D01*
X39408388Y37833482D01*
X39250001Y37537160D01*
X39091613Y37833482D01*
X38853556Y38123556D01*
X38563482Y38361613D01*
X38232539Y38538506D01*
X37873445Y38647436D01*
X37500000Y38684217D01*
X37126556Y38647436D01*
X36767462Y38538506D01*
X36436519Y38361613D01*
X36146445Y38123556D01*
X35908388Y37833482D01*
X35731495Y37502539D01*
X35622565Y37143445D01*
X35595001Y36863582D01*
X35595000Y34136419D01*
X35622564Y33856556D01*
X35731494Y33497462D01*
X35908387Y33166518D01*
X36146444Y32876444D01*
X36436518Y32638387D01*
X36453478Y32629322D01*
X35030808Y31206651D01*
X35002763Y31183635D01*
X34910913Y31071717D01*
X34877925Y31010000D01*
X33979625Y31010000D01*
X33974516Y31010942D01*
X33907368Y31010000D01*
X33876335Y31010000D01*
X33871181Y31009492D01*
X33866024Y31009420D01*
X33835305Y31005959D01*
X33768355Y30999365D01*
X33763377Y30997855D01*
X33719483Y30992909D01*
X33672918Y30990949D01*
X33612606Y30976290D01*
X33551878Y30963323D01*
X33509067Y30944883D01*
X33428295Y30916620D01*
X33383324Y30904344D01*
X33327762Y30876619D01*
X33271473Y30850478D01*
X33233846Y30822979D01*
X33161370Y30777439D01*
X33120270Y30755471D01*
X33072287Y30716093D01*
X33023202Y30678062D01*
X32992635Y30642876D01*
X32932124Y30582365D01*
X32896938Y30551798D01*
X32858901Y30502705D01*
X32819529Y30454729D01*
X32797563Y30413634D01*
X32752024Y30341159D01*
X32724522Y30303528D01*
X32698378Y30247232D01*
X32670656Y30191676D01*
X32658380Y30146705D01*
X32630116Y30065929D01*
X32611677Y30023121D01*
X32598710Y29962393D01*
X32584051Y29902081D01*
X32582091Y29855521D01*
X32577144Y29811621D01*
X32575635Y29806645D01*
X32569046Y29739741D01*
X32565579Y29708974D01*
X32565507Y29703808D01*
X32565000Y29698665D01*
X32565000Y29667675D01*
X32564802Y29653552D01*
X32564058Y29649517D01*
X26708130Y29649517D01*
X26638458Y29719188D01*
X26615438Y29747238D01*
X26503520Y29839087D01*
X26375833Y29907337D01*
X26237285Y29949365D01*
X26129305Y29960000D01*
X26093200Y29963556D01*
X26057095Y29960000D01*
X16897647Y29960000D01*
X14710000Y32147646D01*
X14710000Y32400554D01*
X14770130Y32460684D01*
X15126555Y32352564D01*
X15500000Y32315783D01*
X15873444Y32352564D01*
X16232538Y32461494D01*
X16563482Y32638387D01*
X16853556Y32876444D01*
X17091613Y33166518D01*
X17255102Y33472384D01*
X17288611Y33383655D01*
X17486609Y33066042D01*
X17742765Y32793159D01*
X18047236Y32575493D01*
X18388321Y32421409D01*
X18577219Y32372507D01*
X18873000Y32488374D01*
X18873000Y35373000D01*
X18853000Y35373000D01*
X18853000Y35627000D01*
X18873000Y35627000D01*
X18873000Y38511626D01*
X19127000Y38511626D01*
X19127000Y35627000D01*
X19147000Y35627000D01*
X19147000Y35373000D01*
X19127000Y35373000D01*
X19127000Y32488374D01*
X19422781Y32372507D01*
X19611679Y32421409D01*
X19952764Y32575493D01*
X20257235Y32793159D01*
X20513391Y33066042D01*
X20711389Y33383655D01*
X20744898Y33472385D01*
X20908387Y33166518D01*
X21146444Y32876444D01*
X21436518Y32638387D01*
X21767461Y32461494D01*
X22126555Y32352564D01*
X22500000Y32315783D01*
X22873444Y32352564D01*
X23232538Y32461494D01*
X23563482Y32638387D01*
X23853556Y32876444D01*
X24091613Y33166518D01*
X24268506Y33497461D01*
X24377436Y33856555D01*
X24405000Y34136418D01*
X24405000Y34300000D01*
X26661928Y34300000D01*
X26674188Y34175518D01*
X26710498Y34055820D01*
X26769463Y33945506D01*
X26848815Y33848815D01*
X26945506Y33769463D01*
X27055820Y33710498D01*
X27175518Y33674188D01*
X27300000Y33661928D01*
X28214250Y33665000D01*
X28373000Y33823750D01*
X28373000Y35373000D01*
X26823750Y35373000D01*
X26665000Y35214250D01*
X26661928Y34300000D01*
X24405000Y34300000D01*
X24405000Y36700000D01*
X26661928Y36700000D01*
X26665000Y35785750D01*
X26823750Y35627000D01*
X28373000Y35627000D01*
X28373000Y37176250D01*
X28627000Y37176250D01*
X28627000Y35627000D01*
X28647000Y35627000D01*
X28647000Y35373000D01*
X28627000Y35373000D01*
X28627000Y33823750D01*
X28785750Y33665000D01*
X29700000Y33661928D01*
X29824482Y33674188D01*
X29944180Y33710498D01*
X30054494Y33769463D01*
X30151185Y33848815D01*
X30230537Y33945506D01*
X30289502Y34055820D01*
X30325812Y34175518D01*
X30330391Y34222020D01*
X30901626Y34222020D01*
X31021514Y33937164D01*
X31345210Y33776301D01*
X31694069Y33681678D01*
X32054684Y33656933D01*
X32413198Y33703015D01*
X32755833Y33818154D01*
X32978486Y33937164D01*
X33098374Y34222020D01*
X32000000Y35320395D01*
X30901626Y34222020D01*
X30330391Y34222020D01*
X30338072Y34300000D01*
X30336696Y34709477D01*
X30437164Y34521514D01*
X30722020Y34401626D01*
X31820395Y35500000D01*
X32179605Y35500000D01*
X33277980Y34401626D01*
X33562836Y34521514D01*
X33723699Y34845210D01*
X33818322Y35194069D01*
X33843067Y35554684D01*
X33796985Y35913198D01*
X33681846Y36255833D01*
X33562836Y36478486D01*
X33277980Y36598374D01*
X32179605Y35500000D01*
X31820395Y35500000D01*
X30722020Y36598374D01*
X30437164Y36478486D01*
X30336648Y36276223D01*
X30338072Y36700000D01*
X30330392Y36777980D01*
X30901626Y36777980D01*
X32000000Y35679605D01*
X33098374Y36777980D01*
X32978486Y37062836D01*
X32654790Y37223699D01*
X32305931Y37318322D01*
X31945316Y37343067D01*
X31586802Y37296985D01*
X31244167Y37181846D01*
X31021514Y37062836D01*
X30901626Y36777980D01*
X30330392Y36777980D01*
X30325812Y36824482D01*
X30289502Y36944180D01*
X30230537Y37054494D01*
X30151185Y37151185D01*
X30054494Y37230537D01*
X29944180Y37289502D01*
X29824482Y37325812D01*
X29700000Y37338072D01*
X28785750Y37335000D01*
X28627000Y37176250D01*
X28373000Y37176250D01*
X28214250Y37335000D01*
X27300000Y37338072D01*
X27175518Y37325812D01*
X27055820Y37289502D01*
X26945506Y37230537D01*
X26848815Y37151185D01*
X26769463Y37054494D01*
X26710498Y36944180D01*
X26674188Y36824482D01*
X26661928Y36700000D01*
X24405000Y36700000D01*
X24405000Y36863582D01*
X24377436Y37143445D01*
X24268506Y37502539D01*
X24091613Y37833482D01*
X23853556Y38123556D01*
X23563482Y38361613D01*
X23232539Y38538506D01*
X22873445Y38647436D01*
X22500000Y38684217D01*
X22126556Y38647436D01*
X21767462Y38538506D01*
X21436519Y38361613D01*
X21146445Y38123556D01*
X20908388Y37833482D01*
X20744898Y37527615D01*
X20711389Y37616345D01*
X20513391Y37933958D01*
X20257235Y38206841D01*
X19952764Y38424507D01*
X19611679Y38578591D01*
X19422781Y38627493D01*
X19127000Y38511626D01*
X18873000Y38511626D01*
X18577219Y38627493D01*
X18388321Y38578591D01*
X18047236Y38424507D01*
X17742765Y38206841D01*
X17486609Y37933958D01*
X17288611Y37616345D01*
X17255102Y37527616D01*
X17091613Y37833482D01*
X16853556Y38123556D01*
X16563482Y38361613D01*
X16232539Y38538506D01*
X15873445Y38647436D01*
X15500000Y38684217D01*
X15126556Y38647436D01*
X14767462Y38538506D01*
X14436519Y38361613D01*
X14146445Y38123556D01*
X13908388Y37833482D01*
X13750001Y37537160D01*
X13591613Y37833482D01*
X13353556Y38123556D01*
X13063482Y38361613D01*
X12732539Y38538506D01*
X12373445Y38647436D01*
X12000000Y38684217D01*
X11626556Y38647436D01*
X11267462Y38538506D01*
X10936519Y38361613D01*
X10646445Y38123556D01*
X10408388Y37833482D01*
X10231495Y37502539D01*
X10122565Y37143445D01*
X10095001Y36863582D01*
X10095000Y34136419D01*
X8016484Y34136419D01*
X8127000Y34692017D01*
X8127000Y35307983D01*
X8006831Y35912112D01*
X7771111Y36481190D01*
X7428899Y36993346D01*
X6993346Y37428899D01*
X6481190Y37771111D01*
X5912112Y38006831D01*
X5307983Y38127000D01*
X4692017Y38127000D01*
X4087888Y38006831D01*
X3518810Y37771111D01*
X3006654Y37428899D01*
X2571101Y36993346D01*
X2228889Y36481190D01*
X1993169Y35912112D01*
X1873000Y35307983D01*
X660000Y35307983D01*
X660000Y44340000D01*
X59340001Y44340000D01*
X59340000Y660000D01*
G37*
X59340000Y660000D02*
X660000Y660000D01*
X660000Y4375000D01*
X9361928Y4375000D01*
X9374188Y4250518D01*
X9410498Y4130820D01*
X9469463Y4020506D01*
X9548815Y3923815D01*
X9645506Y3844463D01*
X9755820Y3785498D01*
X9875518Y3749188D01*
X10000000Y3736928D01*
X10214250Y3740000D01*
X10373000Y3898750D01*
X10373000Y4873000D01*
X9523750Y4873000D01*
X9365000Y4714250D01*
X9361928Y4375000D01*
X660000Y4375000D01*
X660000Y5625000D01*
X9361928Y5625000D01*
X9365000Y5285750D01*
X9523750Y5127000D01*
X10373000Y5127000D01*
X10373000Y6101250D01*
X10627000Y6101250D01*
X10627000Y5127000D01*
X10647000Y5127000D01*
X10647000Y4873000D01*
X10627000Y4873000D01*
X10627000Y3898750D01*
X10785750Y3740000D01*
X11000000Y3736928D01*
X11124482Y3749188D01*
X11244180Y3785498D01*
X11354494Y3844463D01*
X11451185Y3923815D01*
X11530537Y4020506D01*
X11559031Y4073813D01*
X11622038Y3997038D01*
X11756614Y3886595D01*
X11910150Y3804528D01*
X12076746Y3753992D01*
X12250000Y3736928D01*
X12750000Y3736928D01*
X12923254Y3753992D01*
X13089850Y3804528D01*
X13243386Y3886595D01*
X13377962Y3997038D01*
X13465000Y4103095D01*
X13465000Y3684796D01*
X13548969Y3262659D01*
X13713678Y2865015D01*
X13952800Y2507144D01*
X14257144Y2202800D01*
X14615015Y1963678D01*
X15012659Y1798969D01*
X15434796Y1715000D01*
X15865204Y1715000D01*
X16287341Y1798969D01*
X16684985Y1963678D01*
X17042856Y2202800D01*
X17347200Y2507144D01*
X17586322Y2865015D01*
X17751031Y3262659D01*
X17835000Y3684796D01*
X17835000Y4115204D01*
X26165000Y4115204D01*
X26165000Y3684796D01*
X26248969Y3262659D01*
X26413678Y2865015D01*
X26652800Y2507144D01*
X26957144Y2202800D01*
X27315015Y1963678D01*
X27712659Y1798969D01*
X28134796Y1715000D01*
X28565204Y1715000D01*
X28987341Y1798969D01*
X29384985Y1963678D01*
X29742856Y2202800D01*
X30047200Y2507144D01*
X30250000Y2810655D01*
X30452800Y2507144D01*
X30757144Y2202800D01*
X31115015Y1963678D01*
X31512659Y1798969D01*
X31934796Y1715000D01*
X32365204Y1715000D01*
X32787341Y1798969D01*
X33184985Y1963678D01*
X33542856Y2202800D01*
X33847200Y2507144D01*
X34086322Y2865015D01*
X34251031Y3262659D01*
X34335000Y3684796D01*
X34335000Y4115204D01*
X42665000Y4115204D01*
X42665000Y3684796D01*
X42748969Y3262659D01*
X42913678Y2865015D01*
X43152800Y2507144D01*
X43457144Y2202800D01*
X43815015Y1963678D01*
X44212659Y1798969D01*
X44634796Y1715000D01*
X45065204Y1715000D01*
X45487341Y1798969D01*
X45884985Y1963678D01*
X46242856Y2202800D01*
X46547200Y2507144D01*
X46786322Y2865015D01*
X46951031Y3262659D01*
X47035000Y3684796D01*
X47035000Y4115204D01*
X46951031Y4537341D01*
X46786322Y4934985D01*
X46547200Y5292856D01*
X46242856Y5597200D01*
X45884985Y5836322D01*
X45487341Y6001031D01*
X45065204Y6085000D01*
X44634796Y6085000D01*
X44212659Y6001031D01*
X43815015Y5836322D01*
X43457144Y5597200D01*
X43152800Y5292856D01*
X42913678Y4934985D01*
X42748969Y4537341D01*
X42665000Y4115204D01*
X34335000Y4115204D01*
X34251031Y4537341D01*
X34086322Y4934985D01*
X33847200Y5292856D01*
X33542856Y5597200D01*
X33184985Y5836322D01*
X32787341Y6001031D01*
X32365204Y6085000D01*
X31934796Y6085000D01*
X31512659Y6001031D01*
X31115015Y5836322D01*
X30757144Y5597200D01*
X30452800Y5292856D01*
X30250000Y4989345D01*
X30047200Y5292856D01*
X29742856Y5597200D01*
X29384985Y5836322D01*
X28987341Y6001031D01*
X28565204Y6085000D01*
X28134796Y6085000D01*
X27712659Y6001031D01*
X27315015Y5836322D01*
X26957144Y5597200D01*
X26652800Y5292856D01*
X26413678Y4934985D01*
X26248969Y4537341D01*
X26165000Y4115204D01*
X17835000Y4115204D01*
X17751031Y4537341D01*
X17586322Y4934985D01*
X17347200Y5292856D01*
X17042856Y5597200D01*
X16684985Y5836322D01*
X16287341Y6001031D01*
X15865204Y6085000D01*
X15434796Y6085000D01*
X15012659Y6001031D01*
X14615015Y5836322D01*
X14257144Y5597200D01*
X13952800Y5292856D01*
X13713678Y4934985D01*
X13638072Y4752455D01*
X13638072Y5375000D01*
X13621008Y5548254D01*
X13570472Y5714850D01*
X13549653Y5753800D01*
X13593891Y5745000D01*
X13906109Y5745000D01*
X14212327Y5805911D01*
X14500779Y5925391D01*
X14760379Y6098850D01*
X14981150Y6319621D01*
X15154609Y6579221D01*
X15274089Y6867673D01*
X15335000Y7173891D01*
X15335000Y7486109D01*
X15274089Y7792327D01*
X15154609Y8080779D01*
X15112671Y8143545D01*
X17141048Y8143545D01*
X17180730Y7893551D01*
X17268422Y7656104D01*
X17315799Y7567466D01*
X17544473Y7514078D01*
X18250395Y8220000D01*
X17544473Y8925922D01*
X17315799Y8872534D01*
X17209905Y8642626D01*
X17150898Y8396476D01*
X17141048Y8143545D01*
X15112671Y8143545D01*
X14981150Y8340379D01*
X14760379Y8561150D01*
X14500779Y8734609D01*
X14212327Y8854089D01*
X13906109Y8915000D01*
X13609861Y8915000D01*
X13621008Y8951746D01*
X13638072Y9125000D01*
X13638072Y9875000D01*
X13621008Y10048254D01*
X13570472Y10214850D01*
X13488405Y10368386D01*
X13377962Y10502962D01*
X13243386Y10613405D01*
X13089850Y10695472D01*
X12923254Y10746008D01*
X12750000Y10763072D01*
X12250000Y10763072D01*
X12076746Y10746008D01*
X11910150Y10695472D01*
X11756614Y10613405D01*
X11622038Y10502962D01*
X11511595Y10368386D01*
X11429528Y10214850D01*
X11378992Y10048254D01*
X11361928Y9875000D01*
X11361928Y9125000D01*
X11378992Y8951746D01*
X11429528Y8785150D01*
X11511595Y8631614D01*
X11622038Y8497038D01*
X11756614Y8386595D01*
X11765992Y8381582D01*
X11794454Y8287754D01*
X11865026Y8155724D01*
X11889871Y8125451D01*
X11959999Y8039999D01*
X11989003Y8016196D01*
X12223748Y7781451D01*
X12165000Y7486109D01*
X12165000Y7173891D01*
X12223748Y6878549D01*
X11989003Y6643804D01*
X11959999Y6620001D01*
X11915948Y6566324D01*
X11865026Y6504276D01*
X11811371Y6403895D01*
X11794454Y6372246D01*
X11750997Y6228985D01*
X11740000Y6117332D01*
X11740000Y6117322D01*
X11738119Y6098227D01*
X11622038Y6002962D01*
X11559031Y5926187D01*
X11530537Y5979494D01*
X11451185Y6076185D01*
X11354494Y6155537D01*
X11244180Y6214502D01*
X11124482Y6250812D01*
X11000000Y6263072D01*
X10785750Y6260000D01*
X10627000Y6101250D01*
X10373000Y6101250D01*
X10214250Y6260000D01*
X10000000Y6263072D01*
X9875518Y6250812D01*
X9755820Y6214502D01*
X9645506Y6155537D01*
X9548815Y6076185D01*
X9469463Y5979494D01*
X9410498Y5869180D01*
X9374188Y5749482D01*
X9361928Y5625000D01*
X660000Y5625000D01*
X660000Y10307983D01*
X1873000Y10307983D01*
X1873000Y9692017D01*
X1993169Y9087888D01*
X2228889Y8518810D01*
X2571101Y8006654D01*
X3006654Y7571101D01*
X3518810Y7228889D01*
X4087888Y6993169D01*
X4692017Y6873000D01*
X5307983Y6873000D01*
X5912112Y6993169D01*
X6481190Y7228889D01*
X6993346Y7571101D01*
X7428899Y8006654D01*
X7771111Y8518810D01*
X8006831Y9087888D01*
X8127000Y9692017D01*
X8127000Y10307983D01*
X8006831Y10912112D01*
X7771111Y11481190D01*
X7428899Y11993346D01*
X7227772Y12194473D01*
X14434078Y12194473D01*
X14487466Y11965799D01*
X14717374Y11859905D01*
X14963524Y11800898D01*
X15216455Y11791048D01*
X15466449Y11830730D01*
X15703896Y11918422D01*
X15792534Y11965799D01*
X15845922Y12194473D01*
X16724078Y12194473D01*
X16777466Y11965799D01*
X17007374Y11859905D01*
X17253524Y11800898D01*
X17506455Y11791048D01*
X17756449Y11830730D01*
X17993896Y11918422D01*
X18082534Y11965799D01*
X18135922Y12194473D01*
X17430000Y12900395D01*
X16724078Y12194473D01*
X15845922Y12194473D01*
X15140000Y12900395D01*
X14434078Y12194473D01*
X7227772Y12194473D01*
X6993346Y12428899D01*
X6481190Y12771111D01*
X5920046Y13003545D01*
X13851048Y13003545D01*
X13890730Y12753551D01*
X13978422Y12516104D01*
X14025799Y12427466D01*
X14254473Y12374078D01*
X14960395Y13080000D01*
X15319605Y13080000D01*
X16025527Y12374078D01*
X16254201Y12427466D01*
X16282713Y12489368D01*
X16315799Y12427466D01*
X16544473Y12374078D01*
X17250395Y13080000D01*
X16544473Y13785922D01*
X16315799Y13732534D01*
X16287287Y13670632D01*
X16254201Y13732534D01*
X16025527Y13785922D01*
X15319605Y13080000D01*
X14960395Y13080000D01*
X14254473Y13785922D01*
X14025799Y13732534D01*
X13919905Y13502626D01*
X13860898Y13256476D01*
X13851048Y13003545D01*
X5920046Y13003545D01*
X5912112Y13006831D01*
X5307983Y13127000D01*
X4692017Y13127000D01*
X4087888Y13006831D01*
X3518810Y12771111D01*
X3006654Y12428899D01*
X2571101Y11993346D01*
X2228889Y11481190D01*
X1993169Y10912112D01*
X1873000Y10307983D01*
X660000Y10307983D01*
X660000Y13965527D01*
X14434078Y13965527D01*
X15140000Y13259605D01*
X15845922Y13965527D01*
X15792534Y14194201D01*
X15562626Y14300095D01*
X15316476Y14359102D01*
X15063545Y14368952D01*
X14813551Y14329270D01*
X14576104Y14241578D01*
X14487466Y14194201D01*
X14434078Y13965527D01*
X660000Y13965527D01*
X660000Y35307983D01*
X1873000Y35307983D01*
X1873000Y34692017D01*
X1993169Y34087888D01*
X2228889Y33518810D01*
X2571101Y33006654D01*
X3006654Y32571101D01*
X3518810Y32228889D01*
X4087888Y31993169D01*
X4692017Y31873000D01*
X5307983Y31873000D01*
X5912112Y31993169D01*
X6481190Y32228889D01*
X6993346Y32571101D01*
X7428899Y33006654D01*
X7771111Y33518810D01*
X8006831Y34087888D01*
X8016484Y34136419D01*
X10095000Y34136419D01*
X10122564Y33856556D01*
X10231494Y33497462D01*
X10408387Y33166518D01*
X10646444Y32876444D01*
X10936518Y32638387D01*
X11267461Y32461494D01*
X11626555Y32352564D01*
X12000000Y32315783D01*
X12373444Y32352564D01*
X12729869Y32460684D01*
X12790000Y32400553D01*
X12790001Y31692915D01*
X12786444Y31656800D01*
X12800635Y31512715D01*
X12834842Y31399953D01*
X12842664Y31374167D01*
X12910914Y31246480D01*
X13002763Y31134562D01*
X13030808Y31111546D01*
X15861546Y28280807D01*
X15884562Y28252762D01*
X15966551Y28185475D01*
X15996480Y28160913D01*
X16124166Y28092663D01*
X16262715Y28050635D01*
X16406800Y28036444D01*
X16442905Y28040000D01*
X25602354Y28040000D01*
X27040000Y26602353D01*
X27040001Y24792785D01*
X26996394Y24790949D01*
X26936082Y24776290D01*
X26875354Y24763323D01*
X26832543Y24744883D01*
X26751771Y24716620D01*
X26706800Y24704344D01*
X26651238Y24676619D01*
X26594949Y24650478D01*
X26557322Y24622979D01*
X26484846Y24577439D01*
X26443746Y24555471D01*
X26395763Y24516093D01*
X26346678Y24478062D01*
X26316111Y24442876D01*
X26255600Y24382365D01*
X26220414Y24351798D01*
X26182377Y24302705D01*
X26155000Y24269345D01*
X26155000Y25463582D01*
X26127436Y25743445D01*
X26018506Y26102539D01*
X25841613Y26433482D01*
X25603556Y26723556D01*
X25313482Y26961613D01*
X24982539Y27138506D01*
X24623445Y27247436D01*
X24250000Y27284217D01*
X23876556Y27247436D01*
X23517462Y27138506D01*
X23186519Y26961613D01*
X22896445Y26723556D01*
X22658388Y26433482D01*
X22500001Y26137160D01*
X22341613Y26433482D01*
X22103556Y26723556D01*
X21813482Y26961613D01*
X21482539Y27138506D01*
X21123445Y27247436D01*
X20750000Y27284217D01*
X20376556Y27247436D01*
X20017462Y27138506D01*
X19686519Y26961613D01*
X19396445Y26723556D01*
X19158388Y26433482D01*
X19000001Y26137160D01*
X18841613Y26433482D01*
X18603556Y26723556D01*
X18313482Y26961613D01*
X17982539Y27138506D01*
X17623445Y27247436D01*
X17250000Y27284217D01*
X16876556Y27247436D01*
X16517462Y27138506D01*
X16186519Y26961613D01*
X15896445Y26723556D01*
X15658388Y26433482D01*
X15500001Y26137160D01*
X15341613Y26433482D01*
X15103556Y26723556D01*
X14813482Y26961613D01*
X14482539Y27138506D01*
X14123445Y27247436D01*
X13750000Y27284217D01*
X13376556Y27247436D01*
X13017462Y27138506D01*
X12686519Y26961613D01*
X12396445Y26723556D01*
X12158388Y26433482D01*
X11981495Y26102539D01*
X11872565Y25743445D01*
X11845001Y25463582D01*
X11845000Y22736419D01*
X11872564Y22456556D01*
X11981494Y22097462D01*
X12158387Y21766518D01*
X12396444Y21476444D01*
X12686518Y21238387D01*
X13017461Y21061494D01*
X13376555Y20952564D01*
X13750000Y20915783D01*
X14123444Y20952564D01*
X14482538Y21061494D01*
X14813482Y21238387D01*
X15103556Y21476444D01*
X15341613Y21766518D01*
X15500000Y22062839D01*
X15658387Y21766518D01*
X15896444Y21476444D01*
X16186518Y21238387D01*
X16517461Y21061494D01*
X16876555Y20952564D01*
X17250000Y20915783D01*
X17623444Y20952564D01*
X17982538Y21061494D01*
X18313482Y21238387D01*
X18603556Y21476444D01*
X18841613Y21766518D01*
X19000000Y22062839D01*
X19158387Y21766518D01*
X19396444Y21476444D01*
X19686518Y21238387D01*
X20015000Y21062809D01*
X20015000Y20076800D01*
X19587188Y20076800D01*
X19582079Y20077742D01*
X19514931Y20076800D01*
X19483898Y20076800D01*
X19478744Y20076292D01*
X19473587Y20076220D01*
X19442868Y20072759D01*
X19375918Y20066165D01*
X19370940Y20064655D01*
X19327044Y20059709D01*
X19280483Y20057749D01*
X19220162Y20043089D01*
X19159441Y20030123D01*
X19116640Y20011687D01*
X19035852Y19983419D01*
X18990889Y19971145D01*
X18935337Y19943426D01*
X18879036Y19917279D01*
X18841408Y19889780D01*
X18768931Y19844240D01*
X18727831Y19822271D01*
X18679841Y19782887D01*
X18630766Y19744864D01*
X18600201Y19709681D01*
X18539685Y19649165D01*
X18504497Y19618596D01*
X18466473Y19569517D01*
X18427090Y19521529D01*
X18405120Y19480426D01*
X18359583Y19407955D01*
X18332082Y19370325D01*
X18305935Y19314024D01*
X18278216Y19258472D01*
X18265942Y19213509D01*
X18237673Y19132718D01*
X18219238Y19089919D01*
X18206273Y19029202D01*
X18191612Y18968878D01*
X18189652Y18922320D01*
X18184705Y18878419D01*
X18183196Y18873443D01*
X18176607Y18806539D01*
X18173140Y18775772D01*
X18173068Y18770606D01*
X18172561Y18765463D01*
X18172561Y18734473D01*
X18172363Y18720350D01*
X18171619Y18716315D01*
X18171963Y18691799D01*
X18171619Y18667282D01*
X18172363Y18663247D01*
X18172561Y18649124D01*
X18172561Y18618135D01*
X18173068Y18612992D01*
X18173140Y18607825D01*
X18176607Y18577051D01*
X18183196Y18510155D01*
X18184705Y18505179D01*
X18189652Y18461277D01*
X18191612Y18414719D01*
X18206273Y18354395D01*
X18219238Y18293678D01*
X18237673Y18250879D01*
X18265942Y18170088D01*
X18278216Y18125125D01*
X18305935Y18069573D01*
X18332082Y18013272D01*
X18359583Y17975642D01*
X18405120Y17903171D01*
X18427090Y17862068D01*
X18443726Y17841796D01*
X18427090Y17821525D01*
X18405120Y17780422D01*
X18359583Y17707951D01*
X18332082Y17670321D01*
X18305935Y17614020D01*
X18278216Y17558468D01*
X18265942Y17513505D01*
X18237673Y17432714D01*
X18219238Y17389915D01*
X18206273Y17329198D01*
X18191612Y17268874D01*
X18189652Y17222316D01*
X18184705Y17178415D01*
X18183196Y17173439D01*
X18176607Y17106535D01*
X18173140Y17075768D01*
X18173068Y17070602D01*
X18172561Y17065459D01*
X18172561Y17034469D01*
X18172363Y17020346D01*
X18171619Y17016311D01*
X18171963Y16991795D01*
X18171619Y16967278D01*
X18172363Y16963243D01*
X18172561Y16949120D01*
X18172561Y16918131D01*
X18173068Y16912988D01*
X18173140Y16907821D01*
X18176607Y16877047D01*
X18183196Y16810151D01*
X18184705Y16805175D01*
X18189652Y16761273D01*
X18191612Y16714715D01*
X18206273Y16654391D01*
X18219238Y16593674D01*
X18237673Y16550875D01*
X18265942Y16470084D01*
X18278216Y16425121D01*
X18305935Y16369569D01*
X18332082Y16313268D01*
X18359583Y16275638D01*
X18405120Y16203167D01*
X18427090Y16162064D01*
X18443726Y16141792D01*
X18427090Y16121521D01*
X18405120Y16080418D01*
X18359583Y16007947D01*
X18332082Y15970317D01*
X18305935Y15914016D01*
X18278216Y15858464D01*
X18265942Y15813501D01*
X18237673Y15732710D01*
X18219238Y15689911D01*
X18206273Y15629194D01*
X18191612Y15568870D01*
X18189652Y15522312D01*
X18184705Y15478411D01*
X18183196Y15473435D01*
X18176609Y15406554D01*
X18173140Y15375764D01*
X18173068Y15370598D01*
X18172561Y15365455D01*
X18172561Y15334465D01*
X18172363Y15320342D01*
X18171619Y15316307D01*
X18171963Y15291790D01*
X18171619Y15267274D01*
X18172363Y15263239D01*
X18172561Y15249116D01*
X18172561Y15218127D01*
X18173068Y15212984D01*
X18173140Y15207817D01*
X18176607Y15177043D01*
X18183196Y15110147D01*
X18184705Y15105171D01*
X18189652Y15061269D01*
X18191612Y15014711D01*
X18206273Y14954387D01*
X18219238Y14893670D01*
X18237673Y14850871D01*
X18265942Y14770080D01*
X18278216Y14725117D01*
X18305935Y14669565D01*
X18332082Y14613264D01*
X18359583Y14575634D01*
X18405120Y14503163D01*
X18427090Y14462060D01*
X18443726Y14441788D01*
X18427090Y14421517D01*
X18405120Y14380414D01*
X18359583Y14307943D01*
X18332082Y14270313D01*
X18305935Y14214012D01*
X18278216Y14158460D01*
X18265942Y14113497D01*
X18254472Y14080716D01*
X18252790Y14082398D01*
X18135921Y13965529D01*
X18082534Y14194201D01*
X17852626Y14300095D01*
X17606476Y14359102D01*
X17353545Y14368952D01*
X17103551Y14329270D01*
X16866104Y14241578D01*
X16777466Y14194201D01*
X16724078Y13965527D01*
X17430000Y13259605D01*
X17444143Y13273747D01*
X17623748Y13094142D01*
X17609605Y13080000D01*
X18315527Y12374078D01*
X18544201Y12427466D01*
X18607683Y12565292D01*
X18630766Y12538721D01*
X18679841Y12500698D01*
X18727831Y12461314D01*
X18768931Y12439345D01*
X18841408Y12393805D01*
X18879036Y12366306D01*
X18935337Y12340159D01*
X18990889Y12312440D01*
X19035852Y12300166D01*
X19116642Y12271898D01*
X19159436Y12253464D01*
X19220154Y12240498D01*
X19280483Y12225836D01*
X19327041Y12223876D01*
X19370938Y12218930D01*
X19375918Y12217419D01*
X19442848Y12210827D01*
X19473582Y12207364D01*
X19478745Y12207292D01*
X19483898Y12206784D01*
X19514899Y12206784D01*
X19582074Y12205841D01*
X19587189Y12206784D01*
X20333267Y12206784D01*
X20324051Y12168862D01*
X20322091Y12122302D01*
X20317144Y12078402D01*
X20315635Y12073427D01*
X20309049Y12006560D01*
X20305579Y11975762D01*
X20305506Y11970588D01*
X20305000Y11965447D01*
X20305000Y11934515D01*
X20304056Y11867271D01*
X20305000Y11862151D01*
X20304999Y10991040D01*
X20304999Y10991037D01*
X20305001Y10425000D01*
X19744064Y10425000D01*
X19738955Y10425942D01*
X19671763Y10425000D01*
X19640767Y10425000D01*
X19635623Y10424493D01*
X19630463Y10424421D01*
X19599707Y10420956D01*
X19541805Y10415253D01*
X19506866Y10413782D01*
X19446552Y10399122D01*
X19385841Y10386159D01*
X19343031Y10367719D01*
X19328282Y10362558D01*
X19283325Y10350287D01*
X19227777Y10322570D01*
X19171460Y10296415D01*
X19133837Y10268918D01*
X19120607Y10260605D01*
X19079505Y10238636D01*
X19031525Y10199260D01*
X18982442Y10161231D01*
X18951877Y10126048D01*
X18940828Y10114999D01*
X18905645Y10084434D01*
X18867622Y10035359D01*
X18828236Y9987366D01*
X18806268Y9946267D01*
X18797960Y9933044D01*
X18770455Y9895410D01*
X18744304Y9839101D01*
X18716587Y9783553D01*
X18704314Y9738591D01*
X18699154Y9723846D01*
X18680716Y9681041D01*
X18667750Y9620322D01*
X18653090Y9560002D01*
X18651129Y9513439D01*
X18649381Y9497918D01*
X18647773Y9489202D01*
X18606476Y9499102D01*
X18353545Y9508952D01*
X18103551Y9469270D01*
X17866104Y9381578D01*
X17777466Y9334201D01*
X17724078Y9105527D01*
X18430000Y8399605D01*
X18444143Y8413747D01*
X18623748Y8234142D01*
X18609605Y8220000D01*
X18623748Y8205857D01*
X18444143Y8026252D01*
X18430000Y8040395D01*
X17724078Y7334473D01*
X17777466Y7105799D01*
X18007374Y6999905D01*
X18253524Y6940898D01*
X18266396Y6940397D01*
X18214381Y6814821D01*
X18165000Y6566561D01*
X18165000Y6313439D01*
X18214381Y6065179D01*
X18311247Y5831324D01*
X18451875Y5620860D01*
X18630860Y5441875D01*
X18841324Y5301247D01*
X19075179Y5204381D01*
X19323439Y5155000D01*
X19576561Y5155000D01*
X19824821Y5204381D01*
X20058676Y5301247D01*
X20269140Y5441875D01*
X20448125Y5620860D01*
X20470000Y5653598D01*
X20491875Y5620860D01*
X20670860Y5441875D01*
X20881324Y5301247D01*
X21115179Y5204381D01*
X21363439Y5155000D01*
X21616561Y5155000D01*
X21864821Y5204381D01*
X22098676Y5301247D01*
X22309140Y5441875D01*
X22488125Y5620860D01*
X22510000Y5653598D01*
X22531875Y5620860D01*
X22710860Y5441875D01*
X22921324Y5301247D01*
X23155179Y5204381D01*
X23403439Y5155000D01*
X23656561Y5155000D01*
X23904821Y5204381D01*
X24138676Y5301247D01*
X24349140Y5441875D01*
X24528125Y5620860D01*
X24550000Y5653598D01*
X24571875Y5620860D01*
X24750860Y5441875D01*
X24961324Y5301247D01*
X25195179Y5204381D01*
X25443439Y5155000D01*
X25696561Y5155000D01*
X25944821Y5204381D01*
X26178676Y5301247D01*
X26389140Y5441875D01*
X26568125Y5620860D01*
X26708753Y5831324D01*
X26805619Y6065179D01*
X26855000Y6313439D01*
X26855000Y6566561D01*
X26805619Y6814821D01*
X26708753Y7048676D01*
X26568125Y7259140D01*
X26389140Y7438125D01*
X26317328Y7486109D01*
X28665000Y7486109D01*
X28665000Y7173891D01*
X28725911Y6867673D01*
X28845391Y6579221D01*
X29018850Y6319621D01*
X29239621Y6098850D01*
X29499221Y5925391D01*
X29787673Y5805911D01*
X30093891Y5745000D01*
X30406109Y5745000D01*
X30712327Y5805911D01*
X31000779Y5925391D01*
X31260379Y6098850D01*
X31481150Y6319621D01*
X31654609Y6579221D01*
X31774089Y6867673D01*
X31835000Y7173891D01*
X31835000Y7486109D01*
X31774089Y7792327D01*
X31654609Y8080779D01*
X31612671Y8143545D01*
X33641048Y8143545D01*
X33680730Y7893551D01*
X33768422Y7656104D01*
X33815799Y7567466D01*
X34044473Y7514078D01*
X34750395Y8220000D01*
X34044473Y8925922D01*
X33815799Y8872534D01*
X33709905Y8642626D01*
X33650898Y8396476D01*
X33641048Y8143545D01*
X31612671Y8143545D01*
X31481150Y8340379D01*
X31260379Y8561150D01*
X31000779Y8734609D01*
X30712327Y8854089D01*
X30406109Y8915000D01*
X30093891Y8915000D01*
X29787673Y8854089D01*
X29499221Y8734609D01*
X29239621Y8561150D01*
X29018850Y8340379D01*
X28845391Y8080779D01*
X28725911Y7792327D01*
X28665000Y7486109D01*
X26317328Y7486109D01*
X26305000Y7494346D01*
X26305000Y9105527D01*
X34224078Y9105527D01*
X34930000Y8399605D01*
X35635922Y9105527D01*
X35582534Y9334201D01*
X35352626Y9440095D01*
X35106476Y9499102D01*
X34853545Y9508952D01*
X34603551Y9469270D01*
X34366104Y9381578D01*
X34277466Y9334201D01*
X34224078Y9105527D01*
X26305000Y9105527D01*
X26305000Y11712095D01*
X26308556Y11748200D01*
X26301186Y11823033D01*
X26393524Y11800898D01*
X26646455Y11791048D01*
X26896449Y11830730D01*
X27133896Y11918422D01*
X27222534Y11965799D01*
X27275922Y12194473D01*
X28154078Y12194473D01*
X28207466Y11965799D01*
X28437374Y11859905D01*
X28683524Y11800898D01*
X28936455Y11791048D01*
X29186449Y11830730D01*
X29423896Y11918422D01*
X29512534Y11965799D01*
X29565922Y12194473D01*
X30934078Y12194473D01*
X30987466Y11965799D01*
X31217374Y11859905D01*
X31463524Y11800898D01*
X31716455Y11791048D01*
X31966449Y11830730D01*
X32203896Y11918422D01*
X32292534Y11965799D01*
X32345922Y12194473D01*
X33224078Y12194473D01*
X33277466Y11965799D01*
X33507374Y11859905D01*
X33753524Y11800898D01*
X34006455Y11791048D01*
X34256449Y11830730D01*
X34493896Y11918422D01*
X34582534Y11965799D01*
X34635922Y12194473D01*
X33930000Y12900395D01*
X33224078Y12194473D01*
X32345922Y12194473D01*
X31640000Y12900395D01*
X30934078Y12194473D01*
X29565922Y12194473D01*
X28860000Y12900395D01*
X28154078Y12194473D01*
X27275922Y12194473D01*
X26570000Y12900395D01*
X26555858Y12886252D01*
X26376253Y13065857D01*
X26390395Y13080000D01*
X26749605Y13080000D01*
X27455527Y12374078D01*
X27684201Y12427466D01*
X27712713Y12489368D01*
X27745799Y12427466D01*
X27974473Y12374078D01*
X28680395Y13080000D01*
X29039605Y13080000D01*
X29745527Y12374078D01*
X29974201Y12427466D01*
X30080095Y12657374D01*
X30139102Y12903524D01*
X30142997Y13003545D01*
X30351048Y13003545D01*
X30390730Y12753551D01*
X30478422Y12516104D01*
X30525799Y12427466D01*
X30754473Y12374078D01*
X31460395Y13080000D01*
X31819605Y13080000D01*
X32525527Y12374078D01*
X32754201Y12427466D01*
X32782713Y12489368D01*
X32815799Y12427466D01*
X33044473Y12374078D01*
X33750395Y13080000D01*
X34109605Y13080000D01*
X34815527Y12374078D01*
X35044201Y12427466D01*
X35150095Y12657374D01*
X35209102Y12903524D01*
X35218952Y13156455D01*
X35179270Y13406449D01*
X35091578Y13643896D01*
X35044201Y13732534D01*
X34815527Y13785922D01*
X34109605Y13080000D01*
X33750395Y13080000D01*
X33044473Y13785922D01*
X32815799Y13732534D01*
X32787287Y13670632D01*
X32754201Y13732534D01*
X32525527Y13785922D01*
X31819605Y13080000D01*
X31460395Y13080000D01*
X30754473Y13785922D01*
X30525799Y13732534D01*
X30419905Y13502626D01*
X30360898Y13256476D01*
X30351048Y13003545D01*
X30142997Y13003545D01*
X30148952Y13156455D01*
X30109270Y13406449D01*
X30021578Y13643896D01*
X29974201Y13732534D01*
X29745527Y13785922D01*
X29039605Y13080000D01*
X28680395Y13080000D01*
X27974473Y13785922D01*
X27745799Y13732534D01*
X27717287Y13670632D01*
X27684201Y13732534D01*
X27455527Y13785922D01*
X26749605Y13080000D01*
X26390395Y13080000D01*
X26376253Y13094142D01*
X26555858Y13273747D01*
X26570000Y13259605D01*
X27275922Y13965527D01*
X28154078Y13965527D01*
X28860000Y13259605D01*
X29565922Y13965527D01*
X30934078Y13965527D01*
X31640000Y13259605D01*
X32345922Y13965527D01*
X33224078Y13965527D01*
X33930000Y13259605D01*
X34635922Y13965527D01*
X34582534Y14194201D01*
X34352626Y14300095D01*
X34106476Y14359102D01*
X33853545Y14368952D01*
X33603551Y14329270D01*
X33366104Y14241578D01*
X33277466Y14194201D01*
X33224078Y13965527D01*
X32345922Y13965527D01*
X32292534Y14194201D01*
X32062626Y14300095D01*
X31816476Y14359102D01*
X31563545Y14368952D01*
X31313551Y14329270D01*
X31076104Y14241578D01*
X30987466Y14194201D01*
X30934078Y13965527D01*
X29565922Y13965527D01*
X29512534Y14194201D01*
X29282626Y14300095D01*
X29036476Y14359102D01*
X28783545Y14368952D01*
X28533551Y14329270D01*
X28296104Y14241578D01*
X28207466Y14194201D01*
X28154078Y13965527D01*
X27275922Y13965527D01*
X27222534Y14194201D01*
X26992626Y14300095D01*
X26746476Y14359102D01*
X26493545Y14368952D01*
X26243551Y14329270D01*
X26153752Y14296106D01*
X28719193Y16861546D01*
X28747238Y16884562D01*
X28839087Y16996480D01*
X28851290Y17019311D01*
X28907337Y17124166D01*
X28949365Y17262715D01*
X28963556Y17406800D01*
X28960000Y17442905D01*
X28960000Y19507216D01*
X29003605Y19509052D01*
X29063930Y19523714D01*
X29124650Y19536680D01*
X29167449Y19555116D01*
X29248229Y19583381D01*
X29293200Y19595657D01*
X29348756Y19623379D01*
X29405052Y19649523D01*
X29442683Y19677025D01*
X29515158Y19722564D01*
X29556253Y19744530D01*
X29604229Y19783902D01*
X29653322Y19821939D01*
X29683889Y19857125D01*
X29744400Y19917636D01*
X29779586Y19948203D01*
X29817617Y19997288D01*
X29856995Y20045271D01*
X29878963Y20086371D01*
X29924503Y20158847D01*
X29952002Y20196474D01*
X29978143Y20252763D01*
X30005868Y20308325D01*
X30018144Y20353296D01*
X30046407Y20434068D01*
X30064847Y20476879D01*
X30077814Y20537607D01*
X30092473Y20597919D01*
X30094433Y20644484D01*
X30099379Y20688379D01*
X30100889Y20693357D01*
X30107482Y20760299D01*
X30110944Y20791025D01*
X30111016Y20796183D01*
X30111524Y20801337D01*
X30111524Y20832369D01*
X30111721Y20846446D01*
X30112466Y20850484D01*
X30112122Y20875000D01*
X30112466Y20899517D01*
X30111721Y20903555D01*
X30111524Y20917632D01*
X30111524Y20948665D01*
X30111016Y20953819D01*
X30110944Y20958976D01*
X30107483Y20989695D01*
X30100889Y21056645D01*
X30099379Y21061623D01*
X30094433Y21105517D01*
X30092473Y21152082D01*
X30077814Y21212394D01*
X30064847Y21273122D01*
X30046407Y21315933D01*
X30018144Y21396705D01*
X30005868Y21441676D01*
X29978143Y21497238D01*
X29952002Y21553527D01*
X29924503Y21591154D01*
X29878963Y21663630D01*
X29856995Y21704730D01*
X29840359Y21725001D01*
X29856995Y21745271D01*
X29878963Y21786371D01*
X29924503Y21858847D01*
X29952002Y21896474D01*
X29978143Y21952763D01*
X30005868Y22008325D01*
X30018144Y22053296D01*
X30046407Y22134068D01*
X30064847Y22176879D01*
X30077814Y22237607D01*
X30092473Y22297919D01*
X30094433Y22344484D01*
X30099379Y22388379D01*
X30100889Y22393357D01*
X30107482Y22460299D01*
X30110944Y22491025D01*
X30111016Y22496183D01*
X30111524Y22501337D01*
X30111524Y22532369D01*
X30111721Y22546446D01*
X30112466Y22550484D01*
X30112122Y22575000D01*
X30112466Y22599517D01*
X30111721Y22603555D01*
X30111524Y22617632D01*
X30111524Y22648665D01*
X30111016Y22653819D01*
X30110944Y22658976D01*
X30107483Y22689695D01*
X30100889Y22756645D01*
X30099379Y22761623D01*
X30094433Y22805517D01*
X30092473Y22852082D01*
X30077814Y22912394D01*
X30064847Y22973122D01*
X30046407Y23015933D01*
X30018144Y23096705D01*
X30005868Y23141676D01*
X29978143Y23197238D01*
X29952002Y23253527D01*
X29924503Y23291154D01*
X29878963Y23363630D01*
X29856995Y23404730D01*
X29817617Y23452713D01*
X29779586Y23501798D01*
X29744400Y23532365D01*
X29683889Y23592876D01*
X29653322Y23628062D01*
X29604229Y23666099D01*
X29556253Y23705471D01*
X29515158Y23727437D01*
X29442683Y23772976D01*
X29405052Y23800478D01*
X29348756Y23826622D01*
X29293200Y23854344D01*
X29248229Y23866620D01*
X29167453Y23894884D01*
X29124645Y23913323D01*
X29063917Y23926290D01*
X29003605Y23940949D01*
X28957045Y23942909D01*
X28928363Y23946141D01*
X28940948Y23997919D01*
X28942908Y24044480D01*
X28947854Y24088376D01*
X28949365Y24093356D01*
X28955957Y24160286D01*
X28959420Y24191020D01*
X28959492Y24196183D01*
X28960000Y24201336D01*
X28960000Y24232337D01*
X28960943Y24299512D01*
X28960000Y24304627D01*
X28960000Y27057106D01*
X28963555Y27093201D01*
X28960000Y27129296D01*
X28960000Y27129305D01*
X28949365Y27237285D01*
X28907337Y27375833D01*
X28839087Y27503520D01*
X28815441Y27532332D01*
X28770253Y27587394D01*
X28770250Y27587397D01*
X28747237Y27615438D01*
X28719197Y27638450D01*
X26708130Y29649517D01*
X32564058Y29649517D01*
X32564402Y29625001D01*
X32564058Y29600484D01*
X32564802Y29596449D01*
X32565000Y29582326D01*
X32565000Y29551337D01*
X32565507Y29546194D01*
X32565579Y29541027D01*
X32569046Y29510253D01*
X32575635Y29443357D01*
X32577144Y29438381D01*
X32582091Y29394480D01*
X32584051Y29347920D01*
X32598710Y29287608D01*
X32611677Y29226880D01*
X32630116Y29184072D01*
X32658380Y29103296D01*
X32670656Y29058325D01*
X32698378Y29002769D01*
X32724522Y28946473D01*
X32752024Y28908842D01*
X32797563Y28836367D01*
X32819529Y28795272D01*
X32836165Y28775000D01*
X32819529Y28754729D01*
X32797563Y28713634D01*
X32752024Y28641159D01*
X32724522Y28603528D01*
X32698378Y28547232D01*
X32670656Y28491676D01*
X32658380Y28446705D01*
X32630116Y28365929D01*
X32611677Y28323121D01*
X32598710Y28262393D01*
X32584051Y28202081D01*
X32582091Y28155521D01*
X32577144Y28111621D01*
X32575635Y28106645D01*
X32569046Y28039741D01*
X32565579Y28008974D01*
X32565507Y28003808D01*
X32565000Y27998665D01*
X32565000Y27967675D01*
X32564802Y27953552D01*
X32564058Y27949517D01*
X32564402Y27925000D01*
X32564058Y27900484D01*
X32564802Y27896449D01*
X32565000Y27882326D01*
X32565000Y27851337D01*
X32565507Y27846194D01*
X32565579Y27841027D01*
X32569046Y27810253D01*
X32575635Y27743357D01*
X32577144Y27738381D01*
X32582091Y27694480D01*
X32584051Y27647920D01*
X32598710Y27587608D01*
X32611677Y27526880D01*
X32630116Y27484072D01*
X32658380Y27403296D01*
X32670656Y27358325D01*
X32698378Y27302769D01*
X32724522Y27246473D01*
X32752024Y27208842D01*
X32797563Y27136367D01*
X32819529Y27095272D01*
X32858901Y27047296D01*
X32896938Y26998203D01*
X32932124Y26967636D01*
X32992635Y26907125D01*
X33023202Y26871939D01*
X33072287Y26833908D01*
X33120270Y26794530D01*
X33161370Y26772562D01*
X33233846Y26727022D01*
X33271473Y26699523D01*
X33327762Y26673382D01*
X33383324Y26645657D01*
X33428295Y26633381D01*
X33509069Y26605118D01*
X33551873Y26586680D01*
X33612598Y26573713D01*
X33672918Y26559052D01*
X33719479Y26557092D01*
X33763375Y26552146D01*
X33768355Y26550635D01*
X33835285Y26544043D01*
X33866019Y26540580D01*
X33871182Y26540508D01*
X33876335Y26540000D01*
X33907336Y26540000D01*
X33974511Y26539057D01*
X33979626Y26540000D01*
X34818268Y26540000D01*
X34809052Y26502081D01*
X34807092Y26455520D01*
X34802145Y26411620D01*
X34800636Y26406645D01*
X34794050Y26339778D01*
X34790580Y26308980D01*
X34790507Y26303806D01*
X34790001Y26298665D01*
X34790001Y26267735D01*
X34789057Y26200489D01*
X34790001Y26195369D01*
X34790000Y20192905D01*
X34786444Y20156800D01*
X34800635Y20012715D01*
X34811807Y19975886D01*
X34842663Y19874168D01*
X34910913Y19746481D01*
X35002762Y19634563D01*
X35030808Y19611546D01*
X37708783Y16933570D01*
X37598747Y16887992D01*
X37445608Y16785668D01*
X37315374Y16655434D01*
X37213050Y16502295D01*
X37149977Y16350023D01*
X36997705Y16286950D01*
X36844566Y16184626D01*
X36714332Y16054392D01*
X36612008Y15901253D01*
X36541526Y15731093D01*
X36505594Y15550453D01*
X36505594Y15366275D01*
X36541526Y15185635D01*
X36612008Y15015475D01*
X36714332Y14862336D01*
X36844566Y14732102D01*
X36997705Y14629778D01*
X37167865Y14559296D01*
X37337651Y14525523D01*
X37327362Y14494742D01*
X37306031Y14436413D01*
X37298874Y14390381D01*
X37295399Y14375155D01*
X37281866Y14330542D01*
X37275784Y14268782D01*
X37267968Y14207199D01*
X37271234Y14160687D01*
X37271234Y14145061D01*
X37270654Y14136801D01*
X37049802Y14136801D01*
X37044693Y14137743D01*
X36977545Y14136801D01*
X36946512Y14136801D01*
X36941358Y14136293D01*
X36936201Y14136221D01*
X36905482Y14132760D01*
X36838532Y14126166D01*
X36833554Y14124656D01*
X36789660Y14119710D01*
X36743095Y14117750D01*
X36682783Y14103091D01*
X36622055Y14090124D01*
X36579244Y14071684D01*
X36498472Y14043421D01*
X36453501Y14031145D01*
X36397939Y14003420D01*
X36341650Y13977279D01*
X36304023Y13949780D01*
X36231547Y13904240D01*
X36190447Y13882272D01*
X36142464Y13842894D01*
X36093379Y13804863D01*
X36062812Y13769677D01*
X36002301Y13709166D01*
X35967115Y13678599D01*
X35929078Y13629506D01*
X35889706Y13581530D01*
X35867740Y13540435D01*
X35822201Y13467960D01*
X35794699Y13430329D01*
X35768555Y13374033D01*
X35740833Y13318477D01*
X35728557Y13273506D01*
X35700293Y13192730D01*
X35681854Y13149922D01*
X35668887Y13089194D01*
X35654228Y13028882D01*
X35652268Y12982322D01*
X35647321Y12938422D01*
X35645812Y12933446D01*
X35639223Y12866542D01*
X35635756Y12835775D01*
X35635684Y12830609D01*
X35635177Y12825466D01*
X35635177Y12794476D01*
X35634979Y12780353D01*
X35634235Y12776318D01*
X35634579Y12751801D01*
X35634235Y12727285D01*
X35634979Y12723250D01*
X35635177Y12709127D01*
X35635177Y12678138D01*
X35635684Y12672995D01*
X35635756Y12667828D01*
X35639223Y12637054D01*
X35645812Y12570158D01*
X35647321Y12565182D01*
X35652268Y12521281D01*
X35654228Y12474721D01*
X35668887Y12414409D01*
X35681854Y12353681D01*
X35700293Y12310873D01*
X35728557Y12230097D01*
X35740833Y12185126D01*
X35768555Y12129570D01*
X35794699Y12073274D01*
X35822201Y12035643D01*
X35867740Y11963168D01*
X35889706Y11922073D01*
X35906342Y11901802D01*
X35889706Y11881530D01*
X35867740Y11840435D01*
X35822201Y11767960D01*
X35794699Y11730329D01*
X35768555Y11674033D01*
X35740833Y11618477D01*
X35728557Y11573506D01*
X35700293Y11492730D01*
X35681854Y11449922D01*
X35668887Y11389194D01*
X35654228Y11328882D01*
X35652268Y11282322D01*
X35647321Y11238422D01*
X35645812Y11233446D01*
X35639223Y11166542D01*
X35635756Y11135775D01*
X35635684Y11130609D01*
X35635177Y11125466D01*
X35635177Y11094476D01*
X35634979Y11080353D01*
X35634235Y11076318D01*
X35634579Y11051802D01*
X35634235Y11027285D01*
X35634979Y11023250D01*
X35635177Y11009127D01*
X35635177Y10978138D01*
X35635684Y10972995D01*
X35635756Y10967828D01*
X35639223Y10937054D01*
X35645812Y10870158D01*
X35647321Y10865182D01*
X35652268Y10821281D01*
X35654228Y10774721D01*
X35668887Y10714409D01*
X35681854Y10653681D01*
X35700293Y10610873D01*
X35728557Y10530097D01*
X35740833Y10485126D01*
X35768555Y10429570D01*
X35794699Y10373274D01*
X35822201Y10335643D01*
X35867740Y10263168D01*
X35889706Y10222073D01*
X35929078Y10174097D01*
X35967115Y10125004D01*
X36002301Y10094437D01*
X36062812Y10033926D01*
X36093379Y9998740D01*
X36142464Y9960709D01*
X36190447Y9921331D01*
X36231547Y9899363D01*
X36304023Y9853823D01*
X36341650Y9826324D01*
X36397939Y9800183D01*
X36453501Y9772458D01*
X36498472Y9760182D01*
X36579246Y9731919D01*
X36622050Y9713481D01*
X36682775Y9700514D01*
X36743095Y9685853D01*
X36789656Y9683893D01*
X36833552Y9678947D01*
X36838532Y9677436D01*
X36905462Y9670844D01*
X36936196Y9667381D01*
X36941359Y9667309D01*
X36946512Y9666801D01*
X36977513Y9666801D01*
X37044688Y9665858D01*
X37049803Y9666801D01*
X38873268Y9666801D01*
X38864052Y9628882D01*
X38862092Y9582321D01*
X38857146Y9538427D01*
X38855635Y9533446D01*
X38852222Y9498791D01*
X38635179Y9455619D01*
X38401324Y9358753D01*
X38190860Y9218125D01*
X38011875Y9039140D01*
X37990000Y9006402D01*
X37968125Y9039140D01*
X37789140Y9218125D01*
X37578676Y9358753D01*
X37344821Y9455619D01*
X37096561Y9505000D01*
X36843439Y9505000D01*
X36595179Y9455619D01*
X36361324Y9358753D01*
X36150860Y9218125D01*
X35971875Y9039140D01*
X35885335Y8909624D01*
X35815527Y8925922D01*
X35109605Y8220000D01*
X35123748Y8205857D01*
X34944143Y8026252D01*
X34930000Y8040395D01*
X34224078Y7334473D01*
X34277466Y7105799D01*
X34507374Y6999905D01*
X34753524Y6940898D01*
X34766396Y6940397D01*
X34714381Y6814821D01*
X34665000Y6566561D01*
X34665000Y6313439D01*
X34714381Y6065179D01*
X34811247Y5831324D01*
X34951875Y5620860D01*
X35130860Y5441875D01*
X35341324Y5301247D01*
X35575179Y5204381D01*
X35823439Y5155000D01*
X36076561Y5155000D01*
X36324821Y5204381D01*
X36558676Y5301247D01*
X36769140Y5441875D01*
X36948125Y5620860D01*
X36970000Y5653598D01*
X36991875Y5620860D01*
X37170860Y5441875D01*
X37381324Y5301247D01*
X37615179Y5204381D01*
X37863439Y5155000D01*
X38116561Y5155000D01*
X38364821Y5204381D01*
X38598676Y5301247D01*
X38809140Y5441875D01*
X38988125Y5620860D01*
X39010000Y5653598D01*
X39031875Y5620860D01*
X39210860Y5441875D01*
X39421324Y5301247D01*
X39655179Y5204381D01*
X39903439Y5155000D01*
X40156561Y5155000D01*
X40404821Y5204381D01*
X40638676Y5301247D01*
X40849140Y5441875D01*
X41028125Y5620860D01*
X41050000Y5653598D01*
X41071875Y5620860D01*
X41250860Y5441875D01*
X41461324Y5301247D01*
X41695179Y5204381D01*
X41943439Y5155000D01*
X42196561Y5155000D01*
X42444821Y5204381D01*
X42678676Y5301247D01*
X42889140Y5441875D01*
X43068125Y5620860D01*
X43208753Y5831324D01*
X43305619Y6065179D01*
X43355000Y6313439D01*
X43355000Y6566561D01*
X43305619Y6814821D01*
X43208753Y7048676D01*
X43068125Y7259140D01*
X42889140Y7438125D01*
X42817328Y7486109D01*
X45165000Y7486109D01*
X45165000Y7173891D01*
X45225911Y6867673D01*
X45345391Y6579221D01*
X45518850Y6319621D01*
X45739621Y6098850D01*
X45999221Y5925391D01*
X46287673Y5805911D01*
X46593891Y5745000D01*
X46906109Y5745000D01*
X47201451Y5803748D01*
X47397135Y5608063D01*
X47378992Y5548254D01*
X47361928Y5375000D01*
X47361928Y4625000D01*
X47378992Y4451746D01*
X47429528Y4285150D01*
X47511595Y4131614D01*
X47622038Y3997038D01*
X47756614Y3886595D01*
X47910150Y3804528D01*
X48076746Y3753992D01*
X48250000Y3736928D01*
X48750000Y3736928D01*
X48923254Y3753992D01*
X49089850Y3804528D01*
X49243386Y3886595D01*
X49377962Y3997038D01*
X49440969Y4073813D01*
X49469463Y4020506D01*
X49548815Y3923815D01*
X49645506Y3844463D01*
X49755820Y3785498D01*
X49875518Y3749188D01*
X50000000Y3736928D01*
X50214250Y3740000D01*
X50373000Y3898750D01*
X50373000Y4873000D01*
X50627000Y4873000D01*
X50627000Y3898750D01*
X50785750Y3740000D01*
X51000000Y3736928D01*
X51124482Y3749188D01*
X51244180Y3785498D01*
X51354494Y3844463D01*
X51451185Y3923815D01*
X51530537Y4020506D01*
X51589502Y4130820D01*
X51625812Y4250518D01*
X51638072Y4375000D01*
X51635000Y4714250D01*
X51476250Y4873000D01*
X50627000Y4873000D01*
X50373000Y4873000D01*
X50353000Y4873000D01*
X50353000Y5127000D01*
X50373000Y5127000D01*
X50373000Y6101250D01*
X50627000Y6101250D01*
X50627000Y5127000D01*
X51476250Y5127000D01*
X51635000Y5285750D01*
X51638072Y5625000D01*
X51625812Y5749482D01*
X51589502Y5869180D01*
X51530537Y5979494D01*
X51451185Y6076185D01*
X51354494Y6155537D01*
X51244180Y6214502D01*
X51124482Y6250812D01*
X51000000Y6263072D01*
X50785750Y6260000D01*
X50627000Y6101250D01*
X50373000Y6101250D01*
X50214250Y6260000D01*
X50000000Y6263072D01*
X49875518Y6250812D01*
X49755820Y6214502D01*
X49645506Y6155537D01*
X49548815Y6076185D01*
X49469463Y5979494D01*
X49440969Y5926187D01*
X49377962Y6002962D01*
X49243386Y6113405D01*
X49089850Y6195472D01*
X48923254Y6246008D01*
X48907214Y6247588D01*
X48276252Y6878549D01*
X48335000Y7173891D01*
X48335000Y7486109D01*
X48276252Y7781451D01*
X48731730Y8236928D01*
X48750000Y8236928D01*
X48923254Y8253992D01*
X49089850Y8304528D01*
X49243386Y8386595D01*
X49377962Y8497038D01*
X49488405Y8631614D01*
X49570472Y8785150D01*
X49621008Y8951746D01*
X49638072Y9125000D01*
X49638072Y9875000D01*
X49621008Y10048254D01*
X49570472Y10214850D01*
X49520692Y10307983D01*
X51873000Y10307983D01*
X51873000Y9692017D01*
X51993169Y9087888D01*
X52228889Y8518810D01*
X52571101Y8006654D01*
X53006654Y7571101D01*
X53518810Y7228889D01*
X54087888Y6993169D01*
X54692017Y6873000D01*
X55307983Y6873000D01*
X55912112Y6993169D01*
X56481190Y7228889D01*
X56993346Y7571101D01*
X57428899Y8006654D01*
X57771111Y8518810D01*
X58006831Y9087888D01*
X58127000Y9692017D01*
X58127000Y10307983D01*
X58006831Y10912112D01*
X57771111Y11481190D01*
X57428899Y11993346D01*
X56993346Y12428899D01*
X56481190Y12771111D01*
X55912112Y13006831D01*
X55307983Y13127000D01*
X54692017Y13127000D01*
X54087888Y13006831D01*
X53518810Y12771111D01*
X53006654Y12428899D01*
X52571101Y11993346D01*
X52228889Y11481190D01*
X51993169Y10912112D01*
X51873000Y10307983D01*
X49520692Y10307983D01*
X49488405Y10368386D01*
X49377962Y10502962D01*
X49243386Y10613405D01*
X49089850Y10695472D01*
X48923254Y10746008D01*
X48750000Y10763072D01*
X48250000Y10763072D01*
X48076746Y10746008D01*
X47910150Y10695472D01*
X47756614Y10613405D01*
X47622038Y10502962D01*
X47511595Y10368386D01*
X47429528Y10214850D01*
X47378992Y10048254D01*
X47361928Y9875000D01*
X47361928Y9125000D01*
X47371636Y9026437D01*
X47201451Y8856252D01*
X46906109Y8915000D01*
X46593891Y8915000D01*
X46287673Y8854089D01*
X45999221Y8734609D01*
X45739621Y8561150D01*
X45518850Y8340379D01*
X45345391Y8080779D01*
X45225911Y7792327D01*
X45165000Y7486109D01*
X42817328Y7486109D01*
X42805000Y7494346D01*
X42805000Y11822119D01*
X42893524Y11800898D01*
X43146455Y11791048D01*
X43396449Y11830730D01*
X43633896Y11918422D01*
X43722534Y11965799D01*
X43775922Y12194473D01*
X44654078Y12194473D01*
X44707466Y11965799D01*
X44937374Y11859905D01*
X45183524Y11800898D01*
X45436455Y11791048D01*
X45686449Y11830730D01*
X45923896Y11918422D01*
X46012534Y11965799D01*
X46065922Y12194473D01*
X45360000Y12900395D01*
X44654078Y12194473D01*
X43775922Y12194473D01*
X43070000Y12900395D01*
X43055858Y12886252D01*
X42876253Y13065857D01*
X42890395Y13080000D01*
X43249605Y13080000D01*
X43955527Y12374078D01*
X44184201Y12427466D01*
X44212713Y12489368D01*
X44245799Y12427466D01*
X44474473Y12374078D01*
X45180395Y13080000D01*
X45539605Y13080000D01*
X46245527Y12374078D01*
X46474201Y12427466D01*
X46580095Y12657374D01*
X46639102Y12903524D01*
X46648952Y13156455D01*
X46609270Y13406449D01*
X46521578Y13643896D01*
X46474201Y13732534D01*
X46245527Y13785922D01*
X45539605Y13080000D01*
X45180395Y13080000D01*
X44474473Y13785922D01*
X44245799Y13732534D01*
X44217287Y13670632D01*
X44184201Y13732534D01*
X43955527Y13785922D01*
X43249605Y13080000D01*
X42890395Y13080000D01*
X42876253Y13094142D01*
X43055858Y13273747D01*
X43070000Y13259605D01*
X43775922Y13965527D01*
X44654078Y13965527D01*
X45360000Y13259605D01*
X46065922Y13965527D01*
X46012534Y14194201D01*
X45782626Y14300095D01*
X45536476Y14359102D01*
X45283545Y14368952D01*
X45033551Y14329270D01*
X44796104Y14241578D01*
X44707466Y14194201D01*
X44654078Y13965527D01*
X43775922Y13965527D01*
X43722534Y14194201D01*
X43492626Y14300095D01*
X43246476Y14359102D01*
X42993545Y14368952D01*
X42799694Y14338182D01*
X42794365Y14392285D01*
X42752337Y14530834D01*
X42684087Y14658520D01*
X42615253Y14742394D01*
X42615250Y14742397D01*
X42592237Y14770438D01*
X42564198Y14793449D01*
X36710000Y20647646D01*
X36710000Y25690000D01*
X37367301Y25690000D01*
X37345001Y25463582D01*
X37345000Y22736419D01*
X37372564Y22456556D01*
X37481494Y22097462D01*
X37658387Y21766518D01*
X37896444Y21476444D01*
X38186518Y21238387D01*
X38517461Y21061494D01*
X38876555Y20952564D01*
X39250000Y20915783D01*
X39623444Y20952564D01*
X39982538Y21061494D01*
X40313482Y21238387D01*
X40603556Y21476444D01*
X40841613Y21766518D01*
X41000000Y22062839D01*
X41158387Y21766518D01*
X41396444Y21476444D01*
X41686518Y21238387D01*
X42017461Y21061494D01*
X42376555Y20952564D01*
X42750000Y20915783D01*
X43123444Y20952564D01*
X43482538Y21061494D01*
X43813482Y21238387D01*
X44103556Y21476444D01*
X44341613Y21766518D01*
X44500000Y22062839D01*
X44658387Y21766518D01*
X44896444Y21476444D01*
X45186518Y21238387D01*
X45517461Y21061494D01*
X45876555Y20952564D01*
X46250000Y20915783D01*
X46623444Y20952564D01*
X46982538Y21061494D01*
X47313482Y21238387D01*
X47603556Y21476444D01*
X47841613Y21766518D01*
X48000000Y22062839D01*
X48158387Y21766518D01*
X48396444Y21476444D01*
X48686518Y21238387D01*
X49017461Y21061494D01*
X49376555Y20952564D01*
X49750000Y20915783D01*
X50123444Y20952564D01*
X50482538Y21061494D01*
X50813482Y21238387D01*
X51103556Y21476444D01*
X51341613Y21766518D01*
X51518506Y22097461D01*
X51627436Y22456555D01*
X51655000Y22736418D01*
X51655000Y25463582D01*
X51627436Y25743445D01*
X51518506Y26102539D01*
X51341613Y26433482D01*
X51103556Y26723556D01*
X50813482Y26961613D01*
X50482539Y27138506D01*
X50123445Y27247436D01*
X49750000Y27284217D01*
X49376556Y27247436D01*
X49017462Y27138506D01*
X48686519Y26961613D01*
X48396445Y26723556D01*
X48158388Y26433482D01*
X48000001Y26137160D01*
X47841613Y26433482D01*
X47603556Y26723556D01*
X47313482Y26961613D01*
X46982539Y27138506D01*
X46623445Y27247436D01*
X46250000Y27284217D01*
X45876556Y27247436D01*
X45517462Y27138506D01*
X45186519Y26961613D01*
X44896445Y26723556D01*
X44658388Y26433482D01*
X44500001Y26137160D01*
X44341613Y26433482D01*
X44103556Y26723556D01*
X43813482Y26961613D01*
X43482539Y27138506D01*
X43123445Y27247436D01*
X42750000Y27284217D01*
X42376556Y27247436D01*
X42017462Y27138506D01*
X41686519Y26961613D01*
X41396445Y26723556D01*
X41158388Y26433482D01*
X41000001Y26137160D01*
X40841613Y26433482D01*
X40603556Y26723556D01*
X40313482Y26961613D01*
X39982539Y27138506D01*
X39623445Y27247436D01*
X39250000Y27284217D01*
X38924804Y27252188D01*
X38924365Y27256645D01*
X38922855Y27261623D01*
X38917909Y27305517D01*
X38915949Y27352082D01*
X38901290Y27412394D01*
X38888323Y27473122D01*
X38869883Y27515933D01*
X38841620Y27596705D01*
X38829344Y27641676D01*
X38801619Y27697238D01*
X38775478Y27753527D01*
X38747979Y27791154D01*
X38702439Y27863630D01*
X38680471Y27904730D01*
X38663835Y27925000D01*
X38680471Y27945271D01*
X38702439Y27986371D01*
X38747979Y28058847D01*
X38775478Y28096474D01*
X38801619Y28152763D01*
X38829344Y28208325D01*
X38841620Y28253296D01*
X38869883Y28334068D01*
X38888323Y28376879D01*
X38901290Y28437607D01*
X38915949Y28497919D01*
X38917909Y28544484D01*
X38922855Y28588379D01*
X38924365Y28593357D01*
X38930958Y28660299D01*
X38934420Y28691025D01*
X38934492Y28696183D01*
X38935000Y28701337D01*
X38935000Y28732369D01*
X38935197Y28746446D01*
X38935942Y28750484D01*
X38935598Y28775000D01*
X38935942Y28799517D01*
X38935197Y28803555D01*
X38935000Y28817632D01*
X38935000Y28848665D01*
X38934492Y28853819D01*
X38934420Y28858976D01*
X38930959Y28889695D01*
X38924365Y28956645D01*
X38922855Y28961623D01*
X38917909Y29005517D01*
X38915949Y29052082D01*
X38901290Y29112394D01*
X38888323Y29173122D01*
X38869883Y29215933D01*
X38841620Y29296705D01*
X38829344Y29341676D01*
X38801619Y29397238D01*
X38775478Y29453527D01*
X38747979Y29491154D01*
X38702439Y29563630D01*
X38680471Y29604730D01*
X38641093Y29652713D01*
X38603062Y29701798D01*
X38567876Y29732365D01*
X38507365Y29792876D01*
X38476798Y29828062D01*
X38427705Y29866099D01*
X38379729Y29905471D01*
X38338634Y29927437D01*
X38266159Y29972976D01*
X38228528Y30000478D01*
X38172232Y30026622D01*
X38116676Y30054344D01*
X38071705Y30066620D01*
X37990929Y30094884D01*
X37948121Y30113323D01*
X37887393Y30126290D01*
X37827081Y30140949D01*
X37780521Y30142909D01*
X37736621Y30147856D01*
X37731645Y30149365D01*
X37664741Y30155954D01*
X37633974Y30159421D01*
X37628808Y30159493D01*
X37623665Y30160000D01*
X37592675Y30160000D01*
X37525484Y30160942D01*
X37520375Y30160000D01*
X36699446Y30160000D01*
X39542521Y33003075D01*
X39646444Y32876444D01*
X39936518Y32638387D01*
X40267461Y32461494D01*
X40626555Y32352564D01*
X41000000Y32315783D01*
X41373444Y32352564D01*
X41732538Y32461494D01*
X42063482Y32638387D01*
X42353556Y32876444D01*
X42591613Y33166518D01*
X42755102Y33472384D01*
X42788611Y33383655D01*
X42986609Y33066042D01*
X43242765Y32793159D01*
X43547236Y32575493D01*
X43888321Y32421409D01*
X44077219Y32372507D01*
X44373000Y32488374D01*
X44373000Y35373000D01*
X44353000Y35373000D01*
X44353000Y35627000D01*
X44373000Y35627000D01*
X44373000Y38511626D01*
X44627000Y38511626D01*
X44627000Y35627000D01*
X44647000Y35627000D01*
X44647000Y35373000D01*
X44627000Y35373000D01*
X44627000Y32488374D01*
X44922781Y32372507D01*
X45111679Y32421409D01*
X45452764Y32575493D01*
X45757235Y32793159D01*
X46013391Y33066042D01*
X46211389Y33383655D01*
X46244898Y33472385D01*
X46408387Y33166518D01*
X46646444Y32876444D01*
X46936518Y32638387D01*
X47267461Y32461494D01*
X47626555Y32352564D01*
X48000000Y32315783D01*
X48373444Y32352564D01*
X48732538Y32461494D01*
X49063482Y32638387D01*
X49353556Y32876444D01*
X49591613Y33166518D01*
X49768506Y33497461D01*
X49877436Y33856555D01*
X49905000Y34136418D01*
X49905000Y35307983D01*
X51873000Y35307983D01*
X51873000Y34692017D01*
X51993169Y34087888D01*
X52228889Y33518810D01*
X52571101Y33006654D01*
X53006654Y32571101D01*
X53518810Y32228889D01*
X54087888Y31993169D01*
X54692017Y31873000D01*
X55307983Y31873000D01*
X55912112Y31993169D01*
X56481190Y32228889D01*
X56993346Y32571101D01*
X57428899Y33006654D01*
X57771111Y33518810D01*
X58006831Y34087888D01*
X58127000Y34692017D01*
X58127000Y35307983D01*
X58006831Y35912112D01*
X57771111Y36481190D01*
X57428899Y36993346D01*
X56993346Y37428899D01*
X56481190Y37771111D01*
X55912112Y38006831D01*
X55307983Y38127000D01*
X54692017Y38127000D01*
X54087888Y38006831D01*
X53518810Y37771111D01*
X53006654Y37428899D01*
X52571101Y36993346D01*
X52228889Y36481190D01*
X51993169Y35912112D01*
X51873000Y35307983D01*
X49905000Y35307983D01*
X49905000Y36863582D01*
X49877436Y37143445D01*
X49768506Y37502539D01*
X49591613Y37833482D01*
X49353556Y38123556D01*
X49063482Y38361613D01*
X48732539Y38538506D01*
X48373445Y38647436D01*
X48000000Y38684217D01*
X47626556Y38647436D01*
X47267462Y38538506D01*
X46936519Y38361613D01*
X46646445Y38123556D01*
X46408388Y37833482D01*
X46244898Y37527615D01*
X46211389Y37616345D01*
X46013391Y37933958D01*
X45757235Y38206841D01*
X45452764Y38424507D01*
X45111679Y38578591D01*
X44922781Y38627493D01*
X44627000Y38511626D01*
X44373000Y38511626D01*
X44077219Y38627493D01*
X43888321Y38578591D01*
X43547236Y38424507D01*
X43242765Y38206841D01*
X42986609Y37933958D01*
X42788611Y37616345D01*
X42755102Y37527616D01*
X42591613Y37833482D01*
X42353556Y38123556D01*
X42063482Y38361613D01*
X41732539Y38538506D01*
X41373445Y38647436D01*
X41000000Y38684217D01*
X40626556Y38647436D01*
X40267462Y38538506D01*
X39936519Y38361613D01*
X39646445Y38123556D01*
X39408388Y37833482D01*
X39250001Y37537160D01*
X39091613Y37833482D01*
X38853556Y38123556D01*
X38563482Y38361613D01*
X38232539Y38538506D01*
X37873445Y38647436D01*
X37500000Y38684217D01*
X37126556Y38647436D01*
X36767462Y38538506D01*
X36436519Y38361613D01*
X36146445Y38123556D01*
X35908388Y37833482D01*
X35731495Y37502539D01*
X35622565Y37143445D01*
X35595001Y36863582D01*
X35595000Y34136419D01*
X35622564Y33856556D01*
X35731494Y33497462D01*
X35908387Y33166518D01*
X36146444Y32876444D01*
X36436518Y32638387D01*
X36453478Y32629322D01*
X35030808Y31206651D01*
X35002763Y31183635D01*
X34910913Y31071717D01*
X34877925Y31010000D01*
X33979625Y31010000D01*
X33974516Y31010942D01*
X33907368Y31010000D01*
X33876335Y31010000D01*
X33871181Y31009492D01*
X33866024Y31009420D01*
X33835305Y31005959D01*
X33768355Y30999365D01*
X33763377Y30997855D01*
X33719483Y30992909D01*
X33672918Y30990949D01*
X33612606Y30976290D01*
X33551878Y30963323D01*
X33509067Y30944883D01*
X33428295Y30916620D01*
X33383324Y30904344D01*
X33327762Y30876619D01*
X33271473Y30850478D01*
X33233846Y30822979D01*
X33161370Y30777439D01*
X33120270Y30755471D01*
X33072287Y30716093D01*
X33023202Y30678062D01*
X32992635Y30642876D01*
X32932124Y30582365D01*
X32896938Y30551798D01*
X32858901Y30502705D01*
X32819529Y30454729D01*
X32797563Y30413634D01*
X32752024Y30341159D01*
X32724522Y30303528D01*
X32698378Y30247232D01*
X32670656Y30191676D01*
X32658380Y30146705D01*
X32630116Y30065929D01*
X32611677Y30023121D01*
X32598710Y29962393D01*
X32584051Y29902081D01*
X32582091Y29855521D01*
X32577144Y29811621D01*
X32575635Y29806645D01*
X32569046Y29739741D01*
X32565579Y29708974D01*
X32565507Y29703808D01*
X32565000Y29698665D01*
X32565000Y29667675D01*
X32564802Y29653552D01*
X32564058Y29649517D01*
X26708130Y29649517D01*
X26638458Y29719188D01*
X26615438Y29747238D01*
X26503520Y29839087D01*
X26375833Y29907337D01*
X26237285Y29949365D01*
X26129305Y29960000D01*
X26093200Y29963556D01*
X26057095Y29960000D01*
X16897647Y29960000D01*
X14710000Y32147646D01*
X14710000Y32400554D01*
X14770130Y32460684D01*
X15126555Y32352564D01*
X15500000Y32315783D01*
X15873444Y32352564D01*
X16232538Y32461494D01*
X16563482Y32638387D01*
X16853556Y32876444D01*
X17091613Y33166518D01*
X17255102Y33472384D01*
X17288611Y33383655D01*
X17486609Y33066042D01*
X17742765Y32793159D01*
X18047236Y32575493D01*
X18388321Y32421409D01*
X18577219Y32372507D01*
X18873000Y32488374D01*
X18873000Y35373000D01*
X18853000Y35373000D01*
X18853000Y35627000D01*
X18873000Y35627000D01*
X18873000Y38511626D01*
X19127000Y38511626D01*
X19127000Y35627000D01*
X19147000Y35627000D01*
X19147000Y35373000D01*
X19127000Y35373000D01*
X19127000Y32488374D01*
X19422781Y32372507D01*
X19611679Y32421409D01*
X19952764Y32575493D01*
X20257235Y32793159D01*
X20513391Y33066042D01*
X20711389Y33383655D01*
X20744898Y33472385D01*
X20908387Y33166518D01*
X21146444Y32876444D01*
X21436518Y32638387D01*
X21767461Y32461494D01*
X22126555Y32352564D01*
X22500000Y32315783D01*
X22873444Y32352564D01*
X23232538Y32461494D01*
X23563482Y32638387D01*
X23853556Y32876444D01*
X24091613Y33166518D01*
X24268506Y33497461D01*
X24377436Y33856555D01*
X24405000Y34136418D01*
X24405000Y34300000D01*
X26661928Y34300000D01*
X26674188Y34175518D01*
X26710498Y34055820D01*
X26769463Y33945506D01*
X26848815Y33848815D01*
X26945506Y33769463D01*
X27055820Y33710498D01*
X27175518Y33674188D01*
X27300000Y33661928D01*
X28214250Y33665000D01*
X28373000Y33823750D01*
X28373000Y35373000D01*
X26823750Y35373000D01*
X26665000Y35214250D01*
X26661928Y34300000D01*
X24405000Y34300000D01*
X24405000Y36700000D01*
X26661928Y36700000D01*
X26665000Y35785750D01*
X26823750Y35627000D01*
X28373000Y35627000D01*
X28373000Y37176250D01*
X28627000Y37176250D01*
X28627000Y35627000D01*
X28647000Y35627000D01*
X28647000Y35373000D01*
X28627000Y35373000D01*
X28627000Y33823750D01*
X28785750Y33665000D01*
X29700000Y33661928D01*
X29824482Y33674188D01*
X29944180Y33710498D01*
X30054494Y33769463D01*
X30151185Y33848815D01*
X30230537Y33945506D01*
X30289502Y34055820D01*
X30325812Y34175518D01*
X30330391Y34222020D01*
X30901626Y34222020D01*
X31021514Y33937164D01*
X31345210Y33776301D01*
X31694069Y33681678D01*
X32054684Y33656933D01*
X32413198Y33703015D01*
X32755833Y33818154D01*
X32978486Y33937164D01*
X33098374Y34222020D01*
X32000000Y35320395D01*
X30901626Y34222020D01*
X30330391Y34222020D01*
X30338072Y34300000D01*
X30336696Y34709477D01*
X30437164Y34521514D01*
X30722020Y34401626D01*
X31820395Y35500000D01*
X32179605Y35500000D01*
X33277980Y34401626D01*
X33562836Y34521514D01*
X33723699Y34845210D01*
X33818322Y35194069D01*
X33843067Y35554684D01*
X33796985Y35913198D01*
X33681846Y36255833D01*
X33562836Y36478486D01*
X33277980Y36598374D01*
X32179605Y35500000D01*
X31820395Y35500000D01*
X30722020Y36598374D01*
X30437164Y36478486D01*
X30336648Y36276223D01*
X30338072Y36700000D01*
X30330392Y36777980D01*
X30901626Y36777980D01*
X32000000Y35679605D01*
X33098374Y36777980D01*
X32978486Y37062836D01*
X32654790Y37223699D01*
X32305931Y37318322D01*
X31945316Y37343067D01*
X31586802Y37296985D01*
X31244167Y37181846D01*
X31021514Y37062836D01*
X30901626Y36777980D01*
X30330392Y36777980D01*
X30325812Y36824482D01*
X30289502Y36944180D01*
X30230537Y37054494D01*
X30151185Y37151185D01*
X30054494Y37230537D01*
X29944180Y37289502D01*
X29824482Y37325812D01*
X29700000Y37338072D01*
X28785750Y37335000D01*
X28627000Y37176250D01*
X28373000Y37176250D01*
X28214250Y37335000D01*
X27300000Y37338072D01*
X27175518Y37325812D01*
X27055820Y37289502D01*
X26945506Y37230537D01*
X26848815Y37151185D01*
X26769463Y37054494D01*
X26710498Y36944180D01*
X26674188Y36824482D01*
X26661928Y36700000D01*
X24405000Y36700000D01*
X24405000Y36863582D01*
X24377436Y37143445D01*
X24268506Y37502539D01*
X24091613Y37833482D01*
X23853556Y38123556D01*
X23563482Y38361613D01*
X23232539Y38538506D01*
X22873445Y38647436D01*
X22500000Y38684217D01*
X22126556Y38647436D01*
X21767462Y38538506D01*
X21436519Y38361613D01*
X21146445Y38123556D01*
X20908388Y37833482D01*
X20744898Y37527615D01*
X20711389Y37616345D01*
X20513391Y37933958D01*
X20257235Y38206841D01*
X19952764Y38424507D01*
X19611679Y38578591D01*
X19422781Y38627493D01*
X19127000Y38511626D01*
X18873000Y38511626D01*
X18577219Y38627493D01*
X18388321Y38578591D01*
X18047236Y38424507D01*
X17742765Y38206841D01*
X17486609Y37933958D01*
X17288611Y37616345D01*
X17255102Y37527616D01*
X17091613Y37833482D01*
X16853556Y38123556D01*
X16563482Y38361613D01*
X16232539Y38538506D01*
X15873445Y38647436D01*
X15500000Y38684217D01*
X15126556Y38647436D01*
X14767462Y38538506D01*
X14436519Y38361613D01*
X14146445Y38123556D01*
X13908388Y37833482D01*
X13750001Y37537160D01*
X13591613Y37833482D01*
X13353556Y38123556D01*
X13063482Y38361613D01*
X12732539Y38538506D01*
X12373445Y38647436D01*
X12000000Y38684217D01*
X11626556Y38647436D01*
X11267462Y38538506D01*
X10936519Y38361613D01*
X10646445Y38123556D01*
X10408388Y37833482D01*
X10231495Y37502539D01*
X10122565Y37143445D01*
X10095001Y36863582D01*
X10095000Y34136419D01*
X8016484Y34136419D01*
X8127000Y34692017D01*
X8127000Y35307983D01*
X8006831Y35912112D01*
X7771111Y36481190D01*
X7428899Y36993346D01*
X6993346Y37428899D01*
X6481190Y37771111D01*
X5912112Y38006831D01*
X5307983Y38127000D01*
X4692017Y38127000D01*
X4087888Y38006831D01*
X3518810Y37771111D01*
X3006654Y37428899D01*
X2571101Y36993346D01*
X2228889Y36481190D01*
X1993169Y35912112D01*
X1873000Y35307983D01*
X660000Y35307983D01*
X660000Y44340000D01*
X59340001Y44340000D01*
X59340000Y660000D01*
M02*
