G04 #@! TF.GenerationSoftware,KiCad,Pcbnew,(5.1.5)-3*
G04 #@! TF.CreationDate,2020-02-01T18:30:37+01:00*
G04 #@! TF.ProjectId,STMBLBreakout,53544d42-4c42-4726-9561-6b6f75742e6b,rev?*
G04 #@! TF.SameCoordinates,PX2faf080PY8f0d180*
G04 #@! TF.FileFunction,Legend,Top*
G04 #@! TF.FilePolarity,Positive*
%FSLAX46Y46*%
G04 Gerber Fmt 4.6, Leading zero omitted, Abs format (unit mm)*
G04 Created by KiCad (PCBNEW (5.1.5)-3) date 2020-02-01 18:30:37*
%MOMM*%
%LPD*%
G04 APERTURE LIST*
%ADD10C,0.150000*%
%ADD11C,0.300000*%
%ADD12C,0.120000*%
%ADD13C,0.127000*%
%ADD14C,0.200000*%
%ADD15C,0.015000*%
G04 APERTURE END LIST*
D10*
X28380952Y41095239D02*
X28523809Y41047620D01*
X28761904Y41047620D01*
X28857142Y41095239D01*
X28904761Y41142858D01*
X28952380Y41238096D01*
X28952380Y41333334D01*
X28904761Y41428572D01*
X28857142Y41476191D01*
X28761904Y41523810D01*
X28571428Y41571429D01*
X28476190Y41619048D01*
X28428571Y41666667D01*
X28380952Y41761905D01*
X28380952Y41857143D01*
X28428571Y41952381D01*
X28476190Y42000000D01*
X28571428Y42047620D01*
X28809523Y42047620D01*
X28952380Y42000000D01*
X29380952Y41047620D02*
X29380952Y42047620D01*
X29809523Y41047620D02*
X29809523Y41571429D01*
X29761904Y41666667D01*
X29666666Y41714286D01*
X29523809Y41714286D01*
X29428571Y41666667D01*
X29380952Y41619048D01*
X30285714Y41047620D02*
X30285714Y41714286D01*
X30285714Y42047620D02*
X30238095Y42000000D01*
X30285714Y41952381D01*
X30333333Y42000000D01*
X30285714Y42047620D01*
X30285714Y41952381D01*
X31142857Y41095239D02*
X31047619Y41047620D01*
X30857142Y41047620D01*
X30761904Y41095239D01*
X30714285Y41190477D01*
X30714285Y41571429D01*
X30761904Y41666667D01*
X30857142Y41714286D01*
X31047619Y41714286D01*
X31142857Y41666667D01*
X31190476Y41571429D01*
X31190476Y41476191D01*
X30714285Y41380953D01*
X31761904Y41047620D02*
X31666666Y41095239D01*
X31619047Y41190477D01*
X31619047Y42047620D01*
X32571428Y41047620D02*
X32571428Y42047620D01*
X32571428Y41095239D02*
X32476190Y41047620D01*
X32285714Y41047620D01*
X32190476Y41095239D01*
X32142857Y41142858D01*
X32095238Y41238096D01*
X32095238Y41523810D01*
X32142857Y41619048D01*
X32190476Y41666667D01*
X32285714Y41714286D01*
X32476190Y41714286D01*
X32571428Y41666667D01*
X49202380Y18119048D02*
X49202380Y18690477D01*
X50202380Y18404762D02*
X49202380Y18404762D01*
X49202380Y18928572D02*
X50202380Y19595239D01*
X49202380Y19595239D02*
X50202380Y18928572D01*
X49821428Y19976191D02*
X49821428Y20738096D01*
X50202380Y20357143D02*
X49440476Y20357143D01*
X45702380Y18119048D02*
X45702380Y18690477D01*
X46702380Y18404762D02*
X45702380Y18404762D01*
X45702380Y18928572D02*
X46702380Y19595239D01*
X45702380Y19595239D02*
X46702380Y18928572D01*
X46321428Y19976191D02*
X46321428Y20738096D01*
X43107142Y17785715D02*
X43154761Y17738096D01*
X43202380Y17595239D01*
X43202380Y17500000D01*
X43154761Y17357143D01*
X43059523Y17261905D01*
X42964285Y17214286D01*
X42773809Y17166667D01*
X42630952Y17166667D01*
X42440476Y17214286D01*
X42345238Y17261905D01*
X42250000Y17357143D01*
X42202380Y17500000D01*
X42202380Y17595239D01*
X42250000Y17738096D01*
X42297619Y17785715D01*
X43202380Y18690477D02*
X43202380Y18214286D01*
X42202380Y18214286D01*
X43202380Y19023810D02*
X42202380Y19023810D01*
X43202380Y19595239D02*
X42630952Y19166667D01*
X42202380Y19595239D02*
X42773809Y19023810D01*
X42821428Y20023810D02*
X42821428Y20785715D01*
X43202380Y20404762D02*
X42440476Y20404762D01*
X39607142Y17785715D02*
X39654761Y17738096D01*
X39702380Y17595239D01*
X39702380Y17500000D01*
X39654761Y17357143D01*
X39559523Y17261905D01*
X39464285Y17214286D01*
X39273809Y17166667D01*
X39130952Y17166667D01*
X38940476Y17214286D01*
X38845238Y17261905D01*
X38750000Y17357143D01*
X38702380Y17500000D01*
X38702380Y17595239D01*
X38750000Y17738096D01*
X38797619Y17785715D01*
X39702380Y18690477D02*
X39702380Y18214286D01*
X38702380Y18214286D01*
X39702380Y19023810D02*
X38702380Y19023810D01*
X39702380Y19595239D02*
X39130952Y19166667D01*
X38702380Y19595239D02*
X39273809Y19023810D01*
X39321428Y20023810D02*
X39321428Y20785715D01*
X37952380Y41214286D02*
X37476190Y40880953D01*
X37952380Y40642858D02*
X36952380Y40642858D01*
X36952380Y41023810D01*
X37000000Y41119048D01*
X37047619Y41166667D01*
X37142857Y41214286D01*
X37285714Y41214286D01*
X37380952Y41166667D01*
X37428571Y41119048D01*
X37476190Y41023810D01*
X37476190Y40642858D01*
X36952380Y41547620D02*
X37952380Y42214286D01*
X36952380Y42214286D02*
X37952380Y41547620D01*
X37571428Y42595239D02*
X37571428Y43357143D01*
X41452380Y41214286D02*
X40976190Y40880953D01*
X41452380Y40642858D02*
X40452380Y40642858D01*
X40452380Y41023810D01*
X40500000Y41119048D01*
X40547619Y41166667D01*
X40642857Y41214286D01*
X40785714Y41214286D01*
X40880952Y41166667D01*
X40928571Y41119048D01*
X40976190Y41023810D01*
X40976190Y40642858D01*
X40452380Y41547620D02*
X41452380Y42214286D01*
X40452380Y42214286D02*
X41452380Y41547620D01*
X41071428Y42595239D02*
X41071428Y43357143D01*
X41452380Y42976191D02*
X40690476Y42976191D01*
X48071428Y40714286D02*
X48071428Y41476191D01*
X48452380Y41095239D02*
X47690476Y41095239D01*
X47452380Y42428572D02*
X47452380Y41952381D01*
X47928571Y41904762D01*
X47880952Y41952381D01*
X47833333Y42047620D01*
X47833333Y42285715D01*
X47880952Y42380953D01*
X47928571Y42428572D01*
X48023809Y42476191D01*
X48261904Y42476191D01*
X48357142Y42428572D01*
X48404761Y42380953D01*
X48452380Y42285715D01*
X48452380Y42047620D01*
X48404761Y41952381D01*
X48357142Y41904762D01*
X47452380Y42761905D02*
X48452380Y43095239D01*
X47452380Y43428572D01*
X44000000Y41238096D02*
X43952380Y41142858D01*
X43952380Y41000000D01*
X44000000Y40857143D01*
X44095238Y40761905D01*
X44190476Y40714286D01*
X44380952Y40666667D01*
X44523809Y40666667D01*
X44714285Y40714286D01*
X44809523Y40761905D01*
X44904761Y40857143D01*
X44952380Y41000000D01*
X44952380Y41095239D01*
X44904761Y41238096D01*
X44857142Y41285715D01*
X44523809Y41285715D01*
X44523809Y41095239D01*
X44952380Y41714286D02*
X43952380Y41714286D01*
X44952380Y42285715D01*
X43952380Y42285715D01*
X44952380Y42761905D02*
X43952380Y42761905D01*
X43952380Y43000000D01*
X44000000Y43142858D01*
X44095238Y43238096D01*
X44190476Y43285715D01*
X44380952Y43333334D01*
X44523809Y43333334D01*
X44714285Y43285715D01*
X44809523Y43238096D01*
X44904761Y43142858D01*
X44952380Y43000000D01*
X44952380Y42761905D01*
D11*
X32333333Y15642858D02*
X31666666Y15642858D01*
X31666666Y14595239D02*
X31666666Y16595239D01*
X32619047Y16595239D01*
X34047619Y15642858D02*
X34333333Y15547620D01*
X34428571Y15452381D01*
X34523809Y15261905D01*
X34523809Y14976191D01*
X34428571Y14785715D01*
X34333333Y14690477D01*
X34142857Y14595239D01*
X33380952Y14595239D01*
X33380952Y16595239D01*
X34047619Y16595239D01*
X34238095Y16500000D01*
X34333333Y16404762D01*
X34428571Y16214286D01*
X34428571Y16023810D01*
X34333333Y15833334D01*
X34238095Y15738096D01*
X34047619Y15642858D01*
X33380952Y15642858D01*
X36428571Y14595239D02*
X35285714Y14595239D01*
X35857142Y14595239D02*
X35857142Y16595239D01*
X35666666Y16309524D01*
X35476190Y16119048D01*
X35285714Y16023810D01*
X24833333Y15642858D02*
X24166666Y15642858D01*
X24166666Y14595239D02*
X24166666Y16595239D01*
X25119047Y16595239D01*
X26547619Y15642858D02*
X26833333Y15547620D01*
X26928571Y15452381D01*
X27023809Y15261905D01*
X27023809Y14976191D01*
X26928571Y14785715D01*
X26833333Y14690477D01*
X26642857Y14595239D01*
X25880952Y14595239D01*
X25880952Y16595239D01*
X26547619Y16595239D01*
X26738095Y16500000D01*
X26833333Y16404762D01*
X26928571Y16214286D01*
X26928571Y16023810D01*
X26833333Y15833334D01*
X26738095Y15738096D01*
X26547619Y15642858D01*
X25880952Y15642858D01*
X28261904Y16595239D02*
X28452380Y16595239D01*
X28642857Y16500000D01*
X28738095Y16404762D01*
X28833333Y16214286D01*
X28928571Y15833334D01*
X28928571Y15357143D01*
X28833333Y14976191D01*
X28738095Y14785715D01*
X28642857Y14690477D01*
X28452380Y14595239D01*
X28261904Y14595239D01*
X28071428Y14690477D01*
X27976190Y14785715D01*
X27880952Y14976191D01*
X27785714Y15357143D01*
X27785714Y15833334D01*
X27880952Y16214286D01*
X27976190Y16404762D01*
X28071428Y16500000D01*
X28261904Y16595239D01*
D10*
X24452380Y17976191D02*
X23976190Y17642858D01*
X24452380Y17404762D02*
X23452380Y17404762D01*
X23452380Y17785715D01*
X23500000Y17880953D01*
X23547619Y17928572D01*
X23642857Y17976191D01*
X23785714Y17976191D01*
X23880952Y17928572D01*
X23928571Y17880953D01*
X23976190Y17785715D01*
X23976190Y17404762D01*
X24404761Y18785715D02*
X24452380Y18690477D01*
X24452380Y18500000D01*
X24404761Y18404762D01*
X24309523Y18357143D01*
X23928571Y18357143D01*
X23833333Y18404762D01*
X23785714Y18500000D01*
X23785714Y18690477D01*
X23833333Y18785715D01*
X23928571Y18833334D01*
X24023809Y18833334D01*
X24119047Y18357143D01*
X23785714Y19119048D02*
X23785714Y19500000D01*
X24452380Y19261905D02*
X23595238Y19261905D01*
X23500000Y19309524D01*
X23452380Y19404762D01*
X23452380Y19500000D01*
X24071428Y19833334D02*
X24071428Y20595239D01*
X24452380Y20214286D02*
X23690476Y20214286D01*
X20952380Y17976191D02*
X20476190Y17642858D01*
X20952380Y17404762D02*
X19952380Y17404762D01*
X19952380Y17785715D01*
X20000000Y17880953D01*
X20047619Y17928572D01*
X20142857Y17976191D01*
X20285714Y17976191D01*
X20380952Y17928572D01*
X20428571Y17880953D01*
X20476190Y17785715D01*
X20476190Y17404762D01*
X20904761Y18785715D02*
X20952380Y18690477D01*
X20952380Y18500000D01*
X20904761Y18404762D01*
X20809523Y18357143D01*
X20428571Y18357143D01*
X20333333Y18404762D01*
X20285714Y18500000D01*
X20285714Y18690477D01*
X20333333Y18785715D01*
X20428571Y18833334D01*
X20523809Y18833334D01*
X20619047Y18357143D01*
X20285714Y19119048D02*
X20285714Y19500000D01*
X20952380Y19261905D02*
X20095238Y19261905D01*
X20000000Y19309524D01*
X19952380Y19404762D01*
X19952380Y19500000D01*
X20571428Y19833334D02*
X20571428Y20595239D01*
X16928571Y18952381D02*
X16976190Y19095239D01*
X17023809Y19142858D01*
X17119047Y19190477D01*
X17261904Y19190477D01*
X17357142Y19142858D01*
X17404761Y19095239D01*
X17452380Y19000000D01*
X17452380Y18619048D01*
X16452380Y18619048D01*
X16452380Y18952381D01*
X16500000Y19047620D01*
X16547619Y19095239D01*
X16642857Y19142858D01*
X16738095Y19142858D01*
X16833333Y19095239D01*
X16880952Y19047620D01*
X16928571Y18952381D01*
X16928571Y18619048D01*
X17071428Y19619048D02*
X17071428Y20380953D01*
X17452380Y20000000D02*
X16690476Y20000000D01*
X13428571Y18952381D02*
X13476190Y19095239D01*
X13523809Y19142858D01*
X13619047Y19190477D01*
X13761904Y19190477D01*
X13857142Y19142858D01*
X13904761Y19095239D01*
X13952380Y19000000D01*
X13952380Y18619048D01*
X12952380Y18619048D01*
X12952380Y18952381D01*
X13000000Y19047620D01*
X13047619Y19095239D01*
X13142857Y19142858D01*
X13238095Y19142858D01*
X13333333Y19095239D01*
X13380952Y19047620D01*
X13428571Y18952381D01*
X13428571Y18619048D01*
X13571428Y19619048D02*
X13571428Y20380953D01*
X22571428Y40714286D02*
X22571428Y41476191D01*
X22952380Y41095239D02*
X22190476Y41095239D01*
X21952380Y42428572D02*
X21952380Y41952381D01*
X22428571Y41904762D01*
X22380952Y41952381D01*
X22333333Y42047620D01*
X22333333Y42285715D01*
X22380952Y42380953D01*
X22428571Y42428572D01*
X22523809Y42476191D01*
X22761904Y42476191D01*
X22857142Y42428572D01*
X22904761Y42380953D01*
X22952380Y42285715D01*
X22952380Y42047620D01*
X22904761Y41952381D01*
X22857142Y41904762D01*
X21952380Y42761905D02*
X22952380Y43095239D01*
X21952380Y43428572D01*
X18500000Y41238096D02*
X18452380Y41142858D01*
X18452380Y41000000D01*
X18500000Y40857143D01*
X18595238Y40761905D01*
X18690476Y40714286D01*
X18880952Y40666667D01*
X19023809Y40666667D01*
X19214285Y40714286D01*
X19309523Y40761905D01*
X19404761Y40857143D01*
X19452380Y41000000D01*
X19452380Y41095239D01*
X19404761Y41238096D01*
X19357142Y41285715D01*
X19023809Y41285715D01*
X19023809Y41095239D01*
X19452380Y41714286D02*
X18452380Y41714286D01*
X19452380Y42285715D01*
X18452380Y42285715D01*
X19452380Y42761905D02*
X18452380Y42761905D01*
X18452380Y43000000D01*
X18500000Y43142858D01*
X18595238Y43238096D01*
X18690476Y43285715D01*
X18880952Y43333334D01*
X19023809Y43333334D01*
X19214285Y43285715D01*
X19309523Y43238096D01*
X19404761Y43142858D01*
X19452380Y43000000D01*
X19452380Y42761905D01*
X15666666Y41142858D02*
X15666666Y41619048D01*
X15952380Y41047620D02*
X14952380Y41380953D01*
X15952380Y41714286D01*
X15571428Y42047620D02*
X15571428Y42809524D01*
X15952380Y42428572D02*
X15190476Y42428572D01*
X12166666Y41142858D02*
X12166666Y41619048D01*
X12452380Y41047620D02*
X11452380Y41380953D01*
X12452380Y41714286D01*
X12071428Y42047620D02*
X12071428Y42809524D01*
D12*
X26100000Y31600000D02*
X27600000Y31600000D01*
X26100000Y33340000D02*
X26100000Y31600000D01*
X34160000Y38960000D02*
X34160000Y31840000D01*
X26340000Y38960000D02*
X26340000Y31840000D01*
X26340000Y31840000D02*
X34160000Y31840000D01*
X26340000Y38960000D02*
X34160000Y38960000D01*
X26340000Y33400000D02*
X34160000Y33400000D01*
X33555000Y35500000D02*
G75*
G03X33555000Y35500000I-1555000J0D01*
G01*
X28527011Y33944508D02*
G75*
G02X27892000Y34068000I-27011J1555492D01*
G01*
X27067891Y34892258D02*
G75*
G02X27068000Y36108000I1432109J607742D01*
G01*
X27892258Y36932109D02*
G75*
G02X29108000Y36932000I607742J-1432109D01*
G01*
X29932109Y36107742D02*
G75*
G02X29932000Y34892000I-1432109J-607742D01*
G01*
X29107587Y34068615D02*
G75*
G02X28500000Y33945000I-607587J1431385D01*
G01*
D10*
X48500000Y5625000D02*
X48500000Y4375000D01*
X48500000Y4375000D02*
X50500000Y4375000D01*
X50500000Y4375000D02*
X50500000Y5625000D01*
X50500000Y5625000D02*
X48500000Y5625000D01*
X49000000Y5625000D02*
X49000000Y4375000D01*
X50000000Y5650000D02*
X50000000Y4375000D01*
X12500000Y4375000D02*
X12500000Y5625000D01*
X12500000Y5625000D02*
X10500000Y5625000D01*
X10500000Y5625000D02*
X10500000Y4375000D01*
X10500000Y4375000D02*
X12500000Y4375000D01*
X12000000Y4375000D02*
X12000000Y5625000D01*
X11000000Y4350000D02*
X11000000Y5625000D01*
D13*
X37500000Y22900000D02*
X44500000Y22900000D01*
X37500000Y30737500D02*
X37500000Y22900000D01*
X35750000Y30737500D02*
X37500000Y30737500D01*
X35750000Y39250000D02*
X35750000Y30737500D01*
X42750000Y39250000D02*
X35750000Y39250000D01*
X42750000Y30737500D02*
X42750000Y39250000D01*
X44500000Y30737500D02*
X42750000Y30737500D01*
X44500000Y22900000D02*
X44500000Y30737500D01*
X44500000Y22900000D02*
X51500000Y22900000D01*
X44500000Y30737500D02*
X44500000Y22900000D01*
X42750000Y30737500D02*
X44500000Y30737500D01*
X42750000Y39250000D02*
X42750000Y30737500D01*
X49750000Y39250000D02*
X42750000Y39250000D01*
X49750000Y30737500D02*
X49750000Y39250000D01*
X51500000Y30737500D02*
X49750000Y30737500D01*
X51500000Y22900000D02*
X51500000Y30737500D01*
D10*
X30250000Y-1500000D02*
X46750000Y-1500000D01*
X46750000Y-1500000D02*
X46750000Y14000000D01*
X46750000Y14000000D02*
X30250000Y14000000D01*
X30250000Y14000000D02*
X30250000Y-1500000D01*
D13*
X12000000Y22900000D02*
X19000000Y22900000D01*
X12000000Y30737500D02*
X12000000Y22900000D01*
X10250000Y30737500D02*
X12000000Y30737500D01*
X10250000Y39250000D02*
X10250000Y30737500D01*
X17250000Y39250000D02*
X10250000Y39250000D01*
X17250000Y30737500D02*
X17250000Y39250000D01*
X19000000Y30737500D02*
X17250000Y30737500D01*
X19000000Y22900000D02*
X19000000Y30737500D01*
X19000000Y22900000D02*
X26000000Y22900000D01*
X19000000Y30737500D02*
X19000000Y22900000D01*
X17250000Y30737500D02*
X19000000Y30737500D01*
X17250000Y39250000D02*
X17250000Y30737500D01*
X24250000Y39250000D02*
X17250000Y39250000D01*
X24250000Y30737500D02*
X24250000Y39250000D01*
X26000000Y30737500D02*
X24250000Y30737500D01*
X26000000Y22900000D02*
X26000000Y30737500D01*
D10*
X13750000Y-1500000D02*
X30250000Y-1500000D01*
X30250000Y-1500000D02*
X30250000Y14000000D01*
X30250000Y14000000D02*
X13750000Y14000000D01*
X13750000Y14000000D02*
X13750000Y-1500000D01*
X48500000Y10125000D02*
X48500000Y8875000D01*
X48500000Y8875000D02*
X50500000Y8875000D01*
X50500000Y8875000D02*
X50500000Y10125000D01*
X50500000Y10125000D02*
X48500000Y10125000D01*
X49000000Y10125000D02*
X49000000Y8875000D01*
X50000000Y10150000D02*
X50000000Y8875000D01*
X12500000Y8875000D02*
X12500000Y10125000D01*
X12500000Y10125000D02*
X10500000Y10125000D01*
X10500000Y10125000D02*
X10500000Y8875000D01*
X10500000Y8875000D02*
X12500000Y8875000D01*
X12000000Y8875000D02*
X12000000Y10125000D01*
X11000000Y8850000D02*
X11000000Y10125000D01*
X8000000Y35000000D02*
G75*
G03X8000000Y35000000I-3000000J0D01*
G01*
X58000000Y35000000D02*
G75*
G03X58000000Y35000000I-3000000J0D01*
G01*
X8000000Y10000000D02*
G75*
G03X8000000Y10000000I-3000000J0D01*
G01*
X58000000Y10000000D02*
G75*
G03X58000000Y10000000I-3000000J0D01*
G01*
X27166666Y30547620D02*
X27166666Y29833334D01*
X27119047Y29690477D01*
X27023809Y29595239D01*
X26880952Y29547620D01*
X26785714Y29547620D01*
X27547619Y30547620D02*
X28214285Y30547620D01*
X27785714Y29547620D01*
D14*
X49366666Y3214286D02*
X49328571Y3176191D01*
X49214285Y3138096D01*
X49138095Y3138096D01*
X49023809Y3176191D01*
X48947619Y3252381D01*
X48909523Y3328572D01*
X48871428Y3480953D01*
X48871428Y3595239D01*
X48909523Y3747620D01*
X48947619Y3823810D01*
X49023809Y3900000D01*
X49138095Y3938096D01*
X49214285Y3938096D01*
X49328571Y3900000D01*
X49366666Y3861905D01*
X50128571Y3138096D02*
X49671428Y3138096D01*
X49900000Y3138096D02*
X49900000Y3938096D01*
X49823809Y3823810D01*
X49747619Y3747620D01*
X49671428Y3709524D01*
X11366666Y2714286D02*
X11328571Y2676191D01*
X11214285Y2638096D01*
X11138095Y2638096D01*
X11023809Y2676191D01*
X10947619Y2752381D01*
X10909523Y2828572D01*
X10871428Y2980953D01*
X10871428Y3095239D01*
X10909523Y3247620D01*
X10947619Y3323810D01*
X11023809Y3400000D01*
X11138095Y3438096D01*
X11214285Y3438096D01*
X11328571Y3400000D01*
X11366666Y3361905D01*
X11671428Y3361905D02*
X11709523Y3400000D01*
X11785714Y3438096D01*
X11976190Y3438096D01*
X12052380Y3400000D01*
X12090476Y3361905D01*
X12128571Y3285715D01*
X12128571Y3209524D01*
X12090476Y3095239D01*
X11633333Y2638096D01*
X12128571Y2638096D01*
D15*
X40737532Y35931197D02*
X40737532Y35368767D01*
X40700037Y35256281D01*
X40625046Y35181290D01*
X40512560Y35143795D01*
X40437570Y35143795D01*
X41524934Y35143795D02*
X41074990Y35143795D01*
X41299962Y35143795D02*
X41299962Y35931197D01*
X41224972Y35818711D01*
X41149981Y35743720D01*
X41074990Y35706225D01*
X47737532Y35931197D02*
X47737532Y35368767D01*
X47700037Y35256281D01*
X47625046Y35181290D01*
X47512560Y35143795D01*
X47437570Y35143795D01*
X48074990Y35856206D02*
X48112486Y35893701D01*
X48187476Y35931197D01*
X48374953Y35931197D01*
X48449944Y35893701D01*
X48487439Y35856206D01*
X48524934Y35781215D01*
X48524934Y35706225D01*
X48487439Y35593739D01*
X48037495Y35143795D01*
X48524934Y35143795D01*
D11*
X32250000Y11821429D02*
X32250000Y10750000D01*
X32178571Y10535715D01*
X32035714Y10392858D01*
X31821428Y10321429D01*
X31678571Y10321429D01*
X32821428Y11821429D02*
X33750000Y11821429D01*
X33250000Y11250000D01*
X33464285Y11250000D01*
X33607142Y11178572D01*
X33678571Y11107143D01*
X33750000Y10964286D01*
X33750000Y10607143D01*
X33678571Y10464286D01*
X33607142Y10392858D01*
X33464285Y10321429D01*
X33035714Y10321429D01*
X32892857Y10392858D01*
X32821428Y10464286D01*
D15*
X15237532Y35931197D02*
X15237532Y35368767D01*
X15200037Y35256281D01*
X15125046Y35181290D01*
X15012560Y35143795D01*
X14937570Y35143795D01*
X15949944Y35668729D02*
X15949944Y35143795D01*
X15762467Y35968692D02*
X15574990Y35406262D01*
X16062430Y35406262D01*
X22237532Y35931197D02*
X22237532Y35368767D01*
X22200037Y35256281D01*
X22125046Y35181290D01*
X22012560Y35143795D01*
X21937570Y35143795D01*
X22987439Y35931197D02*
X22612486Y35931197D01*
X22574990Y35556243D01*
X22612486Y35593739D01*
X22687476Y35631234D01*
X22874953Y35631234D01*
X22949944Y35593739D01*
X22987439Y35556243D01*
X23024934Y35481253D01*
X23024934Y35293776D01*
X22987439Y35218785D01*
X22949944Y35181290D01*
X22874953Y35143795D01*
X22687476Y35143795D01*
X22612486Y35181290D01*
X22574990Y35218785D01*
D11*
X15750000Y11821429D02*
X15750000Y10750000D01*
X15678571Y10535715D01*
X15535714Y10392858D01*
X15321428Y10321429D01*
X15178571Y10321429D01*
X17107142Y11821429D02*
X16821428Y11821429D01*
X16678571Y11750000D01*
X16607142Y11678572D01*
X16464285Y11464286D01*
X16392857Y11178572D01*
X16392857Y10607143D01*
X16464285Y10464286D01*
X16535714Y10392858D01*
X16678571Y10321429D01*
X16964285Y10321429D01*
X17107142Y10392858D01*
X17178571Y10464286D01*
X17250000Y10607143D01*
X17250000Y10964286D01*
X17178571Y11107143D01*
X17107142Y11178572D01*
X16964285Y11250000D01*
X16678571Y11250000D01*
X16535714Y11178572D01*
X16464285Y11107143D01*
X16392857Y10964286D01*
D14*
X49366666Y7638096D02*
X49100000Y8019048D01*
X48909523Y7638096D02*
X48909523Y8438096D01*
X49214285Y8438096D01*
X49290476Y8400000D01*
X49328571Y8361905D01*
X49366666Y8285715D01*
X49366666Y8171429D01*
X49328571Y8095239D01*
X49290476Y8057143D01*
X49214285Y8019048D01*
X48909523Y8019048D01*
X50128571Y7638096D02*
X49671428Y7638096D01*
X49900000Y7638096D02*
X49900000Y8438096D01*
X49823809Y8323810D01*
X49747619Y8247620D01*
X49671428Y8209524D01*
X11366666Y7638096D02*
X11100000Y8019048D01*
X10909523Y7638096D02*
X10909523Y8438096D01*
X11214285Y8438096D01*
X11290476Y8400000D01*
X11328571Y8361905D01*
X11366666Y8285715D01*
X11366666Y8171429D01*
X11328571Y8095239D01*
X11290476Y8057143D01*
X11214285Y8019048D01*
X10909523Y8019048D01*
X11671428Y8361905D02*
X11709523Y8400000D01*
X11785714Y8438096D01*
X11976190Y8438096D01*
X12052380Y8400000D01*
X12090476Y8361905D01*
X12128571Y8285715D01*
X12128571Y8209524D01*
X12090476Y8095239D01*
X11633333Y7638096D01*
X12128571Y7638096D01*
M02*
