G04 #@! TF.GenerationSoftware,KiCad,Pcbnew,(5.1.5)-3*
G04 #@! TF.CreationDate,2020-01-24T16:47:09+01:00*
G04 #@! TF.ProjectId,STMBLBreakout,53544d42-4c42-4726-9561-6b6f75742e6b,rev?*
G04 #@! TF.SameCoordinates,PX2faf080PY8f0d180*
G04 #@! TF.FileFunction,Soldermask,Top*
G04 #@! TF.FilePolarity,Negative*
%FSLAX46Y46*%
G04 Gerber Fmt 4.6, Leading zero omitted, Abs format (unit mm)*
G04 Created by KiCad (PCBNEW (5.1.5)-3) date 2020-01-24 16:47:09*
%MOMM*%
%LPD*%
G04 APERTURE LIST*
%ADD10C,0.100000*%
G04 APERTURE END LIST*
D10*
G36*
X28546217Y5493335D02*
G01*
X28816995Y5439475D01*
X29108358Y5318788D01*
X29370578Y5143578D01*
X29593578Y4920578D01*
X29768788Y4658358D01*
X29889475Y4366995D01*
X29951000Y4057685D01*
X29951000Y3742315D01*
X29889475Y3433005D01*
X29768788Y3141642D01*
X29593578Y2879422D01*
X29370578Y2656422D01*
X29108358Y2481212D01*
X28816995Y2360525D01*
X28546217Y2306665D01*
X28507686Y2299000D01*
X28192314Y2299000D01*
X28153783Y2306665D01*
X27883005Y2360525D01*
X27591642Y2481212D01*
X27329422Y2656422D01*
X27106422Y2879422D01*
X26931212Y3141642D01*
X26810525Y3433005D01*
X26749000Y3742315D01*
X26749000Y4057685D01*
X26810525Y4366995D01*
X26931212Y4658358D01*
X27106422Y4920578D01*
X27329422Y5143578D01*
X27591642Y5318788D01*
X27883005Y5439475D01*
X28153783Y5493335D01*
X28192314Y5501000D01*
X28507686Y5501000D01*
X28546217Y5493335D01*
G37*
G36*
X32346217Y5493335D02*
G01*
X32616995Y5439475D01*
X32908358Y5318788D01*
X33170578Y5143578D01*
X33393578Y4920578D01*
X33568788Y4658358D01*
X33689475Y4366995D01*
X33751000Y4057685D01*
X33751000Y3742315D01*
X33689475Y3433005D01*
X33568788Y3141642D01*
X33393578Y2879422D01*
X33170578Y2656422D01*
X32908358Y2481212D01*
X32616995Y2360525D01*
X32346217Y2306665D01*
X32307686Y2299000D01*
X31992314Y2299000D01*
X31953783Y2306665D01*
X31683005Y2360525D01*
X31391642Y2481212D01*
X31129422Y2656422D01*
X30906422Y2879422D01*
X30731212Y3141642D01*
X30610525Y3433005D01*
X30549000Y3742315D01*
X30549000Y4057685D01*
X30610525Y4366995D01*
X30731212Y4658358D01*
X30906422Y4920578D01*
X31129422Y5143578D01*
X31391642Y5318788D01*
X31683005Y5439475D01*
X31953783Y5493335D01*
X31992314Y5501000D01*
X32307686Y5501000D01*
X32346217Y5493335D01*
G37*
G36*
X45046217Y5493335D02*
G01*
X45316995Y5439475D01*
X45608358Y5318788D01*
X45870578Y5143578D01*
X46093578Y4920578D01*
X46268788Y4658358D01*
X46389475Y4366995D01*
X46451000Y4057685D01*
X46451000Y3742315D01*
X46389475Y3433005D01*
X46268788Y3141642D01*
X46093578Y2879422D01*
X45870578Y2656422D01*
X45608358Y2481212D01*
X45316995Y2360525D01*
X45046217Y2306665D01*
X45007686Y2299000D01*
X44692314Y2299000D01*
X44653783Y2306665D01*
X44383005Y2360525D01*
X44091642Y2481212D01*
X43829422Y2656422D01*
X43606422Y2879422D01*
X43431212Y3141642D01*
X43310525Y3433005D01*
X43249000Y3742315D01*
X43249000Y4057685D01*
X43310525Y4366995D01*
X43431212Y4658358D01*
X43606422Y4920578D01*
X43829422Y5143578D01*
X44091642Y5318788D01*
X44383005Y5439475D01*
X44653783Y5493335D01*
X44692314Y5501000D01*
X45007686Y5501000D01*
X45046217Y5493335D01*
G37*
G36*
X15846217Y5493335D02*
G01*
X16116995Y5439475D01*
X16408358Y5318788D01*
X16670578Y5143578D01*
X16893578Y4920578D01*
X17068788Y4658358D01*
X17189475Y4366995D01*
X17251000Y4057685D01*
X17251000Y3742315D01*
X17189475Y3433005D01*
X17068788Y3141642D01*
X16893578Y2879422D01*
X16670578Y2656422D01*
X16408358Y2481212D01*
X16116995Y2360525D01*
X15846217Y2306665D01*
X15807686Y2299000D01*
X15492314Y2299000D01*
X15453783Y2306665D01*
X15183005Y2360525D01*
X14891642Y2481212D01*
X14629422Y2656422D01*
X14406422Y2879422D01*
X14231212Y3141642D01*
X14110525Y3433005D01*
X14049000Y3742315D01*
X14049000Y4057685D01*
X14110525Y4366995D01*
X14231212Y4658358D01*
X14406422Y4920578D01*
X14629422Y5143578D01*
X14891642Y5318788D01*
X15183005Y5439475D01*
X15453783Y5493335D01*
X15492314Y5501000D01*
X15807686Y5501000D01*
X15846217Y5493335D01*
G37*
G36*
X48908715Y5719844D02*
G01*
X48953155Y5706363D01*
X48994113Y5684470D01*
X49030011Y5655011D01*
X49059470Y5619113D01*
X49081363Y5578155D01*
X49094844Y5533715D01*
X49100000Y5481360D01*
X49100000Y4518640D01*
X49094844Y4466285D01*
X49081363Y4421845D01*
X49059470Y4380887D01*
X49030011Y4344989D01*
X48994113Y4315530D01*
X48953155Y4293637D01*
X48908715Y4280156D01*
X48856360Y4275000D01*
X48143640Y4275000D01*
X48091285Y4280156D01*
X48046845Y4293637D01*
X48005887Y4315530D01*
X47969989Y4344989D01*
X47940530Y4380887D01*
X47918637Y4421845D01*
X47905156Y4466285D01*
X47900000Y4518640D01*
X47900000Y5481360D01*
X47905156Y5533715D01*
X47918637Y5578155D01*
X47940530Y5619113D01*
X47969989Y5655011D01*
X48005887Y5684470D01*
X48046845Y5706363D01*
X48091285Y5719844D01*
X48143640Y5725000D01*
X48856360Y5725000D01*
X48908715Y5719844D01*
G37*
G36*
X50908715Y5719844D02*
G01*
X50953155Y5706363D01*
X50994113Y5684470D01*
X51030011Y5655011D01*
X51059470Y5619113D01*
X51081363Y5578155D01*
X51094844Y5533715D01*
X51100000Y5481360D01*
X51100000Y4518640D01*
X51094844Y4466285D01*
X51081363Y4421845D01*
X51059470Y4380887D01*
X51030011Y4344989D01*
X50994113Y4315530D01*
X50953155Y4293637D01*
X50908715Y4280156D01*
X50856360Y4275000D01*
X50143640Y4275000D01*
X50091285Y4280156D01*
X50046845Y4293637D01*
X50005887Y4315530D01*
X49969989Y4344989D01*
X49940530Y4380887D01*
X49918637Y4421845D01*
X49905156Y4466285D01*
X49900000Y4518640D01*
X49900000Y5481360D01*
X49905156Y5533715D01*
X49918637Y5578155D01*
X49940530Y5619113D01*
X49969989Y5655011D01*
X50005887Y5684470D01*
X50046845Y5706363D01*
X50091285Y5719844D01*
X50143640Y5725000D01*
X50856360Y5725000D01*
X50908715Y5719844D01*
G37*
G36*
X12908715Y5719844D02*
G01*
X12953155Y5706363D01*
X12994113Y5684470D01*
X13030011Y5655011D01*
X13059470Y5619113D01*
X13081363Y5578155D01*
X13094844Y5533715D01*
X13100000Y5481360D01*
X13100000Y4518640D01*
X13094844Y4466285D01*
X13081363Y4421845D01*
X13059470Y4380887D01*
X13030011Y4344989D01*
X12994113Y4315530D01*
X12953155Y4293637D01*
X12908715Y4280156D01*
X12856360Y4275000D01*
X12143640Y4275000D01*
X12091285Y4280156D01*
X12046845Y4293637D01*
X12005887Y4315530D01*
X11969989Y4344989D01*
X11940530Y4380887D01*
X11918637Y4421845D01*
X11905156Y4466285D01*
X11900000Y4518640D01*
X11900000Y5481360D01*
X11905156Y5533715D01*
X11918637Y5578155D01*
X11940530Y5619113D01*
X11969989Y5655011D01*
X12005887Y5684470D01*
X12046845Y5706363D01*
X12091285Y5719844D01*
X12143640Y5725000D01*
X12856360Y5725000D01*
X12908715Y5719844D01*
G37*
G36*
X10908715Y5719844D02*
G01*
X10953155Y5706363D01*
X10994113Y5684470D01*
X11030011Y5655011D01*
X11059470Y5619113D01*
X11081363Y5578155D01*
X11094844Y5533715D01*
X11100000Y5481360D01*
X11100000Y4518640D01*
X11094844Y4466285D01*
X11081363Y4421845D01*
X11059470Y4380887D01*
X11030011Y4344989D01*
X10994113Y4315530D01*
X10953155Y4293637D01*
X10908715Y4280156D01*
X10856360Y4275000D01*
X10143640Y4275000D01*
X10091285Y4280156D01*
X10046845Y4293637D01*
X10005887Y4315530D01*
X9969989Y4344989D01*
X9940530Y4380887D01*
X9918637Y4421845D01*
X9905156Y4466285D01*
X9900000Y4518640D01*
X9900000Y5481360D01*
X9905156Y5533715D01*
X9918637Y5578155D01*
X9940530Y5619113D01*
X9969989Y5655011D01*
X10005887Y5684470D01*
X10046845Y5706363D01*
X10091285Y5719844D01*
X10143640Y5725000D01*
X10856360Y5725000D01*
X10908715Y5719844D01*
G37*
G36*
X23734473Y7114062D02*
G01*
X23862049Y7061218D01*
X23976859Y6984505D01*
X24074505Y6886859D01*
X24151218Y6772049D01*
X24204062Y6644473D01*
X24231000Y6509044D01*
X24231000Y6370956D01*
X24204062Y6235527D01*
X24151218Y6107951D01*
X24074505Y5993141D01*
X23976859Y5895495D01*
X23862049Y5818782D01*
X23734473Y5765938D01*
X23599044Y5739000D01*
X23460956Y5739000D01*
X23325527Y5765938D01*
X23197951Y5818782D01*
X23083141Y5895495D01*
X22985495Y5993141D01*
X22908782Y6107951D01*
X22855938Y6235527D01*
X22829000Y6370956D01*
X22829000Y6509044D01*
X22855938Y6644473D01*
X22908782Y6772049D01*
X22985495Y6886859D01*
X23083141Y6984505D01*
X23197951Y7061218D01*
X23325527Y7114062D01*
X23460956Y7141000D01*
X23599044Y7141000D01*
X23734473Y7114062D01*
G37*
G36*
X42274473Y7114062D02*
G01*
X42402049Y7061218D01*
X42516859Y6984505D01*
X42614505Y6886859D01*
X42691218Y6772049D01*
X42744062Y6644473D01*
X42771000Y6509044D01*
X42771000Y6370956D01*
X42744062Y6235527D01*
X42691218Y6107951D01*
X42614505Y5993141D01*
X42516859Y5895495D01*
X42402049Y5818782D01*
X42274473Y5765938D01*
X42139044Y5739000D01*
X42000956Y5739000D01*
X41865527Y5765938D01*
X41737951Y5818782D01*
X41623141Y5895495D01*
X41525495Y5993141D01*
X41448782Y6107951D01*
X41395938Y6235527D01*
X41369000Y6370956D01*
X41369000Y6509044D01*
X41395938Y6644473D01*
X41448782Y6772049D01*
X41525495Y6886859D01*
X41623141Y6984505D01*
X41737951Y7061218D01*
X41865527Y7114062D01*
X42000956Y7141000D01*
X42139044Y7141000D01*
X42274473Y7114062D01*
G37*
G36*
X40234473Y7114062D02*
G01*
X40362049Y7061218D01*
X40476859Y6984505D01*
X40574505Y6886859D01*
X40651218Y6772049D01*
X40704062Y6644473D01*
X40731000Y6509044D01*
X40731000Y6370956D01*
X40704062Y6235527D01*
X40651218Y6107951D01*
X40574505Y5993141D01*
X40476859Y5895495D01*
X40362049Y5818782D01*
X40234473Y5765938D01*
X40099044Y5739000D01*
X39960956Y5739000D01*
X39825527Y5765938D01*
X39697951Y5818782D01*
X39583141Y5895495D01*
X39485495Y5993141D01*
X39408782Y6107951D01*
X39355938Y6235527D01*
X39329000Y6370956D01*
X39329000Y6509044D01*
X39355938Y6644473D01*
X39408782Y6772049D01*
X39485495Y6886859D01*
X39583141Y6984505D01*
X39697951Y7061218D01*
X39825527Y7114062D01*
X39960956Y7141000D01*
X40099044Y7141000D01*
X40234473Y7114062D01*
G37*
G36*
X38194473Y7114062D02*
G01*
X38322049Y7061218D01*
X38436859Y6984505D01*
X38534505Y6886859D01*
X38611218Y6772049D01*
X38664062Y6644473D01*
X38691000Y6509044D01*
X38691000Y6370956D01*
X38664062Y6235527D01*
X38611218Y6107951D01*
X38534505Y5993141D01*
X38436859Y5895495D01*
X38322049Y5818782D01*
X38194473Y5765938D01*
X38059044Y5739000D01*
X37920956Y5739000D01*
X37785527Y5765938D01*
X37657951Y5818782D01*
X37543141Y5895495D01*
X37445495Y5993141D01*
X37368782Y6107951D01*
X37315938Y6235527D01*
X37289000Y6370956D01*
X37289000Y6509044D01*
X37315938Y6644473D01*
X37368782Y6772049D01*
X37445495Y6886859D01*
X37543141Y6984505D01*
X37657951Y7061218D01*
X37785527Y7114062D01*
X37920956Y7141000D01*
X38059044Y7141000D01*
X38194473Y7114062D01*
G37*
G36*
X36154473Y7114062D02*
G01*
X36282049Y7061218D01*
X36396859Y6984505D01*
X36494505Y6886859D01*
X36571218Y6772049D01*
X36624062Y6644473D01*
X36651000Y6509044D01*
X36651000Y6370956D01*
X36624062Y6235527D01*
X36571218Y6107951D01*
X36494505Y5993141D01*
X36396859Y5895495D01*
X36282049Y5818782D01*
X36154473Y5765938D01*
X36019044Y5739000D01*
X35880956Y5739000D01*
X35745527Y5765938D01*
X35617951Y5818782D01*
X35503141Y5895495D01*
X35405495Y5993141D01*
X35328782Y6107951D01*
X35275938Y6235527D01*
X35249000Y6370956D01*
X35249000Y6509044D01*
X35275938Y6644473D01*
X35328782Y6772049D01*
X35405495Y6886859D01*
X35503141Y6984505D01*
X35617951Y7061218D01*
X35745527Y7114062D01*
X35880956Y7141000D01*
X36019044Y7141000D01*
X36154473Y7114062D01*
G37*
G36*
X25774473Y7114062D02*
G01*
X25902049Y7061218D01*
X26016859Y6984505D01*
X26114505Y6886859D01*
X26191218Y6772049D01*
X26244062Y6644473D01*
X26271000Y6509044D01*
X26271000Y6370956D01*
X26244062Y6235527D01*
X26191218Y6107951D01*
X26114505Y5993141D01*
X26016859Y5895495D01*
X25902049Y5818782D01*
X25774473Y5765938D01*
X25639044Y5739000D01*
X25500956Y5739000D01*
X25365527Y5765938D01*
X25237951Y5818782D01*
X25123141Y5895495D01*
X25025495Y5993141D01*
X24948782Y6107951D01*
X24895938Y6235527D01*
X24869000Y6370956D01*
X24869000Y6509044D01*
X24895938Y6644473D01*
X24948782Y6772049D01*
X25025495Y6886859D01*
X25123141Y6984505D01*
X25237951Y7061218D01*
X25365527Y7114062D01*
X25500956Y7141000D01*
X25639044Y7141000D01*
X25774473Y7114062D01*
G37*
G36*
X21694473Y7114062D02*
G01*
X21822049Y7061218D01*
X21936859Y6984505D01*
X22034505Y6886859D01*
X22111218Y6772049D01*
X22164062Y6644473D01*
X22191000Y6509044D01*
X22191000Y6370956D01*
X22164062Y6235527D01*
X22111218Y6107951D01*
X22034505Y5993141D01*
X21936859Y5895495D01*
X21822049Y5818782D01*
X21694473Y5765938D01*
X21559044Y5739000D01*
X21420956Y5739000D01*
X21285527Y5765938D01*
X21157951Y5818782D01*
X21043141Y5895495D01*
X20945495Y5993141D01*
X20868782Y6107951D01*
X20815938Y6235527D01*
X20789000Y6370956D01*
X20789000Y6509044D01*
X20815938Y6644473D01*
X20868782Y6772049D01*
X20945495Y6886859D01*
X21043141Y6984505D01*
X21157951Y7061218D01*
X21285527Y7114062D01*
X21420956Y7141000D01*
X21559044Y7141000D01*
X21694473Y7114062D01*
G37*
G36*
X19654473Y7114062D02*
G01*
X19782049Y7061218D01*
X19896859Y6984505D01*
X19994505Y6886859D01*
X20071218Y6772049D01*
X20124062Y6644473D01*
X20151000Y6509044D01*
X20151000Y6370956D01*
X20124062Y6235527D01*
X20071218Y6107951D01*
X19994505Y5993141D01*
X19896859Y5895495D01*
X19782049Y5818782D01*
X19654473Y5765938D01*
X19519044Y5739000D01*
X19380956Y5739000D01*
X19245527Y5765938D01*
X19117951Y5818782D01*
X19003141Y5895495D01*
X18905495Y5993141D01*
X18828782Y6107951D01*
X18775938Y6235527D01*
X18749000Y6370956D01*
X18749000Y6509044D01*
X18775938Y6644473D01*
X18828782Y6772049D01*
X18905495Y6886859D01*
X19003141Y6984505D01*
X19117951Y7061218D01*
X19245527Y7114062D01*
X19380956Y7141000D01*
X19519044Y7141000D01*
X19654473Y7114062D01*
G37*
G36*
X30445285Y8311766D02*
G01*
X30541981Y8292532D01*
X30724151Y8217074D01*
X30888100Y8107527D01*
X31027527Y7968100D01*
X31137074Y7804151D01*
X31212532Y7621981D01*
X31251000Y7428590D01*
X31251000Y7231410D01*
X31212532Y7038019D01*
X31137074Y6855849D01*
X31027527Y6691900D01*
X30888100Y6552473D01*
X30724151Y6442926D01*
X30541981Y6367468D01*
X30445285Y6348234D01*
X30348591Y6329000D01*
X30151409Y6329000D01*
X30054715Y6348234D01*
X29958019Y6367468D01*
X29775849Y6442926D01*
X29611900Y6552473D01*
X29472473Y6691900D01*
X29362926Y6855849D01*
X29287468Y7038019D01*
X29249000Y7231410D01*
X29249000Y7428590D01*
X29287468Y7621981D01*
X29362926Y7804151D01*
X29472473Y7968100D01*
X29611900Y8107527D01*
X29775849Y8217074D01*
X29958019Y8292532D01*
X30054715Y8311766D01*
X30151409Y8331000D01*
X30348591Y8331000D01*
X30445285Y8311766D01*
G37*
G36*
X13945285Y8311766D02*
G01*
X14041981Y8292532D01*
X14224151Y8217074D01*
X14388100Y8107527D01*
X14527527Y7968100D01*
X14637074Y7804151D01*
X14712532Y7621981D01*
X14751000Y7428590D01*
X14751000Y7231410D01*
X14712532Y7038019D01*
X14637074Y6855849D01*
X14527527Y6691900D01*
X14388100Y6552473D01*
X14224151Y6442926D01*
X14041981Y6367468D01*
X13945285Y6348234D01*
X13848591Y6329000D01*
X13651409Y6329000D01*
X13554715Y6348234D01*
X13458019Y6367468D01*
X13275849Y6442926D01*
X13111900Y6552473D01*
X12972473Y6691900D01*
X12862926Y6855849D01*
X12787468Y7038019D01*
X12749000Y7231410D01*
X12749000Y7428590D01*
X12787468Y7621981D01*
X12862926Y7804151D01*
X12972473Y7968100D01*
X13111900Y8107527D01*
X13275849Y8217074D01*
X13458019Y8292532D01*
X13554715Y8311766D01*
X13651409Y8331000D01*
X13848591Y8331000D01*
X13945285Y8311766D01*
G37*
G36*
X46945285Y8311766D02*
G01*
X47041981Y8292532D01*
X47224151Y8217074D01*
X47388100Y8107527D01*
X47527527Y7968100D01*
X47637074Y7804151D01*
X47712532Y7621981D01*
X47751000Y7428590D01*
X47751000Y7231410D01*
X47712532Y7038019D01*
X47637074Y6855849D01*
X47527527Y6691900D01*
X47388100Y6552473D01*
X47224151Y6442926D01*
X47041981Y6367468D01*
X46945285Y6348234D01*
X46848591Y6329000D01*
X46651409Y6329000D01*
X46554715Y6348234D01*
X46458019Y6367468D01*
X46275849Y6442926D01*
X46111900Y6552473D01*
X45972473Y6691900D01*
X45862926Y6855849D01*
X45787468Y7038019D01*
X45749000Y7231410D01*
X45749000Y7428590D01*
X45787468Y7621981D01*
X45862926Y7804151D01*
X45972473Y7968100D01*
X46111900Y8107527D01*
X46275849Y8217074D01*
X46458019Y8292532D01*
X46554715Y8311766D01*
X46651409Y8331000D01*
X46848591Y8331000D01*
X46945285Y8311766D01*
G37*
G36*
X18634473Y8894062D02*
G01*
X18762049Y8841218D01*
X18876859Y8764505D01*
X18974505Y8666859D01*
X19051218Y8552049D01*
X19104062Y8424473D01*
X19131000Y8289044D01*
X19131000Y8150956D01*
X19104062Y8015527D01*
X19051218Y7887951D01*
X18974505Y7773141D01*
X18876859Y7675495D01*
X18762049Y7598782D01*
X18634473Y7545938D01*
X18499044Y7519000D01*
X18360956Y7519000D01*
X18225527Y7545938D01*
X18097951Y7598782D01*
X17983141Y7675495D01*
X17885495Y7773141D01*
X17808782Y7887951D01*
X17755938Y8015527D01*
X17729000Y8150956D01*
X17729000Y8289044D01*
X17755938Y8424473D01*
X17808782Y8552049D01*
X17885495Y8666859D01*
X17983141Y8764505D01*
X18097951Y8841218D01*
X18225527Y8894062D01*
X18360956Y8921000D01*
X18499044Y8921000D01*
X18634473Y8894062D01*
G37*
G36*
X41254473Y8894062D02*
G01*
X41382049Y8841218D01*
X41496859Y8764505D01*
X41594505Y8666859D01*
X41671218Y8552049D01*
X41724062Y8424473D01*
X41751000Y8289044D01*
X41751000Y8150956D01*
X41724062Y8015527D01*
X41671218Y7887951D01*
X41594505Y7773141D01*
X41496859Y7675495D01*
X41382049Y7598782D01*
X41254473Y7545938D01*
X41119044Y7519000D01*
X40980956Y7519000D01*
X40845527Y7545938D01*
X40717951Y7598782D01*
X40603141Y7675495D01*
X40505495Y7773141D01*
X40428782Y7887951D01*
X40375938Y8015527D01*
X40349000Y8150956D01*
X40349000Y8289044D01*
X40375938Y8424473D01*
X40428782Y8552049D01*
X40505495Y8666859D01*
X40603141Y8764505D01*
X40717951Y8841218D01*
X40845527Y8894062D01*
X40980956Y8921000D01*
X41119044Y8921000D01*
X41254473Y8894062D01*
G37*
G36*
X39214473Y8894062D02*
G01*
X39342049Y8841218D01*
X39456859Y8764505D01*
X39554505Y8666859D01*
X39631218Y8552049D01*
X39684062Y8424473D01*
X39711000Y8289044D01*
X39711000Y8150956D01*
X39684062Y8015527D01*
X39631218Y7887951D01*
X39554505Y7773141D01*
X39456859Y7675495D01*
X39342049Y7598782D01*
X39214473Y7545938D01*
X39079044Y7519000D01*
X38940956Y7519000D01*
X38805527Y7545938D01*
X38677951Y7598782D01*
X38563141Y7675495D01*
X38465495Y7773141D01*
X38388782Y7887951D01*
X38335938Y8015527D01*
X38309000Y8150956D01*
X38309000Y8289044D01*
X38335938Y8424473D01*
X38388782Y8552049D01*
X38465495Y8666859D01*
X38563141Y8764505D01*
X38677951Y8841218D01*
X38805527Y8894062D01*
X38940956Y8921000D01*
X39079044Y8921000D01*
X39214473Y8894062D01*
G37*
G36*
X37174473Y8894062D02*
G01*
X37302049Y8841218D01*
X37416859Y8764505D01*
X37514505Y8666859D01*
X37591218Y8552049D01*
X37644062Y8424473D01*
X37671000Y8289044D01*
X37671000Y8150956D01*
X37644062Y8015527D01*
X37591218Y7887951D01*
X37514505Y7773141D01*
X37416859Y7675495D01*
X37302049Y7598782D01*
X37174473Y7545938D01*
X37039044Y7519000D01*
X36900956Y7519000D01*
X36765527Y7545938D01*
X36637951Y7598782D01*
X36523141Y7675495D01*
X36425495Y7773141D01*
X36348782Y7887951D01*
X36295938Y8015527D01*
X36269000Y8150956D01*
X36269000Y8289044D01*
X36295938Y8424473D01*
X36348782Y8552049D01*
X36425495Y8666859D01*
X36523141Y8764505D01*
X36637951Y8841218D01*
X36765527Y8894062D01*
X36900956Y8921000D01*
X37039044Y8921000D01*
X37174473Y8894062D01*
G37*
G36*
X35134473Y8894062D02*
G01*
X35262049Y8841218D01*
X35376859Y8764505D01*
X35474505Y8666859D01*
X35551218Y8552049D01*
X35604062Y8424473D01*
X35631000Y8289044D01*
X35631000Y8150956D01*
X35604062Y8015527D01*
X35551218Y7887951D01*
X35474505Y7773141D01*
X35376859Y7675495D01*
X35262049Y7598782D01*
X35134473Y7545938D01*
X34999044Y7519000D01*
X34860956Y7519000D01*
X34725527Y7545938D01*
X34597951Y7598782D01*
X34483141Y7675495D01*
X34385495Y7773141D01*
X34308782Y7887951D01*
X34255938Y8015527D01*
X34229000Y8150956D01*
X34229000Y8289044D01*
X34255938Y8424473D01*
X34308782Y8552049D01*
X34385495Y8666859D01*
X34483141Y8764505D01*
X34597951Y8841218D01*
X34725527Y8894062D01*
X34860956Y8921000D01*
X34999044Y8921000D01*
X35134473Y8894062D01*
G37*
G36*
X24754473Y8894062D02*
G01*
X24882049Y8841218D01*
X24996859Y8764505D01*
X25094505Y8666859D01*
X25171218Y8552049D01*
X25224062Y8424473D01*
X25251000Y8289044D01*
X25251000Y8150956D01*
X25224062Y8015527D01*
X25171218Y7887951D01*
X25094505Y7773141D01*
X24996859Y7675495D01*
X24882049Y7598782D01*
X24754473Y7545938D01*
X24619044Y7519000D01*
X24480956Y7519000D01*
X24345527Y7545938D01*
X24217951Y7598782D01*
X24103141Y7675495D01*
X24005495Y7773141D01*
X23928782Y7887951D01*
X23875938Y8015527D01*
X23849000Y8150956D01*
X23849000Y8289044D01*
X23875938Y8424473D01*
X23928782Y8552049D01*
X24005495Y8666859D01*
X24103141Y8764505D01*
X24217951Y8841218D01*
X24345527Y8894062D01*
X24480956Y8921000D01*
X24619044Y8921000D01*
X24754473Y8894062D01*
G37*
G36*
X22714473Y8894062D02*
G01*
X22842049Y8841218D01*
X22956859Y8764505D01*
X23054505Y8666859D01*
X23131218Y8552049D01*
X23184062Y8424473D01*
X23211000Y8289044D01*
X23211000Y8150956D01*
X23184062Y8015527D01*
X23131218Y7887951D01*
X23054505Y7773141D01*
X22956859Y7675495D01*
X22842049Y7598782D01*
X22714473Y7545938D01*
X22579044Y7519000D01*
X22440956Y7519000D01*
X22305527Y7545938D01*
X22177951Y7598782D01*
X22063141Y7675495D01*
X21965495Y7773141D01*
X21888782Y7887951D01*
X21835938Y8015527D01*
X21809000Y8150956D01*
X21809000Y8289044D01*
X21835938Y8424473D01*
X21888782Y8552049D01*
X21965495Y8666859D01*
X22063141Y8764505D01*
X22177951Y8841218D01*
X22305527Y8894062D01*
X22440956Y8921000D01*
X22579044Y8921000D01*
X22714473Y8894062D01*
G37*
G36*
X20674473Y8894062D02*
G01*
X20802049Y8841218D01*
X20916859Y8764505D01*
X21014505Y8666859D01*
X21091218Y8552049D01*
X21144062Y8424473D01*
X21171000Y8289044D01*
X21171000Y8150956D01*
X21144062Y8015527D01*
X21091218Y7887951D01*
X21014505Y7773141D01*
X20916859Y7675495D01*
X20802049Y7598782D01*
X20674473Y7545938D01*
X20539044Y7519000D01*
X20400956Y7519000D01*
X20265527Y7545938D01*
X20137951Y7598782D01*
X20023141Y7675495D01*
X19925495Y7773141D01*
X19848782Y7887951D01*
X19795938Y8015527D01*
X19769000Y8150956D01*
X19769000Y8289044D01*
X19795938Y8424473D01*
X19848782Y8552049D01*
X19925495Y8666859D01*
X20023141Y8764505D01*
X20137951Y8841218D01*
X20265527Y8894062D01*
X20400956Y8921000D01*
X20539044Y8921000D01*
X20674473Y8894062D01*
G37*
G36*
X5656301Y12163534D02*
G01*
X6065775Y11993924D01*
X6434292Y11747689D01*
X6747689Y11434292D01*
X6993924Y11065775D01*
X7163534Y10656301D01*
X7250000Y10221606D01*
X7250000Y9778394D01*
X7163534Y9343699D01*
X6993924Y8934225D01*
X6747689Y8565708D01*
X6434292Y8252311D01*
X6065775Y8006076D01*
X5656301Y7836466D01*
X5493842Y7804151D01*
X5221607Y7750000D01*
X4778393Y7750000D01*
X4506158Y7804151D01*
X4343699Y7836466D01*
X3934225Y8006076D01*
X3565708Y8252311D01*
X3252311Y8565708D01*
X3006076Y8934225D01*
X2836466Y9343699D01*
X2750000Y9778394D01*
X2750000Y10221606D01*
X2836466Y10656301D01*
X3006076Y11065775D01*
X3252311Y11434292D01*
X3565708Y11747689D01*
X3934225Y11993924D01*
X4343699Y12163534D01*
X4778393Y12250000D01*
X5221607Y12250000D01*
X5656301Y12163534D01*
G37*
G36*
X55656301Y12163534D02*
G01*
X56065775Y11993924D01*
X56434292Y11747689D01*
X56747689Y11434292D01*
X56993924Y11065775D01*
X57163534Y10656301D01*
X57250000Y10221606D01*
X57250000Y9778394D01*
X57163534Y9343699D01*
X56993924Y8934225D01*
X56747689Y8565708D01*
X56434292Y8252311D01*
X56065775Y8006076D01*
X55656301Y7836466D01*
X55493842Y7804151D01*
X55221607Y7750000D01*
X54778393Y7750000D01*
X54506158Y7804151D01*
X54343699Y7836466D01*
X53934225Y8006076D01*
X53565708Y8252311D01*
X53252311Y8565708D01*
X53006076Y8934225D01*
X52836466Y9343699D01*
X52750000Y9778394D01*
X52750000Y10221606D01*
X52836466Y10656301D01*
X53006076Y11065775D01*
X53252311Y11434292D01*
X53565708Y11747689D01*
X53934225Y11993924D01*
X54343699Y12163534D01*
X54778393Y12250000D01*
X55221607Y12250000D01*
X55656301Y12163534D01*
G37*
G36*
X50908715Y10219844D02*
G01*
X50953155Y10206363D01*
X50994113Y10184470D01*
X51030011Y10155011D01*
X51059470Y10119113D01*
X51081363Y10078155D01*
X51094844Y10033715D01*
X51100000Y9981360D01*
X51100000Y9018640D01*
X51094844Y8966285D01*
X51081363Y8921845D01*
X51059470Y8880887D01*
X51030011Y8844989D01*
X50994113Y8815530D01*
X50953155Y8793637D01*
X50908715Y8780156D01*
X50856360Y8775000D01*
X50143640Y8775000D01*
X50091285Y8780156D01*
X50046845Y8793637D01*
X50005887Y8815530D01*
X49969989Y8844989D01*
X49940530Y8880887D01*
X49918637Y8921845D01*
X49905156Y8966285D01*
X49900000Y9018640D01*
X49900000Y9981360D01*
X49905156Y10033715D01*
X49918637Y10078155D01*
X49940530Y10119113D01*
X49969989Y10155011D01*
X50005887Y10184470D01*
X50046845Y10206363D01*
X50091285Y10219844D01*
X50143640Y10225000D01*
X50856360Y10225000D01*
X50908715Y10219844D01*
G37*
G36*
X10908715Y10219844D02*
G01*
X10953155Y10206363D01*
X10994113Y10184470D01*
X11030011Y10155011D01*
X11059470Y10119113D01*
X11081363Y10078155D01*
X11094844Y10033715D01*
X11100000Y9981360D01*
X11100000Y9018640D01*
X11094844Y8966285D01*
X11081363Y8921845D01*
X11059470Y8880887D01*
X11030011Y8844989D01*
X10994113Y8815530D01*
X10953155Y8793637D01*
X10908715Y8780156D01*
X10856360Y8775000D01*
X10143640Y8775000D01*
X10091285Y8780156D01*
X10046845Y8793637D01*
X10005887Y8815530D01*
X9969989Y8844989D01*
X9940530Y8880887D01*
X9918637Y8921845D01*
X9905156Y8966285D01*
X9900000Y9018640D01*
X9900000Y9981360D01*
X9905156Y10033715D01*
X9918637Y10078155D01*
X9940530Y10119113D01*
X9969989Y10155011D01*
X10005887Y10184470D01*
X10046845Y10206363D01*
X10091285Y10219844D01*
X10143640Y10225000D01*
X10856360Y10225000D01*
X10908715Y10219844D01*
G37*
G36*
X12908715Y10219844D02*
G01*
X12953155Y10206363D01*
X12994113Y10184470D01*
X13030011Y10155011D01*
X13059470Y10119113D01*
X13081363Y10078155D01*
X13094844Y10033715D01*
X13100000Y9981360D01*
X13100000Y9018640D01*
X13094844Y8966285D01*
X13081363Y8921845D01*
X13059470Y8880887D01*
X13030011Y8844989D01*
X12994113Y8815530D01*
X12953155Y8793637D01*
X12908715Y8780156D01*
X12856360Y8775000D01*
X12143640Y8775000D01*
X12091285Y8780156D01*
X12046845Y8793637D01*
X12005887Y8815530D01*
X11969989Y8844989D01*
X11940530Y8880887D01*
X11918637Y8921845D01*
X11905156Y8966285D01*
X11900000Y9018640D01*
X11900000Y9981360D01*
X11905156Y10033715D01*
X11918637Y10078155D01*
X11940530Y10119113D01*
X11969989Y10155011D01*
X12005887Y10184470D01*
X12046845Y10206363D01*
X12091285Y10219844D01*
X12143640Y10225000D01*
X12856360Y10225000D01*
X12908715Y10219844D01*
G37*
G36*
X48908715Y10219844D02*
G01*
X48953155Y10206363D01*
X48994113Y10184470D01*
X49030011Y10155011D01*
X49059470Y10119113D01*
X49081363Y10078155D01*
X49094844Y10033715D01*
X49100000Y9981360D01*
X49100000Y9018640D01*
X49094844Y8966285D01*
X49081363Y8921845D01*
X49059470Y8880887D01*
X49030011Y8844989D01*
X48994113Y8815530D01*
X48953155Y8793637D01*
X48908715Y8780156D01*
X48856360Y8775000D01*
X48143640Y8775000D01*
X48091285Y8780156D01*
X48046845Y8793637D01*
X48005887Y8815530D01*
X47969989Y8844989D01*
X47940530Y8880887D01*
X47918637Y8921845D01*
X47905156Y8966285D01*
X47900000Y9018640D01*
X47900000Y9981360D01*
X47905156Y10033715D01*
X47918637Y10078155D01*
X47940530Y10119113D01*
X47969989Y10155011D01*
X48005887Y10184470D01*
X48046845Y10206363D01*
X48091285Y10219844D01*
X48143640Y10225000D01*
X48856360Y10225000D01*
X48908715Y10219844D01*
G37*
G36*
X43274473Y13754062D02*
G01*
X43402049Y13701218D01*
X43516859Y13624505D01*
X43614505Y13526859D01*
X43691218Y13412049D01*
X43744062Y13284473D01*
X43771000Y13149044D01*
X43771000Y13010956D01*
X43744062Y12875527D01*
X43691218Y12747951D01*
X43614505Y12633141D01*
X43516859Y12535495D01*
X43402049Y12458782D01*
X43274473Y12405938D01*
X43139044Y12379000D01*
X43000956Y12379000D01*
X42865527Y12405938D01*
X42737951Y12458782D01*
X42623141Y12535495D01*
X42525495Y12633141D01*
X42448782Y12747951D01*
X42395938Y12875527D01*
X42369000Y13010956D01*
X42369000Y13149044D01*
X42395938Y13284473D01*
X42448782Y13412049D01*
X42525495Y13526859D01*
X42623141Y13624505D01*
X42737951Y13701218D01*
X42865527Y13754062D01*
X43000956Y13781000D01*
X43139044Y13781000D01*
X43274473Y13754062D01*
G37*
G36*
X31844473Y13754062D02*
G01*
X31972049Y13701218D01*
X32086859Y13624505D01*
X32184505Y13526859D01*
X32261218Y13412049D01*
X32314062Y13284473D01*
X32341000Y13149044D01*
X32341000Y13010956D01*
X32314062Y12875527D01*
X32261218Y12747951D01*
X32184505Y12633141D01*
X32086859Y12535495D01*
X31972049Y12458782D01*
X31844473Y12405938D01*
X31709044Y12379000D01*
X31570956Y12379000D01*
X31435527Y12405938D01*
X31307951Y12458782D01*
X31193141Y12535495D01*
X31095495Y12633141D01*
X31018782Y12747951D01*
X30965938Y12875527D01*
X30939000Y13010956D01*
X30939000Y13149044D01*
X30965938Y13284473D01*
X31018782Y13412049D01*
X31095495Y13526859D01*
X31193141Y13624505D01*
X31307951Y13701218D01*
X31435527Y13754062D01*
X31570956Y13781000D01*
X31709044Y13781000D01*
X31844473Y13754062D01*
G37*
G36*
X34134473Y13754062D02*
G01*
X34262049Y13701218D01*
X34376859Y13624505D01*
X34474505Y13526859D01*
X34551218Y13412049D01*
X34604062Y13284473D01*
X34631000Y13149044D01*
X34631000Y13010956D01*
X34604062Y12875527D01*
X34551218Y12747951D01*
X34474505Y12633141D01*
X34376859Y12535495D01*
X34262049Y12458782D01*
X34134473Y12405938D01*
X33999044Y12379000D01*
X33860956Y12379000D01*
X33725527Y12405938D01*
X33597951Y12458782D01*
X33483141Y12535495D01*
X33385495Y12633141D01*
X33308782Y12747951D01*
X33255938Y12875527D01*
X33229000Y13010956D01*
X33229000Y13149044D01*
X33255938Y13284473D01*
X33308782Y13412049D01*
X33385495Y13526859D01*
X33483141Y13624505D01*
X33597951Y13701218D01*
X33725527Y13754062D01*
X33860956Y13781000D01*
X33999044Y13781000D01*
X34134473Y13754062D01*
G37*
G36*
X15344473Y13754062D02*
G01*
X15472049Y13701218D01*
X15586859Y13624505D01*
X15684505Y13526859D01*
X15761218Y13412049D01*
X15814062Y13284473D01*
X15841000Y13149044D01*
X15841000Y13010956D01*
X15814062Y12875527D01*
X15761218Y12747951D01*
X15684505Y12633141D01*
X15586859Y12535495D01*
X15472049Y12458782D01*
X15344473Y12405938D01*
X15209044Y12379000D01*
X15070956Y12379000D01*
X14935527Y12405938D01*
X14807951Y12458782D01*
X14693141Y12535495D01*
X14595495Y12633141D01*
X14518782Y12747951D01*
X14465938Y12875527D01*
X14439000Y13010956D01*
X14439000Y13149044D01*
X14465938Y13284473D01*
X14518782Y13412049D01*
X14595495Y13526859D01*
X14693141Y13624505D01*
X14807951Y13701218D01*
X14935527Y13754062D01*
X15070956Y13781000D01*
X15209044Y13781000D01*
X15344473Y13754062D01*
G37*
G36*
X17634473Y13754062D02*
G01*
X17762049Y13701218D01*
X17876859Y13624505D01*
X17974505Y13526859D01*
X18051218Y13412049D01*
X18104062Y13284473D01*
X18131000Y13149044D01*
X18131000Y13010956D01*
X18104062Y12875527D01*
X18051218Y12747951D01*
X17974505Y12633141D01*
X17876859Y12535495D01*
X17762049Y12458782D01*
X17634473Y12405938D01*
X17499044Y12379000D01*
X17360956Y12379000D01*
X17225527Y12405938D01*
X17097951Y12458782D01*
X16983141Y12535495D01*
X16885495Y12633141D01*
X16808782Y12747951D01*
X16755938Y12875527D01*
X16729000Y13010956D01*
X16729000Y13149044D01*
X16755938Y13284473D01*
X16808782Y13412049D01*
X16885495Y13526859D01*
X16983141Y13624505D01*
X17097951Y13701218D01*
X17225527Y13754062D01*
X17360956Y13781000D01*
X17499044Y13781000D01*
X17634473Y13754062D01*
G37*
G36*
X26774473Y13754062D02*
G01*
X26902049Y13701218D01*
X27016859Y13624505D01*
X27114505Y13526859D01*
X27191218Y13412049D01*
X27244062Y13284473D01*
X27271000Y13149044D01*
X27271000Y13010956D01*
X27244062Y12875527D01*
X27191218Y12747951D01*
X27114505Y12633141D01*
X27016859Y12535495D01*
X26902049Y12458782D01*
X26774473Y12405938D01*
X26639044Y12379000D01*
X26500956Y12379000D01*
X26365527Y12405938D01*
X26237951Y12458782D01*
X26123141Y12535495D01*
X26025495Y12633141D01*
X25948782Y12747951D01*
X25895938Y12875527D01*
X25869000Y13010956D01*
X25869000Y13149044D01*
X25895938Y13284473D01*
X25948782Y13412049D01*
X26025495Y13526859D01*
X26123141Y13624505D01*
X26237951Y13701218D01*
X26365527Y13754062D01*
X26500956Y13781000D01*
X26639044Y13781000D01*
X26774473Y13754062D01*
G37*
G36*
X29064473Y13754062D02*
G01*
X29192049Y13701218D01*
X29306859Y13624505D01*
X29404505Y13526859D01*
X29481218Y13412049D01*
X29534062Y13284473D01*
X29561000Y13149044D01*
X29561000Y13010956D01*
X29534062Y12875527D01*
X29481218Y12747951D01*
X29404505Y12633141D01*
X29306859Y12535495D01*
X29192049Y12458782D01*
X29064473Y12405938D01*
X28929044Y12379000D01*
X28790956Y12379000D01*
X28655527Y12405938D01*
X28527951Y12458782D01*
X28413141Y12535495D01*
X28315495Y12633141D01*
X28238782Y12747951D01*
X28185938Y12875527D01*
X28159000Y13010956D01*
X28159000Y13149044D01*
X28185938Y13284473D01*
X28238782Y13412049D01*
X28315495Y13526859D01*
X28413141Y13624505D01*
X28527951Y13701218D01*
X28655527Y13754062D01*
X28790956Y13781000D01*
X28929044Y13781000D01*
X29064473Y13754062D01*
G37*
G36*
X45564473Y13754062D02*
G01*
X45692049Y13701218D01*
X45806859Y13624505D01*
X45904505Y13526859D01*
X45981218Y13412049D01*
X46034062Y13284473D01*
X46061000Y13149044D01*
X46061000Y13010956D01*
X46034062Y12875527D01*
X45981218Y12747951D01*
X45904505Y12633141D01*
X45806859Y12535495D01*
X45692049Y12458782D01*
X45564473Y12405938D01*
X45429044Y12379000D01*
X45290956Y12379000D01*
X45155527Y12405938D01*
X45027951Y12458782D01*
X44913141Y12535495D01*
X44815495Y12633141D01*
X44738782Y12747951D01*
X44685938Y12875527D01*
X44659000Y13010956D01*
X44659000Y13149044D01*
X44685938Y13284473D01*
X44738782Y13412049D01*
X44815495Y13526859D01*
X44913141Y13624505D01*
X45027951Y13701218D01*
X45155527Y13754062D01*
X45290956Y13781000D01*
X45429044Y13781000D01*
X45564473Y13754062D01*
G37*
G36*
X24508961Y26671886D02*
G01*
X24757971Y26596349D01*
X24757973Y26596348D01*
X24987458Y26473686D01*
X25188608Y26308608D01*
X25353685Y26107459D01*
X25476349Y25877971D01*
X25551886Y25628961D01*
X25571000Y25434890D01*
X25571000Y22765110D01*
X25551886Y22571039D01*
X25476349Y22322030D01*
X25476348Y22322027D01*
X25353686Y22092541D01*
X25188607Y21891393D01*
X24987457Y21726314D01*
X24757972Y21603652D01*
X24757970Y21603651D01*
X24508960Y21528114D01*
X24250000Y21502609D01*
X23991039Y21528114D01*
X23742029Y21603651D01*
X23742027Y21603652D01*
X23512541Y21726314D01*
X23311393Y21891393D01*
X23146314Y22092543D01*
X23023652Y22322028D01*
X23023651Y22322030D01*
X22948114Y22571040D01*
X22929000Y22765111D01*
X22929001Y25434890D01*
X22948115Y25628961D01*
X23023652Y25877971D01*
X23146316Y26107459D01*
X23311393Y26308608D01*
X23512543Y26473686D01*
X23742028Y26596348D01*
X23742030Y26596349D01*
X23991040Y26671886D01*
X24250000Y26697391D01*
X24508961Y26671886D01*
G37*
G36*
X14008961Y26671886D02*
G01*
X14257971Y26596349D01*
X14257973Y26596348D01*
X14487458Y26473686D01*
X14688608Y26308608D01*
X14853685Y26107459D01*
X14976349Y25877971D01*
X15051886Y25628961D01*
X15071000Y25434890D01*
X15071000Y22765110D01*
X15051886Y22571039D01*
X14976349Y22322030D01*
X14976348Y22322027D01*
X14853686Y22092541D01*
X14688607Y21891393D01*
X14487457Y21726314D01*
X14257972Y21603652D01*
X14257970Y21603651D01*
X14008960Y21528114D01*
X13750000Y21502609D01*
X13491039Y21528114D01*
X13242029Y21603651D01*
X13242027Y21603652D01*
X13012541Y21726314D01*
X12811393Y21891393D01*
X12646314Y22092543D01*
X12523652Y22322028D01*
X12523651Y22322030D01*
X12448114Y22571040D01*
X12429000Y22765111D01*
X12429001Y25434890D01*
X12448115Y25628961D01*
X12523652Y25877971D01*
X12646316Y26107459D01*
X12811393Y26308608D01*
X13012543Y26473686D01*
X13242028Y26596348D01*
X13242030Y26596349D01*
X13491040Y26671886D01*
X13750000Y26697391D01*
X14008961Y26671886D01*
G37*
G36*
X17508961Y26671886D02*
G01*
X17757971Y26596349D01*
X17757973Y26596348D01*
X17987458Y26473686D01*
X18188608Y26308608D01*
X18353685Y26107459D01*
X18476349Y25877971D01*
X18551886Y25628961D01*
X18571000Y25434890D01*
X18571000Y22765110D01*
X18551886Y22571039D01*
X18476349Y22322030D01*
X18476348Y22322027D01*
X18353686Y22092541D01*
X18188607Y21891393D01*
X17987457Y21726314D01*
X17757972Y21603652D01*
X17757970Y21603651D01*
X17508960Y21528114D01*
X17250000Y21502609D01*
X16991039Y21528114D01*
X16742029Y21603651D01*
X16742027Y21603652D01*
X16512541Y21726314D01*
X16311393Y21891393D01*
X16146314Y22092543D01*
X16023652Y22322028D01*
X16023651Y22322030D01*
X15948114Y22571040D01*
X15929000Y22765111D01*
X15929001Y25434890D01*
X15948115Y25628961D01*
X16023652Y25877971D01*
X16146316Y26107459D01*
X16311393Y26308608D01*
X16512543Y26473686D01*
X16742028Y26596348D01*
X16742030Y26596349D01*
X16991040Y26671886D01*
X17250000Y26697391D01*
X17508961Y26671886D01*
G37*
G36*
X50008961Y26671886D02*
G01*
X50257971Y26596349D01*
X50257973Y26596348D01*
X50487458Y26473686D01*
X50688608Y26308608D01*
X50853685Y26107459D01*
X50976349Y25877971D01*
X51051886Y25628961D01*
X51071000Y25434890D01*
X51071000Y22765110D01*
X51051886Y22571039D01*
X50976349Y22322030D01*
X50976348Y22322027D01*
X50853686Y22092541D01*
X50688607Y21891393D01*
X50487457Y21726314D01*
X50257972Y21603652D01*
X50257970Y21603651D01*
X50008960Y21528114D01*
X49750000Y21502609D01*
X49491039Y21528114D01*
X49242029Y21603651D01*
X49242027Y21603652D01*
X49012541Y21726314D01*
X48811393Y21891393D01*
X48646314Y22092543D01*
X48523652Y22322028D01*
X48523651Y22322030D01*
X48448114Y22571040D01*
X48429000Y22765111D01*
X48429001Y25434890D01*
X48448115Y25628961D01*
X48523652Y25877971D01*
X48646316Y26107459D01*
X48811393Y26308608D01*
X49012543Y26473686D01*
X49242028Y26596348D01*
X49242030Y26596349D01*
X49491040Y26671886D01*
X49750000Y26697391D01*
X50008961Y26671886D01*
G37*
G36*
X46508961Y26671886D02*
G01*
X46757971Y26596349D01*
X46757973Y26596348D01*
X46987458Y26473686D01*
X47188608Y26308608D01*
X47353685Y26107459D01*
X47476349Y25877971D01*
X47551886Y25628961D01*
X47571000Y25434890D01*
X47571000Y22765110D01*
X47551886Y22571039D01*
X47476349Y22322030D01*
X47476348Y22322027D01*
X47353686Y22092541D01*
X47188607Y21891393D01*
X46987457Y21726314D01*
X46757972Y21603652D01*
X46757970Y21603651D01*
X46508960Y21528114D01*
X46250000Y21502609D01*
X45991039Y21528114D01*
X45742029Y21603651D01*
X45742027Y21603652D01*
X45512541Y21726314D01*
X45311393Y21891393D01*
X45146314Y22092543D01*
X45023652Y22322028D01*
X45023651Y22322030D01*
X44948114Y22571040D01*
X44929000Y22765111D01*
X44929001Y25434890D01*
X44948115Y25628961D01*
X45023652Y25877971D01*
X45146316Y26107459D01*
X45311393Y26308608D01*
X45512543Y26473686D01*
X45742028Y26596348D01*
X45742030Y26596349D01*
X45991040Y26671886D01*
X46250000Y26697391D01*
X46508961Y26671886D01*
G37*
G36*
X39508961Y26671886D02*
G01*
X39757971Y26596349D01*
X39757973Y26596348D01*
X39987458Y26473686D01*
X40188608Y26308608D01*
X40353685Y26107459D01*
X40476349Y25877971D01*
X40551886Y25628961D01*
X40571000Y25434890D01*
X40571000Y22765110D01*
X40551886Y22571039D01*
X40476349Y22322030D01*
X40476348Y22322027D01*
X40353686Y22092541D01*
X40188607Y21891393D01*
X39987457Y21726314D01*
X39757972Y21603652D01*
X39757970Y21603651D01*
X39508960Y21528114D01*
X39250000Y21502609D01*
X38991039Y21528114D01*
X38742029Y21603651D01*
X38742027Y21603652D01*
X38512541Y21726314D01*
X38311393Y21891393D01*
X38146314Y22092543D01*
X38023652Y22322028D01*
X38023651Y22322030D01*
X37948114Y22571040D01*
X37929000Y22765111D01*
X37929001Y25434890D01*
X37948115Y25628961D01*
X38023652Y25877971D01*
X38146316Y26107459D01*
X38311393Y26308608D01*
X38512543Y26473686D01*
X38742028Y26596348D01*
X38742030Y26596349D01*
X38991040Y26671886D01*
X39250000Y26697391D01*
X39508961Y26671886D01*
G37*
G36*
X43008961Y26671886D02*
G01*
X43257971Y26596349D01*
X43257973Y26596348D01*
X43487458Y26473686D01*
X43688608Y26308608D01*
X43853685Y26107459D01*
X43976349Y25877971D01*
X44051886Y25628961D01*
X44071000Y25434890D01*
X44071000Y22765110D01*
X44051886Y22571039D01*
X43976349Y22322030D01*
X43976348Y22322027D01*
X43853686Y22092541D01*
X43688607Y21891393D01*
X43487457Y21726314D01*
X43257972Y21603652D01*
X43257970Y21603651D01*
X43008960Y21528114D01*
X42750000Y21502609D01*
X42491039Y21528114D01*
X42242029Y21603651D01*
X42242027Y21603652D01*
X42012541Y21726314D01*
X41811393Y21891393D01*
X41646314Y22092543D01*
X41523652Y22322028D01*
X41523651Y22322030D01*
X41448114Y22571040D01*
X41429000Y22765111D01*
X41429001Y25434890D01*
X41448115Y25628961D01*
X41523652Y25877971D01*
X41646316Y26107459D01*
X41811393Y26308608D01*
X42012543Y26473686D01*
X42242028Y26596348D01*
X42242030Y26596349D01*
X42491040Y26671886D01*
X42750000Y26697391D01*
X43008961Y26671886D01*
G37*
G36*
X21008961Y26671886D02*
G01*
X21257971Y26596349D01*
X21257973Y26596348D01*
X21487458Y26473686D01*
X21688608Y26308608D01*
X21853685Y26107459D01*
X21976349Y25877971D01*
X22051886Y25628961D01*
X22071000Y25434890D01*
X22071000Y22765110D01*
X22051886Y22571039D01*
X21976349Y22322030D01*
X21976348Y22322027D01*
X21853686Y22092541D01*
X21688607Y21891393D01*
X21487457Y21726314D01*
X21257972Y21603652D01*
X21257970Y21603651D01*
X21008960Y21528114D01*
X20750000Y21502609D01*
X20491039Y21528114D01*
X20242029Y21603651D01*
X20242027Y21603652D01*
X20012541Y21726314D01*
X19811393Y21891393D01*
X19646314Y22092543D01*
X19523652Y22322028D01*
X19523651Y22322030D01*
X19448114Y22571040D01*
X19429000Y22765111D01*
X19429001Y25434890D01*
X19448115Y25628961D01*
X19523652Y25877971D01*
X19646316Y26107459D01*
X19811393Y26308608D01*
X20012543Y26473686D01*
X20242028Y26596348D01*
X20242030Y26596349D01*
X20491040Y26671886D01*
X20750000Y26697391D01*
X21008961Y26671886D01*
G37*
G36*
X55438953Y37206767D02*
G01*
X55656301Y37163534D01*
X56065775Y36993924D01*
X56434292Y36747689D01*
X56747689Y36434292D01*
X56993924Y36065775D01*
X57163534Y35656301D01*
X57250000Y35221606D01*
X57250000Y34778394D01*
X57163534Y34343699D01*
X56993924Y33934225D01*
X56747689Y33565708D01*
X56434292Y33252311D01*
X56065775Y33006076D01*
X55656301Y32836466D01*
X55438953Y32793233D01*
X55221607Y32750000D01*
X54778393Y32750000D01*
X54561047Y32793233D01*
X54343699Y32836466D01*
X53934225Y33006076D01*
X53565708Y33252311D01*
X53252311Y33565708D01*
X53006076Y33934225D01*
X52836466Y34343699D01*
X52750000Y34778394D01*
X52750000Y35221606D01*
X52836466Y35656301D01*
X53006076Y36065775D01*
X53252311Y36434292D01*
X53565708Y36747689D01*
X53934225Y36993924D01*
X54343699Y37163534D01*
X54561047Y37206767D01*
X54778393Y37250000D01*
X55221607Y37250000D01*
X55438953Y37206767D01*
G37*
G36*
X5438953Y37206767D02*
G01*
X5656301Y37163534D01*
X6065775Y36993924D01*
X6434292Y36747689D01*
X6747689Y36434292D01*
X6993924Y36065775D01*
X7163534Y35656301D01*
X7250000Y35221606D01*
X7250000Y34778394D01*
X7163534Y34343699D01*
X6993924Y33934225D01*
X6747689Y33565708D01*
X6434292Y33252311D01*
X6065775Y33006076D01*
X5656301Y32836466D01*
X5438953Y32793233D01*
X5221607Y32750000D01*
X4778393Y32750000D01*
X4561047Y32793233D01*
X4343699Y32836466D01*
X3934225Y33006076D01*
X3565708Y33252311D01*
X3252311Y33565708D01*
X3006076Y33934225D01*
X2836466Y34343699D01*
X2750000Y34778394D01*
X2750000Y35221606D01*
X2836466Y35656301D01*
X3006076Y36065775D01*
X3252311Y36434292D01*
X3565708Y36747689D01*
X3934225Y36993924D01*
X4343699Y37163534D01*
X4561047Y37206767D01*
X4778393Y37250000D01*
X5221607Y37250000D01*
X5438953Y37206767D01*
G37*
G36*
X22758961Y38071886D02*
G01*
X23007971Y37996349D01*
X23007973Y37996348D01*
X23237458Y37873686D01*
X23438608Y37708608D01*
X23603685Y37507459D01*
X23726349Y37277971D01*
X23801886Y37028961D01*
X23821000Y36834890D01*
X23821000Y34165110D01*
X23801886Y33971039D01*
X23726349Y33722030D01*
X23726348Y33722027D01*
X23603686Y33492541D01*
X23438607Y33291393D01*
X23237457Y33126314D01*
X23012507Y33006076D01*
X23007970Y33003651D01*
X22758960Y32928114D01*
X22500000Y32902609D01*
X22241039Y32928114D01*
X21992029Y33003651D01*
X21987492Y33006076D01*
X21762541Y33126314D01*
X21561393Y33291393D01*
X21396314Y33492543D01*
X21273652Y33722028D01*
X21209282Y33934225D01*
X21198114Y33971040D01*
X21179000Y34165111D01*
X21179001Y36834890D01*
X21198115Y37028961D01*
X21273652Y37277971D01*
X21396316Y37507459D01*
X21561393Y37708608D01*
X21762543Y37873686D01*
X21992028Y37996348D01*
X21992030Y37996349D01*
X22241040Y38071886D01*
X22500000Y38097391D01*
X22758961Y38071886D01*
G37*
G36*
X19258961Y38071886D02*
G01*
X19507971Y37996349D01*
X19507973Y37996348D01*
X19737458Y37873686D01*
X19938608Y37708608D01*
X20103685Y37507459D01*
X20226349Y37277971D01*
X20301886Y37028961D01*
X20321000Y36834890D01*
X20321000Y34165110D01*
X20301886Y33971039D01*
X20226349Y33722030D01*
X20226348Y33722027D01*
X20103686Y33492541D01*
X19938607Y33291393D01*
X19737457Y33126314D01*
X19512507Y33006076D01*
X19507970Y33003651D01*
X19258960Y32928114D01*
X19000000Y32902609D01*
X18741039Y32928114D01*
X18492029Y33003651D01*
X18487492Y33006076D01*
X18262541Y33126314D01*
X18061393Y33291393D01*
X17896314Y33492543D01*
X17773652Y33722028D01*
X17709282Y33934225D01*
X17698114Y33971040D01*
X17679000Y34165111D01*
X17679001Y36834890D01*
X17698115Y37028961D01*
X17773652Y37277971D01*
X17896316Y37507459D01*
X18061393Y37708608D01*
X18262543Y37873686D01*
X18492028Y37996348D01*
X18492030Y37996349D01*
X18741040Y38071886D01*
X19000000Y38097391D01*
X19258961Y38071886D01*
G37*
G36*
X37758961Y38071886D02*
G01*
X38007971Y37996349D01*
X38007973Y37996348D01*
X38237458Y37873686D01*
X38438608Y37708608D01*
X38603685Y37507459D01*
X38726349Y37277971D01*
X38801886Y37028961D01*
X38821000Y36834890D01*
X38821000Y34165110D01*
X38801886Y33971039D01*
X38726349Y33722030D01*
X38726348Y33722027D01*
X38603686Y33492541D01*
X38438607Y33291393D01*
X38237457Y33126314D01*
X38012507Y33006076D01*
X38007970Y33003651D01*
X37758960Y32928114D01*
X37500000Y32902609D01*
X37241039Y32928114D01*
X36992029Y33003651D01*
X36987492Y33006076D01*
X36762541Y33126314D01*
X36561393Y33291393D01*
X36396314Y33492543D01*
X36273652Y33722028D01*
X36209282Y33934225D01*
X36198114Y33971040D01*
X36179000Y34165111D01*
X36179001Y36834890D01*
X36198115Y37028961D01*
X36273652Y37277971D01*
X36396316Y37507459D01*
X36561393Y37708608D01*
X36762543Y37873686D01*
X36992028Y37996348D01*
X36992030Y37996349D01*
X37241040Y38071886D01*
X37500000Y38097391D01*
X37758961Y38071886D01*
G37*
G36*
X48258961Y38071886D02*
G01*
X48507971Y37996349D01*
X48507973Y37996348D01*
X48737458Y37873686D01*
X48938608Y37708608D01*
X49103685Y37507459D01*
X49226349Y37277971D01*
X49301886Y37028961D01*
X49321000Y36834890D01*
X49321000Y34165110D01*
X49301886Y33971039D01*
X49226349Y33722030D01*
X49226348Y33722027D01*
X49103686Y33492541D01*
X48938607Y33291393D01*
X48737457Y33126314D01*
X48512507Y33006076D01*
X48507970Y33003651D01*
X48258960Y32928114D01*
X48000000Y32902609D01*
X47741039Y32928114D01*
X47492029Y33003651D01*
X47487492Y33006076D01*
X47262541Y33126314D01*
X47061393Y33291393D01*
X46896314Y33492543D01*
X46773652Y33722028D01*
X46709282Y33934225D01*
X46698114Y33971040D01*
X46679000Y34165111D01*
X46679001Y36834890D01*
X46698115Y37028961D01*
X46773652Y37277971D01*
X46896316Y37507459D01*
X47061393Y37708608D01*
X47262543Y37873686D01*
X47492028Y37996348D01*
X47492030Y37996349D01*
X47741040Y38071886D01*
X48000000Y38097391D01*
X48258961Y38071886D01*
G37*
G36*
X41258961Y38071886D02*
G01*
X41507971Y37996349D01*
X41507973Y37996348D01*
X41737458Y37873686D01*
X41938608Y37708608D01*
X42103685Y37507459D01*
X42226349Y37277971D01*
X42301886Y37028961D01*
X42321000Y36834890D01*
X42321000Y34165110D01*
X42301886Y33971039D01*
X42226349Y33722030D01*
X42226348Y33722027D01*
X42103686Y33492541D01*
X41938607Y33291393D01*
X41737457Y33126314D01*
X41512507Y33006076D01*
X41507970Y33003651D01*
X41258960Y32928114D01*
X41000000Y32902609D01*
X40741039Y32928114D01*
X40492029Y33003651D01*
X40487492Y33006076D01*
X40262541Y33126314D01*
X40061393Y33291393D01*
X39896314Y33492543D01*
X39773652Y33722028D01*
X39709282Y33934225D01*
X39698114Y33971040D01*
X39679000Y34165111D01*
X39679001Y36834890D01*
X39698115Y37028961D01*
X39773652Y37277971D01*
X39896316Y37507459D01*
X40061393Y37708608D01*
X40262543Y37873686D01*
X40492028Y37996348D01*
X40492030Y37996349D01*
X40741040Y38071886D01*
X41000000Y38097391D01*
X41258961Y38071886D01*
G37*
G36*
X44758961Y38071886D02*
G01*
X45007971Y37996349D01*
X45007973Y37996348D01*
X45237458Y37873686D01*
X45438608Y37708608D01*
X45603685Y37507459D01*
X45726349Y37277971D01*
X45801886Y37028961D01*
X45821000Y36834890D01*
X45821000Y34165110D01*
X45801886Y33971039D01*
X45726349Y33722030D01*
X45726348Y33722027D01*
X45603686Y33492541D01*
X45438607Y33291393D01*
X45237457Y33126314D01*
X45012507Y33006076D01*
X45007970Y33003651D01*
X44758960Y32928114D01*
X44500000Y32902609D01*
X44241039Y32928114D01*
X43992029Y33003651D01*
X43987492Y33006076D01*
X43762541Y33126314D01*
X43561393Y33291393D01*
X43396314Y33492543D01*
X43273652Y33722028D01*
X43209282Y33934225D01*
X43198114Y33971040D01*
X43179000Y34165111D01*
X43179001Y36834890D01*
X43198115Y37028961D01*
X43273652Y37277971D01*
X43396316Y37507459D01*
X43561393Y37708608D01*
X43762543Y37873686D01*
X43992028Y37996348D01*
X43992030Y37996349D01*
X44241040Y38071886D01*
X44500000Y38097391D01*
X44758961Y38071886D01*
G37*
G36*
X15758961Y38071886D02*
G01*
X16007971Y37996349D01*
X16007973Y37996348D01*
X16237458Y37873686D01*
X16438608Y37708608D01*
X16603685Y37507459D01*
X16726349Y37277971D01*
X16801886Y37028961D01*
X16821000Y36834890D01*
X16821000Y34165110D01*
X16801886Y33971039D01*
X16726349Y33722030D01*
X16726348Y33722027D01*
X16603686Y33492541D01*
X16438607Y33291393D01*
X16237457Y33126314D01*
X16012507Y33006076D01*
X16007970Y33003651D01*
X15758960Y32928114D01*
X15500000Y32902609D01*
X15241039Y32928114D01*
X14992029Y33003651D01*
X14987492Y33006076D01*
X14762541Y33126314D01*
X14561393Y33291393D01*
X14396314Y33492543D01*
X14273652Y33722028D01*
X14209282Y33934225D01*
X14198114Y33971040D01*
X14179000Y34165111D01*
X14179001Y36834890D01*
X14198115Y37028961D01*
X14273652Y37277971D01*
X14396316Y37507459D01*
X14561393Y37708608D01*
X14762543Y37873686D01*
X14992028Y37996348D01*
X14992030Y37996349D01*
X15241040Y38071886D01*
X15500000Y38097391D01*
X15758961Y38071886D01*
G37*
G36*
X12258961Y38071886D02*
G01*
X12507971Y37996349D01*
X12507973Y37996348D01*
X12737458Y37873686D01*
X12938608Y37708608D01*
X13103685Y37507459D01*
X13226349Y37277971D01*
X13301886Y37028961D01*
X13321000Y36834890D01*
X13321000Y34165110D01*
X13301886Y33971039D01*
X13226349Y33722030D01*
X13226348Y33722027D01*
X13103686Y33492541D01*
X12938607Y33291393D01*
X12737457Y33126314D01*
X12512507Y33006076D01*
X12507970Y33003651D01*
X12258960Y32928114D01*
X12000000Y32902609D01*
X11741039Y32928114D01*
X11492029Y33003651D01*
X11487492Y33006076D01*
X11262541Y33126314D01*
X11061393Y33291393D01*
X10896314Y33492543D01*
X10773652Y33722028D01*
X10709282Y33934225D01*
X10698114Y33971040D01*
X10679000Y34165111D01*
X10679001Y36834890D01*
X10698115Y37028961D01*
X10773652Y37277971D01*
X10896316Y37507459D01*
X11061393Y37708608D01*
X11262543Y37873686D01*
X11492028Y37996348D01*
X11492030Y37996349D01*
X11741040Y38071886D01*
X12000000Y38097391D01*
X12258961Y38071886D01*
G37*
G36*
X29751000Y34249000D02*
G01*
X27249000Y34249000D01*
X27249000Y36751000D01*
X29751000Y36751000D01*
X29751000Y34249000D01*
G37*
G36*
X32139859Y36747689D02*
G01*
X32364903Y36702925D01*
X32592571Y36608622D01*
X32797466Y36471715D01*
X32971715Y36297466D01*
X32971716Y36297464D01*
X33108623Y36092569D01*
X33202925Y35864903D01*
X33244419Y35656301D01*
X33251000Y35623213D01*
X33251000Y35376787D01*
X33202925Y35135097D01*
X33108622Y34907429D01*
X32971715Y34702534D01*
X32797466Y34528285D01*
X32592571Y34391378D01*
X32592570Y34391377D01*
X32592569Y34391377D01*
X32364903Y34297075D01*
X32123214Y34249000D01*
X31876786Y34249000D01*
X31635097Y34297075D01*
X31407431Y34391377D01*
X31407430Y34391377D01*
X31407429Y34391378D01*
X31202534Y34528285D01*
X31028285Y34702534D01*
X30891378Y34907429D01*
X30797075Y35135097D01*
X30749000Y35376787D01*
X30749000Y35623213D01*
X30755582Y35656301D01*
X30797075Y35864903D01*
X30891377Y36092569D01*
X31028284Y36297464D01*
X31028285Y36297466D01*
X31202534Y36471715D01*
X31407429Y36608622D01*
X31635097Y36702925D01*
X31860141Y36747689D01*
X31876786Y36751000D01*
X32123214Y36751000D01*
X32139859Y36747689D01*
G37*
M02*
