G04 #@! TF.GenerationSoftware,KiCad,Pcbnew,(5.1.5)-3*
G04 #@! TF.CreationDate,2020-02-01T18:30:37+01:00*
G04 #@! TF.ProjectId,STMBLBreakout,53544d42-4c42-4726-9561-6b6f75742e6b,rev?*
G04 #@! TF.SameCoordinates,PX2faf080PY8f0d180*
G04 #@! TF.FileFunction,Paste,Top*
G04 #@! TF.FilePolarity,Positive*
%FSLAX46Y46*%
G04 Gerber Fmt 4.6, Leading zero omitted, Abs format (unit mm)*
G04 Created by KiCad (PCBNEW (5.1.5)-3) date 2020-02-01 18:30:37*
%MOMM*%
%LPD*%
G04 APERTURE LIST*
%ADD10C,0.100000*%
G04 APERTURE END LIST*
D10*
G36*
X48774504Y5623796D02*
G01*
X48798773Y5620196D01*
X48822571Y5614235D01*
X48845671Y5605970D01*
X48867849Y5595480D01*
X48888893Y5582867D01*
X48908598Y5568253D01*
X48926777Y5551777D01*
X48943253Y5533598D01*
X48957867Y5513893D01*
X48970480Y5492849D01*
X48980970Y5470671D01*
X48989235Y5447571D01*
X48995196Y5423773D01*
X48998796Y5399504D01*
X49000000Y5375000D01*
X49000000Y4625000D01*
X48998796Y4600496D01*
X48995196Y4576227D01*
X48989235Y4552429D01*
X48980970Y4529329D01*
X48970480Y4507151D01*
X48957867Y4486107D01*
X48943253Y4466402D01*
X48926777Y4448223D01*
X48908598Y4431747D01*
X48888893Y4417133D01*
X48867849Y4404520D01*
X48845671Y4394030D01*
X48822571Y4385765D01*
X48798773Y4379804D01*
X48774504Y4376204D01*
X48750000Y4375000D01*
X48250000Y4375000D01*
X48225496Y4376204D01*
X48201227Y4379804D01*
X48177429Y4385765D01*
X48154329Y4394030D01*
X48132151Y4404520D01*
X48111107Y4417133D01*
X48091402Y4431747D01*
X48073223Y4448223D01*
X48056747Y4466402D01*
X48042133Y4486107D01*
X48029520Y4507151D01*
X48019030Y4529329D01*
X48010765Y4552429D01*
X48004804Y4576227D01*
X48001204Y4600496D01*
X48000000Y4625000D01*
X48000000Y5375000D01*
X48001204Y5399504D01*
X48004804Y5423773D01*
X48010765Y5447571D01*
X48019030Y5470671D01*
X48029520Y5492849D01*
X48042133Y5513893D01*
X48056747Y5533598D01*
X48073223Y5551777D01*
X48091402Y5568253D01*
X48111107Y5582867D01*
X48132151Y5595480D01*
X48154329Y5605970D01*
X48177429Y5614235D01*
X48201227Y5620196D01*
X48225496Y5623796D01*
X48250000Y5625000D01*
X48750000Y5625000D01*
X48774504Y5623796D01*
G37*
G36*
X50774504Y5623796D02*
G01*
X50798773Y5620196D01*
X50822571Y5614235D01*
X50845671Y5605970D01*
X50867849Y5595480D01*
X50888893Y5582867D01*
X50908598Y5568253D01*
X50926777Y5551777D01*
X50943253Y5533598D01*
X50957867Y5513893D01*
X50970480Y5492849D01*
X50980970Y5470671D01*
X50989235Y5447571D01*
X50995196Y5423773D01*
X50998796Y5399504D01*
X51000000Y5375000D01*
X51000000Y4625000D01*
X50998796Y4600496D01*
X50995196Y4576227D01*
X50989235Y4552429D01*
X50980970Y4529329D01*
X50970480Y4507151D01*
X50957867Y4486107D01*
X50943253Y4466402D01*
X50926777Y4448223D01*
X50908598Y4431747D01*
X50888893Y4417133D01*
X50867849Y4404520D01*
X50845671Y4394030D01*
X50822571Y4385765D01*
X50798773Y4379804D01*
X50774504Y4376204D01*
X50750000Y4375000D01*
X50250000Y4375000D01*
X50225496Y4376204D01*
X50201227Y4379804D01*
X50177429Y4385765D01*
X50154329Y4394030D01*
X50132151Y4404520D01*
X50111107Y4417133D01*
X50091402Y4431747D01*
X50073223Y4448223D01*
X50056747Y4466402D01*
X50042133Y4486107D01*
X50029520Y4507151D01*
X50019030Y4529329D01*
X50010765Y4552429D01*
X50004804Y4576227D01*
X50001204Y4600496D01*
X50000000Y4625000D01*
X50000000Y5375000D01*
X50001204Y5399504D01*
X50004804Y5423773D01*
X50010765Y5447571D01*
X50019030Y5470671D01*
X50029520Y5492849D01*
X50042133Y5513893D01*
X50056747Y5533598D01*
X50073223Y5551777D01*
X50091402Y5568253D01*
X50111107Y5582867D01*
X50132151Y5595480D01*
X50154329Y5605970D01*
X50177429Y5614235D01*
X50201227Y5620196D01*
X50225496Y5623796D01*
X50250000Y5625000D01*
X50750000Y5625000D01*
X50774504Y5623796D01*
G37*
G36*
X12774504Y5623796D02*
G01*
X12798773Y5620196D01*
X12822571Y5614235D01*
X12845671Y5605970D01*
X12867849Y5595480D01*
X12888893Y5582867D01*
X12908598Y5568253D01*
X12926777Y5551777D01*
X12943253Y5533598D01*
X12957867Y5513893D01*
X12970480Y5492849D01*
X12980970Y5470671D01*
X12989235Y5447571D01*
X12995196Y5423773D01*
X12998796Y5399504D01*
X13000000Y5375000D01*
X13000000Y4625000D01*
X12998796Y4600496D01*
X12995196Y4576227D01*
X12989235Y4552429D01*
X12980970Y4529329D01*
X12970480Y4507151D01*
X12957867Y4486107D01*
X12943253Y4466402D01*
X12926777Y4448223D01*
X12908598Y4431747D01*
X12888893Y4417133D01*
X12867849Y4404520D01*
X12845671Y4394030D01*
X12822571Y4385765D01*
X12798773Y4379804D01*
X12774504Y4376204D01*
X12750000Y4375000D01*
X12250000Y4375000D01*
X12225496Y4376204D01*
X12201227Y4379804D01*
X12177429Y4385765D01*
X12154329Y4394030D01*
X12132151Y4404520D01*
X12111107Y4417133D01*
X12091402Y4431747D01*
X12073223Y4448223D01*
X12056747Y4466402D01*
X12042133Y4486107D01*
X12029520Y4507151D01*
X12019030Y4529329D01*
X12010765Y4552429D01*
X12004804Y4576227D01*
X12001204Y4600496D01*
X12000000Y4625000D01*
X12000000Y5375000D01*
X12001204Y5399504D01*
X12004804Y5423773D01*
X12010765Y5447571D01*
X12019030Y5470671D01*
X12029520Y5492849D01*
X12042133Y5513893D01*
X12056747Y5533598D01*
X12073223Y5551777D01*
X12091402Y5568253D01*
X12111107Y5582867D01*
X12132151Y5595480D01*
X12154329Y5605970D01*
X12177429Y5614235D01*
X12201227Y5620196D01*
X12225496Y5623796D01*
X12250000Y5625000D01*
X12750000Y5625000D01*
X12774504Y5623796D01*
G37*
G36*
X10774504Y5623796D02*
G01*
X10798773Y5620196D01*
X10822571Y5614235D01*
X10845671Y5605970D01*
X10867849Y5595480D01*
X10888893Y5582867D01*
X10908598Y5568253D01*
X10926777Y5551777D01*
X10943253Y5533598D01*
X10957867Y5513893D01*
X10970480Y5492849D01*
X10980970Y5470671D01*
X10989235Y5447571D01*
X10995196Y5423773D01*
X10998796Y5399504D01*
X11000000Y5375000D01*
X11000000Y4625000D01*
X10998796Y4600496D01*
X10995196Y4576227D01*
X10989235Y4552429D01*
X10980970Y4529329D01*
X10970480Y4507151D01*
X10957867Y4486107D01*
X10943253Y4466402D01*
X10926777Y4448223D01*
X10908598Y4431747D01*
X10888893Y4417133D01*
X10867849Y4404520D01*
X10845671Y4394030D01*
X10822571Y4385765D01*
X10798773Y4379804D01*
X10774504Y4376204D01*
X10750000Y4375000D01*
X10250000Y4375000D01*
X10225496Y4376204D01*
X10201227Y4379804D01*
X10177429Y4385765D01*
X10154329Y4394030D01*
X10132151Y4404520D01*
X10111107Y4417133D01*
X10091402Y4431747D01*
X10073223Y4448223D01*
X10056747Y4466402D01*
X10042133Y4486107D01*
X10029520Y4507151D01*
X10019030Y4529329D01*
X10010765Y4552429D01*
X10004804Y4576227D01*
X10001204Y4600496D01*
X10000000Y4625000D01*
X10000000Y5375000D01*
X10001204Y5399504D01*
X10004804Y5423773D01*
X10010765Y5447571D01*
X10019030Y5470671D01*
X10029520Y5492849D01*
X10042133Y5513893D01*
X10056747Y5533598D01*
X10073223Y5551777D01*
X10091402Y5568253D01*
X10111107Y5582867D01*
X10132151Y5595480D01*
X10154329Y5605970D01*
X10177429Y5614235D01*
X10201227Y5620196D01*
X10225496Y5623796D01*
X10250000Y5625000D01*
X10750000Y5625000D01*
X10774504Y5623796D01*
G37*
G36*
X48774504Y10123796D02*
G01*
X48798773Y10120196D01*
X48822571Y10114235D01*
X48845671Y10105970D01*
X48867849Y10095480D01*
X48888893Y10082867D01*
X48908598Y10068253D01*
X48926777Y10051777D01*
X48943253Y10033598D01*
X48957867Y10013893D01*
X48970480Y9992849D01*
X48980970Y9970671D01*
X48989235Y9947571D01*
X48995196Y9923773D01*
X48998796Y9899504D01*
X49000000Y9875000D01*
X49000000Y9125000D01*
X48998796Y9100496D01*
X48995196Y9076227D01*
X48989235Y9052429D01*
X48980970Y9029329D01*
X48970480Y9007151D01*
X48957867Y8986107D01*
X48943253Y8966402D01*
X48926777Y8948223D01*
X48908598Y8931747D01*
X48888893Y8917133D01*
X48867849Y8904520D01*
X48845671Y8894030D01*
X48822571Y8885765D01*
X48798773Y8879804D01*
X48774504Y8876204D01*
X48750000Y8875000D01*
X48250000Y8875000D01*
X48225496Y8876204D01*
X48201227Y8879804D01*
X48177429Y8885765D01*
X48154329Y8894030D01*
X48132151Y8904520D01*
X48111107Y8917133D01*
X48091402Y8931747D01*
X48073223Y8948223D01*
X48056747Y8966402D01*
X48042133Y8986107D01*
X48029520Y9007151D01*
X48019030Y9029329D01*
X48010765Y9052429D01*
X48004804Y9076227D01*
X48001204Y9100496D01*
X48000000Y9125000D01*
X48000000Y9875000D01*
X48001204Y9899504D01*
X48004804Y9923773D01*
X48010765Y9947571D01*
X48019030Y9970671D01*
X48029520Y9992849D01*
X48042133Y10013893D01*
X48056747Y10033598D01*
X48073223Y10051777D01*
X48091402Y10068253D01*
X48111107Y10082867D01*
X48132151Y10095480D01*
X48154329Y10105970D01*
X48177429Y10114235D01*
X48201227Y10120196D01*
X48225496Y10123796D01*
X48250000Y10125000D01*
X48750000Y10125000D01*
X48774504Y10123796D01*
G37*
G36*
X50774504Y10123796D02*
G01*
X50798773Y10120196D01*
X50822571Y10114235D01*
X50845671Y10105970D01*
X50867849Y10095480D01*
X50888893Y10082867D01*
X50908598Y10068253D01*
X50926777Y10051777D01*
X50943253Y10033598D01*
X50957867Y10013893D01*
X50970480Y9992849D01*
X50980970Y9970671D01*
X50989235Y9947571D01*
X50995196Y9923773D01*
X50998796Y9899504D01*
X51000000Y9875000D01*
X51000000Y9125000D01*
X50998796Y9100496D01*
X50995196Y9076227D01*
X50989235Y9052429D01*
X50980970Y9029329D01*
X50970480Y9007151D01*
X50957867Y8986107D01*
X50943253Y8966402D01*
X50926777Y8948223D01*
X50908598Y8931747D01*
X50888893Y8917133D01*
X50867849Y8904520D01*
X50845671Y8894030D01*
X50822571Y8885765D01*
X50798773Y8879804D01*
X50774504Y8876204D01*
X50750000Y8875000D01*
X50250000Y8875000D01*
X50225496Y8876204D01*
X50201227Y8879804D01*
X50177429Y8885765D01*
X50154329Y8894030D01*
X50132151Y8904520D01*
X50111107Y8917133D01*
X50091402Y8931747D01*
X50073223Y8948223D01*
X50056747Y8966402D01*
X50042133Y8986107D01*
X50029520Y9007151D01*
X50019030Y9029329D01*
X50010765Y9052429D01*
X50004804Y9076227D01*
X50001204Y9100496D01*
X50000000Y9125000D01*
X50000000Y9875000D01*
X50001204Y9899504D01*
X50004804Y9923773D01*
X50010765Y9947571D01*
X50019030Y9970671D01*
X50029520Y9992849D01*
X50042133Y10013893D01*
X50056747Y10033598D01*
X50073223Y10051777D01*
X50091402Y10068253D01*
X50111107Y10082867D01*
X50132151Y10095480D01*
X50154329Y10105970D01*
X50177429Y10114235D01*
X50201227Y10120196D01*
X50225496Y10123796D01*
X50250000Y10125000D01*
X50750000Y10125000D01*
X50774504Y10123796D01*
G37*
G36*
X12774504Y10123796D02*
G01*
X12798773Y10120196D01*
X12822571Y10114235D01*
X12845671Y10105970D01*
X12867849Y10095480D01*
X12888893Y10082867D01*
X12908598Y10068253D01*
X12926777Y10051777D01*
X12943253Y10033598D01*
X12957867Y10013893D01*
X12970480Y9992849D01*
X12980970Y9970671D01*
X12989235Y9947571D01*
X12995196Y9923773D01*
X12998796Y9899504D01*
X13000000Y9875000D01*
X13000000Y9125000D01*
X12998796Y9100496D01*
X12995196Y9076227D01*
X12989235Y9052429D01*
X12980970Y9029329D01*
X12970480Y9007151D01*
X12957867Y8986107D01*
X12943253Y8966402D01*
X12926777Y8948223D01*
X12908598Y8931747D01*
X12888893Y8917133D01*
X12867849Y8904520D01*
X12845671Y8894030D01*
X12822571Y8885765D01*
X12798773Y8879804D01*
X12774504Y8876204D01*
X12750000Y8875000D01*
X12250000Y8875000D01*
X12225496Y8876204D01*
X12201227Y8879804D01*
X12177429Y8885765D01*
X12154329Y8894030D01*
X12132151Y8904520D01*
X12111107Y8917133D01*
X12091402Y8931747D01*
X12073223Y8948223D01*
X12056747Y8966402D01*
X12042133Y8986107D01*
X12029520Y9007151D01*
X12019030Y9029329D01*
X12010765Y9052429D01*
X12004804Y9076227D01*
X12001204Y9100496D01*
X12000000Y9125000D01*
X12000000Y9875000D01*
X12001204Y9899504D01*
X12004804Y9923773D01*
X12010765Y9947571D01*
X12019030Y9970671D01*
X12029520Y9992849D01*
X12042133Y10013893D01*
X12056747Y10033598D01*
X12073223Y10051777D01*
X12091402Y10068253D01*
X12111107Y10082867D01*
X12132151Y10095480D01*
X12154329Y10105970D01*
X12177429Y10114235D01*
X12201227Y10120196D01*
X12225496Y10123796D01*
X12250000Y10125000D01*
X12750000Y10125000D01*
X12774504Y10123796D01*
G37*
G36*
X10774504Y10123796D02*
G01*
X10798773Y10120196D01*
X10822571Y10114235D01*
X10845671Y10105970D01*
X10867849Y10095480D01*
X10888893Y10082867D01*
X10908598Y10068253D01*
X10926777Y10051777D01*
X10943253Y10033598D01*
X10957867Y10013893D01*
X10970480Y9992849D01*
X10980970Y9970671D01*
X10989235Y9947571D01*
X10995196Y9923773D01*
X10998796Y9899504D01*
X11000000Y9875000D01*
X11000000Y9125000D01*
X10998796Y9100496D01*
X10995196Y9076227D01*
X10989235Y9052429D01*
X10980970Y9029329D01*
X10970480Y9007151D01*
X10957867Y8986107D01*
X10943253Y8966402D01*
X10926777Y8948223D01*
X10908598Y8931747D01*
X10888893Y8917133D01*
X10867849Y8904520D01*
X10845671Y8894030D01*
X10822571Y8885765D01*
X10798773Y8879804D01*
X10774504Y8876204D01*
X10750000Y8875000D01*
X10250000Y8875000D01*
X10225496Y8876204D01*
X10201227Y8879804D01*
X10177429Y8885765D01*
X10154329Y8894030D01*
X10132151Y8904520D01*
X10111107Y8917133D01*
X10091402Y8931747D01*
X10073223Y8948223D01*
X10056747Y8966402D01*
X10042133Y8986107D01*
X10029520Y9007151D01*
X10019030Y9029329D01*
X10010765Y9052429D01*
X10004804Y9076227D01*
X10001204Y9100496D01*
X10000000Y9125000D01*
X10000000Y9875000D01*
X10001204Y9899504D01*
X10004804Y9923773D01*
X10010765Y9947571D01*
X10019030Y9970671D01*
X10029520Y9992849D01*
X10042133Y10013893D01*
X10056747Y10033598D01*
X10073223Y10051777D01*
X10091402Y10068253D01*
X10111107Y10082867D01*
X10132151Y10095480D01*
X10154329Y10105970D01*
X10177429Y10114235D01*
X10201227Y10120196D01*
X10225496Y10123796D01*
X10250000Y10125000D01*
X10750000Y10125000D01*
X10774504Y10123796D01*
G37*
M02*
