G04 #@! TF.GenerationSoftware,KiCad,Pcbnew,(5.1.5)-3*
G04 #@! TF.CreationDate,2020-02-03T09:46:18+01:00*
G04 #@! TF.ProjectId,Chopper_v2,43686f70-7065-4725-9f76-322e6b696361,rev?*
G04 #@! TF.SameCoordinates,PXc65d40PYb71b000*
G04 #@! TF.FileFunction,Paste,Top*
G04 #@! TF.FilePolarity,Positive*
%FSLAX46Y46*%
G04 Gerber Fmt 4.6, Leading zero omitted, Abs format (unit mm)*
G04 Created by KiCad (PCBNEW (5.1.5)-3) date 2020-02-03 09:46:18*
%MOMM*%
%LPD*%
G04 APERTURE LIST*
%ADD10C,0.100000*%
%ADD11R,2.160000X0.640000*%
%ADD12R,1.100000X4.600000*%
%ADD13R,5.250000X4.550000*%
%ADD14R,2.300000X2.500000*%
%ADD15R,3.250000X13.200000*%
G04 APERTURE END LIST*
D10*
G36*
X9516958Y67044290D02*
G01*
X9531276Y67042166D01*
X9545317Y67038649D01*
X9558946Y67033772D01*
X9572031Y67027583D01*
X9584447Y67020142D01*
X9596073Y67011519D01*
X9606798Y67001798D01*
X9616519Y66991073D01*
X9625142Y66979447D01*
X9632583Y66967031D01*
X9638772Y66953946D01*
X9643649Y66940317D01*
X9647166Y66926276D01*
X9649290Y66911958D01*
X9650000Y66897500D01*
X9650000Y66602500D01*
X9649290Y66588042D01*
X9647166Y66573724D01*
X9643649Y66559683D01*
X9638772Y66546054D01*
X9632583Y66532969D01*
X9625142Y66520553D01*
X9616519Y66508927D01*
X9606798Y66498202D01*
X9596073Y66488481D01*
X9584447Y66479858D01*
X9572031Y66472417D01*
X9558946Y66466228D01*
X9545317Y66461351D01*
X9531276Y66457834D01*
X9516958Y66455710D01*
X9502500Y66455000D01*
X8997500Y66455000D01*
X8983042Y66455710D01*
X8968724Y66457834D01*
X8954683Y66461351D01*
X8941054Y66466228D01*
X8927969Y66472417D01*
X8915553Y66479858D01*
X8903927Y66488481D01*
X8893202Y66498202D01*
X8883481Y66508927D01*
X8874858Y66520553D01*
X8867417Y66532969D01*
X8861228Y66546054D01*
X8856351Y66559683D01*
X8852834Y66573724D01*
X8850710Y66588042D01*
X8850000Y66602500D01*
X8850000Y66897500D01*
X8850710Y66911958D01*
X8852834Y66926276D01*
X8856351Y66940317D01*
X8861228Y66953946D01*
X8867417Y66967031D01*
X8874858Y66979447D01*
X8883481Y66991073D01*
X8893202Y67001798D01*
X8903927Y67011519D01*
X8915553Y67020142D01*
X8927969Y67027583D01*
X8941054Y67033772D01*
X8954683Y67038649D01*
X8968724Y67042166D01*
X8983042Y67044290D01*
X8997500Y67045000D01*
X9502500Y67045000D01*
X9516958Y67044290D01*
G37*
G36*
X9516958Y68544290D02*
G01*
X9531276Y68542166D01*
X9545317Y68538649D01*
X9558946Y68533772D01*
X9572031Y68527583D01*
X9584447Y68520142D01*
X9596073Y68511519D01*
X9606798Y68501798D01*
X9616519Y68491073D01*
X9625142Y68479447D01*
X9632583Y68467031D01*
X9638772Y68453946D01*
X9643649Y68440317D01*
X9647166Y68426276D01*
X9649290Y68411958D01*
X9650000Y68397500D01*
X9650000Y68102500D01*
X9649290Y68088042D01*
X9647166Y68073724D01*
X9643649Y68059683D01*
X9638772Y68046054D01*
X9632583Y68032969D01*
X9625142Y68020553D01*
X9616519Y68008927D01*
X9606798Y67998202D01*
X9596073Y67988481D01*
X9584447Y67979858D01*
X9572031Y67972417D01*
X9558946Y67966228D01*
X9545317Y67961351D01*
X9531276Y67957834D01*
X9516958Y67955710D01*
X9502500Y67955000D01*
X8997500Y67955000D01*
X8983042Y67955710D01*
X8968724Y67957834D01*
X8954683Y67961351D01*
X8941054Y67966228D01*
X8927969Y67972417D01*
X8915553Y67979858D01*
X8903927Y67988481D01*
X8893202Y67998202D01*
X8883481Y68008927D01*
X8874858Y68020553D01*
X8867417Y68032969D01*
X8861228Y68046054D01*
X8856351Y68059683D01*
X8852834Y68073724D01*
X8850710Y68088042D01*
X8850000Y68102500D01*
X8850000Y68397500D01*
X8850710Y68411958D01*
X8852834Y68426276D01*
X8856351Y68440317D01*
X8861228Y68453946D01*
X8867417Y68467031D01*
X8874858Y68479447D01*
X8883481Y68491073D01*
X8893202Y68501798D01*
X8903927Y68511519D01*
X8915553Y68520142D01*
X8927969Y68527583D01*
X8941054Y68533772D01*
X8954683Y68538649D01*
X8968724Y68542166D01*
X8983042Y68544290D01*
X8997500Y68545000D01*
X9502500Y68545000D01*
X9516958Y68544290D01*
G37*
G36*
X30774504Y54873796D02*
G01*
X30798773Y54870196D01*
X30822571Y54864235D01*
X30845671Y54855970D01*
X30867849Y54845480D01*
X30888893Y54832867D01*
X30908598Y54818253D01*
X30926777Y54801777D01*
X30943253Y54783598D01*
X30957867Y54763893D01*
X30970480Y54742849D01*
X30980970Y54720671D01*
X30989235Y54697571D01*
X30995196Y54673773D01*
X30998796Y54649504D01*
X31000000Y54625000D01*
X31000000Y53875000D01*
X30998796Y53850496D01*
X30995196Y53826227D01*
X30989235Y53802429D01*
X30980970Y53779329D01*
X30970480Y53757151D01*
X30957867Y53736107D01*
X30943253Y53716402D01*
X30926777Y53698223D01*
X30908598Y53681747D01*
X30888893Y53667133D01*
X30867849Y53654520D01*
X30845671Y53644030D01*
X30822571Y53635765D01*
X30798773Y53629804D01*
X30774504Y53626204D01*
X30750000Y53625000D01*
X30250000Y53625000D01*
X30225496Y53626204D01*
X30201227Y53629804D01*
X30177429Y53635765D01*
X30154329Y53644030D01*
X30132151Y53654520D01*
X30111107Y53667133D01*
X30091402Y53681747D01*
X30073223Y53698223D01*
X30056747Y53716402D01*
X30042133Y53736107D01*
X30029520Y53757151D01*
X30019030Y53779329D01*
X30010765Y53802429D01*
X30004804Y53826227D01*
X30001204Y53850496D01*
X30000000Y53875000D01*
X30000000Y54625000D01*
X30001204Y54649504D01*
X30004804Y54673773D01*
X30010765Y54697571D01*
X30019030Y54720671D01*
X30029520Y54742849D01*
X30042133Y54763893D01*
X30056747Y54783598D01*
X30073223Y54801777D01*
X30091402Y54818253D01*
X30111107Y54832867D01*
X30132151Y54845480D01*
X30154329Y54855970D01*
X30177429Y54864235D01*
X30201227Y54870196D01*
X30225496Y54873796D01*
X30250000Y54875000D01*
X30750000Y54875000D01*
X30774504Y54873796D01*
G37*
G36*
X28774504Y54873796D02*
G01*
X28798773Y54870196D01*
X28822571Y54864235D01*
X28845671Y54855970D01*
X28867849Y54845480D01*
X28888893Y54832867D01*
X28908598Y54818253D01*
X28926777Y54801777D01*
X28943253Y54783598D01*
X28957867Y54763893D01*
X28970480Y54742849D01*
X28980970Y54720671D01*
X28989235Y54697571D01*
X28995196Y54673773D01*
X28998796Y54649504D01*
X29000000Y54625000D01*
X29000000Y53875000D01*
X28998796Y53850496D01*
X28995196Y53826227D01*
X28989235Y53802429D01*
X28980970Y53779329D01*
X28970480Y53757151D01*
X28957867Y53736107D01*
X28943253Y53716402D01*
X28926777Y53698223D01*
X28908598Y53681747D01*
X28888893Y53667133D01*
X28867849Y53654520D01*
X28845671Y53644030D01*
X28822571Y53635765D01*
X28798773Y53629804D01*
X28774504Y53626204D01*
X28750000Y53625000D01*
X28250000Y53625000D01*
X28225496Y53626204D01*
X28201227Y53629804D01*
X28177429Y53635765D01*
X28154329Y53644030D01*
X28132151Y53654520D01*
X28111107Y53667133D01*
X28091402Y53681747D01*
X28073223Y53698223D01*
X28056747Y53716402D01*
X28042133Y53736107D01*
X28029520Y53757151D01*
X28019030Y53779329D01*
X28010765Y53802429D01*
X28004804Y53826227D01*
X28001204Y53850496D01*
X28000000Y53875000D01*
X28000000Y54625000D01*
X28001204Y54649504D01*
X28004804Y54673773D01*
X28010765Y54697571D01*
X28019030Y54720671D01*
X28029520Y54742849D01*
X28042133Y54763893D01*
X28056747Y54783598D01*
X28073223Y54801777D01*
X28091402Y54818253D01*
X28111107Y54832867D01*
X28132151Y54845480D01*
X28154329Y54855970D01*
X28177429Y54864235D01*
X28201227Y54870196D01*
X28225496Y54873796D01*
X28250000Y54875000D01*
X28750000Y54875000D01*
X28774504Y54873796D01*
G37*
G36*
X19899504Y52498796D02*
G01*
X19923773Y52495196D01*
X19947571Y52489235D01*
X19970671Y52480970D01*
X19992849Y52470480D01*
X20013893Y52457867D01*
X20033598Y52443253D01*
X20051777Y52426777D01*
X20068253Y52408598D01*
X20082867Y52388893D01*
X20095480Y52367849D01*
X20105970Y52345671D01*
X20114235Y52322571D01*
X20120196Y52298773D01*
X20123796Y52274504D01*
X20125000Y52250000D01*
X20125000Y51750000D01*
X20123796Y51725496D01*
X20120196Y51701227D01*
X20114235Y51677429D01*
X20105970Y51654329D01*
X20095480Y51632151D01*
X20082867Y51611107D01*
X20068253Y51591402D01*
X20051777Y51573223D01*
X20033598Y51556747D01*
X20013893Y51542133D01*
X19992849Y51529520D01*
X19970671Y51519030D01*
X19947571Y51510765D01*
X19923773Y51504804D01*
X19899504Y51501204D01*
X19875000Y51500000D01*
X19125000Y51500000D01*
X19100496Y51501204D01*
X19076227Y51504804D01*
X19052429Y51510765D01*
X19029329Y51519030D01*
X19007151Y51529520D01*
X18986107Y51542133D01*
X18966402Y51556747D01*
X18948223Y51573223D01*
X18931747Y51591402D01*
X18917133Y51611107D01*
X18904520Y51632151D01*
X18894030Y51654329D01*
X18885765Y51677429D01*
X18879804Y51701227D01*
X18876204Y51725496D01*
X18875000Y51750000D01*
X18875000Y52250000D01*
X18876204Y52274504D01*
X18879804Y52298773D01*
X18885765Y52322571D01*
X18894030Y52345671D01*
X18904520Y52367849D01*
X18917133Y52388893D01*
X18931747Y52408598D01*
X18948223Y52426777D01*
X18966402Y52443253D01*
X18986107Y52457867D01*
X19007151Y52470480D01*
X19029329Y52480970D01*
X19052429Y52489235D01*
X19076227Y52495196D01*
X19100496Y52498796D01*
X19125000Y52500000D01*
X19875000Y52500000D01*
X19899504Y52498796D01*
G37*
G36*
X19899504Y50498796D02*
G01*
X19923773Y50495196D01*
X19947571Y50489235D01*
X19970671Y50480970D01*
X19992849Y50470480D01*
X20013893Y50457867D01*
X20033598Y50443253D01*
X20051777Y50426777D01*
X20068253Y50408598D01*
X20082867Y50388893D01*
X20095480Y50367849D01*
X20105970Y50345671D01*
X20114235Y50322571D01*
X20120196Y50298773D01*
X20123796Y50274504D01*
X20125000Y50250000D01*
X20125000Y49750000D01*
X20123796Y49725496D01*
X20120196Y49701227D01*
X20114235Y49677429D01*
X20105970Y49654329D01*
X20095480Y49632151D01*
X20082867Y49611107D01*
X20068253Y49591402D01*
X20051777Y49573223D01*
X20033598Y49556747D01*
X20013893Y49542133D01*
X19992849Y49529520D01*
X19970671Y49519030D01*
X19947571Y49510765D01*
X19923773Y49504804D01*
X19899504Y49501204D01*
X19875000Y49500000D01*
X19125000Y49500000D01*
X19100496Y49501204D01*
X19076227Y49504804D01*
X19052429Y49510765D01*
X19029329Y49519030D01*
X19007151Y49529520D01*
X18986107Y49542133D01*
X18966402Y49556747D01*
X18948223Y49573223D01*
X18931747Y49591402D01*
X18917133Y49611107D01*
X18904520Y49632151D01*
X18894030Y49654329D01*
X18885765Y49677429D01*
X18879804Y49701227D01*
X18876204Y49725496D01*
X18875000Y49750000D01*
X18875000Y50250000D01*
X18876204Y50274504D01*
X18879804Y50298773D01*
X18885765Y50322571D01*
X18894030Y50345671D01*
X18904520Y50367849D01*
X18917133Y50388893D01*
X18931747Y50408598D01*
X18948223Y50426777D01*
X18966402Y50443253D01*
X18986107Y50457867D01*
X19007151Y50470480D01*
X19029329Y50480970D01*
X19052429Y50489235D01*
X19076227Y50495196D01*
X19100496Y50498796D01*
X19125000Y50500000D01*
X19875000Y50500000D01*
X19899504Y50498796D01*
G37*
G36*
X7024504Y59373796D02*
G01*
X7048773Y59370196D01*
X7072571Y59364235D01*
X7095671Y59355970D01*
X7117849Y59345480D01*
X7138893Y59332867D01*
X7158598Y59318253D01*
X7176777Y59301777D01*
X7193253Y59283598D01*
X7207867Y59263893D01*
X7220480Y59242849D01*
X7230970Y59220671D01*
X7239235Y59197571D01*
X7245196Y59173773D01*
X7248796Y59149504D01*
X7250000Y59125000D01*
X7250000Y58375000D01*
X7248796Y58350496D01*
X7245196Y58326227D01*
X7239235Y58302429D01*
X7230970Y58279329D01*
X7220480Y58257151D01*
X7207867Y58236107D01*
X7193253Y58216402D01*
X7176777Y58198223D01*
X7158598Y58181747D01*
X7138893Y58167133D01*
X7117849Y58154520D01*
X7095671Y58144030D01*
X7072571Y58135765D01*
X7048773Y58129804D01*
X7024504Y58126204D01*
X7000000Y58125000D01*
X6500000Y58125000D01*
X6475496Y58126204D01*
X6451227Y58129804D01*
X6427429Y58135765D01*
X6404329Y58144030D01*
X6382151Y58154520D01*
X6361107Y58167133D01*
X6341402Y58181747D01*
X6323223Y58198223D01*
X6306747Y58216402D01*
X6292133Y58236107D01*
X6279520Y58257151D01*
X6269030Y58279329D01*
X6260765Y58302429D01*
X6254804Y58326227D01*
X6251204Y58350496D01*
X6250000Y58375000D01*
X6250000Y59125000D01*
X6251204Y59149504D01*
X6254804Y59173773D01*
X6260765Y59197571D01*
X6269030Y59220671D01*
X6279520Y59242849D01*
X6292133Y59263893D01*
X6306747Y59283598D01*
X6323223Y59301777D01*
X6341402Y59318253D01*
X6361107Y59332867D01*
X6382151Y59345480D01*
X6404329Y59355970D01*
X6427429Y59364235D01*
X6451227Y59370196D01*
X6475496Y59373796D01*
X6500000Y59375000D01*
X7000000Y59375000D01*
X7024504Y59373796D01*
G37*
G36*
X5024504Y59373796D02*
G01*
X5048773Y59370196D01*
X5072571Y59364235D01*
X5095671Y59355970D01*
X5117849Y59345480D01*
X5138893Y59332867D01*
X5158598Y59318253D01*
X5176777Y59301777D01*
X5193253Y59283598D01*
X5207867Y59263893D01*
X5220480Y59242849D01*
X5230970Y59220671D01*
X5239235Y59197571D01*
X5245196Y59173773D01*
X5248796Y59149504D01*
X5250000Y59125000D01*
X5250000Y58375000D01*
X5248796Y58350496D01*
X5245196Y58326227D01*
X5239235Y58302429D01*
X5230970Y58279329D01*
X5220480Y58257151D01*
X5207867Y58236107D01*
X5193253Y58216402D01*
X5176777Y58198223D01*
X5158598Y58181747D01*
X5138893Y58167133D01*
X5117849Y58154520D01*
X5095671Y58144030D01*
X5072571Y58135765D01*
X5048773Y58129804D01*
X5024504Y58126204D01*
X5000000Y58125000D01*
X4500000Y58125000D01*
X4475496Y58126204D01*
X4451227Y58129804D01*
X4427429Y58135765D01*
X4404329Y58144030D01*
X4382151Y58154520D01*
X4361107Y58167133D01*
X4341402Y58181747D01*
X4323223Y58198223D01*
X4306747Y58216402D01*
X4292133Y58236107D01*
X4279520Y58257151D01*
X4269030Y58279329D01*
X4260765Y58302429D01*
X4254804Y58326227D01*
X4251204Y58350496D01*
X4250000Y58375000D01*
X4250000Y59125000D01*
X4251204Y59149504D01*
X4254804Y59173773D01*
X4260765Y59197571D01*
X4269030Y59220671D01*
X4279520Y59242849D01*
X4292133Y59263893D01*
X4306747Y59283598D01*
X4323223Y59301777D01*
X4341402Y59318253D01*
X4361107Y59332867D01*
X4382151Y59345480D01*
X4404329Y59355970D01*
X4427429Y59364235D01*
X4451227Y59370196D01*
X4475496Y59373796D01*
X4500000Y59375000D01*
X5000000Y59375000D01*
X5024504Y59373796D01*
G37*
G36*
X8149504Y63248796D02*
G01*
X8173773Y63245196D01*
X8197571Y63239235D01*
X8220671Y63230970D01*
X8242849Y63220480D01*
X8263893Y63207867D01*
X8283598Y63193253D01*
X8301777Y63176777D01*
X8318253Y63158598D01*
X8332867Y63138893D01*
X8345480Y63117849D01*
X8355970Y63095671D01*
X8364235Y63072571D01*
X8370196Y63048773D01*
X8373796Y63024504D01*
X8375000Y63000000D01*
X8375000Y62500000D01*
X8373796Y62475496D01*
X8370196Y62451227D01*
X8364235Y62427429D01*
X8355970Y62404329D01*
X8345480Y62382151D01*
X8332867Y62361107D01*
X8318253Y62341402D01*
X8301777Y62323223D01*
X8283598Y62306747D01*
X8263893Y62292133D01*
X8242849Y62279520D01*
X8220671Y62269030D01*
X8197571Y62260765D01*
X8173773Y62254804D01*
X8149504Y62251204D01*
X8125000Y62250000D01*
X7375000Y62250000D01*
X7350496Y62251204D01*
X7326227Y62254804D01*
X7302429Y62260765D01*
X7279329Y62269030D01*
X7257151Y62279520D01*
X7236107Y62292133D01*
X7216402Y62306747D01*
X7198223Y62323223D01*
X7181747Y62341402D01*
X7167133Y62361107D01*
X7154520Y62382151D01*
X7144030Y62404329D01*
X7135765Y62427429D01*
X7129804Y62451227D01*
X7126204Y62475496D01*
X7125000Y62500000D01*
X7125000Y63000000D01*
X7126204Y63024504D01*
X7129804Y63048773D01*
X7135765Y63072571D01*
X7144030Y63095671D01*
X7154520Y63117849D01*
X7167133Y63138893D01*
X7181747Y63158598D01*
X7198223Y63176777D01*
X7216402Y63193253D01*
X7236107Y63207867D01*
X7257151Y63220480D01*
X7279329Y63230970D01*
X7302429Y63239235D01*
X7326227Y63245196D01*
X7350496Y63248796D01*
X7375000Y63250000D01*
X8125000Y63250000D01*
X8149504Y63248796D01*
G37*
G36*
X8149504Y61248796D02*
G01*
X8173773Y61245196D01*
X8197571Y61239235D01*
X8220671Y61230970D01*
X8242849Y61220480D01*
X8263893Y61207867D01*
X8283598Y61193253D01*
X8301777Y61176777D01*
X8318253Y61158598D01*
X8332867Y61138893D01*
X8345480Y61117849D01*
X8355970Y61095671D01*
X8364235Y61072571D01*
X8370196Y61048773D01*
X8373796Y61024504D01*
X8375000Y61000000D01*
X8375000Y60500000D01*
X8373796Y60475496D01*
X8370196Y60451227D01*
X8364235Y60427429D01*
X8355970Y60404329D01*
X8345480Y60382151D01*
X8332867Y60361107D01*
X8318253Y60341402D01*
X8301777Y60323223D01*
X8283598Y60306747D01*
X8263893Y60292133D01*
X8242849Y60279520D01*
X8220671Y60269030D01*
X8197571Y60260765D01*
X8173773Y60254804D01*
X8149504Y60251204D01*
X8125000Y60250000D01*
X7375000Y60250000D01*
X7350496Y60251204D01*
X7326227Y60254804D01*
X7302429Y60260765D01*
X7279329Y60269030D01*
X7257151Y60279520D01*
X7236107Y60292133D01*
X7216402Y60306747D01*
X7198223Y60323223D01*
X7181747Y60341402D01*
X7167133Y60361107D01*
X7154520Y60382151D01*
X7144030Y60404329D01*
X7135765Y60427429D01*
X7129804Y60451227D01*
X7126204Y60475496D01*
X7125000Y60500000D01*
X7125000Y61000000D01*
X7126204Y61024504D01*
X7129804Y61048773D01*
X7135765Y61072571D01*
X7144030Y61095671D01*
X7154520Y61117849D01*
X7167133Y61138893D01*
X7181747Y61158598D01*
X7198223Y61176777D01*
X7216402Y61193253D01*
X7236107Y61207867D01*
X7257151Y61220480D01*
X7279329Y61230970D01*
X7302429Y61239235D01*
X7326227Y61245196D01*
X7350496Y61248796D01*
X7375000Y61250000D01*
X8125000Y61250000D01*
X8149504Y61248796D01*
G37*
G36*
X16149504Y50498796D02*
G01*
X16173773Y50495196D01*
X16197571Y50489235D01*
X16220671Y50480970D01*
X16242849Y50470480D01*
X16263893Y50457867D01*
X16283598Y50443253D01*
X16301777Y50426777D01*
X16318253Y50408598D01*
X16332867Y50388893D01*
X16345480Y50367849D01*
X16355970Y50345671D01*
X16364235Y50322571D01*
X16370196Y50298773D01*
X16373796Y50274504D01*
X16375000Y50250000D01*
X16375000Y49750000D01*
X16373796Y49725496D01*
X16370196Y49701227D01*
X16364235Y49677429D01*
X16355970Y49654329D01*
X16345480Y49632151D01*
X16332867Y49611107D01*
X16318253Y49591402D01*
X16301777Y49573223D01*
X16283598Y49556747D01*
X16263893Y49542133D01*
X16242849Y49529520D01*
X16220671Y49519030D01*
X16197571Y49510765D01*
X16173773Y49504804D01*
X16149504Y49501204D01*
X16125000Y49500000D01*
X15375000Y49500000D01*
X15350496Y49501204D01*
X15326227Y49504804D01*
X15302429Y49510765D01*
X15279329Y49519030D01*
X15257151Y49529520D01*
X15236107Y49542133D01*
X15216402Y49556747D01*
X15198223Y49573223D01*
X15181747Y49591402D01*
X15167133Y49611107D01*
X15154520Y49632151D01*
X15144030Y49654329D01*
X15135765Y49677429D01*
X15129804Y49701227D01*
X15126204Y49725496D01*
X15125000Y49750000D01*
X15125000Y50250000D01*
X15126204Y50274504D01*
X15129804Y50298773D01*
X15135765Y50322571D01*
X15144030Y50345671D01*
X15154520Y50367849D01*
X15167133Y50388893D01*
X15181747Y50408598D01*
X15198223Y50426777D01*
X15216402Y50443253D01*
X15236107Y50457867D01*
X15257151Y50470480D01*
X15279329Y50480970D01*
X15302429Y50489235D01*
X15326227Y50495196D01*
X15350496Y50498796D01*
X15375000Y50500000D01*
X16125000Y50500000D01*
X16149504Y50498796D01*
G37*
G36*
X16149504Y52498796D02*
G01*
X16173773Y52495196D01*
X16197571Y52489235D01*
X16220671Y52480970D01*
X16242849Y52470480D01*
X16263893Y52457867D01*
X16283598Y52443253D01*
X16301777Y52426777D01*
X16318253Y52408598D01*
X16332867Y52388893D01*
X16345480Y52367849D01*
X16355970Y52345671D01*
X16364235Y52322571D01*
X16370196Y52298773D01*
X16373796Y52274504D01*
X16375000Y52250000D01*
X16375000Y51750000D01*
X16373796Y51725496D01*
X16370196Y51701227D01*
X16364235Y51677429D01*
X16355970Y51654329D01*
X16345480Y51632151D01*
X16332867Y51611107D01*
X16318253Y51591402D01*
X16301777Y51573223D01*
X16283598Y51556747D01*
X16263893Y51542133D01*
X16242849Y51529520D01*
X16220671Y51519030D01*
X16197571Y51510765D01*
X16173773Y51504804D01*
X16149504Y51501204D01*
X16125000Y51500000D01*
X15375000Y51500000D01*
X15350496Y51501204D01*
X15326227Y51504804D01*
X15302429Y51510765D01*
X15279329Y51519030D01*
X15257151Y51529520D01*
X15236107Y51542133D01*
X15216402Y51556747D01*
X15198223Y51573223D01*
X15181747Y51591402D01*
X15167133Y51611107D01*
X15154520Y51632151D01*
X15144030Y51654329D01*
X15135765Y51677429D01*
X15129804Y51701227D01*
X15126204Y51725496D01*
X15125000Y51750000D01*
X15125000Y52250000D01*
X15126204Y52274504D01*
X15129804Y52298773D01*
X15135765Y52322571D01*
X15144030Y52345671D01*
X15154520Y52367849D01*
X15167133Y52388893D01*
X15181747Y52408598D01*
X15198223Y52426777D01*
X15216402Y52443253D01*
X15236107Y52457867D01*
X15257151Y52470480D01*
X15279329Y52480970D01*
X15302429Y52489235D01*
X15326227Y52495196D01*
X15350496Y52498796D01*
X15375000Y52500000D01*
X16125000Y52500000D01*
X16149504Y52498796D01*
G37*
G36*
X36411756Y66848194D02*
G01*
X36448159Y66842794D01*
X36483857Y66833853D01*
X36518506Y66821455D01*
X36551774Y66805720D01*
X36583339Y66786801D01*
X36612897Y66764879D01*
X36640165Y66740165D01*
X36664879Y66712897D01*
X36686801Y66683339D01*
X36705720Y66651774D01*
X36721455Y66618506D01*
X36733853Y66583857D01*
X36742794Y66548159D01*
X36748194Y66511756D01*
X36750000Y66475000D01*
X36750000Y64025000D01*
X36748194Y63988244D01*
X36742794Y63951841D01*
X36733853Y63916143D01*
X36721455Y63881494D01*
X36705720Y63848226D01*
X36686801Y63816661D01*
X36664879Y63787103D01*
X36640165Y63759835D01*
X36612897Y63735121D01*
X36583339Y63713199D01*
X36551774Y63694280D01*
X36518506Y63678545D01*
X36483857Y63666147D01*
X36448159Y63657206D01*
X36411756Y63651806D01*
X36375000Y63650000D01*
X35625000Y63650000D01*
X35588244Y63651806D01*
X35551841Y63657206D01*
X35516143Y63666147D01*
X35481494Y63678545D01*
X35448226Y63694280D01*
X35416661Y63713199D01*
X35387103Y63735121D01*
X35359835Y63759835D01*
X35335121Y63787103D01*
X35313199Y63816661D01*
X35294280Y63848226D01*
X35278545Y63881494D01*
X35266147Y63916143D01*
X35257206Y63951841D01*
X35251806Y63988244D01*
X35250000Y64025000D01*
X35250000Y66475000D01*
X35251806Y66511756D01*
X35257206Y66548159D01*
X35266147Y66583857D01*
X35278545Y66618506D01*
X35294280Y66651774D01*
X35313199Y66683339D01*
X35335121Y66712897D01*
X35359835Y66740165D01*
X35387103Y66764879D01*
X35416661Y66786801D01*
X35448226Y66805720D01*
X35481494Y66821455D01*
X35516143Y66833853D01*
X35551841Y66842794D01*
X35588244Y66848194D01*
X35625000Y66850000D01*
X36375000Y66850000D01*
X36411756Y66848194D01*
G37*
G36*
X41911756Y66848194D02*
G01*
X41948159Y66842794D01*
X41983857Y66833853D01*
X42018506Y66821455D01*
X42051774Y66805720D01*
X42083339Y66786801D01*
X42112897Y66764879D01*
X42140165Y66740165D01*
X42164879Y66712897D01*
X42186801Y66683339D01*
X42205720Y66651774D01*
X42221455Y66618506D01*
X42233853Y66583857D01*
X42242794Y66548159D01*
X42248194Y66511756D01*
X42250000Y66475000D01*
X42250000Y64025000D01*
X42248194Y63988244D01*
X42242794Y63951841D01*
X42233853Y63916143D01*
X42221455Y63881494D01*
X42205720Y63848226D01*
X42186801Y63816661D01*
X42164879Y63787103D01*
X42140165Y63759835D01*
X42112897Y63735121D01*
X42083339Y63713199D01*
X42051774Y63694280D01*
X42018506Y63678545D01*
X41983857Y63666147D01*
X41948159Y63657206D01*
X41911756Y63651806D01*
X41875000Y63650000D01*
X41125000Y63650000D01*
X41088244Y63651806D01*
X41051841Y63657206D01*
X41016143Y63666147D01*
X40981494Y63678545D01*
X40948226Y63694280D01*
X40916661Y63713199D01*
X40887103Y63735121D01*
X40859835Y63759835D01*
X40835121Y63787103D01*
X40813199Y63816661D01*
X40794280Y63848226D01*
X40778545Y63881494D01*
X40766147Y63916143D01*
X40757206Y63951841D01*
X40751806Y63988244D01*
X40750000Y64025000D01*
X40750000Y66475000D01*
X40751806Y66511756D01*
X40757206Y66548159D01*
X40766147Y66583857D01*
X40778545Y66618506D01*
X40794280Y66651774D01*
X40813199Y66683339D01*
X40835121Y66712897D01*
X40859835Y66740165D01*
X40887103Y66764879D01*
X40916661Y66786801D01*
X40948226Y66805720D01*
X40981494Y66821455D01*
X41016143Y66833853D01*
X41051841Y66842794D01*
X41088244Y66848194D01*
X41125000Y66850000D01*
X41875000Y66850000D01*
X41911756Y66848194D01*
G37*
D11*
X45770000Y58980000D03*
X45770000Y60250000D03*
X45770000Y61520000D03*
X37230000Y61520000D03*
X37230000Y60250000D03*
X37230000Y58980000D03*
D10*
G36*
X17899504Y52498796D02*
G01*
X17923773Y52495196D01*
X17947571Y52489235D01*
X17970671Y52480970D01*
X17992849Y52470480D01*
X18013893Y52457867D01*
X18033598Y52443253D01*
X18051777Y52426777D01*
X18068253Y52408598D01*
X18082867Y52388893D01*
X18095480Y52367849D01*
X18105970Y52345671D01*
X18114235Y52322571D01*
X18120196Y52298773D01*
X18123796Y52274504D01*
X18125000Y52250000D01*
X18125000Y51750000D01*
X18123796Y51725496D01*
X18120196Y51701227D01*
X18114235Y51677429D01*
X18105970Y51654329D01*
X18095480Y51632151D01*
X18082867Y51611107D01*
X18068253Y51591402D01*
X18051777Y51573223D01*
X18033598Y51556747D01*
X18013893Y51542133D01*
X17992849Y51529520D01*
X17970671Y51519030D01*
X17947571Y51510765D01*
X17923773Y51504804D01*
X17899504Y51501204D01*
X17875000Y51500000D01*
X17125000Y51500000D01*
X17100496Y51501204D01*
X17076227Y51504804D01*
X17052429Y51510765D01*
X17029329Y51519030D01*
X17007151Y51529520D01*
X16986107Y51542133D01*
X16966402Y51556747D01*
X16948223Y51573223D01*
X16931747Y51591402D01*
X16917133Y51611107D01*
X16904520Y51632151D01*
X16894030Y51654329D01*
X16885765Y51677429D01*
X16879804Y51701227D01*
X16876204Y51725496D01*
X16875000Y51750000D01*
X16875000Y52250000D01*
X16876204Y52274504D01*
X16879804Y52298773D01*
X16885765Y52322571D01*
X16894030Y52345671D01*
X16904520Y52367849D01*
X16917133Y52388893D01*
X16931747Y52408598D01*
X16948223Y52426777D01*
X16966402Y52443253D01*
X16986107Y52457867D01*
X17007151Y52470480D01*
X17029329Y52480970D01*
X17052429Y52489235D01*
X17076227Y52495196D01*
X17100496Y52498796D01*
X17125000Y52500000D01*
X17875000Y52500000D01*
X17899504Y52498796D01*
G37*
G36*
X17899504Y50498796D02*
G01*
X17923773Y50495196D01*
X17947571Y50489235D01*
X17970671Y50480970D01*
X17992849Y50470480D01*
X18013893Y50457867D01*
X18033598Y50443253D01*
X18051777Y50426777D01*
X18068253Y50408598D01*
X18082867Y50388893D01*
X18095480Y50367849D01*
X18105970Y50345671D01*
X18114235Y50322571D01*
X18120196Y50298773D01*
X18123796Y50274504D01*
X18125000Y50250000D01*
X18125000Y49750000D01*
X18123796Y49725496D01*
X18120196Y49701227D01*
X18114235Y49677429D01*
X18105970Y49654329D01*
X18095480Y49632151D01*
X18082867Y49611107D01*
X18068253Y49591402D01*
X18051777Y49573223D01*
X18033598Y49556747D01*
X18013893Y49542133D01*
X17992849Y49529520D01*
X17970671Y49519030D01*
X17947571Y49510765D01*
X17923773Y49504804D01*
X17899504Y49501204D01*
X17875000Y49500000D01*
X17125000Y49500000D01*
X17100496Y49501204D01*
X17076227Y49504804D01*
X17052429Y49510765D01*
X17029329Y49519030D01*
X17007151Y49529520D01*
X16986107Y49542133D01*
X16966402Y49556747D01*
X16948223Y49573223D01*
X16931747Y49591402D01*
X16917133Y49611107D01*
X16904520Y49632151D01*
X16894030Y49654329D01*
X16885765Y49677429D01*
X16879804Y49701227D01*
X16876204Y49725496D01*
X16875000Y49750000D01*
X16875000Y50250000D01*
X16876204Y50274504D01*
X16879804Y50298773D01*
X16885765Y50322571D01*
X16894030Y50345671D01*
X16904520Y50367849D01*
X16917133Y50388893D01*
X16931747Y50408598D01*
X16948223Y50426777D01*
X16966402Y50443253D01*
X16986107Y50457867D01*
X17007151Y50470480D01*
X17029329Y50480970D01*
X17052429Y50489235D01*
X17076227Y50495196D01*
X17100496Y50498796D01*
X17125000Y50500000D01*
X17875000Y50500000D01*
X17899504Y50498796D01*
G37*
G36*
X5899504Y61248796D02*
G01*
X5923773Y61245196D01*
X5947571Y61239235D01*
X5970671Y61230970D01*
X5992849Y61220480D01*
X6013893Y61207867D01*
X6033598Y61193253D01*
X6051777Y61176777D01*
X6068253Y61158598D01*
X6082867Y61138893D01*
X6095480Y61117849D01*
X6105970Y61095671D01*
X6114235Y61072571D01*
X6120196Y61048773D01*
X6123796Y61024504D01*
X6125000Y61000000D01*
X6125000Y60500000D01*
X6123796Y60475496D01*
X6120196Y60451227D01*
X6114235Y60427429D01*
X6105970Y60404329D01*
X6095480Y60382151D01*
X6082867Y60361107D01*
X6068253Y60341402D01*
X6051777Y60323223D01*
X6033598Y60306747D01*
X6013893Y60292133D01*
X5992849Y60279520D01*
X5970671Y60269030D01*
X5947571Y60260765D01*
X5923773Y60254804D01*
X5899504Y60251204D01*
X5875000Y60250000D01*
X5125000Y60250000D01*
X5100496Y60251204D01*
X5076227Y60254804D01*
X5052429Y60260765D01*
X5029329Y60269030D01*
X5007151Y60279520D01*
X4986107Y60292133D01*
X4966402Y60306747D01*
X4948223Y60323223D01*
X4931747Y60341402D01*
X4917133Y60361107D01*
X4904520Y60382151D01*
X4894030Y60404329D01*
X4885765Y60427429D01*
X4879804Y60451227D01*
X4876204Y60475496D01*
X4875000Y60500000D01*
X4875000Y61000000D01*
X4876204Y61024504D01*
X4879804Y61048773D01*
X4885765Y61072571D01*
X4894030Y61095671D01*
X4904520Y61117849D01*
X4917133Y61138893D01*
X4931747Y61158598D01*
X4948223Y61176777D01*
X4966402Y61193253D01*
X4986107Y61207867D01*
X5007151Y61220480D01*
X5029329Y61230970D01*
X5052429Y61239235D01*
X5076227Y61245196D01*
X5100496Y61248796D01*
X5125000Y61250000D01*
X5875000Y61250000D01*
X5899504Y61248796D01*
G37*
G36*
X5899504Y63248796D02*
G01*
X5923773Y63245196D01*
X5947571Y63239235D01*
X5970671Y63230970D01*
X5992849Y63220480D01*
X6013893Y63207867D01*
X6033598Y63193253D01*
X6051777Y63176777D01*
X6068253Y63158598D01*
X6082867Y63138893D01*
X6095480Y63117849D01*
X6105970Y63095671D01*
X6114235Y63072571D01*
X6120196Y63048773D01*
X6123796Y63024504D01*
X6125000Y63000000D01*
X6125000Y62500000D01*
X6123796Y62475496D01*
X6120196Y62451227D01*
X6114235Y62427429D01*
X6105970Y62404329D01*
X6095480Y62382151D01*
X6082867Y62361107D01*
X6068253Y62341402D01*
X6051777Y62323223D01*
X6033598Y62306747D01*
X6013893Y62292133D01*
X5992849Y62279520D01*
X5970671Y62269030D01*
X5947571Y62260765D01*
X5923773Y62254804D01*
X5899504Y62251204D01*
X5875000Y62250000D01*
X5125000Y62250000D01*
X5100496Y62251204D01*
X5076227Y62254804D01*
X5052429Y62260765D01*
X5029329Y62269030D01*
X5007151Y62279520D01*
X4986107Y62292133D01*
X4966402Y62306747D01*
X4948223Y62323223D01*
X4931747Y62341402D01*
X4917133Y62361107D01*
X4904520Y62382151D01*
X4894030Y62404329D01*
X4885765Y62427429D01*
X4879804Y62451227D01*
X4876204Y62475496D01*
X4875000Y62500000D01*
X4875000Y63000000D01*
X4876204Y63024504D01*
X4879804Y63048773D01*
X4885765Y63072571D01*
X4894030Y63095671D01*
X4904520Y63117849D01*
X4917133Y63138893D01*
X4931747Y63158598D01*
X4948223Y63176777D01*
X4966402Y63193253D01*
X4986107Y63207867D01*
X5007151Y63220480D01*
X5029329Y63230970D01*
X5052429Y63239235D01*
X5076227Y63245196D01*
X5100496Y63248796D01*
X5125000Y63250000D01*
X5875000Y63250000D01*
X5899504Y63248796D01*
G37*
G36*
X14516958Y52044290D02*
G01*
X14531276Y52042166D01*
X14545317Y52038649D01*
X14558946Y52033772D01*
X14572031Y52027583D01*
X14584447Y52020142D01*
X14596073Y52011519D01*
X14606798Y52001798D01*
X14616519Y51991073D01*
X14625142Y51979447D01*
X14632583Y51967031D01*
X14638772Y51953946D01*
X14643649Y51940317D01*
X14647166Y51926276D01*
X14649290Y51911958D01*
X14650000Y51897500D01*
X14650000Y51602500D01*
X14649290Y51588042D01*
X14647166Y51573724D01*
X14643649Y51559683D01*
X14638772Y51546054D01*
X14632583Y51532969D01*
X14625142Y51520553D01*
X14616519Y51508927D01*
X14606798Y51498202D01*
X14596073Y51488481D01*
X14584447Y51479858D01*
X14572031Y51472417D01*
X14558946Y51466228D01*
X14545317Y51461351D01*
X14531276Y51457834D01*
X14516958Y51455710D01*
X14502500Y51455000D01*
X13997500Y51455000D01*
X13983042Y51455710D01*
X13968724Y51457834D01*
X13954683Y51461351D01*
X13941054Y51466228D01*
X13927969Y51472417D01*
X13915553Y51479858D01*
X13903927Y51488481D01*
X13893202Y51498202D01*
X13883481Y51508927D01*
X13874858Y51520553D01*
X13867417Y51532969D01*
X13861228Y51546054D01*
X13856351Y51559683D01*
X13852834Y51573724D01*
X13850710Y51588042D01*
X13850000Y51602500D01*
X13850000Y51897500D01*
X13850710Y51911958D01*
X13852834Y51926276D01*
X13856351Y51940317D01*
X13861228Y51953946D01*
X13867417Y51967031D01*
X13874858Y51979447D01*
X13883481Y51991073D01*
X13893202Y52001798D01*
X13903927Y52011519D01*
X13915553Y52020142D01*
X13927969Y52027583D01*
X13941054Y52033772D01*
X13954683Y52038649D01*
X13968724Y52042166D01*
X13983042Y52044290D01*
X13997500Y52045000D01*
X14502500Y52045000D01*
X14516958Y52044290D01*
G37*
G36*
X14516958Y50544290D02*
G01*
X14531276Y50542166D01*
X14545317Y50538649D01*
X14558946Y50533772D01*
X14572031Y50527583D01*
X14584447Y50520142D01*
X14596073Y50511519D01*
X14606798Y50501798D01*
X14616519Y50491073D01*
X14625142Y50479447D01*
X14632583Y50467031D01*
X14638772Y50453946D01*
X14643649Y50440317D01*
X14647166Y50426276D01*
X14649290Y50411958D01*
X14650000Y50397500D01*
X14650000Y50102500D01*
X14649290Y50088042D01*
X14647166Y50073724D01*
X14643649Y50059683D01*
X14638772Y50046054D01*
X14632583Y50032969D01*
X14625142Y50020553D01*
X14616519Y50008927D01*
X14606798Y49998202D01*
X14596073Y49988481D01*
X14584447Y49979858D01*
X14572031Y49972417D01*
X14558946Y49966228D01*
X14545317Y49961351D01*
X14531276Y49957834D01*
X14516958Y49955710D01*
X14502500Y49955000D01*
X13997500Y49955000D01*
X13983042Y49955710D01*
X13968724Y49957834D01*
X13954683Y49961351D01*
X13941054Y49966228D01*
X13927969Y49972417D01*
X13915553Y49979858D01*
X13903927Y49988481D01*
X13893202Y49998202D01*
X13883481Y50008927D01*
X13874858Y50020553D01*
X13867417Y50032969D01*
X13861228Y50046054D01*
X13856351Y50059683D01*
X13852834Y50073724D01*
X13850710Y50088042D01*
X13850000Y50102500D01*
X13850000Y50397500D01*
X13850710Y50411958D01*
X13852834Y50426276D01*
X13856351Y50440317D01*
X13861228Y50453946D01*
X13867417Y50467031D01*
X13874858Y50479447D01*
X13883481Y50491073D01*
X13893202Y50501798D01*
X13903927Y50511519D01*
X13915553Y50520142D01*
X13927969Y50527583D01*
X13941054Y50533772D01*
X13954683Y50538649D01*
X13968724Y50542166D01*
X13983042Y50544290D01*
X13997500Y50545000D01*
X14502500Y50545000D01*
X14516958Y50544290D01*
G37*
G36*
X23899504Y50498796D02*
G01*
X23923773Y50495196D01*
X23947571Y50489235D01*
X23970671Y50480970D01*
X23992849Y50470480D01*
X24013893Y50457867D01*
X24033598Y50443253D01*
X24051777Y50426777D01*
X24068253Y50408598D01*
X24082867Y50388893D01*
X24095480Y50367849D01*
X24105970Y50345671D01*
X24114235Y50322571D01*
X24120196Y50298773D01*
X24123796Y50274504D01*
X24125000Y50250000D01*
X24125000Y49750000D01*
X24123796Y49725496D01*
X24120196Y49701227D01*
X24114235Y49677429D01*
X24105970Y49654329D01*
X24095480Y49632151D01*
X24082867Y49611107D01*
X24068253Y49591402D01*
X24051777Y49573223D01*
X24033598Y49556747D01*
X24013893Y49542133D01*
X23992849Y49529520D01*
X23970671Y49519030D01*
X23947571Y49510765D01*
X23923773Y49504804D01*
X23899504Y49501204D01*
X23875000Y49500000D01*
X23125000Y49500000D01*
X23100496Y49501204D01*
X23076227Y49504804D01*
X23052429Y49510765D01*
X23029329Y49519030D01*
X23007151Y49529520D01*
X22986107Y49542133D01*
X22966402Y49556747D01*
X22948223Y49573223D01*
X22931747Y49591402D01*
X22917133Y49611107D01*
X22904520Y49632151D01*
X22894030Y49654329D01*
X22885765Y49677429D01*
X22879804Y49701227D01*
X22876204Y49725496D01*
X22875000Y49750000D01*
X22875000Y50250000D01*
X22876204Y50274504D01*
X22879804Y50298773D01*
X22885765Y50322571D01*
X22894030Y50345671D01*
X22904520Y50367849D01*
X22917133Y50388893D01*
X22931747Y50408598D01*
X22948223Y50426777D01*
X22966402Y50443253D01*
X22986107Y50457867D01*
X23007151Y50470480D01*
X23029329Y50480970D01*
X23052429Y50489235D01*
X23076227Y50495196D01*
X23100496Y50498796D01*
X23125000Y50500000D01*
X23875000Y50500000D01*
X23899504Y50498796D01*
G37*
G36*
X23899504Y52498796D02*
G01*
X23923773Y52495196D01*
X23947571Y52489235D01*
X23970671Y52480970D01*
X23992849Y52470480D01*
X24013893Y52457867D01*
X24033598Y52443253D01*
X24051777Y52426777D01*
X24068253Y52408598D01*
X24082867Y52388893D01*
X24095480Y52367849D01*
X24105970Y52345671D01*
X24114235Y52322571D01*
X24120196Y52298773D01*
X24123796Y52274504D01*
X24125000Y52250000D01*
X24125000Y51750000D01*
X24123796Y51725496D01*
X24120196Y51701227D01*
X24114235Y51677429D01*
X24105970Y51654329D01*
X24095480Y51632151D01*
X24082867Y51611107D01*
X24068253Y51591402D01*
X24051777Y51573223D01*
X24033598Y51556747D01*
X24013893Y51542133D01*
X23992849Y51529520D01*
X23970671Y51519030D01*
X23947571Y51510765D01*
X23923773Y51504804D01*
X23899504Y51501204D01*
X23875000Y51500000D01*
X23125000Y51500000D01*
X23100496Y51501204D01*
X23076227Y51504804D01*
X23052429Y51510765D01*
X23029329Y51519030D01*
X23007151Y51529520D01*
X22986107Y51542133D01*
X22966402Y51556747D01*
X22948223Y51573223D01*
X22931747Y51591402D01*
X22917133Y51611107D01*
X22904520Y51632151D01*
X22894030Y51654329D01*
X22885765Y51677429D01*
X22879804Y51701227D01*
X22876204Y51725496D01*
X22875000Y51750000D01*
X22875000Y52250000D01*
X22876204Y52274504D01*
X22879804Y52298773D01*
X22885765Y52322571D01*
X22894030Y52345671D01*
X22904520Y52367849D01*
X22917133Y52388893D01*
X22931747Y52408598D01*
X22948223Y52426777D01*
X22966402Y52443253D01*
X22986107Y52457867D01*
X23007151Y52470480D01*
X23029329Y52480970D01*
X23052429Y52489235D01*
X23076227Y52495196D01*
X23100496Y52498796D01*
X23125000Y52500000D01*
X23875000Y52500000D01*
X23899504Y52498796D01*
G37*
G36*
X8069703Y66549278D02*
G01*
X8084264Y66547118D01*
X8098543Y66543541D01*
X8112403Y66538582D01*
X8125710Y66532288D01*
X8138336Y66524720D01*
X8150159Y66515952D01*
X8161066Y66506066D01*
X8170952Y66495159D01*
X8179720Y66483336D01*
X8187288Y66470710D01*
X8193582Y66457403D01*
X8198541Y66443543D01*
X8202118Y66429264D01*
X8204278Y66414703D01*
X8205000Y66400000D01*
X8205000Y64700000D01*
X8204278Y64685297D01*
X8202118Y64670736D01*
X8198541Y64656457D01*
X8193582Y64642597D01*
X8187288Y64629290D01*
X8179720Y64616664D01*
X8170952Y64604841D01*
X8161066Y64593934D01*
X8150159Y64584048D01*
X8138336Y64575280D01*
X8125710Y64567712D01*
X8112403Y64561418D01*
X8098543Y64556459D01*
X8084264Y64552882D01*
X8069703Y64550722D01*
X8055000Y64550000D01*
X7755000Y64550000D01*
X7740297Y64550722D01*
X7725736Y64552882D01*
X7711457Y64556459D01*
X7697597Y64561418D01*
X7684290Y64567712D01*
X7671664Y64575280D01*
X7659841Y64584048D01*
X7648934Y64593934D01*
X7639048Y64604841D01*
X7630280Y64616664D01*
X7622712Y64629290D01*
X7616418Y64642597D01*
X7611459Y64656457D01*
X7607882Y64670736D01*
X7605722Y64685297D01*
X7605000Y64700000D01*
X7605000Y66400000D01*
X7605722Y66414703D01*
X7607882Y66429264D01*
X7611459Y66443543D01*
X7616418Y66457403D01*
X7622712Y66470710D01*
X7630280Y66483336D01*
X7639048Y66495159D01*
X7648934Y66506066D01*
X7659841Y66515952D01*
X7671664Y66524720D01*
X7684290Y66532288D01*
X7697597Y66538582D01*
X7711457Y66543541D01*
X7725736Y66547118D01*
X7740297Y66549278D01*
X7755000Y66550000D01*
X8055000Y66550000D01*
X8069703Y66549278D01*
G37*
G36*
X6799703Y66549278D02*
G01*
X6814264Y66547118D01*
X6828543Y66543541D01*
X6842403Y66538582D01*
X6855710Y66532288D01*
X6868336Y66524720D01*
X6880159Y66515952D01*
X6891066Y66506066D01*
X6900952Y66495159D01*
X6909720Y66483336D01*
X6917288Y66470710D01*
X6923582Y66457403D01*
X6928541Y66443543D01*
X6932118Y66429264D01*
X6934278Y66414703D01*
X6935000Y66400000D01*
X6935000Y64700000D01*
X6934278Y64685297D01*
X6932118Y64670736D01*
X6928541Y64656457D01*
X6923582Y64642597D01*
X6917288Y64629290D01*
X6909720Y64616664D01*
X6900952Y64604841D01*
X6891066Y64593934D01*
X6880159Y64584048D01*
X6868336Y64575280D01*
X6855710Y64567712D01*
X6842403Y64561418D01*
X6828543Y64556459D01*
X6814264Y64552882D01*
X6799703Y64550722D01*
X6785000Y64550000D01*
X6485000Y64550000D01*
X6470297Y64550722D01*
X6455736Y64552882D01*
X6441457Y64556459D01*
X6427597Y64561418D01*
X6414290Y64567712D01*
X6401664Y64575280D01*
X6389841Y64584048D01*
X6378934Y64593934D01*
X6369048Y64604841D01*
X6360280Y64616664D01*
X6352712Y64629290D01*
X6346418Y64642597D01*
X6341459Y64656457D01*
X6337882Y64670736D01*
X6335722Y64685297D01*
X6335000Y64700000D01*
X6335000Y66400000D01*
X6335722Y66414703D01*
X6337882Y66429264D01*
X6341459Y66443543D01*
X6346418Y66457403D01*
X6352712Y66470710D01*
X6360280Y66483336D01*
X6369048Y66495159D01*
X6378934Y66506066D01*
X6389841Y66515952D01*
X6401664Y66524720D01*
X6414290Y66532288D01*
X6427597Y66538582D01*
X6441457Y66543541D01*
X6455736Y66547118D01*
X6470297Y66549278D01*
X6485000Y66550000D01*
X6785000Y66550000D01*
X6799703Y66549278D01*
G37*
G36*
X5529703Y66549278D02*
G01*
X5544264Y66547118D01*
X5558543Y66543541D01*
X5572403Y66538582D01*
X5585710Y66532288D01*
X5598336Y66524720D01*
X5610159Y66515952D01*
X5621066Y66506066D01*
X5630952Y66495159D01*
X5639720Y66483336D01*
X5647288Y66470710D01*
X5653582Y66457403D01*
X5658541Y66443543D01*
X5662118Y66429264D01*
X5664278Y66414703D01*
X5665000Y66400000D01*
X5665000Y64700000D01*
X5664278Y64685297D01*
X5662118Y64670736D01*
X5658541Y64656457D01*
X5653582Y64642597D01*
X5647288Y64629290D01*
X5639720Y64616664D01*
X5630952Y64604841D01*
X5621066Y64593934D01*
X5610159Y64584048D01*
X5598336Y64575280D01*
X5585710Y64567712D01*
X5572403Y64561418D01*
X5558543Y64556459D01*
X5544264Y64552882D01*
X5529703Y64550722D01*
X5515000Y64550000D01*
X5215000Y64550000D01*
X5200297Y64550722D01*
X5185736Y64552882D01*
X5171457Y64556459D01*
X5157597Y64561418D01*
X5144290Y64567712D01*
X5131664Y64575280D01*
X5119841Y64584048D01*
X5108934Y64593934D01*
X5099048Y64604841D01*
X5090280Y64616664D01*
X5082712Y64629290D01*
X5076418Y64642597D01*
X5071459Y64656457D01*
X5067882Y64670736D01*
X5065722Y64685297D01*
X5065000Y64700000D01*
X5065000Y66400000D01*
X5065722Y66414703D01*
X5067882Y66429264D01*
X5071459Y66443543D01*
X5076418Y66457403D01*
X5082712Y66470710D01*
X5090280Y66483336D01*
X5099048Y66495159D01*
X5108934Y66506066D01*
X5119841Y66515952D01*
X5131664Y66524720D01*
X5144290Y66532288D01*
X5157597Y66538582D01*
X5171457Y66543541D01*
X5185736Y66547118D01*
X5200297Y66549278D01*
X5215000Y66550000D01*
X5515000Y66550000D01*
X5529703Y66549278D01*
G37*
G36*
X4259703Y66549278D02*
G01*
X4274264Y66547118D01*
X4288543Y66543541D01*
X4302403Y66538582D01*
X4315710Y66532288D01*
X4328336Y66524720D01*
X4340159Y66515952D01*
X4351066Y66506066D01*
X4360952Y66495159D01*
X4369720Y66483336D01*
X4377288Y66470710D01*
X4383582Y66457403D01*
X4388541Y66443543D01*
X4392118Y66429264D01*
X4394278Y66414703D01*
X4395000Y66400000D01*
X4395000Y64700000D01*
X4394278Y64685297D01*
X4392118Y64670736D01*
X4388541Y64656457D01*
X4383582Y64642597D01*
X4377288Y64629290D01*
X4369720Y64616664D01*
X4360952Y64604841D01*
X4351066Y64593934D01*
X4340159Y64584048D01*
X4328336Y64575280D01*
X4315710Y64567712D01*
X4302403Y64561418D01*
X4288543Y64556459D01*
X4274264Y64552882D01*
X4259703Y64550722D01*
X4245000Y64550000D01*
X3945000Y64550000D01*
X3930297Y64550722D01*
X3915736Y64552882D01*
X3901457Y64556459D01*
X3887597Y64561418D01*
X3874290Y64567712D01*
X3861664Y64575280D01*
X3849841Y64584048D01*
X3838934Y64593934D01*
X3829048Y64604841D01*
X3820280Y64616664D01*
X3812712Y64629290D01*
X3806418Y64642597D01*
X3801459Y64656457D01*
X3797882Y64670736D01*
X3795722Y64685297D01*
X3795000Y64700000D01*
X3795000Y66400000D01*
X3795722Y66414703D01*
X3797882Y66429264D01*
X3801459Y66443543D01*
X3806418Y66457403D01*
X3812712Y66470710D01*
X3820280Y66483336D01*
X3829048Y66495159D01*
X3838934Y66506066D01*
X3849841Y66515952D01*
X3861664Y66524720D01*
X3874290Y66532288D01*
X3887597Y66538582D01*
X3901457Y66543541D01*
X3915736Y66547118D01*
X3930297Y66549278D01*
X3945000Y66550000D01*
X4245000Y66550000D01*
X4259703Y66549278D01*
G37*
G36*
X4259703Y71449278D02*
G01*
X4274264Y71447118D01*
X4288543Y71443541D01*
X4302403Y71438582D01*
X4315710Y71432288D01*
X4328336Y71424720D01*
X4340159Y71415952D01*
X4351066Y71406066D01*
X4360952Y71395159D01*
X4369720Y71383336D01*
X4377288Y71370710D01*
X4383582Y71357403D01*
X4388541Y71343543D01*
X4392118Y71329264D01*
X4394278Y71314703D01*
X4395000Y71300000D01*
X4395000Y69600000D01*
X4394278Y69585297D01*
X4392118Y69570736D01*
X4388541Y69556457D01*
X4383582Y69542597D01*
X4377288Y69529290D01*
X4369720Y69516664D01*
X4360952Y69504841D01*
X4351066Y69493934D01*
X4340159Y69484048D01*
X4328336Y69475280D01*
X4315710Y69467712D01*
X4302403Y69461418D01*
X4288543Y69456459D01*
X4274264Y69452882D01*
X4259703Y69450722D01*
X4245000Y69450000D01*
X3945000Y69450000D01*
X3930297Y69450722D01*
X3915736Y69452882D01*
X3901457Y69456459D01*
X3887597Y69461418D01*
X3874290Y69467712D01*
X3861664Y69475280D01*
X3849841Y69484048D01*
X3838934Y69493934D01*
X3829048Y69504841D01*
X3820280Y69516664D01*
X3812712Y69529290D01*
X3806418Y69542597D01*
X3801459Y69556457D01*
X3797882Y69570736D01*
X3795722Y69585297D01*
X3795000Y69600000D01*
X3795000Y71300000D01*
X3795722Y71314703D01*
X3797882Y71329264D01*
X3801459Y71343543D01*
X3806418Y71357403D01*
X3812712Y71370710D01*
X3820280Y71383336D01*
X3829048Y71395159D01*
X3838934Y71406066D01*
X3849841Y71415952D01*
X3861664Y71424720D01*
X3874290Y71432288D01*
X3887597Y71438582D01*
X3901457Y71443541D01*
X3915736Y71447118D01*
X3930297Y71449278D01*
X3945000Y71450000D01*
X4245000Y71450000D01*
X4259703Y71449278D01*
G37*
G36*
X6799703Y71449278D02*
G01*
X6814264Y71447118D01*
X6828543Y71443541D01*
X6842403Y71438582D01*
X6855710Y71432288D01*
X6868336Y71424720D01*
X6880159Y71415952D01*
X6891066Y71406066D01*
X6900952Y71395159D01*
X6909720Y71383336D01*
X6917288Y71370710D01*
X6923582Y71357403D01*
X6928541Y71343543D01*
X6932118Y71329264D01*
X6934278Y71314703D01*
X6935000Y71300000D01*
X6935000Y69600000D01*
X6934278Y69585297D01*
X6932118Y69570736D01*
X6928541Y69556457D01*
X6923582Y69542597D01*
X6917288Y69529290D01*
X6909720Y69516664D01*
X6900952Y69504841D01*
X6891066Y69493934D01*
X6880159Y69484048D01*
X6868336Y69475280D01*
X6855710Y69467712D01*
X6842403Y69461418D01*
X6828543Y69456459D01*
X6814264Y69452882D01*
X6799703Y69450722D01*
X6785000Y69450000D01*
X6485000Y69450000D01*
X6470297Y69450722D01*
X6455736Y69452882D01*
X6441457Y69456459D01*
X6427597Y69461418D01*
X6414290Y69467712D01*
X6401664Y69475280D01*
X6389841Y69484048D01*
X6378934Y69493934D01*
X6369048Y69504841D01*
X6360280Y69516664D01*
X6352712Y69529290D01*
X6346418Y69542597D01*
X6341459Y69556457D01*
X6337882Y69570736D01*
X6335722Y69585297D01*
X6335000Y69600000D01*
X6335000Y71300000D01*
X6335722Y71314703D01*
X6337882Y71329264D01*
X6341459Y71343543D01*
X6346418Y71357403D01*
X6352712Y71370710D01*
X6360280Y71383336D01*
X6369048Y71395159D01*
X6378934Y71406066D01*
X6389841Y71415952D01*
X6401664Y71424720D01*
X6414290Y71432288D01*
X6427597Y71438582D01*
X6441457Y71443541D01*
X6455736Y71447118D01*
X6470297Y71449278D01*
X6485000Y71450000D01*
X6785000Y71450000D01*
X6799703Y71449278D01*
G37*
G36*
X8069703Y71449278D02*
G01*
X8084264Y71447118D01*
X8098543Y71443541D01*
X8112403Y71438582D01*
X8125710Y71432288D01*
X8138336Y71424720D01*
X8150159Y71415952D01*
X8161066Y71406066D01*
X8170952Y71395159D01*
X8179720Y71383336D01*
X8187288Y71370710D01*
X8193582Y71357403D01*
X8198541Y71343543D01*
X8202118Y71329264D01*
X8204278Y71314703D01*
X8205000Y71300000D01*
X8205000Y69600000D01*
X8204278Y69585297D01*
X8202118Y69570736D01*
X8198541Y69556457D01*
X8193582Y69542597D01*
X8187288Y69529290D01*
X8179720Y69516664D01*
X8170952Y69504841D01*
X8161066Y69493934D01*
X8150159Y69484048D01*
X8138336Y69475280D01*
X8125710Y69467712D01*
X8112403Y69461418D01*
X8098543Y69456459D01*
X8084264Y69452882D01*
X8069703Y69450722D01*
X8055000Y69450000D01*
X7755000Y69450000D01*
X7740297Y69450722D01*
X7725736Y69452882D01*
X7711457Y69456459D01*
X7697597Y69461418D01*
X7684290Y69467712D01*
X7671664Y69475280D01*
X7659841Y69484048D01*
X7648934Y69493934D01*
X7639048Y69504841D01*
X7630280Y69516664D01*
X7622712Y69529290D01*
X7616418Y69542597D01*
X7611459Y69556457D01*
X7607882Y69570736D01*
X7605722Y69585297D01*
X7605000Y69600000D01*
X7605000Y71300000D01*
X7605722Y71314703D01*
X7607882Y71329264D01*
X7611459Y71343543D01*
X7616418Y71357403D01*
X7622712Y71370710D01*
X7630280Y71383336D01*
X7639048Y71395159D01*
X7648934Y71406066D01*
X7659841Y71415952D01*
X7671664Y71424720D01*
X7684290Y71432288D01*
X7697597Y71438582D01*
X7711457Y71443541D01*
X7725736Y71447118D01*
X7740297Y71449278D01*
X7755000Y71450000D01*
X8055000Y71450000D01*
X8069703Y71449278D01*
G37*
G36*
X24274504Y66123796D02*
G01*
X24298773Y66120196D01*
X24322571Y66114235D01*
X24345671Y66105970D01*
X24367849Y66095480D01*
X24388893Y66082867D01*
X24408598Y66068253D01*
X24426777Y66051777D01*
X24443253Y66033598D01*
X24457867Y66013893D01*
X24470480Y65992849D01*
X24480970Y65970671D01*
X24489235Y65947571D01*
X24495196Y65923773D01*
X24498796Y65899504D01*
X24500000Y65875000D01*
X24500000Y65125000D01*
X24498796Y65100496D01*
X24495196Y65076227D01*
X24489235Y65052429D01*
X24480970Y65029329D01*
X24470480Y65007151D01*
X24457867Y64986107D01*
X24443253Y64966402D01*
X24426777Y64948223D01*
X24408598Y64931747D01*
X24388893Y64917133D01*
X24367849Y64904520D01*
X24345671Y64894030D01*
X24322571Y64885765D01*
X24298773Y64879804D01*
X24274504Y64876204D01*
X24250000Y64875000D01*
X23750000Y64875000D01*
X23725496Y64876204D01*
X23701227Y64879804D01*
X23677429Y64885765D01*
X23654329Y64894030D01*
X23632151Y64904520D01*
X23611107Y64917133D01*
X23591402Y64931747D01*
X23573223Y64948223D01*
X23556747Y64966402D01*
X23542133Y64986107D01*
X23529520Y65007151D01*
X23519030Y65029329D01*
X23510765Y65052429D01*
X23504804Y65076227D01*
X23501204Y65100496D01*
X23500000Y65125000D01*
X23500000Y65875000D01*
X23501204Y65899504D01*
X23504804Y65923773D01*
X23510765Y65947571D01*
X23519030Y65970671D01*
X23529520Y65992849D01*
X23542133Y66013893D01*
X23556747Y66033598D01*
X23573223Y66051777D01*
X23591402Y66068253D01*
X23611107Y66082867D01*
X23632151Y66095480D01*
X23654329Y66105970D01*
X23677429Y66114235D01*
X23701227Y66120196D01*
X23725496Y66123796D01*
X23750000Y66125000D01*
X24250000Y66125000D01*
X24274504Y66123796D01*
G37*
G36*
X22274504Y66123796D02*
G01*
X22298773Y66120196D01*
X22322571Y66114235D01*
X22345671Y66105970D01*
X22367849Y66095480D01*
X22388893Y66082867D01*
X22408598Y66068253D01*
X22426777Y66051777D01*
X22443253Y66033598D01*
X22457867Y66013893D01*
X22470480Y65992849D01*
X22480970Y65970671D01*
X22489235Y65947571D01*
X22495196Y65923773D01*
X22498796Y65899504D01*
X22500000Y65875000D01*
X22500000Y65125000D01*
X22498796Y65100496D01*
X22495196Y65076227D01*
X22489235Y65052429D01*
X22480970Y65029329D01*
X22470480Y65007151D01*
X22457867Y64986107D01*
X22443253Y64966402D01*
X22426777Y64948223D01*
X22408598Y64931747D01*
X22388893Y64917133D01*
X22367849Y64904520D01*
X22345671Y64894030D01*
X22322571Y64885765D01*
X22298773Y64879804D01*
X22274504Y64876204D01*
X22250000Y64875000D01*
X21750000Y64875000D01*
X21725496Y64876204D01*
X21701227Y64879804D01*
X21677429Y64885765D01*
X21654329Y64894030D01*
X21632151Y64904520D01*
X21611107Y64917133D01*
X21591402Y64931747D01*
X21573223Y64948223D01*
X21556747Y64966402D01*
X21542133Y64986107D01*
X21529520Y65007151D01*
X21519030Y65029329D01*
X21510765Y65052429D01*
X21504804Y65076227D01*
X21501204Y65100496D01*
X21500000Y65125000D01*
X21500000Y65875000D01*
X21501204Y65899504D01*
X21504804Y65923773D01*
X21510765Y65947571D01*
X21519030Y65970671D01*
X21529520Y65992849D01*
X21542133Y66013893D01*
X21556747Y66033598D01*
X21573223Y66051777D01*
X21591402Y66068253D01*
X21611107Y66082867D01*
X21632151Y66095480D01*
X21654329Y66105970D01*
X21677429Y66114235D01*
X21701227Y66120196D01*
X21725496Y66123796D01*
X21750000Y66125000D01*
X22250000Y66125000D01*
X22274504Y66123796D01*
G37*
G36*
X35149504Y59498796D02*
G01*
X35173773Y59495196D01*
X35197571Y59489235D01*
X35220671Y59480970D01*
X35242849Y59470480D01*
X35263893Y59457867D01*
X35283598Y59443253D01*
X35301777Y59426777D01*
X35318253Y59408598D01*
X35332867Y59388893D01*
X35345480Y59367849D01*
X35355970Y59345671D01*
X35364235Y59322571D01*
X35370196Y59298773D01*
X35373796Y59274504D01*
X35375000Y59250000D01*
X35375000Y58750000D01*
X35373796Y58725496D01*
X35370196Y58701227D01*
X35364235Y58677429D01*
X35355970Y58654329D01*
X35345480Y58632151D01*
X35332867Y58611107D01*
X35318253Y58591402D01*
X35301777Y58573223D01*
X35283598Y58556747D01*
X35263893Y58542133D01*
X35242849Y58529520D01*
X35220671Y58519030D01*
X35197571Y58510765D01*
X35173773Y58504804D01*
X35149504Y58501204D01*
X35125000Y58500000D01*
X34375000Y58500000D01*
X34350496Y58501204D01*
X34326227Y58504804D01*
X34302429Y58510765D01*
X34279329Y58519030D01*
X34257151Y58529520D01*
X34236107Y58542133D01*
X34216402Y58556747D01*
X34198223Y58573223D01*
X34181747Y58591402D01*
X34167133Y58611107D01*
X34154520Y58632151D01*
X34144030Y58654329D01*
X34135765Y58677429D01*
X34129804Y58701227D01*
X34126204Y58725496D01*
X34125000Y58750000D01*
X34125000Y59250000D01*
X34126204Y59274504D01*
X34129804Y59298773D01*
X34135765Y59322571D01*
X34144030Y59345671D01*
X34154520Y59367849D01*
X34167133Y59388893D01*
X34181747Y59408598D01*
X34198223Y59426777D01*
X34216402Y59443253D01*
X34236107Y59457867D01*
X34257151Y59470480D01*
X34279329Y59480970D01*
X34302429Y59489235D01*
X34326227Y59495196D01*
X34350496Y59498796D01*
X34375000Y59500000D01*
X35125000Y59500000D01*
X35149504Y59498796D01*
G37*
G36*
X35149504Y61498796D02*
G01*
X35173773Y61495196D01*
X35197571Y61489235D01*
X35220671Y61480970D01*
X35242849Y61470480D01*
X35263893Y61457867D01*
X35283598Y61443253D01*
X35301777Y61426777D01*
X35318253Y61408598D01*
X35332867Y61388893D01*
X35345480Y61367849D01*
X35355970Y61345671D01*
X35364235Y61322571D01*
X35370196Y61298773D01*
X35373796Y61274504D01*
X35375000Y61250000D01*
X35375000Y60750000D01*
X35373796Y60725496D01*
X35370196Y60701227D01*
X35364235Y60677429D01*
X35355970Y60654329D01*
X35345480Y60632151D01*
X35332867Y60611107D01*
X35318253Y60591402D01*
X35301777Y60573223D01*
X35283598Y60556747D01*
X35263893Y60542133D01*
X35242849Y60529520D01*
X35220671Y60519030D01*
X35197571Y60510765D01*
X35173773Y60504804D01*
X35149504Y60501204D01*
X35125000Y60500000D01*
X34375000Y60500000D01*
X34350496Y60501204D01*
X34326227Y60504804D01*
X34302429Y60510765D01*
X34279329Y60519030D01*
X34257151Y60529520D01*
X34236107Y60542133D01*
X34216402Y60556747D01*
X34198223Y60573223D01*
X34181747Y60591402D01*
X34167133Y60611107D01*
X34154520Y60632151D01*
X34144030Y60654329D01*
X34135765Y60677429D01*
X34129804Y60701227D01*
X34126204Y60725496D01*
X34125000Y60750000D01*
X34125000Y61250000D01*
X34126204Y61274504D01*
X34129804Y61298773D01*
X34135765Y61322571D01*
X34144030Y61345671D01*
X34154520Y61367849D01*
X34167133Y61388893D01*
X34181747Y61408598D01*
X34198223Y61426777D01*
X34216402Y61443253D01*
X34236107Y61457867D01*
X34257151Y61470480D01*
X34279329Y61480970D01*
X34302429Y61489235D01*
X34326227Y61495196D01*
X34350496Y61498796D01*
X34375000Y61500000D01*
X35125000Y61500000D01*
X35149504Y61498796D01*
G37*
G36*
X21899504Y50498796D02*
G01*
X21923773Y50495196D01*
X21947571Y50489235D01*
X21970671Y50480970D01*
X21992849Y50470480D01*
X22013893Y50457867D01*
X22033598Y50443253D01*
X22051777Y50426777D01*
X22068253Y50408598D01*
X22082867Y50388893D01*
X22095480Y50367849D01*
X22105970Y50345671D01*
X22114235Y50322571D01*
X22120196Y50298773D01*
X22123796Y50274504D01*
X22125000Y50250000D01*
X22125000Y49750000D01*
X22123796Y49725496D01*
X22120196Y49701227D01*
X22114235Y49677429D01*
X22105970Y49654329D01*
X22095480Y49632151D01*
X22082867Y49611107D01*
X22068253Y49591402D01*
X22051777Y49573223D01*
X22033598Y49556747D01*
X22013893Y49542133D01*
X21992849Y49529520D01*
X21970671Y49519030D01*
X21947571Y49510765D01*
X21923773Y49504804D01*
X21899504Y49501204D01*
X21875000Y49500000D01*
X21125000Y49500000D01*
X21100496Y49501204D01*
X21076227Y49504804D01*
X21052429Y49510765D01*
X21029329Y49519030D01*
X21007151Y49529520D01*
X20986107Y49542133D01*
X20966402Y49556747D01*
X20948223Y49573223D01*
X20931747Y49591402D01*
X20917133Y49611107D01*
X20904520Y49632151D01*
X20894030Y49654329D01*
X20885765Y49677429D01*
X20879804Y49701227D01*
X20876204Y49725496D01*
X20875000Y49750000D01*
X20875000Y50250000D01*
X20876204Y50274504D01*
X20879804Y50298773D01*
X20885765Y50322571D01*
X20894030Y50345671D01*
X20904520Y50367849D01*
X20917133Y50388893D01*
X20931747Y50408598D01*
X20948223Y50426777D01*
X20966402Y50443253D01*
X20986107Y50457867D01*
X21007151Y50470480D01*
X21029329Y50480970D01*
X21052429Y50489235D01*
X21076227Y50495196D01*
X21100496Y50498796D01*
X21125000Y50500000D01*
X21875000Y50500000D01*
X21899504Y50498796D01*
G37*
G36*
X21899504Y52498796D02*
G01*
X21923773Y52495196D01*
X21947571Y52489235D01*
X21970671Y52480970D01*
X21992849Y52470480D01*
X22013893Y52457867D01*
X22033598Y52443253D01*
X22051777Y52426777D01*
X22068253Y52408598D01*
X22082867Y52388893D01*
X22095480Y52367849D01*
X22105970Y52345671D01*
X22114235Y52322571D01*
X22120196Y52298773D01*
X22123796Y52274504D01*
X22125000Y52250000D01*
X22125000Y51750000D01*
X22123796Y51725496D01*
X22120196Y51701227D01*
X22114235Y51677429D01*
X22105970Y51654329D01*
X22095480Y51632151D01*
X22082867Y51611107D01*
X22068253Y51591402D01*
X22051777Y51573223D01*
X22033598Y51556747D01*
X22013893Y51542133D01*
X21992849Y51529520D01*
X21970671Y51519030D01*
X21947571Y51510765D01*
X21923773Y51504804D01*
X21899504Y51501204D01*
X21875000Y51500000D01*
X21125000Y51500000D01*
X21100496Y51501204D01*
X21076227Y51504804D01*
X21052429Y51510765D01*
X21029329Y51519030D01*
X21007151Y51529520D01*
X20986107Y51542133D01*
X20966402Y51556747D01*
X20948223Y51573223D01*
X20931747Y51591402D01*
X20917133Y51611107D01*
X20904520Y51632151D01*
X20894030Y51654329D01*
X20885765Y51677429D01*
X20879804Y51701227D01*
X20876204Y51725496D01*
X20875000Y51750000D01*
X20875000Y52250000D01*
X20876204Y52274504D01*
X20879804Y52298773D01*
X20885765Y52322571D01*
X20894030Y52345671D01*
X20904520Y52367849D01*
X20917133Y52388893D01*
X20931747Y52408598D01*
X20948223Y52426777D01*
X20966402Y52443253D01*
X20986107Y52457867D01*
X21007151Y52470480D01*
X21029329Y52480970D01*
X21052429Y52489235D01*
X21076227Y52495196D01*
X21100496Y52498796D01*
X21125000Y52500000D01*
X21875000Y52500000D01*
X21899504Y52498796D01*
G37*
G36*
X48524504Y59623796D02*
G01*
X48548773Y59620196D01*
X48572571Y59614235D01*
X48595671Y59605970D01*
X48617849Y59595480D01*
X48638893Y59582867D01*
X48658598Y59568253D01*
X48676777Y59551777D01*
X48693253Y59533598D01*
X48707867Y59513893D01*
X48720480Y59492849D01*
X48730970Y59470671D01*
X48739235Y59447571D01*
X48745196Y59423773D01*
X48748796Y59399504D01*
X48750000Y59375000D01*
X48750000Y58625000D01*
X48748796Y58600496D01*
X48745196Y58576227D01*
X48739235Y58552429D01*
X48730970Y58529329D01*
X48720480Y58507151D01*
X48707867Y58486107D01*
X48693253Y58466402D01*
X48676777Y58448223D01*
X48658598Y58431747D01*
X48638893Y58417133D01*
X48617849Y58404520D01*
X48595671Y58394030D01*
X48572571Y58385765D01*
X48548773Y58379804D01*
X48524504Y58376204D01*
X48500000Y58375000D01*
X48000000Y58375000D01*
X47975496Y58376204D01*
X47951227Y58379804D01*
X47927429Y58385765D01*
X47904329Y58394030D01*
X47882151Y58404520D01*
X47861107Y58417133D01*
X47841402Y58431747D01*
X47823223Y58448223D01*
X47806747Y58466402D01*
X47792133Y58486107D01*
X47779520Y58507151D01*
X47769030Y58529329D01*
X47760765Y58552429D01*
X47754804Y58576227D01*
X47751204Y58600496D01*
X47750000Y58625000D01*
X47750000Y59375000D01*
X47751204Y59399504D01*
X47754804Y59423773D01*
X47760765Y59447571D01*
X47769030Y59470671D01*
X47779520Y59492849D01*
X47792133Y59513893D01*
X47806747Y59533598D01*
X47823223Y59551777D01*
X47841402Y59568253D01*
X47861107Y59582867D01*
X47882151Y59595480D01*
X47904329Y59605970D01*
X47927429Y59614235D01*
X47951227Y59620196D01*
X47975496Y59623796D01*
X48000000Y59625000D01*
X48500000Y59625000D01*
X48524504Y59623796D01*
G37*
G36*
X50524504Y59623796D02*
G01*
X50548773Y59620196D01*
X50572571Y59614235D01*
X50595671Y59605970D01*
X50617849Y59595480D01*
X50638893Y59582867D01*
X50658598Y59568253D01*
X50676777Y59551777D01*
X50693253Y59533598D01*
X50707867Y59513893D01*
X50720480Y59492849D01*
X50730970Y59470671D01*
X50739235Y59447571D01*
X50745196Y59423773D01*
X50748796Y59399504D01*
X50750000Y59375000D01*
X50750000Y58625000D01*
X50748796Y58600496D01*
X50745196Y58576227D01*
X50739235Y58552429D01*
X50730970Y58529329D01*
X50720480Y58507151D01*
X50707867Y58486107D01*
X50693253Y58466402D01*
X50676777Y58448223D01*
X50658598Y58431747D01*
X50638893Y58417133D01*
X50617849Y58404520D01*
X50595671Y58394030D01*
X50572571Y58385765D01*
X50548773Y58379804D01*
X50524504Y58376204D01*
X50500000Y58375000D01*
X50000000Y58375000D01*
X49975496Y58376204D01*
X49951227Y58379804D01*
X49927429Y58385765D01*
X49904329Y58394030D01*
X49882151Y58404520D01*
X49861107Y58417133D01*
X49841402Y58431747D01*
X49823223Y58448223D01*
X49806747Y58466402D01*
X49792133Y58486107D01*
X49779520Y58507151D01*
X49769030Y58529329D01*
X49760765Y58552429D01*
X49754804Y58576227D01*
X49751204Y58600496D01*
X49750000Y58625000D01*
X49750000Y59375000D01*
X49751204Y59399504D01*
X49754804Y59423773D01*
X49760765Y59447571D01*
X49769030Y59470671D01*
X49779520Y59492849D01*
X49792133Y59513893D01*
X49806747Y59533598D01*
X49823223Y59551777D01*
X49841402Y59568253D01*
X49861107Y59582867D01*
X49882151Y59595480D01*
X49904329Y59605970D01*
X49927429Y59614235D01*
X49951227Y59620196D01*
X49975496Y59623796D01*
X50000000Y59625000D01*
X50500000Y59625000D01*
X50524504Y59623796D01*
G37*
G36*
X8363503Y57733490D02*
G01*
X8405973Y57727191D01*
X8447621Y57716758D01*
X8488045Y57702294D01*
X8526857Y57683938D01*
X8563683Y57661865D01*
X8598168Y57636289D01*
X8629980Y57607456D01*
X9779028Y56458408D01*
X9807861Y56426596D01*
X9833437Y56392111D01*
X9855510Y56355285D01*
X9873866Y56316473D01*
X9888330Y56276049D01*
X9898763Y56234401D01*
X9905062Y56191931D01*
X9907169Y56149049D01*
X9905062Y56106167D01*
X9898763Y56063697D01*
X9888330Y56022049D01*
X9873866Y55981625D01*
X9855510Y55942813D01*
X9833437Y55905987D01*
X9807861Y55871502D01*
X9779028Y55839690D01*
X9160310Y55220972D01*
X9128498Y55192139D01*
X9094013Y55166563D01*
X9057187Y55144490D01*
X9018375Y55126134D01*
X8977951Y55111670D01*
X8936303Y55101237D01*
X8893833Y55094938D01*
X8850951Y55092831D01*
X8808069Y55094938D01*
X8765599Y55101237D01*
X8723951Y55111670D01*
X8683527Y55126134D01*
X8644715Y55144490D01*
X8607889Y55166563D01*
X8573404Y55192139D01*
X8541592Y55220972D01*
X7392544Y56370020D01*
X7363711Y56401832D01*
X7338135Y56436317D01*
X7316062Y56473143D01*
X7297706Y56511955D01*
X7283242Y56552379D01*
X7272809Y56594027D01*
X7266510Y56636497D01*
X7264403Y56679379D01*
X7266510Y56722261D01*
X7272809Y56764731D01*
X7283242Y56806379D01*
X7297706Y56846803D01*
X7316062Y56885615D01*
X7338135Y56922441D01*
X7363711Y56956926D01*
X7392544Y56988738D01*
X8011262Y57607456D01*
X8043074Y57636289D01*
X8077559Y57661865D01*
X8114385Y57683938D01*
X8153197Y57702294D01*
X8193621Y57716758D01*
X8235269Y57727191D01*
X8277739Y57733490D01*
X8320621Y57735597D01*
X8363503Y57733490D01*
G37*
G36*
X11191931Y54905062D02*
G01*
X11234401Y54898763D01*
X11276049Y54888330D01*
X11316473Y54873866D01*
X11355285Y54855510D01*
X11392111Y54833437D01*
X11426596Y54807861D01*
X11458408Y54779028D01*
X12607456Y53629980D01*
X12636289Y53598168D01*
X12661865Y53563683D01*
X12683938Y53526857D01*
X12702294Y53488045D01*
X12716758Y53447621D01*
X12727191Y53405973D01*
X12733490Y53363503D01*
X12735597Y53320621D01*
X12733490Y53277739D01*
X12727191Y53235269D01*
X12716758Y53193621D01*
X12702294Y53153197D01*
X12683938Y53114385D01*
X12661865Y53077559D01*
X12636289Y53043074D01*
X12607456Y53011262D01*
X11988738Y52392544D01*
X11956926Y52363711D01*
X11922441Y52338135D01*
X11885615Y52316062D01*
X11846803Y52297706D01*
X11806379Y52283242D01*
X11764731Y52272809D01*
X11722261Y52266510D01*
X11679379Y52264403D01*
X11636497Y52266510D01*
X11594027Y52272809D01*
X11552379Y52283242D01*
X11511955Y52297706D01*
X11473143Y52316062D01*
X11436317Y52338135D01*
X11401832Y52363711D01*
X11370020Y52392544D01*
X10220972Y53541592D01*
X10192139Y53573404D01*
X10166563Y53607889D01*
X10144490Y53644715D01*
X10126134Y53683527D01*
X10111670Y53723951D01*
X10101237Y53765599D01*
X10094938Y53808069D01*
X10092831Y53850951D01*
X10094938Y53893833D01*
X10101237Y53936303D01*
X10111670Y53977951D01*
X10126134Y54018375D01*
X10144490Y54057187D01*
X10166563Y54094013D01*
X10192139Y54128498D01*
X10220972Y54160310D01*
X10839690Y54779028D01*
X10871502Y54807861D01*
X10905987Y54833437D01*
X10942813Y54855510D01*
X10981625Y54873866D01*
X11022049Y54888330D01*
X11063697Y54898763D01*
X11106167Y54905062D01*
X11149049Y54907169D01*
X11191931Y54905062D01*
G37*
G36*
X20355382Y66372893D02*
G01*
X20397852Y66366594D01*
X20439500Y66356161D01*
X20479924Y66341697D01*
X20518736Y66323341D01*
X20555562Y66301268D01*
X20590047Y66275692D01*
X20621859Y66246859D01*
X20650692Y66215047D01*
X20676268Y66180562D01*
X20698341Y66143736D01*
X20716697Y66104924D01*
X20731161Y66064500D01*
X20741594Y66022852D01*
X20747893Y65980382D01*
X20750000Y65937500D01*
X20750000Y65062500D01*
X20747893Y65019618D01*
X20741594Y64977148D01*
X20731161Y64935500D01*
X20716697Y64895076D01*
X20698341Y64856264D01*
X20676268Y64819438D01*
X20650692Y64784953D01*
X20621859Y64753141D01*
X20590047Y64724308D01*
X20555562Y64698732D01*
X20518736Y64676659D01*
X20479924Y64658303D01*
X20439500Y64643839D01*
X20397852Y64633406D01*
X20355382Y64627107D01*
X20312500Y64625000D01*
X18687500Y64625000D01*
X18644618Y64627107D01*
X18602148Y64633406D01*
X18560500Y64643839D01*
X18520076Y64658303D01*
X18481264Y64676659D01*
X18444438Y64698732D01*
X18409953Y64724308D01*
X18378141Y64753141D01*
X18349308Y64784953D01*
X18323732Y64819438D01*
X18301659Y64856264D01*
X18283303Y64895076D01*
X18268839Y64935500D01*
X18258406Y64977148D01*
X18252107Y65019618D01*
X18250000Y65062500D01*
X18250000Y65937500D01*
X18252107Y65980382D01*
X18258406Y66022852D01*
X18268839Y66064500D01*
X18283303Y66104924D01*
X18301659Y66143736D01*
X18323732Y66180562D01*
X18349308Y66215047D01*
X18378141Y66246859D01*
X18409953Y66275692D01*
X18444438Y66301268D01*
X18481264Y66323341D01*
X18520076Y66341697D01*
X18560500Y66356161D01*
X18602148Y66366594D01*
X18644618Y66372893D01*
X18687500Y66375000D01*
X20312500Y66375000D01*
X20355382Y66372893D01*
G37*
G36*
X16355382Y66372893D02*
G01*
X16397852Y66366594D01*
X16439500Y66356161D01*
X16479924Y66341697D01*
X16518736Y66323341D01*
X16555562Y66301268D01*
X16590047Y66275692D01*
X16621859Y66246859D01*
X16650692Y66215047D01*
X16676268Y66180562D01*
X16698341Y66143736D01*
X16716697Y66104924D01*
X16731161Y66064500D01*
X16741594Y66022852D01*
X16747893Y65980382D01*
X16750000Y65937500D01*
X16750000Y65062500D01*
X16747893Y65019618D01*
X16741594Y64977148D01*
X16731161Y64935500D01*
X16716697Y64895076D01*
X16698341Y64856264D01*
X16676268Y64819438D01*
X16650692Y64784953D01*
X16621859Y64753141D01*
X16590047Y64724308D01*
X16555562Y64698732D01*
X16518736Y64676659D01*
X16479924Y64658303D01*
X16439500Y64643839D01*
X16397852Y64633406D01*
X16355382Y64627107D01*
X16312500Y64625000D01*
X14687500Y64625000D01*
X14644618Y64627107D01*
X14602148Y64633406D01*
X14560500Y64643839D01*
X14520076Y64658303D01*
X14481264Y64676659D01*
X14444438Y64698732D01*
X14409953Y64724308D01*
X14378141Y64753141D01*
X14349308Y64784953D01*
X14323732Y64819438D01*
X14301659Y64856264D01*
X14283303Y64895076D01*
X14268839Y64935500D01*
X14258406Y64977148D01*
X14252107Y65019618D01*
X14250000Y65062500D01*
X14250000Y65937500D01*
X14252107Y65980382D01*
X14258406Y66022852D01*
X14268839Y66064500D01*
X14283303Y66104924D01*
X14301659Y66143736D01*
X14323732Y66180562D01*
X14349308Y66215047D01*
X14378141Y66246859D01*
X14409953Y66275692D01*
X14444438Y66301268D01*
X14481264Y66323341D01*
X14520076Y66341697D01*
X14560500Y66356161D01*
X14602148Y66366594D01*
X14644618Y66372893D01*
X14687500Y66375000D01*
X16312500Y66375000D01*
X16355382Y66372893D01*
G37*
G36*
X19283435Y56971755D02*
G01*
X19351386Y56961676D01*
X19418022Y56944984D01*
X19482701Y56921842D01*
X19544801Y56892471D01*
X19603722Y56857155D01*
X19658898Y56816233D01*
X19709798Y56770101D01*
X20841169Y55638730D01*
X20887301Y55587830D01*
X20928223Y55532654D01*
X20963539Y55473733D01*
X20992910Y55411633D01*
X21016052Y55346954D01*
X21032744Y55280318D01*
X21042823Y55212367D01*
X21046194Y55143755D01*
X21042823Y55075143D01*
X21032744Y55007192D01*
X21016052Y54940556D01*
X20992910Y54875877D01*
X20963539Y54813777D01*
X20928223Y54754856D01*
X20887301Y54699680D01*
X20841169Y54648780D01*
X19851220Y53658831D01*
X19800320Y53612699D01*
X19745144Y53571777D01*
X19686223Y53536461D01*
X19624123Y53507090D01*
X19559444Y53483948D01*
X19492808Y53467256D01*
X19424857Y53457177D01*
X19356245Y53453806D01*
X19287633Y53457177D01*
X19219682Y53467256D01*
X19153046Y53483948D01*
X19088367Y53507090D01*
X19026267Y53536461D01*
X18967346Y53571777D01*
X18912170Y53612699D01*
X18861270Y53658831D01*
X17729899Y54790202D01*
X17683767Y54841102D01*
X17642845Y54896278D01*
X17607529Y54955199D01*
X17578158Y55017299D01*
X17555016Y55081978D01*
X17538324Y55148614D01*
X17528245Y55216565D01*
X17524874Y55285177D01*
X17528245Y55353789D01*
X17538324Y55421740D01*
X17555016Y55488376D01*
X17578158Y55553055D01*
X17607529Y55615155D01*
X17642845Y55674076D01*
X17683767Y55729252D01*
X17729899Y55780152D01*
X18719848Y56770101D01*
X18770748Y56816233D01*
X18825924Y56857155D01*
X18884845Y56892471D01*
X18946945Y56921842D01*
X19011624Y56944984D01*
X19078260Y56961676D01*
X19146211Y56971755D01*
X19214823Y56975126D01*
X19283435Y56971755D01*
G37*
G36*
X12212367Y64042823D02*
G01*
X12280318Y64032744D01*
X12346954Y64016052D01*
X12411633Y63992910D01*
X12473733Y63963539D01*
X12532654Y63928223D01*
X12587830Y63887301D01*
X12638730Y63841169D01*
X13770101Y62709798D01*
X13816233Y62658898D01*
X13857155Y62603722D01*
X13892471Y62544801D01*
X13921842Y62482701D01*
X13944984Y62418022D01*
X13961676Y62351386D01*
X13971755Y62283435D01*
X13975126Y62214823D01*
X13971755Y62146211D01*
X13961676Y62078260D01*
X13944984Y62011624D01*
X13921842Y61946945D01*
X13892471Y61884845D01*
X13857155Y61825924D01*
X13816233Y61770748D01*
X13770101Y61719848D01*
X12780152Y60729899D01*
X12729252Y60683767D01*
X12674076Y60642845D01*
X12615155Y60607529D01*
X12553055Y60578158D01*
X12488376Y60555016D01*
X12421740Y60538324D01*
X12353789Y60528245D01*
X12285177Y60524874D01*
X12216565Y60528245D01*
X12148614Y60538324D01*
X12081978Y60555016D01*
X12017299Y60578158D01*
X11955199Y60607529D01*
X11896278Y60642845D01*
X11841102Y60683767D01*
X11790202Y60729899D01*
X10658831Y61861270D01*
X10612699Y61912170D01*
X10571777Y61967346D01*
X10536461Y62026267D01*
X10507090Y62088367D01*
X10483948Y62153046D01*
X10467256Y62219682D01*
X10457177Y62287633D01*
X10453806Y62356245D01*
X10457177Y62424857D01*
X10467256Y62492808D01*
X10483948Y62559444D01*
X10507090Y62624123D01*
X10536461Y62686223D01*
X10571777Y62745144D01*
X10612699Y62800320D01*
X10658831Y62851220D01*
X11648780Y63841169D01*
X11699680Y63887301D01*
X11754856Y63928223D01*
X11813777Y63963539D01*
X11875877Y63992910D01*
X11940556Y64016052D01*
X12007192Y64032744D01*
X12075143Y64042823D01*
X12143755Y64046194D01*
X12212367Y64042823D01*
G37*
G36*
X33149504Y61498796D02*
G01*
X33173773Y61495196D01*
X33197571Y61489235D01*
X33220671Y61480970D01*
X33242849Y61470480D01*
X33263893Y61457867D01*
X33283598Y61443253D01*
X33301777Y61426777D01*
X33318253Y61408598D01*
X33332867Y61388893D01*
X33345480Y61367849D01*
X33355970Y61345671D01*
X33364235Y61322571D01*
X33370196Y61298773D01*
X33373796Y61274504D01*
X33375000Y61250000D01*
X33375000Y60750000D01*
X33373796Y60725496D01*
X33370196Y60701227D01*
X33364235Y60677429D01*
X33355970Y60654329D01*
X33345480Y60632151D01*
X33332867Y60611107D01*
X33318253Y60591402D01*
X33301777Y60573223D01*
X33283598Y60556747D01*
X33263893Y60542133D01*
X33242849Y60529520D01*
X33220671Y60519030D01*
X33197571Y60510765D01*
X33173773Y60504804D01*
X33149504Y60501204D01*
X33125000Y60500000D01*
X32375000Y60500000D01*
X32350496Y60501204D01*
X32326227Y60504804D01*
X32302429Y60510765D01*
X32279329Y60519030D01*
X32257151Y60529520D01*
X32236107Y60542133D01*
X32216402Y60556747D01*
X32198223Y60573223D01*
X32181747Y60591402D01*
X32167133Y60611107D01*
X32154520Y60632151D01*
X32144030Y60654329D01*
X32135765Y60677429D01*
X32129804Y60701227D01*
X32126204Y60725496D01*
X32125000Y60750000D01*
X32125000Y61250000D01*
X32126204Y61274504D01*
X32129804Y61298773D01*
X32135765Y61322571D01*
X32144030Y61345671D01*
X32154520Y61367849D01*
X32167133Y61388893D01*
X32181747Y61408598D01*
X32198223Y61426777D01*
X32216402Y61443253D01*
X32236107Y61457867D01*
X32257151Y61470480D01*
X32279329Y61480970D01*
X32302429Y61489235D01*
X32326227Y61495196D01*
X32350496Y61498796D01*
X32375000Y61500000D01*
X33125000Y61500000D01*
X33149504Y61498796D01*
G37*
G36*
X33149504Y59498796D02*
G01*
X33173773Y59495196D01*
X33197571Y59489235D01*
X33220671Y59480970D01*
X33242849Y59470480D01*
X33263893Y59457867D01*
X33283598Y59443253D01*
X33301777Y59426777D01*
X33318253Y59408598D01*
X33332867Y59388893D01*
X33345480Y59367849D01*
X33355970Y59345671D01*
X33364235Y59322571D01*
X33370196Y59298773D01*
X33373796Y59274504D01*
X33375000Y59250000D01*
X33375000Y58750000D01*
X33373796Y58725496D01*
X33370196Y58701227D01*
X33364235Y58677429D01*
X33355970Y58654329D01*
X33345480Y58632151D01*
X33332867Y58611107D01*
X33318253Y58591402D01*
X33301777Y58573223D01*
X33283598Y58556747D01*
X33263893Y58542133D01*
X33242849Y58529520D01*
X33220671Y58519030D01*
X33197571Y58510765D01*
X33173773Y58504804D01*
X33149504Y58501204D01*
X33125000Y58500000D01*
X32375000Y58500000D01*
X32350496Y58501204D01*
X32326227Y58504804D01*
X32302429Y58510765D01*
X32279329Y58519030D01*
X32257151Y58529520D01*
X32236107Y58542133D01*
X32216402Y58556747D01*
X32198223Y58573223D01*
X32181747Y58591402D01*
X32167133Y58611107D01*
X32154520Y58632151D01*
X32144030Y58654329D01*
X32135765Y58677429D01*
X32129804Y58701227D01*
X32126204Y58725496D01*
X32125000Y58750000D01*
X32125000Y59250000D01*
X32126204Y59274504D01*
X32129804Y59298773D01*
X32135765Y59322571D01*
X32144030Y59345671D01*
X32154520Y59367849D01*
X32167133Y59388893D01*
X32181747Y59408598D01*
X32198223Y59426777D01*
X32216402Y59443253D01*
X32236107Y59457867D01*
X32257151Y59470480D01*
X32279329Y59480970D01*
X32302429Y59489235D01*
X32326227Y59495196D01*
X32350496Y59498796D01*
X32375000Y59500000D01*
X33125000Y59500000D01*
X33149504Y59498796D01*
G37*
G36*
X1899504Y79248796D02*
G01*
X1923773Y79245196D01*
X1947571Y79239235D01*
X1970671Y79230970D01*
X1992849Y79220480D01*
X2013893Y79207867D01*
X2033598Y79193253D01*
X2051777Y79176777D01*
X2068253Y79158598D01*
X2082867Y79138893D01*
X2095480Y79117849D01*
X2105970Y79095671D01*
X2114235Y79072571D01*
X2120196Y79048773D01*
X2123796Y79024504D01*
X2125000Y79000000D01*
X2125000Y78500000D01*
X2123796Y78475496D01*
X2120196Y78451227D01*
X2114235Y78427429D01*
X2105970Y78404329D01*
X2095480Y78382151D01*
X2082867Y78361107D01*
X2068253Y78341402D01*
X2051777Y78323223D01*
X2033598Y78306747D01*
X2013893Y78292133D01*
X1992849Y78279520D01*
X1970671Y78269030D01*
X1947571Y78260765D01*
X1923773Y78254804D01*
X1899504Y78251204D01*
X1875000Y78250000D01*
X1125000Y78250000D01*
X1100496Y78251204D01*
X1076227Y78254804D01*
X1052429Y78260765D01*
X1029329Y78269030D01*
X1007151Y78279520D01*
X986107Y78292133D01*
X966402Y78306747D01*
X948223Y78323223D01*
X931747Y78341402D01*
X917133Y78361107D01*
X904520Y78382151D01*
X894030Y78404329D01*
X885765Y78427429D01*
X879804Y78451227D01*
X876204Y78475496D01*
X875000Y78500000D01*
X875000Y79000000D01*
X876204Y79024504D01*
X879804Y79048773D01*
X885765Y79072571D01*
X894030Y79095671D01*
X904520Y79117849D01*
X917133Y79138893D01*
X931747Y79158598D01*
X948223Y79176777D01*
X966402Y79193253D01*
X986107Y79207867D01*
X1007151Y79220480D01*
X1029329Y79230970D01*
X1052429Y79239235D01*
X1076227Y79245196D01*
X1100496Y79248796D01*
X1125000Y79250000D01*
X1875000Y79250000D01*
X1899504Y79248796D01*
G37*
G36*
X1899504Y81248796D02*
G01*
X1923773Y81245196D01*
X1947571Y81239235D01*
X1970671Y81230970D01*
X1992849Y81220480D01*
X2013893Y81207867D01*
X2033598Y81193253D01*
X2051777Y81176777D01*
X2068253Y81158598D01*
X2082867Y81138893D01*
X2095480Y81117849D01*
X2105970Y81095671D01*
X2114235Y81072571D01*
X2120196Y81048773D01*
X2123796Y81024504D01*
X2125000Y81000000D01*
X2125000Y80500000D01*
X2123796Y80475496D01*
X2120196Y80451227D01*
X2114235Y80427429D01*
X2105970Y80404329D01*
X2095480Y80382151D01*
X2082867Y80361107D01*
X2068253Y80341402D01*
X2051777Y80323223D01*
X2033598Y80306747D01*
X2013893Y80292133D01*
X1992849Y80279520D01*
X1970671Y80269030D01*
X1947571Y80260765D01*
X1923773Y80254804D01*
X1899504Y80251204D01*
X1875000Y80250000D01*
X1125000Y80250000D01*
X1100496Y80251204D01*
X1076227Y80254804D01*
X1052429Y80260765D01*
X1029329Y80269030D01*
X1007151Y80279520D01*
X986107Y80292133D01*
X966402Y80306747D01*
X948223Y80323223D01*
X931747Y80341402D01*
X917133Y80361107D01*
X904520Y80382151D01*
X894030Y80404329D01*
X885765Y80427429D01*
X879804Y80451227D01*
X876204Y80475496D01*
X875000Y80500000D01*
X875000Y81000000D01*
X876204Y81024504D01*
X879804Y81048773D01*
X885765Y81072571D01*
X894030Y81095671D01*
X904520Y81117849D01*
X917133Y81138893D01*
X931747Y81158598D01*
X948223Y81176777D01*
X966402Y81193253D01*
X986107Y81207867D01*
X1007151Y81220480D01*
X1029329Y81230970D01*
X1052429Y81239235D01*
X1076227Y81245196D01*
X1100496Y81248796D01*
X1125000Y81250000D01*
X1875000Y81250000D01*
X1899504Y81248796D01*
G37*
D12*
X26460000Y66725000D03*
X31540000Y66725000D03*
D13*
X31775000Y78300000D03*
X26225000Y73450000D03*
X26225000Y78300000D03*
X31775000Y73450000D03*
D10*
G36*
X27449505Y59348796D02*
G01*
X27473773Y59345196D01*
X27497572Y59339235D01*
X27520671Y59330970D01*
X27542850Y59320480D01*
X27563893Y59307868D01*
X27583599Y59293253D01*
X27601777Y59276777D01*
X27618253Y59258599D01*
X27632868Y59238893D01*
X27645480Y59217850D01*
X27655970Y59195671D01*
X27664235Y59172572D01*
X27670196Y59148773D01*
X27673796Y59124505D01*
X27675000Y59100001D01*
X27675000Y58024999D01*
X27673796Y58000495D01*
X27670196Y57976227D01*
X27664235Y57952428D01*
X27655970Y57929329D01*
X27645480Y57907150D01*
X27632868Y57886107D01*
X27618253Y57866401D01*
X27601777Y57848223D01*
X27583599Y57831747D01*
X27563893Y57817132D01*
X27542850Y57804520D01*
X27520671Y57794030D01*
X27497572Y57785765D01*
X27473773Y57779804D01*
X27449505Y57776204D01*
X27425001Y57775000D01*
X26574999Y57775000D01*
X26550495Y57776204D01*
X26526227Y57779804D01*
X26502428Y57785765D01*
X26479329Y57794030D01*
X26457150Y57804520D01*
X26436107Y57817132D01*
X26416401Y57831747D01*
X26398223Y57848223D01*
X26381747Y57866401D01*
X26367132Y57886107D01*
X26354520Y57907150D01*
X26344030Y57929329D01*
X26335765Y57952428D01*
X26329804Y57976227D01*
X26326204Y58000495D01*
X26325000Y58024999D01*
X26325000Y59100001D01*
X26326204Y59124505D01*
X26329804Y59148773D01*
X26335765Y59172572D01*
X26344030Y59195671D01*
X26354520Y59217850D01*
X26367132Y59238893D01*
X26381747Y59258599D01*
X26398223Y59276777D01*
X26416401Y59293253D01*
X26436107Y59307868D01*
X26457150Y59320480D01*
X26479329Y59330970D01*
X26502428Y59339235D01*
X26526227Y59345196D01*
X26550495Y59348796D01*
X26574999Y59350000D01*
X27425001Y59350000D01*
X27449505Y59348796D01*
G37*
G36*
X27449505Y62223796D02*
G01*
X27473773Y62220196D01*
X27497572Y62214235D01*
X27520671Y62205970D01*
X27542850Y62195480D01*
X27563893Y62182868D01*
X27583599Y62168253D01*
X27601777Y62151777D01*
X27618253Y62133599D01*
X27632868Y62113893D01*
X27645480Y62092850D01*
X27655970Y62070671D01*
X27664235Y62047572D01*
X27670196Y62023773D01*
X27673796Y61999505D01*
X27675000Y61975001D01*
X27675000Y60899999D01*
X27673796Y60875495D01*
X27670196Y60851227D01*
X27664235Y60827428D01*
X27655970Y60804329D01*
X27645480Y60782150D01*
X27632868Y60761107D01*
X27618253Y60741401D01*
X27601777Y60723223D01*
X27583599Y60706747D01*
X27563893Y60692132D01*
X27542850Y60679520D01*
X27520671Y60669030D01*
X27497572Y60660765D01*
X27473773Y60654804D01*
X27449505Y60651204D01*
X27425001Y60650000D01*
X26574999Y60650000D01*
X26550495Y60651204D01*
X26526227Y60654804D01*
X26502428Y60660765D01*
X26479329Y60669030D01*
X26457150Y60679520D01*
X26436107Y60692132D01*
X26416401Y60706747D01*
X26398223Y60723223D01*
X26381747Y60741401D01*
X26367132Y60761107D01*
X26354520Y60782150D01*
X26344030Y60804329D01*
X26335765Y60827428D01*
X26329804Y60851227D01*
X26326204Y60875495D01*
X26325000Y60899999D01*
X26325000Y61975001D01*
X26326204Y61999505D01*
X26329804Y62023773D01*
X26335765Y62047572D01*
X26344030Y62070671D01*
X26354520Y62092850D01*
X26367132Y62113893D01*
X26381747Y62133599D01*
X26398223Y62151777D01*
X26416401Y62168253D01*
X26436107Y62182868D01*
X26457150Y62195480D01*
X26479329Y62205970D01*
X26502428Y62214235D01*
X26526227Y62220196D01*
X26550495Y62223796D01*
X26574999Y62225000D01*
X27425001Y62225000D01*
X27449505Y62223796D01*
G37*
G36*
X26424504Y50698796D02*
G01*
X26448773Y50695196D01*
X26472571Y50689235D01*
X26495671Y50680970D01*
X26517849Y50670480D01*
X26538893Y50657867D01*
X26558598Y50643253D01*
X26576777Y50626777D01*
X26593253Y50608598D01*
X26607867Y50588893D01*
X26620480Y50567849D01*
X26630970Y50545671D01*
X26639235Y50522571D01*
X26645196Y50498773D01*
X26648796Y50474504D01*
X26650000Y50450000D01*
X26650000Y49625000D01*
X26648796Y49600496D01*
X26645196Y49576227D01*
X26639235Y49552429D01*
X26630970Y49529329D01*
X26620480Y49507151D01*
X26607867Y49486107D01*
X26593253Y49466402D01*
X26576777Y49448223D01*
X26558598Y49431747D01*
X26538893Y49417133D01*
X26517849Y49404520D01*
X26495671Y49394030D01*
X26472571Y49385765D01*
X26448773Y49379804D01*
X26424504Y49376204D01*
X26400000Y49375000D01*
X25600000Y49375000D01*
X25575496Y49376204D01*
X25551227Y49379804D01*
X25527429Y49385765D01*
X25504329Y49394030D01*
X25482151Y49404520D01*
X25461107Y49417133D01*
X25441402Y49431747D01*
X25423223Y49448223D01*
X25406747Y49466402D01*
X25392133Y49486107D01*
X25379520Y49507151D01*
X25369030Y49529329D01*
X25360765Y49552429D01*
X25354804Y49576227D01*
X25351204Y49600496D01*
X25350000Y49625000D01*
X25350000Y50450000D01*
X25351204Y50474504D01*
X25354804Y50498773D01*
X25360765Y50522571D01*
X25369030Y50545671D01*
X25379520Y50567849D01*
X25392133Y50588893D01*
X25406747Y50608598D01*
X25423223Y50626777D01*
X25441402Y50643253D01*
X25461107Y50657867D01*
X25482151Y50670480D01*
X25504329Y50680970D01*
X25527429Y50689235D01*
X25551227Y50695196D01*
X25575496Y50698796D01*
X25600000Y50700000D01*
X26400000Y50700000D01*
X26424504Y50698796D01*
G37*
G36*
X26424504Y52623796D02*
G01*
X26448773Y52620196D01*
X26472571Y52614235D01*
X26495671Y52605970D01*
X26517849Y52595480D01*
X26538893Y52582867D01*
X26558598Y52568253D01*
X26576777Y52551777D01*
X26593253Y52533598D01*
X26607867Y52513893D01*
X26620480Y52492849D01*
X26630970Y52470671D01*
X26639235Y52447571D01*
X26645196Y52423773D01*
X26648796Y52399504D01*
X26650000Y52375000D01*
X26650000Y51550000D01*
X26648796Y51525496D01*
X26645196Y51501227D01*
X26639235Y51477429D01*
X26630970Y51454329D01*
X26620480Y51432151D01*
X26607867Y51411107D01*
X26593253Y51391402D01*
X26576777Y51373223D01*
X26558598Y51356747D01*
X26538893Y51342133D01*
X26517849Y51329520D01*
X26495671Y51319030D01*
X26472571Y51310765D01*
X26448773Y51304804D01*
X26424504Y51301204D01*
X26400000Y51300000D01*
X25600000Y51300000D01*
X25575496Y51301204D01*
X25551227Y51304804D01*
X25527429Y51310765D01*
X25504329Y51319030D01*
X25482151Y51329520D01*
X25461107Y51342133D01*
X25441402Y51356747D01*
X25423223Y51373223D01*
X25406747Y51391402D01*
X25392133Y51411107D01*
X25379520Y51432151D01*
X25369030Y51454329D01*
X25360765Y51477429D01*
X25354804Y51501227D01*
X25351204Y51525496D01*
X25350000Y51550000D01*
X25350000Y52375000D01*
X25351204Y52399504D01*
X25354804Y52423773D01*
X25360765Y52447571D01*
X25369030Y52470671D01*
X25379520Y52492849D01*
X25392133Y52513893D01*
X25406747Y52533598D01*
X25423223Y52551777D01*
X25441402Y52568253D01*
X25461107Y52582867D01*
X25482151Y52595480D01*
X25504329Y52605970D01*
X25527429Y52614235D01*
X25551227Y52620196D01*
X25575496Y52623796D01*
X25600000Y52625000D01*
X26400000Y52625000D01*
X26424504Y52623796D01*
G37*
D14*
X15500000Y83400000D03*
X15500000Y79100000D03*
D10*
G36*
X28924504Y50698796D02*
G01*
X28948773Y50695196D01*
X28972571Y50689235D01*
X28995671Y50680970D01*
X29017849Y50670480D01*
X29038893Y50657867D01*
X29058598Y50643253D01*
X29076777Y50626777D01*
X29093253Y50608598D01*
X29107867Y50588893D01*
X29120480Y50567849D01*
X29130970Y50545671D01*
X29139235Y50522571D01*
X29145196Y50498773D01*
X29148796Y50474504D01*
X29150000Y50450000D01*
X29150000Y49625000D01*
X29148796Y49600496D01*
X29145196Y49576227D01*
X29139235Y49552429D01*
X29130970Y49529329D01*
X29120480Y49507151D01*
X29107867Y49486107D01*
X29093253Y49466402D01*
X29076777Y49448223D01*
X29058598Y49431747D01*
X29038893Y49417133D01*
X29017849Y49404520D01*
X28995671Y49394030D01*
X28972571Y49385765D01*
X28948773Y49379804D01*
X28924504Y49376204D01*
X28900000Y49375000D01*
X28100000Y49375000D01*
X28075496Y49376204D01*
X28051227Y49379804D01*
X28027429Y49385765D01*
X28004329Y49394030D01*
X27982151Y49404520D01*
X27961107Y49417133D01*
X27941402Y49431747D01*
X27923223Y49448223D01*
X27906747Y49466402D01*
X27892133Y49486107D01*
X27879520Y49507151D01*
X27869030Y49529329D01*
X27860765Y49552429D01*
X27854804Y49576227D01*
X27851204Y49600496D01*
X27850000Y49625000D01*
X27850000Y50450000D01*
X27851204Y50474504D01*
X27854804Y50498773D01*
X27860765Y50522571D01*
X27869030Y50545671D01*
X27879520Y50567849D01*
X27892133Y50588893D01*
X27906747Y50608598D01*
X27923223Y50626777D01*
X27941402Y50643253D01*
X27961107Y50657867D01*
X27982151Y50670480D01*
X28004329Y50680970D01*
X28027429Y50689235D01*
X28051227Y50695196D01*
X28075496Y50698796D01*
X28100000Y50700000D01*
X28900000Y50700000D01*
X28924504Y50698796D01*
G37*
G36*
X28924504Y52623796D02*
G01*
X28948773Y52620196D01*
X28972571Y52614235D01*
X28995671Y52605970D01*
X29017849Y52595480D01*
X29038893Y52582867D01*
X29058598Y52568253D01*
X29076777Y52551777D01*
X29093253Y52533598D01*
X29107867Y52513893D01*
X29120480Y52492849D01*
X29130970Y52470671D01*
X29139235Y52447571D01*
X29145196Y52423773D01*
X29148796Y52399504D01*
X29150000Y52375000D01*
X29150000Y51550000D01*
X29148796Y51525496D01*
X29145196Y51501227D01*
X29139235Y51477429D01*
X29130970Y51454329D01*
X29120480Y51432151D01*
X29107867Y51411107D01*
X29093253Y51391402D01*
X29076777Y51373223D01*
X29058598Y51356747D01*
X29038893Y51342133D01*
X29017849Y51329520D01*
X28995671Y51319030D01*
X28972571Y51310765D01*
X28948773Y51304804D01*
X28924504Y51301204D01*
X28900000Y51300000D01*
X28100000Y51300000D01*
X28075496Y51301204D01*
X28051227Y51304804D01*
X28027429Y51310765D01*
X28004329Y51319030D01*
X27982151Y51329520D01*
X27961107Y51342133D01*
X27941402Y51356747D01*
X27923223Y51373223D01*
X27906747Y51391402D01*
X27892133Y51411107D01*
X27879520Y51432151D01*
X27869030Y51454329D01*
X27860765Y51477429D01*
X27854804Y51501227D01*
X27851204Y51525496D01*
X27850000Y51550000D01*
X27850000Y52375000D01*
X27851204Y52399504D01*
X27854804Y52423773D01*
X27860765Y52447571D01*
X27869030Y52470671D01*
X27879520Y52492849D01*
X27892133Y52513893D01*
X27906747Y52533598D01*
X27923223Y52551777D01*
X27941402Y52568253D01*
X27961107Y52582867D01*
X27982151Y52595480D01*
X28004329Y52605970D01*
X28027429Y52614235D01*
X28051227Y52620196D01*
X28075496Y52623796D01*
X28100000Y52625000D01*
X28900000Y52625000D01*
X28924504Y52623796D01*
G37*
D15*
X21300000Y74500000D03*
X36700000Y74500000D03*
D10*
G36*
X30449505Y59348796D02*
G01*
X30473773Y59345196D01*
X30497572Y59339235D01*
X30520671Y59330970D01*
X30542850Y59320480D01*
X30563893Y59307868D01*
X30583599Y59293253D01*
X30601777Y59276777D01*
X30618253Y59258599D01*
X30632868Y59238893D01*
X30645480Y59217850D01*
X30655970Y59195671D01*
X30664235Y59172572D01*
X30670196Y59148773D01*
X30673796Y59124505D01*
X30675000Y59100001D01*
X30675000Y58024999D01*
X30673796Y58000495D01*
X30670196Y57976227D01*
X30664235Y57952428D01*
X30655970Y57929329D01*
X30645480Y57907150D01*
X30632868Y57886107D01*
X30618253Y57866401D01*
X30601777Y57848223D01*
X30583599Y57831747D01*
X30563893Y57817132D01*
X30542850Y57804520D01*
X30520671Y57794030D01*
X30497572Y57785765D01*
X30473773Y57779804D01*
X30449505Y57776204D01*
X30425001Y57775000D01*
X29574999Y57775000D01*
X29550495Y57776204D01*
X29526227Y57779804D01*
X29502428Y57785765D01*
X29479329Y57794030D01*
X29457150Y57804520D01*
X29436107Y57817132D01*
X29416401Y57831747D01*
X29398223Y57848223D01*
X29381747Y57866401D01*
X29367132Y57886107D01*
X29354520Y57907150D01*
X29344030Y57929329D01*
X29335765Y57952428D01*
X29329804Y57976227D01*
X29326204Y58000495D01*
X29325000Y58024999D01*
X29325000Y59100001D01*
X29326204Y59124505D01*
X29329804Y59148773D01*
X29335765Y59172572D01*
X29344030Y59195671D01*
X29354520Y59217850D01*
X29367132Y59238893D01*
X29381747Y59258599D01*
X29398223Y59276777D01*
X29416401Y59293253D01*
X29436107Y59307868D01*
X29457150Y59320480D01*
X29479329Y59330970D01*
X29502428Y59339235D01*
X29526227Y59345196D01*
X29550495Y59348796D01*
X29574999Y59350000D01*
X30425001Y59350000D01*
X30449505Y59348796D01*
G37*
G36*
X30449505Y62223796D02*
G01*
X30473773Y62220196D01*
X30497572Y62214235D01*
X30520671Y62205970D01*
X30542850Y62195480D01*
X30563893Y62182868D01*
X30583599Y62168253D01*
X30601777Y62151777D01*
X30618253Y62133599D01*
X30632868Y62113893D01*
X30645480Y62092850D01*
X30655970Y62070671D01*
X30664235Y62047572D01*
X30670196Y62023773D01*
X30673796Y61999505D01*
X30675000Y61975001D01*
X30675000Y60899999D01*
X30673796Y60875495D01*
X30670196Y60851227D01*
X30664235Y60827428D01*
X30655970Y60804329D01*
X30645480Y60782150D01*
X30632868Y60761107D01*
X30618253Y60741401D01*
X30601777Y60723223D01*
X30583599Y60706747D01*
X30563893Y60692132D01*
X30542850Y60679520D01*
X30520671Y60669030D01*
X30497572Y60660765D01*
X30473773Y60654804D01*
X30449505Y60651204D01*
X30425001Y60650000D01*
X29574999Y60650000D01*
X29550495Y60651204D01*
X29526227Y60654804D01*
X29502428Y60660765D01*
X29479329Y60669030D01*
X29457150Y60679520D01*
X29436107Y60692132D01*
X29416401Y60706747D01*
X29398223Y60723223D01*
X29381747Y60741401D01*
X29367132Y60761107D01*
X29354520Y60782150D01*
X29344030Y60804329D01*
X29335765Y60827428D01*
X29329804Y60851227D01*
X29326204Y60875495D01*
X29325000Y60899999D01*
X29325000Y61975001D01*
X29326204Y61999505D01*
X29329804Y62023773D01*
X29335765Y62047572D01*
X29344030Y62070671D01*
X29354520Y62092850D01*
X29367132Y62113893D01*
X29381747Y62133599D01*
X29398223Y62151777D01*
X29416401Y62168253D01*
X29436107Y62182868D01*
X29457150Y62195480D01*
X29479329Y62205970D01*
X29502428Y62214235D01*
X29526227Y62220196D01*
X29550495Y62223796D01*
X29574999Y62225000D01*
X30425001Y62225000D01*
X30449505Y62223796D01*
G37*
G36*
X2411756Y69748194D02*
G01*
X2448159Y69742794D01*
X2483857Y69733853D01*
X2518506Y69721455D01*
X2551774Y69705720D01*
X2583339Y69686801D01*
X2612897Y69664879D01*
X2640165Y69640165D01*
X2664879Y69612897D01*
X2686801Y69583339D01*
X2705720Y69551774D01*
X2721455Y69518506D01*
X2733853Y69483857D01*
X2742794Y69448159D01*
X2748194Y69411756D01*
X2750000Y69375000D01*
X2750000Y68625000D01*
X2748194Y68588244D01*
X2742794Y68551841D01*
X2733853Y68516143D01*
X2721455Y68481494D01*
X2705720Y68448226D01*
X2686801Y68416661D01*
X2664879Y68387103D01*
X2640165Y68359835D01*
X2612897Y68335121D01*
X2583339Y68313199D01*
X2551774Y68294280D01*
X2518506Y68278545D01*
X2483857Y68266147D01*
X2448159Y68257206D01*
X2411756Y68251806D01*
X2375000Y68250000D01*
X1125000Y68250000D01*
X1088244Y68251806D01*
X1051841Y68257206D01*
X1016143Y68266147D01*
X981494Y68278545D01*
X948226Y68294280D01*
X916661Y68313199D01*
X887103Y68335121D01*
X859835Y68359835D01*
X835121Y68387103D01*
X813199Y68416661D01*
X794280Y68448226D01*
X778545Y68481494D01*
X766147Y68516143D01*
X757206Y68551841D01*
X751806Y68588244D01*
X750000Y68625000D01*
X750000Y69375000D01*
X751806Y69411756D01*
X757206Y69448159D01*
X766147Y69483857D01*
X778545Y69518506D01*
X794280Y69551774D01*
X813199Y69583339D01*
X835121Y69612897D01*
X859835Y69640165D01*
X887103Y69664879D01*
X916661Y69686801D01*
X948226Y69705720D01*
X981494Y69721455D01*
X1016143Y69733853D01*
X1051841Y69742794D01*
X1088244Y69748194D01*
X1125000Y69750000D01*
X2375000Y69750000D01*
X2411756Y69748194D01*
G37*
G36*
X2411756Y73748194D02*
G01*
X2448159Y73742794D01*
X2483857Y73733853D01*
X2518506Y73721455D01*
X2551774Y73705720D01*
X2583339Y73686801D01*
X2612897Y73664879D01*
X2640165Y73640165D01*
X2664879Y73612897D01*
X2686801Y73583339D01*
X2705720Y73551774D01*
X2721455Y73518506D01*
X2733853Y73483857D01*
X2742794Y73448159D01*
X2748194Y73411756D01*
X2750000Y73375000D01*
X2750000Y72625000D01*
X2748194Y72588244D01*
X2742794Y72551841D01*
X2733853Y72516143D01*
X2721455Y72481494D01*
X2705720Y72448226D01*
X2686801Y72416661D01*
X2664879Y72387103D01*
X2640165Y72359835D01*
X2612897Y72335121D01*
X2583339Y72313199D01*
X2551774Y72294280D01*
X2518506Y72278545D01*
X2483857Y72266147D01*
X2448159Y72257206D01*
X2411756Y72251806D01*
X2375000Y72250000D01*
X1125000Y72250000D01*
X1088244Y72251806D01*
X1051841Y72257206D01*
X1016143Y72266147D01*
X981494Y72278545D01*
X948226Y72294280D01*
X916661Y72313199D01*
X887103Y72335121D01*
X859835Y72359835D01*
X835121Y72387103D01*
X813199Y72416661D01*
X794280Y72448226D01*
X778545Y72481494D01*
X766147Y72516143D01*
X757206Y72551841D01*
X751806Y72588244D01*
X750000Y72625000D01*
X750000Y73375000D01*
X751806Y73411756D01*
X757206Y73448159D01*
X766147Y73483857D01*
X778545Y73518506D01*
X794280Y73551774D01*
X813199Y73583339D01*
X835121Y73612897D01*
X859835Y73640165D01*
X887103Y73664879D01*
X916661Y73686801D01*
X948226Y73705720D01*
X981494Y73721455D01*
X1016143Y73733853D01*
X1051841Y73742794D01*
X1088244Y73748194D01*
X1125000Y73750000D01*
X2375000Y73750000D01*
X2411756Y73748194D01*
G37*
G36*
X22274504Y63873796D02*
G01*
X22298773Y63870196D01*
X22322571Y63864235D01*
X22345671Y63855970D01*
X22367849Y63845480D01*
X22388893Y63832867D01*
X22408598Y63818253D01*
X22426777Y63801777D01*
X22443253Y63783598D01*
X22457867Y63763893D01*
X22470480Y63742849D01*
X22480970Y63720671D01*
X22489235Y63697571D01*
X22495196Y63673773D01*
X22498796Y63649504D01*
X22500000Y63625000D01*
X22500000Y62875000D01*
X22498796Y62850496D01*
X22495196Y62826227D01*
X22489235Y62802429D01*
X22480970Y62779329D01*
X22470480Y62757151D01*
X22457867Y62736107D01*
X22443253Y62716402D01*
X22426777Y62698223D01*
X22408598Y62681747D01*
X22388893Y62667133D01*
X22367849Y62654520D01*
X22345671Y62644030D01*
X22322571Y62635765D01*
X22298773Y62629804D01*
X22274504Y62626204D01*
X22250000Y62625000D01*
X21750000Y62625000D01*
X21725496Y62626204D01*
X21701227Y62629804D01*
X21677429Y62635765D01*
X21654329Y62644030D01*
X21632151Y62654520D01*
X21611107Y62667133D01*
X21591402Y62681747D01*
X21573223Y62698223D01*
X21556747Y62716402D01*
X21542133Y62736107D01*
X21529520Y62757151D01*
X21519030Y62779329D01*
X21510765Y62802429D01*
X21504804Y62826227D01*
X21501204Y62850496D01*
X21500000Y62875000D01*
X21500000Y63625000D01*
X21501204Y63649504D01*
X21504804Y63673773D01*
X21510765Y63697571D01*
X21519030Y63720671D01*
X21529520Y63742849D01*
X21542133Y63763893D01*
X21556747Y63783598D01*
X21573223Y63801777D01*
X21591402Y63818253D01*
X21611107Y63832867D01*
X21632151Y63845480D01*
X21654329Y63855970D01*
X21677429Y63864235D01*
X21701227Y63870196D01*
X21725496Y63873796D01*
X21750000Y63875000D01*
X22250000Y63875000D01*
X22274504Y63873796D01*
G37*
G36*
X24274504Y63873796D02*
G01*
X24298773Y63870196D01*
X24322571Y63864235D01*
X24345671Y63855970D01*
X24367849Y63845480D01*
X24388893Y63832867D01*
X24408598Y63818253D01*
X24426777Y63801777D01*
X24443253Y63783598D01*
X24457867Y63763893D01*
X24470480Y63742849D01*
X24480970Y63720671D01*
X24489235Y63697571D01*
X24495196Y63673773D01*
X24498796Y63649504D01*
X24500000Y63625000D01*
X24500000Y62875000D01*
X24498796Y62850496D01*
X24495196Y62826227D01*
X24489235Y62802429D01*
X24480970Y62779329D01*
X24470480Y62757151D01*
X24457867Y62736107D01*
X24443253Y62716402D01*
X24426777Y62698223D01*
X24408598Y62681747D01*
X24388893Y62667133D01*
X24367849Y62654520D01*
X24345671Y62644030D01*
X24322571Y62635765D01*
X24298773Y62629804D01*
X24274504Y62626204D01*
X24250000Y62625000D01*
X23750000Y62625000D01*
X23725496Y62626204D01*
X23701227Y62629804D01*
X23677429Y62635765D01*
X23654329Y62644030D01*
X23632151Y62654520D01*
X23611107Y62667133D01*
X23591402Y62681747D01*
X23573223Y62698223D01*
X23556747Y62716402D01*
X23542133Y62736107D01*
X23529520Y62757151D01*
X23519030Y62779329D01*
X23510765Y62802429D01*
X23504804Y62826227D01*
X23501204Y62850496D01*
X23500000Y62875000D01*
X23500000Y63625000D01*
X23501204Y63649504D01*
X23504804Y63673773D01*
X23510765Y63697571D01*
X23519030Y63720671D01*
X23529520Y63742849D01*
X23542133Y63763893D01*
X23556747Y63783598D01*
X23573223Y63801777D01*
X23591402Y63818253D01*
X23611107Y63832867D01*
X23632151Y63845480D01*
X23654329Y63855970D01*
X23677429Y63864235D01*
X23701227Y63870196D01*
X23725496Y63873796D01*
X23750000Y63875000D01*
X24250000Y63875000D01*
X24274504Y63873796D01*
G37*
G36*
X50524504Y61623796D02*
G01*
X50548773Y61620196D01*
X50572571Y61614235D01*
X50595671Y61605970D01*
X50617849Y61595480D01*
X50638893Y61582867D01*
X50658598Y61568253D01*
X50676777Y61551777D01*
X50693253Y61533598D01*
X50707867Y61513893D01*
X50720480Y61492849D01*
X50730970Y61470671D01*
X50739235Y61447571D01*
X50745196Y61423773D01*
X50748796Y61399504D01*
X50750000Y61375000D01*
X50750000Y60625000D01*
X50748796Y60600496D01*
X50745196Y60576227D01*
X50739235Y60552429D01*
X50730970Y60529329D01*
X50720480Y60507151D01*
X50707867Y60486107D01*
X50693253Y60466402D01*
X50676777Y60448223D01*
X50658598Y60431747D01*
X50638893Y60417133D01*
X50617849Y60404520D01*
X50595671Y60394030D01*
X50572571Y60385765D01*
X50548773Y60379804D01*
X50524504Y60376204D01*
X50500000Y60375000D01*
X50000000Y60375000D01*
X49975496Y60376204D01*
X49951227Y60379804D01*
X49927429Y60385765D01*
X49904329Y60394030D01*
X49882151Y60404520D01*
X49861107Y60417133D01*
X49841402Y60431747D01*
X49823223Y60448223D01*
X49806747Y60466402D01*
X49792133Y60486107D01*
X49779520Y60507151D01*
X49769030Y60529329D01*
X49760765Y60552429D01*
X49754804Y60576227D01*
X49751204Y60600496D01*
X49750000Y60625000D01*
X49750000Y61375000D01*
X49751204Y61399504D01*
X49754804Y61423773D01*
X49760765Y61447571D01*
X49769030Y61470671D01*
X49779520Y61492849D01*
X49792133Y61513893D01*
X49806747Y61533598D01*
X49823223Y61551777D01*
X49841402Y61568253D01*
X49861107Y61582867D01*
X49882151Y61595480D01*
X49904329Y61605970D01*
X49927429Y61614235D01*
X49951227Y61620196D01*
X49975496Y61623796D01*
X50000000Y61625000D01*
X50500000Y61625000D01*
X50524504Y61623796D01*
G37*
G36*
X48524504Y61623796D02*
G01*
X48548773Y61620196D01*
X48572571Y61614235D01*
X48595671Y61605970D01*
X48617849Y61595480D01*
X48638893Y61582867D01*
X48658598Y61568253D01*
X48676777Y61551777D01*
X48693253Y61533598D01*
X48707867Y61513893D01*
X48720480Y61492849D01*
X48730970Y61470671D01*
X48739235Y61447571D01*
X48745196Y61423773D01*
X48748796Y61399504D01*
X48750000Y61375000D01*
X48750000Y60625000D01*
X48748796Y60600496D01*
X48745196Y60576227D01*
X48739235Y60552429D01*
X48730970Y60529329D01*
X48720480Y60507151D01*
X48707867Y60486107D01*
X48693253Y60466402D01*
X48676777Y60448223D01*
X48658598Y60431747D01*
X48638893Y60417133D01*
X48617849Y60404520D01*
X48595671Y60394030D01*
X48572571Y60385765D01*
X48548773Y60379804D01*
X48524504Y60376204D01*
X48500000Y60375000D01*
X48000000Y60375000D01*
X47975496Y60376204D01*
X47951227Y60379804D01*
X47927429Y60385765D01*
X47904329Y60394030D01*
X47882151Y60404520D01*
X47861107Y60417133D01*
X47841402Y60431747D01*
X47823223Y60448223D01*
X47806747Y60466402D01*
X47792133Y60486107D01*
X47779520Y60507151D01*
X47769030Y60529329D01*
X47760765Y60552429D01*
X47754804Y60576227D01*
X47751204Y60600496D01*
X47750000Y60625000D01*
X47750000Y61375000D01*
X47751204Y61399504D01*
X47754804Y61423773D01*
X47760765Y61447571D01*
X47769030Y61470671D01*
X47779520Y61492849D01*
X47792133Y61513893D01*
X47806747Y61533598D01*
X47823223Y61551777D01*
X47841402Y61568253D01*
X47861107Y61582867D01*
X47882151Y61595480D01*
X47904329Y61605970D01*
X47927429Y61614235D01*
X47951227Y61620196D01*
X47975496Y61623796D01*
X48000000Y61625000D01*
X48500000Y61625000D01*
X48524504Y61623796D01*
G37*
G36*
X31274504Y30373796D02*
G01*
X31298773Y30370196D01*
X31322571Y30364235D01*
X31345671Y30355970D01*
X31367849Y30345480D01*
X31388893Y30332867D01*
X31408598Y30318253D01*
X31426777Y30301777D01*
X31443253Y30283598D01*
X31457867Y30263893D01*
X31470480Y30242849D01*
X31480970Y30220671D01*
X31489235Y30197571D01*
X31495196Y30173773D01*
X31498796Y30149504D01*
X31500000Y30125000D01*
X31500000Y29375000D01*
X31498796Y29350496D01*
X31495196Y29326227D01*
X31489235Y29302429D01*
X31480970Y29279329D01*
X31470480Y29257151D01*
X31457867Y29236107D01*
X31443253Y29216402D01*
X31426777Y29198223D01*
X31408598Y29181747D01*
X31388893Y29167133D01*
X31367849Y29154520D01*
X31345671Y29144030D01*
X31322571Y29135765D01*
X31298773Y29129804D01*
X31274504Y29126204D01*
X31250000Y29125000D01*
X30750000Y29125000D01*
X30725496Y29126204D01*
X30701227Y29129804D01*
X30677429Y29135765D01*
X30654329Y29144030D01*
X30632151Y29154520D01*
X30611107Y29167133D01*
X30591402Y29181747D01*
X30573223Y29198223D01*
X30556747Y29216402D01*
X30542133Y29236107D01*
X30529520Y29257151D01*
X30519030Y29279329D01*
X30510765Y29302429D01*
X30504804Y29326227D01*
X30501204Y29350496D01*
X30500000Y29375000D01*
X30500000Y30125000D01*
X30501204Y30149504D01*
X30504804Y30173773D01*
X30510765Y30197571D01*
X30519030Y30220671D01*
X30529520Y30242849D01*
X30542133Y30263893D01*
X30556747Y30283598D01*
X30573223Y30301777D01*
X30591402Y30318253D01*
X30611107Y30332867D01*
X30632151Y30345480D01*
X30654329Y30355970D01*
X30677429Y30364235D01*
X30701227Y30370196D01*
X30725496Y30373796D01*
X30750000Y30375000D01*
X31250000Y30375000D01*
X31274504Y30373796D01*
G37*
G36*
X33274504Y30373796D02*
G01*
X33298773Y30370196D01*
X33322571Y30364235D01*
X33345671Y30355970D01*
X33367849Y30345480D01*
X33388893Y30332867D01*
X33408598Y30318253D01*
X33426777Y30301777D01*
X33443253Y30283598D01*
X33457867Y30263893D01*
X33470480Y30242849D01*
X33480970Y30220671D01*
X33489235Y30197571D01*
X33495196Y30173773D01*
X33498796Y30149504D01*
X33500000Y30125000D01*
X33500000Y29375000D01*
X33498796Y29350496D01*
X33495196Y29326227D01*
X33489235Y29302429D01*
X33480970Y29279329D01*
X33470480Y29257151D01*
X33457867Y29236107D01*
X33443253Y29216402D01*
X33426777Y29198223D01*
X33408598Y29181747D01*
X33388893Y29167133D01*
X33367849Y29154520D01*
X33345671Y29144030D01*
X33322571Y29135765D01*
X33298773Y29129804D01*
X33274504Y29126204D01*
X33250000Y29125000D01*
X32750000Y29125000D01*
X32725496Y29126204D01*
X32701227Y29129804D01*
X32677429Y29135765D01*
X32654329Y29144030D01*
X32632151Y29154520D01*
X32611107Y29167133D01*
X32591402Y29181747D01*
X32573223Y29198223D01*
X32556747Y29216402D01*
X32542133Y29236107D01*
X32529520Y29257151D01*
X32519030Y29279329D01*
X32510765Y29302429D01*
X32504804Y29326227D01*
X32501204Y29350496D01*
X32500000Y29375000D01*
X32500000Y30125000D01*
X32501204Y30149504D01*
X32504804Y30173773D01*
X32510765Y30197571D01*
X32519030Y30220671D01*
X32529520Y30242849D01*
X32542133Y30263893D01*
X32556747Y30283598D01*
X32573223Y30301777D01*
X32591402Y30318253D01*
X32611107Y30332867D01*
X32632151Y30345480D01*
X32654329Y30355970D01*
X32677429Y30364235D01*
X32701227Y30370196D01*
X32725496Y30373796D01*
X32750000Y30375000D01*
X33250000Y30375000D01*
X33274504Y30373796D01*
G37*
G36*
X7024504Y32623796D02*
G01*
X7048773Y32620196D01*
X7072571Y32614235D01*
X7095671Y32605970D01*
X7117849Y32595480D01*
X7138893Y32582867D01*
X7158598Y32568253D01*
X7176777Y32551777D01*
X7193253Y32533598D01*
X7207867Y32513893D01*
X7220480Y32492849D01*
X7230970Y32470671D01*
X7239235Y32447571D01*
X7245196Y32423773D01*
X7248796Y32399504D01*
X7250000Y32375000D01*
X7250000Y31625000D01*
X7248796Y31600496D01*
X7245196Y31576227D01*
X7239235Y31552429D01*
X7230970Y31529329D01*
X7220480Y31507151D01*
X7207867Y31486107D01*
X7193253Y31466402D01*
X7176777Y31448223D01*
X7158598Y31431747D01*
X7138893Y31417133D01*
X7117849Y31404520D01*
X7095671Y31394030D01*
X7072571Y31385765D01*
X7048773Y31379804D01*
X7024504Y31376204D01*
X7000000Y31375000D01*
X6500000Y31375000D01*
X6475496Y31376204D01*
X6451227Y31379804D01*
X6427429Y31385765D01*
X6404329Y31394030D01*
X6382151Y31404520D01*
X6361107Y31417133D01*
X6341402Y31431747D01*
X6323223Y31448223D01*
X6306747Y31466402D01*
X6292133Y31486107D01*
X6279520Y31507151D01*
X6269030Y31529329D01*
X6260765Y31552429D01*
X6254804Y31576227D01*
X6251204Y31600496D01*
X6250000Y31625000D01*
X6250000Y32375000D01*
X6251204Y32399504D01*
X6254804Y32423773D01*
X6260765Y32447571D01*
X6269030Y32470671D01*
X6279520Y32492849D01*
X6292133Y32513893D01*
X6306747Y32533598D01*
X6323223Y32551777D01*
X6341402Y32568253D01*
X6361107Y32582867D01*
X6382151Y32595480D01*
X6404329Y32605970D01*
X6427429Y32614235D01*
X6451227Y32620196D01*
X6475496Y32623796D01*
X6500000Y32625000D01*
X7000000Y32625000D01*
X7024504Y32623796D01*
G37*
G36*
X5024504Y32623796D02*
G01*
X5048773Y32620196D01*
X5072571Y32614235D01*
X5095671Y32605970D01*
X5117849Y32595480D01*
X5138893Y32582867D01*
X5158598Y32568253D01*
X5176777Y32551777D01*
X5193253Y32533598D01*
X5207867Y32513893D01*
X5220480Y32492849D01*
X5230970Y32470671D01*
X5239235Y32447571D01*
X5245196Y32423773D01*
X5248796Y32399504D01*
X5250000Y32375000D01*
X5250000Y31625000D01*
X5248796Y31600496D01*
X5245196Y31576227D01*
X5239235Y31552429D01*
X5230970Y31529329D01*
X5220480Y31507151D01*
X5207867Y31486107D01*
X5193253Y31466402D01*
X5176777Y31448223D01*
X5158598Y31431747D01*
X5138893Y31417133D01*
X5117849Y31404520D01*
X5095671Y31394030D01*
X5072571Y31385765D01*
X5048773Y31379804D01*
X5024504Y31376204D01*
X5000000Y31375000D01*
X4500000Y31375000D01*
X4475496Y31376204D01*
X4451227Y31379804D01*
X4427429Y31385765D01*
X4404329Y31394030D01*
X4382151Y31404520D01*
X4361107Y31417133D01*
X4341402Y31431747D01*
X4323223Y31448223D01*
X4306747Y31466402D01*
X4292133Y31486107D01*
X4279520Y31507151D01*
X4269030Y31529329D01*
X4260765Y31552429D01*
X4254804Y31576227D01*
X4251204Y31600496D01*
X4250000Y31625000D01*
X4250000Y32375000D01*
X4251204Y32399504D01*
X4254804Y32423773D01*
X4260765Y32447571D01*
X4269030Y32470671D01*
X4279520Y32492849D01*
X4292133Y32513893D01*
X4306747Y32533598D01*
X4323223Y32551777D01*
X4341402Y32568253D01*
X4361107Y32582867D01*
X4382151Y32595480D01*
X4404329Y32605970D01*
X4427429Y32614235D01*
X4451227Y32620196D01*
X4475496Y32623796D01*
X4500000Y32625000D01*
X5000000Y32625000D01*
X5024504Y32623796D01*
G37*
G36*
X53899504Y12748796D02*
G01*
X53923773Y12745196D01*
X53947571Y12739235D01*
X53970671Y12730970D01*
X53992849Y12720480D01*
X54013893Y12707867D01*
X54033598Y12693253D01*
X54051777Y12676777D01*
X54068253Y12658598D01*
X54082867Y12638893D01*
X54095480Y12617849D01*
X54105970Y12595671D01*
X54114235Y12572571D01*
X54120196Y12548773D01*
X54123796Y12524504D01*
X54125000Y12500000D01*
X54125000Y12000000D01*
X54123796Y11975496D01*
X54120196Y11951227D01*
X54114235Y11927429D01*
X54105970Y11904329D01*
X54095480Y11882151D01*
X54082867Y11861107D01*
X54068253Y11841402D01*
X54051777Y11823223D01*
X54033598Y11806747D01*
X54013893Y11792133D01*
X53992849Y11779520D01*
X53970671Y11769030D01*
X53947571Y11760765D01*
X53923773Y11754804D01*
X53899504Y11751204D01*
X53875000Y11750000D01*
X53125000Y11750000D01*
X53100496Y11751204D01*
X53076227Y11754804D01*
X53052429Y11760765D01*
X53029329Y11769030D01*
X53007151Y11779520D01*
X52986107Y11792133D01*
X52966402Y11806747D01*
X52948223Y11823223D01*
X52931747Y11841402D01*
X52917133Y11861107D01*
X52904520Y11882151D01*
X52894030Y11904329D01*
X52885765Y11927429D01*
X52879804Y11951227D01*
X52876204Y11975496D01*
X52875000Y12000000D01*
X52875000Y12500000D01*
X52876204Y12524504D01*
X52879804Y12548773D01*
X52885765Y12572571D01*
X52894030Y12595671D01*
X52904520Y12617849D01*
X52917133Y12638893D01*
X52931747Y12658598D01*
X52948223Y12676777D01*
X52966402Y12693253D01*
X52986107Y12707867D01*
X53007151Y12720480D01*
X53029329Y12730970D01*
X53052429Y12739235D01*
X53076227Y12745196D01*
X53100496Y12748796D01*
X53125000Y12750000D01*
X53875000Y12750000D01*
X53899504Y12748796D01*
G37*
G36*
X53899504Y14748796D02*
G01*
X53923773Y14745196D01*
X53947571Y14739235D01*
X53970671Y14730970D01*
X53992849Y14720480D01*
X54013893Y14707867D01*
X54033598Y14693253D01*
X54051777Y14676777D01*
X54068253Y14658598D01*
X54082867Y14638893D01*
X54095480Y14617849D01*
X54105970Y14595671D01*
X54114235Y14572571D01*
X54120196Y14548773D01*
X54123796Y14524504D01*
X54125000Y14500000D01*
X54125000Y14000000D01*
X54123796Y13975496D01*
X54120196Y13951227D01*
X54114235Y13927429D01*
X54105970Y13904329D01*
X54095480Y13882151D01*
X54082867Y13861107D01*
X54068253Y13841402D01*
X54051777Y13823223D01*
X54033598Y13806747D01*
X54013893Y13792133D01*
X53992849Y13779520D01*
X53970671Y13769030D01*
X53947571Y13760765D01*
X53923773Y13754804D01*
X53899504Y13751204D01*
X53875000Y13750000D01*
X53125000Y13750000D01*
X53100496Y13751204D01*
X53076227Y13754804D01*
X53052429Y13760765D01*
X53029329Y13769030D01*
X53007151Y13779520D01*
X52986107Y13792133D01*
X52966402Y13806747D01*
X52948223Y13823223D01*
X52931747Y13841402D01*
X52917133Y13861107D01*
X52904520Y13882151D01*
X52894030Y13904329D01*
X52885765Y13927429D01*
X52879804Y13951227D01*
X52876204Y13975496D01*
X52875000Y14000000D01*
X52875000Y14500000D01*
X52876204Y14524504D01*
X52879804Y14548773D01*
X52885765Y14572571D01*
X52894030Y14595671D01*
X52904520Y14617849D01*
X52917133Y14638893D01*
X52931747Y14658598D01*
X52948223Y14676777D01*
X52966402Y14693253D01*
X52986107Y14707867D01*
X53007151Y14720480D01*
X53029329Y14730970D01*
X53052429Y14739235D01*
X53076227Y14745196D01*
X53100496Y14748796D01*
X53125000Y14750000D01*
X53875000Y14750000D01*
X53899504Y14748796D01*
G37*
G36*
X53911756Y20748194D02*
G01*
X53948159Y20742794D01*
X53983857Y20733853D01*
X54018506Y20721455D01*
X54051774Y20705720D01*
X54083339Y20686801D01*
X54112897Y20664879D01*
X54140165Y20640165D01*
X54164879Y20612897D01*
X54186801Y20583339D01*
X54205720Y20551774D01*
X54221455Y20518506D01*
X54233853Y20483857D01*
X54242794Y20448159D01*
X54248194Y20411756D01*
X54250000Y20375000D01*
X54250000Y19625000D01*
X54248194Y19588244D01*
X54242794Y19551841D01*
X54233853Y19516143D01*
X54221455Y19481494D01*
X54205720Y19448226D01*
X54186801Y19416661D01*
X54164879Y19387103D01*
X54140165Y19359835D01*
X54112897Y19335121D01*
X54083339Y19313199D01*
X54051774Y19294280D01*
X54018506Y19278545D01*
X53983857Y19266147D01*
X53948159Y19257206D01*
X53911756Y19251806D01*
X53875000Y19250000D01*
X52625000Y19250000D01*
X52588244Y19251806D01*
X52551841Y19257206D01*
X52516143Y19266147D01*
X52481494Y19278545D01*
X52448226Y19294280D01*
X52416661Y19313199D01*
X52387103Y19335121D01*
X52359835Y19359835D01*
X52335121Y19387103D01*
X52313199Y19416661D01*
X52294280Y19448226D01*
X52278545Y19481494D01*
X52266147Y19516143D01*
X52257206Y19551841D01*
X52251806Y19588244D01*
X52250000Y19625000D01*
X52250000Y20375000D01*
X52251806Y20411756D01*
X52257206Y20448159D01*
X52266147Y20483857D01*
X52278545Y20518506D01*
X52294280Y20551774D01*
X52313199Y20583339D01*
X52335121Y20612897D01*
X52359835Y20640165D01*
X52387103Y20664879D01*
X52416661Y20686801D01*
X52448226Y20705720D01*
X52481494Y20721455D01*
X52516143Y20733853D01*
X52551841Y20742794D01*
X52588244Y20748194D01*
X52625000Y20750000D01*
X53875000Y20750000D01*
X53911756Y20748194D01*
G37*
G36*
X53911756Y24748194D02*
G01*
X53948159Y24742794D01*
X53983857Y24733853D01*
X54018506Y24721455D01*
X54051774Y24705720D01*
X54083339Y24686801D01*
X54112897Y24664879D01*
X54140165Y24640165D01*
X54164879Y24612897D01*
X54186801Y24583339D01*
X54205720Y24551774D01*
X54221455Y24518506D01*
X54233853Y24483857D01*
X54242794Y24448159D01*
X54248194Y24411756D01*
X54250000Y24375000D01*
X54250000Y23625000D01*
X54248194Y23588244D01*
X54242794Y23551841D01*
X54233853Y23516143D01*
X54221455Y23481494D01*
X54205720Y23448226D01*
X54186801Y23416661D01*
X54164879Y23387103D01*
X54140165Y23359835D01*
X54112897Y23335121D01*
X54083339Y23313199D01*
X54051774Y23294280D01*
X54018506Y23278545D01*
X53983857Y23266147D01*
X53948159Y23257206D01*
X53911756Y23251806D01*
X53875000Y23250000D01*
X52625000Y23250000D01*
X52588244Y23251806D01*
X52551841Y23257206D01*
X52516143Y23266147D01*
X52481494Y23278545D01*
X52448226Y23294280D01*
X52416661Y23313199D01*
X52387103Y23335121D01*
X52359835Y23359835D01*
X52335121Y23387103D01*
X52313199Y23416661D01*
X52294280Y23448226D01*
X52278545Y23481494D01*
X52266147Y23516143D01*
X52257206Y23551841D01*
X52251806Y23588244D01*
X52250000Y23625000D01*
X52250000Y24375000D01*
X52251806Y24411756D01*
X52257206Y24448159D01*
X52266147Y24483857D01*
X52278545Y24518506D01*
X52294280Y24551774D01*
X52313199Y24583339D01*
X52335121Y24612897D01*
X52359835Y24640165D01*
X52387103Y24664879D01*
X52416661Y24686801D01*
X52448226Y24705720D01*
X52481494Y24721455D01*
X52516143Y24733853D01*
X52551841Y24742794D01*
X52588244Y24748194D01*
X52625000Y24750000D01*
X53875000Y24750000D01*
X53911756Y24748194D01*
G37*
D15*
X18300000Y18500000D03*
X33700000Y18500000D03*
D10*
G36*
X25449505Y32348796D02*
G01*
X25473773Y32345196D01*
X25497572Y32339235D01*
X25520671Y32330970D01*
X25542850Y32320480D01*
X25563893Y32307868D01*
X25583599Y32293253D01*
X25601777Y32276777D01*
X25618253Y32258599D01*
X25632868Y32238893D01*
X25645480Y32217850D01*
X25655970Y32195671D01*
X25664235Y32172572D01*
X25670196Y32148773D01*
X25673796Y32124505D01*
X25675000Y32100001D01*
X25675000Y31024999D01*
X25673796Y31000495D01*
X25670196Y30976227D01*
X25664235Y30952428D01*
X25655970Y30929329D01*
X25645480Y30907150D01*
X25632868Y30886107D01*
X25618253Y30866401D01*
X25601777Y30848223D01*
X25583599Y30831747D01*
X25563893Y30817132D01*
X25542850Y30804520D01*
X25520671Y30794030D01*
X25497572Y30785765D01*
X25473773Y30779804D01*
X25449505Y30776204D01*
X25425001Y30775000D01*
X24574999Y30775000D01*
X24550495Y30776204D01*
X24526227Y30779804D01*
X24502428Y30785765D01*
X24479329Y30794030D01*
X24457150Y30804520D01*
X24436107Y30817132D01*
X24416401Y30831747D01*
X24398223Y30848223D01*
X24381747Y30866401D01*
X24367132Y30886107D01*
X24354520Y30907150D01*
X24344030Y30929329D01*
X24335765Y30952428D01*
X24329804Y30976227D01*
X24326204Y31000495D01*
X24325000Y31024999D01*
X24325000Y32100001D01*
X24326204Y32124505D01*
X24329804Y32148773D01*
X24335765Y32172572D01*
X24344030Y32195671D01*
X24354520Y32217850D01*
X24367132Y32238893D01*
X24381747Y32258599D01*
X24398223Y32276777D01*
X24416401Y32293253D01*
X24436107Y32307868D01*
X24457150Y32320480D01*
X24479329Y32330970D01*
X24502428Y32339235D01*
X24526227Y32345196D01*
X24550495Y32348796D01*
X24574999Y32350000D01*
X25425001Y32350000D01*
X25449505Y32348796D01*
G37*
G36*
X25449505Y35223796D02*
G01*
X25473773Y35220196D01*
X25497572Y35214235D01*
X25520671Y35205970D01*
X25542850Y35195480D01*
X25563893Y35182868D01*
X25583599Y35168253D01*
X25601777Y35151777D01*
X25618253Y35133599D01*
X25632868Y35113893D01*
X25645480Y35092850D01*
X25655970Y35070671D01*
X25664235Y35047572D01*
X25670196Y35023773D01*
X25673796Y34999505D01*
X25675000Y34975001D01*
X25675000Y33899999D01*
X25673796Y33875495D01*
X25670196Y33851227D01*
X25664235Y33827428D01*
X25655970Y33804329D01*
X25645480Y33782150D01*
X25632868Y33761107D01*
X25618253Y33741401D01*
X25601777Y33723223D01*
X25583599Y33706747D01*
X25563893Y33692132D01*
X25542850Y33679520D01*
X25520671Y33669030D01*
X25497572Y33660765D01*
X25473773Y33654804D01*
X25449505Y33651204D01*
X25425001Y33650000D01*
X24574999Y33650000D01*
X24550495Y33651204D01*
X24526227Y33654804D01*
X24502428Y33660765D01*
X24479329Y33669030D01*
X24457150Y33679520D01*
X24436107Y33692132D01*
X24416401Y33706747D01*
X24398223Y33723223D01*
X24381747Y33741401D01*
X24367132Y33761107D01*
X24354520Y33782150D01*
X24344030Y33804329D01*
X24335765Y33827428D01*
X24329804Y33851227D01*
X24326204Y33875495D01*
X24325000Y33899999D01*
X24325000Y34975001D01*
X24326204Y34999505D01*
X24329804Y35023773D01*
X24335765Y35047572D01*
X24344030Y35070671D01*
X24354520Y35092850D01*
X24367132Y35113893D01*
X24381747Y35133599D01*
X24398223Y35151777D01*
X24416401Y35168253D01*
X24436107Y35182868D01*
X24457150Y35195480D01*
X24479329Y35205970D01*
X24502428Y35214235D01*
X24526227Y35220196D01*
X24550495Y35223796D01*
X24574999Y35225000D01*
X25425001Y35225000D01*
X25449505Y35223796D01*
G37*
D14*
X39500000Y13900000D03*
X39500000Y9600000D03*
D10*
G36*
X28449505Y32348796D02*
G01*
X28473773Y32345196D01*
X28497572Y32339235D01*
X28520671Y32330970D01*
X28542850Y32320480D01*
X28563893Y32307868D01*
X28583599Y32293253D01*
X28601777Y32276777D01*
X28618253Y32258599D01*
X28632868Y32238893D01*
X28645480Y32217850D01*
X28655970Y32195671D01*
X28664235Y32172572D01*
X28670196Y32148773D01*
X28673796Y32124505D01*
X28675000Y32100001D01*
X28675000Y31024999D01*
X28673796Y31000495D01*
X28670196Y30976227D01*
X28664235Y30952428D01*
X28655970Y30929329D01*
X28645480Y30907150D01*
X28632868Y30886107D01*
X28618253Y30866401D01*
X28601777Y30848223D01*
X28583599Y30831747D01*
X28563893Y30817132D01*
X28542850Y30804520D01*
X28520671Y30794030D01*
X28497572Y30785765D01*
X28473773Y30779804D01*
X28449505Y30776204D01*
X28425001Y30775000D01*
X27574999Y30775000D01*
X27550495Y30776204D01*
X27526227Y30779804D01*
X27502428Y30785765D01*
X27479329Y30794030D01*
X27457150Y30804520D01*
X27436107Y30817132D01*
X27416401Y30831747D01*
X27398223Y30848223D01*
X27381747Y30866401D01*
X27367132Y30886107D01*
X27354520Y30907150D01*
X27344030Y30929329D01*
X27335765Y30952428D01*
X27329804Y30976227D01*
X27326204Y31000495D01*
X27325000Y31024999D01*
X27325000Y32100001D01*
X27326204Y32124505D01*
X27329804Y32148773D01*
X27335765Y32172572D01*
X27344030Y32195671D01*
X27354520Y32217850D01*
X27367132Y32238893D01*
X27381747Y32258599D01*
X27398223Y32276777D01*
X27416401Y32293253D01*
X27436107Y32307868D01*
X27457150Y32320480D01*
X27479329Y32330970D01*
X27502428Y32339235D01*
X27526227Y32345196D01*
X27550495Y32348796D01*
X27574999Y32350000D01*
X28425001Y32350000D01*
X28449505Y32348796D01*
G37*
G36*
X28449505Y35223796D02*
G01*
X28473773Y35220196D01*
X28497572Y35214235D01*
X28520671Y35205970D01*
X28542850Y35195480D01*
X28563893Y35182868D01*
X28583599Y35168253D01*
X28601777Y35151777D01*
X28618253Y35133599D01*
X28632868Y35113893D01*
X28645480Y35092850D01*
X28655970Y35070671D01*
X28664235Y35047572D01*
X28670196Y35023773D01*
X28673796Y34999505D01*
X28675000Y34975001D01*
X28675000Y33899999D01*
X28673796Y33875495D01*
X28670196Y33851227D01*
X28664235Y33827428D01*
X28655970Y33804329D01*
X28645480Y33782150D01*
X28632868Y33761107D01*
X28618253Y33741401D01*
X28601777Y33723223D01*
X28583599Y33706747D01*
X28563893Y33692132D01*
X28542850Y33679520D01*
X28520671Y33669030D01*
X28497572Y33660765D01*
X28473773Y33654804D01*
X28449505Y33651204D01*
X28425001Y33650000D01*
X27574999Y33650000D01*
X27550495Y33651204D01*
X27526227Y33654804D01*
X27502428Y33660765D01*
X27479329Y33669030D01*
X27457150Y33679520D01*
X27436107Y33692132D01*
X27416401Y33706747D01*
X27398223Y33723223D01*
X27381747Y33741401D01*
X27367132Y33761107D01*
X27354520Y33782150D01*
X27344030Y33804329D01*
X27335765Y33827428D01*
X27329804Y33851227D01*
X27326204Y33875495D01*
X27325000Y33899999D01*
X27325000Y34975001D01*
X27326204Y34999505D01*
X27329804Y35023773D01*
X27335765Y35047572D01*
X27344030Y35070671D01*
X27354520Y35092850D01*
X27367132Y35113893D01*
X27381747Y35133599D01*
X27398223Y35151777D01*
X27416401Y35168253D01*
X27436107Y35182868D01*
X27457150Y35195480D01*
X27479329Y35205970D01*
X27502428Y35214235D01*
X27526227Y35220196D01*
X27550495Y35223796D01*
X27574999Y35225000D01*
X28425001Y35225000D01*
X28449505Y35223796D01*
G37*
G36*
X29424504Y41698796D02*
G01*
X29448773Y41695196D01*
X29472571Y41689235D01*
X29495671Y41680970D01*
X29517849Y41670480D01*
X29538893Y41657867D01*
X29558598Y41643253D01*
X29576777Y41626777D01*
X29593253Y41608598D01*
X29607867Y41588893D01*
X29620480Y41567849D01*
X29630970Y41545671D01*
X29639235Y41522571D01*
X29645196Y41498773D01*
X29648796Y41474504D01*
X29650000Y41450000D01*
X29650000Y40625000D01*
X29648796Y40600496D01*
X29645196Y40576227D01*
X29639235Y40552429D01*
X29630970Y40529329D01*
X29620480Y40507151D01*
X29607867Y40486107D01*
X29593253Y40466402D01*
X29576777Y40448223D01*
X29558598Y40431747D01*
X29538893Y40417133D01*
X29517849Y40404520D01*
X29495671Y40394030D01*
X29472571Y40385765D01*
X29448773Y40379804D01*
X29424504Y40376204D01*
X29400000Y40375000D01*
X28600000Y40375000D01*
X28575496Y40376204D01*
X28551227Y40379804D01*
X28527429Y40385765D01*
X28504329Y40394030D01*
X28482151Y40404520D01*
X28461107Y40417133D01*
X28441402Y40431747D01*
X28423223Y40448223D01*
X28406747Y40466402D01*
X28392133Y40486107D01*
X28379520Y40507151D01*
X28369030Y40529329D01*
X28360765Y40552429D01*
X28354804Y40576227D01*
X28351204Y40600496D01*
X28350000Y40625000D01*
X28350000Y41450000D01*
X28351204Y41474504D01*
X28354804Y41498773D01*
X28360765Y41522571D01*
X28369030Y41545671D01*
X28379520Y41567849D01*
X28392133Y41588893D01*
X28406747Y41608598D01*
X28423223Y41626777D01*
X28441402Y41643253D01*
X28461107Y41657867D01*
X28482151Y41670480D01*
X28504329Y41680970D01*
X28527429Y41689235D01*
X28551227Y41695196D01*
X28575496Y41698796D01*
X28600000Y41700000D01*
X29400000Y41700000D01*
X29424504Y41698796D01*
G37*
G36*
X29424504Y43623796D02*
G01*
X29448773Y43620196D01*
X29472571Y43614235D01*
X29495671Y43605970D01*
X29517849Y43595480D01*
X29538893Y43582867D01*
X29558598Y43568253D01*
X29576777Y43551777D01*
X29593253Y43533598D01*
X29607867Y43513893D01*
X29620480Y43492849D01*
X29630970Y43470671D01*
X29639235Y43447571D01*
X29645196Y43423773D01*
X29648796Y43399504D01*
X29650000Y43375000D01*
X29650000Y42550000D01*
X29648796Y42525496D01*
X29645196Y42501227D01*
X29639235Y42477429D01*
X29630970Y42454329D01*
X29620480Y42432151D01*
X29607867Y42411107D01*
X29593253Y42391402D01*
X29576777Y42373223D01*
X29558598Y42356747D01*
X29538893Y42342133D01*
X29517849Y42329520D01*
X29495671Y42319030D01*
X29472571Y42310765D01*
X29448773Y42304804D01*
X29424504Y42301204D01*
X29400000Y42300000D01*
X28600000Y42300000D01*
X28575496Y42301204D01*
X28551227Y42304804D01*
X28527429Y42310765D01*
X28504329Y42319030D01*
X28482151Y42329520D01*
X28461107Y42342133D01*
X28441402Y42356747D01*
X28423223Y42373223D01*
X28406747Y42391402D01*
X28392133Y42411107D01*
X28379520Y42432151D01*
X28369030Y42454329D01*
X28360765Y42477429D01*
X28354804Y42501227D01*
X28351204Y42525496D01*
X28350000Y42550000D01*
X28350000Y43375000D01*
X28351204Y43399504D01*
X28354804Y43423773D01*
X28360765Y43447571D01*
X28369030Y43470671D01*
X28379520Y43492849D01*
X28392133Y43513893D01*
X28406747Y43533598D01*
X28423223Y43551777D01*
X28441402Y43568253D01*
X28461107Y43582867D01*
X28482151Y43595480D01*
X28504329Y43605970D01*
X28527429Y43614235D01*
X28551227Y43620196D01*
X28575496Y43623796D01*
X28600000Y43625000D01*
X29400000Y43625000D01*
X29424504Y43623796D01*
G37*
G36*
X26924504Y41698796D02*
G01*
X26948773Y41695196D01*
X26972571Y41689235D01*
X26995671Y41680970D01*
X27017849Y41670480D01*
X27038893Y41657867D01*
X27058598Y41643253D01*
X27076777Y41626777D01*
X27093253Y41608598D01*
X27107867Y41588893D01*
X27120480Y41567849D01*
X27130970Y41545671D01*
X27139235Y41522571D01*
X27145196Y41498773D01*
X27148796Y41474504D01*
X27150000Y41450000D01*
X27150000Y40625000D01*
X27148796Y40600496D01*
X27145196Y40576227D01*
X27139235Y40552429D01*
X27130970Y40529329D01*
X27120480Y40507151D01*
X27107867Y40486107D01*
X27093253Y40466402D01*
X27076777Y40448223D01*
X27058598Y40431747D01*
X27038893Y40417133D01*
X27017849Y40404520D01*
X26995671Y40394030D01*
X26972571Y40385765D01*
X26948773Y40379804D01*
X26924504Y40376204D01*
X26900000Y40375000D01*
X26100000Y40375000D01*
X26075496Y40376204D01*
X26051227Y40379804D01*
X26027429Y40385765D01*
X26004329Y40394030D01*
X25982151Y40404520D01*
X25961107Y40417133D01*
X25941402Y40431747D01*
X25923223Y40448223D01*
X25906747Y40466402D01*
X25892133Y40486107D01*
X25879520Y40507151D01*
X25869030Y40529329D01*
X25860765Y40552429D01*
X25854804Y40576227D01*
X25851204Y40600496D01*
X25850000Y40625000D01*
X25850000Y41450000D01*
X25851204Y41474504D01*
X25854804Y41498773D01*
X25860765Y41522571D01*
X25869030Y41545671D01*
X25879520Y41567849D01*
X25892133Y41588893D01*
X25906747Y41608598D01*
X25923223Y41626777D01*
X25941402Y41643253D01*
X25961107Y41657867D01*
X25982151Y41670480D01*
X26004329Y41680970D01*
X26027429Y41689235D01*
X26051227Y41695196D01*
X26075496Y41698796D01*
X26100000Y41700000D01*
X26900000Y41700000D01*
X26924504Y41698796D01*
G37*
G36*
X26924504Y43623796D02*
G01*
X26948773Y43620196D01*
X26972571Y43614235D01*
X26995671Y43605970D01*
X27017849Y43595480D01*
X27038893Y43582867D01*
X27058598Y43568253D01*
X27076777Y43551777D01*
X27093253Y43533598D01*
X27107867Y43513893D01*
X27120480Y43492849D01*
X27130970Y43470671D01*
X27139235Y43447571D01*
X27145196Y43423773D01*
X27148796Y43399504D01*
X27150000Y43375000D01*
X27150000Y42550000D01*
X27148796Y42525496D01*
X27145196Y42501227D01*
X27139235Y42477429D01*
X27130970Y42454329D01*
X27120480Y42432151D01*
X27107867Y42411107D01*
X27093253Y42391402D01*
X27076777Y42373223D01*
X27058598Y42356747D01*
X27038893Y42342133D01*
X27017849Y42329520D01*
X26995671Y42319030D01*
X26972571Y42310765D01*
X26948773Y42304804D01*
X26924504Y42301204D01*
X26900000Y42300000D01*
X26100000Y42300000D01*
X26075496Y42301204D01*
X26051227Y42304804D01*
X26027429Y42310765D01*
X26004329Y42319030D01*
X25982151Y42329520D01*
X25961107Y42342133D01*
X25941402Y42356747D01*
X25923223Y42373223D01*
X25906747Y42391402D01*
X25892133Y42411107D01*
X25879520Y42432151D01*
X25869030Y42454329D01*
X25860765Y42477429D01*
X25854804Y42501227D01*
X25851204Y42525496D01*
X25850000Y42550000D01*
X25850000Y43375000D01*
X25851204Y43399504D01*
X25854804Y43423773D01*
X25860765Y43447571D01*
X25869030Y43470671D01*
X25879520Y43492849D01*
X25892133Y43513893D01*
X25906747Y43533598D01*
X25923223Y43551777D01*
X25941402Y43568253D01*
X25961107Y43582867D01*
X25982151Y43595480D01*
X26004329Y43605970D01*
X26027429Y43614235D01*
X26051227Y43620196D01*
X26075496Y43623796D01*
X26100000Y43625000D01*
X26900000Y43625000D01*
X26924504Y43623796D01*
G37*
D13*
X23225000Y19550000D03*
X28775000Y14700000D03*
X28775000Y19550000D03*
X23225000Y14700000D03*
D12*
X23460000Y26275000D03*
X28540000Y26275000D03*
D11*
X17770000Y34020000D03*
X17770000Y32750000D03*
X17770000Y31480000D03*
X9230000Y31480000D03*
X9230000Y32750000D03*
X9230000Y34020000D03*
D10*
G36*
X49899504Y30748796D02*
G01*
X49923773Y30745196D01*
X49947571Y30739235D01*
X49970671Y30730970D01*
X49992849Y30720480D01*
X50013893Y30707867D01*
X50033598Y30693253D01*
X50051777Y30676777D01*
X50068253Y30658598D01*
X50082867Y30638893D01*
X50095480Y30617849D01*
X50105970Y30595671D01*
X50114235Y30572571D01*
X50120196Y30548773D01*
X50123796Y30524504D01*
X50125000Y30500000D01*
X50125000Y30000000D01*
X50123796Y29975496D01*
X50120196Y29951227D01*
X50114235Y29927429D01*
X50105970Y29904329D01*
X50095480Y29882151D01*
X50082867Y29861107D01*
X50068253Y29841402D01*
X50051777Y29823223D01*
X50033598Y29806747D01*
X50013893Y29792133D01*
X49992849Y29779520D01*
X49970671Y29769030D01*
X49947571Y29760765D01*
X49923773Y29754804D01*
X49899504Y29751204D01*
X49875000Y29750000D01*
X49125000Y29750000D01*
X49100496Y29751204D01*
X49076227Y29754804D01*
X49052429Y29760765D01*
X49029329Y29769030D01*
X49007151Y29779520D01*
X48986107Y29792133D01*
X48966402Y29806747D01*
X48948223Y29823223D01*
X48931747Y29841402D01*
X48917133Y29861107D01*
X48904520Y29882151D01*
X48894030Y29904329D01*
X48885765Y29927429D01*
X48879804Y29951227D01*
X48876204Y29975496D01*
X48875000Y30000000D01*
X48875000Y30500000D01*
X48876204Y30524504D01*
X48879804Y30548773D01*
X48885765Y30572571D01*
X48894030Y30595671D01*
X48904520Y30617849D01*
X48917133Y30638893D01*
X48931747Y30658598D01*
X48948223Y30676777D01*
X48966402Y30693253D01*
X48986107Y30707867D01*
X49007151Y30720480D01*
X49029329Y30730970D01*
X49052429Y30739235D01*
X49076227Y30745196D01*
X49100496Y30748796D01*
X49125000Y30750000D01*
X49875000Y30750000D01*
X49899504Y30748796D01*
G37*
G36*
X49899504Y32748796D02*
G01*
X49923773Y32745196D01*
X49947571Y32739235D01*
X49970671Y32730970D01*
X49992849Y32720480D01*
X50013893Y32707867D01*
X50033598Y32693253D01*
X50051777Y32676777D01*
X50068253Y32658598D01*
X50082867Y32638893D01*
X50095480Y32617849D01*
X50105970Y32595671D01*
X50114235Y32572571D01*
X50120196Y32548773D01*
X50123796Y32524504D01*
X50125000Y32500000D01*
X50125000Y32000000D01*
X50123796Y31975496D01*
X50120196Y31951227D01*
X50114235Y31927429D01*
X50105970Y31904329D01*
X50095480Y31882151D01*
X50082867Y31861107D01*
X50068253Y31841402D01*
X50051777Y31823223D01*
X50033598Y31806747D01*
X50013893Y31792133D01*
X49992849Y31779520D01*
X49970671Y31769030D01*
X49947571Y31760765D01*
X49923773Y31754804D01*
X49899504Y31751204D01*
X49875000Y31750000D01*
X49125000Y31750000D01*
X49100496Y31751204D01*
X49076227Y31754804D01*
X49052429Y31760765D01*
X49029329Y31769030D01*
X49007151Y31779520D01*
X48986107Y31792133D01*
X48966402Y31806747D01*
X48948223Y31823223D01*
X48931747Y31841402D01*
X48917133Y31861107D01*
X48904520Y31882151D01*
X48894030Y31904329D01*
X48885765Y31927429D01*
X48879804Y31951227D01*
X48876204Y31975496D01*
X48875000Y32000000D01*
X48875000Y32500000D01*
X48876204Y32524504D01*
X48879804Y32548773D01*
X48885765Y32572571D01*
X48894030Y32595671D01*
X48904520Y32617849D01*
X48917133Y32638893D01*
X48931747Y32658598D01*
X48948223Y32676777D01*
X48966402Y32693253D01*
X48986107Y32707867D01*
X49007151Y32720480D01*
X49029329Y32730970D01*
X49052429Y32739235D01*
X49076227Y32745196D01*
X49100496Y32748796D01*
X49125000Y32750000D01*
X49875000Y32750000D01*
X49899504Y32748796D01*
G37*
G36*
X50524504Y34873796D02*
G01*
X50548773Y34870196D01*
X50572571Y34864235D01*
X50595671Y34855970D01*
X50617849Y34845480D01*
X50638893Y34832867D01*
X50658598Y34818253D01*
X50676777Y34801777D01*
X50693253Y34783598D01*
X50707867Y34763893D01*
X50720480Y34742849D01*
X50730970Y34720671D01*
X50739235Y34697571D01*
X50745196Y34673773D01*
X50748796Y34649504D01*
X50750000Y34625000D01*
X50750000Y33875000D01*
X50748796Y33850496D01*
X50745196Y33826227D01*
X50739235Y33802429D01*
X50730970Y33779329D01*
X50720480Y33757151D01*
X50707867Y33736107D01*
X50693253Y33716402D01*
X50676777Y33698223D01*
X50658598Y33681747D01*
X50638893Y33667133D01*
X50617849Y33654520D01*
X50595671Y33644030D01*
X50572571Y33635765D01*
X50548773Y33629804D01*
X50524504Y33626204D01*
X50500000Y33625000D01*
X50000000Y33625000D01*
X49975496Y33626204D01*
X49951227Y33629804D01*
X49927429Y33635765D01*
X49904329Y33644030D01*
X49882151Y33654520D01*
X49861107Y33667133D01*
X49841402Y33681747D01*
X49823223Y33698223D01*
X49806747Y33716402D01*
X49792133Y33736107D01*
X49779520Y33757151D01*
X49769030Y33779329D01*
X49760765Y33802429D01*
X49754804Y33826227D01*
X49751204Y33850496D01*
X49750000Y33875000D01*
X49750000Y34625000D01*
X49751204Y34649504D01*
X49754804Y34673773D01*
X49760765Y34697571D01*
X49769030Y34720671D01*
X49779520Y34742849D01*
X49792133Y34763893D01*
X49806747Y34783598D01*
X49823223Y34801777D01*
X49841402Y34818253D01*
X49861107Y34832867D01*
X49882151Y34845480D01*
X49904329Y34855970D01*
X49927429Y34864235D01*
X49951227Y34870196D01*
X49975496Y34873796D01*
X50000000Y34875000D01*
X50500000Y34875000D01*
X50524504Y34873796D01*
G37*
G36*
X48524504Y34873796D02*
G01*
X48548773Y34870196D01*
X48572571Y34864235D01*
X48595671Y34855970D01*
X48617849Y34845480D01*
X48638893Y34832867D01*
X48658598Y34818253D01*
X48676777Y34801777D01*
X48693253Y34783598D01*
X48707867Y34763893D01*
X48720480Y34742849D01*
X48730970Y34720671D01*
X48739235Y34697571D01*
X48745196Y34673773D01*
X48748796Y34649504D01*
X48750000Y34625000D01*
X48750000Y33875000D01*
X48748796Y33850496D01*
X48745196Y33826227D01*
X48739235Y33802429D01*
X48730970Y33779329D01*
X48720480Y33757151D01*
X48707867Y33736107D01*
X48693253Y33716402D01*
X48676777Y33698223D01*
X48658598Y33681747D01*
X48638893Y33667133D01*
X48617849Y33654520D01*
X48595671Y33644030D01*
X48572571Y33635765D01*
X48548773Y33629804D01*
X48524504Y33626204D01*
X48500000Y33625000D01*
X48000000Y33625000D01*
X47975496Y33626204D01*
X47951227Y33629804D01*
X47927429Y33635765D01*
X47904329Y33644030D01*
X47882151Y33654520D01*
X47861107Y33667133D01*
X47841402Y33681747D01*
X47823223Y33698223D01*
X47806747Y33716402D01*
X47792133Y33736107D01*
X47779520Y33757151D01*
X47769030Y33779329D01*
X47760765Y33802429D01*
X47754804Y33826227D01*
X47751204Y33850496D01*
X47750000Y33875000D01*
X47750000Y34625000D01*
X47751204Y34649504D01*
X47754804Y34673773D01*
X47760765Y34697571D01*
X47769030Y34720671D01*
X47779520Y34742849D01*
X47792133Y34763893D01*
X47806747Y34783598D01*
X47823223Y34801777D01*
X47841402Y34818253D01*
X47861107Y34832867D01*
X47882151Y34845480D01*
X47904329Y34855970D01*
X47927429Y34864235D01*
X47951227Y34870196D01*
X47975496Y34873796D01*
X48000000Y34875000D01*
X48500000Y34875000D01*
X48524504Y34873796D01*
G37*
G36*
X39649504Y41498796D02*
G01*
X39673773Y41495196D01*
X39697571Y41489235D01*
X39720671Y41480970D01*
X39742849Y41470480D01*
X39763893Y41457867D01*
X39783598Y41443253D01*
X39801777Y41426777D01*
X39818253Y41408598D01*
X39832867Y41388893D01*
X39845480Y41367849D01*
X39855970Y41345671D01*
X39864235Y41322571D01*
X39870196Y41298773D01*
X39873796Y41274504D01*
X39875000Y41250000D01*
X39875000Y40750000D01*
X39873796Y40725496D01*
X39870196Y40701227D01*
X39864235Y40677429D01*
X39855970Y40654329D01*
X39845480Y40632151D01*
X39832867Y40611107D01*
X39818253Y40591402D01*
X39801777Y40573223D01*
X39783598Y40556747D01*
X39763893Y40542133D01*
X39742849Y40529520D01*
X39720671Y40519030D01*
X39697571Y40510765D01*
X39673773Y40504804D01*
X39649504Y40501204D01*
X39625000Y40500000D01*
X38875000Y40500000D01*
X38850496Y40501204D01*
X38826227Y40504804D01*
X38802429Y40510765D01*
X38779329Y40519030D01*
X38757151Y40529520D01*
X38736107Y40542133D01*
X38716402Y40556747D01*
X38698223Y40573223D01*
X38681747Y40591402D01*
X38667133Y40611107D01*
X38654520Y40632151D01*
X38644030Y40654329D01*
X38635765Y40677429D01*
X38629804Y40701227D01*
X38626204Y40725496D01*
X38625000Y40750000D01*
X38625000Y41250000D01*
X38626204Y41274504D01*
X38629804Y41298773D01*
X38635765Y41322571D01*
X38644030Y41345671D01*
X38654520Y41367849D01*
X38667133Y41388893D01*
X38681747Y41408598D01*
X38698223Y41426777D01*
X38716402Y41443253D01*
X38736107Y41457867D01*
X38757151Y41470480D01*
X38779329Y41480970D01*
X38802429Y41489235D01*
X38826227Y41495196D01*
X38850496Y41498796D01*
X38875000Y41500000D01*
X39625000Y41500000D01*
X39649504Y41498796D01*
G37*
G36*
X39649504Y43498796D02*
G01*
X39673773Y43495196D01*
X39697571Y43489235D01*
X39720671Y43480970D01*
X39742849Y43470480D01*
X39763893Y43457867D01*
X39783598Y43443253D01*
X39801777Y43426777D01*
X39818253Y43408598D01*
X39832867Y43388893D01*
X39845480Y43367849D01*
X39855970Y43345671D01*
X39864235Y43322571D01*
X39870196Y43298773D01*
X39873796Y43274504D01*
X39875000Y43250000D01*
X39875000Y42750000D01*
X39873796Y42725496D01*
X39870196Y42701227D01*
X39864235Y42677429D01*
X39855970Y42654329D01*
X39845480Y42632151D01*
X39832867Y42611107D01*
X39818253Y42591402D01*
X39801777Y42573223D01*
X39783598Y42556747D01*
X39763893Y42542133D01*
X39742849Y42529520D01*
X39720671Y42519030D01*
X39697571Y42510765D01*
X39673773Y42504804D01*
X39649504Y42501204D01*
X39625000Y42500000D01*
X38875000Y42500000D01*
X38850496Y42501204D01*
X38826227Y42504804D01*
X38802429Y42510765D01*
X38779329Y42519030D01*
X38757151Y42529520D01*
X38736107Y42542133D01*
X38716402Y42556747D01*
X38698223Y42573223D01*
X38681747Y42591402D01*
X38667133Y42611107D01*
X38654520Y42632151D01*
X38644030Y42654329D01*
X38635765Y42677429D01*
X38629804Y42701227D01*
X38626204Y42725496D01*
X38625000Y42750000D01*
X38625000Y43250000D01*
X38626204Y43274504D01*
X38629804Y43298773D01*
X38635765Y43322571D01*
X38644030Y43345671D01*
X38654520Y43367849D01*
X38667133Y43388893D01*
X38681747Y43408598D01*
X38698223Y43426777D01*
X38716402Y43443253D01*
X38736107Y43457867D01*
X38757151Y43470480D01*
X38779329Y43480970D01*
X38802429Y43489235D01*
X38826227Y43495196D01*
X38850496Y43498796D01*
X38875000Y43500000D01*
X39625000Y43500000D01*
X39649504Y43498796D01*
G37*
G36*
X13911756Y29348194D02*
G01*
X13948159Y29342794D01*
X13983857Y29333853D01*
X14018506Y29321455D01*
X14051774Y29305720D01*
X14083339Y29286801D01*
X14112897Y29264879D01*
X14140165Y29240165D01*
X14164879Y29212897D01*
X14186801Y29183339D01*
X14205720Y29151774D01*
X14221455Y29118506D01*
X14233853Y29083857D01*
X14242794Y29048159D01*
X14248194Y29011756D01*
X14250000Y28975000D01*
X14250000Y26525000D01*
X14248194Y26488244D01*
X14242794Y26451841D01*
X14233853Y26416143D01*
X14221455Y26381494D01*
X14205720Y26348226D01*
X14186801Y26316661D01*
X14164879Y26287103D01*
X14140165Y26259835D01*
X14112897Y26235121D01*
X14083339Y26213199D01*
X14051774Y26194280D01*
X14018506Y26178545D01*
X13983857Y26166147D01*
X13948159Y26157206D01*
X13911756Y26151806D01*
X13875000Y26150000D01*
X13125000Y26150000D01*
X13088244Y26151806D01*
X13051841Y26157206D01*
X13016143Y26166147D01*
X12981494Y26178545D01*
X12948226Y26194280D01*
X12916661Y26213199D01*
X12887103Y26235121D01*
X12859835Y26259835D01*
X12835121Y26287103D01*
X12813199Y26316661D01*
X12794280Y26348226D01*
X12778545Y26381494D01*
X12766147Y26416143D01*
X12757206Y26451841D01*
X12751806Y26488244D01*
X12750000Y26525000D01*
X12750000Y28975000D01*
X12751806Y29011756D01*
X12757206Y29048159D01*
X12766147Y29083857D01*
X12778545Y29118506D01*
X12794280Y29151774D01*
X12813199Y29183339D01*
X12835121Y29212897D01*
X12859835Y29240165D01*
X12887103Y29264879D01*
X12916661Y29286801D01*
X12948226Y29305720D01*
X12981494Y29321455D01*
X13016143Y29333853D01*
X13051841Y29342794D01*
X13088244Y29348194D01*
X13125000Y29350000D01*
X13875000Y29350000D01*
X13911756Y29348194D01*
G37*
G36*
X19411756Y29348194D02*
G01*
X19448159Y29342794D01*
X19483857Y29333853D01*
X19518506Y29321455D01*
X19551774Y29305720D01*
X19583339Y29286801D01*
X19612897Y29264879D01*
X19640165Y29240165D01*
X19664879Y29212897D01*
X19686801Y29183339D01*
X19705720Y29151774D01*
X19721455Y29118506D01*
X19733853Y29083857D01*
X19742794Y29048159D01*
X19748194Y29011756D01*
X19750000Y28975000D01*
X19750000Y26525000D01*
X19748194Y26488244D01*
X19742794Y26451841D01*
X19733853Y26416143D01*
X19721455Y26381494D01*
X19705720Y26348226D01*
X19686801Y26316661D01*
X19664879Y26287103D01*
X19640165Y26259835D01*
X19612897Y26235121D01*
X19583339Y26213199D01*
X19551774Y26194280D01*
X19518506Y26178545D01*
X19483857Y26166147D01*
X19448159Y26157206D01*
X19411756Y26151806D01*
X19375000Y26150000D01*
X18625000Y26150000D01*
X18588244Y26151806D01*
X18551841Y26157206D01*
X18516143Y26166147D01*
X18481494Y26178545D01*
X18448226Y26194280D01*
X18416661Y26213199D01*
X18387103Y26235121D01*
X18359835Y26259835D01*
X18335121Y26287103D01*
X18313199Y26316661D01*
X18294280Y26348226D01*
X18278545Y26381494D01*
X18266147Y26416143D01*
X18257206Y26451841D01*
X18251806Y26488244D01*
X18250000Y26525000D01*
X18250000Y28975000D01*
X18251806Y29011756D01*
X18257206Y29048159D01*
X18266147Y29083857D01*
X18278545Y29118506D01*
X18294280Y29151774D01*
X18313199Y29183339D01*
X18335121Y29212897D01*
X18359835Y29240165D01*
X18387103Y29264879D01*
X18416661Y29286801D01*
X18448226Y29305720D01*
X18481494Y29321455D01*
X18516143Y29333853D01*
X18551841Y29342794D01*
X18588244Y29348194D01*
X18625000Y29350000D01*
X19375000Y29350000D01*
X19411756Y29348194D01*
G37*
G36*
X31899504Y41498796D02*
G01*
X31923773Y41495196D01*
X31947571Y41489235D01*
X31970671Y41480970D01*
X31992849Y41470480D01*
X32013893Y41457867D01*
X32033598Y41443253D01*
X32051777Y41426777D01*
X32068253Y41408598D01*
X32082867Y41388893D01*
X32095480Y41367849D01*
X32105970Y41345671D01*
X32114235Y41322571D01*
X32120196Y41298773D01*
X32123796Y41274504D01*
X32125000Y41250000D01*
X32125000Y40750000D01*
X32123796Y40725496D01*
X32120196Y40701227D01*
X32114235Y40677429D01*
X32105970Y40654329D01*
X32095480Y40632151D01*
X32082867Y40611107D01*
X32068253Y40591402D01*
X32051777Y40573223D01*
X32033598Y40556747D01*
X32013893Y40542133D01*
X31992849Y40529520D01*
X31970671Y40519030D01*
X31947571Y40510765D01*
X31923773Y40504804D01*
X31899504Y40501204D01*
X31875000Y40500000D01*
X31125000Y40500000D01*
X31100496Y40501204D01*
X31076227Y40504804D01*
X31052429Y40510765D01*
X31029329Y40519030D01*
X31007151Y40529520D01*
X30986107Y40542133D01*
X30966402Y40556747D01*
X30948223Y40573223D01*
X30931747Y40591402D01*
X30917133Y40611107D01*
X30904520Y40632151D01*
X30894030Y40654329D01*
X30885765Y40677429D01*
X30879804Y40701227D01*
X30876204Y40725496D01*
X30875000Y40750000D01*
X30875000Y41250000D01*
X30876204Y41274504D01*
X30879804Y41298773D01*
X30885765Y41322571D01*
X30894030Y41345671D01*
X30904520Y41367849D01*
X30917133Y41388893D01*
X30931747Y41408598D01*
X30948223Y41426777D01*
X30966402Y41443253D01*
X30986107Y41457867D01*
X31007151Y41470480D01*
X31029329Y41480970D01*
X31052429Y41489235D01*
X31076227Y41495196D01*
X31100496Y41498796D01*
X31125000Y41500000D01*
X31875000Y41500000D01*
X31899504Y41498796D01*
G37*
G36*
X31899504Y43498796D02*
G01*
X31923773Y43495196D01*
X31947571Y43489235D01*
X31970671Y43480970D01*
X31992849Y43470480D01*
X32013893Y43457867D01*
X32033598Y43443253D01*
X32051777Y43426777D01*
X32068253Y43408598D01*
X32082867Y43388893D01*
X32095480Y43367849D01*
X32105970Y43345671D01*
X32114235Y43322571D01*
X32120196Y43298773D01*
X32123796Y43274504D01*
X32125000Y43250000D01*
X32125000Y42750000D01*
X32123796Y42725496D01*
X32120196Y42701227D01*
X32114235Y42677429D01*
X32105970Y42654329D01*
X32095480Y42632151D01*
X32082867Y42611107D01*
X32068253Y42591402D01*
X32051777Y42573223D01*
X32033598Y42556747D01*
X32013893Y42542133D01*
X31992849Y42529520D01*
X31970671Y42519030D01*
X31947571Y42510765D01*
X31923773Y42504804D01*
X31899504Y42501204D01*
X31875000Y42500000D01*
X31125000Y42500000D01*
X31100496Y42501204D01*
X31076227Y42504804D01*
X31052429Y42510765D01*
X31029329Y42519030D01*
X31007151Y42529520D01*
X30986107Y42542133D01*
X30966402Y42556747D01*
X30948223Y42573223D01*
X30931747Y42591402D01*
X30917133Y42611107D01*
X30904520Y42632151D01*
X30894030Y42654329D01*
X30885765Y42677429D01*
X30879804Y42701227D01*
X30876204Y42725496D01*
X30875000Y42750000D01*
X30875000Y43250000D01*
X30876204Y43274504D01*
X30879804Y43298773D01*
X30885765Y43322571D01*
X30894030Y43345671D01*
X30904520Y43367849D01*
X30917133Y43388893D01*
X30931747Y43408598D01*
X30948223Y43426777D01*
X30966402Y43443253D01*
X30986107Y43457867D01*
X31007151Y43470480D01*
X31029329Y43480970D01*
X31052429Y43489235D01*
X31076227Y43495196D01*
X31100496Y43498796D01*
X31125000Y43500000D01*
X31875000Y43500000D01*
X31899504Y43498796D01*
G37*
G36*
X26774504Y39373796D02*
G01*
X26798773Y39370196D01*
X26822571Y39364235D01*
X26845671Y39355970D01*
X26867849Y39345480D01*
X26888893Y39332867D01*
X26908598Y39318253D01*
X26926777Y39301777D01*
X26943253Y39283598D01*
X26957867Y39263893D01*
X26970480Y39242849D01*
X26980970Y39220671D01*
X26989235Y39197571D01*
X26995196Y39173773D01*
X26998796Y39149504D01*
X27000000Y39125000D01*
X27000000Y38375000D01*
X26998796Y38350496D01*
X26995196Y38326227D01*
X26989235Y38302429D01*
X26980970Y38279329D01*
X26970480Y38257151D01*
X26957867Y38236107D01*
X26943253Y38216402D01*
X26926777Y38198223D01*
X26908598Y38181747D01*
X26888893Y38167133D01*
X26867849Y38154520D01*
X26845671Y38144030D01*
X26822571Y38135765D01*
X26798773Y38129804D01*
X26774504Y38126204D01*
X26750000Y38125000D01*
X26250000Y38125000D01*
X26225496Y38126204D01*
X26201227Y38129804D01*
X26177429Y38135765D01*
X26154329Y38144030D01*
X26132151Y38154520D01*
X26111107Y38167133D01*
X26091402Y38181747D01*
X26073223Y38198223D01*
X26056747Y38216402D01*
X26042133Y38236107D01*
X26029520Y38257151D01*
X26019030Y38279329D01*
X26010765Y38302429D01*
X26004804Y38326227D01*
X26001204Y38350496D01*
X26000000Y38375000D01*
X26000000Y39125000D01*
X26001204Y39149504D01*
X26004804Y39173773D01*
X26010765Y39197571D01*
X26019030Y39220671D01*
X26029520Y39242849D01*
X26042133Y39263893D01*
X26056747Y39283598D01*
X26073223Y39301777D01*
X26091402Y39318253D01*
X26111107Y39332867D01*
X26132151Y39345480D01*
X26154329Y39355970D01*
X26177429Y39364235D01*
X26201227Y39370196D01*
X26225496Y39373796D01*
X26250000Y39375000D01*
X26750000Y39375000D01*
X26774504Y39373796D01*
G37*
G36*
X24774504Y39373796D02*
G01*
X24798773Y39370196D01*
X24822571Y39364235D01*
X24845671Y39355970D01*
X24867849Y39345480D01*
X24888893Y39332867D01*
X24908598Y39318253D01*
X24926777Y39301777D01*
X24943253Y39283598D01*
X24957867Y39263893D01*
X24970480Y39242849D01*
X24980970Y39220671D01*
X24989235Y39197571D01*
X24995196Y39173773D01*
X24998796Y39149504D01*
X25000000Y39125000D01*
X25000000Y38375000D01*
X24998796Y38350496D01*
X24995196Y38326227D01*
X24989235Y38302429D01*
X24980970Y38279329D01*
X24970480Y38257151D01*
X24957867Y38236107D01*
X24943253Y38216402D01*
X24926777Y38198223D01*
X24908598Y38181747D01*
X24888893Y38167133D01*
X24867849Y38154520D01*
X24845671Y38144030D01*
X24822571Y38135765D01*
X24798773Y38129804D01*
X24774504Y38126204D01*
X24750000Y38125000D01*
X24250000Y38125000D01*
X24225496Y38126204D01*
X24201227Y38129804D01*
X24177429Y38135765D01*
X24154329Y38144030D01*
X24132151Y38154520D01*
X24111107Y38167133D01*
X24091402Y38181747D01*
X24073223Y38198223D01*
X24056747Y38216402D01*
X24042133Y38236107D01*
X24029520Y38257151D01*
X24019030Y38279329D01*
X24010765Y38302429D01*
X24004804Y38326227D01*
X24001204Y38350496D01*
X24000000Y38375000D01*
X24000000Y39125000D01*
X24001204Y39149504D01*
X24004804Y39173773D01*
X24010765Y39197571D01*
X24019030Y39220671D01*
X24029520Y39242849D01*
X24042133Y39263893D01*
X24056747Y39283598D01*
X24073223Y39301777D01*
X24091402Y39318253D01*
X24111107Y39332867D01*
X24132151Y39345480D01*
X24154329Y39355970D01*
X24177429Y39364235D01*
X24201227Y39370196D01*
X24225496Y39373796D01*
X24250000Y39375000D01*
X24750000Y39375000D01*
X24774504Y39373796D01*
G37*
G36*
X46016958Y25044290D02*
G01*
X46031276Y25042166D01*
X46045317Y25038649D01*
X46058946Y25033772D01*
X46072031Y25027583D01*
X46084447Y25020142D01*
X46096073Y25011519D01*
X46106798Y25001798D01*
X46116519Y24991073D01*
X46125142Y24979447D01*
X46132583Y24967031D01*
X46138772Y24953946D01*
X46143649Y24940317D01*
X46147166Y24926276D01*
X46149290Y24911958D01*
X46150000Y24897500D01*
X46150000Y24602500D01*
X46149290Y24588042D01*
X46147166Y24573724D01*
X46143649Y24559683D01*
X46138772Y24546054D01*
X46132583Y24532969D01*
X46125142Y24520553D01*
X46116519Y24508927D01*
X46106798Y24498202D01*
X46096073Y24488481D01*
X46084447Y24479858D01*
X46072031Y24472417D01*
X46058946Y24466228D01*
X46045317Y24461351D01*
X46031276Y24457834D01*
X46016958Y24455710D01*
X46002500Y24455000D01*
X45497500Y24455000D01*
X45483042Y24455710D01*
X45468724Y24457834D01*
X45454683Y24461351D01*
X45441054Y24466228D01*
X45427969Y24472417D01*
X45415553Y24479858D01*
X45403927Y24488481D01*
X45393202Y24498202D01*
X45383481Y24508927D01*
X45374858Y24520553D01*
X45367417Y24532969D01*
X45361228Y24546054D01*
X45356351Y24559683D01*
X45352834Y24573724D01*
X45350710Y24588042D01*
X45350000Y24602500D01*
X45350000Y24897500D01*
X45350710Y24911958D01*
X45352834Y24926276D01*
X45356351Y24940317D01*
X45361228Y24953946D01*
X45367417Y24967031D01*
X45374858Y24979447D01*
X45383481Y24991073D01*
X45393202Y25001798D01*
X45403927Y25011519D01*
X45415553Y25020142D01*
X45427969Y25027583D01*
X45441054Y25033772D01*
X45454683Y25038649D01*
X45468724Y25042166D01*
X45483042Y25044290D01*
X45497500Y25045000D01*
X46002500Y25045000D01*
X46016958Y25044290D01*
G37*
G36*
X46016958Y26544290D02*
G01*
X46031276Y26542166D01*
X46045317Y26538649D01*
X46058946Y26533772D01*
X46072031Y26527583D01*
X46084447Y26520142D01*
X46096073Y26511519D01*
X46106798Y26501798D01*
X46116519Y26491073D01*
X46125142Y26479447D01*
X46132583Y26467031D01*
X46138772Y26453946D01*
X46143649Y26440317D01*
X46147166Y26426276D01*
X46149290Y26411958D01*
X46150000Y26397500D01*
X46150000Y26102500D01*
X46149290Y26088042D01*
X46147166Y26073724D01*
X46143649Y26059683D01*
X46138772Y26046054D01*
X46132583Y26032969D01*
X46125142Y26020553D01*
X46116519Y26008927D01*
X46106798Y25998202D01*
X46096073Y25988481D01*
X46084447Y25979858D01*
X46072031Y25972417D01*
X46058946Y25966228D01*
X46045317Y25961351D01*
X46031276Y25957834D01*
X46016958Y25955710D01*
X46002500Y25955000D01*
X45497500Y25955000D01*
X45483042Y25955710D01*
X45468724Y25957834D01*
X45454683Y25961351D01*
X45441054Y25966228D01*
X45427969Y25972417D01*
X45415553Y25979858D01*
X45403927Y25988481D01*
X45393202Y25998202D01*
X45383481Y26008927D01*
X45374858Y26020553D01*
X45367417Y26032969D01*
X45361228Y26046054D01*
X45356351Y26059683D01*
X45352834Y26073724D01*
X45350710Y26088042D01*
X45350000Y26102500D01*
X45350000Y26397500D01*
X45350710Y26411958D01*
X45352834Y26426276D01*
X45356351Y26440317D01*
X45361228Y26453946D01*
X45367417Y26467031D01*
X45374858Y26479447D01*
X45383481Y26491073D01*
X45393202Y26501798D01*
X45403927Y26511519D01*
X45415553Y26520142D01*
X45427969Y26527583D01*
X45441054Y26533772D01*
X45454683Y26538649D01*
X45468724Y26542166D01*
X45483042Y26544290D01*
X45497500Y26545000D01*
X46002500Y26545000D01*
X46016958Y26544290D01*
G37*
G36*
X47649504Y32748796D02*
G01*
X47673773Y32745196D01*
X47697571Y32739235D01*
X47720671Y32730970D01*
X47742849Y32720480D01*
X47763893Y32707867D01*
X47783598Y32693253D01*
X47801777Y32676777D01*
X47818253Y32658598D01*
X47832867Y32638893D01*
X47845480Y32617849D01*
X47855970Y32595671D01*
X47864235Y32572571D01*
X47870196Y32548773D01*
X47873796Y32524504D01*
X47875000Y32500000D01*
X47875000Y32000000D01*
X47873796Y31975496D01*
X47870196Y31951227D01*
X47864235Y31927429D01*
X47855970Y31904329D01*
X47845480Y31882151D01*
X47832867Y31861107D01*
X47818253Y31841402D01*
X47801777Y31823223D01*
X47783598Y31806747D01*
X47763893Y31792133D01*
X47742849Y31779520D01*
X47720671Y31769030D01*
X47697571Y31760765D01*
X47673773Y31754804D01*
X47649504Y31751204D01*
X47625000Y31750000D01*
X46875000Y31750000D01*
X46850496Y31751204D01*
X46826227Y31754804D01*
X46802429Y31760765D01*
X46779329Y31769030D01*
X46757151Y31779520D01*
X46736107Y31792133D01*
X46716402Y31806747D01*
X46698223Y31823223D01*
X46681747Y31841402D01*
X46667133Y31861107D01*
X46654520Y31882151D01*
X46644030Y31904329D01*
X46635765Y31927429D01*
X46629804Y31951227D01*
X46626204Y31975496D01*
X46625000Y32000000D01*
X46625000Y32500000D01*
X46626204Y32524504D01*
X46629804Y32548773D01*
X46635765Y32572571D01*
X46644030Y32595671D01*
X46654520Y32617849D01*
X46667133Y32638893D01*
X46681747Y32658598D01*
X46698223Y32676777D01*
X46716402Y32693253D01*
X46736107Y32707867D01*
X46757151Y32720480D01*
X46779329Y32730970D01*
X46802429Y32739235D01*
X46826227Y32745196D01*
X46850496Y32748796D01*
X46875000Y32750000D01*
X47625000Y32750000D01*
X47649504Y32748796D01*
G37*
G36*
X47649504Y30748796D02*
G01*
X47673773Y30745196D01*
X47697571Y30739235D01*
X47720671Y30730970D01*
X47742849Y30720480D01*
X47763893Y30707867D01*
X47783598Y30693253D01*
X47801777Y30676777D01*
X47818253Y30658598D01*
X47832867Y30638893D01*
X47845480Y30617849D01*
X47855970Y30595671D01*
X47864235Y30572571D01*
X47870196Y30548773D01*
X47873796Y30524504D01*
X47875000Y30500000D01*
X47875000Y30000000D01*
X47873796Y29975496D01*
X47870196Y29951227D01*
X47864235Y29927429D01*
X47855970Y29904329D01*
X47845480Y29882151D01*
X47832867Y29861107D01*
X47818253Y29841402D01*
X47801777Y29823223D01*
X47783598Y29806747D01*
X47763893Y29792133D01*
X47742849Y29779520D01*
X47720671Y29769030D01*
X47697571Y29760765D01*
X47673773Y29754804D01*
X47649504Y29751204D01*
X47625000Y29750000D01*
X46875000Y29750000D01*
X46850496Y29751204D01*
X46826227Y29754804D01*
X46802429Y29760765D01*
X46779329Y29769030D01*
X46757151Y29779520D01*
X46736107Y29792133D01*
X46716402Y29806747D01*
X46698223Y29823223D01*
X46681747Y29841402D01*
X46667133Y29861107D01*
X46654520Y29882151D01*
X46644030Y29904329D01*
X46635765Y29927429D01*
X46629804Y29951227D01*
X46626204Y29975496D01*
X46625000Y30000000D01*
X46625000Y30500000D01*
X46626204Y30524504D01*
X46629804Y30548773D01*
X46635765Y30572571D01*
X46644030Y30595671D01*
X46654520Y30617849D01*
X46667133Y30638893D01*
X46681747Y30658598D01*
X46698223Y30676777D01*
X46716402Y30693253D01*
X46736107Y30707867D01*
X46757151Y30720480D01*
X46779329Y30730970D01*
X46802429Y30739235D01*
X46826227Y30745196D01*
X46850496Y30748796D01*
X46875000Y30750000D01*
X47625000Y30750000D01*
X47649504Y30748796D01*
G37*
G36*
X41016958Y43044290D02*
G01*
X41031276Y43042166D01*
X41045317Y43038649D01*
X41058946Y43033772D01*
X41072031Y43027583D01*
X41084447Y43020142D01*
X41096073Y43011519D01*
X41106798Y43001798D01*
X41116519Y42991073D01*
X41125142Y42979447D01*
X41132583Y42967031D01*
X41138772Y42953946D01*
X41143649Y42940317D01*
X41147166Y42926276D01*
X41149290Y42911958D01*
X41150000Y42897500D01*
X41150000Y42602500D01*
X41149290Y42588042D01*
X41147166Y42573724D01*
X41143649Y42559683D01*
X41138772Y42546054D01*
X41132583Y42532969D01*
X41125142Y42520553D01*
X41116519Y42508927D01*
X41106798Y42498202D01*
X41096073Y42488481D01*
X41084447Y42479858D01*
X41072031Y42472417D01*
X41058946Y42466228D01*
X41045317Y42461351D01*
X41031276Y42457834D01*
X41016958Y42455710D01*
X41002500Y42455000D01*
X40497500Y42455000D01*
X40483042Y42455710D01*
X40468724Y42457834D01*
X40454683Y42461351D01*
X40441054Y42466228D01*
X40427969Y42472417D01*
X40415553Y42479858D01*
X40403927Y42488481D01*
X40393202Y42498202D01*
X40383481Y42508927D01*
X40374858Y42520553D01*
X40367417Y42532969D01*
X40361228Y42546054D01*
X40356351Y42559683D01*
X40352834Y42573724D01*
X40350710Y42588042D01*
X40350000Y42602500D01*
X40350000Y42897500D01*
X40350710Y42911958D01*
X40352834Y42926276D01*
X40356351Y42940317D01*
X40361228Y42953946D01*
X40367417Y42967031D01*
X40374858Y42979447D01*
X40383481Y42991073D01*
X40393202Y43001798D01*
X40403927Y43011519D01*
X40415553Y43020142D01*
X40427969Y43027583D01*
X40441054Y43033772D01*
X40454683Y43038649D01*
X40468724Y43042166D01*
X40483042Y43044290D01*
X40497500Y43045000D01*
X41002500Y43045000D01*
X41016958Y43044290D01*
G37*
G36*
X41016958Y41544290D02*
G01*
X41031276Y41542166D01*
X41045317Y41538649D01*
X41058946Y41533772D01*
X41072031Y41527583D01*
X41084447Y41520142D01*
X41096073Y41511519D01*
X41106798Y41501798D01*
X41116519Y41491073D01*
X41125142Y41479447D01*
X41132583Y41467031D01*
X41138772Y41453946D01*
X41143649Y41440317D01*
X41147166Y41426276D01*
X41149290Y41411958D01*
X41150000Y41397500D01*
X41150000Y41102500D01*
X41149290Y41088042D01*
X41147166Y41073724D01*
X41143649Y41059683D01*
X41138772Y41046054D01*
X41132583Y41032969D01*
X41125142Y41020553D01*
X41116519Y41008927D01*
X41106798Y40998202D01*
X41096073Y40988481D01*
X41084447Y40979858D01*
X41072031Y40972417D01*
X41058946Y40966228D01*
X41045317Y40961351D01*
X41031276Y40957834D01*
X41016958Y40955710D01*
X41002500Y40955000D01*
X40497500Y40955000D01*
X40483042Y40955710D01*
X40468724Y40957834D01*
X40454683Y40961351D01*
X40441054Y40966228D01*
X40427969Y40972417D01*
X40415553Y40979858D01*
X40403927Y40988481D01*
X40393202Y40998202D01*
X40383481Y41008927D01*
X40374858Y41020553D01*
X40367417Y41032969D01*
X40361228Y41046054D01*
X40356351Y41059683D01*
X40352834Y41073724D01*
X40350710Y41088042D01*
X40350000Y41102500D01*
X40350000Y41397500D01*
X40350710Y41411958D01*
X40352834Y41426276D01*
X40356351Y41440317D01*
X40361228Y41453946D01*
X40367417Y41467031D01*
X40374858Y41479447D01*
X40383481Y41491073D01*
X40393202Y41501798D01*
X40403927Y41511519D01*
X40415553Y41520142D01*
X40427969Y41527583D01*
X40441054Y41533772D01*
X40454683Y41538649D01*
X40468724Y41542166D01*
X40483042Y41544290D01*
X40497500Y41545000D01*
X41002500Y41545000D01*
X41016958Y41544290D01*
G37*
G36*
X37899504Y43498796D02*
G01*
X37923773Y43495196D01*
X37947571Y43489235D01*
X37970671Y43480970D01*
X37992849Y43470480D01*
X38013893Y43457867D01*
X38033598Y43443253D01*
X38051777Y43426777D01*
X38068253Y43408598D01*
X38082867Y43388893D01*
X38095480Y43367849D01*
X38105970Y43345671D01*
X38114235Y43322571D01*
X38120196Y43298773D01*
X38123796Y43274504D01*
X38125000Y43250000D01*
X38125000Y42750000D01*
X38123796Y42725496D01*
X38120196Y42701227D01*
X38114235Y42677429D01*
X38105970Y42654329D01*
X38095480Y42632151D01*
X38082867Y42611107D01*
X38068253Y42591402D01*
X38051777Y42573223D01*
X38033598Y42556747D01*
X38013893Y42542133D01*
X37992849Y42529520D01*
X37970671Y42519030D01*
X37947571Y42510765D01*
X37923773Y42504804D01*
X37899504Y42501204D01*
X37875000Y42500000D01*
X37125000Y42500000D01*
X37100496Y42501204D01*
X37076227Y42504804D01*
X37052429Y42510765D01*
X37029329Y42519030D01*
X37007151Y42529520D01*
X36986107Y42542133D01*
X36966402Y42556747D01*
X36948223Y42573223D01*
X36931747Y42591402D01*
X36917133Y42611107D01*
X36904520Y42632151D01*
X36894030Y42654329D01*
X36885765Y42677429D01*
X36879804Y42701227D01*
X36876204Y42725496D01*
X36875000Y42750000D01*
X36875000Y43250000D01*
X36876204Y43274504D01*
X36879804Y43298773D01*
X36885765Y43322571D01*
X36894030Y43345671D01*
X36904520Y43367849D01*
X36917133Y43388893D01*
X36931747Y43408598D01*
X36948223Y43426777D01*
X36966402Y43443253D01*
X36986107Y43457867D01*
X37007151Y43470480D01*
X37029329Y43480970D01*
X37052429Y43489235D01*
X37076227Y43495196D01*
X37100496Y43498796D01*
X37125000Y43500000D01*
X37875000Y43500000D01*
X37899504Y43498796D01*
G37*
G36*
X37899504Y41498796D02*
G01*
X37923773Y41495196D01*
X37947571Y41489235D01*
X37970671Y41480970D01*
X37992849Y41470480D01*
X38013893Y41457867D01*
X38033598Y41443253D01*
X38051777Y41426777D01*
X38068253Y41408598D01*
X38082867Y41388893D01*
X38095480Y41367849D01*
X38105970Y41345671D01*
X38114235Y41322571D01*
X38120196Y41298773D01*
X38123796Y41274504D01*
X38125000Y41250000D01*
X38125000Y40750000D01*
X38123796Y40725496D01*
X38120196Y40701227D01*
X38114235Y40677429D01*
X38105970Y40654329D01*
X38095480Y40632151D01*
X38082867Y40611107D01*
X38068253Y40591402D01*
X38051777Y40573223D01*
X38033598Y40556747D01*
X38013893Y40542133D01*
X37992849Y40529520D01*
X37970671Y40519030D01*
X37947571Y40510765D01*
X37923773Y40504804D01*
X37899504Y40501204D01*
X37875000Y40500000D01*
X37125000Y40500000D01*
X37100496Y40501204D01*
X37076227Y40504804D01*
X37052429Y40510765D01*
X37029329Y40519030D01*
X37007151Y40529520D01*
X36986107Y40542133D01*
X36966402Y40556747D01*
X36948223Y40573223D01*
X36931747Y40591402D01*
X36917133Y40611107D01*
X36904520Y40632151D01*
X36894030Y40654329D01*
X36885765Y40677429D01*
X36879804Y40701227D01*
X36876204Y40725496D01*
X36875000Y40750000D01*
X36875000Y41250000D01*
X36876204Y41274504D01*
X36879804Y41298773D01*
X36885765Y41322571D01*
X36894030Y41345671D01*
X36904520Y41367849D01*
X36917133Y41388893D01*
X36931747Y41408598D01*
X36948223Y41426777D01*
X36966402Y41443253D01*
X36986107Y41457867D01*
X37007151Y41470480D01*
X37029329Y41480970D01*
X37052429Y41489235D01*
X37076227Y41495196D01*
X37100496Y41498796D01*
X37125000Y41500000D01*
X37875000Y41500000D01*
X37899504Y41498796D01*
G37*
G36*
X35899504Y43498796D02*
G01*
X35923773Y43495196D01*
X35947571Y43489235D01*
X35970671Y43480970D01*
X35992849Y43470480D01*
X36013893Y43457867D01*
X36033598Y43443253D01*
X36051777Y43426777D01*
X36068253Y43408598D01*
X36082867Y43388893D01*
X36095480Y43367849D01*
X36105970Y43345671D01*
X36114235Y43322571D01*
X36120196Y43298773D01*
X36123796Y43274504D01*
X36125000Y43250000D01*
X36125000Y42750000D01*
X36123796Y42725496D01*
X36120196Y42701227D01*
X36114235Y42677429D01*
X36105970Y42654329D01*
X36095480Y42632151D01*
X36082867Y42611107D01*
X36068253Y42591402D01*
X36051777Y42573223D01*
X36033598Y42556747D01*
X36013893Y42542133D01*
X35992849Y42529520D01*
X35970671Y42519030D01*
X35947571Y42510765D01*
X35923773Y42504804D01*
X35899504Y42501204D01*
X35875000Y42500000D01*
X35125000Y42500000D01*
X35100496Y42501204D01*
X35076227Y42504804D01*
X35052429Y42510765D01*
X35029329Y42519030D01*
X35007151Y42529520D01*
X34986107Y42542133D01*
X34966402Y42556747D01*
X34948223Y42573223D01*
X34931747Y42591402D01*
X34917133Y42611107D01*
X34904520Y42632151D01*
X34894030Y42654329D01*
X34885765Y42677429D01*
X34879804Y42701227D01*
X34876204Y42725496D01*
X34875000Y42750000D01*
X34875000Y43250000D01*
X34876204Y43274504D01*
X34879804Y43298773D01*
X34885765Y43322571D01*
X34894030Y43345671D01*
X34904520Y43367849D01*
X34917133Y43388893D01*
X34931747Y43408598D01*
X34948223Y43426777D01*
X34966402Y43443253D01*
X34986107Y43457867D01*
X35007151Y43470480D01*
X35029329Y43480970D01*
X35052429Y43489235D01*
X35076227Y43495196D01*
X35100496Y43498796D01*
X35125000Y43500000D01*
X35875000Y43500000D01*
X35899504Y43498796D01*
G37*
G36*
X35899504Y41498796D02*
G01*
X35923773Y41495196D01*
X35947571Y41489235D01*
X35970671Y41480970D01*
X35992849Y41470480D01*
X36013893Y41457867D01*
X36033598Y41443253D01*
X36051777Y41426777D01*
X36068253Y41408598D01*
X36082867Y41388893D01*
X36095480Y41367849D01*
X36105970Y41345671D01*
X36114235Y41322571D01*
X36120196Y41298773D01*
X36123796Y41274504D01*
X36125000Y41250000D01*
X36125000Y40750000D01*
X36123796Y40725496D01*
X36120196Y40701227D01*
X36114235Y40677429D01*
X36105970Y40654329D01*
X36095480Y40632151D01*
X36082867Y40611107D01*
X36068253Y40591402D01*
X36051777Y40573223D01*
X36033598Y40556747D01*
X36013893Y40542133D01*
X35992849Y40529520D01*
X35970671Y40519030D01*
X35947571Y40510765D01*
X35923773Y40504804D01*
X35899504Y40501204D01*
X35875000Y40500000D01*
X35125000Y40500000D01*
X35100496Y40501204D01*
X35076227Y40504804D01*
X35052429Y40510765D01*
X35029329Y40519030D01*
X35007151Y40529520D01*
X34986107Y40542133D01*
X34966402Y40556747D01*
X34948223Y40573223D01*
X34931747Y40591402D01*
X34917133Y40611107D01*
X34904520Y40632151D01*
X34894030Y40654329D01*
X34885765Y40677429D01*
X34879804Y40701227D01*
X34876204Y40725496D01*
X34875000Y40750000D01*
X34875000Y41250000D01*
X34876204Y41274504D01*
X34879804Y41298773D01*
X34885765Y41322571D01*
X34894030Y41345671D01*
X34904520Y41367849D01*
X34917133Y41388893D01*
X34931747Y41408598D01*
X34948223Y41426777D01*
X34966402Y41443253D01*
X34986107Y41457867D01*
X35007151Y41470480D01*
X35029329Y41480970D01*
X35052429Y41489235D01*
X35076227Y41495196D01*
X35100496Y41498796D01*
X35125000Y41500000D01*
X35875000Y41500000D01*
X35899504Y41498796D01*
G37*
G36*
X20649504Y32498796D02*
G01*
X20673773Y32495196D01*
X20697571Y32489235D01*
X20720671Y32480970D01*
X20742849Y32470480D01*
X20763893Y32457867D01*
X20783598Y32443253D01*
X20801777Y32426777D01*
X20818253Y32408598D01*
X20832867Y32388893D01*
X20845480Y32367849D01*
X20855970Y32345671D01*
X20864235Y32322571D01*
X20870196Y32298773D01*
X20873796Y32274504D01*
X20875000Y32250000D01*
X20875000Y31750000D01*
X20873796Y31725496D01*
X20870196Y31701227D01*
X20864235Y31677429D01*
X20855970Y31654329D01*
X20845480Y31632151D01*
X20832867Y31611107D01*
X20818253Y31591402D01*
X20801777Y31573223D01*
X20783598Y31556747D01*
X20763893Y31542133D01*
X20742849Y31529520D01*
X20720671Y31519030D01*
X20697571Y31510765D01*
X20673773Y31504804D01*
X20649504Y31501204D01*
X20625000Y31500000D01*
X19875000Y31500000D01*
X19850496Y31501204D01*
X19826227Y31504804D01*
X19802429Y31510765D01*
X19779329Y31519030D01*
X19757151Y31529520D01*
X19736107Y31542133D01*
X19716402Y31556747D01*
X19698223Y31573223D01*
X19681747Y31591402D01*
X19667133Y31611107D01*
X19654520Y31632151D01*
X19644030Y31654329D01*
X19635765Y31677429D01*
X19629804Y31701227D01*
X19626204Y31725496D01*
X19625000Y31750000D01*
X19625000Y32250000D01*
X19626204Y32274504D01*
X19629804Y32298773D01*
X19635765Y32322571D01*
X19644030Y32345671D01*
X19654520Y32367849D01*
X19667133Y32388893D01*
X19681747Y32408598D01*
X19698223Y32426777D01*
X19716402Y32443253D01*
X19736107Y32457867D01*
X19757151Y32470480D01*
X19779329Y32480970D01*
X19802429Y32489235D01*
X19826227Y32495196D01*
X19850496Y32498796D01*
X19875000Y32500000D01*
X20625000Y32500000D01*
X20649504Y32498796D01*
G37*
G36*
X20649504Y34498796D02*
G01*
X20673773Y34495196D01*
X20697571Y34489235D01*
X20720671Y34480970D01*
X20742849Y34470480D01*
X20763893Y34457867D01*
X20783598Y34443253D01*
X20801777Y34426777D01*
X20818253Y34408598D01*
X20832867Y34388893D01*
X20845480Y34367849D01*
X20855970Y34345671D01*
X20864235Y34322571D01*
X20870196Y34298773D01*
X20873796Y34274504D01*
X20875000Y34250000D01*
X20875000Y33750000D01*
X20873796Y33725496D01*
X20870196Y33701227D01*
X20864235Y33677429D01*
X20855970Y33654329D01*
X20845480Y33632151D01*
X20832867Y33611107D01*
X20818253Y33591402D01*
X20801777Y33573223D01*
X20783598Y33556747D01*
X20763893Y33542133D01*
X20742849Y33529520D01*
X20720671Y33519030D01*
X20697571Y33510765D01*
X20673773Y33504804D01*
X20649504Y33501204D01*
X20625000Y33500000D01*
X19875000Y33500000D01*
X19850496Y33501204D01*
X19826227Y33504804D01*
X19802429Y33510765D01*
X19779329Y33519030D01*
X19757151Y33529520D01*
X19736107Y33542133D01*
X19716402Y33556747D01*
X19698223Y33573223D01*
X19681747Y33591402D01*
X19667133Y33611107D01*
X19654520Y33632151D01*
X19644030Y33654329D01*
X19635765Y33677429D01*
X19629804Y33701227D01*
X19626204Y33725496D01*
X19625000Y33750000D01*
X19625000Y34250000D01*
X19626204Y34274504D01*
X19629804Y34298773D01*
X19635765Y34322571D01*
X19644030Y34345671D01*
X19654520Y34367849D01*
X19667133Y34388893D01*
X19681747Y34408598D01*
X19698223Y34426777D01*
X19716402Y34443253D01*
X19736107Y34457867D01*
X19757151Y34470480D01*
X19779329Y34480970D01*
X19802429Y34489235D01*
X19826227Y34495196D01*
X19850496Y34498796D01*
X19875000Y34500000D01*
X20625000Y34500000D01*
X20649504Y34498796D01*
G37*
G36*
X22649504Y34498796D02*
G01*
X22673773Y34495196D01*
X22697571Y34489235D01*
X22720671Y34480970D01*
X22742849Y34470480D01*
X22763893Y34457867D01*
X22783598Y34443253D01*
X22801777Y34426777D01*
X22818253Y34408598D01*
X22832867Y34388893D01*
X22845480Y34367849D01*
X22855970Y34345671D01*
X22864235Y34322571D01*
X22870196Y34298773D01*
X22873796Y34274504D01*
X22875000Y34250000D01*
X22875000Y33750000D01*
X22873796Y33725496D01*
X22870196Y33701227D01*
X22864235Y33677429D01*
X22855970Y33654329D01*
X22845480Y33632151D01*
X22832867Y33611107D01*
X22818253Y33591402D01*
X22801777Y33573223D01*
X22783598Y33556747D01*
X22763893Y33542133D01*
X22742849Y33529520D01*
X22720671Y33519030D01*
X22697571Y33510765D01*
X22673773Y33504804D01*
X22649504Y33501204D01*
X22625000Y33500000D01*
X21875000Y33500000D01*
X21850496Y33501204D01*
X21826227Y33504804D01*
X21802429Y33510765D01*
X21779329Y33519030D01*
X21757151Y33529520D01*
X21736107Y33542133D01*
X21716402Y33556747D01*
X21698223Y33573223D01*
X21681747Y33591402D01*
X21667133Y33611107D01*
X21654520Y33632151D01*
X21644030Y33654329D01*
X21635765Y33677429D01*
X21629804Y33701227D01*
X21626204Y33725496D01*
X21625000Y33750000D01*
X21625000Y34250000D01*
X21626204Y34274504D01*
X21629804Y34298773D01*
X21635765Y34322571D01*
X21644030Y34345671D01*
X21654520Y34367849D01*
X21667133Y34388893D01*
X21681747Y34408598D01*
X21698223Y34426777D01*
X21716402Y34443253D01*
X21736107Y34457867D01*
X21757151Y34470480D01*
X21779329Y34480970D01*
X21802429Y34489235D01*
X21826227Y34495196D01*
X21850496Y34498796D01*
X21875000Y34500000D01*
X22625000Y34500000D01*
X22649504Y34498796D01*
G37*
G36*
X22649504Y32498796D02*
G01*
X22673773Y32495196D01*
X22697571Y32489235D01*
X22720671Y32480970D01*
X22742849Y32470480D01*
X22763893Y32457867D01*
X22783598Y32443253D01*
X22801777Y32426777D01*
X22818253Y32408598D01*
X22832867Y32388893D01*
X22845480Y32367849D01*
X22855970Y32345671D01*
X22864235Y32322571D01*
X22870196Y32298773D01*
X22873796Y32274504D01*
X22875000Y32250000D01*
X22875000Y31750000D01*
X22873796Y31725496D01*
X22870196Y31701227D01*
X22864235Y31677429D01*
X22855970Y31654329D01*
X22845480Y31632151D01*
X22832867Y31611107D01*
X22818253Y31591402D01*
X22801777Y31573223D01*
X22783598Y31556747D01*
X22763893Y31542133D01*
X22742849Y31529520D01*
X22720671Y31519030D01*
X22697571Y31510765D01*
X22673773Y31504804D01*
X22649504Y31501204D01*
X22625000Y31500000D01*
X21875000Y31500000D01*
X21850496Y31501204D01*
X21826227Y31504804D01*
X21802429Y31510765D01*
X21779329Y31519030D01*
X21757151Y31529520D01*
X21736107Y31542133D01*
X21716402Y31556747D01*
X21698223Y31573223D01*
X21681747Y31591402D01*
X21667133Y31611107D01*
X21654520Y31632151D01*
X21644030Y31654329D01*
X21635765Y31677429D01*
X21629804Y31701227D01*
X21626204Y31725496D01*
X21625000Y31750000D01*
X21625000Y32250000D01*
X21626204Y32274504D01*
X21629804Y32298773D01*
X21635765Y32322571D01*
X21644030Y32345671D01*
X21654520Y32367849D01*
X21667133Y32388893D01*
X21681747Y32408598D01*
X21698223Y32426777D01*
X21716402Y32443253D01*
X21736107Y32457867D01*
X21757151Y32470480D01*
X21779329Y32480970D01*
X21802429Y32489235D01*
X21826227Y32495196D01*
X21850496Y32498796D01*
X21875000Y32500000D01*
X22625000Y32500000D01*
X22649504Y32498796D01*
G37*
G36*
X33899504Y41498796D02*
G01*
X33923773Y41495196D01*
X33947571Y41489235D01*
X33970671Y41480970D01*
X33992849Y41470480D01*
X34013893Y41457867D01*
X34033598Y41443253D01*
X34051777Y41426777D01*
X34068253Y41408598D01*
X34082867Y41388893D01*
X34095480Y41367849D01*
X34105970Y41345671D01*
X34114235Y41322571D01*
X34120196Y41298773D01*
X34123796Y41274504D01*
X34125000Y41250000D01*
X34125000Y40750000D01*
X34123796Y40725496D01*
X34120196Y40701227D01*
X34114235Y40677429D01*
X34105970Y40654329D01*
X34095480Y40632151D01*
X34082867Y40611107D01*
X34068253Y40591402D01*
X34051777Y40573223D01*
X34033598Y40556747D01*
X34013893Y40542133D01*
X33992849Y40529520D01*
X33970671Y40519030D01*
X33947571Y40510765D01*
X33923773Y40504804D01*
X33899504Y40501204D01*
X33875000Y40500000D01*
X33125000Y40500000D01*
X33100496Y40501204D01*
X33076227Y40504804D01*
X33052429Y40510765D01*
X33029329Y40519030D01*
X33007151Y40529520D01*
X32986107Y40542133D01*
X32966402Y40556747D01*
X32948223Y40573223D01*
X32931747Y40591402D01*
X32917133Y40611107D01*
X32904520Y40632151D01*
X32894030Y40654329D01*
X32885765Y40677429D01*
X32879804Y40701227D01*
X32876204Y40725496D01*
X32875000Y40750000D01*
X32875000Y41250000D01*
X32876204Y41274504D01*
X32879804Y41298773D01*
X32885765Y41322571D01*
X32894030Y41345671D01*
X32904520Y41367849D01*
X32917133Y41388893D01*
X32931747Y41408598D01*
X32948223Y41426777D01*
X32966402Y41443253D01*
X32986107Y41457867D01*
X33007151Y41470480D01*
X33029329Y41480970D01*
X33052429Y41489235D01*
X33076227Y41495196D01*
X33100496Y41498796D01*
X33125000Y41500000D01*
X33875000Y41500000D01*
X33899504Y41498796D01*
G37*
G36*
X33899504Y43498796D02*
G01*
X33923773Y43495196D01*
X33947571Y43489235D01*
X33970671Y43480970D01*
X33992849Y43470480D01*
X34013893Y43457867D01*
X34033598Y43443253D01*
X34051777Y43426777D01*
X34068253Y43408598D01*
X34082867Y43388893D01*
X34095480Y43367849D01*
X34105970Y43345671D01*
X34114235Y43322571D01*
X34120196Y43298773D01*
X34123796Y43274504D01*
X34125000Y43250000D01*
X34125000Y42750000D01*
X34123796Y42725496D01*
X34120196Y42701227D01*
X34114235Y42677429D01*
X34105970Y42654329D01*
X34095480Y42632151D01*
X34082867Y42611107D01*
X34068253Y42591402D01*
X34051777Y42573223D01*
X34033598Y42556747D01*
X34013893Y42542133D01*
X33992849Y42529520D01*
X33970671Y42519030D01*
X33947571Y42510765D01*
X33923773Y42504804D01*
X33899504Y42501204D01*
X33875000Y42500000D01*
X33125000Y42500000D01*
X33100496Y42501204D01*
X33076227Y42504804D01*
X33052429Y42510765D01*
X33029329Y42519030D01*
X33007151Y42529520D01*
X32986107Y42542133D01*
X32966402Y42556747D01*
X32948223Y42573223D01*
X32931747Y42591402D01*
X32917133Y42611107D01*
X32904520Y42632151D01*
X32894030Y42654329D01*
X32885765Y42677429D01*
X32879804Y42701227D01*
X32876204Y42725496D01*
X32875000Y42750000D01*
X32875000Y43250000D01*
X32876204Y43274504D01*
X32879804Y43298773D01*
X32885765Y43322571D01*
X32894030Y43345671D01*
X32904520Y43367849D01*
X32917133Y43388893D01*
X32931747Y43408598D01*
X32948223Y43426777D01*
X32966402Y43443253D01*
X32986107Y43457867D01*
X33007151Y43470480D01*
X33029329Y43480970D01*
X33052429Y43489235D01*
X33076227Y43495196D01*
X33100496Y43498796D01*
X33125000Y43500000D01*
X33875000Y43500000D01*
X33899504Y43498796D01*
G37*
G36*
X40355382Y28372893D02*
G01*
X40397852Y28366594D01*
X40439500Y28356161D01*
X40479924Y28341697D01*
X40518736Y28323341D01*
X40555562Y28301268D01*
X40590047Y28275692D01*
X40621859Y28246859D01*
X40650692Y28215047D01*
X40676268Y28180562D01*
X40698341Y28143736D01*
X40716697Y28104924D01*
X40731161Y28064500D01*
X40741594Y28022852D01*
X40747893Y27980382D01*
X40750000Y27937500D01*
X40750000Y27062500D01*
X40747893Y27019618D01*
X40741594Y26977148D01*
X40731161Y26935500D01*
X40716697Y26895076D01*
X40698341Y26856264D01*
X40676268Y26819438D01*
X40650692Y26784953D01*
X40621859Y26753141D01*
X40590047Y26724308D01*
X40555562Y26698732D01*
X40518736Y26676659D01*
X40479924Y26658303D01*
X40439500Y26643839D01*
X40397852Y26633406D01*
X40355382Y26627107D01*
X40312500Y26625000D01*
X38687500Y26625000D01*
X38644618Y26627107D01*
X38602148Y26633406D01*
X38560500Y26643839D01*
X38520076Y26658303D01*
X38481264Y26676659D01*
X38444438Y26698732D01*
X38409953Y26724308D01*
X38378141Y26753141D01*
X38349308Y26784953D01*
X38323732Y26819438D01*
X38301659Y26856264D01*
X38283303Y26895076D01*
X38268839Y26935500D01*
X38258406Y26977148D01*
X38252107Y27019618D01*
X38250000Y27062500D01*
X38250000Y27937500D01*
X38252107Y27980382D01*
X38258406Y28022852D01*
X38268839Y28064500D01*
X38283303Y28104924D01*
X38301659Y28143736D01*
X38323732Y28180562D01*
X38349308Y28215047D01*
X38378141Y28246859D01*
X38409953Y28275692D01*
X38444438Y28301268D01*
X38481264Y28323341D01*
X38520076Y28341697D01*
X38560500Y28356161D01*
X38602148Y28366594D01*
X38644618Y28372893D01*
X38687500Y28375000D01*
X40312500Y28375000D01*
X40355382Y28372893D01*
G37*
G36*
X36355382Y28372893D02*
G01*
X36397852Y28366594D01*
X36439500Y28356161D01*
X36479924Y28341697D01*
X36518736Y28323341D01*
X36555562Y28301268D01*
X36590047Y28275692D01*
X36621859Y28246859D01*
X36650692Y28215047D01*
X36676268Y28180562D01*
X36698341Y28143736D01*
X36716697Y28104924D01*
X36731161Y28064500D01*
X36741594Y28022852D01*
X36747893Y27980382D01*
X36750000Y27937500D01*
X36750000Y27062500D01*
X36747893Y27019618D01*
X36741594Y26977148D01*
X36731161Y26935500D01*
X36716697Y26895076D01*
X36698341Y26856264D01*
X36676268Y26819438D01*
X36650692Y26784953D01*
X36621859Y26753141D01*
X36590047Y26724308D01*
X36555562Y26698732D01*
X36518736Y26676659D01*
X36479924Y26658303D01*
X36439500Y26643839D01*
X36397852Y26633406D01*
X36355382Y26627107D01*
X36312500Y26625000D01*
X34687500Y26625000D01*
X34644618Y26627107D01*
X34602148Y26633406D01*
X34560500Y26643839D01*
X34520076Y26658303D01*
X34481264Y26676659D01*
X34444438Y26698732D01*
X34409953Y26724308D01*
X34378141Y26753141D01*
X34349308Y26784953D01*
X34323732Y26819438D01*
X34301659Y26856264D01*
X34283303Y26895076D01*
X34268839Y26935500D01*
X34258406Y26977148D01*
X34252107Y27019618D01*
X34250000Y27062500D01*
X34250000Y27937500D01*
X34252107Y27980382D01*
X34258406Y28022852D01*
X34268839Y28064500D01*
X34283303Y28104924D01*
X34301659Y28143736D01*
X34323732Y28180562D01*
X34349308Y28215047D01*
X34378141Y28246859D01*
X34409953Y28275692D01*
X34444438Y28301268D01*
X34481264Y28323341D01*
X34520076Y28341697D01*
X34560500Y28356161D01*
X34602148Y28366594D01*
X34644618Y28372893D01*
X34687500Y28375000D01*
X36312500Y28375000D01*
X36355382Y28372893D01*
G37*
G36*
X43363503Y40733490D02*
G01*
X43405973Y40727191D01*
X43447621Y40716758D01*
X43488045Y40702294D01*
X43526857Y40683938D01*
X43563683Y40661865D01*
X43598168Y40636289D01*
X43629980Y40607456D01*
X44779028Y39458408D01*
X44807861Y39426596D01*
X44833437Y39392111D01*
X44855510Y39355285D01*
X44873866Y39316473D01*
X44888330Y39276049D01*
X44898763Y39234401D01*
X44905062Y39191931D01*
X44907169Y39149049D01*
X44905062Y39106167D01*
X44898763Y39063697D01*
X44888330Y39022049D01*
X44873866Y38981625D01*
X44855510Y38942813D01*
X44833437Y38905987D01*
X44807861Y38871502D01*
X44779028Y38839690D01*
X44160310Y38220972D01*
X44128498Y38192139D01*
X44094013Y38166563D01*
X44057187Y38144490D01*
X44018375Y38126134D01*
X43977951Y38111670D01*
X43936303Y38101237D01*
X43893833Y38094938D01*
X43850951Y38092831D01*
X43808069Y38094938D01*
X43765599Y38101237D01*
X43723951Y38111670D01*
X43683527Y38126134D01*
X43644715Y38144490D01*
X43607889Y38166563D01*
X43573404Y38192139D01*
X43541592Y38220972D01*
X42392544Y39370020D01*
X42363711Y39401832D01*
X42338135Y39436317D01*
X42316062Y39473143D01*
X42297706Y39511955D01*
X42283242Y39552379D01*
X42272809Y39594027D01*
X42266510Y39636497D01*
X42264403Y39679379D01*
X42266510Y39722261D01*
X42272809Y39764731D01*
X42283242Y39806379D01*
X42297706Y39846803D01*
X42316062Y39885615D01*
X42338135Y39922441D01*
X42363711Y39956926D01*
X42392544Y39988738D01*
X43011262Y40607456D01*
X43043074Y40636289D01*
X43077559Y40661865D01*
X43114385Y40683938D01*
X43153197Y40702294D01*
X43193621Y40716758D01*
X43235269Y40727191D01*
X43277739Y40733490D01*
X43320621Y40735597D01*
X43363503Y40733490D01*
G37*
G36*
X46191931Y37905062D02*
G01*
X46234401Y37898763D01*
X46276049Y37888330D01*
X46316473Y37873866D01*
X46355285Y37855510D01*
X46392111Y37833437D01*
X46426596Y37807861D01*
X46458408Y37779028D01*
X47607456Y36629980D01*
X47636289Y36598168D01*
X47661865Y36563683D01*
X47683938Y36526857D01*
X47702294Y36488045D01*
X47716758Y36447621D01*
X47727191Y36405973D01*
X47733490Y36363503D01*
X47735597Y36320621D01*
X47733490Y36277739D01*
X47727191Y36235269D01*
X47716758Y36193621D01*
X47702294Y36153197D01*
X47683938Y36114385D01*
X47661865Y36077559D01*
X47636289Y36043074D01*
X47607456Y36011262D01*
X46988738Y35392544D01*
X46956926Y35363711D01*
X46922441Y35338135D01*
X46885615Y35316062D01*
X46846803Y35297706D01*
X46806379Y35283242D01*
X46764731Y35272809D01*
X46722261Y35266510D01*
X46679379Y35264403D01*
X46636497Y35266510D01*
X46594027Y35272809D01*
X46552379Y35283242D01*
X46511955Y35297706D01*
X46473143Y35316062D01*
X46436317Y35338135D01*
X46401832Y35363711D01*
X46370020Y35392544D01*
X45220972Y36541592D01*
X45192139Y36573404D01*
X45166563Y36607889D01*
X45144490Y36644715D01*
X45126134Y36683527D01*
X45111670Y36723951D01*
X45101237Y36765599D01*
X45094938Y36808069D01*
X45092831Y36850951D01*
X45094938Y36893833D01*
X45101237Y36936303D01*
X45111670Y36977951D01*
X45126134Y37018375D01*
X45144490Y37057187D01*
X45166563Y37094013D01*
X45192139Y37128498D01*
X45220972Y37160310D01*
X45839690Y37779028D01*
X45871502Y37807861D01*
X45905987Y37833437D01*
X45942813Y37855510D01*
X45981625Y37873866D01*
X46022049Y37888330D01*
X46063697Y37898763D01*
X46106167Y37905062D01*
X46149049Y37907169D01*
X46191931Y37905062D01*
G37*
G36*
X42783435Y32471755D02*
G01*
X42851386Y32461676D01*
X42918022Y32444984D01*
X42982701Y32421842D01*
X43044801Y32392471D01*
X43103722Y32357155D01*
X43158898Y32316233D01*
X43209798Y32270101D01*
X44341169Y31138730D01*
X44387301Y31087830D01*
X44428223Y31032654D01*
X44463539Y30973733D01*
X44492910Y30911633D01*
X44516052Y30846954D01*
X44532744Y30780318D01*
X44542823Y30712367D01*
X44546194Y30643755D01*
X44542823Y30575143D01*
X44532744Y30507192D01*
X44516052Y30440556D01*
X44492910Y30375877D01*
X44463539Y30313777D01*
X44428223Y30254856D01*
X44387301Y30199680D01*
X44341169Y30148780D01*
X43351220Y29158831D01*
X43300320Y29112699D01*
X43245144Y29071777D01*
X43186223Y29036461D01*
X43124123Y29007090D01*
X43059444Y28983948D01*
X42992808Y28967256D01*
X42924857Y28957177D01*
X42856245Y28953806D01*
X42787633Y28957177D01*
X42719682Y28967256D01*
X42653046Y28983948D01*
X42588367Y29007090D01*
X42526267Y29036461D01*
X42467346Y29071777D01*
X42412170Y29112699D01*
X42361270Y29158831D01*
X41229899Y30290202D01*
X41183767Y30341102D01*
X41142845Y30396278D01*
X41107529Y30455199D01*
X41078158Y30517299D01*
X41055016Y30581978D01*
X41038324Y30648614D01*
X41028245Y30716565D01*
X41024874Y30785177D01*
X41028245Y30853789D01*
X41038324Y30921740D01*
X41055016Y30988376D01*
X41078158Y31053055D01*
X41107529Y31115155D01*
X41142845Y31174076D01*
X41183767Y31229252D01*
X41229899Y31280152D01*
X42219848Y32270101D01*
X42270748Y32316233D01*
X42325924Y32357155D01*
X42384845Y32392471D01*
X42446945Y32421842D01*
X42511624Y32444984D01*
X42578260Y32461676D01*
X42646211Y32471755D01*
X42714823Y32475126D01*
X42783435Y32471755D01*
G37*
G36*
X35712367Y39542823D02*
G01*
X35780318Y39532744D01*
X35846954Y39516052D01*
X35911633Y39492910D01*
X35973733Y39463539D01*
X36032654Y39428223D01*
X36087830Y39387301D01*
X36138730Y39341169D01*
X37270101Y38209798D01*
X37316233Y38158898D01*
X37357155Y38103722D01*
X37392471Y38044801D01*
X37421842Y37982701D01*
X37444984Y37918022D01*
X37461676Y37851386D01*
X37471755Y37783435D01*
X37475126Y37714823D01*
X37471755Y37646211D01*
X37461676Y37578260D01*
X37444984Y37511624D01*
X37421842Y37446945D01*
X37392471Y37384845D01*
X37357155Y37325924D01*
X37316233Y37270748D01*
X37270101Y37219848D01*
X36280152Y36229899D01*
X36229252Y36183767D01*
X36174076Y36142845D01*
X36115155Y36107529D01*
X36053055Y36078158D01*
X35988376Y36055016D01*
X35921740Y36038324D01*
X35853789Y36028245D01*
X35785177Y36024874D01*
X35716565Y36028245D01*
X35648614Y36038324D01*
X35581978Y36055016D01*
X35517299Y36078158D01*
X35455199Y36107529D01*
X35396278Y36142845D01*
X35341102Y36183767D01*
X35290202Y36229899D01*
X34158831Y37361270D01*
X34112699Y37412170D01*
X34071777Y37467346D01*
X34036461Y37526267D01*
X34007090Y37588367D01*
X33983948Y37653046D01*
X33967256Y37719682D01*
X33957177Y37787633D01*
X33953806Y37856245D01*
X33957177Y37924857D01*
X33967256Y37992808D01*
X33983948Y38059444D01*
X34007090Y38124123D01*
X34036461Y38186223D01*
X34071777Y38245144D01*
X34112699Y38300320D01*
X34158831Y38351220D01*
X35148780Y39341169D01*
X35199680Y39387301D01*
X35254856Y39428223D01*
X35313777Y39463539D01*
X35375877Y39492910D01*
X35440556Y39516052D01*
X35507192Y39532744D01*
X35575143Y39542823D01*
X35643755Y39546194D01*
X35712367Y39542823D01*
G37*
G36*
X5024504Y34623796D02*
G01*
X5048773Y34620196D01*
X5072571Y34614235D01*
X5095671Y34605970D01*
X5117849Y34595480D01*
X5138893Y34582867D01*
X5158598Y34568253D01*
X5176777Y34551777D01*
X5193253Y34533598D01*
X5207867Y34513893D01*
X5220480Y34492849D01*
X5230970Y34470671D01*
X5239235Y34447571D01*
X5245196Y34423773D01*
X5248796Y34399504D01*
X5250000Y34375000D01*
X5250000Y33625000D01*
X5248796Y33600496D01*
X5245196Y33576227D01*
X5239235Y33552429D01*
X5230970Y33529329D01*
X5220480Y33507151D01*
X5207867Y33486107D01*
X5193253Y33466402D01*
X5176777Y33448223D01*
X5158598Y33431747D01*
X5138893Y33417133D01*
X5117849Y33404520D01*
X5095671Y33394030D01*
X5072571Y33385765D01*
X5048773Y33379804D01*
X5024504Y33376204D01*
X5000000Y33375000D01*
X4500000Y33375000D01*
X4475496Y33376204D01*
X4451227Y33379804D01*
X4427429Y33385765D01*
X4404329Y33394030D01*
X4382151Y33404520D01*
X4361107Y33417133D01*
X4341402Y33431747D01*
X4323223Y33448223D01*
X4306747Y33466402D01*
X4292133Y33486107D01*
X4279520Y33507151D01*
X4269030Y33529329D01*
X4260765Y33552429D01*
X4254804Y33576227D01*
X4251204Y33600496D01*
X4250000Y33625000D01*
X4250000Y34375000D01*
X4251204Y34399504D01*
X4254804Y34423773D01*
X4260765Y34447571D01*
X4269030Y34470671D01*
X4279520Y34492849D01*
X4292133Y34513893D01*
X4306747Y34533598D01*
X4323223Y34551777D01*
X4341402Y34568253D01*
X4361107Y34582867D01*
X4382151Y34595480D01*
X4404329Y34605970D01*
X4427429Y34614235D01*
X4451227Y34620196D01*
X4475496Y34623796D01*
X4500000Y34625000D01*
X5000000Y34625000D01*
X5024504Y34623796D01*
G37*
G36*
X7024504Y34623796D02*
G01*
X7048773Y34620196D01*
X7072571Y34614235D01*
X7095671Y34605970D01*
X7117849Y34595480D01*
X7138893Y34582867D01*
X7158598Y34568253D01*
X7176777Y34551777D01*
X7193253Y34533598D01*
X7207867Y34513893D01*
X7220480Y34492849D01*
X7230970Y34470671D01*
X7239235Y34447571D01*
X7245196Y34423773D01*
X7248796Y34399504D01*
X7250000Y34375000D01*
X7250000Y33625000D01*
X7248796Y33600496D01*
X7245196Y33576227D01*
X7239235Y33552429D01*
X7230970Y33529329D01*
X7220480Y33507151D01*
X7207867Y33486107D01*
X7193253Y33466402D01*
X7176777Y33448223D01*
X7158598Y33431747D01*
X7138893Y33417133D01*
X7117849Y33404520D01*
X7095671Y33394030D01*
X7072571Y33385765D01*
X7048773Y33379804D01*
X7024504Y33376204D01*
X7000000Y33375000D01*
X6500000Y33375000D01*
X6475496Y33376204D01*
X6451227Y33379804D01*
X6427429Y33385765D01*
X6404329Y33394030D01*
X6382151Y33404520D01*
X6361107Y33417133D01*
X6341402Y33431747D01*
X6323223Y33448223D01*
X6306747Y33466402D01*
X6292133Y33486107D01*
X6279520Y33507151D01*
X6269030Y33529329D01*
X6260765Y33552429D01*
X6254804Y33576227D01*
X6251204Y33600496D01*
X6250000Y33625000D01*
X6250000Y34375000D01*
X6251204Y34399504D01*
X6254804Y34423773D01*
X6260765Y34447571D01*
X6269030Y34470671D01*
X6279520Y34492849D01*
X6292133Y34513893D01*
X6306747Y34533598D01*
X6323223Y34551777D01*
X6341402Y34568253D01*
X6361107Y34582867D01*
X6382151Y34595480D01*
X6404329Y34605970D01*
X6427429Y34614235D01*
X6451227Y34620196D01*
X6475496Y34623796D01*
X6500000Y34625000D01*
X7000000Y34625000D01*
X7024504Y34623796D01*
G37*
G36*
X33274504Y28123796D02*
G01*
X33298773Y28120196D01*
X33322571Y28114235D01*
X33345671Y28105970D01*
X33367849Y28095480D01*
X33388893Y28082867D01*
X33408598Y28068253D01*
X33426777Y28051777D01*
X33443253Y28033598D01*
X33457867Y28013893D01*
X33470480Y27992849D01*
X33480970Y27970671D01*
X33489235Y27947571D01*
X33495196Y27923773D01*
X33498796Y27899504D01*
X33500000Y27875000D01*
X33500000Y27125000D01*
X33498796Y27100496D01*
X33495196Y27076227D01*
X33489235Y27052429D01*
X33480970Y27029329D01*
X33470480Y27007151D01*
X33457867Y26986107D01*
X33443253Y26966402D01*
X33426777Y26948223D01*
X33408598Y26931747D01*
X33388893Y26917133D01*
X33367849Y26904520D01*
X33345671Y26894030D01*
X33322571Y26885765D01*
X33298773Y26879804D01*
X33274504Y26876204D01*
X33250000Y26875000D01*
X32750000Y26875000D01*
X32725496Y26876204D01*
X32701227Y26879804D01*
X32677429Y26885765D01*
X32654329Y26894030D01*
X32632151Y26904520D01*
X32611107Y26917133D01*
X32591402Y26931747D01*
X32573223Y26948223D01*
X32556747Y26966402D01*
X32542133Y26986107D01*
X32529520Y27007151D01*
X32519030Y27029329D01*
X32510765Y27052429D01*
X32504804Y27076227D01*
X32501204Y27100496D01*
X32500000Y27125000D01*
X32500000Y27875000D01*
X32501204Y27899504D01*
X32504804Y27923773D01*
X32510765Y27947571D01*
X32519030Y27970671D01*
X32529520Y27992849D01*
X32542133Y28013893D01*
X32556747Y28033598D01*
X32573223Y28051777D01*
X32591402Y28068253D01*
X32611107Y28082867D01*
X32632151Y28095480D01*
X32654329Y28105970D01*
X32677429Y28114235D01*
X32701227Y28120196D01*
X32725496Y28123796D01*
X32750000Y28125000D01*
X33250000Y28125000D01*
X33274504Y28123796D01*
G37*
G36*
X31274504Y28123796D02*
G01*
X31298773Y28120196D01*
X31322571Y28114235D01*
X31345671Y28105970D01*
X31367849Y28095480D01*
X31388893Y28082867D01*
X31408598Y28068253D01*
X31426777Y28051777D01*
X31443253Y28033598D01*
X31457867Y28013893D01*
X31470480Y27992849D01*
X31480970Y27970671D01*
X31489235Y27947571D01*
X31495196Y27923773D01*
X31498796Y27899504D01*
X31500000Y27875000D01*
X31500000Y27125000D01*
X31498796Y27100496D01*
X31495196Y27076227D01*
X31489235Y27052429D01*
X31480970Y27029329D01*
X31470480Y27007151D01*
X31457867Y26986107D01*
X31443253Y26966402D01*
X31426777Y26948223D01*
X31408598Y26931747D01*
X31388893Y26917133D01*
X31367849Y26904520D01*
X31345671Y26894030D01*
X31322571Y26885765D01*
X31298773Y26879804D01*
X31274504Y26876204D01*
X31250000Y26875000D01*
X30750000Y26875000D01*
X30725496Y26876204D01*
X30701227Y26879804D01*
X30677429Y26885765D01*
X30654329Y26894030D01*
X30632151Y26904520D01*
X30611107Y26917133D01*
X30591402Y26931747D01*
X30573223Y26948223D01*
X30556747Y26966402D01*
X30542133Y26986107D01*
X30529520Y27007151D01*
X30519030Y27029329D01*
X30510765Y27052429D01*
X30504804Y27076227D01*
X30501204Y27100496D01*
X30500000Y27125000D01*
X30500000Y27875000D01*
X30501204Y27899504D01*
X30504804Y27923773D01*
X30510765Y27947571D01*
X30519030Y27970671D01*
X30529520Y27992849D01*
X30542133Y28013893D01*
X30556747Y28033598D01*
X30573223Y28051777D01*
X30591402Y28068253D01*
X30611107Y28082867D01*
X30632151Y28095480D01*
X30654329Y28105970D01*
X30677429Y28114235D01*
X30701227Y28120196D01*
X30725496Y28123796D01*
X30750000Y28125000D01*
X31250000Y28125000D01*
X31274504Y28123796D01*
G37*
G36*
X47259703Y23549278D02*
G01*
X47274264Y23547118D01*
X47288543Y23543541D01*
X47302403Y23538582D01*
X47315710Y23532288D01*
X47328336Y23524720D01*
X47340159Y23515952D01*
X47351066Y23506066D01*
X47360952Y23495159D01*
X47369720Y23483336D01*
X47377288Y23470710D01*
X47383582Y23457403D01*
X47388541Y23443543D01*
X47392118Y23429264D01*
X47394278Y23414703D01*
X47395000Y23400000D01*
X47395000Y21700000D01*
X47394278Y21685297D01*
X47392118Y21670736D01*
X47388541Y21656457D01*
X47383582Y21642597D01*
X47377288Y21629290D01*
X47369720Y21616664D01*
X47360952Y21604841D01*
X47351066Y21593934D01*
X47340159Y21584048D01*
X47328336Y21575280D01*
X47315710Y21567712D01*
X47302403Y21561418D01*
X47288543Y21556459D01*
X47274264Y21552882D01*
X47259703Y21550722D01*
X47245000Y21550000D01*
X46945000Y21550000D01*
X46930297Y21550722D01*
X46915736Y21552882D01*
X46901457Y21556459D01*
X46887597Y21561418D01*
X46874290Y21567712D01*
X46861664Y21575280D01*
X46849841Y21584048D01*
X46838934Y21593934D01*
X46829048Y21604841D01*
X46820280Y21616664D01*
X46812712Y21629290D01*
X46806418Y21642597D01*
X46801459Y21656457D01*
X46797882Y21670736D01*
X46795722Y21685297D01*
X46795000Y21700000D01*
X46795000Y23400000D01*
X46795722Y23414703D01*
X46797882Y23429264D01*
X46801459Y23443543D01*
X46806418Y23457403D01*
X46812712Y23470710D01*
X46820280Y23483336D01*
X46829048Y23495159D01*
X46838934Y23506066D01*
X46849841Y23515952D01*
X46861664Y23524720D01*
X46874290Y23532288D01*
X46887597Y23538582D01*
X46901457Y23543541D01*
X46915736Y23547118D01*
X46930297Y23549278D01*
X46945000Y23550000D01*
X47245000Y23550000D01*
X47259703Y23549278D01*
G37*
G36*
X48529703Y23549278D02*
G01*
X48544264Y23547118D01*
X48558543Y23543541D01*
X48572403Y23538582D01*
X48585710Y23532288D01*
X48598336Y23524720D01*
X48610159Y23515952D01*
X48621066Y23506066D01*
X48630952Y23495159D01*
X48639720Y23483336D01*
X48647288Y23470710D01*
X48653582Y23457403D01*
X48658541Y23443543D01*
X48662118Y23429264D01*
X48664278Y23414703D01*
X48665000Y23400000D01*
X48665000Y21700000D01*
X48664278Y21685297D01*
X48662118Y21670736D01*
X48658541Y21656457D01*
X48653582Y21642597D01*
X48647288Y21629290D01*
X48639720Y21616664D01*
X48630952Y21604841D01*
X48621066Y21593934D01*
X48610159Y21584048D01*
X48598336Y21575280D01*
X48585710Y21567712D01*
X48572403Y21561418D01*
X48558543Y21556459D01*
X48544264Y21552882D01*
X48529703Y21550722D01*
X48515000Y21550000D01*
X48215000Y21550000D01*
X48200297Y21550722D01*
X48185736Y21552882D01*
X48171457Y21556459D01*
X48157597Y21561418D01*
X48144290Y21567712D01*
X48131664Y21575280D01*
X48119841Y21584048D01*
X48108934Y21593934D01*
X48099048Y21604841D01*
X48090280Y21616664D01*
X48082712Y21629290D01*
X48076418Y21642597D01*
X48071459Y21656457D01*
X48067882Y21670736D01*
X48065722Y21685297D01*
X48065000Y21700000D01*
X48065000Y23400000D01*
X48065722Y23414703D01*
X48067882Y23429264D01*
X48071459Y23443543D01*
X48076418Y23457403D01*
X48082712Y23470710D01*
X48090280Y23483336D01*
X48099048Y23495159D01*
X48108934Y23506066D01*
X48119841Y23515952D01*
X48131664Y23524720D01*
X48144290Y23532288D01*
X48157597Y23538582D01*
X48171457Y23543541D01*
X48185736Y23547118D01*
X48200297Y23549278D01*
X48215000Y23550000D01*
X48515000Y23550000D01*
X48529703Y23549278D01*
G37*
G36*
X51069703Y23549278D02*
G01*
X51084264Y23547118D01*
X51098543Y23543541D01*
X51112403Y23538582D01*
X51125710Y23532288D01*
X51138336Y23524720D01*
X51150159Y23515952D01*
X51161066Y23506066D01*
X51170952Y23495159D01*
X51179720Y23483336D01*
X51187288Y23470710D01*
X51193582Y23457403D01*
X51198541Y23443543D01*
X51202118Y23429264D01*
X51204278Y23414703D01*
X51205000Y23400000D01*
X51205000Y21700000D01*
X51204278Y21685297D01*
X51202118Y21670736D01*
X51198541Y21656457D01*
X51193582Y21642597D01*
X51187288Y21629290D01*
X51179720Y21616664D01*
X51170952Y21604841D01*
X51161066Y21593934D01*
X51150159Y21584048D01*
X51138336Y21575280D01*
X51125710Y21567712D01*
X51112403Y21561418D01*
X51098543Y21556459D01*
X51084264Y21552882D01*
X51069703Y21550722D01*
X51055000Y21550000D01*
X50755000Y21550000D01*
X50740297Y21550722D01*
X50725736Y21552882D01*
X50711457Y21556459D01*
X50697597Y21561418D01*
X50684290Y21567712D01*
X50671664Y21575280D01*
X50659841Y21584048D01*
X50648934Y21593934D01*
X50639048Y21604841D01*
X50630280Y21616664D01*
X50622712Y21629290D01*
X50616418Y21642597D01*
X50611459Y21656457D01*
X50607882Y21670736D01*
X50605722Y21685297D01*
X50605000Y21700000D01*
X50605000Y23400000D01*
X50605722Y23414703D01*
X50607882Y23429264D01*
X50611459Y23443543D01*
X50616418Y23457403D01*
X50622712Y23470710D01*
X50630280Y23483336D01*
X50639048Y23495159D01*
X50648934Y23506066D01*
X50659841Y23515952D01*
X50671664Y23524720D01*
X50684290Y23532288D01*
X50697597Y23538582D01*
X50711457Y23543541D01*
X50725736Y23547118D01*
X50740297Y23549278D01*
X50755000Y23550000D01*
X51055000Y23550000D01*
X51069703Y23549278D01*
G37*
G36*
X51069703Y28449278D02*
G01*
X51084264Y28447118D01*
X51098543Y28443541D01*
X51112403Y28438582D01*
X51125710Y28432288D01*
X51138336Y28424720D01*
X51150159Y28415952D01*
X51161066Y28406066D01*
X51170952Y28395159D01*
X51179720Y28383336D01*
X51187288Y28370710D01*
X51193582Y28357403D01*
X51198541Y28343543D01*
X51202118Y28329264D01*
X51204278Y28314703D01*
X51205000Y28300000D01*
X51205000Y26600000D01*
X51204278Y26585297D01*
X51202118Y26570736D01*
X51198541Y26556457D01*
X51193582Y26542597D01*
X51187288Y26529290D01*
X51179720Y26516664D01*
X51170952Y26504841D01*
X51161066Y26493934D01*
X51150159Y26484048D01*
X51138336Y26475280D01*
X51125710Y26467712D01*
X51112403Y26461418D01*
X51098543Y26456459D01*
X51084264Y26452882D01*
X51069703Y26450722D01*
X51055000Y26450000D01*
X50755000Y26450000D01*
X50740297Y26450722D01*
X50725736Y26452882D01*
X50711457Y26456459D01*
X50697597Y26461418D01*
X50684290Y26467712D01*
X50671664Y26475280D01*
X50659841Y26484048D01*
X50648934Y26493934D01*
X50639048Y26504841D01*
X50630280Y26516664D01*
X50622712Y26529290D01*
X50616418Y26542597D01*
X50611459Y26556457D01*
X50607882Y26570736D01*
X50605722Y26585297D01*
X50605000Y26600000D01*
X50605000Y28300000D01*
X50605722Y28314703D01*
X50607882Y28329264D01*
X50611459Y28343543D01*
X50616418Y28357403D01*
X50622712Y28370710D01*
X50630280Y28383336D01*
X50639048Y28395159D01*
X50648934Y28406066D01*
X50659841Y28415952D01*
X50671664Y28424720D01*
X50684290Y28432288D01*
X50697597Y28438582D01*
X50711457Y28443541D01*
X50725736Y28447118D01*
X50740297Y28449278D01*
X50755000Y28450000D01*
X51055000Y28450000D01*
X51069703Y28449278D01*
G37*
G36*
X49799703Y28449278D02*
G01*
X49814264Y28447118D01*
X49828543Y28443541D01*
X49842403Y28438582D01*
X49855710Y28432288D01*
X49868336Y28424720D01*
X49880159Y28415952D01*
X49891066Y28406066D01*
X49900952Y28395159D01*
X49909720Y28383336D01*
X49917288Y28370710D01*
X49923582Y28357403D01*
X49928541Y28343543D01*
X49932118Y28329264D01*
X49934278Y28314703D01*
X49935000Y28300000D01*
X49935000Y26600000D01*
X49934278Y26585297D01*
X49932118Y26570736D01*
X49928541Y26556457D01*
X49923582Y26542597D01*
X49917288Y26529290D01*
X49909720Y26516664D01*
X49900952Y26504841D01*
X49891066Y26493934D01*
X49880159Y26484048D01*
X49868336Y26475280D01*
X49855710Y26467712D01*
X49842403Y26461418D01*
X49828543Y26456459D01*
X49814264Y26452882D01*
X49799703Y26450722D01*
X49785000Y26450000D01*
X49485000Y26450000D01*
X49470297Y26450722D01*
X49455736Y26452882D01*
X49441457Y26456459D01*
X49427597Y26461418D01*
X49414290Y26467712D01*
X49401664Y26475280D01*
X49389841Y26484048D01*
X49378934Y26493934D01*
X49369048Y26504841D01*
X49360280Y26516664D01*
X49352712Y26529290D01*
X49346418Y26542597D01*
X49341459Y26556457D01*
X49337882Y26570736D01*
X49335722Y26585297D01*
X49335000Y26600000D01*
X49335000Y28300000D01*
X49335722Y28314703D01*
X49337882Y28329264D01*
X49341459Y28343543D01*
X49346418Y28357403D01*
X49352712Y28370710D01*
X49360280Y28383336D01*
X49369048Y28395159D01*
X49378934Y28406066D01*
X49389841Y28415952D01*
X49401664Y28424720D01*
X49414290Y28432288D01*
X49427597Y28438582D01*
X49441457Y28443541D01*
X49455736Y28447118D01*
X49470297Y28449278D01*
X49485000Y28450000D01*
X49785000Y28450000D01*
X49799703Y28449278D01*
G37*
G36*
X48529703Y28449278D02*
G01*
X48544264Y28447118D01*
X48558543Y28443541D01*
X48572403Y28438582D01*
X48585710Y28432288D01*
X48598336Y28424720D01*
X48610159Y28415952D01*
X48621066Y28406066D01*
X48630952Y28395159D01*
X48639720Y28383336D01*
X48647288Y28370710D01*
X48653582Y28357403D01*
X48658541Y28343543D01*
X48662118Y28329264D01*
X48664278Y28314703D01*
X48665000Y28300000D01*
X48665000Y26600000D01*
X48664278Y26585297D01*
X48662118Y26570736D01*
X48658541Y26556457D01*
X48653582Y26542597D01*
X48647288Y26529290D01*
X48639720Y26516664D01*
X48630952Y26504841D01*
X48621066Y26493934D01*
X48610159Y26484048D01*
X48598336Y26475280D01*
X48585710Y26467712D01*
X48572403Y26461418D01*
X48558543Y26456459D01*
X48544264Y26452882D01*
X48529703Y26450722D01*
X48515000Y26450000D01*
X48215000Y26450000D01*
X48200297Y26450722D01*
X48185736Y26452882D01*
X48171457Y26456459D01*
X48157597Y26461418D01*
X48144290Y26467712D01*
X48131664Y26475280D01*
X48119841Y26484048D01*
X48108934Y26493934D01*
X48099048Y26504841D01*
X48090280Y26516664D01*
X48082712Y26529290D01*
X48076418Y26542597D01*
X48071459Y26556457D01*
X48067882Y26570736D01*
X48065722Y26585297D01*
X48065000Y26600000D01*
X48065000Y28300000D01*
X48065722Y28314703D01*
X48067882Y28329264D01*
X48071459Y28343543D01*
X48076418Y28357403D01*
X48082712Y28370710D01*
X48090280Y28383336D01*
X48099048Y28395159D01*
X48108934Y28406066D01*
X48119841Y28415952D01*
X48131664Y28424720D01*
X48144290Y28432288D01*
X48157597Y28438582D01*
X48171457Y28443541D01*
X48185736Y28447118D01*
X48200297Y28449278D01*
X48215000Y28450000D01*
X48515000Y28450000D01*
X48529703Y28449278D01*
G37*
G36*
X47259703Y28449278D02*
G01*
X47274264Y28447118D01*
X47288543Y28443541D01*
X47302403Y28438582D01*
X47315710Y28432288D01*
X47328336Y28424720D01*
X47340159Y28415952D01*
X47351066Y28406066D01*
X47360952Y28395159D01*
X47369720Y28383336D01*
X47377288Y28370710D01*
X47383582Y28357403D01*
X47388541Y28343543D01*
X47392118Y28329264D01*
X47394278Y28314703D01*
X47395000Y28300000D01*
X47395000Y26600000D01*
X47394278Y26585297D01*
X47392118Y26570736D01*
X47388541Y26556457D01*
X47383582Y26542597D01*
X47377288Y26529290D01*
X47369720Y26516664D01*
X47360952Y26504841D01*
X47351066Y26493934D01*
X47340159Y26484048D01*
X47328336Y26475280D01*
X47315710Y26467712D01*
X47302403Y26461418D01*
X47288543Y26456459D01*
X47274264Y26452882D01*
X47259703Y26450722D01*
X47245000Y26450000D01*
X46945000Y26450000D01*
X46930297Y26450722D01*
X46915736Y26452882D01*
X46901457Y26456459D01*
X46887597Y26461418D01*
X46874290Y26467712D01*
X46861664Y26475280D01*
X46849841Y26484048D01*
X46838934Y26493934D01*
X46829048Y26504841D01*
X46820280Y26516664D01*
X46812712Y26529290D01*
X46806418Y26542597D01*
X46801459Y26556457D01*
X46797882Y26570736D01*
X46795722Y26585297D01*
X46795000Y26600000D01*
X46795000Y28300000D01*
X46795722Y28314703D01*
X46797882Y28329264D01*
X46801459Y28343543D01*
X46806418Y28357403D01*
X46812712Y28370710D01*
X46820280Y28383336D01*
X46829048Y28395159D01*
X46838934Y28406066D01*
X46849841Y28415952D01*
X46861664Y28424720D01*
X46874290Y28432288D01*
X46887597Y28438582D01*
X46901457Y28443541D01*
X46915736Y28447118D01*
X46930297Y28449278D01*
X46945000Y28450000D01*
X47245000Y28450000D01*
X47259703Y28449278D01*
G37*
M02*
