G04 #@! TF.GenerationSoftware,KiCad,Pcbnew,(5.1.5)-3*
G04 #@! TF.CreationDate,2020-02-03T09:46:18+01:00*
G04 #@! TF.ProjectId,Chopper_v2,43686f70-7065-4725-9f76-322e6b696361,rev?*
G04 #@! TF.SameCoordinates,PXc65d40PYb71b000*
G04 #@! TF.FileFunction,Copper,L2,Bot*
G04 #@! TF.FilePolarity,Positive*
%FSLAX46Y46*%
G04 Gerber Fmt 4.6, Leading zero omitted, Abs format (unit mm)*
G04 Created by KiCad (PCBNEW (5.1.5)-3) date 2020-02-03 09:46:18*
%MOMM*%
%LPD*%
G04 APERTURE LIST*
%ADD10O,2.000000X3.500000*%
%ADD11C,0.100000*%
%ADD12C,1.500000*%
%ADD13C,0.600000*%
%ADD14C,0.254000*%
G04 APERTURE END LIST*
D10*
X9330000Y84000000D03*
X4250000Y84000000D03*
G04 #@! TA.AperFunction,SMDPad,CuDef*
D11*
G36*
X43936261Y57246990D02*
G01*
X43996931Y57237991D01*
X44056428Y57223088D01*
X44114177Y57202425D01*
X44169623Y57176201D01*
X44222231Y57144669D01*
X44271496Y57108132D01*
X44316942Y57066942D01*
X44358132Y57021496D01*
X44394669Y56972231D01*
X44426201Y56919623D01*
X44452425Y56864177D01*
X44473088Y56806428D01*
X44487991Y56746931D01*
X44496990Y56686261D01*
X44500000Y56625000D01*
X44500000Y55375000D01*
X44496990Y55313739D01*
X44487991Y55253069D01*
X44473088Y55193572D01*
X44452425Y55135823D01*
X44426201Y55080377D01*
X44394669Y55027769D01*
X44358132Y54978504D01*
X44316942Y54933058D01*
X44271496Y54891868D01*
X44222231Y54855331D01*
X44169623Y54823799D01*
X44114177Y54797575D01*
X44056428Y54776912D01*
X43996931Y54762009D01*
X43936261Y54753010D01*
X43875000Y54750000D01*
X42625000Y54750000D01*
X42563739Y54753010D01*
X42503069Y54762009D01*
X42443572Y54776912D01*
X42385823Y54797575D01*
X42330377Y54823799D01*
X42277769Y54855331D01*
X42228504Y54891868D01*
X42183058Y54933058D01*
X42141868Y54978504D01*
X42105331Y55027769D01*
X42073799Y55080377D01*
X42047575Y55135823D01*
X42026912Y55193572D01*
X42012009Y55253069D01*
X42003010Y55313739D01*
X42000000Y55375000D01*
X42000000Y56625000D01*
X42003010Y56686261D01*
X42012009Y56746931D01*
X42026912Y56806428D01*
X42047575Y56864177D01*
X42073799Y56919623D01*
X42105331Y56972231D01*
X42141868Y57021496D01*
X42183058Y57066942D01*
X42228504Y57108132D01*
X42277769Y57144669D01*
X42330377Y57176201D01*
X42385823Y57202425D01*
X42443572Y57223088D01*
X42503069Y57237991D01*
X42563739Y57246990D01*
X42625000Y57250000D01*
X43875000Y57250000D01*
X43936261Y57246990D01*
G37*
G04 #@! TD.AperFunction*
G04 #@! TA.AperFunction,SMDPad,CuDef*
G36*
X40436261Y57246990D02*
G01*
X40496931Y57237991D01*
X40556428Y57223088D01*
X40614177Y57202425D01*
X40669623Y57176201D01*
X40722231Y57144669D01*
X40771496Y57108132D01*
X40816942Y57066942D01*
X40858132Y57021496D01*
X40894669Y56972231D01*
X40926201Y56919623D01*
X40952425Y56864177D01*
X40973088Y56806428D01*
X40987991Y56746931D01*
X40996990Y56686261D01*
X41000000Y56625000D01*
X41000000Y55375000D01*
X40996990Y55313739D01*
X40987991Y55253069D01*
X40973088Y55193572D01*
X40952425Y55135823D01*
X40926201Y55080377D01*
X40894669Y55027769D01*
X40858132Y54978504D01*
X40816942Y54933058D01*
X40771496Y54891868D01*
X40722231Y54855331D01*
X40669623Y54823799D01*
X40614177Y54797575D01*
X40556428Y54776912D01*
X40496931Y54762009D01*
X40436261Y54753010D01*
X40375000Y54750000D01*
X39125000Y54750000D01*
X39063739Y54753010D01*
X39003069Y54762009D01*
X38943572Y54776912D01*
X38885823Y54797575D01*
X38830377Y54823799D01*
X38777769Y54855331D01*
X38728504Y54891868D01*
X38683058Y54933058D01*
X38641868Y54978504D01*
X38605331Y55027769D01*
X38573799Y55080377D01*
X38547575Y55135823D01*
X38526912Y55193572D01*
X38512009Y55253069D01*
X38503010Y55313739D01*
X38500000Y55375000D01*
X38500000Y56625000D01*
X38503010Y56686261D01*
X38512009Y56746931D01*
X38526912Y56806428D01*
X38547575Y56864177D01*
X38573799Y56919623D01*
X38605331Y56972231D01*
X38641868Y57021496D01*
X38683058Y57066942D01*
X38728504Y57108132D01*
X38777769Y57144669D01*
X38830377Y57176201D01*
X38885823Y57202425D01*
X38943572Y57223088D01*
X39003069Y57237991D01*
X39063739Y57246990D01*
X39125000Y57250000D01*
X40375000Y57250000D01*
X40436261Y57246990D01*
G37*
G04 #@! TD.AperFunction*
D12*
X39750000Y56000000D03*
X43250000Y56000000D03*
D10*
X45750000Y84000000D03*
X50830000Y84000000D03*
D12*
X11750000Y37000000D03*
X15250000Y37000000D03*
G04 #@! TA.AperFunction,SMDPad,CuDef*
D11*
G36*
X15936261Y38246990D02*
G01*
X15996931Y38237991D01*
X16056428Y38223088D01*
X16114177Y38202425D01*
X16169623Y38176201D01*
X16222231Y38144669D01*
X16271496Y38108132D01*
X16316942Y38066942D01*
X16358132Y38021496D01*
X16394669Y37972231D01*
X16426201Y37919623D01*
X16452425Y37864177D01*
X16473088Y37806428D01*
X16487991Y37746931D01*
X16496990Y37686261D01*
X16500000Y37625000D01*
X16500000Y36375000D01*
X16496990Y36313739D01*
X16487991Y36253069D01*
X16473088Y36193572D01*
X16452425Y36135823D01*
X16426201Y36080377D01*
X16394669Y36027769D01*
X16358132Y35978504D01*
X16316942Y35933058D01*
X16271496Y35891868D01*
X16222231Y35855331D01*
X16169623Y35823799D01*
X16114177Y35797575D01*
X16056428Y35776912D01*
X15996931Y35762009D01*
X15936261Y35753010D01*
X15875000Y35750000D01*
X14625000Y35750000D01*
X14563739Y35753010D01*
X14503069Y35762009D01*
X14443572Y35776912D01*
X14385823Y35797575D01*
X14330377Y35823799D01*
X14277769Y35855331D01*
X14228504Y35891868D01*
X14183058Y35933058D01*
X14141868Y35978504D01*
X14105331Y36027769D01*
X14073799Y36080377D01*
X14047575Y36135823D01*
X14026912Y36193572D01*
X14012009Y36253069D01*
X14003010Y36313739D01*
X14000000Y36375000D01*
X14000000Y37625000D01*
X14003010Y37686261D01*
X14012009Y37746931D01*
X14026912Y37806428D01*
X14047575Y37864177D01*
X14073799Y37919623D01*
X14105331Y37972231D01*
X14141868Y38021496D01*
X14183058Y38066942D01*
X14228504Y38108132D01*
X14277769Y38144669D01*
X14330377Y38176201D01*
X14385823Y38202425D01*
X14443572Y38223088D01*
X14503069Y38237991D01*
X14563739Y38246990D01*
X14625000Y38250000D01*
X15875000Y38250000D01*
X15936261Y38246990D01*
G37*
G04 #@! TD.AperFunction*
G04 #@! TA.AperFunction,SMDPad,CuDef*
G36*
X12436261Y38246990D02*
G01*
X12496931Y38237991D01*
X12556428Y38223088D01*
X12614177Y38202425D01*
X12669623Y38176201D01*
X12722231Y38144669D01*
X12771496Y38108132D01*
X12816942Y38066942D01*
X12858132Y38021496D01*
X12894669Y37972231D01*
X12926201Y37919623D01*
X12952425Y37864177D01*
X12973088Y37806428D01*
X12987991Y37746931D01*
X12996990Y37686261D01*
X13000000Y37625000D01*
X13000000Y36375000D01*
X12996990Y36313739D01*
X12987991Y36253069D01*
X12973088Y36193572D01*
X12952425Y36135823D01*
X12926201Y36080377D01*
X12894669Y36027769D01*
X12858132Y35978504D01*
X12816942Y35933058D01*
X12771496Y35891868D01*
X12722231Y35855331D01*
X12669623Y35823799D01*
X12614177Y35797575D01*
X12556428Y35776912D01*
X12496931Y35762009D01*
X12436261Y35753010D01*
X12375000Y35750000D01*
X11125000Y35750000D01*
X11063739Y35753010D01*
X11003069Y35762009D01*
X10943572Y35776912D01*
X10885823Y35797575D01*
X10830377Y35823799D01*
X10777769Y35855331D01*
X10728504Y35891868D01*
X10683058Y35933058D01*
X10641868Y35978504D01*
X10605331Y36027769D01*
X10573799Y36080377D01*
X10547575Y36135823D01*
X10526912Y36193572D01*
X10512009Y36253069D01*
X10503010Y36313739D01*
X10500000Y36375000D01*
X10500000Y37625000D01*
X10503010Y37686261D01*
X10512009Y37746931D01*
X10526912Y37806428D01*
X10547575Y37864177D01*
X10573799Y37919623D01*
X10605331Y37972231D01*
X10641868Y38021496D01*
X10683058Y38066942D01*
X10728504Y38108132D01*
X10777769Y38144669D01*
X10830377Y38176201D01*
X10885823Y38202425D01*
X10943572Y38223088D01*
X11003069Y38237991D01*
X11063739Y38246990D01*
X11125000Y38250000D01*
X12375000Y38250000D01*
X12436261Y38246990D01*
G37*
G04 #@! TD.AperFunction*
D10*
X50750000Y9000000D03*
X45670000Y9000000D03*
X4170000Y9000000D03*
X9250000Y9000000D03*
D13*
X19500000Y48750000D03*
X14500000Y48750000D03*
X21500000Y48750000D03*
X17500000Y48750000D03*
X15500000Y48750000D03*
X20500000Y48750000D03*
X30500000Y66000000D03*
X30500000Y69000000D03*
X30500000Y68000000D03*
X29500000Y68000000D03*
X29500000Y65000000D03*
X32500000Y65000000D03*
X1000000Y52250000D03*
X31500000Y61000000D03*
X1000000Y53500000D03*
X31500000Y62000000D03*
X18500000Y48750000D03*
X31500000Y63000000D03*
X16500000Y48750000D03*
X32500000Y66000000D03*
X1000000Y54750000D03*
X1000000Y51000000D03*
X1000000Y49750000D03*
X28500000Y61000000D03*
X30500000Y65000000D03*
X29500000Y69000000D03*
X29500000Y67000000D03*
X29500000Y66000000D03*
X32500000Y67000000D03*
X32500000Y68000000D03*
X30500000Y67000000D03*
X26500000Y63000000D03*
X28500000Y62000000D03*
X30500000Y64000000D03*
X29500000Y63000000D03*
X28500000Y63000000D03*
X31500000Y64000000D03*
X32500000Y69000000D03*
X32500000Y64000000D03*
X27500000Y63000000D03*
X29500000Y64000000D03*
X30500000Y63000000D03*
X30500000Y76500000D03*
X29000000Y72000000D03*
X29000000Y75000000D03*
X27500000Y76500000D03*
X27500000Y78000000D03*
X30500000Y79500000D03*
X26000000Y79500000D03*
X26000000Y78000000D03*
X27500000Y72000000D03*
X27500000Y73500000D03*
X30500000Y75000000D03*
X30500000Y78000000D03*
X32000000Y79500000D03*
X32000000Y76500000D03*
X29000000Y76500000D03*
X27500000Y75000000D03*
X33500000Y79500000D03*
X33500000Y73500000D03*
X32000000Y78000000D03*
X33500000Y72000000D03*
X32000000Y75000000D03*
X24500000Y76500000D03*
X32000000Y73500000D03*
X29000000Y79500000D03*
X33500000Y78000000D03*
X29000000Y78000000D03*
X33500000Y76500000D03*
X26000000Y73500000D03*
X33500000Y75000000D03*
X24500000Y73500000D03*
X32000000Y72000000D03*
X30500000Y72000000D03*
X29000000Y73500000D03*
X26000000Y75000000D03*
X24500000Y78000000D03*
X30500000Y73500000D03*
X26000000Y76500000D03*
X26000000Y72000000D03*
X27500000Y79500000D03*
X35500000Y72000000D03*
X36750000Y72000000D03*
X22500000Y76500000D03*
X21250000Y79500000D03*
X36750000Y76500000D03*
X20000000Y75000000D03*
X35500000Y75000000D03*
X20000000Y72000000D03*
X21250000Y72000000D03*
X22500000Y75000000D03*
X38000000Y72000000D03*
X36750000Y75000000D03*
X36750000Y73500000D03*
X35500000Y79500000D03*
X20000000Y73500000D03*
X35500000Y76500000D03*
X38000000Y78000000D03*
X21250000Y75000000D03*
X36750000Y78000000D03*
X20000000Y76500000D03*
X35500000Y78000000D03*
X20000000Y78000000D03*
X38000000Y73500000D03*
X21250000Y78000000D03*
X22500000Y79500000D03*
X36750000Y79500000D03*
X24500000Y79500000D03*
X22500000Y73500000D03*
X20000000Y79500000D03*
X22500000Y72000000D03*
X35500000Y73500000D03*
X38000000Y76500000D03*
X38000000Y79500000D03*
X21250000Y76500000D03*
X24500000Y72000000D03*
X38000000Y75000000D03*
X24500000Y75000000D03*
X21250000Y73500000D03*
X22500000Y78000000D03*
X10500000Y45000000D03*
X11500000Y45000000D03*
X12500000Y45000000D03*
X13500000Y45000000D03*
X14500000Y45000000D03*
X15500000Y45000000D03*
X16500000Y45000000D03*
X11000000Y48000000D03*
X12000000Y48000000D03*
X13000000Y48000000D03*
X14000000Y48000000D03*
X15000000Y48000000D03*
X16000000Y48000000D03*
X17000000Y48000000D03*
X38500000Y45000000D03*
X39500000Y45000000D03*
X40500000Y45000000D03*
X41500000Y45000000D03*
X42500000Y45000000D03*
X43500000Y45000000D03*
X44500000Y45000000D03*
X44000000Y47500000D03*
X43000000Y47500000D03*
X42000000Y47500000D03*
X41000000Y47500000D03*
X40000000Y47500000D03*
X39000000Y47500000D03*
X38500000Y44250000D03*
X40500000Y44250000D03*
X39500000Y44250000D03*
X37500000Y44250000D03*
X36500000Y44250000D03*
X35500000Y44250000D03*
X34500000Y44250000D03*
X33500000Y44250000D03*
X24500000Y28000000D03*
X24500000Y27000000D03*
X24500000Y26000000D03*
X24500000Y25000000D03*
X24500000Y24000000D03*
X25500000Y24000000D03*
X25500000Y25000000D03*
X25500000Y26000000D03*
X25500000Y27000000D03*
X25500000Y28000000D03*
X22500000Y28000000D03*
X22500000Y27000000D03*
X22500000Y26000000D03*
X22500000Y25000000D03*
X54000000Y38250000D03*
X54000000Y39500000D03*
X54000000Y40750000D03*
X54000000Y42000000D03*
X54000000Y43250000D03*
X23500000Y32000000D03*
X23500000Y31000000D03*
X23500000Y30000000D03*
X26500000Y32000000D03*
X26500000Y31000000D03*
X26500000Y30000000D03*
X24500000Y30000000D03*
X27500000Y30000000D03*
X28500000Y30000000D03*
X24500000Y29000000D03*
X25500000Y30000000D03*
X25500000Y29000000D03*
X22500000Y29000000D03*
X23500000Y29000000D03*
X22500000Y24000000D03*
X19500000Y21000000D03*
X18250000Y21000000D03*
X17000000Y21000000D03*
X19500000Y19500000D03*
X18250000Y19500000D03*
X17000000Y19500000D03*
X19500000Y18000000D03*
X18250000Y18000000D03*
X17000000Y18000000D03*
X19500000Y16500000D03*
X18250000Y16500000D03*
X17000000Y16500000D03*
X19500000Y15000000D03*
X18250000Y15000000D03*
X17000000Y15000000D03*
X19500000Y13500000D03*
X18250000Y13500000D03*
X17000000Y13500000D03*
X35000000Y21000000D03*
X33750000Y21000000D03*
X32500000Y21000000D03*
X35000000Y19500000D03*
X33750000Y19500000D03*
X32500000Y19500000D03*
X35000000Y18000000D03*
X33750000Y18000000D03*
X32500000Y18000000D03*
X35000000Y16500000D03*
X33750000Y16500000D03*
X32500000Y16500000D03*
X35000000Y15000000D03*
X33750000Y15000000D03*
X32500000Y15000000D03*
X33750000Y13500000D03*
X35000000Y13500000D03*
X32500000Y13500000D03*
X30500000Y13500000D03*
X30500000Y21000000D03*
X30500000Y18000000D03*
X30500000Y15000000D03*
X30500000Y19500000D03*
X30500000Y16500000D03*
X29000000Y13500000D03*
X29000000Y21000000D03*
X29000000Y18000000D03*
X29000000Y15000000D03*
X29000000Y19500000D03*
X29000000Y16500000D03*
X27500000Y13500000D03*
X27500000Y21000000D03*
X27500000Y18000000D03*
X27500000Y15000000D03*
X27500000Y19500000D03*
X27500000Y16500000D03*
X26000000Y13500000D03*
X26000000Y21000000D03*
X26000000Y18000000D03*
X26000000Y15000000D03*
X26000000Y19500000D03*
X26000000Y16500000D03*
X24500000Y13500000D03*
X24500000Y21000000D03*
X24500000Y18000000D03*
X24500000Y15000000D03*
X24500000Y19500000D03*
X24500000Y16500000D03*
X23000000Y13500000D03*
X23000000Y21000000D03*
X23000000Y18000000D03*
X23000000Y15000000D03*
X23000000Y19500000D03*
X23000000Y16500000D03*
X21500000Y13500000D03*
X21500000Y15000000D03*
X21500000Y16500000D03*
X21500000Y18000000D03*
X21500000Y19500000D03*
X21500000Y21000000D03*
D14*
G36*
X54594000Y4980060D02*
G01*
X54594001Y4980050D01*
X54594000Y406000D01*
X53646266Y406000D01*
X54120133Y879867D01*
X54229199Y1012765D01*
X54310242Y1164387D01*
X54360149Y1328906D01*
X54377000Y1500000D01*
X54377000Y11500000D01*
X54360149Y11671094D01*
X54310242Y11835613D01*
X54229199Y11987235D01*
X54120133Y12120133D01*
X53870133Y12370133D01*
X53737235Y12479199D01*
X53585613Y12560242D01*
X53421094Y12610149D01*
X53250000Y12627000D01*
X49750000Y12627000D01*
X49578906Y12610149D01*
X49414387Y12560242D01*
X49381000Y12542396D01*
X49381000Y12887524D01*
X49912112Y12993169D01*
X50481190Y13228889D01*
X50993346Y13571101D01*
X51428899Y14006654D01*
X51497663Y14109566D01*
X53000000Y14109566D01*
X53073732Y14116769D01*
X53145240Y14138335D01*
X53211166Y14173438D01*
X53268977Y14220728D01*
X54272178Y15220728D01*
X54319991Y15278894D01*
X54355199Y15344764D01*
X54376880Y15416237D01*
X54384201Y15490566D01*
X54384201Y36990566D01*
X54368079Y37100225D01*
X54339675Y37169302D01*
X54298340Y37231510D01*
X54245663Y37284459D01*
X52995663Y38315709D01*
X52963830Y38339300D01*
X52897845Y38374292D01*
X52826301Y38395738D01*
X52751948Y38402814D01*
X50731540Y38396168D01*
X50993346Y38571101D01*
X51428899Y39006654D01*
X51771111Y39518810D01*
X52006831Y40087888D01*
X52127000Y40692017D01*
X52127000Y41307983D01*
X52006831Y41912112D01*
X51771111Y42481190D01*
X51428899Y42993346D01*
X50993346Y43428899D01*
X50481190Y43771111D01*
X49912112Y44006831D01*
X49307983Y44127000D01*
X48692017Y44127000D01*
X48087888Y44006831D01*
X47518810Y43771111D01*
X47006654Y43428899D01*
X46571101Y42993346D01*
X46228889Y42481190D01*
X45993169Y41912112D01*
X45873000Y41307983D01*
X45873000Y40692017D01*
X45993169Y40087888D01*
X46228889Y39518810D01*
X46571101Y39006654D01*
X47006654Y38571101D01*
X47285425Y38384832D01*
X43252556Y38371566D01*
X30753201Y38371566D01*
X30678872Y38364245D01*
X30607399Y38342564D01*
X30541529Y38307356D01*
X30483793Y38259974D01*
X29733793Y37509974D01*
X29686461Y37452313D01*
X29651238Y37386452D01*
X29629539Y37314984D01*
X29622201Y37240656D01*
X29619037Y23907853D01*
X28592184Y22881000D01*
X16000000Y22881000D01*
X15925671Y22873679D01*
X15854198Y22851998D01*
X15788328Y22816790D01*
X15730592Y22769408D01*
X14730592Y21769408D01*
X14683210Y21711672D01*
X14648002Y21645802D01*
X14626321Y21574329D01*
X14619000Y21500000D01*
X14619000Y13500000D01*
X14625976Y13427426D01*
X14647321Y13355852D01*
X14682220Y13289817D01*
X14729330Y13231860D01*
X15729330Y12222426D01*
X15788447Y12173696D01*
X15854330Y12138513D01*
X15925812Y12116859D01*
X16000144Y12109566D01*
X35126517Y12116783D01*
X34386734Y11377000D01*
X16113266Y11377000D01*
X15370133Y12120133D01*
X15237235Y12229199D01*
X15085613Y12310242D01*
X14921094Y12360149D01*
X14750000Y12377000D01*
X7750000Y12377000D01*
X7578906Y12360149D01*
X7414387Y12310242D01*
X7262765Y12229199D01*
X7129867Y12120133D01*
X6379867Y11370133D01*
X6270801Y11237235D01*
X6189758Y11085613D01*
X6139851Y10921094D01*
X6123000Y10750000D01*
X6123000Y1500000D01*
X6139851Y1328906D01*
X6189758Y1164387D01*
X6270801Y1012765D01*
X6379867Y879867D01*
X6853734Y406000D01*
X406000Y406000D01*
X406000Y16307983D01*
X1873000Y16307983D01*
X1873000Y15692017D01*
X1993169Y15087888D01*
X2228889Y14518810D01*
X2571101Y14006654D01*
X3006654Y13571101D01*
X3518810Y13228889D01*
X4087888Y12993169D01*
X4692017Y12873000D01*
X5307983Y12873000D01*
X5912112Y12993169D01*
X6481190Y13228889D01*
X6993346Y13571101D01*
X7428899Y14006654D01*
X7771111Y14518810D01*
X8006831Y15087888D01*
X8127000Y15692017D01*
X8127000Y16307983D01*
X8006831Y16912112D01*
X7771111Y17481190D01*
X7428899Y17993346D01*
X6993346Y18428899D01*
X6481190Y18771111D01*
X5912112Y19006831D01*
X5307983Y19127000D01*
X4692017Y19127000D01*
X4087888Y19006831D01*
X3518810Y18771111D01*
X3006654Y18428899D01*
X2571101Y17993346D01*
X2228889Y17481190D01*
X1993169Y16912112D01*
X1873000Y16307983D01*
X406000Y16307983D01*
X406000Y28226394D01*
X1052606Y28873000D01*
X12250000Y28873000D01*
X12274776Y28875440D01*
X12298601Y28882667D01*
X12320557Y28894403D01*
X12339803Y28910197D01*
X12349729Y28921367D01*
X17436593Y35373000D01*
X17750000Y35373000D01*
X17774776Y35375440D01*
X17798601Y35382667D01*
X17820557Y35394403D01*
X17839803Y35410197D01*
X18339803Y35910197D01*
X18355597Y35929443D01*
X18367333Y35951399D01*
X18374560Y35975224D01*
X18377000Y36000000D01*
X18377000Y44594000D01*
X54594001Y44594000D01*
X54594000Y4980060D01*
G37*
X54594000Y4980060D02*
X54594001Y4980050D01*
X54594000Y406000D01*
X53646266Y406000D01*
X54120133Y879867D01*
X54229199Y1012765D01*
X54310242Y1164387D01*
X54360149Y1328906D01*
X54377000Y1500000D01*
X54377000Y11500000D01*
X54360149Y11671094D01*
X54310242Y11835613D01*
X54229199Y11987235D01*
X54120133Y12120133D01*
X53870133Y12370133D01*
X53737235Y12479199D01*
X53585613Y12560242D01*
X53421094Y12610149D01*
X53250000Y12627000D01*
X49750000Y12627000D01*
X49578906Y12610149D01*
X49414387Y12560242D01*
X49381000Y12542396D01*
X49381000Y12887524D01*
X49912112Y12993169D01*
X50481190Y13228889D01*
X50993346Y13571101D01*
X51428899Y14006654D01*
X51497663Y14109566D01*
X53000000Y14109566D01*
X53073732Y14116769D01*
X53145240Y14138335D01*
X53211166Y14173438D01*
X53268977Y14220728D01*
X54272178Y15220728D01*
X54319991Y15278894D01*
X54355199Y15344764D01*
X54376880Y15416237D01*
X54384201Y15490566D01*
X54384201Y36990566D01*
X54368079Y37100225D01*
X54339675Y37169302D01*
X54298340Y37231510D01*
X54245663Y37284459D01*
X52995663Y38315709D01*
X52963830Y38339300D01*
X52897845Y38374292D01*
X52826301Y38395738D01*
X52751948Y38402814D01*
X50731540Y38396168D01*
X50993346Y38571101D01*
X51428899Y39006654D01*
X51771111Y39518810D01*
X52006831Y40087888D01*
X52127000Y40692017D01*
X52127000Y41307983D01*
X52006831Y41912112D01*
X51771111Y42481190D01*
X51428899Y42993346D01*
X50993346Y43428899D01*
X50481190Y43771111D01*
X49912112Y44006831D01*
X49307983Y44127000D01*
X48692017Y44127000D01*
X48087888Y44006831D01*
X47518810Y43771111D01*
X47006654Y43428899D01*
X46571101Y42993346D01*
X46228889Y42481190D01*
X45993169Y41912112D01*
X45873000Y41307983D01*
X45873000Y40692017D01*
X45993169Y40087888D01*
X46228889Y39518810D01*
X46571101Y39006654D01*
X47006654Y38571101D01*
X47285425Y38384832D01*
X43252556Y38371566D01*
X30753201Y38371566D01*
X30678872Y38364245D01*
X30607399Y38342564D01*
X30541529Y38307356D01*
X30483793Y38259974D01*
X29733793Y37509974D01*
X29686461Y37452313D01*
X29651238Y37386452D01*
X29629539Y37314984D01*
X29622201Y37240656D01*
X29619037Y23907853D01*
X28592184Y22881000D01*
X16000000Y22881000D01*
X15925671Y22873679D01*
X15854198Y22851998D01*
X15788328Y22816790D01*
X15730592Y22769408D01*
X14730592Y21769408D01*
X14683210Y21711672D01*
X14648002Y21645802D01*
X14626321Y21574329D01*
X14619000Y21500000D01*
X14619000Y13500000D01*
X14625976Y13427426D01*
X14647321Y13355852D01*
X14682220Y13289817D01*
X14729330Y13231860D01*
X15729330Y12222426D01*
X15788447Y12173696D01*
X15854330Y12138513D01*
X15925812Y12116859D01*
X16000144Y12109566D01*
X35126517Y12116783D01*
X34386734Y11377000D01*
X16113266Y11377000D01*
X15370133Y12120133D01*
X15237235Y12229199D01*
X15085613Y12310242D01*
X14921094Y12360149D01*
X14750000Y12377000D01*
X7750000Y12377000D01*
X7578906Y12360149D01*
X7414387Y12310242D01*
X7262765Y12229199D01*
X7129867Y12120133D01*
X6379867Y11370133D01*
X6270801Y11237235D01*
X6189758Y11085613D01*
X6139851Y10921094D01*
X6123000Y10750000D01*
X6123000Y1500000D01*
X6139851Y1328906D01*
X6189758Y1164387D01*
X6270801Y1012765D01*
X6379867Y879867D01*
X6853734Y406000D01*
X406000Y406000D01*
X406000Y16307983D01*
X1873000Y16307983D01*
X1873000Y15692017D01*
X1993169Y15087888D01*
X2228889Y14518810D01*
X2571101Y14006654D01*
X3006654Y13571101D01*
X3518810Y13228889D01*
X4087888Y12993169D01*
X4692017Y12873000D01*
X5307983Y12873000D01*
X5912112Y12993169D01*
X6481190Y13228889D01*
X6993346Y13571101D01*
X7428899Y14006654D01*
X7771111Y14518810D01*
X8006831Y15087888D01*
X8127000Y15692017D01*
X8127000Y16307983D01*
X8006831Y16912112D01*
X7771111Y17481190D01*
X7428899Y17993346D01*
X6993346Y18428899D01*
X6481190Y18771111D01*
X5912112Y19006831D01*
X5307983Y19127000D01*
X4692017Y19127000D01*
X4087888Y19006831D01*
X3518810Y18771111D01*
X3006654Y18428899D01*
X2571101Y17993346D01*
X2228889Y17481190D01*
X1993169Y16912112D01*
X1873000Y16307983D01*
X406000Y16307983D01*
X406000Y28226394D01*
X1052606Y28873000D01*
X12250000Y28873000D01*
X12274776Y28875440D01*
X12298601Y28882667D01*
X12320557Y28894403D01*
X12339803Y28910197D01*
X12349729Y28921367D01*
X17436593Y35373000D01*
X17750000Y35373000D01*
X17774776Y35375440D01*
X17798601Y35382667D01*
X17820557Y35394403D01*
X17839803Y35410197D01*
X18339803Y35910197D01*
X18355597Y35929443D01*
X18367333Y35951399D01*
X18374560Y35975224D01*
X18377000Y36000000D01*
X18377000Y44594000D01*
X54594001Y44594000D01*
X54594000Y4980060D01*
G36*
X53373000Y11447394D02*
G01*
X53373000Y1552606D01*
X52947394Y1127000D01*
X7552606Y1127000D01*
X7127000Y1552606D01*
X7127000Y10697394D01*
X7802606Y11373000D01*
X14697394Y11373000D01*
X15660197Y10410197D01*
X15679443Y10394403D01*
X15701399Y10382667D01*
X15725224Y10375440D01*
X15750000Y10373000D01*
X34750000Y10373000D01*
X34774776Y10375440D01*
X34798601Y10382667D01*
X34820557Y10394403D01*
X34839803Y10410197D01*
X35802606Y11373000D01*
X39697394Y11373000D01*
X40373000Y10697394D01*
X40373000Y6250000D01*
X40375440Y6225224D01*
X40382667Y6201399D01*
X40394403Y6179443D01*
X40410197Y6160197D01*
X41660197Y4910197D01*
X41679443Y4894403D01*
X41701399Y4882667D01*
X41725224Y4875440D01*
X41750000Y4873000D01*
X47750000Y4873000D01*
X47774776Y4875440D01*
X47798601Y4882667D01*
X47820557Y4894403D01*
X47839803Y4910197D01*
X48839803Y5910197D01*
X48855597Y5929443D01*
X48867333Y5951399D01*
X48874560Y5975224D01*
X48877000Y6000000D01*
X48877000Y10629711D01*
X49623037Y11382786D01*
X49729199Y11512765D01*
X49771487Y11591881D01*
X49802606Y11623000D01*
X53197394Y11623000D01*
X53373000Y11447394D01*
G37*
X53373000Y11447394D02*
X53373000Y1552606D01*
X52947394Y1127000D01*
X7552606Y1127000D01*
X7127000Y1552606D01*
X7127000Y10697394D01*
X7802606Y11373000D01*
X14697394Y11373000D01*
X15660197Y10410197D01*
X15679443Y10394403D01*
X15701399Y10382667D01*
X15725224Y10375440D01*
X15750000Y10373000D01*
X34750000Y10373000D01*
X34774776Y10375440D01*
X34798601Y10382667D01*
X34820557Y10394403D01*
X34839803Y10410197D01*
X35802606Y11373000D01*
X39697394Y11373000D01*
X40373000Y10697394D01*
X40373000Y6250000D01*
X40375440Y6225224D01*
X40382667Y6201399D01*
X40394403Y6179443D01*
X40410197Y6160197D01*
X41660197Y4910197D01*
X41679443Y4894403D01*
X41701399Y4882667D01*
X41725224Y4875440D01*
X41750000Y4873000D01*
X47750000Y4873000D01*
X47774776Y4875440D01*
X47798601Y4882667D01*
X47820557Y4894403D01*
X47839803Y4910197D01*
X48839803Y5910197D01*
X48855597Y5929443D01*
X48867333Y5951399D01*
X48874560Y5975224D01*
X48877000Y6000000D01*
X48877000Y10629711D01*
X49623037Y11382786D01*
X49729199Y11512765D01*
X49771487Y11591881D01*
X49802606Y11623000D01*
X53197394Y11623000D01*
X53373000Y11447394D01*
G36*
X53876201Y36930700D02*
G01*
X53876201Y15543290D01*
X52947514Y14617566D01*
X51812017Y14617566D01*
X52006831Y15087888D01*
X52127000Y15692017D01*
X52127000Y16307983D01*
X52006831Y16912112D01*
X51771111Y17481190D01*
X51428899Y17993346D01*
X50993346Y18428899D01*
X50481190Y18771111D01*
X49912112Y19006831D01*
X49307983Y19127000D01*
X48692017Y19127000D01*
X48087888Y19006831D01*
X47518810Y18771111D01*
X47006654Y18428899D01*
X46571101Y17993346D01*
X46228889Y17481190D01*
X45993169Y16912112D01*
X45873000Y16307983D01*
X45873000Y15692017D01*
X45993169Y15087888D01*
X46228889Y14518810D01*
X46571101Y14006654D01*
X47006654Y13571101D01*
X47518810Y13228889D01*
X48087888Y12993169D01*
X48692017Y12873000D01*
X48873000Y12873000D01*
X48873000Y12052256D01*
X47909777Y11079946D01*
X47894073Y11060627D01*
X47882440Y11038615D01*
X47875325Y11014757D01*
X47873000Y10990566D01*
X47873000Y6793172D01*
X47197499Y6117671D01*
X42552710Y6126896D01*
X41877000Y6802606D01*
X41877000Y11750000D01*
X41874560Y11774776D01*
X41867333Y11798601D01*
X41855597Y11820557D01*
X41839803Y11839803D01*
X41089803Y12589803D01*
X41070557Y12605597D01*
X41048601Y12617333D01*
X41024776Y12624560D01*
X40999952Y12627000D01*
X16052935Y12617586D01*
X15127000Y13552256D01*
X15127000Y21447394D01*
X16052606Y22373000D01*
X28750000Y22373000D01*
X28774776Y22375440D01*
X28798601Y22382667D01*
X28820557Y22394403D01*
X28839803Y22410197D01*
X30089803Y23660197D01*
X30105597Y23679443D01*
X30117333Y23701399D01*
X30124560Y23725224D01*
X30127000Y23749970D01*
X30130189Y37187948D01*
X30805807Y37863566D01*
X43253201Y37863566D01*
X43253619Y37863567D01*
X48650196Y37881319D01*
X48692017Y37873000D01*
X49307983Y37873000D01*
X49361569Y37883659D01*
X52707757Y37894666D01*
X53876201Y36930700D01*
G37*
X53876201Y36930700D02*
X53876201Y15543290D01*
X52947514Y14617566D01*
X51812017Y14617566D01*
X52006831Y15087888D01*
X52127000Y15692017D01*
X52127000Y16307983D01*
X52006831Y16912112D01*
X51771111Y17481190D01*
X51428899Y17993346D01*
X50993346Y18428899D01*
X50481190Y18771111D01*
X49912112Y19006831D01*
X49307983Y19127000D01*
X48692017Y19127000D01*
X48087888Y19006831D01*
X47518810Y18771111D01*
X47006654Y18428899D01*
X46571101Y17993346D01*
X46228889Y17481190D01*
X45993169Y16912112D01*
X45873000Y16307983D01*
X45873000Y15692017D01*
X45993169Y15087888D01*
X46228889Y14518810D01*
X46571101Y14006654D01*
X47006654Y13571101D01*
X47518810Y13228889D01*
X48087888Y12993169D01*
X48692017Y12873000D01*
X48873000Y12873000D01*
X48873000Y12052256D01*
X47909777Y11079946D01*
X47894073Y11060627D01*
X47882440Y11038615D01*
X47875325Y11014757D01*
X47873000Y10990566D01*
X47873000Y6793172D01*
X47197499Y6117671D01*
X42552710Y6126896D01*
X41877000Y6802606D01*
X41877000Y11750000D01*
X41874560Y11774776D01*
X41867333Y11798601D01*
X41855597Y11820557D01*
X41839803Y11839803D01*
X41089803Y12589803D01*
X41070557Y12605597D01*
X41048601Y12617333D01*
X41024776Y12624560D01*
X40999952Y12627000D01*
X16052935Y12617586D01*
X15127000Y13552256D01*
X15127000Y21447394D01*
X16052606Y22373000D01*
X28750000Y22373000D01*
X28774776Y22375440D01*
X28798601Y22382667D01*
X28820557Y22394403D01*
X28839803Y22410197D01*
X30089803Y23660197D01*
X30105597Y23679443D01*
X30117333Y23701399D01*
X30124560Y23725224D01*
X30127000Y23749970D01*
X30130189Y37187948D01*
X30805807Y37863566D01*
X43253201Y37863566D01*
X43253619Y37863567D01*
X48650196Y37881319D01*
X48692017Y37873000D01*
X49307983Y37873000D01*
X49361569Y37883659D01*
X52707757Y37894666D01*
X53876201Y36930700D01*
G36*
X1627000Y81552606D02*
G01*
X1627000Y91447394D01*
X2052606Y91873000D01*
X47447394Y91873000D01*
X47873000Y91447394D01*
X47873000Y82302606D01*
X47197394Y81627000D01*
X40302606Y81627000D01*
X39339803Y82589803D01*
X39320557Y82605597D01*
X39298601Y82617333D01*
X39274776Y82624560D01*
X39250000Y82627000D01*
X20250000Y82627000D01*
X20225224Y82624560D01*
X20201399Y82617333D01*
X20179443Y82605597D01*
X20160197Y82589803D01*
X19197394Y81627000D01*
X15302606Y81627000D01*
X14627000Y82302606D01*
X14627000Y86750000D01*
X14624560Y86774776D01*
X14617333Y86798601D01*
X14605597Y86820557D01*
X14589803Y86839803D01*
X13339803Y88089803D01*
X13320557Y88105597D01*
X13298601Y88117333D01*
X13274776Y88124560D01*
X13250000Y88127000D01*
X7250000Y88127000D01*
X7225224Y88124560D01*
X7201399Y88117333D01*
X7179443Y88105597D01*
X7160197Y88089803D01*
X6160197Y87089803D01*
X6144403Y87070557D01*
X6132667Y87048601D01*
X6125440Y87024776D01*
X6123000Y87000000D01*
X6123000Y82370289D01*
X5376963Y81617214D01*
X5270801Y81487235D01*
X5228513Y81408119D01*
X5197394Y81377000D01*
X1802606Y81377000D01*
X1627000Y81552606D01*
G37*
X1627000Y81552606D02*
X1627000Y91447394D01*
X2052606Y91873000D01*
X47447394Y91873000D01*
X47873000Y91447394D01*
X47873000Y82302606D01*
X47197394Y81627000D01*
X40302606Y81627000D01*
X39339803Y82589803D01*
X39320557Y82605597D01*
X39298601Y82617333D01*
X39274776Y82624560D01*
X39250000Y82627000D01*
X20250000Y82627000D01*
X20225224Y82624560D01*
X20201399Y82617333D01*
X20179443Y82605597D01*
X20160197Y82589803D01*
X19197394Y81627000D01*
X15302606Y81627000D01*
X14627000Y82302606D01*
X14627000Y86750000D01*
X14624560Y86774776D01*
X14617333Y86798601D01*
X14605597Y86820557D01*
X14589803Y86839803D01*
X13339803Y88089803D01*
X13320557Y88105597D01*
X13298601Y88117333D01*
X13274776Y88124560D01*
X13250000Y88127000D01*
X7250000Y88127000D01*
X7225224Y88124560D01*
X7201399Y88117333D01*
X7179443Y88105597D01*
X7160197Y88089803D01*
X6160197Y87089803D01*
X6144403Y87070557D01*
X6132667Y87048601D01*
X6125440Y87024776D01*
X6123000Y87000000D01*
X6123000Y82370289D01*
X5376963Y81617214D01*
X5270801Y81487235D01*
X5228513Y81408119D01*
X5197394Y81377000D01*
X1802606Y81377000D01*
X1627000Y81552606D01*
G36*
X1123799Y56069300D02*
G01*
X1123799Y77456710D01*
X2052486Y78382434D01*
X3187983Y78382434D01*
X2993169Y77912112D01*
X2873000Y77307983D01*
X2873000Y76692017D01*
X2993169Y76087888D01*
X3228889Y75518810D01*
X3571101Y75006654D01*
X4006654Y74571101D01*
X4518810Y74228889D01*
X5087888Y73993169D01*
X5692017Y73873000D01*
X6307983Y73873000D01*
X6912112Y73993169D01*
X7481190Y74228889D01*
X7993346Y74571101D01*
X8428899Y75006654D01*
X8771111Y75518810D01*
X9006831Y76087888D01*
X9127000Y76692017D01*
X9127000Y77307983D01*
X9006831Y77912112D01*
X8771111Y78481190D01*
X8428899Y78993346D01*
X7993346Y79428899D01*
X7481190Y79771111D01*
X6912112Y80006831D01*
X6307983Y80127000D01*
X6127000Y80127000D01*
X6127000Y80947744D01*
X7090223Y81920054D01*
X7105927Y81939373D01*
X7117560Y81961385D01*
X7124675Y81985243D01*
X7127000Y82009434D01*
X7127000Y86206828D01*
X7802501Y86882329D01*
X12447290Y86873104D01*
X13123000Y86197394D01*
X13123000Y81250000D01*
X13125440Y81225224D01*
X13132667Y81201399D01*
X13144403Y81179443D01*
X13160197Y81160197D01*
X13910197Y80410197D01*
X13929443Y80394403D01*
X13951399Y80382667D01*
X13975224Y80375440D01*
X14000048Y80373000D01*
X38947065Y80382414D01*
X39873000Y79447744D01*
X39873000Y71552606D01*
X38947394Y70627000D01*
X26250000Y70627000D01*
X26225224Y70624560D01*
X26201399Y70617333D01*
X26179443Y70605597D01*
X26160197Y70589803D01*
X24910197Y69339803D01*
X24894403Y69320557D01*
X24882667Y69298601D01*
X24875440Y69274776D01*
X24873000Y69250030D01*
X24869811Y55812052D01*
X24194193Y55136434D01*
X11746799Y55136434D01*
X11746381Y55136433D01*
X6349804Y55118681D01*
X6307983Y55127000D01*
X5692017Y55127000D01*
X5638431Y55116341D01*
X2292243Y55105334D01*
X1123799Y56069300D01*
G37*
X1123799Y56069300D02*
X1123799Y77456710D01*
X2052486Y78382434D01*
X3187983Y78382434D01*
X2993169Y77912112D01*
X2873000Y77307983D01*
X2873000Y76692017D01*
X2993169Y76087888D01*
X3228889Y75518810D01*
X3571101Y75006654D01*
X4006654Y74571101D01*
X4518810Y74228889D01*
X5087888Y73993169D01*
X5692017Y73873000D01*
X6307983Y73873000D01*
X6912112Y73993169D01*
X7481190Y74228889D01*
X7993346Y74571101D01*
X8428899Y75006654D01*
X8771111Y75518810D01*
X9006831Y76087888D01*
X9127000Y76692017D01*
X9127000Y77307983D01*
X9006831Y77912112D01*
X8771111Y78481190D01*
X8428899Y78993346D01*
X7993346Y79428899D01*
X7481190Y79771111D01*
X6912112Y80006831D01*
X6307983Y80127000D01*
X6127000Y80127000D01*
X6127000Y80947744D01*
X7090223Y81920054D01*
X7105927Y81939373D01*
X7117560Y81961385D01*
X7124675Y81985243D01*
X7127000Y82009434D01*
X7127000Y86206828D01*
X7802501Y86882329D01*
X12447290Y86873104D01*
X13123000Y86197394D01*
X13123000Y81250000D01*
X13125440Y81225224D01*
X13132667Y81201399D01*
X13144403Y81179443D01*
X13160197Y81160197D01*
X13910197Y80410197D01*
X13929443Y80394403D01*
X13951399Y80382667D01*
X13975224Y80375440D01*
X14000048Y80373000D01*
X38947065Y80382414D01*
X39873000Y79447744D01*
X39873000Y71552606D01*
X38947394Y70627000D01*
X26250000Y70627000D01*
X26225224Y70624560D01*
X26201399Y70617333D01*
X26179443Y70605597D01*
X26160197Y70589803D01*
X24910197Y69339803D01*
X24894403Y69320557D01*
X24882667Y69298601D01*
X24875440Y69274776D01*
X24873000Y69250030D01*
X24869811Y55812052D01*
X24194193Y55136434D01*
X11746799Y55136434D01*
X11746381Y55136433D01*
X6349804Y55118681D01*
X6307983Y55127000D01*
X5692017Y55127000D01*
X5638431Y55116341D01*
X2292243Y55105334D01*
X1123799Y56069300D01*
G36*
X406000Y88019940D02*
G01*
X405999Y88019950D01*
X406000Y92594000D01*
X1353734Y92594000D01*
X879867Y92120133D01*
X770801Y91987235D01*
X689758Y91835613D01*
X639851Y91671094D01*
X623000Y91500000D01*
X623000Y81500000D01*
X639851Y81328906D01*
X689758Y81164387D01*
X770801Y81012765D01*
X879867Y80879867D01*
X1129867Y80629867D01*
X1262765Y80520801D01*
X1414387Y80439758D01*
X1578906Y80389851D01*
X1750000Y80373000D01*
X5250000Y80373000D01*
X5421094Y80389851D01*
X5585613Y80439758D01*
X5619000Y80457604D01*
X5619000Y80112476D01*
X5087888Y80006831D01*
X4518810Y79771111D01*
X4006654Y79428899D01*
X3571101Y78993346D01*
X3502337Y78890434D01*
X2000000Y78890434D01*
X1926268Y78883231D01*
X1854760Y78861665D01*
X1788834Y78826562D01*
X1731023Y78779272D01*
X727822Y77779272D01*
X680009Y77721106D01*
X644801Y77655236D01*
X623120Y77583763D01*
X615799Y77509434D01*
X615799Y56009434D01*
X631921Y55899775D01*
X660325Y55830698D01*
X701660Y55768490D01*
X754337Y55715541D01*
X2004337Y54684291D01*
X2036170Y54660700D01*
X2102155Y54625708D01*
X2173699Y54604262D01*
X2248052Y54597186D01*
X4268460Y54603832D01*
X4006654Y54428899D01*
X3571101Y53993346D01*
X3228889Y53481190D01*
X2993169Y52912112D01*
X2873000Y52307983D01*
X2873000Y51692017D01*
X2993169Y51087888D01*
X3228889Y50518810D01*
X3571101Y50006654D01*
X4006654Y49571101D01*
X4518810Y49228889D01*
X5087888Y48993169D01*
X5692017Y48873000D01*
X6307983Y48873000D01*
X6912112Y48993169D01*
X7481190Y49228889D01*
X7993346Y49571101D01*
X8428899Y50006654D01*
X8771111Y50518810D01*
X9006831Y51087888D01*
X9127000Y51692017D01*
X9127000Y52307983D01*
X9006831Y52912112D01*
X8771111Y53481190D01*
X8428899Y53993346D01*
X7993346Y54428899D01*
X7714575Y54615168D01*
X11747444Y54628434D01*
X24246799Y54628434D01*
X24321128Y54635755D01*
X24392601Y54657436D01*
X24458471Y54692644D01*
X24516207Y54740026D01*
X25266207Y55490026D01*
X25313539Y55547687D01*
X25348762Y55613548D01*
X25370461Y55685016D01*
X25377799Y55759344D01*
X25380963Y69092147D01*
X26407816Y70119000D01*
X39000000Y70119000D01*
X39074329Y70126321D01*
X39145802Y70148002D01*
X39211672Y70183210D01*
X39269408Y70230592D01*
X40269408Y71230592D01*
X40316790Y71288328D01*
X40351998Y71354198D01*
X40373679Y71425671D01*
X40381000Y71500000D01*
X40381000Y79500000D01*
X40374024Y79572574D01*
X40352679Y79644148D01*
X40317780Y79710183D01*
X40270670Y79768140D01*
X39270670Y80777574D01*
X39211553Y80826304D01*
X39145670Y80861487D01*
X39074188Y80883141D01*
X38999856Y80890434D01*
X19873483Y80883217D01*
X20613266Y81623000D01*
X38886734Y81623000D01*
X39629867Y80879867D01*
X39762765Y80770801D01*
X39914387Y80689758D01*
X40078906Y80639851D01*
X40250000Y80623000D01*
X47250000Y80623000D01*
X47421094Y80639851D01*
X47585613Y80689758D01*
X47737235Y80770801D01*
X47870133Y80879867D01*
X48620133Y81629867D01*
X48729199Y81762765D01*
X48810242Y81914387D01*
X48860149Y82078906D01*
X48877000Y82250000D01*
X48877000Y91500000D01*
X48860149Y91671094D01*
X48810242Y91835613D01*
X48729199Y91987235D01*
X48620133Y92120133D01*
X48146266Y92594000D01*
X54594000Y92594000D01*
X54594000Y76692017D01*
X53127000Y76692017D01*
X53127000Y77307983D01*
X53006831Y77912112D01*
X52771111Y78481190D01*
X52428899Y78993346D01*
X51993346Y79428899D01*
X51481190Y79771111D01*
X50912112Y80006831D01*
X50307983Y80127000D01*
X49692017Y80127000D01*
X49087888Y80006831D01*
X48518810Y79771111D01*
X48006654Y79428899D01*
X47571101Y78993346D01*
X47228889Y78481190D01*
X46993169Y77912112D01*
X46873000Y77307983D01*
X46873000Y76692017D01*
X46993169Y76087888D01*
X47228889Y75518810D01*
X47571101Y75006654D01*
X48006654Y74571101D01*
X48518810Y74228889D01*
X49087888Y73993169D01*
X49692017Y73873000D01*
X50307983Y73873000D01*
X50912112Y73993169D01*
X51481190Y74228889D01*
X51993346Y74571101D01*
X52428899Y75006654D01*
X52771111Y75518810D01*
X53006831Y76087888D01*
X53127000Y76692017D01*
X54594000Y76692017D01*
X54594000Y64773606D01*
X53947394Y64127000D01*
X42750000Y64127000D01*
X42725224Y64124560D01*
X42701399Y64117333D01*
X42679443Y64105597D01*
X42660197Y64089803D01*
X42650271Y64078633D01*
X37563407Y57627000D01*
X37250000Y57627000D01*
X37225224Y57624560D01*
X37201399Y57617333D01*
X37179443Y57605597D01*
X37160197Y57589803D01*
X36660197Y57089803D01*
X36644403Y57070557D01*
X36632667Y57048601D01*
X36625440Y57024776D01*
X36623000Y57000000D01*
X36623000Y48406000D01*
X405999Y48406000D01*
X406000Y88019940D01*
G37*
X406000Y88019940D02*
X405999Y88019950D01*
X406000Y92594000D01*
X1353734Y92594000D01*
X879867Y92120133D01*
X770801Y91987235D01*
X689758Y91835613D01*
X639851Y91671094D01*
X623000Y91500000D01*
X623000Y81500000D01*
X639851Y81328906D01*
X689758Y81164387D01*
X770801Y81012765D01*
X879867Y80879867D01*
X1129867Y80629867D01*
X1262765Y80520801D01*
X1414387Y80439758D01*
X1578906Y80389851D01*
X1750000Y80373000D01*
X5250000Y80373000D01*
X5421094Y80389851D01*
X5585613Y80439758D01*
X5619000Y80457604D01*
X5619000Y80112476D01*
X5087888Y80006831D01*
X4518810Y79771111D01*
X4006654Y79428899D01*
X3571101Y78993346D01*
X3502337Y78890434D01*
X2000000Y78890434D01*
X1926268Y78883231D01*
X1854760Y78861665D01*
X1788834Y78826562D01*
X1731023Y78779272D01*
X727822Y77779272D01*
X680009Y77721106D01*
X644801Y77655236D01*
X623120Y77583763D01*
X615799Y77509434D01*
X615799Y56009434D01*
X631921Y55899775D01*
X660325Y55830698D01*
X701660Y55768490D01*
X754337Y55715541D01*
X2004337Y54684291D01*
X2036170Y54660700D01*
X2102155Y54625708D01*
X2173699Y54604262D01*
X2248052Y54597186D01*
X4268460Y54603832D01*
X4006654Y54428899D01*
X3571101Y53993346D01*
X3228889Y53481190D01*
X2993169Y52912112D01*
X2873000Y52307983D01*
X2873000Y51692017D01*
X2993169Y51087888D01*
X3228889Y50518810D01*
X3571101Y50006654D01*
X4006654Y49571101D01*
X4518810Y49228889D01*
X5087888Y48993169D01*
X5692017Y48873000D01*
X6307983Y48873000D01*
X6912112Y48993169D01*
X7481190Y49228889D01*
X7993346Y49571101D01*
X8428899Y50006654D01*
X8771111Y50518810D01*
X9006831Y51087888D01*
X9127000Y51692017D01*
X9127000Y52307983D01*
X9006831Y52912112D01*
X8771111Y53481190D01*
X8428899Y53993346D01*
X7993346Y54428899D01*
X7714575Y54615168D01*
X11747444Y54628434D01*
X24246799Y54628434D01*
X24321128Y54635755D01*
X24392601Y54657436D01*
X24458471Y54692644D01*
X24516207Y54740026D01*
X25266207Y55490026D01*
X25313539Y55547687D01*
X25348762Y55613548D01*
X25370461Y55685016D01*
X25377799Y55759344D01*
X25380963Y69092147D01*
X26407816Y70119000D01*
X39000000Y70119000D01*
X39074329Y70126321D01*
X39145802Y70148002D01*
X39211672Y70183210D01*
X39269408Y70230592D01*
X40269408Y71230592D01*
X40316790Y71288328D01*
X40351998Y71354198D01*
X40373679Y71425671D01*
X40381000Y71500000D01*
X40381000Y79500000D01*
X40374024Y79572574D01*
X40352679Y79644148D01*
X40317780Y79710183D01*
X40270670Y79768140D01*
X39270670Y80777574D01*
X39211553Y80826304D01*
X39145670Y80861487D01*
X39074188Y80883141D01*
X38999856Y80890434D01*
X19873483Y80883217D01*
X20613266Y81623000D01*
X38886734Y81623000D01*
X39629867Y80879867D01*
X39762765Y80770801D01*
X39914387Y80689758D01*
X40078906Y80639851D01*
X40250000Y80623000D01*
X47250000Y80623000D01*
X47421094Y80639851D01*
X47585613Y80689758D01*
X47737235Y80770801D01*
X47870133Y80879867D01*
X48620133Y81629867D01*
X48729199Y81762765D01*
X48810242Y81914387D01*
X48860149Y82078906D01*
X48877000Y82250000D01*
X48877000Y91500000D01*
X48860149Y91671094D01*
X48810242Y91835613D01*
X48729199Y91987235D01*
X48620133Y92120133D01*
X48146266Y92594000D01*
X54594000Y92594000D01*
X54594000Y76692017D01*
X53127000Y76692017D01*
X53127000Y77307983D01*
X53006831Y77912112D01*
X52771111Y78481190D01*
X52428899Y78993346D01*
X51993346Y79428899D01*
X51481190Y79771111D01*
X50912112Y80006831D01*
X50307983Y80127000D01*
X49692017Y80127000D01*
X49087888Y80006831D01*
X48518810Y79771111D01*
X48006654Y79428899D01*
X47571101Y78993346D01*
X47228889Y78481190D01*
X46993169Y77912112D01*
X46873000Y77307983D01*
X46873000Y76692017D01*
X46993169Y76087888D01*
X47228889Y75518810D01*
X47571101Y75006654D01*
X48006654Y74571101D01*
X48518810Y74228889D01*
X49087888Y73993169D01*
X49692017Y73873000D01*
X50307983Y73873000D01*
X50912112Y73993169D01*
X51481190Y74228889D01*
X51993346Y74571101D01*
X52428899Y75006654D01*
X52771111Y75518810D01*
X53006831Y76087888D01*
X53127000Y76692017D01*
X54594000Y76692017D01*
X54594000Y64773606D01*
X53947394Y64127000D01*
X42750000Y64127000D01*
X42725224Y64124560D01*
X42701399Y64117333D01*
X42679443Y64105597D01*
X42660197Y64089803D01*
X42650271Y64078633D01*
X37563407Y57627000D01*
X37250000Y57627000D01*
X37225224Y57624560D01*
X37201399Y57617333D01*
X37179443Y57605597D01*
X37160197Y57589803D01*
X36660197Y57089803D01*
X36644403Y57070557D01*
X36632667Y57048601D01*
X36625440Y57024776D01*
X36623000Y57000000D01*
X36623000Y48406000D01*
X405999Y48406000D01*
X406000Y88019940D01*
M02*
