G04 #@! TF.GenerationSoftware,KiCad,Pcbnew,(5.1.5)-3*
G04 #@! TF.CreationDate,2020-02-03T09:46:18+01:00*
G04 #@! TF.ProjectId,Chopper_v2,43686f70-7065-4725-9f76-322e6b696361,rev?*
G04 #@! TF.SameCoordinates,PXc65d40PYb71b000*
G04 #@! TF.FileFunction,Soldermask,Top*
G04 #@! TF.FilePolarity,Negative*
%FSLAX46Y46*%
G04 Gerber Fmt 4.6, Leading zero omitted, Abs format (unit mm)*
G04 Created by KiCad (PCBNEW (5.1.5)-3) date 2020-02-03 09:46:18*
%MOMM*%
%LPD*%
G04 APERTURE LIST*
%ADD10C,0.100000*%
G04 APERTURE END LIST*
D10*
G36*
X45876032Y10785793D02*
G01*
X46074146Y10725695D01*
X46074149Y10725694D01*
X46170975Y10673939D01*
X46256729Y10628103D01*
X46416765Y10496765D01*
X46548103Y10336729D01*
X46593939Y10250975D01*
X46645694Y10154149D01*
X46645695Y10154146D01*
X46705793Y9956032D01*
X46721000Y9801630D01*
X46721000Y8198370D01*
X46705793Y8043968D01*
X46645695Y7845855D01*
X46645694Y7845851D01*
X46593939Y7749025D01*
X46548103Y7663271D01*
X46416765Y7503235D01*
X46256729Y7371897D01*
X46140030Y7309521D01*
X46074148Y7274306D01*
X46074145Y7274305D01*
X45876031Y7214207D01*
X45670000Y7193915D01*
X45463968Y7214207D01*
X45265854Y7274305D01*
X45265851Y7274306D01*
X45169025Y7326061D01*
X45083271Y7371897D01*
X44923235Y7503235D01*
X44791897Y7663271D01*
X44694307Y7845851D01*
X44694306Y7845852D01*
X44694305Y7845855D01*
X44634207Y8043969D01*
X44619000Y8198371D01*
X44619000Y9801631D01*
X44634207Y9956033D01*
X44694305Y10154146D01*
X44757904Y10273130D01*
X44791898Y10336729D01*
X44923236Y10496765D01*
X45083272Y10628103D01*
X45169026Y10673939D01*
X45265852Y10725694D01*
X45265855Y10725695D01*
X45463969Y10785793D01*
X45670000Y10806085D01*
X45876032Y10785793D01*
G37*
G36*
X9456032Y10785793D02*
G01*
X9654146Y10725695D01*
X9654149Y10725694D01*
X9750975Y10673939D01*
X9836729Y10628103D01*
X9996765Y10496765D01*
X10128103Y10336729D01*
X10173939Y10250975D01*
X10225694Y10154149D01*
X10225695Y10154146D01*
X10285793Y9956032D01*
X10301000Y9801630D01*
X10301000Y8198370D01*
X10285793Y8043968D01*
X10225695Y7845855D01*
X10225694Y7845851D01*
X10173939Y7749025D01*
X10128103Y7663271D01*
X9996765Y7503235D01*
X9836729Y7371897D01*
X9720030Y7309521D01*
X9654148Y7274306D01*
X9654145Y7274305D01*
X9456031Y7214207D01*
X9250000Y7193915D01*
X9043968Y7214207D01*
X8845854Y7274305D01*
X8845851Y7274306D01*
X8749025Y7326061D01*
X8663271Y7371897D01*
X8503235Y7503235D01*
X8371897Y7663271D01*
X8274307Y7845851D01*
X8274306Y7845852D01*
X8274305Y7845855D01*
X8214207Y8043969D01*
X8199000Y8198371D01*
X8199000Y9801631D01*
X8214207Y9956033D01*
X8274305Y10154146D01*
X8337904Y10273130D01*
X8371898Y10336729D01*
X8503236Y10496765D01*
X8663272Y10628103D01*
X8749026Y10673939D01*
X8845852Y10725694D01*
X8845855Y10725695D01*
X9043969Y10785793D01*
X9250000Y10806085D01*
X9456032Y10785793D01*
G37*
G36*
X4376032Y10785793D02*
G01*
X4574146Y10725695D01*
X4574149Y10725694D01*
X4670975Y10673939D01*
X4756729Y10628103D01*
X4916765Y10496765D01*
X5048103Y10336729D01*
X5093939Y10250975D01*
X5145694Y10154149D01*
X5145695Y10154146D01*
X5205793Y9956032D01*
X5221000Y9801630D01*
X5221000Y8198370D01*
X5205793Y8043968D01*
X5145695Y7845855D01*
X5145694Y7845851D01*
X5093939Y7749025D01*
X5048103Y7663271D01*
X4916765Y7503235D01*
X4756729Y7371897D01*
X4640030Y7309521D01*
X4574148Y7274306D01*
X4574145Y7274305D01*
X4376031Y7214207D01*
X4170000Y7193915D01*
X3963968Y7214207D01*
X3765854Y7274305D01*
X3765851Y7274306D01*
X3669025Y7326061D01*
X3583271Y7371897D01*
X3423235Y7503235D01*
X3291897Y7663271D01*
X3194307Y7845851D01*
X3194306Y7845852D01*
X3194305Y7845855D01*
X3134207Y8043969D01*
X3119000Y8198371D01*
X3119000Y9801631D01*
X3134207Y9956033D01*
X3194305Y10154146D01*
X3257904Y10273130D01*
X3291898Y10336729D01*
X3423236Y10496765D01*
X3583272Y10628103D01*
X3669026Y10673939D01*
X3765852Y10725694D01*
X3765855Y10725695D01*
X3963969Y10785793D01*
X4170000Y10806085D01*
X4376032Y10785793D01*
G37*
G36*
X50956032Y10785793D02*
G01*
X51154146Y10725695D01*
X51154149Y10725694D01*
X51250975Y10673939D01*
X51336729Y10628103D01*
X51496765Y10496765D01*
X51628103Y10336729D01*
X51673939Y10250975D01*
X51725694Y10154149D01*
X51725695Y10154146D01*
X51785793Y9956032D01*
X51801000Y9801630D01*
X51801000Y8198370D01*
X51785793Y8043968D01*
X51725695Y7845855D01*
X51725694Y7845851D01*
X51673939Y7749025D01*
X51628103Y7663271D01*
X51496765Y7503235D01*
X51336729Y7371897D01*
X51220030Y7309521D01*
X51154148Y7274306D01*
X51154145Y7274305D01*
X50956031Y7214207D01*
X50750000Y7193915D01*
X50543968Y7214207D01*
X50345854Y7274305D01*
X50345851Y7274306D01*
X50249025Y7326061D01*
X50163271Y7371897D01*
X50003235Y7503235D01*
X49871897Y7663271D01*
X49774307Y7845851D01*
X49774306Y7845852D01*
X49774305Y7845855D01*
X49714207Y8043969D01*
X49699000Y8198371D01*
X49699000Y9801631D01*
X49714207Y9956033D01*
X49774305Y10154146D01*
X49837904Y10273130D01*
X49871898Y10336729D01*
X50003236Y10496765D01*
X50163272Y10628103D01*
X50249026Y10673939D01*
X50345852Y10725694D01*
X50345855Y10725695D01*
X50543969Y10785793D01*
X50750000Y10806085D01*
X50956032Y10785793D01*
G37*
G36*
X40701000Y8299000D02*
G01*
X38299000Y8299000D01*
X38299000Y10901000D01*
X40701000Y10901000D01*
X40701000Y8299000D01*
G37*
G36*
X54033715Y12844844D02*
G01*
X54078155Y12831363D01*
X54119113Y12809470D01*
X54155011Y12780011D01*
X54184470Y12744113D01*
X54206363Y12703155D01*
X54219844Y12658715D01*
X54225000Y12606360D01*
X54225000Y11893640D01*
X54219844Y11841285D01*
X54206363Y11796845D01*
X54184470Y11755887D01*
X54155011Y11719989D01*
X54119113Y11690530D01*
X54078155Y11668637D01*
X54033715Y11655156D01*
X53981360Y11650000D01*
X53018640Y11650000D01*
X52966285Y11655156D01*
X52921845Y11668637D01*
X52880887Y11690530D01*
X52844989Y11719989D01*
X52815530Y11755887D01*
X52793637Y11796845D01*
X52780156Y11841285D01*
X52775000Y11893640D01*
X52775000Y12606360D01*
X52780156Y12658715D01*
X52793637Y12703155D01*
X52815530Y12744113D01*
X52844989Y12780011D01*
X52880887Y12809470D01*
X52921845Y12831363D01*
X52966285Y12844844D01*
X53018640Y12850000D01*
X53981360Y12850000D01*
X54033715Y12844844D01*
G37*
G36*
X19976000Y11849000D02*
G01*
X16624000Y11849000D01*
X16624000Y25151000D01*
X19976000Y25151000D01*
X19976000Y11849000D01*
G37*
G36*
X35376000Y11849000D02*
G01*
X32024000Y11849000D01*
X32024000Y25151000D01*
X35376000Y25151000D01*
X35376000Y11849000D01*
G37*
G36*
X31451000Y12374000D02*
G01*
X20549000Y12374000D01*
X20549000Y21876000D01*
X31451000Y21876000D01*
X31451000Y12374000D01*
G37*
G36*
X40701000Y12599000D02*
G01*
X38299000Y12599000D01*
X38299000Y15201000D01*
X40701000Y15201000D01*
X40701000Y12599000D01*
G37*
G36*
X54033715Y14844844D02*
G01*
X54078155Y14831363D01*
X54119113Y14809470D01*
X54155011Y14780011D01*
X54184470Y14744113D01*
X54206363Y14703155D01*
X54219844Y14658715D01*
X54225000Y14606360D01*
X54225000Y13893640D01*
X54219844Y13841285D01*
X54206363Y13796845D01*
X54184470Y13755887D01*
X54155011Y13719989D01*
X54119113Y13690530D01*
X54078155Y13668637D01*
X54033715Y13655156D01*
X53981360Y13650000D01*
X53018640Y13650000D01*
X52966285Y13655156D01*
X52921845Y13668637D01*
X52880887Y13690530D01*
X52844989Y13719989D01*
X52815530Y13755887D01*
X52793637Y13796845D01*
X52780156Y13841285D01*
X52775000Y13893640D01*
X52775000Y14606360D01*
X52780156Y14658715D01*
X52793637Y14703155D01*
X52815530Y14744113D01*
X52844989Y14780011D01*
X52880887Y14809470D01*
X52921845Y14831363D01*
X52966285Y14844844D01*
X53018640Y14850000D01*
X53981360Y14850000D01*
X54033715Y14844844D01*
G37*
G36*
X5438953Y18206767D02*
G01*
X5656301Y18163534D01*
X6065775Y17993924D01*
X6434292Y17747689D01*
X6747689Y17434292D01*
X6993924Y17065775D01*
X7163534Y16656301D01*
X7250000Y16221606D01*
X7250000Y15778394D01*
X7163534Y15343699D01*
X6993924Y14934225D01*
X6747689Y14565708D01*
X6434292Y14252311D01*
X6065775Y14006076D01*
X5656301Y13836466D01*
X5457112Y13796845D01*
X5221607Y13750000D01*
X4778393Y13750000D01*
X4542888Y13796845D01*
X4343699Y13836466D01*
X3934225Y14006076D01*
X3565708Y14252311D01*
X3252311Y14565708D01*
X3006076Y14934225D01*
X2836466Y15343699D01*
X2750000Y15778394D01*
X2750000Y16221606D01*
X2836466Y16656301D01*
X3006076Y17065775D01*
X3252311Y17434292D01*
X3565708Y17747689D01*
X3934225Y17993924D01*
X4343699Y18163534D01*
X4561047Y18206767D01*
X4778393Y18250000D01*
X5221607Y18250000D01*
X5438953Y18206767D01*
G37*
G36*
X49438953Y18206767D02*
G01*
X49656301Y18163534D01*
X50065775Y17993924D01*
X50434292Y17747689D01*
X50747689Y17434292D01*
X50993924Y17065775D01*
X51163534Y16656301D01*
X51250000Y16221606D01*
X51250000Y15778394D01*
X51163534Y15343699D01*
X50993924Y14934225D01*
X50747689Y14565708D01*
X50434292Y14252311D01*
X50065775Y14006076D01*
X49656301Y13836466D01*
X49457112Y13796845D01*
X49221607Y13750000D01*
X48778393Y13750000D01*
X48542888Y13796845D01*
X48343699Y13836466D01*
X47934225Y14006076D01*
X47565708Y14252311D01*
X47252311Y14565708D01*
X47006076Y14934225D01*
X46836466Y15343699D01*
X46750000Y15778394D01*
X46750000Y16221606D01*
X46836466Y16656301D01*
X47006076Y17065775D01*
X47252311Y17434292D01*
X47565708Y17747689D01*
X47934225Y17993924D01*
X48343699Y18163534D01*
X48561047Y18206767D01*
X48778393Y18250000D01*
X49221607Y18250000D01*
X49438953Y18206767D01*
G37*
G36*
X54058103Y20842442D02*
G01*
X54125990Y20821848D01*
X54188559Y20788404D01*
X54243399Y20743399D01*
X54288404Y20688559D01*
X54321848Y20625990D01*
X54342442Y20558103D01*
X54350000Y20481360D01*
X54350000Y19518640D01*
X54342442Y19441897D01*
X54321848Y19374010D01*
X54288404Y19311441D01*
X54243399Y19256601D01*
X54188559Y19211596D01*
X54125990Y19178152D01*
X54058103Y19157558D01*
X53981360Y19150000D01*
X52518640Y19150000D01*
X52441897Y19157558D01*
X52374010Y19178152D01*
X52311441Y19211596D01*
X52256601Y19256601D01*
X52211596Y19311441D01*
X52178152Y19374010D01*
X52157558Y19441897D01*
X52150000Y19518640D01*
X52150000Y20481360D01*
X52157558Y20558103D01*
X52178152Y20625990D01*
X52211596Y20688559D01*
X52256601Y20743399D01*
X52311441Y20788404D01*
X52374010Y20821848D01*
X52441897Y20842442D01*
X52518640Y20850000D01*
X53981360Y20850000D01*
X54058103Y20842442D01*
G37*
G36*
X48624928Y23598236D02*
G01*
X48646009Y23591840D01*
X48665445Y23581452D01*
X48682476Y23567476D01*
X48696452Y23550445D01*
X48706840Y23531009D01*
X48713236Y23509928D01*
X48716000Y23481860D01*
X48716000Y21618140D01*
X48713236Y21590072D01*
X48706840Y21568991D01*
X48696452Y21549555D01*
X48682476Y21532524D01*
X48665445Y21518548D01*
X48646009Y21508160D01*
X48624928Y21501764D01*
X48596860Y21499000D01*
X48133140Y21499000D01*
X48105072Y21501764D01*
X48083991Y21508160D01*
X48064555Y21518548D01*
X48047524Y21532524D01*
X48033548Y21549555D01*
X48023160Y21568991D01*
X48016764Y21590072D01*
X48014000Y21618140D01*
X48014000Y23481860D01*
X48016764Y23509928D01*
X48023160Y23531009D01*
X48033548Y23550445D01*
X48047524Y23567476D01*
X48064555Y23581452D01*
X48083991Y23591840D01*
X48105072Y23598236D01*
X48133140Y23601000D01*
X48596860Y23601000D01*
X48624928Y23598236D01*
G37*
G36*
X47354928Y23598236D02*
G01*
X47376009Y23591840D01*
X47395445Y23581452D01*
X47412476Y23567476D01*
X47426452Y23550445D01*
X47436840Y23531009D01*
X47443236Y23509928D01*
X47446000Y23481860D01*
X47446000Y21618140D01*
X47443236Y21590072D01*
X47436840Y21568991D01*
X47426452Y21549555D01*
X47412476Y21532524D01*
X47395445Y21518548D01*
X47376009Y21508160D01*
X47354928Y21501764D01*
X47326860Y21499000D01*
X46863140Y21499000D01*
X46835072Y21501764D01*
X46813991Y21508160D01*
X46794555Y21518548D01*
X46777524Y21532524D01*
X46763548Y21549555D01*
X46753160Y21568991D01*
X46746764Y21590072D01*
X46744000Y21618140D01*
X46744000Y23481860D01*
X46746764Y23509928D01*
X46753160Y23531009D01*
X46763548Y23550445D01*
X46777524Y23567476D01*
X46794555Y23581452D01*
X46813991Y23591840D01*
X46835072Y23598236D01*
X46863140Y23601000D01*
X47326860Y23601000D01*
X47354928Y23598236D01*
G37*
G36*
X51164928Y23598236D02*
G01*
X51186009Y23591840D01*
X51205445Y23581452D01*
X51222476Y23567476D01*
X51236452Y23550445D01*
X51246840Y23531009D01*
X51253236Y23509928D01*
X51256000Y23481860D01*
X51256000Y21618140D01*
X51253236Y21590072D01*
X51246840Y21568991D01*
X51236452Y21549555D01*
X51222476Y21532524D01*
X51205445Y21518548D01*
X51186009Y21508160D01*
X51164928Y21501764D01*
X51136860Y21499000D01*
X50673140Y21499000D01*
X50645072Y21501764D01*
X50623991Y21508160D01*
X50604555Y21518548D01*
X50587524Y21532524D01*
X50573548Y21549555D01*
X50563160Y21568991D01*
X50556764Y21590072D01*
X50554000Y21618140D01*
X50554000Y23481860D01*
X50556764Y23509928D01*
X50563160Y23531009D01*
X50573548Y23550445D01*
X50587524Y23567476D01*
X50604555Y23581452D01*
X50623991Y23591840D01*
X50645072Y23598236D01*
X50673140Y23601000D01*
X51136860Y23601000D01*
X51164928Y23598236D01*
G37*
G36*
X54058103Y24842442D02*
G01*
X54125990Y24821848D01*
X54188559Y24788404D01*
X54243399Y24743399D01*
X54288404Y24688559D01*
X54321848Y24625990D01*
X54342442Y24558103D01*
X54350000Y24481360D01*
X54350000Y23518640D01*
X54342442Y23441897D01*
X54321848Y23374010D01*
X54288404Y23311441D01*
X54243399Y23256601D01*
X54188559Y23211596D01*
X54125990Y23178152D01*
X54058103Y23157558D01*
X53981360Y23150000D01*
X52518640Y23150000D01*
X52441897Y23157558D01*
X52374010Y23178152D01*
X52311441Y23211596D01*
X52256601Y23256601D01*
X52211596Y23311441D01*
X52178152Y23374010D01*
X52157558Y23441897D01*
X52150000Y23518640D01*
X52150000Y24481360D01*
X52157558Y24558103D01*
X52178152Y24625990D01*
X52211596Y24688559D01*
X52256601Y24743399D01*
X52311441Y24788404D01*
X52374010Y24821848D01*
X52441897Y24842442D01*
X52518640Y24850000D01*
X53981360Y24850000D01*
X54058103Y24842442D01*
G37*
G36*
X24061000Y23924000D02*
G01*
X22859000Y23924000D01*
X22859000Y28626000D01*
X24061000Y28626000D01*
X24061000Y23924000D01*
G37*
G36*
X29141000Y23924000D02*
G01*
X27939000Y23924000D01*
X27939000Y28626000D01*
X29141000Y28626000D01*
X29141000Y23924000D01*
G37*
G36*
X46111938Y25093284D02*
G01*
X46132557Y25087029D01*
X46151553Y25076876D01*
X46168208Y25063208D01*
X46181876Y25046553D01*
X46192029Y25027557D01*
X46198284Y25006938D01*
X46201000Y24979360D01*
X46201000Y24520640D01*
X46198284Y24493062D01*
X46192029Y24472443D01*
X46181876Y24453447D01*
X46168208Y24436792D01*
X46151553Y24423124D01*
X46132557Y24412971D01*
X46111938Y24406716D01*
X46084360Y24404000D01*
X45415640Y24404000D01*
X45388062Y24406716D01*
X45367443Y24412971D01*
X45348447Y24423124D01*
X45331792Y24436792D01*
X45318124Y24453447D01*
X45307971Y24472443D01*
X45301716Y24493062D01*
X45299000Y24520640D01*
X45299000Y24979360D01*
X45301716Y25006938D01*
X45307971Y25027557D01*
X45318124Y25046553D01*
X45331792Y25063208D01*
X45348447Y25076876D01*
X45367443Y25087029D01*
X45388062Y25093284D01*
X45415640Y25096000D01*
X46084360Y25096000D01*
X46111938Y25093284D01*
G37*
G36*
X46111938Y26593284D02*
G01*
X46132557Y26587029D01*
X46151553Y26576876D01*
X46168208Y26563208D01*
X46181876Y26546553D01*
X46192029Y26527557D01*
X46198284Y26506938D01*
X46201000Y26479360D01*
X46201000Y26020640D01*
X46198284Y25993062D01*
X46192029Y25972443D01*
X46181876Y25953447D01*
X46168208Y25936792D01*
X46151553Y25923124D01*
X46132557Y25912971D01*
X46111938Y25906716D01*
X46084360Y25904000D01*
X45415640Y25904000D01*
X45388062Y25906716D01*
X45367443Y25912971D01*
X45348447Y25923124D01*
X45331792Y25936792D01*
X45318124Y25953447D01*
X45307971Y25972443D01*
X45301716Y25993062D01*
X45299000Y26020640D01*
X45299000Y26479360D01*
X45301716Y26506938D01*
X45307971Y26527557D01*
X45318124Y26546553D01*
X45331792Y26563208D01*
X45348447Y26576876D01*
X45367443Y26587029D01*
X45388062Y26593284D01*
X45415640Y26596000D01*
X46084360Y26596000D01*
X46111938Y26593284D01*
G37*
G36*
X19558103Y29442442D02*
G01*
X19625990Y29421848D01*
X19688559Y29388404D01*
X19743399Y29343399D01*
X19788404Y29288559D01*
X19821848Y29225990D01*
X19842442Y29158103D01*
X19850000Y29081360D01*
X19850000Y26418640D01*
X19842442Y26341897D01*
X19821848Y26274010D01*
X19788404Y26211441D01*
X19743399Y26156601D01*
X19688559Y26111596D01*
X19625990Y26078152D01*
X19558103Y26057558D01*
X19481360Y26050000D01*
X18518640Y26050000D01*
X18441897Y26057558D01*
X18374010Y26078152D01*
X18311441Y26111596D01*
X18256601Y26156601D01*
X18211596Y26211441D01*
X18178152Y26274010D01*
X18157558Y26341897D01*
X18150000Y26418640D01*
X18150000Y29081360D01*
X18157558Y29158103D01*
X18178152Y29225990D01*
X18211596Y29288559D01*
X18256601Y29343399D01*
X18311441Y29388404D01*
X18374010Y29421848D01*
X18441897Y29442442D01*
X18518640Y29450000D01*
X19481360Y29450000D01*
X19558103Y29442442D01*
G37*
G36*
X14058103Y29442442D02*
G01*
X14125990Y29421848D01*
X14188559Y29388404D01*
X14243399Y29343399D01*
X14288404Y29288559D01*
X14321848Y29225990D01*
X14342442Y29158103D01*
X14350000Y29081360D01*
X14350000Y26418640D01*
X14342442Y26341897D01*
X14321848Y26274010D01*
X14288404Y26211441D01*
X14243399Y26156601D01*
X14188559Y26111596D01*
X14125990Y26078152D01*
X14058103Y26057558D01*
X13981360Y26050000D01*
X13018640Y26050000D01*
X12941897Y26057558D01*
X12874010Y26078152D01*
X12811441Y26111596D01*
X12756601Y26156601D01*
X12711596Y26211441D01*
X12678152Y26274010D01*
X12657558Y26341897D01*
X12650000Y26418640D01*
X12650000Y29081360D01*
X12657558Y29158103D01*
X12678152Y29225990D01*
X12711596Y29288559D01*
X12756601Y29343399D01*
X12811441Y29388404D01*
X12874010Y29421848D01*
X12941897Y29442442D01*
X13018640Y29450000D01*
X13981360Y29450000D01*
X14058103Y29442442D01*
G37*
G36*
X47354928Y28498236D02*
G01*
X47376009Y28491840D01*
X47395445Y28481452D01*
X47412476Y28467476D01*
X47426452Y28450445D01*
X47436840Y28431009D01*
X47443236Y28409928D01*
X47446000Y28381860D01*
X47446000Y26518140D01*
X47443236Y26490072D01*
X47436840Y26468991D01*
X47426452Y26449555D01*
X47412476Y26432524D01*
X47395445Y26418548D01*
X47376009Y26408160D01*
X47354928Y26401764D01*
X47326860Y26399000D01*
X46863140Y26399000D01*
X46835072Y26401764D01*
X46813991Y26408160D01*
X46794555Y26418548D01*
X46777524Y26432524D01*
X46763548Y26449555D01*
X46753160Y26468991D01*
X46746764Y26490072D01*
X46744000Y26518140D01*
X46744000Y28381860D01*
X46746764Y28409928D01*
X46753160Y28431009D01*
X46763548Y28450445D01*
X46777524Y28467476D01*
X46794555Y28481452D01*
X46813991Y28491840D01*
X46835072Y28498236D01*
X46863140Y28501000D01*
X47326860Y28501000D01*
X47354928Y28498236D01*
G37*
G36*
X49894928Y28498236D02*
G01*
X49916009Y28491840D01*
X49935445Y28481452D01*
X49952476Y28467476D01*
X49966452Y28450445D01*
X49976840Y28431009D01*
X49983236Y28409928D01*
X49986000Y28381860D01*
X49986000Y26518140D01*
X49983236Y26490072D01*
X49976840Y26468991D01*
X49966452Y26449555D01*
X49952476Y26432524D01*
X49935445Y26418548D01*
X49916009Y26408160D01*
X49894928Y26401764D01*
X49866860Y26399000D01*
X49403140Y26399000D01*
X49375072Y26401764D01*
X49353991Y26408160D01*
X49334555Y26418548D01*
X49317524Y26432524D01*
X49303548Y26449555D01*
X49293160Y26468991D01*
X49286764Y26490072D01*
X49284000Y26518140D01*
X49284000Y28381860D01*
X49286764Y28409928D01*
X49293160Y28431009D01*
X49303548Y28450445D01*
X49317524Y28467476D01*
X49334555Y28481452D01*
X49353991Y28491840D01*
X49375072Y28498236D01*
X49403140Y28501000D01*
X49866860Y28501000D01*
X49894928Y28498236D01*
G37*
G36*
X48624928Y28498236D02*
G01*
X48646009Y28491840D01*
X48665445Y28481452D01*
X48682476Y28467476D01*
X48696452Y28450445D01*
X48706840Y28431009D01*
X48713236Y28409928D01*
X48716000Y28381860D01*
X48716000Y26518140D01*
X48713236Y26490072D01*
X48706840Y26468991D01*
X48696452Y26449555D01*
X48682476Y26432524D01*
X48665445Y26418548D01*
X48646009Y26408160D01*
X48624928Y26401764D01*
X48596860Y26399000D01*
X48133140Y26399000D01*
X48105072Y26401764D01*
X48083991Y26408160D01*
X48064555Y26418548D01*
X48047524Y26432524D01*
X48033548Y26449555D01*
X48023160Y26468991D01*
X48016764Y26490072D01*
X48014000Y26518140D01*
X48014000Y28381860D01*
X48016764Y28409928D01*
X48023160Y28431009D01*
X48033548Y28450445D01*
X48047524Y28467476D01*
X48064555Y28481452D01*
X48083991Y28491840D01*
X48105072Y28498236D01*
X48133140Y28501000D01*
X48596860Y28501000D01*
X48624928Y28498236D01*
G37*
G36*
X51164928Y28498236D02*
G01*
X51186009Y28491840D01*
X51205445Y28481452D01*
X51222476Y28467476D01*
X51236452Y28450445D01*
X51246840Y28431009D01*
X51253236Y28409928D01*
X51256000Y28381860D01*
X51256000Y26518140D01*
X51253236Y26490072D01*
X51246840Y26468991D01*
X51236452Y26449555D01*
X51222476Y26432524D01*
X51205445Y26418548D01*
X51186009Y26408160D01*
X51164928Y26401764D01*
X51136860Y26399000D01*
X50673140Y26399000D01*
X50645072Y26401764D01*
X50623991Y26408160D01*
X50604555Y26418548D01*
X50587524Y26432524D01*
X50573548Y26449555D01*
X50563160Y26468991D01*
X50556764Y26490072D01*
X50554000Y26518140D01*
X50554000Y28381860D01*
X50556764Y28409928D01*
X50563160Y28431009D01*
X50573548Y28450445D01*
X50587524Y28467476D01*
X50604555Y28481452D01*
X50623991Y28491840D01*
X50645072Y28498236D01*
X50673140Y28501000D01*
X51136860Y28501000D01*
X51164928Y28498236D01*
G37*
G36*
X40478514Y28417712D02*
G01*
X40553534Y28394955D01*
X40622671Y28358000D01*
X40683269Y28308269D01*
X40733000Y28247671D01*
X40769955Y28178534D01*
X40792712Y28103514D01*
X40801000Y28019360D01*
X40801000Y26980640D01*
X40792712Y26896486D01*
X40769955Y26821466D01*
X40733000Y26752329D01*
X40683269Y26691731D01*
X40622671Y26642000D01*
X40553534Y26605045D01*
X40478514Y26582288D01*
X40394360Y26574000D01*
X38605640Y26574000D01*
X38521486Y26582288D01*
X38446466Y26605045D01*
X38377329Y26642000D01*
X38316731Y26691731D01*
X38267000Y26752329D01*
X38230045Y26821466D01*
X38207288Y26896486D01*
X38199000Y26980640D01*
X38199000Y28019360D01*
X38207288Y28103514D01*
X38230045Y28178534D01*
X38267000Y28247671D01*
X38316731Y28308269D01*
X38377329Y28358000D01*
X38446466Y28394955D01*
X38521486Y28417712D01*
X38605640Y28426000D01*
X40394360Y28426000D01*
X40478514Y28417712D01*
G37*
G36*
X36478514Y28417712D02*
G01*
X36553534Y28394955D01*
X36622671Y28358000D01*
X36683269Y28308269D01*
X36733000Y28247671D01*
X36769955Y28178534D01*
X36792712Y28103514D01*
X36801000Y28019360D01*
X36801000Y26980640D01*
X36792712Y26896486D01*
X36769955Y26821466D01*
X36733000Y26752329D01*
X36683269Y26691731D01*
X36622671Y26642000D01*
X36553534Y26605045D01*
X36478514Y26582288D01*
X36394360Y26574000D01*
X34605640Y26574000D01*
X34521486Y26582288D01*
X34446466Y26605045D01*
X34377329Y26642000D01*
X34316731Y26691731D01*
X34267000Y26752329D01*
X34230045Y26821466D01*
X34207288Y26896486D01*
X34199000Y26980640D01*
X34199000Y28019360D01*
X34207288Y28103514D01*
X34230045Y28178534D01*
X34267000Y28247671D01*
X34316731Y28308269D01*
X34377329Y28358000D01*
X34446466Y28394955D01*
X34521486Y28417712D01*
X34605640Y28426000D01*
X36394360Y28426000D01*
X36478514Y28417712D01*
G37*
G36*
X33408715Y28219844D02*
G01*
X33453155Y28206363D01*
X33494113Y28184470D01*
X33530011Y28155011D01*
X33559470Y28119113D01*
X33581363Y28078155D01*
X33594844Y28033715D01*
X33600000Y27981360D01*
X33600000Y27018640D01*
X33594844Y26966285D01*
X33581363Y26921845D01*
X33559470Y26880887D01*
X33530011Y26844989D01*
X33494113Y26815530D01*
X33453155Y26793637D01*
X33408715Y26780156D01*
X33356360Y26775000D01*
X32643640Y26775000D01*
X32591285Y26780156D01*
X32546845Y26793637D01*
X32505887Y26815530D01*
X32469989Y26844989D01*
X32440530Y26880887D01*
X32418637Y26921845D01*
X32405156Y26966285D01*
X32400000Y27018640D01*
X32400000Y27981360D01*
X32405156Y28033715D01*
X32418637Y28078155D01*
X32440530Y28119113D01*
X32469989Y28155011D01*
X32505887Y28184470D01*
X32546845Y28206363D01*
X32591285Y28219844D01*
X32643640Y28225000D01*
X33356360Y28225000D01*
X33408715Y28219844D01*
G37*
G36*
X31408715Y28219844D02*
G01*
X31453155Y28206363D01*
X31494113Y28184470D01*
X31530011Y28155011D01*
X31559470Y28119113D01*
X31581363Y28078155D01*
X31594844Y28033715D01*
X31600000Y27981360D01*
X31600000Y27018640D01*
X31594844Y26966285D01*
X31581363Y26921845D01*
X31559470Y26880887D01*
X31530011Y26844989D01*
X31494113Y26815530D01*
X31453155Y26793637D01*
X31408715Y26780156D01*
X31356360Y26775000D01*
X30643640Y26775000D01*
X30591285Y26780156D01*
X30546845Y26793637D01*
X30505887Y26815530D01*
X30469989Y26844989D01*
X30440530Y26880887D01*
X30418637Y26921845D01*
X30405156Y26966285D01*
X30400000Y27018640D01*
X30400000Y27981360D01*
X30405156Y28033715D01*
X30418637Y28078155D01*
X30440530Y28119113D01*
X30469989Y28155011D01*
X30505887Y28184470D01*
X30546845Y28206363D01*
X30591285Y28219844D01*
X30643640Y28225000D01*
X31356360Y28225000D01*
X31408715Y28219844D01*
G37*
G36*
X42844051Y32549245D02*
G01*
X42968310Y32511551D01*
X43082829Y32450339D01*
X43187972Y32364050D01*
X43227818Y32324204D01*
X43227829Y32324195D01*
X44395263Y31156761D01*
X44395272Y31156750D01*
X44435118Y31116904D01*
X44521407Y31011761D01*
X44582619Y30897242D01*
X44620313Y30772983D01*
X44633040Y30643755D01*
X44620313Y30514527D01*
X44582619Y30390268D01*
X44521407Y30275749D01*
X44435118Y30170606D01*
X44395272Y30130760D01*
X44395263Y30130749D01*
X43369251Y29104737D01*
X43369240Y29104728D01*
X43329394Y29064882D01*
X43224251Y28978593D01*
X43109732Y28917381D01*
X42985473Y28879687D01*
X42856245Y28866960D01*
X42727017Y28879687D01*
X42602758Y28917381D01*
X42488239Y28978593D01*
X42383096Y29064882D01*
X42343250Y29104728D01*
X42343239Y29104737D01*
X41175805Y30272171D01*
X41175796Y30272182D01*
X41135950Y30312028D01*
X41049661Y30417171D01*
X40988449Y30531690D01*
X40950755Y30655949D01*
X40938028Y30785177D01*
X40950755Y30914405D01*
X40988449Y31038664D01*
X41049661Y31153183D01*
X41135950Y31258326D01*
X41175796Y31298172D01*
X41175805Y31298183D01*
X42201817Y32324195D01*
X42201828Y32324204D01*
X42241674Y32364050D01*
X42346817Y32450339D01*
X42461336Y32511551D01*
X42585595Y32549245D01*
X42714823Y32561972D01*
X42844051Y32549245D01*
G37*
G36*
X31408715Y30469844D02*
G01*
X31453155Y30456363D01*
X31494113Y30434470D01*
X31530011Y30405011D01*
X31559470Y30369113D01*
X31581363Y30328155D01*
X31594844Y30283715D01*
X31600000Y30231360D01*
X31600000Y29268640D01*
X31594844Y29216285D01*
X31581363Y29171845D01*
X31559470Y29130887D01*
X31530011Y29094989D01*
X31494113Y29065530D01*
X31453155Y29043637D01*
X31408715Y29030156D01*
X31356360Y29025000D01*
X30643640Y29025000D01*
X30591285Y29030156D01*
X30546845Y29043637D01*
X30505887Y29065530D01*
X30469989Y29094989D01*
X30440530Y29130887D01*
X30418637Y29171845D01*
X30405156Y29216285D01*
X30400000Y29268640D01*
X30400000Y30231360D01*
X30405156Y30283715D01*
X30418637Y30328155D01*
X30440530Y30369113D01*
X30469989Y30405011D01*
X30505887Y30434470D01*
X30546845Y30456363D01*
X30591285Y30469844D01*
X30643640Y30475000D01*
X31356360Y30475000D01*
X31408715Y30469844D01*
G37*
G36*
X33408715Y30469844D02*
G01*
X33453155Y30456363D01*
X33494113Y30434470D01*
X33530011Y30405011D01*
X33559470Y30369113D01*
X33581363Y30328155D01*
X33594844Y30283715D01*
X33600000Y30231360D01*
X33600000Y29268640D01*
X33594844Y29216285D01*
X33581363Y29171845D01*
X33559470Y29130887D01*
X33530011Y29094989D01*
X33494113Y29065530D01*
X33453155Y29043637D01*
X33408715Y29030156D01*
X33356360Y29025000D01*
X32643640Y29025000D01*
X32591285Y29030156D01*
X32546845Y29043637D01*
X32505887Y29065530D01*
X32469989Y29094989D01*
X32440530Y29130887D01*
X32418637Y29171845D01*
X32405156Y29216285D01*
X32400000Y29268640D01*
X32400000Y30231360D01*
X32405156Y30283715D01*
X32418637Y30328155D01*
X32440530Y30369113D01*
X32469989Y30405011D01*
X32505887Y30434470D01*
X32546845Y30456363D01*
X32591285Y30469844D01*
X32643640Y30475000D01*
X33356360Y30475000D01*
X33408715Y30469844D01*
G37*
G36*
X50033715Y30844844D02*
G01*
X50078155Y30831363D01*
X50119113Y30809470D01*
X50155011Y30780011D01*
X50184470Y30744113D01*
X50206363Y30703155D01*
X50219844Y30658715D01*
X50225000Y30606360D01*
X50225000Y29893640D01*
X50219844Y29841285D01*
X50206363Y29796845D01*
X50184470Y29755887D01*
X50155011Y29719989D01*
X50119113Y29690530D01*
X50078155Y29668637D01*
X50033715Y29655156D01*
X49981360Y29650000D01*
X49018640Y29650000D01*
X48966285Y29655156D01*
X48921845Y29668637D01*
X48880887Y29690530D01*
X48844989Y29719989D01*
X48815530Y29755887D01*
X48793637Y29796845D01*
X48780156Y29841285D01*
X48775000Y29893640D01*
X48775000Y30606360D01*
X48780156Y30658715D01*
X48793637Y30703155D01*
X48815530Y30744113D01*
X48844989Y30780011D01*
X48880887Y30809470D01*
X48921845Y30831363D01*
X48966285Y30844844D01*
X49018640Y30850000D01*
X49981360Y30850000D01*
X50033715Y30844844D01*
G37*
G36*
X47783715Y30844844D02*
G01*
X47828155Y30831363D01*
X47869113Y30809470D01*
X47905011Y30780011D01*
X47934470Y30744113D01*
X47956363Y30703155D01*
X47969844Y30658715D01*
X47975000Y30606360D01*
X47975000Y29893640D01*
X47969844Y29841285D01*
X47956363Y29796845D01*
X47934470Y29755887D01*
X47905011Y29719989D01*
X47869113Y29690530D01*
X47828155Y29668637D01*
X47783715Y29655156D01*
X47731360Y29650000D01*
X46768640Y29650000D01*
X46716285Y29655156D01*
X46671845Y29668637D01*
X46630887Y29690530D01*
X46594989Y29719989D01*
X46565530Y29755887D01*
X46543637Y29796845D01*
X46530156Y29841285D01*
X46525000Y29893640D01*
X46525000Y30606360D01*
X46530156Y30658715D01*
X46543637Y30703155D01*
X46565530Y30744113D01*
X46594989Y30780011D01*
X46630887Y30809470D01*
X46671845Y30831363D01*
X46716285Y30844844D01*
X46768640Y30850000D01*
X47731360Y30850000D01*
X47783715Y30844844D01*
G37*
G36*
X25572798Y32396753D02*
G01*
X25608367Y32385963D01*
X25641139Y32368446D01*
X25669869Y32344869D01*
X25693446Y32316139D01*
X25710963Y32283367D01*
X25721753Y32247798D01*
X25726000Y32204675D01*
X25726000Y30920325D01*
X25721753Y30877202D01*
X25710963Y30841633D01*
X25693446Y30808861D01*
X25669869Y30780131D01*
X25641139Y30756554D01*
X25608367Y30739037D01*
X25572798Y30728247D01*
X25529675Y30724000D01*
X24470325Y30724000D01*
X24427202Y30728247D01*
X24391633Y30739037D01*
X24358861Y30756554D01*
X24330131Y30780131D01*
X24306554Y30808861D01*
X24289037Y30841633D01*
X24278247Y30877202D01*
X24274000Y30920325D01*
X24274000Y32204675D01*
X24278247Y32247798D01*
X24289037Y32283367D01*
X24306554Y32316139D01*
X24330131Y32344869D01*
X24358861Y32368446D01*
X24391633Y32385963D01*
X24427202Y32396753D01*
X24470325Y32401000D01*
X25529675Y32401000D01*
X25572798Y32396753D01*
G37*
G36*
X28572798Y32396753D02*
G01*
X28608367Y32385963D01*
X28641139Y32368446D01*
X28669869Y32344869D01*
X28693446Y32316139D01*
X28710963Y32283367D01*
X28721753Y32247798D01*
X28726000Y32204675D01*
X28726000Y30920325D01*
X28721753Y30877202D01*
X28710963Y30841633D01*
X28693446Y30808861D01*
X28669869Y30780131D01*
X28641139Y30756554D01*
X28608367Y30739037D01*
X28572798Y30728247D01*
X28529675Y30724000D01*
X27470325Y30724000D01*
X27427202Y30728247D01*
X27391633Y30739037D01*
X27358861Y30756554D01*
X27330131Y30780131D01*
X27306554Y30808861D01*
X27289037Y30841633D01*
X27278247Y30877202D01*
X27274000Y30920325D01*
X27274000Y32204675D01*
X27278247Y32247798D01*
X27289037Y32283367D01*
X27306554Y32316139D01*
X27330131Y32344869D01*
X27358861Y32368446D01*
X27391633Y32385963D01*
X27427202Y32396753D01*
X27470325Y32401000D01*
X28529675Y32401000D01*
X28572798Y32396753D01*
G37*
G36*
X18901000Y31109000D02*
G01*
X16639000Y31109000D01*
X16639000Y31851000D01*
X18901000Y31851000D01*
X18901000Y31109000D01*
G37*
G36*
X10361000Y31109000D02*
G01*
X8099000Y31109000D01*
X8099000Y31851000D01*
X10361000Y31851000D01*
X10361000Y31109000D01*
G37*
G36*
X7158715Y32719844D02*
G01*
X7203155Y32706363D01*
X7244113Y32684470D01*
X7280011Y32655011D01*
X7309470Y32619113D01*
X7331363Y32578155D01*
X7344844Y32533715D01*
X7350000Y32481360D01*
X7350000Y31518640D01*
X7344844Y31466285D01*
X7331363Y31421845D01*
X7309470Y31380887D01*
X7280011Y31344989D01*
X7244113Y31315530D01*
X7203155Y31293637D01*
X7158715Y31280156D01*
X7106360Y31275000D01*
X6393640Y31275000D01*
X6341285Y31280156D01*
X6296845Y31293637D01*
X6255887Y31315530D01*
X6219989Y31344989D01*
X6190530Y31380887D01*
X6168637Y31421845D01*
X6155156Y31466285D01*
X6150000Y31518640D01*
X6150000Y32481360D01*
X6155156Y32533715D01*
X6168637Y32578155D01*
X6190530Y32619113D01*
X6219989Y32655011D01*
X6255887Y32684470D01*
X6296845Y32706363D01*
X6341285Y32719844D01*
X6393640Y32725000D01*
X7106360Y32725000D01*
X7158715Y32719844D01*
G37*
G36*
X5158715Y32719844D02*
G01*
X5203155Y32706363D01*
X5244113Y32684470D01*
X5280011Y32655011D01*
X5309470Y32619113D01*
X5331363Y32578155D01*
X5344844Y32533715D01*
X5350000Y32481360D01*
X5350000Y31518640D01*
X5344844Y31466285D01*
X5331363Y31421845D01*
X5309470Y31380887D01*
X5280011Y31344989D01*
X5244113Y31315530D01*
X5203155Y31293637D01*
X5158715Y31280156D01*
X5106360Y31275000D01*
X4393640Y31275000D01*
X4341285Y31280156D01*
X4296845Y31293637D01*
X4255887Y31315530D01*
X4219989Y31344989D01*
X4190530Y31380887D01*
X4168637Y31421845D01*
X4155156Y31466285D01*
X4150000Y31518640D01*
X4150000Y32481360D01*
X4155156Y32533715D01*
X4168637Y32578155D01*
X4190530Y32619113D01*
X4219989Y32655011D01*
X4255887Y32684470D01*
X4296845Y32706363D01*
X4341285Y32719844D01*
X4393640Y32725000D01*
X5106360Y32725000D01*
X5158715Y32719844D01*
G37*
G36*
X22783715Y32594844D02*
G01*
X22828155Y32581363D01*
X22869113Y32559470D01*
X22905011Y32530011D01*
X22934470Y32494113D01*
X22956363Y32453155D01*
X22969844Y32408715D01*
X22975000Y32356360D01*
X22975000Y31643640D01*
X22969844Y31591285D01*
X22956363Y31546845D01*
X22934470Y31505887D01*
X22905011Y31469989D01*
X22869113Y31440530D01*
X22828155Y31418637D01*
X22783715Y31405156D01*
X22731360Y31400000D01*
X21768640Y31400000D01*
X21716285Y31405156D01*
X21671845Y31418637D01*
X21630887Y31440530D01*
X21594989Y31469989D01*
X21565530Y31505887D01*
X21543637Y31546845D01*
X21530156Y31591285D01*
X21525000Y31643640D01*
X21525000Y32356360D01*
X21530156Y32408715D01*
X21543637Y32453155D01*
X21565530Y32494113D01*
X21594989Y32530011D01*
X21630887Y32559470D01*
X21671845Y32581363D01*
X21716285Y32594844D01*
X21768640Y32600000D01*
X22731360Y32600000D01*
X22783715Y32594844D01*
G37*
G36*
X20783715Y32594844D02*
G01*
X20828155Y32581363D01*
X20869113Y32559470D01*
X20905011Y32530011D01*
X20934470Y32494113D01*
X20956363Y32453155D01*
X20969844Y32408715D01*
X20975000Y32356360D01*
X20975000Y31643640D01*
X20969844Y31591285D01*
X20956363Y31546845D01*
X20934470Y31505887D01*
X20905011Y31469989D01*
X20869113Y31440530D01*
X20828155Y31418637D01*
X20783715Y31405156D01*
X20731360Y31400000D01*
X19768640Y31400000D01*
X19716285Y31405156D01*
X19671845Y31418637D01*
X19630887Y31440530D01*
X19594989Y31469989D01*
X19565530Y31505887D01*
X19543637Y31546845D01*
X19530156Y31591285D01*
X19525000Y31643640D01*
X19525000Y32356360D01*
X19530156Y32408715D01*
X19543637Y32453155D01*
X19565530Y32494113D01*
X19594989Y32530011D01*
X19630887Y32559470D01*
X19671845Y32581363D01*
X19716285Y32594844D01*
X19768640Y32600000D01*
X20731360Y32600000D01*
X20783715Y32594844D01*
G37*
G36*
X47783715Y32844844D02*
G01*
X47828155Y32831363D01*
X47869113Y32809470D01*
X47905011Y32780011D01*
X47934470Y32744113D01*
X47956363Y32703155D01*
X47969844Y32658715D01*
X47975000Y32606360D01*
X47975000Y31893640D01*
X47969844Y31841285D01*
X47956363Y31796845D01*
X47934470Y31755887D01*
X47905011Y31719989D01*
X47869113Y31690530D01*
X47828155Y31668637D01*
X47783715Y31655156D01*
X47731360Y31650000D01*
X46768640Y31650000D01*
X46716285Y31655156D01*
X46671845Y31668637D01*
X46630887Y31690530D01*
X46594989Y31719989D01*
X46565530Y31755887D01*
X46543637Y31796845D01*
X46530156Y31841285D01*
X46525000Y31893640D01*
X46525000Y32606360D01*
X46530156Y32658715D01*
X46543637Y32703155D01*
X46565530Y32744113D01*
X46594989Y32780011D01*
X46630887Y32809470D01*
X46671845Y32831363D01*
X46716285Y32844844D01*
X46768640Y32850000D01*
X47731360Y32850000D01*
X47783715Y32844844D01*
G37*
G36*
X50033715Y32844844D02*
G01*
X50078155Y32831363D01*
X50119113Y32809470D01*
X50155011Y32780011D01*
X50184470Y32744113D01*
X50206363Y32703155D01*
X50219844Y32658715D01*
X50225000Y32606360D01*
X50225000Y31893640D01*
X50219844Y31841285D01*
X50206363Y31796845D01*
X50184470Y31755887D01*
X50155011Y31719989D01*
X50119113Y31690530D01*
X50078155Y31668637D01*
X50033715Y31655156D01*
X49981360Y31650000D01*
X49018640Y31650000D01*
X48966285Y31655156D01*
X48921845Y31668637D01*
X48880887Y31690530D01*
X48844989Y31719989D01*
X48815530Y31755887D01*
X48793637Y31796845D01*
X48780156Y31841285D01*
X48775000Y31893640D01*
X48775000Y32606360D01*
X48780156Y32658715D01*
X48793637Y32703155D01*
X48815530Y32744113D01*
X48844989Y32780011D01*
X48880887Y32809470D01*
X48921845Y32831363D01*
X48966285Y32844844D01*
X49018640Y32850000D01*
X49981360Y32850000D01*
X50033715Y32844844D01*
G37*
G36*
X18901000Y32379000D02*
G01*
X16639000Y32379000D01*
X16639000Y33121000D01*
X18901000Y33121000D01*
X18901000Y32379000D01*
G37*
G36*
X10361000Y32379000D02*
G01*
X8099000Y32379000D01*
X8099000Y33121000D01*
X10361000Y33121000D01*
X10361000Y32379000D01*
G37*
G36*
X5158715Y34719844D02*
G01*
X5203155Y34706363D01*
X5244113Y34684470D01*
X5280011Y34655011D01*
X5309470Y34619113D01*
X5331363Y34578155D01*
X5344844Y34533715D01*
X5350000Y34481360D01*
X5350000Y33518640D01*
X5344844Y33466285D01*
X5331363Y33421845D01*
X5309470Y33380887D01*
X5280011Y33344989D01*
X5244113Y33315530D01*
X5203155Y33293637D01*
X5158715Y33280156D01*
X5106360Y33275000D01*
X4393640Y33275000D01*
X4341285Y33280156D01*
X4296845Y33293637D01*
X4255887Y33315530D01*
X4219989Y33344989D01*
X4190530Y33380887D01*
X4168637Y33421845D01*
X4155156Y33466285D01*
X4150000Y33518640D01*
X4150000Y34481360D01*
X4155156Y34533715D01*
X4168637Y34578155D01*
X4190530Y34619113D01*
X4219989Y34655011D01*
X4255887Y34684470D01*
X4296845Y34706363D01*
X4341285Y34719844D01*
X4393640Y34725000D01*
X5106360Y34725000D01*
X5158715Y34719844D01*
G37*
G36*
X7158715Y34719844D02*
G01*
X7203155Y34706363D01*
X7244113Y34684470D01*
X7280011Y34655011D01*
X7309470Y34619113D01*
X7331363Y34578155D01*
X7344844Y34533715D01*
X7350000Y34481360D01*
X7350000Y33518640D01*
X7344844Y33466285D01*
X7331363Y33421845D01*
X7309470Y33380887D01*
X7280011Y33344989D01*
X7244113Y33315530D01*
X7203155Y33293637D01*
X7158715Y33280156D01*
X7106360Y33275000D01*
X6393640Y33275000D01*
X6341285Y33280156D01*
X6296845Y33293637D01*
X6255887Y33315530D01*
X6219989Y33344989D01*
X6190530Y33380887D01*
X6168637Y33421845D01*
X6155156Y33466285D01*
X6150000Y33518640D01*
X6150000Y34481360D01*
X6155156Y34533715D01*
X6168637Y34578155D01*
X6190530Y34619113D01*
X6219989Y34655011D01*
X6255887Y34684470D01*
X6296845Y34706363D01*
X6341285Y34719844D01*
X6393640Y34725000D01*
X7106360Y34725000D01*
X7158715Y34719844D01*
G37*
G36*
X20783715Y34594844D02*
G01*
X20828155Y34581363D01*
X20869113Y34559470D01*
X20905011Y34530011D01*
X20934470Y34494113D01*
X20956363Y34453155D01*
X20969844Y34408715D01*
X20975000Y34356360D01*
X20975000Y33643640D01*
X20969844Y33591285D01*
X20956363Y33546845D01*
X20934470Y33505887D01*
X20905011Y33469989D01*
X20869113Y33440530D01*
X20828155Y33418637D01*
X20783715Y33405156D01*
X20731360Y33400000D01*
X19768640Y33400000D01*
X19716285Y33405156D01*
X19671845Y33418637D01*
X19630887Y33440530D01*
X19594989Y33469989D01*
X19565530Y33505887D01*
X19543637Y33546845D01*
X19530156Y33591285D01*
X19525000Y33643640D01*
X19525000Y34356360D01*
X19530156Y34408715D01*
X19543637Y34453155D01*
X19565530Y34494113D01*
X19594989Y34530011D01*
X19630887Y34559470D01*
X19671845Y34581363D01*
X19716285Y34594844D01*
X19768640Y34600000D01*
X20731360Y34600000D01*
X20783715Y34594844D01*
G37*
G36*
X22783715Y34594844D02*
G01*
X22828155Y34581363D01*
X22869113Y34559470D01*
X22905011Y34530011D01*
X22934470Y34494113D01*
X22956363Y34453155D01*
X22969844Y34408715D01*
X22975000Y34356360D01*
X22975000Y33643640D01*
X22969844Y33591285D01*
X22956363Y33546845D01*
X22934470Y33505887D01*
X22905011Y33469989D01*
X22869113Y33440530D01*
X22828155Y33418637D01*
X22783715Y33405156D01*
X22731360Y33400000D01*
X21768640Y33400000D01*
X21716285Y33405156D01*
X21671845Y33418637D01*
X21630887Y33440530D01*
X21594989Y33469989D01*
X21565530Y33505887D01*
X21543637Y33546845D01*
X21530156Y33591285D01*
X21525000Y33643640D01*
X21525000Y34356360D01*
X21530156Y34408715D01*
X21543637Y34453155D01*
X21565530Y34494113D01*
X21594989Y34530011D01*
X21630887Y34559470D01*
X21671845Y34581363D01*
X21716285Y34594844D01*
X21768640Y34600000D01*
X22731360Y34600000D01*
X22783715Y34594844D01*
G37*
G36*
X48658715Y34969844D02*
G01*
X48703155Y34956363D01*
X48744113Y34934470D01*
X48780011Y34905011D01*
X48809470Y34869113D01*
X48831363Y34828155D01*
X48844844Y34783715D01*
X48850000Y34731360D01*
X48850000Y33768640D01*
X48844844Y33716285D01*
X48831363Y33671845D01*
X48809470Y33630887D01*
X48780011Y33594989D01*
X48744113Y33565530D01*
X48703155Y33543637D01*
X48658715Y33530156D01*
X48606360Y33525000D01*
X47893640Y33525000D01*
X47841285Y33530156D01*
X47796845Y33543637D01*
X47755887Y33565530D01*
X47719989Y33594989D01*
X47690530Y33630887D01*
X47668637Y33671845D01*
X47655156Y33716285D01*
X47650000Y33768640D01*
X47650000Y34731360D01*
X47655156Y34783715D01*
X47668637Y34828155D01*
X47690530Y34869113D01*
X47719989Y34905011D01*
X47755887Y34934470D01*
X47796845Y34956363D01*
X47841285Y34969844D01*
X47893640Y34975000D01*
X48606360Y34975000D01*
X48658715Y34969844D01*
G37*
G36*
X50658715Y34969844D02*
G01*
X50703155Y34956363D01*
X50744113Y34934470D01*
X50780011Y34905011D01*
X50809470Y34869113D01*
X50831363Y34828155D01*
X50844844Y34783715D01*
X50850000Y34731360D01*
X50850000Y33768640D01*
X50844844Y33716285D01*
X50831363Y33671845D01*
X50809470Y33630887D01*
X50780011Y33594989D01*
X50744113Y33565530D01*
X50703155Y33543637D01*
X50658715Y33530156D01*
X50606360Y33525000D01*
X49893640Y33525000D01*
X49841285Y33530156D01*
X49796845Y33543637D01*
X49755887Y33565530D01*
X49719989Y33594989D01*
X49690530Y33630887D01*
X49668637Y33671845D01*
X49655156Y33716285D01*
X49650000Y33768640D01*
X49650000Y34731360D01*
X49655156Y34783715D01*
X49668637Y34828155D01*
X49690530Y34869113D01*
X49719989Y34905011D01*
X49755887Y34934470D01*
X49796845Y34956363D01*
X49841285Y34969844D01*
X49893640Y34975000D01*
X50606360Y34975000D01*
X50658715Y34969844D01*
G37*
G36*
X28572798Y35271753D02*
G01*
X28608367Y35260963D01*
X28641139Y35243446D01*
X28669869Y35219869D01*
X28693446Y35191139D01*
X28710963Y35158367D01*
X28721753Y35122798D01*
X28726000Y35079675D01*
X28726000Y33795325D01*
X28721753Y33752202D01*
X28710963Y33716633D01*
X28693446Y33683861D01*
X28669869Y33655131D01*
X28641139Y33631554D01*
X28608367Y33614037D01*
X28572798Y33603247D01*
X28529675Y33599000D01*
X27470325Y33599000D01*
X27427202Y33603247D01*
X27391633Y33614037D01*
X27358861Y33631554D01*
X27330131Y33655131D01*
X27306554Y33683861D01*
X27289037Y33716633D01*
X27278247Y33752202D01*
X27274000Y33795325D01*
X27274000Y35079675D01*
X27278247Y35122798D01*
X27289037Y35158367D01*
X27306554Y35191139D01*
X27330131Y35219869D01*
X27358861Y35243446D01*
X27391633Y35260963D01*
X27427202Y35271753D01*
X27470325Y35276000D01*
X28529675Y35276000D01*
X28572798Y35271753D01*
G37*
G36*
X25572798Y35271753D02*
G01*
X25608367Y35260963D01*
X25641139Y35243446D01*
X25669869Y35219869D01*
X25693446Y35191139D01*
X25710963Y35158367D01*
X25721753Y35122798D01*
X25726000Y35079675D01*
X25726000Y33795325D01*
X25721753Y33752202D01*
X25710963Y33716633D01*
X25693446Y33683861D01*
X25669869Y33655131D01*
X25641139Y33631554D01*
X25608367Y33614037D01*
X25572798Y33603247D01*
X25529675Y33599000D01*
X24470325Y33599000D01*
X24427202Y33603247D01*
X24391633Y33614037D01*
X24358861Y33631554D01*
X24330131Y33655131D01*
X24306554Y33683861D01*
X24289037Y33716633D01*
X24278247Y33752202D01*
X24274000Y33795325D01*
X24274000Y35079675D01*
X24278247Y35122798D01*
X24289037Y35158367D01*
X24306554Y35191139D01*
X24330131Y35219869D01*
X24358861Y35243446D01*
X24391633Y35260963D01*
X24427202Y35271753D01*
X24470325Y35276000D01*
X25529675Y35276000D01*
X25572798Y35271753D01*
G37*
G36*
X10361000Y33649000D02*
G01*
X8099000Y33649000D01*
X8099000Y34391000D01*
X10361000Y34391000D01*
X10361000Y33649000D01*
G37*
G36*
X18901000Y33649000D02*
G01*
X16639000Y33649000D01*
X16639000Y34391000D01*
X18901000Y34391000D01*
X18901000Y33649000D01*
G37*
G36*
X46227063Y37986332D02*
G01*
X46302083Y37963575D01*
X46371220Y37926620D01*
X46436584Y37872977D01*
X47701405Y36608156D01*
X47755048Y36542792D01*
X47792003Y36473655D01*
X47814760Y36398635D01*
X47822443Y36320621D01*
X47814760Y36242607D01*
X47792003Y36167587D01*
X47755048Y36098450D01*
X47701405Y36033086D01*
X46966914Y35298595D01*
X46901550Y35244952D01*
X46832413Y35207997D01*
X46757393Y35185240D01*
X46679379Y35177557D01*
X46601365Y35185240D01*
X46526345Y35207997D01*
X46457208Y35244952D01*
X46391844Y35298595D01*
X45127023Y36563416D01*
X45073380Y36628780D01*
X45036425Y36697917D01*
X45013668Y36772937D01*
X45005985Y36850951D01*
X45013668Y36928965D01*
X45036425Y37003985D01*
X45073380Y37073122D01*
X45127023Y37138486D01*
X45861514Y37872977D01*
X45926878Y37926620D01*
X45996015Y37963575D01*
X46071035Y37986332D01*
X46149049Y37994015D01*
X46227063Y37986332D01*
G37*
G36*
X35772983Y39620313D02*
G01*
X35897242Y39582619D01*
X36011761Y39521407D01*
X36116904Y39435118D01*
X36156750Y39395272D01*
X36156761Y39395263D01*
X37324195Y38227829D01*
X37324204Y38227818D01*
X37364050Y38187972D01*
X37450339Y38082829D01*
X37511551Y37968310D01*
X37549245Y37844051D01*
X37561972Y37714823D01*
X37549245Y37585595D01*
X37511551Y37461336D01*
X37450339Y37346817D01*
X37364050Y37241674D01*
X37324204Y37201828D01*
X37324195Y37201817D01*
X36298183Y36175805D01*
X36298172Y36175796D01*
X36258326Y36135950D01*
X36153183Y36049661D01*
X36038664Y35988449D01*
X35914405Y35950755D01*
X35785177Y35938028D01*
X35655949Y35950755D01*
X35531690Y35988449D01*
X35417171Y36049661D01*
X35312028Y36135950D01*
X35272182Y36175796D01*
X35272171Y36175805D01*
X34104737Y37343239D01*
X34104728Y37343250D01*
X34064882Y37383096D01*
X33978593Y37488239D01*
X33917381Y37602758D01*
X33879687Y37727017D01*
X33866960Y37856245D01*
X33879687Y37985473D01*
X33917381Y38109732D01*
X33978593Y38224251D01*
X34064882Y38329394D01*
X34104728Y38369240D01*
X34104737Y38369251D01*
X35130749Y39395263D01*
X35130760Y39395272D01*
X35170606Y39435118D01*
X35275749Y39521407D01*
X35390268Y39582619D01*
X35514527Y39620313D01*
X35643755Y39633040D01*
X35772983Y39620313D01*
G37*
G36*
X15483642Y37770219D02*
G01*
X15587940Y37727017D01*
X15629416Y37709837D01*
X15760608Y37622178D01*
X15872178Y37510608D01*
X15957378Y37383096D01*
X15959838Y37379414D01*
X16020219Y37233642D01*
X16051000Y37078893D01*
X16051000Y36921107D01*
X16020219Y36766358D01*
X15981867Y36673769D01*
X15959837Y36620584D01*
X15872178Y36489392D01*
X15760608Y36377822D01*
X15629416Y36290163D01*
X15629415Y36290162D01*
X15629414Y36290162D01*
X15483642Y36229781D01*
X15328893Y36199000D01*
X15171107Y36199000D01*
X15016358Y36229781D01*
X14870586Y36290162D01*
X14870585Y36290162D01*
X14870584Y36290163D01*
X14739392Y36377822D01*
X14627822Y36489392D01*
X14540163Y36620584D01*
X14518133Y36673769D01*
X14479781Y36766358D01*
X14449000Y36921107D01*
X14449000Y37078893D01*
X14479781Y37233642D01*
X14540162Y37379414D01*
X14542622Y37383096D01*
X14627822Y37510608D01*
X14739392Y37622178D01*
X14870584Y37709837D01*
X14912060Y37727017D01*
X15016358Y37770219D01*
X15171107Y37801000D01*
X15328893Y37801000D01*
X15483642Y37770219D01*
G37*
G36*
X11983642Y37770219D02*
G01*
X12087940Y37727017D01*
X12129416Y37709837D01*
X12260608Y37622178D01*
X12372178Y37510608D01*
X12457378Y37383096D01*
X12459838Y37379414D01*
X12520219Y37233642D01*
X12551000Y37078893D01*
X12551000Y36921107D01*
X12520219Y36766358D01*
X12481867Y36673769D01*
X12459837Y36620584D01*
X12372178Y36489392D01*
X12260608Y36377822D01*
X12129416Y36290163D01*
X12129415Y36290162D01*
X12129414Y36290162D01*
X11983642Y36229781D01*
X11828893Y36199000D01*
X11671107Y36199000D01*
X11516358Y36229781D01*
X11370586Y36290162D01*
X11370585Y36290162D01*
X11370584Y36290163D01*
X11239392Y36377822D01*
X11127822Y36489392D01*
X11040163Y36620584D01*
X11018133Y36673769D01*
X10979781Y36766358D01*
X10949000Y36921107D01*
X10949000Y37078893D01*
X10979781Y37233642D01*
X11040162Y37379414D01*
X11042622Y37383096D01*
X11127822Y37510608D01*
X11239392Y37622178D01*
X11370584Y37709837D01*
X11412060Y37727017D01*
X11516358Y37770219D01*
X11671107Y37801000D01*
X11828893Y37801000D01*
X11983642Y37770219D01*
G37*
G36*
X43398635Y40814760D02*
G01*
X43473655Y40792003D01*
X43542792Y40755048D01*
X43608156Y40701405D01*
X44872977Y39436584D01*
X44926620Y39371220D01*
X44963575Y39302083D01*
X44986332Y39227063D01*
X44994015Y39149049D01*
X44986332Y39071035D01*
X44963575Y38996015D01*
X44926620Y38926878D01*
X44872977Y38861514D01*
X44138486Y38127023D01*
X44073122Y38073380D01*
X44003985Y38036425D01*
X43928965Y38013668D01*
X43850951Y38005985D01*
X43772937Y38013668D01*
X43697917Y38036425D01*
X43628780Y38073380D01*
X43563416Y38127023D01*
X42298595Y39391844D01*
X42244952Y39457208D01*
X42207997Y39526345D01*
X42185240Y39601365D01*
X42177557Y39679379D01*
X42185240Y39757393D01*
X42207997Y39832413D01*
X42244952Y39901550D01*
X42298595Y39966914D01*
X43033086Y40701405D01*
X43098450Y40755048D01*
X43167587Y40792003D01*
X43242607Y40814760D01*
X43320621Y40822443D01*
X43398635Y40814760D01*
G37*
G36*
X24908715Y39469844D02*
G01*
X24953155Y39456363D01*
X24994113Y39434470D01*
X25030011Y39405011D01*
X25059470Y39369113D01*
X25081363Y39328155D01*
X25094844Y39283715D01*
X25100000Y39231360D01*
X25100000Y38268640D01*
X25094844Y38216285D01*
X25081363Y38171845D01*
X25059470Y38130887D01*
X25030011Y38094989D01*
X24994113Y38065530D01*
X24953155Y38043637D01*
X24908715Y38030156D01*
X24856360Y38025000D01*
X24143640Y38025000D01*
X24091285Y38030156D01*
X24046845Y38043637D01*
X24005887Y38065530D01*
X23969989Y38094989D01*
X23940530Y38130887D01*
X23918637Y38171845D01*
X23905156Y38216285D01*
X23900000Y38268640D01*
X23900000Y39231360D01*
X23905156Y39283715D01*
X23918637Y39328155D01*
X23940530Y39369113D01*
X23969989Y39405011D01*
X24005887Y39434470D01*
X24046845Y39456363D01*
X24091285Y39469844D01*
X24143640Y39475000D01*
X24856360Y39475000D01*
X24908715Y39469844D01*
G37*
G36*
X26908715Y39469844D02*
G01*
X26953155Y39456363D01*
X26994113Y39434470D01*
X27030011Y39405011D01*
X27059470Y39369113D01*
X27081363Y39328155D01*
X27094844Y39283715D01*
X27100000Y39231360D01*
X27100000Y38268640D01*
X27094844Y38216285D01*
X27081363Y38171845D01*
X27059470Y38130887D01*
X27030011Y38094989D01*
X26994113Y38065530D01*
X26953155Y38043637D01*
X26908715Y38030156D01*
X26856360Y38025000D01*
X26143640Y38025000D01*
X26091285Y38030156D01*
X26046845Y38043637D01*
X26005887Y38065530D01*
X25969989Y38094989D01*
X25940530Y38130887D01*
X25918637Y38171845D01*
X25905156Y38216285D01*
X25900000Y38268640D01*
X25900000Y39231360D01*
X25905156Y39283715D01*
X25918637Y39328155D01*
X25940530Y39369113D01*
X25969989Y39405011D01*
X26005887Y39434470D01*
X26046845Y39456363D01*
X26091285Y39469844D01*
X26143640Y39475000D01*
X26856360Y39475000D01*
X26908715Y39469844D01*
G37*
G36*
X5438953Y43206767D02*
G01*
X5656301Y43163534D01*
X5889731Y43066844D01*
X6034357Y43006938D01*
X6065775Y42993924D01*
X6434292Y42747689D01*
X6747689Y42434292D01*
X6993924Y42065775D01*
X7163534Y41656301D01*
X7189143Y41527557D01*
X7250000Y41221607D01*
X7250000Y40778393D01*
X7245356Y40755048D01*
X7163534Y40343699D01*
X6993924Y39934225D01*
X6747689Y39565708D01*
X6434292Y39252311D01*
X6065775Y39006076D01*
X5656301Y38836466D01*
X5221607Y38750000D01*
X4778393Y38750000D01*
X4343699Y38836466D01*
X3934225Y39006076D01*
X3565708Y39252311D01*
X3252311Y39565708D01*
X3006076Y39934225D01*
X2836466Y40343699D01*
X2754644Y40755048D01*
X2750000Y40778393D01*
X2750000Y41221607D01*
X2810857Y41527557D01*
X2836466Y41656301D01*
X3006076Y42065775D01*
X3252311Y42434292D01*
X3565708Y42747689D01*
X3934225Y42993924D01*
X3965644Y43006938D01*
X4110269Y43066844D01*
X4343699Y43163534D01*
X4561047Y43206767D01*
X4778393Y43250000D01*
X5221607Y43250000D01*
X5438953Y43206767D01*
G37*
G36*
X49438953Y43206767D02*
G01*
X49656301Y43163534D01*
X49889731Y43066844D01*
X50034357Y43006938D01*
X50065775Y42993924D01*
X50434292Y42747689D01*
X50747689Y42434292D01*
X50993924Y42065775D01*
X51163534Y41656301D01*
X51189143Y41527557D01*
X51250000Y41221607D01*
X51250000Y40778393D01*
X51245356Y40755048D01*
X51163534Y40343699D01*
X50993924Y39934225D01*
X50747689Y39565708D01*
X50434292Y39252311D01*
X50065775Y39006076D01*
X49656301Y38836466D01*
X49221607Y38750000D01*
X48778393Y38750000D01*
X48343699Y38836466D01*
X47934225Y39006076D01*
X47565708Y39252311D01*
X47252311Y39565708D01*
X47006076Y39934225D01*
X46836466Y40343699D01*
X46754644Y40755048D01*
X46750000Y40778393D01*
X46750000Y41221607D01*
X46810857Y41527557D01*
X46836466Y41656301D01*
X47006076Y42065775D01*
X47252311Y42434292D01*
X47565708Y42747689D01*
X47934225Y42993924D01*
X47965644Y43006938D01*
X48110269Y43066844D01*
X48343699Y43163534D01*
X48561047Y43206767D01*
X48778393Y43250000D01*
X49221607Y43250000D01*
X49438953Y43206767D01*
G37*
G36*
X27045781Y41746705D02*
G01*
X27081816Y41735773D01*
X27115024Y41718023D01*
X27144134Y41694134D01*
X27168023Y41665024D01*
X27185773Y41631816D01*
X27196705Y41595781D01*
X27201000Y41552169D01*
X27201000Y40522831D01*
X27196705Y40479219D01*
X27185773Y40443184D01*
X27168023Y40409976D01*
X27144134Y40380866D01*
X27115024Y40356977D01*
X27081816Y40339227D01*
X27045781Y40328295D01*
X27002169Y40324000D01*
X25997831Y40324000D01*
X25954219Y40328295D01*
X25918184Y40339227D01*
X25884976Y40356977D01*
X25855866Y40380866D01*
X25831977Y40409976D01*
X25814227Y40443184D01*
X25803295Y40479219D01*
X25799000Y40522831D01*
X25799000Y41552169D01*
X25803295Y41595781D01*
X25814227Y41631816D01*
X25831977Y41665024D01*
X25855866Y41694134D01*
X25884976Y41718023D01*
X25918184Y41735773D01*
X25954219Y41746705D01*
X25997831Y41751000D01*
X27002169Y41751000D01*
X27045781Y41746705D01*
G37*
G36*
X29545781Y41746705D02*
G01*
X29581816Y41735773D01*
X29615024Y41718023D01*
X29644134Y41694134D01*
X29668023Y41665024D01*
X29685773Y41631816D01*
X29696705Y41595781D01*
X29701000Y41552169D01*
X29701000Y40522831D01*
X29696705Y40479219D01*
X29685773Y40443184D01*
X29668023Y40409976D01*
X29644134Y40380866D01*
X29615024Y40356977D01*
X29581816Y40339227D01*
X29545781Y40328295D01*
X29502169Y40324000D01*
X28497831Y40324000D01*
X28454219Y40328295D01*
X28418184Y40339227D01*
X28384976Y40356977D01*
X28355866Y40380866D01*
X28331977Y40409976D01*
X28314227Y40443184D01*
X28303295Y40479219D01*
X28299000Y40522831D01*
X28299000Y41552169D01*
X28303295Y41595781D01*
X28314227Y41631816D01*
X28331977Y41665024D01*
X28355866Y41694134D01*
X28384976Y41718023D01*
X28418184Y41735773D01*
X28454219Y41746705D01*
X28497831Y41751000D01*
X29502169Y41751000D01*
X29545781Y41746705D01*
G37*
G36*
X32033715Y41594844D02*
G01*
X32078155Y41581363D01*
X32119113Y41559470D01*
X32155011Y41530011D01*
X32184470Y41494113D01*
X32206363Y41453155D01*
X32219844Y41408715D01*
X32225000Y41356360D01*
X32225000Y40643640D01*
X32219844Y40591285D01*
X32206363Y40546845D01*
X32184470Y40505887D01*
X32155011Y40469989D01*
X32119113Y40440530D01*
X32078155Y40418637D01*
X32033715Y40405156D01*
X31981360Y40400000D01*
X31018640Y40400000D01*
X30966285Y40405156D01*
X30921845Y40418637D01*
X30880887Y40440530D01*
X30844989Y40469989D01*
X30815530Y40505887D01*
X30793637Y40546845D01*
X30780156Y40591285D01*
X30775000Y40643640D01*
X30775000Y41356360D01*
X30780156Y41408715D01*
X30793637Y41453155D01*
X30815530Y41494113D01*
X30844989Y41530011D01*
X30880887Y41559470D01*
X30921845Y41581363D01*
X30966285Y41594844D01*
X31018640Y41600000D01*
X31981360Y41600000D01*
X32033715Y41594844D01*
G37*
G36*
X39783715Y41594844D02*
G01*
X39828155Y41581363D01*
X39869113Y41559470D01*
X39905011Y41530011D01*
X39934470Y41494113D01*
X39956363Y41453155D01*
X39969844Y41408715D01*
X39975000Y41356360D01*
X39975000Y40643640D01*
X39969844Y40591285D01*
X39956363Y40546845D01*
X39934470Y40505887D01*
X39905011Y40469989D01*
X39869113Y40440530D01*
X39828155Y40418637D01*
X39783715Y40405156D01*
X39731360Y40400000D01*
X38768640Y40400000D01*
X38716285Y40405156D01*
X38671845Y40418637D01*
X38630887Y40440530D01*
X38594989Y40469989D01*
X38565530Y40505887D01*
X38543637Y40546845D01*
X38530156Y40591285D01*
X38525000Y40643640D01*
X38525000Y41356360D01*
X38530156Y41408715D01*
X38543637Y41453155D01*
X38565530Y41494113D01*
X38594989Y41530011D01*
X38630887Y41559470D01*
X38671845Y41581363D01*
X38716285Y41594844D01*
X38768640Y41600000D01*
X39731360Y41600000D01*
X39783715Y41594844D01*
G37*
G36*
X38033715Y41594844D02*
G01*
X38078155Y41581363D01*
X38119113Y41559470D01*
X38155011Y41530011D01*
X38184470Y41494113D01*
X38206363Y41453155D01*
X38219844Y41408715D01*
X38225000Y41356360D01*
X38225000Y40643640D01*
X38219844Y40591285D01*
X38206363Y40546845D01*
X38184470Y40505887D01*
X38155011Y40469989D01*
X38119113Y40440530D01*
X38078155Y40418637D01*
X38033715Y40405156D01*
X37981360Y40400000D01*
X37018640Y40400000D01*
X36966285Y40405156D01*
X36921845Y40418637D01*
X36880887Y40440530D01*
X36844989Y40469989D01*
X36815530Y40505887D01*
X36793637Y40546845D01*
X36780156Y40591285D01*
X36775000Y40643640D01*
X36775000Y41356360D01*
X36780156Y41408715D01*
X36793637Y41453155D01*
X36815530Y41494113D01*
X36844989Y41530011D01*
X36880887Y41559470D01*
X36921845Y41581363D01*
X36966285Y41594844D01*
X37018640Y41600000D01*
X37981360Y41600000D01*
X38033715Y41594844D01*
G37*
G36*
X36033715Y41594844D02*
G01*
X36078155Y41581363D01*
X36119113Y41559470D01*
X36155011Y41530011D01*
X36184470Y41494113D01*
X36206363Y41453155D01*
X36219844Y41408715D01*
X36225000Y41356360D01*
X36225000Y40643640D01*
X36219844Y40591285D01*
X36206363Y40546845D01*
X36184470Y40505887D01*
X36155011Y40469989D01*
X36119113Y40440530D01*
X36078155Y40418637D01*
X36033715Y40405156D01*
X35981360Y40400000D01*
X35018640Y40400000D01*
X34966285Y40405156D01*
X34921845Y40418637D01*
X34880887Y40440530D01*
X34844989Y40469989D01*
X34815530Y40505887D01*
X34793637Y40546845D01*
X34780156Y40591285D01*
X34775000Y40643640D01*
X34775000Y41356360D01*
X34780156Y41408715D01*
X34793637Y41453155D01*
X34815530Y41494113D01*
X34844989Y41530011D01*
X34880887Y41559470D01*
X34921845Y41581363D01*
X34966285Y41594844D01*
X35018640Y41600000D01*
X35981360Y41600000D01*
X36033715Y41594844D01*
G37*
G36*
X34033715Y41594844D02*
G01*
X34078155Y41581363D01*
X34119113Y41559470D01*
X34155011Y41530011D01*
X34184470Y41494113D01*
X34206363Y41453155D01*
X34219844Y41408715D01*
X34225000Y41356360D01*
X34225000Y40643640D01*
X34219844Y40591285D01*
X34206363Y40546845D01*
X34184470Y40505887D01*
X34155011Y40469989D01*
X34119113Y40440530D01*
X34078155Y40418637D01*
X34033715Y40405156D01*
X33981360Y40400000D01*
X33018640Y40400000D01*
X32966285Y40405156D01*
X32921845Y40418637D01*
X32880887Y40440530D01*
X32844989Y40469989D01*
X32815530Y40505887D01*
X32793637Y40546845D01*
X32780156Y40591285D01*
X32775000Y40643640D01*
X32775000Y41356360D01*
X32780156Y41408715D01*
X32793637Y41453155D01*
X32815530Y41494113D01*
X32844989Y41530011D01*
X32880887Y41559470D01*
X32921845Y41581363D01*
X32966285Y41594844D01*
X33018640Y41600000D01*
X33981360Y41600000D01*
X34033715Y41594844D01*
G37*
G36*
X41111938Y41593284D02*
G01*
X41132557Y41587029D01*
X41151553Y41576876D01*
X41168208Y41563208D01*
X41181876Y41546553D01*
X41192029Y41527557D01*
X41198284Y41506938D01*
X41201000Y41479360D01*
X41201000Y41020640D01*
X41198284Y40993062D01*
X41192029Y40972443D01*
X41181876Y40953447D01*
X41168208Y40936792D01*
X41151553Y40923124D01*
X41132557Y40912971D01*
X41111938Y40906716D01*
X41084360Y40904000D01*
X40415640Y40904000D01*
X40388062Y40906716D01*
X40367443Y40912971D01*
X40348447Y40923124D01*
X40331792Y40936792D01*
X40318124Y40953447D01*
X40307971Y40972443D01*
X40301716Y40993062D01*
X40299000Y41020640D01*
X40299000Y41479360D01*
X40301716Y41506938D01*
X40307971Y41527557D01*
X40318124Y41546553D01*
X40331792Y41563208D01*
X40348447Y41576876D01*
X40367443Y41587029D01*
X40388062Y41593284D01*
X40415640Y41596000D01*
X41084360Y41596000D01*
X41111938Y41593284D01*
G37*
G36*
X29545781Y43671705D02*
G01*
X29581816Y43660773D01*
X29615024Y43643023D01*
X29644134Y43619134D01*
X29668023Y43590024D01*
X29685773Y43556816D01*
X29696705Y43520781D01*
X29701000Y43477169D01*
X29701000Y42447831D01*
X29696705Y42404219D01*
X29685773Y42368184D01*
X29668023Y42334976D01*
X29644134Y42305866D01*
X29615024Y42281977D01*
X29581816Y42264227D01*
X29545781Y42253295D01*
X29502169Y42249000D01*
X28497831Y42249000D01*
X28454219Y42253295D01*
X28418184Y42264227D01*
X28384976Y42281977D01*
X28355866Y42305866D01*
X28331977Y42334976D01*
X28314227Y42368184D01*
X28303295Y42404219D01*
X28299000Y42447831D01*
X28299000Y43477169D01*
X28303295Y43520781D01*
X28314227Y43556816D01*
X28331977Y43590024D01*
X28355866Y43619134D01*
X28384976Y43643023D01*
X28418184Y43660773D01*
X28454219Y43671705D01*
X28497831Y43676000D01*
X29502169Y43676000D01*
X29545781Y43671705D01*
G37*
G36*
X27045781Y43671705D02*
G01*
X27081816Y43660773D01*
X27115024Y43643023D01*
X27144134Y43619134D01*
X27168023Y43590024D01*
X27185773Y43556816D01*
X27196705Y43520781D01*
X27201000Y43477169D01*
X27201000Y42447831D01*
X27196705Y42404219D01*
X27185773Y42368184D01*
X27168023Y42334976D01*
X27144134Y42305866D01*
X27115024Y42281977D01*
X27081816Y42264227D01*
X27045781Y42253295D01*
X27002169Y42249000D01*
X25997831Y42249000D01*
X25954219Y42253295D01*
X25918184Y42264227D01*
X25884976Y42281977D01*
X25855866Y42305866D01*
X25831977Y42334976D01*
X25814227Y42368184D01*
X25803295Y42404219D01*
X25799000Y42447831D01*
X25799000Y43477169D01*
X25803295Y43520781D01*
X25814227Y43556816D01*
X25831977Y43590024D01*
X25855866Y43619134D01*
X25884976Y43643023D01*
X25918184Y43660773D01*
X25954219Y43671705D01*
X25997831Y43676000D01*
X27002169Y43676000D01*
X27045781Y43671705D01*
G37*
G36*
X36033715Y43594844D02*
G01*
X36078155Y43581363D01*
X36119113Y43559470D01*
X36155011Y43530011D01*
X36184470Y43494113D01*
X36206363Y43453155D01*
X36219844Y43408715D01*
X36225000Y43356360D01*
X36225000Y42643640D01*
X36219844Y42591285D01*
X36206363Y42546845D01*
X36184470Y42505887D01*
X36155011Y42469989D01*
X36119113Y42440530D01*
X36078155Y42418637D01*
X36033715Y42405156D01*
X35981360Y42400000D01*
X35018640Y42400000D01*
X34966285Y42405156D01*
X34921845Y42418637D01*
X34880887Y42440530D01*
X34844989Y42469989D01*
X34815530Y42505887D01*
X34793637Y42546845D01*
X34780156Y42591285D01*
X34775000Y42643640D01*
X34775000Y43356360D01*
X34780156Y43408715D01*
X34793637Y43453155D01*
X34815530Y43494113D01*
X34844989Y43530011D01*
X34880887Y43559470D01*
X34921845Y43581363D01*
X34966285Y43594844D01*
X35018640Y43600000D01*
X35981360Y43600000D01*
X36033715Y43594844D01*
G37*
G36*
X39783715Y43594844D02*
G01*
X39828155Y43581363D01*
X39869113Y43559470D01*
X39905011Y43530011D01*
X39934470Y43494113D01*
X39956363Y43453155D01*
X39969844Y43408715D01*
X39975000Y43356360D01*
X39975000Y42643640D01*
X39969844Y42591285D01*
X39956363Y42546845D01*
X39934470Y42505887D01*
X39905011Y42469989D01*
X39869113Y42440530D01*
X39828155Y42418637D01*
X39783715Y42405156D01*
X39731360Y42400000D01*
X38768640Y42400000D01*
X38716285Y42405156D01*
X38671845Y42418637D01*
X38630887Y42440530D01*
X38594989Y42469989D01*
X38565530Y42505887D01*
X38543637Y42546845D01*
X38530156Y42591285D01*
X38525000Y42643640D01*
X38525000Y43356360D01*
X38530156Y43408715D01*
X38543637Y43453155D01*
X38565530Y43494113D01*
X38594989Y43530011D01*
X38630887Y43559470D01*
X38671845Y43581363D01*
X38716285Y43594844D01*
X38768640Y43600000D01*
X39731360Y43600000D01*
X39783715Y43594844D01*
G37*
G36*
X32033715Y43594844D02*
G01*
X32078155Y43581363D01*
X32119113Y43559470D01*
X32155011Y43530011D01*
X32184470Y43494113D01*
X32206363Y43453155D01*
X32219844Y43408715D01*
X32225000Y43356360D01*
X32225000Y42643640D01*
X32219844Y42591285D01*
X32206363Y42546845D01*
X32184470Y42505887D01*
X32155011Y42469989D01*
X32119113Y42440530D01*
X32078155Y42418637D01*
X32033715Y42405156D01*
X31981360Y42400000D01*
X31018640Y42400000D01*
X30966285Y42405156D01*
X30921845Y42418637D01*
X30880887Y42440530D01*
X30844989Y42469989D01*
X30815530Y42505887D01*
X30793637Y42546845D01*
X30780156Y42591285D01*
X30775000Y42643640D01*
X30775000Y43356360D01*
X30780156Y43408715D01*
X30793637Y43453155D01*
X30815530Y43494113D01*
X30844989Y43530011D01*
X30880887Y43559470D01*
X30921845Y43581363D01*
X30966285Y43594844D01*
X31018640Y43600000D01*
X31981360Y43600000D01*
X32033715Y43594844D01*
G37*
G36*
X38033715Y43594844D02*
G01*
X38078155Y43581363D01*
X38119113Y43559470D01*
X38155011Y43530011D01*
X38184470Y43494113D01*
X38206363Y43453155D01*
X38219844Y43408715D01*
X38225000Y43356360D01*
X38225000Y42643640D01*
X38219844Y42591285D01*
X38206363Y42546845D01*
X38184470Y42505887D01*
X38155011Y42469989D01*
X38119113Y42440530D01*
X38078155Y42418637D01*
X38033715Y42405156D01*
X37981360Y42400000D01*
X37018640Y42400000D01*
X36966285Y42405156D01*
X36921845Y42418637D01*
X36880887Y42440530D01*
X36844989Y42469989D01*
X36815530Y42505887D01*
X36793637Y42546845D01*
X36780156Y42591285D01*
X36775000Y42643640D01*
X36775000Y43356360D01*
X36780156Y43408715D01*
X36793637Y43453155D01*
X36815530Y43494113D01*
X36844989Y43530011D01*
X36880887Y43559470D01*
X36921845Y43581363D01*
X36966285Y43594844D01*
X37018640Y43600000D01*
X37981360Y43600000D01*
X38033715Y43594844D01*
G37*
G36*
X34033715Y43594844D02*
G01*
X34078155Y43581363D01*
X34119113Y43559470D01*
X34155011Y43530011D01*
X34184470Y43494113D01*
X34206363Y43453155D01*
X34219844Y43408715D01*
X34225000Y43356360D01*
X34225000Y42643640D01*
X34219844Y42591285D01*
X34206363Y42546845D01*
X34184470Y42505887D01*
X34155011Y42469989D01*
X34119113Y42440530D01*
X34078155Y42418637D01*
X34033715Y42405156D01*
X33981360Y42400000D01*
X33018640Y42400000D01*
X32966285Y42405156D01*
X32921845Y42418637D01*
X32880887Y42440530D01*
X32844989Y42469989D01*
X32815530Y42505887D01*
X32793637Y42546845D01*
X32780156Y42591285D01*
X32775000Y42643640D01*
X32775000Y43356360D01*
X32780156Y43408715D01*
X32793637Y43453155D01*
X32815530Y43494113D01*
X32844989Y43530011D01*
X32880887Y43559470D01*
X32921845Y43581363D01*
X32966285Y43594844D01*
X33018640Y43600000D01*
X33981360Y43600000D01*
X34033715Y43594844D01*
G37*
G36*
X41111938Y43093284D02*
G01*
X41132557Y43087029D01*
X41151553Y43076876D01*
X41168208Y43063208D01*
X41181876Y43046553D01*
X41192029Y43027557D01*
X41198284Y43006938D01*
X41201000Y42979360D01*
X41201000Y42520640D01*
X41198284Y42493062D01*
X41192029Y42472443D01*
X41181876Y42453447D01*
X41168208Y42436792D01*
X41151553Y42423124D01*
X41132557Y42412971D01*
X41111938Y42406716D01*
X41084360Y42404000D01*
X40415640Y42404000D01*
X40388062Y42406716D01*
X40367443Y42412971D01*
X40348447Y42423124D01*
X40331792Y42436792D01*
X40318124Y42453447D01*
X40307971Y42472443D01*
X40301716Y42493062D01*
X40299000Y42520640D01*
X40299000Y42979360D01*
X40301716Y43006938D01*
X40307971Y43027557D01*
X40318124Y43046553D01*
X40331792Y43063208D01*
X40348447Y43076876D01*
X40367443Y43087029D01*
X40388062Y43093284D01*
X40415640Y43096000D01*
X41084360Y43096000D01*
X41111938Y43093284D01*
G37*
G36*
X29045781Y50746705D02*
G01*
X29081816Y50735773D01*
X29115024Y50718023D01*
X29144134Y50694134D01*
X29168023Y50665024D01*
X29185773Y50631816D01*
X29196705Y50595781D01*
X29201000Y50552169D01*
X29201000Y49522831D01*
X29196705Y49479219D01*
X29185773Y49443184D01*
X29168023Y49409976D01*
X29144134Y49380866D01*
X29115024Y49356977D01*
X29081816Y49339227D01*
X29045781Y49328295D01*
X29002169Y49324000D01*
X27997831Y49324000D01*
X27954219Y49328295D01*
X27918184Y49339227D01*
X27884976Y49356977D01*
X27855866Y49380866D01*
X27831977Y49409976D01*
X27814227Y49443184D01*
X27803295Y49479219D01*
X27799000Y49522831D01*
X27799000Y50552169D01*
X27803295Y50595781D01*
X27814227Y50631816D01*
X27831977Y50665024D01*
X27855866Y50694134D01*
X27884976Y50718023D01*
X27918184Y50735773D01*
X27954219Y50746705D01*
X27997831Y50751000D01*
X29002169Y50751000D01*
X29045781Y50746705D01*
G37*
G36*
X26545781Y50746705D02*
G01*
X26581816Y50735773D01*
X26615024Y50718023D01*
X26644134Y50694134D01*
X26668023Y50665024D01*
X26685773Y50631816D01*
X26696705Y50595781D01*
X26701000Y50552169D01*
X26701000Y49522831D01*
X26696705Y49479219D01*
X26685773Y49443184D01*
X26668023Y49409976D01*
X26644134Y49380866D01*
X26615024Y49356977D01*
X26581816Y49339227D01*
X26545781Y49328295D01*
X26502169Y49324000D01*
X25497831Y49324000D01*
X25454219Y49328295D01*
X25418184Y49339227D01*
X25384976Y49356977D01*
X25355866Y49380866D01*
X25331977Y49409976D01*
X25314227Y49443184D01*
X25303295Y49479219D01*
X25299000Y49522831D01*
X25299000Y50552169D01*
X25303295Y50595781D01*
X25314227Y50631816D01*
X25331977Y50665024D01*
X25355866Y50694134D01*
X25384976Y50718023D01*
X25418184Y50735773D01*
X25454219Y50746705D01*
X25497831Y50751000D01*
X26502169Y50751000D01*
X26545781Y50746705D01*
G37*
G36*
X24033715Y50594844D02*
G01*
X24078155Y50581363D01*
X24119113Y50559470D01*
X24155011Y50530011D01*
X24184470Y50494113D01*
X24206363Y50453155D01*
X24219844Y50408715D01*
X24225000Y50356360D01*
X24225000Y49643640D01*
X24219844Y49591285D01*
X24206363Y49546845D01*
X24184470Y49505887D01*
X24155011Y49469989D01*
X24119113Y49440530D01*
X24078155Y49418637D01*
X24033715Y49405156D01*
X23981360Y49400000D01*
X23018640Y49400000D01*
X22966285Y49405156D01*
X22921845Y49418637D01*
X22880887Y49440530D01*
X22844989Y49469989D01*
X22815530Y49505887D01*
X22793637Y49546845D01*
X22780156Y49591285D01*
X22775000Y49643640D01*
X22775000Y50356360D01*
X22780156Y50408715D01*
X22793637Y50453155D01*
X22815530Y50494113D01*
X22844989Y50530011D01*
X22880887Y50559470D01*
X22921845Y50581363D01*
X22966285Y50594844D01*
X23018640Y50600000D01*
X23981360Y50600000D01*
X24033715Y50594844D01*
G37*
G36*
X20033715Y50594844D02*
G01*
X20078155Y50581363D01*
X20119113Y50559470D01*
X20155011Y50530011D01*
X20184470Y50494113D01*
X20206363Y50453155D01*
X20219844Y50408715D01*
X20225000Y50356360D01*
X20225000Y49643640D01*
X20219844Y49591285D01*
X20206363Y49546845D01*
X20184470Y49505887D01*
X20155011Y49469989D01*
X20119113Y49440530D01*
X20078155Y49418637D01*
X20033715Y49405156D01*
X19981360Y49400000D01*
X19018640Y49400000D01*
X18966285Y49405156D01*
X18921845Y49418637D01*
X18880887Y49440530D01*
X18844989Y49469989D01*
X18815530Y49505887D01*
X18793637Y49546845D01*
X18780156Y49591285D01*
X18775000Y49643640D01*
X18775000Y50356360D01*
X18780156Y50408715D01*
X18793637Y50453155D01*
X18815530Y50494113D01*
X18844989Y50530011D01*
X18880887Y50559470D01*
X18921845Y50581363D01*
X18966285Y50594844D01*
X19018640Y50600000D01*
X19981360Y50600000D01*
X20033715Y50594844D01*
G37*
G36*
X16283715Y50594844D02*
G01*
X16328155Y50581363D01*
X16369113Y50559470D01*
X16405011Y50530011D01*
X16434470Y50494113D01*
X16456363Y50453155D01*
X16469844Y50408715D01*
X16475000Y50356360D01*
X16475000Y49643640D01*
X16469844Y49591285D01*
X16456363Y49546845D01*
X16434470Y49505887D01*
X16405011Y49469989D01*
X16369113Y49440530D01*
X16328155Y49418637D01*
X16283715Y49405156D01*
X16231360Y49400000D01*
X15268640Y49400000D01*
X15216285Y49405156D01*
X15171845Y49418637D01*
X15130887Y49440530D01*
X15094989Y49469989D01*
X15065530Y49505887D01*
X15043637Y49546845D01*
X15030156Y49591285D01*
X15025000Y49643640D01*
X15025000Y50356360D01*
X15030156Y50408715D01*
X15043637Y50453155D01*
X15065530Y50494113D01*
X15094989Y50530011D01*
X15130887Y50559470D01*
X15171845Y50581363D01*
X15216285Y50594844D01*
X15268640Y50600000D01*
X16231360Y50600000D01*
X16283715Y50594844D01*
G37*
G36*
X18033715Y50594844D02*
G01*
X18078155Y50581363D01*
X18119113Y50559470D01*
X18155011Y50530011D01*
X18184470Y50494113D01*
X18206363Y50453155D01*
X18219844Y50408715D01*
X18225000Y50356360D01*
X18225000Y49643640D01*
X18219844Y49591285D01*
X18206363Y49546845D01*
X18184470Y49505887D01*
X18155011Y49469989D01*
X18119113Y49440530D01*
X18078155Y49418637D01*
X18033715Y49405156D01*
X17981360Y49400000D01*
X17018640Y49400000D01*
X16966285Y49405156D01*
X16921845Y49418637D01*
X16880887Y49440530D01*
X16844989Y49469989D01*
X16815530Y49505887D01*
X16793637Y49546845D01*
X16780156Y49591285D01*
X16775000Y49643640D01*
X16775000Y50356360D01*
X16780156Y50408715D01*
X16793637Y50453155D01*
X16815530Y50494113D01*
X16844989Y50530011D01*
X16880887Y50559470D01*
X16921845Y50581363D01*
X16966285Y50594844D01*
X17018640Y50600000D01*
X17981360Y50600000D01*
X18033715Y50594844D01*
G37*
G36*
X22033715Y50594844D02*
G01*
X22078155Y50581363D01*
X22119113Y50559470D01*
X22155011Y50530011D01*
X22184470Y50494113D01*
X22206363Y50453155D01*
X22219844Y50408715D01*
X22225000Y50356360D01*
X22225000Y49643640D01*
X22219844Y49591285D01*
X22206363Y49546845D01*
X22184470Y49505887D01*
X22155011Y49469989D01*
X22119113Y49440530D01*
X22078155Y49418637D01*
X22033715Y49405156D01*
X21981360Y49400000D01*
X21018640Y49400000D01*
X20966285Y49405156D01*
X20921845Y49418637D01*
X20880887Y49440530D01*
X20844989Y49469989D01*
X20815530Y49505887D01*
X20793637Y49546845D01*
X20780156Y49591285D01*
X20775000Y49643640D01*
X20775000Y50356360D01*
X20780156Y50408715D01*
X20793637Y50453155D01*
X20815530Y50494113D01*
X20844989Y50530011D01*
X20880887Y50559470D01*
X20921845Y50581363D01*
X20966285Y50594844D01*
X21018640Y50600000D01*
X21981360Y50600000D01*
X22033715Y50594844D01*
G37*
G36*
X6656301Y54163534D02*
G01*
X7065775Y53993924D01*
X7434292Y53747689D01*
X7747689Y53434292D01*
X7993924Y53065775D01*
X8163534Y52656301D01*
X8192211Y52512132D01*
X8246723Y52238084D01*
X8250000Y52221606D01*
X8250000Y51778394D01*
X8163534Y51343699D01*
X7993924Y50934225D01*
X7747689Y50565708D01*
X7434292Y50252311D01*
X7065775Y50006076D01*
X7065774Y50006075D01*
X7065773Y50006075D01*
X7004961Y49980886D01*
X6656301Y49836466D01*
X6221607Y49750000D01*
X5778393Y49750000D01*
X5343699Y49836466D01*
X4995039Y49980886D01*
X4934227Y50006075D01*
X4934226Y50006075D01*
X4934225Y50006076D01*
X4565708Y50252311D01*
X4252311Y50565708D01*
X4006076Y50934225D01*
X3836466Y51343699D01*
X3750000Y51778394D01*
X3750000Y52221606D01*
X3753278Y52238084D01*
X3807789Y52512132D01*
X3836466Y52656301D01*
X4006076Y53065775D01*
X4252311Y53434292D01*
X4565708Y53747689D01*
X4934225Y53993924D01*
X5343699Y54163534D01*
X5778393Y54250000D01*
X6221607Y54250000D01*
X6656301Y54163534D01*
G37*
G36*
X50656301Y54163534D02*
G01*
X51065775Y53993924D01*
X51434292Y53747689D01*
X51747689Y53434292D01*
X51993924Y53065775D01*
X52163534Y52656301D01*
X52192211Y52512132D01*
X52246723Y52238084D01*
X52250000Y52221606D01*
X52250000Y51778394D01*
X52163534Y51343699D01*
X51993924Y50934225D01*
X51747689Y50565708D01*
X51434292Y50252311D01*
X51065775Y50006076D01*
X51065774Y50006075D01*
X51065773Y50006075D01*
X51004961Y49980886D01*
X50656301Y49836466D01*
X50221607Y49750000D01*
X49778393Y49750000D01*
X49343699Y49836466D01*
X48995039Y49980886D01*
X48934227Y50006075D01*
X48934226Y50006075D01*
X48934225Y50006076D01*
X48565708Y50252311D01*
X48252311Y50565708D01*
X48006076Y50934225D01*
X47836466Y51343699D01*
X47750000Y51778394D01*
X47750000Y52221606D01*
X47753278Y52238084D01*
X47807789Y52512132D01*
X47836466Y52656301D01*
X48006076Y53065775D01*
X48252311Y53434292D01*
X48565708Y53747689D01*
X48934225Y53993924D01*
X49343699Y54163534D01*
X49778393Y54250000D01*
X50221607Y54250000D01*
X50656301Y54163534D01*
G37*
G36*
X14611938Y50593284D02*
G01*
X14632557Y50587029D01*
X14651553Y50576876D01*
X14668208Y50563208D01*
X14681876Y50546553D01*
X14692029Y50527557D01*
X14698284Y50506938D01*
X14701000Y50479360D01*
X14701000Y50020640D01*
X14698284Y49993062D01*
X14692029Y49972443D01*
X14681876Y49953447D01*
X14668208Y49936792D01*
X14651553Y49923124D01*
X14632557Y49912971D01*
X14611938Y49906716D01*
X14584360Y49904000D01*
X13915640Y49904000D01*
X13888062Y49906716D01*
X13867443Y49912971D01*
X13848447Y49923124D01*
X13831792Y49936792D01*
X13818124Y49953447D01*
X13807971Y49972443D01*
X13801716Y49993062D01*
X13799000Y50020640D01*
X13799000Y50479360D01*
X13801716Y50506938D01*
X13807971Y50527557D01*
X13818124Y50546553D01*
X13831792Y50563208D01*
X13848447Y50576876D01*
X13867443Y50587029D01*
X13888062Y50593284D01*
X13915640Y50596000D01*
X14584360Y50596000D01*
X14611938Y50593284D01*
G37*
G36*
X29045781Y52671705D02*
G01*
X29081816Y52660773D01*
X29115024Y52643023D01*
X29144134Y52619134D01*
X29168023Y52590024D01*
X29185773Y52556816D01*
X29196705Y52520781D01*
X29201000Y52477169D01*
X29201000Y51447831D01*
X29196705Y51404219D01*
X29185773Y51368184D01*
X29168023Y51334976D01*
X29144134Y51305866D01*
X29115024Y51281977D01*
X29081816Y51264227D01*
X29045781Y51253295D01*
X29002169Y51249000D01*
X27997831Y51249000D01*
X27954219Y51253295D01*
X27918184Y51264227D01*
X27884976Y51281977D01*
X27855866Y51305866D01*
X27831977Y51334976D01*
X27814227Y51368184D01*
X27803295Y51404219D01*
X27799000Y51447831D01*
X27799000Y52477169D01*
X27803295Y52520781D01*
X27814227Y52556816D01*
X27831977Y52590024D01*
X27855866Y52619134D01*
X27884976Y52643023D01*
X27918184Y52660773D01*
X27954219Y52671705D01*
X27997831Y52676000D01*
X29002169Y52676000D01*
X29045781Y52671705D01*
G37*
G36*
X26545781Y52671705D02*
G01*
X26581816Y52660773D01*
X26615024Y52643023D01*
X26644134Y52619134D01*
X26668023Y52590024D01*
X26685773Y52556816D01*
X26696705Y52520781D01*
X26701000Y52477169D01*
X26701000Y51447831D01*
X26696705Y51404219D01*
X26685773Y51368184D01*
X26668023Y51334976D01*
X26644134Y51305866D01*
X26615024Y51281977D01*
X26581816Y51264227D01*
X26545781Y51253295D01*
X26502169Y51249000D01*
X25497831Y51249000D01*
X25454219Y51253295D01*
X25418184Y51264227D01*
X25384976Y51281977D01*
X25355866Y51305866D01*
X25331977Y51334976D01*
X25314227Y51368184D01*
X25303295Y51404219D01*
X25299000Y51447831D01*
X25299000Y52477169D01*
X25303295Y52520781D01*
X25314227Y52556816D01*
X25331977Y52590024D01*
X25355866Y52619134D01*
X25384976Y52643023D01*
X25418184Y52660773D01*
X25454219Y52671705D01*
X25497831Y52676000D01*
X26502169Y52676000D01*
X26545781Y52671705D01*
G37*
G36*
X20033715Y52594844D02*
G01*
X20078155Y52581363D01*
X20119113Y52559470D01*
X20155011Y52530011D01*
X20184470Y52494113D01*
X20206363Y52453155D01*
X20219844Y52408715D01*
X20225000Y52356360D01*
X20225000Y51643640D01*
X20219844Y51591285D01*
X20206363Y51546845D01*
X20184470Y51505887D01*
X20155011Y51469989D01*
X20119113Y51440530D01*
X20078155Y51418637D01*
X20033715Y51405156D01*
X19981360Y51400000D01*
X19018640Y51400000D01*
X18966285Y51405156D01*
X18921845Y51418637D01*
X18880887Y51440530D01*
X18844989Y51469989D01*
X18815530Y51505887D01*
X18793637Y51546845D01*
X18780156Y51591285D01*
X18775000Y51643640D01*
X18775000Y52356360D01*
X18780156Y52408715D01*
X18793637Y52453155D01*
X18815530Y52494113D01*
X18844989Y52530011D01*
X18880887Y52559470D01*
X18921845Y52581363D01*
X18966285Y52594844D01*
X19018640Y52600000D01*
X19981360Y52600000D01*
X20033715Y52594844D01*
G37*
G36*
X18033715Y52594844D02*
G01*
X18078155Y52581363D01*
X18119113Y52559470D01*
X18155011Y52530011D01*
X18184470Y52494113D01*
X18206363Y52453155D01*
X18219844Y52408715D01*
X18225000Y52356360D01*
X18225000Y51643640D01*
X18219844Y51591285D01*
X18206363Y51546845D01*
X18184470Y51505887D01*
X18155011Y51469989D01*
X18119113Y51440530D01*
X18078155Y51418637D01*
X18033715Y51405156D01*
X17981360Y51400000D01*
X17018640Y51400000D01*
X16966285Y51405156D01*
X16921845Y51418637D01*
X16880887Y51440530D01*
X16844989Y51469989D01*
X16815530Y51505887D01*
X16793637Y51546845D01*
X16780156Y51591285D01*
X16775000Y51643640D01*
X16775000Y52356360D01*
X16780156Y52408715D01*
X16793637Y52453155D01*
X16815530Y52494113D01*
X16844989Y52530011D01*
X16880887Y52559470D01*
X16921845Y52581363D01*
X16966285Y52594844D01*
X17018640Y52600000D01*
X17981360Y52600000D01*
X18033715Y52594844D01*
G37*
G36*
X16283715Y52594844D02*
G01*
X16328155Y52581363D01*
X16369113Y52559470D01*
X16405011Y52530011D01*
X16434470Y52494113D01*
X16456363Y52453155D01*
X16469844Y52408715D01*
X16475000Y52356360D01*
X16475000Y51643640D01*
X16469844Y51591285D01*
X16456363Y51546845D01*
X16434470Y51505887D01*
X16405011Y51469989D01*
X16369113Y51440530D01*
X16328155Y51418637D01*
X16283715Y51405156D01*
X16231360Y51400000D01*
X15268640Y51400000D01*
X15216285Y51405156D01*
X15171845Y51418637D01*
X15130887Y51440530D01*
X15094989Y51469989D01*
X15065530Y51505887D01*
X15043637Y51546845D01*
X15030156Y51591285D01*
X15025000Y51643640D01*
X15025000Y52356360D01*
X15030156Y52408715D01*
X15043637Y52453155D01*
X15065530Y52494113D01*
X15094989Y52530011D01*
X15130887Y52559470D01*
X15171845Y52581363D01*
X15216285Y52594844D01*
X15268640Y52600000D01*
X16231360Y52600000D01*
X16283715Y52594844D01*
G37*
G36*
X22033715Y52594844D02*
G01*
X22078155Y52581363D01*
X22119113Y52559470D01*
X22155011Y52530011D01*
X22184470Y52494113D01*
X22206363Y52453155D01*
X22219844Y52408715D01*
X22225000Y52356360D01*
X22225000Y51643640D01*
X22219844Y51591285D01*
X22206363Y51546845D01*
X22184470Y51505887D01*
X22155011Y51469989D01*
X22119113Y51440530D01*
X22078155Y51418637D01*
X22033715Y51405156D01*
X21981360Y51400000D01*
X21018640Y51400000D01*
X20966285Y51405156D01*
X20921845Y51418637D01*
X20880887Y51440530D01*
X20844989Y51469989D01*
X20815530Y51505887D01*
X20793637Y51546845D01*
X20780156Y51591285D01*
X20775000Y51643640D01*
X20775000Y52356360D01*
X20780156Y52408715D01*
X20793637Y52453155D01*
X20815530Y52494113D01*
X20844989Y52530011D01*
X20880887Y52559470D01*
X20921845Y52581363D01*
X20966285Y52594844D01*
X21018640Y52600000D01*
X21981360Y52600000D01*
X22033715Y52594844D01*
G37*
G36*
X24033715Y52594844D02*
G01*
X24078155Y52581363D01*
X24119113Y52559470D01*
X24155011Y52530011D01*
X24184470Y52494113D01*
X24206363Y52453155D01*
X24219844Y52408715D01*
X24225000Y52356360D01*
X24225000Y51643640D01*
X24219844Y51591285D01*
X24206363Y51546845D01*
X24184470Y51505887D01*
X24155011Y51469989D01*
X24119113Y51440530D01*
X24078155Y51418637D01*
X24033715Y51405156D01*
X23981360Y51400000D01*
X23018640Y51400000D01*
X22966285Y51405156D01*
X22921845Y51418637D01*
X22880887Y51440530D01*
X22844989Y51469989D01*
X22815530Y51505887D01*
X22793637Y51546845D01*
X22780156Y51591285D01*
X22775000Y51643640D01*
X22775000Y52356360D01*
X22780156Y52408715D01*
X22793637Y52453155D01*
X22815530Y52494113D01*
X22844989Y52530011D01*
X22880887Y52559470D01*
X22921845Y52581363D01*
X22966285Y52594844D01*
X23018640Y52600000D01*
X23981360Y52600000D01*
X24033715Y52594844D01*
G37*
G36*
X14611938Y52093284D02*
G01*
X14632557Y52087029D01*
X14651553Y52076876D01*
X14668208Y52063208D01*
X14681876Y52046553D01*
X14692029Y52027557D01*
X14698284Y52006938D01*
X14701000Y51979360D01*
X14701000Y51520640D01*
X14698284Y51493062D01*
X14692029Y51472443D01*
X14681876Y51453447D01*
X14668208Y51436792D01*
X14651553Y51423124D01*
X14632557Y51412971D01*
X14611938Y51406716D01*
X14584360Y51404000D01*
X13915640Y51404000D01*
X13888062Y51406716D01*
X13867443Y51412971D01*
X13848447Y51423124D01*
X13831792Y51436792D01*
X13818124Y51453447D01*
X13807971Y51472443D01*
X13801716Y51493062D01*
X13799000Y51520640D01*
X13799000Y51979360D01*
X13801716Y52006938D01*
X13807971Y52027557D01*
X13818124Y52046553D01*
X13831792Y52063208D01*
X13848447Y52076876D01*
X13867443Y52087029D01*
X13888062Y52093284D01*
X13915640Y52096000D01*
X14584360Y52096000D01*
X14611938Y52093284D01*
G37*
G36*
X11227063Y54986332D02*
G01*
X11302083Y54963575D01*
X11371220Y54926620D01*
X11436584Y54872977D01*
X12701405Y53608156D01*
X12755048Y53542792D01*
X12792003Y53473655D01*
X12814760Y53398635D01*
X12822443Y53320621D01*
X12814760Y53242607D01*
X12792003Y53167587D01*
X12755048Y53098450D01*
X12701405Y53033086D01*
X11966914Y52298595D01*
X11901550Y52244952D01*
X11832413Y52207997D01*
X11757393Y52185240D01*
X11679379Y52177557D01*
X11601365Y52185240D01*
X11526345Y52207997D01*
X11457208Y52244952D01*
X11391844Y52298595D01*
X10127023Y53563416D01*
X10073380Y53628780D01*
X10036425Y53697917D01*
X10013668Y53772937D01*
X10005985Y53850951D01*
X10013668Y53928965D01*
X10036425Y54003985D01*
X10073380Y54073122D01*
X10127023Y54138486D01*
X10861514Y54872977D01*
X10926878Y54926620D01*
X10996015Y54963575D01*
X11071035Y54986332D01*
X11149049Y54994015D01*
X11227063Y54986332D01*
G37*
G36*
X19344051Y57049245D02*
G01*
X19468310Y57011551D01*
X19582829Y56950339D01*
X19687972Y56864050D01*
X19727818Y56824204D01*
X19727829Y56824195D01*
X20895263Y55656761D01*
X20895272Y55656750D01*
X20935118Y55616904D01*
X21021407Y55511761D01*
X21082619Y55397242D01*
X21120313Y55272983D01*
X21133040Y55143755D01*
X21120313Y55014527D01*
X21082619Y54890268D01*
X21021407Y54775749D01*
X20935118Y54670606D01*
X20895272Y54630760D01*
X20895263Y54630749D01*
X19869251Y53604737D01*
X19869240Y53604728D01*
X19829394Y53564882D01*
X19724251Y53478593D01*
X19609732Y53417381D01*
X19485473Y53379687D01*
X19356245Y53366960D01*
X19227017Y53379687D01*
X19102758Y53417381D01*
X18988239Y53478593D01*
X18883096Y53564882D01*
X18843250Y53604728D01*
X18843239Y53604737D01*
X17675805Y54772171D01*
X17675796Y54772182D01*
X17635950Y54812028D01*
X17549661Y54917171D01*
X17488449Y55031690D01*
X17450755Y55155949D01*
X17438028Y55285177D01*
X17450755Y55414405D01*
X17488449Y55538664D01*
X17549661Y55653183D01*
X17635950Y55758326D01*
X17675796Y55798172D01*
X17675805Y55798183D01*
X18701817Y56824195D01*
X18701828Y56824204D01*
X18741674Y56864050D01*
X18846817Y56950339D01*
X18961336Y57011551D01*
X19085595Y57049245D01*
X19214823Y57061972D01*
X19344051Y57049245D01*
G37*
G36*
X30908715Y54969844D02*
G01*
X30953155Y54956363D01*
X30994113Y54934470D01*
X31030011Y54905011D01*
X31059470Y54869113D01*
X31081363Y54828155D01*
X31094844Y54783715D01*
X31100000Y54731360D01*
X31100000Y53768640D01*
X31094844Y53716285D01*
X31081363Y53671845D01*
X31059470Y53630887D01*
X31030011Y53594989D01*
X30994113Y53565530D01*
X30953155Y53543637D01*
X30908715Y53530156D01*
X30856360Y53525000D01*
X30143640Y53525000D01*
X30091285Y53530156D01*
X30046845Y53543637D01*
X30005887Y53565530D01*
X29969989Y53594989D01*
X29940530Y53630887D01*
X29918637Y53671845D01*
X29905156Y53716285D01*
X29900000Y53768640D01*
X29900000Y54731360D01*
X29905156Y54783715D01*
X29918637Y54828155D01*
X29940530Y54869113D01*
X29969989Y54905011D01*
X30005887Y54934470D01*
X30046845Y54956363D01*
X30091285Y54969844D01*
X30143640Y54975000D01*
X30856360Y54975000D01*
X30908715Y54969844D01*
G37*
G36*
X28908715Y54969844D02*
G01*
X28953155Y54956363D01*
X28994113Y54934470D01*
X29030011Y54905011D01*
X29059470Y54869113D01*
X29081363Y54828155D01*
X29094844Y54783715D01*
X29100000Y54731360D01*
X29100000Y53768640D01*
X29094844Y53716285D01*
X29081363Y53671845D01*
X29059470Y53630887D01*
X29030011Y53594989D01*
X28994113Y53565530D01*
X28953155Y53543637D01*
X28908715Y53530156D01*
X28856360Y53525000D01*
X28143640Y53525000D01*
X28091285Y53530156D01*
X28046845Y53543637D01*
X28005887Y53565530D01*
X27969989Y53594989D01*
X27940530Y53630887D01*
X27918637Y53671845D01*
X27905156Y53716285D01*
X27900000Y53768640D01*
X27900000Y54731360D01*
X27905156Y54783715D01*
X27918637Y54828155D01*
X27940530Y54869113D01*
X27969989Y54905011D01*
X28005887Y54934470D01*
X28046845Y54956363D01*
X28091285Y54969844D01*
X28143640Y54975000D01*
X28856360Y54975000D01*
X28908715Y54969844D01*
G37*
G36*
X8398635Y57814760D02*
G01*
X8473655Y57792003D01*
X8542792Y57755048D01*
X8608156Y57701405D01*
X9872977Y56436584D01*
X9926620Y56371220D01*
X9963575Y56302083D01*
X9986332Y56227063D01*
X9994015Y56149049D01*
X9986332Y56071035D01*
X9963575Y55996015D01*
X9926620Y55926878D01*
X9872977Y55861514D01*
X9138486Y55127023D01*
X9073122Y55073380D01*
X9003985Y55036425D01*
X8928965Y55013668D01*
X8850951Y55005985D01*
X8772937Y55013668D01*
X8697917Y55036425D01*
X8628780Y55073380D01*
X8563416Y55127023D01*
X7298595Y56391844D01*
X7244952Y56457208D01*
X7207997Y56526345D01*
X7185240Y56601365D01*
X7177557Y56679379D01*
X7185240Y56757393D01*
X7207997Y56832413D01*
X7244952Y56901550D01*
X7298595Y56966914D01*
X8033086Y57701405D01*
X8098450Y57755048D01*
X8167587Y57792003D01*
X8242607Y57814760D01*
X8320621Y57822443D01*
X8398635Y57814760D01*
G37*
G36*
X43483642Y56770219D02*
G01*
X43629414Y56709838D01*
X43629416Y56709837D01*
X43760608Y56622178D01*
X43872178Y56510608D01*
X43951533Y56391844D01*
X43959838Y56379414D01*
X44020219Y56233642D01*
X44051000Y56078893D01*
X44051000Y55921107D01*
X44020219Y55766358D01*
X43974822Y55656761D01*
X43959837Y55620584D01*
X43872178Y55489392D01*
X43760608Y55377822D01*
X43629416Y55290163D01*
X43629415Y55290162D01*
X43629414Y55290162D01*
X43483642Y55229781D01*
X43328893Y55199000D01*
X43171107Y55199000D01*
X43016358Y55229781D01*
X42870586Y55290162D01*
X42870585Y55290162D01*
X42870584Y55290163D01*
X42739392Y55377822D01*
X42627822Y55489392D01*
X42540163Y55620584D01*
X42525178Y55656761D01*
X42479781Y55766358D01*
X42449000Y55921107D01*
X42449000Y56078893D01*
X42479781Y56233642D01*
X42540162Y56379414D01*
X42548467Y56391844D01*
X42627822Y56510608D01*
X42739392Y56622178D01*
X42870584Y56709837D01*
X42870586Y56709838D01*
X43016358Y56770219D01*
X43171107Y56801000D01*
X43328893Y56801000D01*
X43483642Y56770219D01*
G37*
G36*
X39983642Y56770219D02*
G01*
X40129414Y56709838D01*
X40129416Y56709837D01*
X40260608Y56622178D01*
X40372178Y56510608D01*
X40451533Y56391844D01*
X40459838Y56379414D01*
X40520219Y56233642D01*
X40551000Y56078893D01*
X40551000Y55921107D01*
X40520219Y55766358D01*
X40474822Y55656761D01*
X40459837Y55620584D01*
X40372178Y55489392D01*
X40260608Y55377822D01*
X40129416Y55290163D01*
X40129415Y55290162D01*
X40129414Y55290162D01*
X39983642Y55229781D01*
X39828893Y55199000D01*
X39671107Y55199000D01*
X39516358Y55229781D01*
X39370586Y55290162D01*
X39370585Y55290162D01*
X39370584Y55290163D01*
X39239392Y55377822D01*
X39127822Y55489392D01*
X39040163Y55620584D01*
X39025178Y55656761D01*
X38979781Y55766358D01*
X38949000Y55921107D01*
X38949000Y56078893D01*
X38979781Y56233642D01*
X39040162Y56379414D01*
X39048467Y56391844D01*
X39127822Y56510608D01*
X39239392Y56622178D01*
X39370584Y56709837D01*
X39370586Y56709838D01*
X39516358Y56770219D01*
X39671107Y56801000D01*
X39828893Y56801000D01*
X39983642Y56770219D01*
G37*
G36*
X30572798Y59396753D02*
G01*
X30608367Y59385963D01*
X30641139Y59368446D01*
X30669869Y59344869D01*
X30693446Y59316139D01*
X30710963Y59283367D01*
X30721753Y59247798D01*
X30726000Y59204675D01*
X30726000Y57920325D01*
X30721753Y57877202D01*
X30710963Y57841633D01*
X30693446Y57808861D01*
X30669869Y57780131D01*
X30641139Y57756554D01*
X30608367Y57739037D01*
X30572798Y57728247D01*
X30529675Y57724000D01*
X29470325Y57724000D01*
X29427202Y57728247D01*
X29391633Y57739037D01*
X29358861Y57756554D01*
X29330131Y57780131D01*
X29306554Y57808861D01*
X29289037Y57841633D01*
X29278247Y57877202D01*
X29274000Y57920325D01*
X29274000Y59204675D01*
X29278247Y59247798D01*
X29289037Y59283367D01*
X29306554Y59316139D01*
X29330131Y59344869D01*
X29358861Y59368446D01*
X29391633Y59385963D01*
X29427202Y59396753D01*
X29470325Y59401000D01*
X30529675Y59401000D01*
X30572798Y59396753D01*
G37*
G36*
X27572798Y59396753D02*
G01*
X27608367Y59385963D01*
X27641139Y59368446D01*
X27669869Y59344869D01*
X27693446Y59316139D01*
X27710963Y59283367D01*
X27721753Y59247798D01*
X27726000Y59204675D01*
X27726000Y57920325D01*
X27721753Y57877202D01*
X27710963Y57841633D01*
X27693446Y57808861D01*
X27669869Y57780131D01*
X27641139Y57756554D01*
X27608367Y57739037D01*
X27572798Y57728247D01*
X27529675Y57724000D01*
X26470325Y57724000D01*
X26427202Y57728247D01*
X26391633Y57739037D01*
X26358861Y57756554D01*
X26330131Y57780131D01*
X26306554Y57808861D01*
X26289037Y57841633D01*
X26278247Y57877202D01*
X26274000Y57920325D01*
X26274000Y59204675D01*
X26278247Y59247798D01*
X26289037Y59283367D01*
X26306554Y59316139D01*
X26330131Y59344869D01*
X26358861Y59368446D01*
X26391633Y59385963D01*
X26427202Y59396753D01*
X26470325Y59401000D01*
X27529675Y59401000D01*
X27572798Y59396753D01*
G37*
G36*
X7158715Y59469844D02*
G01*
X7203155Y59456363D01*
X7244113Y59434470D01*
X7280011Y59405011D01*
X7309470Y59369113D01*
X7331363Y59328155D01*
X7344844Y59283715D01*
X7350000Y59231360D01*
X7350000Y58268640D01*
X7344844Y58216285D01*
X7331363Y58171845D01*
X7309470Y58130887D01*
X7280011Y58094989D01*
X7244113Y58065530D01*
X7203155Y58043637D01*
X7158715Y58030156D01*
X7106360Y58025000D01*
X6393640Y58025000D01*
X6341285Y58030156D01*
X6296845Y58043637D01*
X6255887Y58065530D01*
X6219989Y58094989D01*
X6190530Y58130887D01*
X6168637Y58171845D01*
X6155156Y58216285D01*
X6150000Y58268640D01*
X6150000Y59231360D01*
X6155156Y59283715D01*
X6168637Y59328155D01*
X6190530Y59369113D01*
X6219989Y59405011D01*
X6255887Y59434470D01*
X6296845Y59456363D01*
X6341285Y59469844D01*
X6393640Y59475000D01*
X7106360Y59475000D01*
X7158715Y59469844D01*
G37*
G36*
X5158715Y59469844D02*
G01*
X5203155Y59456363D01*
X5244113Y59434470D01*
X5280011Y59405011D01*
X5309470Y59369113D01*
X5331363Y59328155D01*
X5344844Y59283715D01*
X5350000Y59231360D01*
X5350000Y58268640D01*
X5344844Y58216285D01*
X5331363Y58171845D01*
X5309470Y58130887D01*
X5280011Y58094989D01*
X5244113Y58065530D01*
X5203155Y58043637D01*
X5158715Y58030156D01*
X5106360Y58025000D01*
X4393640Y58025000D01*
X4341285Y58030156D01*
X4296845Y58043637D01*
X4255887Y58065530D01*
X4219989Y58094989D01*
X4190530Y58130887D01*
X4168637Y58171845D01*
X4155156Y58216285D01*
X4150000Y58268640D01*
X4150000Y59231360D01*
X4155156Y59283715D01*
X4168637Y59328155D01*
X4190530Y59369113D01*
X4219989Y59405011D01*
X4255887Y59434470D01*
X4296845Y59456363D01*
X4341285Y59469844D01*
X4393640Y59475000D01*
X5106360Y59475000D01*
X5158715Y59469844D01*
G37*
G36*
X50658715Y59719844D02*
G01*
X50703155Y59706363D01*
X50744113Y59684470D01*
X50780011Y59655011D01*
X50809470Y59619113D01*
X50831363Y59578155D01*
X50844844Y59533715D01*
X50850000Y59481360D01*
X50850000Y58518640D01*
X50844844Y58466285D01*
X50831363Y58421845D01*
X50809470Y58380887D01*
X50780011Y58344989D01*
X50744113Y58315530D01*
X50703155Y58293637D01*
X50658715Y58280156D01*
X50606360Y58275000D01*
X49893640Y58275000D01*
X49841285Y58280156D01*
X49796845Y58293637D01*
X49755887Y58315530D01*
X49719989Y58344989D01*
X49690530Y58380887D01*
X49668637Y58421845D01*
X49655156Y58466285D01*
X49650000Y58518640D01*
X49650000Y59481360D01*
X49655156Y59533715D01*
X49668637Y59578155D01*
X49690530Y59619113D01*
X49719989Y59655011D01*
X49755887Y59684470D01*
X49796845Y59706363D01*
X49841285Y59719844D01*
X49893640Y59725000D01*
X50606360Y59725000D01*
X50658715Y59719844D01*
G37*
G36*
X48658715Y59719844D02*
G01*
X48703155Y59706363D01*
X48744113Y59684470D01*
X48780011Y59655011D01*
X48809470Y59619113D01*
X48831363Y59578155D01*
X48844844Y59533715D01*
X48850000Y59481360D01*
X48850000Y58518640D01*
X48844844Y58466285D01*
X48831363Y58421845D01*
X48809470Y58380887D01*
X48780011Y58344989D01*
X48744113Y58315530D01*
X48703155Y58293637D01*
X48658715Y58280156D01*
X48606360Y58275000D01*
X47893640Y58275000D01*
X47841285Y58280156D01*
X47796845Y58293637D01*
X47755887Y58315530D01*
X47719989Y58344989D01*
X47690530Y58380887D01*
X47668637Y58421845D01*
X47655156Y58466285D01*
X47650000Y58518640D01*
X47650000Y59481360D01*
X47655156Y59533715D01*
X47668637Y59578155D01*
X47690530Y59619113D01*
X47719989Y59655011D01*
X47755887Y59684470D01*
X47796845Y59706363D01*
X47841285Y59719844D01*
X47893640Y59725000D01*
X48606360Y59725000D01*
X48658715Y59719844D01*
G37*
G36*
X33283715Y59594844D02*
G01*
X33328155Y59581363D01*
X33369113Y59559470D01*
X33405011Y59530011D01*
X33434470Y59494113D01*
X33456363Y59453155D01*
X33469844Y59408715D01*
X33475000Y59356360D01*
X33475000Y58643640D01*
X33469844Y58591285D01*
X33456363Y58546845D01*
X33434470Y58505887D01*
X33405011Y58469989D01*
X33369113Y58440530D01*
X33328155Y58418637D01*
X33283715Y58405156D01*
X33231360Y58400000D01*
X32268640Y58400000D01*
X32216285Y58405156D01*
X32171845Y58418637D01*
X32130887Y58440530D01*
X32094989Y58469989D01*
X32065530Y58505887D01*
X32043637Y58546845D01*
X32030156Y58591285D01*
X32025000Y58643640D01*
X32025000Y59356360D01*
X32030156Y59408715D01*
X32043637Y59453155D01*
X32065530Y59494113D01*
X32094989Y59530011D01*
X32130887Y59559470D01*
X32171845Y59581363D01*
X32216285Y59594844D01*
X32268640Y59600000D01*
X33231360Y59600000D01*
X33283715Y59594844D01*
G37*
G36*
X35283715Y59594844D02*
G01*
X35328155Y59581363D01*
X35369113Y59559470D01*
X35405011Y59530011D01*
X35434470Y59494113D01*
X35456363Y59453155D01*
X35469844Y59408715D01*
X35475000Y59356360D01*
X35475000Y58643640D01*
X35469844Y58591285D01*
X35456363Y58546845D01*
X35434470Y58505887D01*
X35405011Y58469989D01*
X35369113Y58440530D01*
X35328155Y58418637D01*
X35283715Y58405156D01*
X35231360Y58400000D01*
X34268640Y58400000D01*
X34216285Y58405156D01*
X34171845Y58418637D01*
X34130887Y58440530D01*
X34094989Y58469989D01*
X34065530Y58505887D01*
X34043637Y58546845D01*
X34030156Y58591285D01*
X34025000Y58643640D01*
X34025000Y59356360D01*
X34030156Y59408715D01*
X34043637Y59453155D01*
X34065530Y59494113D01*
X34094989Y59530011D01*
X34130887Y59559470D01*
X34171845Y59581363D01*
X34216285Y59594844D01*
X34268640Y59600000D01*
X35231360Y59600000D01*
X35283715Y59594844D01*
G37*
G36*
X38361000Y58609000D02*
G01*
X36099000Y58609000D01*
X36099000Y59351000D01*
X38361000Y59351000D01*
X38361000Y58609000D01*
G37*
G36*
X46901000Y58609000D02*
G01*
X44639000Y58609000D01*
X44639000Y59351000D01*
X46901000Y59351000D01*
X46901000Y58609000D01*
G37*
G36*
X46901000Y59879000D02*
G01*
X44639000Y59879000D01*
X44639000Y60621000D01*
X46901000Y60621000D01*
X46901000Y59879000D01*
G37*
G36*
X38361000Y59879000D02*
G01*
X36099000Y59879000D01*
X36099000Y60621000D01*
X38361000Y60621000D01*
X38361000Y59879000D01*
G37*
G36*
X8283715Y61344844D02*
G01*
X8328155Y61331363D01*
X8369113Y61309470D01*
X8405011Y61280011D01*
X8434470Y61244113D01*
X8456363Y61203155D01*
X8469844Y61158715D01*
X8475000Y61106360D01*
X8475000Y60393640D01*
X8469844Y60341285D01*
X8456363Y60296845D01*
X8434470Y60255887D01*
X8405011Y60219989D01*
X8369113Y60190530D01*
X8328155Y60168637D01*
X8283715Y60155156D01*
X8231360Y60150000D01*
X7268640Y60150000D01*
X7216285Y60155156D01*
X7171845Y60168637D01*
X7130887Y60190530D01*
X7094989Y60219989D01*
X7065530Y60255887D01*
X7043637Y60296845D01*
X7030156Y60341285D01*
X7025000Y60393640D01*
X7025000Y61106360D01*
X7030156Y61158715D01*
X7043637Y61203155D01*
X7065530Y61244113D01*
X7094989Y61280011D01*
X7130887Y61309470D01*
X7171845Y61331363D01*
X7216285Y61344844D01*
X7268640Y61350000D01*
X8231360Y61350000D01*
X8283715Y61344844D01*
G37*
G36*
X6033715Y61344844D02*
G01*
X6078155Y61331363D01*
X6119113Y61309470D01*
X6155011Y61280011D01*
X6184470Y61244113D01*
X6206363Y61203155D01*
X6219844Y61158715D01*
X6225000Y61106360D01*
X6225000Y60393640D01*
X6219844Y60341285D01*
X6206363Y60296845D01*
X6184470Y60255887D01*
X6155011Y60219989D01*
X6119113Y60190530D01*
X6078155Y60168637D01*
X6033715Y60155156D01*
X5981360Y60150000D01*
X5018640Y60150000D01*
X4966285Y60155156D01*
X4921845Y60168637D01*
X4880887Y60190530D01*
X4844989Y60219989D01*
X4815530Y60255887D01*
X4793637Y60296845D01*
X4780156Y60341285D01*
X4775000Y60393640D01*
X4775000Y61106360D01*
X4780156Y61158715D01*
X4793637Y61203155D01*
X4815530Y61244113D01*
X4844989Y61280011D01*
X4880887Y61309470D01*
X4921845Y61331363D01*
X4966285Y61344844D01*
X5018640Y61350000D01*
X5981360Y61350000D01*
X6033715Y61344844D01*
G37*
G36*
X50658715Y61719844D02*
G01*
X50703155Y61706363D01*
X50744113Y61684470D01*
X50780011Y61655011D01*
X50809470Y61619113D01*
X50831363Y61578155D01*
X50844844Y61533715D01*
X50850000Y61481360D01*
X50850000Y60518640D01*
X50844844Y60466285D01*
X50831363Y60421845D01*
X50809470Y60380887D01*
X50780011Y60344989D01*
X50744113Y60315530D01*
X50703155Y60293637D01*
X50658715Y60280156D01*
X50606360Y60275000D01*
X49893640Y60275000D01*
X49841285Y60280156D01*
X49796845Y60293637D01*
X49755887Y60315530D01*
X49719989Y60344989D01*
X49690530Y60380887D01*
X49668637Y60421845D01*
X49655156Y60466285D01*
X49650000Y60518640D01*
X49650000Y61481360D01*
X49655156Y61533715D01*
X49668637Y61578155D01*
X49690530Y61619113D01*
X49719989Y61655011D01*
X49755887Y61684470D01*
X49796845Y61706363D01*
X49841285Y61719844D01*
X49893640Y61725000D01*
X50606360Y61725000D01*
X50658715Y61719844D01*
G37*
G36*
X48658715Y61719844D02*
G01*
X48703155Y61706363D01*
X48744113Y61684470D01*
X48780011Y61655011D01*
X48809470Y61619113D01*
X48831363Y61578155D01*
X48844844Y61533715D01*
X48850000Y61481360D01*
X48850000Y60518640D01*
X48844844Y60466285D01*
X48831363Y60421845D01*
X48809470Y60380887D01*
X48780011Y60344989D01*
X48744113Y60315530D01*
X48703155Y60293637D01*
X48658715Y60280156D01*
X48606360Y60275000D01*
X47893640Y60275000D01*
X47841285Y60280156D01*
X47796845Y60293637D01*
X47755887Y60315530D01*
X47719989Y60344989D01*
X47690530Y60380887D01*
X47668637Y60421845D01*
X47655156Y60466285D01*
X47650000Y60518640D01*
X47650000Y61481360D01*
X47655156Y61533715D01*
X47668637Y61578155D01*
X47690530Y61619113D01*
X47719989Y61655011D01*
X47755887Y61684470D01*
X47796845Y61706363D01*
X47841285Y61719844D01*
X47893640Y61725000D01*
X48606360Y61725000D01*
X48658715Y61719844D01*
G37*
G36*
X35283715Y61594844D02*
G01*
X35328155Y61581363D01*
X35369113Y61559470D01*
X35405011Y61530011D01*
X35434470Y61494113D01*
X35456363Y61453155D01*
X35469844Y61408715D01*
X35475000Y61356360D01*
X35475000Y60643640D01*
X35469844Y60591285D01*
X35456363Y60546845D01*
X35434470Y60505887D01*
X35405011Y60469989D01*
X35369113Y60440530D01*
X35328155Y60418637D01*
X35283715Y60405156D01*
X35231360Y60400000D01*
X34268640Y60400000D01*
X34216285Y60405156D01*
X34171845Y60418637D01*
X34130887Y60440530D01*
X34094989Y60469989D01*
X34065530Y60505887D01*
X34043637Y60546845D01*
X34030156Y60591285D01*
X34025000Y60643640D01*
X34025000Y61356360D01*
X34030156Y61408715D01*
X34043637Y61453155D01*
X34065530Y61494113D01*
X34094989Y61530011D01*
X34130887Y61559470D01*
X34171845Y61581363D01*
X34216285Y61594844D01*
X34268640Y61600000D01*
X35231360Y61600000D01*
X35283715Y61594844D01*
G37*
G36*
X33283715Y61594844D02*
G01*
X33328155Y61581363D01*
X33369113Y61559470D01*
X33405011Y61530011D01*
X33434470Y61494113D01*
X33456363Y61453155D01*
X33469844Y61408715D01*
X33475000Y61356360D01*
X33475000Y60643640D01*
X33469844Y60591285D01*
X33456363Y60546845D01*
X33434470Y60505887D01*
X33405011Y60469989D01*
X33369113Y60440530D01*
X33328155Y60418637D01*
X33283715Y60405156D01*
X33231360Y60400000D01*
X32268640Y60400000D01*
X32216285Y60405156D01*
X32171845Y60418637D01*
X32130887Y60440530D01*
X32094989Y60469989D01*
X32065530Y60505887D01*
X32043637Y60546845D01*
X32030156Y60591285D01*
X32025000Y60643640D01*
X32025000Y61356360D01*
X32030156Y61408715D01*
X32043637Y61453155D01*
X32065530Y61494113D01*
X32094989Y61530011D01*
X32130887Y61559470D01*
X32171845Y61581363D01*
X32216285Y61594844D01*
X32268640Y61600000D01*
X33231360Y61600000D01*
X33283715Y61594844D01*
G37*
G36*
X12272983Y64120313D02*
G01*
X12397242Y64082619D01*
X12511761Y64021407D01*
X12616904Y63935118D01*
X12656750Y63895272D01*
X12656761Y63895263D01*
X13824195Y62727829D01*
X13824204Y62727818D01*
X13864050Y62687972D01*
X13950339Y62582829D01*
X14011551Y62468310D01*
X14049245Y62344051D01*
X14061972Y62214823D01*
X14049245Y62085595D01*
X14011551Y61961336D01*
X13950339Y61846817D01*
X13864050Y61741674D01*
X13824204Y61701828D01*
X13824195Y61701817D01*
X12798183Y60675805D01*
X12798172Y60675796D01*
X12758326Y60635950D01*
X12653183Y60549661D01*
X12538664Y60488449D01*
X12414405Y60450755D01*
X12285177Y60438028D01*
X12155949Y60450755D01*
X12031690Y60488449D01*
X11917171Y60549661D01*
X11812028Y60635950D01*
X11772182Y60675796D01*
X11772171Y60675805D01*
X10604737Y61843239D01*
X10604728Y61843250D01*
X10564882Y61883096D01*
X10478593Y61988239D01*
X10417381Y62102758D01*
X10379687Y62227017D01*
X10366960Y62356245D01*
X10379687Y62485473D01*
X10417381Y62609732D01*
X10478593Y62724251D01*
X10564882Y62829394D01*
X10604728Y62869240D01*
X10604737Y62869251D01*
X11630749Y63895263D01*
X11630760Y63895272D01*
X11670606Y63935118D01*
X11775749Y64021407D01*
X11890268Y64082619D01*
X12014527Y64120313D01*
X12143755Y64133040D01*
X12272983Y64120313D01*
G37*
G36*
X27572798Y62271753D02*
G01*
X27608367Y62260963D01*
X27641139Y62243446D01*
X27669869Y62219869D01*
X27693446Y62191139D01*
X27710963Y62158367D01*
X27721753Y62122798D01*
X27726000Y62079675D01*
X27726000Y60795325D01*
X27721753Y60752202D01*
X27710963Y60716633D01*
X27693446Y60683861D01*
X27669869Y60655131D01*
X27641139Y60631554D01*
X27608367Y60614037D01*
X27572798Y60603247D01*
X27529675Y60599000D01*
X26470325Y60599000D01*
X26427202Y60603247D01*
X26391633Y60614037D01*
X26358861Y60631554D01*
X26330131Y60655131D01*
X26306554Y60683861D01*
X26289037Y60716633D01*
X26278247Y60752202D01*
X26274000Y60795325D01*
X26274000Y62079675D01*
X26278247Y62122798D01*
X26289037Y62158367D01*
X26306554Y62191139D01*
X26330131Y62219869D01*
X26358861Y62243446D01*
X26391633Y62260963D01*
X26427202Y62271753D01*
X26470325Y62276000D01*
X27529675Y62276000D01*
X27572798Y62271753D01*
G37*
G36*
X30572798Y62271753D02*
G01*
X30608367Y62260963D01*
X30641139Y62243446D01*
X30669869Y62219869D01*
X30693446Y62191139D01*
X30710963Y62158367D01*
X30721753Y62122798D01*
X30726000Y62079675D01*
X30726000Y60795325D01*
X30721753Y60752202D01*
X30710963Y60716633D01*
X30693446Y60683861D01*
X30669869Y60655131D01*
X30641139Y60631554D01*
X30608367Y60614037D01*
X30572798Y60603247D01*
X30529675Y60599000D01*
X29470325Y60599000D01*
X29427202Y60603247D01*
X29391633Y60614037D01*
X29358861Y60631554D01*
X29330131Y60655131D01*
X29306554Y60683861D01*
X29289037Y60716633D01*
X29278247Y60752202D01*
X29274000Y60795325D01*
X29274000Y62079675D01*
X29278247Y62122798D01*
X29289037Y62158367D01*
X29306554Y62191139D01*
X29330131Y62219869D01*
X29358861Y62243446D01*
X29391633Y62260963D01*
X29427202Y62271753D01*
X29470325Y62276000D01*
X30529675Y62276000D01*
X30572798Y62271753D01*
G37*
G36*
X38361000Y61149000D02*
G01*
X36099000Y61149000D01*
X36099000Y61891000D01*
X38361000Y61891000D01*
X38361000Y61149000D01*
G37*
G36*
X46901000Y61149000D02*
G01*
X44639000Y61149000D01*
X44639000Y61891000D01*
X46901000Y61891000D01*
X46901000Y61149000D01*
G37*
G36*
X6033715Y63344844D02*
G01*
X6078155Y63331363D01*
X6119113Y63309470D01*
X6155011Y63280011D01*
X6184470Y63244113D01*
X6206363Y63203155D01*
X6219844Y63158715D01*
X6225000Y63106360D01*
X6225000Y62393640D01*
X6219844Y62341285D01*
X6206363Y62296845D01*
X6184470Y62255887D01*
X6155011Y62219989D01*
X6119113Y62190530D01*
X6078155Y62168637D01*
X6033715Y62155156D01*
X5981360Y62150000D01*
X5018640Y62150000D01*
X4966285Y62155156D01*
X4921845Y62168637D01*
X4880887Y62190530D01*
X4844989Y62219989D01*
X4815530Y62255887D01*
X4793637Y62296845D01*
X4780156Y62341285D01*
X4775000Y62393640D01*
X4775000Y63106360D01*
X4780156Y63158715D01*
X4793637Y63203155D01*
X4815530Y63244113D01*
X4844989Y63280011D01*
X4880887Y63309470D01*
X4921845Y63331363D01*
X4966285Y63344844D01*
X5018640Y63350000D01*
X5981360Y63350000D01*
X6033715Y63344844D01*
G37*
G36*
X8283715Y63344844D02*
G01*
X8328155Y63331363D01*
X8369113Y63309470D01*
X8405011Y63280011D01*
X8434470Y63244113D01*
X8456363Y63203155D01*
X8469844Y63158715D01*
X8475000Y63106360D01*
X8475000Y62393640D01*
X8469844Y62341285D01*
X8456363Y62296845D01*
X8434470Y62255887D01*
X8405011Y62219989D01*
X8369113Y62190530D01*
X8328155Y62168637D01*
X8283715Y62155156D01*
X8231360Y62150000D01*
X7268640Y62150000D01*
X7216285Y62155156D01*
X7171845Y62168637D01*
X7130887Y62190530D01*
X7094989Y62219989D01*
X7065530Y62255887D01*
X7043637Y62296845D01*
X7030156Y62341285D01*
X7025000Y62393640D01*
X7025000Y63106360D01*
X7030156Y63158715D01*
X7043637Y63203155D01*
X7065530Y63244113D01*
X7094989Y63280011D01*
X7130887Y63309470D01*
X7171845Y63331363D01*
X7216285Y63344844D01*
X7268640Y63350000D01*
X8231360Y63350000D01*
X8283715Y63344844D01*
G37*
G36*
X24408715Y63969844D02*
G01*
X24453155Y63956363D01*
X24494113Y63934470D01*
X24530011Y63905011D01*
X24559470Y63869113D01*
X24581363Y63828155D01*
X24594844Y63783715D01*
X24600000Y63731360D01*
X24600000Y62768640D01*
X24594844Y62716285D01*
X24581363Y62671845D01*
X24559470Y62630887D01*
X24530011Y62594989D01*
X24494113Y62565530D01*
X24453155Y62543637D01*
X24408715Y62530156D01*
X24356360Y62525000D01*
X23643640Y62525000D01*
X23591285Y62530156D01*
X23546845Y62543637D01*
X23505887Y62565530D01*
X23469989Y62594989D01*
X23440530Y62630887D01*
X23418637Y62671845D01*
X23405156Y62716285D01*
X23400000Y62768640D01*
X23400000Y63731360D01*
X23405156Y63783715D01*
X23418637Y63828155D01*
X23440530Y63869113D01*
X23469989Y63905011D01*
X23505887Y63934470D01*
X23546845Y63956363D01*
X23591285Y63969844D01*
X23643640Y63975000D01*
X24356360Y63975000D01*
X24408715Y63969844D01*
G37*
G36*
X22408715Y63969844D02*
G01*
X22453155Y63956363D01*
X22494113Y63934470D01*
X22530011Y63905011D01*
X22559470Y63869113D01*
X22581363Y63828155D01*
X22594844Y63783715D01*
X22600000Y63731360D01*
X22600000Y62768640D01*
X22594844Y62716285D01*
X22581363Y62671845D01*
X22559470Y62630887D01*
X22530011Y62594989D01*
X22494113Y62565530D01*
X22453155Y62543637D01*
X22408715Y62530156D01*
X22356360Y62525000D01*
X21643640Y62525000D01*
X21591285Y62530156D01*
X21546845Y62543637D01*
X21505887Y62565530D01*
X21469989Y62594989D01*
X21440530Y62630887D01*
X21418637Y62671845D01*
X21405156Y62716285D01*
X21400000Y62768640D01*
X21400000Y63731360D01*
X21405156Y63783715D01*
X21418637Y63828155D01*
X21440530Y63869113D01*
X21469989Y63905011D01*
X21505887Y63934470D01*
X21546845Y63956363D01*
X21591285Y63969844D01*
X21643640Y63975000D01*
X22356360Y63975000D01*
X22408715Y63969844D01*
G37*
G36*
X42058103Y66942442D02*
G01*
X42125990Y66921848D01*
X42188559Y66888404D01*
X42243399Y66843399D01*
X42288404Y66788559D01*
X42321848Y66725990D01*
X42342442Y66658103D01*
X42350000Y66581360D01*
X42350000Y63918640D01*
X42342442Y63841897D01*
X42321848Y63774010D01*
X42288404Y63711441D01*
X42243399Y63656601D01*
X42188559Y63611596D01*
X42125990Y63578152D01*
X42058103Y63557558D01*
X41981360Y63550000D01*
X41018640Y63550000D01*
X40941897Y63557558D01*
X40874010Y63578152D01*
X40811441Y63611596D01*
X40756601Y63656601D01*
X40711596Y63711441D01*
X40678152Y63774010D01*
X40657558Y63841897D01*
X40650000Y63918640D01*
X40650000Y66581360D01*
X40657558Y66658103D01*
X40678152Y66725990D01*
X40711596Y66788559D01*
X40756601Y66843399D01*
X40811441Y66888404D01*
X40874010Y66921848D01*
X40941897Y66942442D01*
X41018640Y66950000D01*
X41981360Y66950000D01*
X42058103Y66942442D01*
G37*
G36*
X36558103Y66942442D02*
G01*
X36625990Y66921848D01*
X36688559Y66888404D01*
X36743399Y66843399D01*
X36788404Y66788559D01*
X36821848Y66725990D01*
X36842442Y66658103D01*
X36850000Y66581360D01*
X36850000Y63918640D01*
X36842442Y63841897D01*
X36821848Y63774010D01*
X36788404Y63711441D01*
X36743399Y63656601D01*
X36688559Y63611596D01*
X36625990Y63578152D01*
X36558103Y63557558D01*
X36481360Y63550000D01*
X35518640Y63550000D01*
X35441897Y63557558D01*
X35374010Y63578152D01*
X35311441Y63611596D01*
X35256601Y63656601D01*
X35211596Y63711441D01*
X35178152Y63774010D01*
X35157558Y63841897D01*
X35150000Y63918640D01*
X35150000Y66581360D01*
X35157558Y66658103D01*
X35178152Y66725990D01*
X35211596Y66788559D01*
X35256601Y66843399D01*
X35311441Y66888404D01*
X35374010Y66921848D01*
X35441897Y66942442D01*
X35518640Y66950000D01*
X36481360Y66950000D01*
X36558103Y66942442D01*
G37*
G36*
X27061000Y64374000D02*
G01*
X25859000Y64374000D01*
X25859000Y69076000D01*
X27061000Y69076000D01*
X27061000Y64374000D01*
G37*
G36*
X32141000Y64374000D02*
G01*
X30939000Y64374000D01*
X30939000Y69076000D01*
X32141000Y69076000D01*
X32141000Y64374000D01*
G37*
G36*
X8164928Y66598236D02*
G01*
X8186009Y66591840D01*
X8205445Y66581452D01*
X8222476Y66567476D01*
X8236452Y66550445D01*
X8246840Y66531009D01*
X8253236Y66509928D01*
X8256000Y66481860D01*
X8256000Y64618140D01*
X8253236Y64590072D01*
X8246840Y64568991D01*
X8236452Y64549555D01*
X8222476Y64532524D01*
X8205445Y64518548D01*
X8186009Y64508160D01*
X8164928Y64501764D01*
X8136860Y64499000D01*
X7673140Y64499000D01*
X7645072Y64501764D01*
X7623991Y64508160D01*
X7604555Y64518548D01*
X7587524Y64532524D01*
X7573548Y64549555D01*
X7563160Y64568991D01*
X7556764Y64590072D01*
X7554000Y64618140D01*
X7554000Y66481860D01*
X7556764Y66509928D01*
X7563160Y66531009D01*
X7573548Y66550445D01*
X7587524Y66567476D01*
X7604555Y66581452D01*
X7623991Y66591840D01*
X7645072Y66598236D01*
X7673140Y66601000D01*
X8136860Y66601000D01*
X8164928Y66598236D01*
G37*
G36*
X6894928Y66598236D02*
G01*
X6916009Y66591840D01*
X6935445Y66581452D01*
X6952476Y66567476D01*
X6966452Y66550445D01*
X6976840Y66531009D01*
X6983236Y66509928D01*
X6986000Y66481860D01*
X6986000Y64618140D01*
X6983236Y64590072D01*
X6976840Y64568991D01*
X6966452Y64549555D01*
X6952476Y64532524D01*
X6935445Y64518548D01*
X6916009Y64508160D01*
X6894928Y64501764D01*
X6866860Y64499000D01*
X6403140Y64499000D01*
X6375072Y64501764D01*
X6353991Y64508160D01*
X6334555Y64518548D01*
X6317524Y64532524D01*
X6303548Y64549555D01*
X6293160Y64568991D01*
X6286764Y64590072D01*
X6284000Y64618140D01*
X6284000Y66481860D01*
X6286764Y66509928D01*
X6293160Y66531009D01*
X6303548Y66550445D01*
X6317524Y66567476D01*
X6334555Y66581452D01*
X6353991Y66591840D01*
X6375072Y66598236D01*
X6403140Y66601000D01*
X6866860Y66601000D01*
X6894928Y66598236D01*
G37*
G36*
X5624928Y66598236D02*
G01*
X5646009Y66591840D01*
X5665445Y66581452D01*
X5682476Y66567476D01*
X5696452Y66550445D01*
X5706840Y66531009D01*
X5713236Y66509928D01*
X5716000Y66481860D01*
X5716000Y64618140D01*
X5713236Y64590072D01*
X5706840Y64568991D01*
X5696452Y64549555D01*
X5682476Y64532524D01*
X5665445Y64518548D01*
X5646009Y64508160D01*
X5624928Y64501764D01*
X5596860Y64499000D01*
X5133140Y64499000D01*
X5105072Y64501764D01*
X5083991Y64508160D01*
X5064555Y64518548D01*
X5047524Y64532524D01*
X5033548Y64549555D01*
X5023160Y64568991D01*
X5016764Y64590072D01*
X5014000Y64618140D01*
X5014000Y66481860D01*
X5016764Y66509928D01*
X5023160Y66531009D01*
X5033548Y66550445D01*
X5047524Y66567476D01*
X5064555Y66581452D01*
X5083991Y66591840D01*
X5105072Y66598236D01*
X5133140Y66601000D01*
X5596860Y66601000D01*
X5624928Y66598236D01*
G37*
G36*
X4354928Y66598236D02*
G01*
X4376009Y66591840D01*
X4395445Y66581452D01*
X4412476Y66567476D01*
X4426452Y66550445D01*
X4436840Y66531009D01*
X4443236Y66509928D01*
X4446000Y66481860D01*
X4446000Y64618140D01*
X4443236Y64590072D01*
X4436840Y64568991D01*
X4426452Y64549555D01*
X4412476Y64532524D01*
X4395445Y64518548D01*
X4376009Y64508160D01*
X4354928Y64501764D01*
X4326860Y64499000D01*
X3863140Y64499000D01*
X3835072Y64501764D01*
X3813991Y64508160D01*
X3794555Y64518548D01*
X3777524Y64532524D01*
X3763548Y64549555D01*
X3753160Y64568991D01*
X3746764Y64590072D01*
X3744000Y64618140D01*
X3744000Y66481860D01*
X3746764Y66509928D01*
X3753160Y66531009D01*
X3763548Y66550445D01*
X3777524Y66567476D01*
X3794555Y66581452D01*
X3813991Y66591840D01*
X3835072Y66598236D01*
X3863140Y66601000D01*
X4326860Y66601000D01*
X4354928Y66598236D01*
G37*
G36*
X16478514Y66417712D02*
G01*
X16553534Y66394955D01*
X16622671Y66358000D01*
X16683269Y66308269D01*
X16733000Y66247671D01*
X16769955Y66178534D01*
X16792712Y66103514D01*
X16801000Y66019360D01*
X16801000Y64980640D01*
X16792712Y64896486D01*
X16769955Y64821466D01*
X16733000Y64752329D01*
X16683269Y64691731D01*
X16622671Y64642000D01*
X16553534Y64605045D01*
X16478514Y64582288D01*
X16394360Y64574000D01*
X14605640Y64574000D01*
X14521486Y64582288D01*
X14446466Y64605045D01*
X14377329Y64642000D01*
X14316731Y64691731D01*
X14267000Y64752329D01*
X14230045Y64821466D01*
X14207288Y64896486D01*
X14199000Y64980640D01*
X14199000Y66019360D01*
X14207288Y66103514D01*
X14230045Y66178534D01*
X14267000Y66247671D01*
X14316731Y66308269D01*
X14377329Y66358000D01*
X14446466Y66394955D01*
X14521486Y66417712D01*
X14605640Y66426000D01*
X16394360Y66426000D01*
X16478514Y66417712D01*
G37*
G36*
X20478514Y66417712D02*
G01*
X20553534Y66394955D01*
X20622671Y66358000D01*
X20683269Y66308269D01*
X20733000Y66247671D01*
X20769955Y66178534D01*
X20792712Y66103514D01*
X20801000Y66019360D01*
X20801000Y64980640D01*
X20792712Y64896486D01*
X20769955Y64821466D01*
X20733000Y64752329D01*
X20683269Y64691731D01*
X20622671Y64642000D01*
X20553534Y64605045D01*
X20478514Y64582288D01*
X20394360Y64574000D01*
X18605640Y64574000D01*
X18521486Y64582288D01*
X18446466Y64605045D01*
X18377329Y64642000D01*
X18316731Y64691731D01*
X18267000Y64752329D01*
X18230045Y64821466D01*
X18207288Y64896486D01*
X18199000Y64980640D01*
X18199000Y66019360D01*
X18207288Y66103514D01*
X18230045Y66178534D01*
X18267000Y66247671D01*
X18316731Y66308269D01*
X18377329Y66358000D01*
X18446466Y66394955D01*
X18521486Y66417712D01*
X18605640Y66426000D01*
X20394360Y66426000D01*
X20478514Y66417712D01*
G37*
G36*
X24408715Y66219844D02*
G01*
X24453155Y66206363D01*
X24494113Y66184470D01*
X24530011Y66155011D01*
X24559470Y66119113D01*
X24581363Y66078155D01*
X24594844Y66033715D01*
X24600000Y65981360D01*
X24600000Y65018640D01*
X24594844Y64966285D01*
X24581363Y64921845D01*
X24559470Y64880887D01*
X24530011Y64844989D01*
X24494113Y64815530D01*
X24453155Y64793637D01*
X24408715Y64780156D01*
X24356360Y64775000D01*
X23643640Y64775000D01*
X23591285Y64780156D01*
X23546845Y64793637D01*
X23505887Y64815530D01*
X23469989Y64844989D01*
X23440530Y64880887D01*
X23418637Y64921845D01*
X23405156Y64966285D01*
X23400000Y65018640D01*
X23400000Y65981360D01*
X23405156Y66033715D01*
X23418637Y66078155D01*
X23440530Y66119113D01*
X23469989Y66155011D01*
X23505887Y66184470D01*
X23546845Y66206363D01*
X23591285Y66219844D01*
X23643640Y66225000D01*
X24356360Y66225000D01*
X24408715Y66219844D01*
G37*
G36*
X22408715Y66219844D02*
G01*
X22453155Y66206363D01*
X22494113Y66184470D01*
X22530011Y66155011D01*
X22559470Y66119113D01*
X22581363Y66078155D01*
X22594844Y66033715D01*
X22600000Y65981360D01*
X22600000Y65018640D01*
X22594844Y64966285D01*
X22581363Y64921845D01*
X22559470Y64880887D01*
X22530011Y64844989D01*
X22494113Y64815530D01*
X22453155Y64793637D01*
X22408715Y64780156D01*
X22356360Y64775000D01*
X21643640Y64775000D01*
X21591285Y64780156D01*
X21546845Y64793637D01*
X21505887Y64815530D01*
X21469989Y64844989D01*
X21440530Y64880887D01*
X21418637Y64921845D01*
X21405156Y64966285D01*
X21400000Y65018640D01*
X21400000Y65981360D01*
X21405156Y66033715D01*
X21418637Y66078155D01*
X21440530Y66119113D01*
X21469989Y66155011D01*
X21505887Y66184470D01*
X21546845Y66206363D01*
X21591285Y66219844D01*
X21643640Y66225000D01*
X22356360Y66225000D01*
X22408715Y66219844D01*
G37*
G36*
X9611938Y67093284D02*
G01*
X9632557Y67087029D01*
X9651553Y67076876D01*
X9668208Y67063208D01*
X9681876Y67046553D01*
X9692029Y67027557D01*
X9698284Y67006938D01*
X9701000Y66979360D01*
X9701000Y66520640D01*
X9698284Y66493062D01*
X9692029Y66472443D01*
X9681876Y66453447D01*
X9668208Y66436792D01*
X9651553Y66423124D01*
X9632557Y66412971D01*
X9611938Y66406716D01*
X9584360Y66404000D01*
X8915640Y66404000D01*
X8888062Y66406716D01*
X8867443Y66412971D01*
X8848447Y66423124D01*
X8831792Y66436792D01*
X8818124Y66453447D01*
X8807971Y66472443D01*
X8801716Y66493062D01*
X8799000Y66520640D01*
X8799000Y66979360D01*
X8801716Y67006938D01*
X8807971Y67027557D01*
X8818124Y67046553D01*
X8831792Y67063208D01*
X8848447Y67076876D01*
X8867443Y67087029D01*
X8888062Y67093284D01*
X8915640Y67096000D01*
X9584360Y67096000D01*
X9611938Y67093284D01*
G37*
G36*
X38376000Y67849000D02*
G01*
X35024000Y67849000D01*
X35024000Y81151000D01*
X38376000Y81151000D01*
X38376000Y67849000D01*
G37*
G36*
X22976000Y67849000D02*
G01*
X19624000Y67849000D01*
X19624000Y81151000D01*
X22976000Y81151000D01*
X22976000Y67849000D01*
G37*
G36*
X9611938Y68593284D02*
G01*
X9632557Y68587029D01*
X9651553Y68576876D01*
X9668208Y68563208D01*
X9681876Y68546553D01*
X9692029Y68527557D01*
X9698284Y68506938D01*
X9701000Y68479360D01*
X9701000Y68020640D01*
X9698284Y67993062D01*
X9692029Y67972443D01*
X9681876Y67953447D01*
X9668208Y67936792D01*
X9651553Y67923124D01*
X9632557Y67912971D01*
X9611938Y67906716D01*
X9584360Y67904000D01*
X8915640Y67904000D01*
X8888062Y67906716D01*
X8867443Y67912971D01*
X8848447Y67923124D01*
X8831792Y67936792D01*
X8818124Y67953447D01*
X8807971Y67972443D01*
X8801716Y67993062D01*
X8799000Y68020640D01*
X8799000Y68479360D01*
X8801716Y68506938D01*
X8807971Y68527557D01*
X8818124Y68546553D01*
X8831792Y68563208D01*
X8848447Y68576876D01*
X8867443Y68587029D01*
X8888062Y68593284D01*
X8915640Y68596000D01*
X9584360Y68596000D01*
X9611938Y68593284D01*
G37*
G36*
X2558103Y69842442D02*
G01*
X2625990Y69821848D01*
X2688559Y69788404D01*
X2743399Y69743399D01*
X2788404Y69688559D01*
X2821848Y69625990D01*
X2842442Y69558103D01*
X2850000Y69481360D01*
X2850000Y68518640D01*
X2842442Y68441897D01*
X2821848Y68374010D01*
X2788404Y68311441D01*
X2743399Y68256601D01*
X2688559Y68211596D01*
X2625990Y68178152D01*
X2558103Y68157558D01*
X2481360Y68150000D01*
X1018640Y68150000D01*
X941897Y68157558D01*
X874010Y68178152D01*
X811441Y68211596D01*
X756601Y68256601D01*
X711596Y68311441D01*
X678152Y68374010D01*
X657558Y68441897D01*
X650000Y68518640D01*
X650000Y69481360D01*
X657558Y69558103D01*
X678152Y69625990D01*
X711596Y69688559D01*
X756601Y69743399D01*
X811441Y69788404D01*
X874010Y69821848D01*
X941897Y69842442D01*
X1018640Y69850000D01*
X2481360Y69850000D01*
X2558103Y69842442D01*
G37*
G36*
X8164928Y71498236D02*
G01*
X8186009Y71491840D01*
X8205445Y71481452D01*
X8222476Y71467476D01*
X8236452Y71450445D01*
X8246840Y71431009D01*
X8253236Y71409928D01*
X8256000Y71381860D01*
X8256000Y69518140D01*
X8253236Y69490072D01*
X8246840Y69468991D01*
X8236452Y69449555D01*
X8222476Y69432524D01*
X8205445Y69418548D01*
X8186009Y69408160D01*
X8164928Y69401764D01*
X8136860Y69399000D01*
X7673140Y69399000D01*
X7645072Y69401764D01*
X7623991Y69408160D01*
X7604555Y69418548D01*
X7587524Y69432524D01*
X7573548Y69449555D01*
X7563160Y69468991D01*
X7556764Y69490072D01*
X7554000Y69518140D01*
X7554000Y71381860D01*
X7556764Y71409928D01*
X7563160Y71431009D01*
X7573548Y71450445D01*
X7587524Y71467476D01*
X7604555Y71481452D01*
X7623991Y71491840D01*
X7645072Y71498236D01*
X7673140Y71501000D01*
X8136860Y71501000D01*
X8164928Y71498236D01*
G37*
G36*
X6894928Y71498236D02*
G01*
X6916009Y71491840D01*
X6935445Y71481452D01*
X6952476Y71467476D01*
X6966452Y71450445D01*
X6976840Y71431009D01*
X6983236Y71409928D01*
X6986000Y71381860D01*
X6986000Y69518140D01*
X6983236Y69490072D01*
X6976840Y69468991D01*
X6966452Y69449555D01*
X6952476Y69432524D01*
X6935445Y69418548D01*
X6916009Y69408160D01*
X6894928Y69401764D01*
X6866860Y69399000D01*
X6403140Y69399000D01*
X6375072Y69401764D01*
X6353991Y69408160D01*
X6334555Y69418548D01*
X6317524Y69432524D01*
X6303548Y69449555D01*
X6293160Y69468991D01*
X6286764Y69490072D01*
X6284000Y69518140D01*
X6284000Y71381860D01*
X6286764Y71409928D01*
X6293160Y71431009D01*
X6303548Y71450445D01*
X6317524Y71467476D01*
X6334555Y71481452D01*
X6353991Y71491840D01*
X6375072Y71498236D01*
X6403140Y71501000D01*
X6866860Y71501000D01*
X6894928Y71498236D01*
G37*
G36*
X4354928Y71498236D02*
G01*
X4376009Y71491840D01*
X4395445Y71481452D01*
X4412476Y71467476D01*
X4426452Y71450445D01*
X4436840Y71431009D01*
X4443236Y71409928D01*
X4446000Y71381860D01*
X4446000Y69518140D01*
X4443236Y69490072D01*
X4436840Y69468991D01*
X4426452Y69449555D01*
X4412476Y69432524D01*
X4395445Y69418548D01*
X4376009Y69408160D01*
X4354928Y69401764D01*
X4326860Y69399000D01*
X3863140Y69399000D01*
X3835072Y69401764D01*
X3813991Y69408160D01*
X3794555Y69418548D01*
X3777524Y69432524D01*
X3763548Y69449555D01*
X3753160Y69468991D01*
X3746764Y69490072D01*
X3744000Y69518140D01*
X3744000Y71381860D01*
X3746764Y71409928D01*
X3753160Y71431009D01*
X3763548Y71450445D01*
X3777524Y71467476D01*
X3794555Y71481452D01*
X3813991Y71491840D01*
X3835072Y71498236D01*
X3863140Y71501000D01*
X4326860Y71501000D01*
X4354928Y71498236D01*
G37*
G36*
X34451000Y71124000D02*
G01*
X23549000Y71124000D01*
X23549000Y80626000D01*
X34451000Y80626000D01*
X34451000Y71124000D01*
G37*
G36*
X2558103Y73842442D02*
G01*
X2625990Y73821848D01*
X2688559Y73788404D01*
X2743399Y73743399D01*
X2788404Y73688559D01*
X2821848Y73625990D01*
X2842442Y73558103D01*
X2850000Y73481360D01*
X2850000Y72518640D01*
X2842442Y72441897D01*
X2821848Y72374010D01*
X2788404Y72311441D01*
X2743399Y72256601D01*
X2688559Y72211596D01*
X2625990Y72178152D01*
X2558103Y72157558D01*
X2481360Y72150000D01*
X1018640Y72150000D01*
X941897Y72157558D01*
X874010Y72178152D01*
X811441Y72211596D01*
X756601Y72256601D01*
X711596Y72311441D01*
X678152Y72374010D01*
X657558Y72441897D01*
X650000Y72518640D01*
X650000Y73481360D01*
X657558Y73558103D01*
X678152Y73625990D01*
X711596Y73688559D01*
X756601Y73743399D01*
X811441Y73788404D01*
X874010Y73821848D01*
X941897Y73842442D01*
X1018640Y73850000D01*
X2481360Y73850000D01*
X2558103Y73842442D01*
G37*
G36*
X6389163Y79216671D02*
G01*
X6656301Y79163534D01*
X7065775Y78993924D01*
X7434292Y78747689D01*
X7747689Y78434292D01*
X7993924Y78065775D01*
X8163534Y77656301D01*
X8250000Y77221606D01*
X8250000Y76778394D01*
X8163534Y76343699D01*
X7993924Y75934225D01*
X7747689Y75565708D01*
X7434292Y75252311D01*
X7065775Y75006076D01*
X6656301Y74836466D01*
X6438953Y74793233D01*
X6221607Y74750000D01*
X5778393Y74750000D01*
X5561047Y74793233D01*
X5343699Y74836466D01*
X4934225Y75006076D01*
X4565708Y75252311D01*
X4252311Y75565708D01*
X4006076Y75934225D01*
X3836466Y76343699D01*
X3750000Y76778394D01*
X3750000Y77221606D01*
X3836466Y77656301D01*
X4006076Y78065775D01*
X4252311Y78434292D01*
X4565708Y78747689D01*
X4934225Y78993924D01*
X5343699Y79163534D01*
X5610837Y79216671D01*
X5778393Y79250000D01*
X6221607Y79250000D01*
X6389163Y79216671D01*
G37*
G36*
X50389163Y79216671D02*
G01*
X50656301Y79163534D01*
X51065775Y78993924D01*
X51434292Y78747689D01*
X51747689Y78434292D01*
X51993924Y78065775D01*
X52163534Y77656301D01*
X52250000Y77221606D01*
X52250000Y76778394D01*
X52163534Y76343699D01*
X51993924Y75934225D01*
X51747689Y75565708D01*
X51434292Y75252311D01*
X51065775Y75006076D01*
X50656301Y74836466D01*
X50438953Y74793233D01*
X50221607Y74750000D01*
X49778393Y74750000D01*
X49561047Y74793233D01*
X49343699Y74836466D01*
X48934225Y75006076D01*
X48565708Y75252311D01*
X48252311Y75565708D01*
X48006076Y75934225D01*
X47836466Y76343699D01*
X47750000Y76778394D01*
X47750000Y77221606D01*
X47836466Y77656301D01*
X48006076Y78065775D01*
X48252311Y78434292D01*
X48565708Y78747689D01*
X48934225Y78993924D01*
X49343699Y79163534D01*
X49610837Y79216671D01*
X49778393Y79250000D01*
X50221607Y79250000D01*
X50389163Y79216671D01*
G37*
G36*
X16701000Y77799000D02*
G01*
X14299000Y77799000D01*
X14299000Y80401000D01*
X16701000Y80401000D01*
X16701000Y77799000D01*
G37*
G36*
X2033715Y79344844D02*
G01*
X2078155Y79331363D01*
X2119113Y79309470D01*
X2155011Y79280011D01*
X2184470Y79244113D01*
X2206363Y79203155D01*
X2219844Y79158715D01*
X2225000Y79106360D01*
X2225000Y78393640D01*
X2219844Y78341285D01*
X2206363Y78296845D01*
X2184470Y78255887D01*
X2155011Y78219989D01*
X2119113Y78190530D01*
X2078155Y78168637D01*
X2033715Y78155156D01*
X1981360Y78150000D01*
X1018640Y78150000D01*
X966285Y78155156D01*
X921845Y78168637D01*
X880887Y78190530D01*
X844989Y78219989D01*
X815530Y78255887D01*
X793637Y78296845D01*
X780156Y78341285D01*
X775000Y78393640D01*
X775000Y79106360D01*
X780156Y79158715D01*
X793637Y79203155D01*
X815530Y79244113D01*
X844989Y79280011D01*
X880887Y79309470D01*
X921845Y79331363D01*
X966285Y79344844D01*
X1018640Y79350000D01*
X1981360Y79350000D01*
X2033715Y79344844D01*
G37*
G36*
X2033715Y81344844D02*
G01*
X2078155Y81331363D01*
X2119113Y81309470D01*
X2155011Y81280011D01*
X2184470Y81244113D01*
X2206363Y81203155D01*
X2219844Y81158715D01*
X2225000Y81106360D01*
X2225000Y80393640D01*
X2219844Y80341285D01*
X2206363Y80296845D01*
X2184470Y80255887D01*
X2155011Y80219989D01*
X2119113Y80190530D01*
X2078155Y80168637D01*
X2033715Y80155156D01*
X1981360Y80150000D01*
X1018640Y80150000D01*
X966285Y80155156D01*
X921845Y80168637D01*
X880887Y80190530D01*
X844989Y80219989D01*
X815530Y80255887D01*
X793637Y80296845D01*
X780156Y80341285D01*
X775000Y80393640D01*
X775000Y81106360D01*
X780156Y81158715D01*
X793637Y81203155D01*
X815530Y81244113D01*
X844989Y81280011D01*
X880887Y81309470D01*
X921845Y81331363D01*
X966285Y81344844D01*
X1018640Y81350000D01*
X1981360Y81350000D01*
X2033715Y81344844D01*
G37*
G36*
X16701000Y82099000D02*
G01*
X14299000Y82099000D01*
X14299000Y84701000D01*
X16701000Y84701000D01*
X16701000Y82099000D01*
G37*
G36*
X45956031Y85785793D02*
G01*
X46154145Y85725695D01*
X46154148Y85725694D01*
X46220030Y85690479D01*
X46336729Y85628103D01*
X46496765Y85496765D01*
X46628103Y85336729D01*
X46628104Y85336727D01*
X46725694Y85154149D01*
X46725694Y85154148D01*
X46725695Y85154146D01*
X46785793Y84956032D01*
X46801000Y84801630D01*
X46801000Y83198370D01*
X46785793Y83043968D01*
X46725695Y82845854D01*
X46725694Y82845851D01*
X46673939Y82749025D01*
X46628103Y82663271D01*
X46496765Y82503235D01*
X46336729Y82371897D01*
X46250975Y82326061D01*
X46154149Y82274306D01*
X46154146Y82274305D01*
X45956032Y82214207D01*
X45750000Y82193915D01*
X45543969Y82214207D01*
X45345855Y82274305D01*
X45345852Y82274306D01*
X45249026Y82326061D01*
X45163272Y82371897D01*
X45003236Y82503235D01*
X44871898Y82663271D01*
X44837904Y82726870D01*
X44774305Y82845854D01*
X44714207Y83043967D01*
X44699000Y83198369D01*
X44699000Y84801630D01*
X44714207Y84956029D01*
X44714207Y84956031D01*
X44774305Y85154145D01*
X44774306Y85154148D01*
X44809521Y85220030D01*
X44871897Y85336729D01*
X45003235Y85496765D01*
X45163271Y85628103D01*
X45249025Y85673939D01*
X45345851Y85725694D01*
X45345854Y85725695D01*
X45543968Y85785793D01*
X45750000Y85806085D01*
X45956031Y85785793D01*
G37*
G36*
X4456031Y85785793D02*
G01*
X4654145Y85725695D01*
X4654148Y85725694D01*
X4720030Y85690479D01*
X4836729Y85628103D01*
X4996765Y85496765D01*
X5128103Y85336729D01*
X5128104Y85336727D01*
X5225694Y85154149D01*
X5225694Y85154148D01*
X5225695Y85154146D01*
X5285793Y84956032D01*
X5301000Y84801630D01*
X5301000Y83198370D01*
X5285793Y83043968D01*
X5225695Y82845854D01*
X5225694Y82845851D01*
X5173939Y82749025D01*
X5128103Y82663271D01*
X4996765Y82503235D01*
X4836729Y82371897D01*
X4750975Y82326061D01*
X4654149Y82274306D01*
X4654146Y82274305D01*
X4456032Y82214207D01*
X4250000Y82193915D01*
X4043969Y82214207D01*
X3845855Y82274305D01*
X3845852Y82274306D01*
X3749026Y82326061D01*
X3663272Y82371897D01*
X3503236Y82503235D01*
X3371898Y82663271D01*
X3337904Y82726870D01*
X3274305Y82845854D01*
X3214207Y83043967D01*
X3199000Y83198369D01*
X3199000Y84801630D01*
X3214207Y84956029D01*
X3214207Y84956031D01*
X3274305Y85154145D01*
X3274306Y85154148D01*
X3309521Y85220030D01*
X3371897Y85336729D01*
X3503235Y85496765D01*
X3663271Y85628103D01*
X3749025Y85673939D01*
X3845851Y85725694D01*
X3845854Y85725695D01*
X4043968Y85785793D01*
X4250000Y85806085D01*
X4456031Y85785793D01*
G37*
G36*
X9536031Y85785793D02*
G01*
X9734145Y85725695D01*
X9734148Y85725694D01*
X9800030Y85690479D01*
X9916729Y85628103D01*
X10076765Y85496765D01*
X10208103Y85336729D01*
X10208104Y85336727D01*
X10305694Y85154149D01*
X10305694Y85154148D01*
X10305695Y85154146D01*
X10365793Y84956032D01*
X10381000Y84801630D01*
X10381000Y83198370D01*
X10365793Y83043968D01*
X10305695Y82845854D01*
X10305694Y82845851D01*
X10253939Y82749025D01*
X10208103Y82663271D01*
X10076765Y82503235D01*
X9916729Y82371897D01*
X9830975Y82326061D01*
X9734149Y82274306D01*
X9734146Y82274305D01*
X9536032Y82214207D01*
X9330000Y82193915D01*
X9123969Y82214207D01*
X8925855Y82274305D01*
X8925852Y82274306D01*
X8829026Y82326061D01*
X8743272Y82371897D01*
X8583236Y82503235D01*
X8451898Y82663271D01*
X8417904Y82726870D01*
X8354305Y82845854D01*
X8294207Y83043967D01*
X8279000Y83198369D01*
X8279000Y84801630D01*
X8294207Y84956029D01*
X8294207Y84956031D01*
X8354305Y85154145D01*
X8354306Y85154148D01*
X8389521Y85220030D01*
X8451897Y85336729D01*
X8583235Y85496765D01*
X8743271Y85628103D01*
X8829025Y85673939D01*
X8925851Y85725694D01*
X8925854Y85725695D01*
X9123968Y85785793D01*
X9330000Y85806085D01*
X9536031Y85785793D01*
G37*
G36*
X51036031Y85785793D02*
G01*
X51234145Y85725695D01*
X51234148Y85725694D01*
X51300030Y85690479D01*
X51416729Y85628103D01*
X51576765Y85496765D01*
X51708103Y85336729D01*
X51708104Y85336727D01*
X51805694Y85154149D01*
X51805694Y85154148D01*
X51805695Y85154146D01*
X51865793Y84956032D01*
X51881000Y84801630D01*
X51881000Y83198370D01*
X51865793Y83043968D01*
X51805695Y82845854D01*
X51805694Y82845851D01*
X51753939Y82749025D01*
X51708103Y82663271D01*
X51576765Y82503235D01*
X51416729Y82371897D01*
X51330975Y82326061D01*
X51234149Y82274306D01*
X51234146Y82274305D01*
X51036032Y82214207D01*
X50830000Y82193915D01*
X50623969Y82214207D01*
X50425855Y82274305D01*
X50425852Y82274306D01*
X50329026Y82326061D01*
X50243272Y82371897D01*
X50083236Y82503235D01*
X49951898Y82663271D01*
X49917904Y82726870D01*
X49854305Y82845854D01*
X49794207Y83043967D01*
X49779000Y83198369D01*
X49779000Y84801630D01*
X49794207Y84956029D01*
X49794207Y84956031D01*
X49854305Y85154145D01*
X49854306Y85154148D01*
X49889521Y85220030D01*
X49951897Y85336729D01*
X50083235Y85496765D01*
X50243271Y85628103D01*
X50329025Y85673939D01*
X50425851Y85725694D01*
X50425854Y85725695D01*
X50623968Y85785793D01*
X50830000Y85806085D01*
X51036031Y85785793D01*
G37*
M02*
