G04 #@! TF.GenerationSoftware,KiCad,Pcbnew,(5.1.5)-3*
G04 #@! TF.CreationDate,2020-02-03T09:46:18+01:00*
G04 #@! TF.ProjectId,Chopper_v2,43686f70-7065-4725-9f76-322e6b696361,rev?*
G04 #@! TF.SameCoordinates,PXc65d40PYb71b000*
G04 #@! TF.FileFunction,Soldermask,Bot*
G04 #@! TF.FilePolarity,Negative*
%FSLAX46Y46*%
G04 Gerber Fmt 4.6, Leading zero omitted, Abs format (unit mm)*
G04 Created by KiCad (PCBNEW (5.1.5)-3) date 2020-02-03 09:46:18*
%MOMM*%
%LPD*%
G04 APERTURE LIST*
%ADD10C,0.100000*%
G04 APERTURE END LIST*
D10*
G36*
X4376032Y10785793D02*
G01*
X4574146Y10725695D01*
X4574149Y10725694D01*
X4670975Y10673939D01*
X4756729Y10628103D01*
X4916765Y10496765D01*
X5048103Y10336729D01*
X5093939Y10250975D01*
X5145694Y10154149D01*
X5145695Y10154146D01*
X5205793Y9956032D01*
X5221000Y9801630D01*
X5221000Y8198370D01*
X5205793Y8043968D01*
X5145695Y7845855D01*
X5145694Y7845851D01*
X5093939Y7749025D01*
X5048103Y7663271D01*
X4916765Y7503235D01*
X4756729Y7371897D01*
X4640030Y7309521D01*
X4574148Y7274306D01*
X4574145Y7274305D01*
X4376031Y7214207D01*
X4170000Y7193915D01*
X3963968Y7214207D01*
X3765854Y7274305D01*
X3765851Y7274306D01*
X3669025Y7326061D01*
X3583271Y7371897D01*
X3423235Y7503235D01*
X3291897Y7663271D01*
X3194307Y7845851D01*
X3194306Y7845852D01*
X3194305Y7845855D01*
X3134207Y8043969D01*
X3119000Y8198371D01*
X3119000Y9801631D01*
X3134207Y9956033D01*
X3194305Y10154146D01*
X3257904Y10273130D01*
X3291898Y10336729D01*
X3423236Y10496765D01*
X3583272Y10628103D01*
X3669026Y10673939D01*
X3765852Y10725694D01*
X3765855Y10725695D01*
X3963969Y10785793D01*
X4170000Y10806085D01*
X4376032Y10785793D01*
G37*
G36*
X45876032Y10785793D02*
G01*
X46074146Y10725695D01*
X46074149Y10725694D01*
X46170975Y10673939D01*
X46256729Y10628103D01*
X46416765Y10496765D01*
X46548103Y10336729D01*
X46593939Y10250975D01*
X46645694Y10154149D01*
X46645695Y10154146D01*
X46705793Y9956032D01*
X46721000Y9801630D01*
X46721000Y8198370D01*
X46705793Y8043968D01*
X46645695Y7845855D01*
X46645694Y7845851D01*
X46593939Y7749025D01*
X46548103Y7663271D01*
X46416765Y7503235D01*
X46256729Y7371897D01*
X46140030Y7309521D01*
X46074148Y7274306D01*
X46074145Y7274305D01*
X45876031Y7214207D01*
X45670000Y7193915D01*
X45463968Y7214207D01*
X45265854Y7274305D01*
X45265851Y7274306D01*
X45169025Y7326061D01*
X45083271Y7371897D01*
X44923235Y7503235D01*
X44791897Y7663271D01*
X44694307Y7845851D01*
X44694306Y7845852D01*
X44694305Y7845855D01*
X44634207Y8043969D01*
X44619000Y8198371D01*
X44619000Y9801631D01*
X44634207Y9956033D01*
X44694305Y10154146D01*
X44757904Y10273130D01*
X44791898Y10336729D01*
X44923236Y10496765D01*
X45083272Y10628103D01*
X45169026Y10673939D01*
X45265852Y10725694D01*
X45265855Y10725695D01*
X45463969Y10785793D01*
X45670000Y10806085D01*
X45876032Y10785793D01*
G37*
G36*
X50956032Y10785793D02*
G01*
X51154146Y10725695D01*
X51154149Y10725694D01*
X51250975Y10673939D01*
X51336729Y10628103D01*
X51496765Y10496765D01*
X51628103Y10336729D01*
X51673939Y10250975D01*
X51725694Y10154149D01*
X51725695Y10154146D01*
X51785793Y9956032D01*
X51801000Y9801630D01*
X51801000Y8198370D01*
X51785793Y8043968D01*
X51725695Y7845855D01*
X51725694Y7845851D01*
X51673939Y7749025D01*
X51628103Y7663271D01*
X51496765Y7503235D01*
X51336729Y7371897D01*
X51220030Y7309521D01*
X51154148Y7274306D01*
X51154145Y7274305D01*
X50956031Y7214207D01*
X50750000Y7193915D01*
X50543968Y7214207D01*
X50345854Y7274305D01*
X50345851Y7274306D01*
X50249025Y7326061D01*
X50163271Y7371897D01*
X50003235Y7503235D01*
X49871897Y7663271D01*
X49774307Y7845851D01*
X49774306Y7845852D01*
X49774305Y7845855D01*
X49714207Y8043969D01*
X49699000Y8198371D01*
X49699000Y9801631D01*
X49714207Y9956033D01*
X49774305Y10154146D01*
X49837904Y10273130D01*
X49871898Y10336729D01*
X50003236Y10496765D01*
X50163272Y10628103D01*
X50249026Y10673939D01*
X50345852Y10725694D01*
X50345855Y10725695D01*
X50543969Y10785793D01*
X50750000Y10806085D01*
X50956032Y10785793D01*
G37*
G36*
X9456032Y10785793D02*
G01*
X9654146Y10725695D01*
X9654149Y10725694D01*
X9750975Y10673939D01*
X9836729Y10628103D01*
X9996765Y10496765D01*
X10128103Y10336729D01*
X10173939Y10250975D01*
X10225694Y10154149D01*
X10225695Y10154146D01*
X10285793Y9956032D01*
X10301000Y9801630D01*
X10301000Y8198370D01*
X10285793Y8043968D01*
X10225695Y7845855D01*
X10225694Y7845851D01*
X10173939Y7749025D01*
X10128103Y7663271D01*
X9996765Y7503235D01*
X9836729Y7371897D01*
X9720030Y7309521D01*
X9654148Y7274306D01*
X9654145Y7274305D01*
X9456031Y7214207D01*
X9250000Y7193915D01*
X9043968Y7214207D01*
X8845854Y7274305D01*
X8845851Y7274306D01*
X8749025Y7326061D01*
X8663271Y7371897D01*
X8503235Y7503235D01*
X8371897Y7663271D01*
X8274307Y7845851D01*
X8274306Y7845852D01*
X8274305Y7845855D01*
X8214207Y8043969D01*
X8199000Y8198371D01*
X8199000Y9801631D01*
X8214207Y9956033D01*
X8274305Y10154146D01*
X8337904Y10273130D01*
X8371898Y10336729D01*
X8503236Y10496765D01*
X8663272Y10628103D01*
X8749026Y10673939D01*
X8845852Y10725694D01*
X8845855Y10725695D01*
X9043969Y10785793D01*
X9250000Y10806085D01*
X9456032Y10785793D01*
G37*
G36*
X5438953Y18206767D02*
G01*
X5656301Y18163534D01*
X6065775Y17993924D01*
X6434292Y17747689D01*
X6747689Y17434292D01*
X6993924Y17065775D01*
X7163534Y16656301D01*
X7250000Y16221606D01*
X7250000Y15778394D01*
X7163534Y15343699D01*
X6993924Y14934225D01*
X6747689Y14565708D01*
X6434292Y14252311D01*
X6065775Y14006076D01*
X5656301Y13836466D01*
X5438953Y13793233D01*
X5221607Y13750000D01*
X4778393Y13750000D01*
X4561047Y13793233D01*
X4343699Y13836466D01*
X3934225Y14006076D01*
X3565708Y14252311D01*
X3252311Y14565708D01*
X3006076Y14934225D01*
X2836466Y15343699D01*
X2750000Y15778394D01*
X2750000Y16221606D01*
X2836466Y16656301D01*
X3006076Y17065775D01*
X3252311Y17434292D01*
X3565708Y17747689D01*
X3934225Y17993924D01*
X4343699Y18163534D01*
X4561047Y18206767D01*
X4778393Y18250000D01*
X5221607Y18250000D01*
X5438953Y18206767D01*
G37*
G36*
X49438953Y18206767D02*
G01*
X49656301Y18163534D01*
X50065775Y17993924D01*
X50434292Y17747689D01*
X50747689Y17434292D01*
X50993924Y17065775D01*
X51163534Y16656301D01*
X51250000Y16221606D01*
X51250000Y15778394D01*
X51163534Y15343699D01*
X50993924Y14934225D01*
X50747689Y14565708D01*
X50434292Y14252311D01*
X50065775Y14006076D01*
X49656301Y13836466D01*
X49438953Y13793233D01*
X49221607Y13750000D01*
X48778393Y13750000D01*
X48561047Y13793233D01*
X48343699Y13836466D01*
X47934225Y14006076D01*
X47565708Y14252311D01*
X47252311Y14565708D01*
X47006076Y14934225D01*
X46836466Y15343699D01*
X46750000Y15778394D01*
X46750000Y16221606D01*
X46836466Y16656301D01*
X47006076Y17065775D01*
X47252311Y17434292D01*
X47565708Y17747689D01*
X47934225Y17993924D01*
X48343699Y18163534D01*
X48561047Y18206767D01*
X48778393Y18250000D01*
X49221607Y18250000D01*
X49438953Y18206767D01*
G37*
G36*
X16077593Y38289109D02*
G01*
X16187789Y38255681D01*
X16289338Y38201402D01*
X16378351Y38128351D01*
X16451402Y38039338D01*
X16505681Y37937789D01*
X16539109Y37827593D01*
X16551000Y37706860D01*
X16551000Y36293140D01*
X16539109Y36172407D01*
X16505681Y36062211D01*
X16451402Y35960662D01*
X16378351Y35871649D01*
X16289338Y35798598D01*
X16187789Y35744319D01*
X16077593Y35710891D01*
X15956860Y35699000D01*
X14543140Y35699000D01*
X14422407Y35710891D01*
X14312211Y35744319D01*
X14210662Y35798598D01*
X14121649Y35871649D01*
X14048598Y35960662D01*
X13994319Y36062211D01*
X13960891Y36172407D01*
X13949000Y36293140D01*
X13949000Y37706860D01*
X13960891Y37827593D01*
X13994319Y37937789D01*
X14048598Y38039338D01*
X14121649Y38128351D01*
X14210662Y38201402D01*
X14312211Y38255681D01*
X14422407Y38289109D01*
X14543140Y38301000D01*
X15956860Y38301000D01*
X16077593Y38289109D01*
G37*
G36*
X12577593Y38289109D02*
G01*
X12687789Y38255681D01*
X12789338Y38201402D01*
X12878351Y38128351D01*
X12951402Y38039338D01*
X13005681Y37937789D01*
X13039109Y37827593D01*
X13051000Y37706860D01*
X13051000Y36293140D01*
X13039109Y36172407D01*
X13005681Y36062211D01*
X12951402Y35960662D01*
X12878351Y35871649D01*
X12789338Y35798598D01*
X12687789Y35744319D01*
X12577593Y35710891D01*
X12456860Y35699000D01*
X11043140Y35699000D01*
X10922407Y35710891D01*
X10812211Y35744319D01*
X10710662Y35798598D01*
X10621649Y35871649D01*
X10548598Y35960662D01*
X10494319Y36062211D01*
X10460891Y36172407D01*
X10449000Y36293140D01*
X10449000Y37706860D01*
X10460891Y37827593D01*
X10494319Y37937789D01*
X10548598Y38039338D01*
X10621649Y38128351D01*
X10710662Y38201402D01*
X10812211Y38255681D01*
X10922407Y38289109D01*
X11043140Y38301000D01*
X12456860Y38301000D01*
X12577593Y38289109D01*
G37*
G36*
X5438953Y43206767D02*
G01*
X5656301Y43163534D01*
X6065775Y42993924D01*
X6434292Y42747689D01*
X6747689Y42434292D01*
X6993924Y42065775D01*
X7163534Y41656301D01*
X7250000Y41221606D01*
X7250000Y40778394D01*
X7163534Y40343699D01*
X6993924Y39934225D01*
X6747689Y39565708D01*
X6434292Y39252311D01*
X6065775Y39006076D01*
X5656301Y38836466D01*
X5221607Y38750000D01*
X4778393Y38750000D01*
X4343699Y38836466D01*
X3934225Y39006076D01*
X3565708Y39252311D01*
X3252311Y39565708D01*
X3006076Y39934225D01*
X2836466Y40343699D01*
X2750000Y40778394D01*
X2750000Y41221606D01*
X2836466Y41656301D01*
X3006076Y42065775D01*
X3252311Y42434292D01*
X3565708Y42747689D01*
X3934225Y42993924D01*
X4343699Y43163534D01*
X4561047Y43206767D01*
X4778393Y43250000D01*
X5221607Y43250000D01*
X5438953Y43206767D01*
G37*
G36*
X49438953Y43206767D02*
G01*
X49656301Y43163534D01*
X50065775Y42993924D01*
X50434292Y42747689D01*
X50747689Y42434292D01*
X50993924Y42065775D01*
X51163534Y41656301D01*
X51250000Y41221606D01*
X51250000Y40778394D01*
X51163534Y40343699D01*
X50993924Y39934225D01*
X50747689Y39565708D01*
X50434292Y39252311D01*
X50065775Y39006076D01*
X49656301Y38836466D01*
X49221607Y38750000D01*
X48778393Y38750000D01*
X48343699Y38836466D01*
X47934225Y39006076D01*
X47565708Y39252311D01*
X47252311Y39565708D01*
X47006076Y39934225D01*
X46836466Y40343699D01*
X46750000Y40778394D01*
X46750000Y41221606D01*
X46836466Y41656301D01*
X47006076Y42065775D01*
X47252311Y42434292D01*
X47565708Y42747689D01*
X47934225Y42993924D01*
X48343699Y43163534D01*
X48561047Y43206767D01*
X48778393Y43250000D01*
X49221607Y43250000D01*
X49438953Y43206767D01*
G37*
G36*
X50656301Y54163534D02*
G01*
X51065775Y53993924D01*
X51434292Y53747689D01*
X51747689Y53434292D01*
X51993924Y53065775D01*
X52163534Y52656301D01*
X52250000Y52221606D01*
X52250000Y51778394D01*
X52163534Y51343699D01*
X51993924Y50934225D01*
X51747689Y50565708D01*
X51434292Y50252311D01*
X51065775Y50006076D01*
X50656301Y49836466D01*
X50221607Y49750000D01*
X49778393Y49750000D01*
X49343699Y49836466D01*
X48934225Y50006076D01*
X48565708Y50252311D01*
X48252311Y50565708D01*
X48006076Y50934225D01*
X47836466Y51343699D01*
X47750000Y51778394D01*
X47750000Y52221606D01*
X47836466Y52656301D01*
X48006076Y53065775D01*
X48252311Y53434292D01*
X48565708Y53747689D01*
X48934225Y53993924D01*
X49343699Y54163534D01*
X49778393Y54250000D01*
X50221607Y54250000D01*
X50656301Y54163534D01*
G37*
G36*
X6656301Y54163534D02*
G01*
X7065775Y53993924D01*
X7434292Y53747689D01*
X7747689Y53434292D01*
X7993924Y53065775D01*
X8163534Y52656301D01*
X8250000Y52221606D01*
X8250000Y51778394D01*
X8163534Y51343699D01*
X7993924Y50934225D01*
X7747689Y50565708D01*
X7434292Y50252311D01*
X7065775Y50006076D01*
X6656301Y49836466D01*
X6221607Y49750000D01*
X5778393Y49750000D01*
X5343699Y49836466D01*
X4934225Y50006076D01*
X4565708Y50252311D01*
X4252311Y50565708D01*
X4006076Y50934225D01*
X3836466Y51343699D01*
X3750000Y51778394D01*
X3750000Y52221606D01*
X3836466Y52656301D01*
X4006076Y53065775D01*
X4252311Y53434292D01*
X4565708Y53747689D01*
X4934225Y53993924D01*
X5343699Y54163534D01*
X5778393Y54250000D01*
X6221607Y54250000D01*
X6656301Y54163534D01*
G37*
G36*
X44077593Y57289109D02*
G01*
X44187789Y57255681D01*
X44289338Y57201402D01*
X44378351Y57128351D01*
X44451402Y57039338D01*
X44505681Y56937789D01*
X44539109Y56827593D01*
X44551000Y56706860D01*
X44551000Y55293140D01*
X44539109Y55172407D01*
X44505681Y55062211D01*
X44451402Y54960662D01*
X44378351Y54871649D01*
X44289338Y54798598D01*
X44187789Y54744319D01*
X44077593Y54710891D01*
X43956860Y54699000D01*
X42543140Y54699000D01*
X42422407Y54710891D01*
X42312211Y54744319D01*
X42210662Y54798598D01*
X42121649Y54871649D01*
X42048598Y54960662D01*
X41994319Y55062211D01*
X41960891Y55172407D01*
X41949000Y55293140D01*
X41949000Y56706860D01*
X41960891Y56827593D01*
X41994319Y56937789D01*
X42048598Y57039338D01*
X42121649Y57128351D01*
X42210662Y57201402D01*
X42312211Y57255681D01*
X42422407Y57289109D01*
X42543140Y57301000D01*
X43956860Y57301000D01*
X44077593Y57289109D01*
G37*
G36*
X40577593Y57289109D02*
G01*
X40687789Y57255681D01*
X40789338Y57201402D01*
X40878351Y57128351D01*
X40951402Y57039338D01*
X41005681Y56937789D01*
X41039109Y56827593D01*
X41051000Y56706860D01*
X41051000Y55293140D01*
X41039109Y55172407D01*
X41005681Y55062211D01*
X40951402Y54960662D01*
X40878351Y54871649D01*
X40789338Y54798598D01*
X40687789Y54744319D01*
X40577593Y54710891D01*
X40456860Y54699000D01*
X39043140Y54699000D01*
X38922407Y54710891D01*
X38812211Y54744319D01*
X38710662Y54798598D01*
X38621649Y54871649D01*
X38548598Y54960662D01*
X38494319Y55062211D01*
X38460891Y55172407D01*
X38449000Y55293140D01*
X38449000Y56706860D01*
X38460891Y56827593D01*
X38494319Y56937789D01*
X38548598Y57039338D01*
X38621649Y57128351D01*
X38710662Y57201402D01*
X38812211Y57255681D01*
X38922407Y57289109D01*
X39043140Y57301000D01*
X40456860Y57301000D01*
X40577593Y57289109D01*
G37*
G36*
X50438953Y79206767D02*
G01*
X50656301Y79163534D01*
X51065775Y78993924D01*
X51434292Y78747689D01*
X51747689Y78434292D01*
X51993924Y78065775D01*
X52163534Y77656301D01*
X52250000Y77221606D01*
X52250000Y76778394D01*
X52163534Y76343699D01*
X51993924Y75934225D01*
X51747689Y75565708D01*
X51434292Y75252311D01*
X51065775Y75006076D01*
X50656301Y74836466D01*
X50438953Y74793233D01*
X50221607Y74750000D01*
X49778393Y74750000D01*
X49561047Y74793233D01*
X49343699Y74836466D01*
X48934225Y75006076D01*
X48565708Y75252311D01*
X48252311Y75565708D01*
X48006076Y75934225D01*
X47836466Y76343699D01*
X47750000Y76778394D01*
X47750000Y77221606D01*
X47836466Y77656301D01*
X48006076Y78065775D01*
X48252311Y78434292D01*
X48565708Y78747689D01*
X48934225Y78993924D01*
X49343699Y79163534D01*
X49561047Y79206767D01*
X49778393Y79250000D01*
X50221607Y79250000D01*
X50438953Y79206767D01*
G37*
G36*
X6438953Y79206767D02*
G01*
X6656301Y79163534D01*
X7065775Y78993924D01*
X7434292Y78747689D01*
X7747689Y78434292D01*
X7993924Y78065775D01*
X8163534Y77656301D01*
X8250000Y77221606D01*
X8250000Y76778394D01*
X8163534Y76343699D01*
X7993924Y75934225D01*
X7747689Y75565708D01*
X7434292Y75252311D01*
X7065775Y75006076D01*
X6656301Y74836466D01*
X6438953Y74793233D01*
X6221607Y74750000D01*
X5778393Y74750000D01*
X5561047Y74793233D01*
X5343699Y74836466D01*
X4934225Y75006076D01*
X4565708Y75252311D01*
X4252311Y75565708D01*
X4006076Y75934225D01*
X3836466Y76343699D01*
X3750000Y76778394D01*
X3750000Y77221606D01*
X3836466Y77656301D01*
X4006076Y78065775D01*
X4252311Y78434292D01*
X4565708Y78747689D01*
X4934225Y78993924D01*
X5343699Y79163534D01*
X5561047Y79206767D01*
X5778393Y79250000D01*
X6221607Y79250000D01*
X6438953Y79206767D01*
G37*
G36*
X51036031Y85785793D02*
G01*
X51234145Y85725695D01*
X51234148Y85725694D01*
X51300030Y85690479D01*
X51416729Y85628103D01*
X51576765Y85496765D01*
X51708103Y85336729D01*
X51708104Y85336727D01*
X51805694Y85154149D01*
X51805694Y85154148D01*
X51805695Y85154146D01*
X51865793Y84956032D01*
X51881000Y84801630D01*
X51881000Y83198370D01*
X51865793Y83043968D01*
X51805695Y82845854D01*
X51805694Y82845851D01*
X51753939Y82749025D01*
X51708103Y82663271D01*
X51576765Y82503235D01*
X51416729Y82371897D01*
X51330975Y82326061D01*
X51234149Y82274306D01*
X51234146Y82274305D01*
X51036032Y82214207D01*
X50830000Y82193915D01*
X50623969Y82214207D01*
X50425855Y82274305D01*
X50425852Y82274306D01*
X50329026Y82326061D01*
X50243272Y82371897D01*
X50083236Y82503235D01*
X49951898Y82663271D01*
X49917904Y82726870D01*
X49854305Y82845854D01*
X49794207Y83043967D01*
X49779000Y83198369D01*
X49779000Y84801630D01*
X49794207Y84956029D01*
X49794207Y84956031D01*
X49854305Y85154145D01*
X49854306Y85154148D01*
X49889521Y85220030D01*
X49951897Y85336729D01*
X50083235Y85496765D01*
X50243271Y85628103D01*
X50329025Y85673939D01*
X50425851Y85725694D01*
X50425854Y85725695D01*
X50623968Y85785793D01*
X50830000Y85806085D01*
X51036031Y85785793D01*
G37*
G36*
X45956031Y85785793D02*
G01*
X46154145Y85725695D01*
X46154148Y85725694D01*
X46220030Y85690479D01*
X46336729Y85628103D01*
X46496765Y85496765D01*
X46628103Y85336729D01*
X46628104Y85336727D01*
X46725694Y85154149D01*
X46725694Y85154148D01*
X46725695Y85154146D01*
X46785793Y84956032D01*
X46801000Y84801630D01*
X46801000Y83198370D01*
X46785793Y83043968D01*
X46725695Y82845854D01*
X46725694Y82845851D01*
X46673939Y82749025D01*
X46628103Y82663271D01*
X46496765Y82503235D01*
X46336729Y82371897D01*
X46250975Y82326061D01*
X46154149Y82274306D01*
X46154146Y82274305D01*
X45956032Y82214207D01*
X45750000Y82193915D01*
X45543969Y82214207D01*
X45345855Y82274305D01*
X45345852Y82274306D01*
X45249026Y82326061D01*
X45163272Y82371897D01*
X45003236Y82503235D01*
X44871898Y82663271D01*
X44837904Y82726870D01*
X44774305Y82845854D01*
X44714207Y83043967D01*
X44699000Y83198369D01*
X44699000Y84801630D01*
X44714207Y84956029D01*
X44714207Y84956031D01*
X44774305Y85154145D01*
X44774306Y85154148D01*
X44809521Y85220030D01*
X44871897Y85336729D01*
X45003235Y85496765D01*
X45163271Y85628103D01*
X45249025Y85673939D01*
X45345851Y85725694D01*
X45345854Y85725695D01*
X45543968Y85785793D01*
X45750000Y85806085D01*
X45956031Y85785793D01*
G37*
G36*
X4456031Y85785793D02*
G01*
X4654145Y85725695D01*
X4654148Y85725694D01*
X4720030Y85690479D01*
X4836729Y85628103D01*
X4996765Y85496765D01*
X5128103Y85336729D01*
X5128104Y85336727D01*
X5225694Y85154149D01*
X5225694Y85154148D01*
X5225695Y85154146D01*
X5285793Y84956032D01*
X5301000Y84801630D01*
X5301000Y83198370D01*
X5285793Y83043968D01*
X5225695Y82845854D01*
X5225694Y82845851D01*
X5173939Y82749025D01*
X5128103Y82663271D01*
X4996765Y82503235D01*
X4836729Y82371897D01*
X4750975Y82326061D01*
X4654149Y82274306D01*
X4654146Y82274305D01*
X4456032Y82214207D01*
X4250000Y82193915D01*
X4043969Y82214207D01*
X3845855Y82274305D01*
X3845852Y82274306D01*
X3749026Y82326061D01*
X3663272Y82371897D01*
X3503236Y82503235D01*
X3371898Y82663271D01*
X3337904Y82726870D01*
X3274305Y82845854D01*
X3214207Y83043967D01*
X3199000Y83198369D01*
X3199000Y84801630D01*
X3214207Y84956029D01*
X3214207Y84956031D01*
X3274305Y85154145D01*
X3274306Y85154148D01*
X3309521Y85220030D01*
X3371897Y85336729D01*
X3503235Y85496765D01*
X3663271Y85628103D01*
X3749025Y85673939D01*
X3845851Y85725694D01*
X3845854Y85725695D01*
X4043968Y85785793D01*
X4250000Y85806085D01*
X4456031Y85785793D01*
G37*
G36*
X9536031Y85785793D02*
G01*
X9734145Y85725695D01*
X9734148Y85725694D01*
X9800030Y85690479D01*
X9916729Y85628103D01*
X10076765Y85496765D01*
X10208103Y85336729D01*
X10208104Y85336727D01*
X10305694Y85154149D01*
X10305694Y85154148D01*
X10305695Y85154146D01*
X10365793Y84956032D01*
X10381000Y84801630D01*
X10381000Y83198370D01*
X10365793Y83043968D01*
X10305695Y82845854D01*
X10305694Y82845851D01*
X10253939Y82749025D01*
X10208103Y82663271D01*
X10076765Y82503235D01*
X9916729Y82371897D01*
X9830975Y82326061D01*
X9734149Y82274306D01*
X9734146Y82274305D01*
X9536032Y82214207D01*
X9330000Y82193915D01*
X9123969Y82214207D01*
X8925855Y82274305D01*
X8925852Y82274306D01*
X8829026Y82326061D01*
X8743272Y82371897D01*
X8583236Y82503235D01*
X8451898Y82663271D01*
X8417904Y82726870D01*
X8354305Y82845854D01*
X8294207Y83043967D01*
X8279000Y83198369D01*
X8279000Y84801630D01*
X8294207Y84956029D01*
X8294207Y84956031D01*
X8354305Y85154145D01*
X8354306Y85154148D01*
X8389521Y85220030D01*
X8451897Y85336729D01*
X8583235Y85496765D01*
X8743271Y85628103D01*
X8829025Y85673939D01*
X8925851Y85725694D01*
X8925854Y85725695D01*
X9123968Y85785793D01*
X9330000Y85806085D01*
X9536031Y85785793D01*
G37*
M02*
