G04 #@! TF.GenerationSoftware,KiCad,Pcbnew,(5.1.5)-3*
G04 #@! TF.CreationDate,2020-02-03T09:46:18+01:00*
G04 #@! TF.ProjectId,Chopper_v2,43686f70-7065-4725-9f76-322e6b696361,rev?*
G04 #@! TF.SameCoordinates,PXc65d40PYb71b000*
G04 #@! TF.FileFunction,Legend,Top*
G04 #@! TF.FilePolarity,Positive*
%FSLAX46Y46*%
G04 Gerber Fmt 4.6, Leading zero omitted, Abs format (unit mm)*
G04 Created by KiCad (PCBNEW (5.1.5)-3) date 2020-02-03 09:46:18*
%MOMM*%
%LPD*%
G04 APERTURE LIST*
%ADD10C,0.300000*%
%ADD11C,0.150000*%
%ADD12C,0.120000*%
%ADD13C,0.200000*%
G04 APERTURE END LIST*
D10*
X47761904Y56142858D02*
X46238095Y56142858D01*
X47000000Y56904762D02*
X47000000Y55380953D01*
X24321428Y87285715D02*
X24392857Y87357143D01*
X24607142Y87428572D01*
X24750000Y87428572D01*
X24964285Y87357143D01*
X25107142Y87214286D01*
X25178571Y87071429D01*
X25250000Y86785715D01*
X25250000Y86571429D01*
X25178571Y86285715D01*
X25107142Y86142858D01*
X24964285Y86000000D01*
X24750000Y85928572D01*
X24607142Y85928572D01*
X24392857Y86000000D01*
X24321428Y86071429D01*
X23678571Y87428572D02*
X23678571Y85928572D01*
X23035714Y87428572D02*
X23035714Y86642858D01*
X23107142Y86500000D01*
X23250000Y86428572D01*
X23464285Y86428572D01*
X23607142Y86500000D01*
X23678571Y86571429D01*
X22107142Y87428572D02*
X22250000Y87357143D01*
X22321428Y87285715D01*
X22392857Y87142858D01*
X22392857Y86714286D01*
X22321428Y86571429D01*
X22250000Y86500000D01*
X22107142Y86428572D01*
X21892857Y86428572D01*
X21750000Y86500000D01*
X21678571Y86571429D01*
X21607142Y86714286D01*
X21607142Y87142858D01*
X21678571Y87285715D01*
X21750000Y87357143D01*
X21892857Y87428572D01*
X22107142Y87428572D01*
X20964285Y86428572D02*
X20964285Y87928572D01*
X20964285Y86500000D02*
X20821428Y86428572D01*
X20535714Y86428572D01*
X20392857Y86500000D01*
X20321428Y86571429D01*
X20250000Y86714286D01*
X20250000Y87142858D01*
X20321428Y87285715D01*
X20392857Y87357143D01*
X20535714Y87428572D01*
X20821428Y87428572D01*
X20964285Y87357143D01*
X19607142Y86428572D02*
X19607142Y87928572D01*
X19607142Y86500000D02*
X19464285Y86428572D01*
X19178571Y86428572D01*
X19035714Y86500000D01*
X18964285Y86571429D01*
X18892857Y86714286D01*
X18892857Y87142858D01*
X18964285Y87285715D01*
X19035714Y87357143D01*
X19178571Y87428572D01*
X19464285Y87428572D01*
X19607142Y87357143D01*
X17678571Y87357143D02*
X17821428Y87428572D01*
X18107142Y87428572D01*
X18249999Y87357143D01*
X18321428Y87214286D01*
X18321428Y86642858D01*
X18249999Y86500000D01*
X18107142Y86428572D01*
X17821428Y86428572D01*
X17678571Y86500000D01*
X17607142Y86642858D01*
X17607142Y86785715D01*
X18321428Y86928572D01*
X16964285Y87428572D02*
X16964285Y86428572D01*
X16964285Y86714286D02*
X16892857Y86571429D01*
X16821428Y86500000D01*
X16678571Y86428572D01*
X16535714Y86428572D01*
X14892857Y87428572D02*
X14892857Y85928572D01*
X14178571Y87428572D02*
X14178571Y85928572D01*
X13321428Y87428572D01*
X13321428Y85928572D01*
X36261904Y56142858D02*
X34738095Y56142858D01*
X5011904Y80642858D02*
X3488095Y80642858D01*
X4250000Y81404762D02*
X4250000Y79880953D01*
X10011904Y80642858D02*
X8488095Y80642858D01*
X46511904Y80642858D02*
X44988095Y80642858D01*
X45750000Y81404762D02*
X45750000Y79880953D01*
X41857142Y87428572D02*
X41857142Y85928572D01*
X41500000Y85928572D01*
X41285714Y86000000D01*
X41142857Y86142858D01*
X41071428Y86285715D01*
X41000000Y86571429D01*
X41000000Y86785715D01*
X41071428Y87071429D01*
X41142857Y87214286D01*
X41285714Y87357143D01*
X41500000Y87428572D01*
X41857142Y87428572D01*
X39500000Y87285715D02*
X39571428Y87357143D01*
X39785714Y87428572D01*
X39928571Y87428572D01*
X40142857Y87357143D01*
X40285714Y87214286D01*
X40357142Y87071429D01*
X40428571Y86785715D01*
X40428571Y86571429D01*
X40357142Y86285715D01*
X40285714Y86142858D01*
X40142857Y86000000D01*
X39928571Y85928572D01*
X39785714Y85928572D01*
X39571428Y86000000D01*
X39500000Y86071429D01*
X37714285Y87428572D02*
X37714285Y85928572D01*
X37000000Y87428572D02*
X37000000Y85928572D01*
X36142857Y87428572D01*
X36142857Y85928572D01*
X51511904Y80642858D02*
X49988095Y80642858D01*
X33928571Y55750000D02*
X34000000Y55678572D01*
X34071428Y55535715D01*
X34071428Y55178572D01*
X34000000Y55035715D01*
X33928571Y54964286D01*
X33785714Y54892858D01*
X33642857Y54892858D01*
X33428571Y54964286D01*
X32571428Y55821429D01*
X32571428Y54892858D01*
X33571428Y53607143D02*
X32571428Y53607143D01*
X34142857Y53964286D02*
X33071428Y54321429D01*
X33071428Y53392858D01*
X34071428Y53035715D02*
X32571428Y52535715D01*
X34071428Y52035715D01*
X32571428Y50392858D02*
X34071428Y50392858D01*
X32571428Y49678572D02*
X34071428Y49678572D01*
X32571428Y48821429D01*
X34071428Y48821429D01*
X24035714Y90107143D02*
X22892857Y90107143D01*
X23464285Y90678572D02*
X23464285Y89535715D01*
X21035714Y90678572D02*
X21035714Y89178572D01*
X20392857Y90607143D02*
X20178571Y90678572D01*
X19821428Y90678572D01*
X19678571Y90607143D01*
X19607142Y90535715D01*
X19535714Y90392858D01*
X19535714Y90250000D01*
X19607142Y90107143D01*
X19678571Y90035715D01*
X19821428Y89964286D01*
X20107142Y89892858D01*
X20250000Y89821429D01*
X20321428Y89750000D01*
X20392857Y89607143D01*
X20392857Y89464286D01*
X20321428Y89321429D01*
X20250000Y89250000D01*
X20107142Y89178572D01*
X19750000Y89178572D01*
X19535714Y89250000D01*
X17750000Y90678572D02*
X17750000Y89178572D01*
X17750000Y89892858D02*
X16892857Y89892858D01*
X16892857Y90678572D02*
X16892857Y89178572D01*
X15892857Y89178572D02*
X15607142Y89178572D01*
X15464285Y89250000D01*
X15321428Y89392858D01*
X15250000Y89678572D01*
X15250000Y90178572D01*
X15321428Y90464286D01*
X15464285Y90607143D01*
X15607142Y90678572D01*
X15892857Y90678572D01*
X16035714Y90607143D01*
X16178571Y90464286D01*
X16250000Y90178572D01*
X16250000Y89678572D01*
X16178571Y89392858D01*
X16035714Y89250000D01*
X15892857Y89178572D01*
X14821428Y89178572D02*
X13964285Y89178572D01*
X14392857Y90678572D02*
X14392857Y89178572D01*
X13464285Y90535715D02*
X13392857Y90607143D01*
X13464285Y90678572D01*
X13535714Y90607143D01*
X13464285Y90535715D01*
X13464285Y90678572D01*
X13464285Y90107143D02*
X13535714Y89250000D01*
X13464285Y89178572D01*
X13392857Y89250000D01*
X13464285Y90107143D01*
X13464285Y89178572D01*
X21071428Y37250000D02*
X21000000Y37321429D01*
X20928571Y37464286D01*
X20928571Y37821429D01*
X21000000Y37964286D01*
X21071428Y38035715D01*
X21214285Y38107143D01*
X21357142Y38107143D01*
X21571428Y38035715D01*
X22428571Y37178572D01*
X22428571Y38107143D01*
X21428571Y39392858D02*
X22428571Y39392858D01*
X20857142Y39035715D02*
X21928571Y38678572D01*
X21928571Y39607143D01*
X20928571Y39964286D02*
X22428571Y40464286D01*
X20928571Y40964286D01*
X22428571Y42607143D02*
X20928571Y42607143D01*
X22428571Y43321429D02*
X20928571Y43321429D01*
X22428571Y44178572D01*
X20928571Y44178572D01*
X18738095Y36857143D02*
X20261904Y36857143D01*
X7238095Y36857143D02*
X8761904Y36857143D01*
X8000000Y36095239D02*
X8000000Y37619048D01*
X3488095Y12357143D02*
X5011904Y12357143D01*
X49988095Y12357143D02*
X51511904Y12357143D01*
X50750000Y11595239D02*
X50750000Y13119048D01*
X44988095Y12357143D02*
X46511904Y12357143D01*
X8488095Y12357143D02*
X10011904Y12357143D01*
X9250000Y11595239D02*
X9250000Y13119048D01*
X30964285Y2892858D02*
X32107142Y2892858D01*
X31535714Y2321429D02*
X31535714Y3464286D01*
X33964285Y2321429D02*
X33964285Y3821429D01*
X34607142Y2392858D02*
X34821428Y2321429D01*
X35178571Y2321429D01*
X35321428Y2392858D01*
X35392857Y2464286D01*
X35464285Y2607143D01*
X35464285Y2750000D01*
X35392857Y2892858D01*
X35321428Y2964286D01*
X35178571Y3035715D01*
X34892857Y3107143D01*
X34750000Y3178572D01*
X34678571Y3250000D01*
X34607142Y3392858D01*
X34607142Y3535715D01*
X34678571Y3678572D01*
X34750000Y3750000D01*
X34892857Y3821429D01*
X35250000Y3821429D01*
X35464285Y3750000D01*
X37250000Y2321429D02*
X37250000Y3821429D01*
X37250000Y3107143D02*
X38107142Y3107143D01*
X38107142Y2321429D02*
X38107142Y3821429D01*
X39107142Y3821429D02*
X39392857Y3821429D01*
X39535714Y3750000D01*
X39678571Y3607143D01*
X39750000Y3321429D01*
X39750000Y2821429D01*
X39678571Y2535715D01*
X39535714Y2392858D01*
X39392857Y2321429D01*
X39107142Y2321429D01*
X38964285Y2392858D01*
X38821428Y2535715D01*
X38750000Y2821429D01*
X38750000Y3321429D01*
X38821428Y3607143D01*
X38964285Y3750000D01*
X39107142Y3821429D01*
X40178571Y3821429D02*
X41035714Y3821429D01*
X40607142Y2321429D02*
X40607142Y3821429D01*
X41535714Y2464286D02*
X41607142Y2392858D01*
X41535714Y2321429D01*
X41464285Y2392858D01*
X41535714Y2464286D01*
X41535714Y2321429D01*
X41535714Y2892858D02*
X41464285Y3750000D01*
X41535714Y3821429D01*
X41607142Y3750000D01*
X41535714Y2892858D01*
X41535714Y3821429D01*
X30678571Y5714286D02*
X30607142Y5642858D01*
X30392857Y5571429D01*
X30250000Y5571429D01*
X30035714Y5642858D01*
X29892857Y5785715D01*
X29821428Y5928572D01*
X29750000Y6214286D01*
X29750000Y6428572D01*
X29821428Y6714286D01*
X29892857Y6857143D01*
X30035714Y7000000D01*
X30250000Y7071429D01*
X30392857Y7071429D01*
X30607142Y7000000D01*
X30678571Y6928572D01*
X31321428Y5571429D02*
X31321428Y7071429D01*
X31964285Y5571429D02*
X31964285Y6357143D01*
X31892857Y6500000D01*
X31750000Y6571429D01*
X31535714Y6571429D01*
X31392857Y6500000D01*
X31321428Y6428572D01*
X32892857Y5571429D02*
X32750000Y5642858D01*
X32678571Y5714286D01*
X32607142Y5857143D01*
X32607142Y6285715D01*
X32678571Y6428572D01*
X32750000Y6500000D01*
X32892857Y6571429D01*
X33107142Y6571429D01*
X33250000Y6500000D01*
X33321428Y6428572D01*
X33392857Y6285715D01*
X33392857Y5857143D01*
X33321428Y5714286D01*
X33250000Y5642858D01*
X33107142Y5571429D01*
X32892857Y5571429D01*
X34035714Y6571429D02*
X34035714Y5071429D01*
X34035714Y6500000D02*
X34178571Y6571429D01*
X34464285Y6571429D01*
X34607142Y6500000D01*
X34678571Y6428572D01*
X34750000Y6285715D01*
X34750000Y5857143D01*
X34678571Y5714286D01*
X34607142Y5642858D01*
X34464285Y5571429D01*
X34178571Y5571429D01*
X34035714Y5642858D01*
X35392857Y6571429D02*
X35392857Y5071429D01*
X35392857Y6500000D02*
X35535714Y6571429D01*
X35821428Y6571429D01*
X35964285Y6500000D01*
X36035714Y6428572D01*
X36107142Y6285715D01*
X36107142Y5857143D01*
X36035714Y5714286D01*
X35964285Y5642858D01*
X35821428Y5571429D01*
X35535714Y5571429D01*
X35392857Y5642858D01*
X37321428Y5642858D02*
X37178571Y5571429D01*
X36892857Y5571429D01*
X36750000Y5642858D01*
X36678571Y5785715D01*
X36678571Y6357143D01*
X36750000Y6500000D01*
X36892857Y6571429D01*
X37178571Y6571429D01*
X37321428Y6500000D01*
X37392857Y6357143D01*
X37392857Y6214286D01*
X36678571Y6071429D01*
X38035714Y5571429D02*
X38035714Y6571429D01*
X38035714Y6285715D02*
X38107142Y6428572D01*
X38178571Y6500000D01*
X38321428Y6571429D01*
X38464285Y6571429D01*
X40107142Y5571429D02*
X40107142Y7071429D01*
X40821428Y5571429D02*
X40821428Y7071429D01*
X41678571Y5571429D01*
X41678571Y7071429D01*
X13142857Y5571429D02*
X13142857Y7071429D01*
X13500000Y7071429D01*
X13714285Y7000000D01*
X13857142Y6857143D01*
X13928571Y6714286D01*
X14000000Y6428572D01*
X14000000Y6214286D01*
X13928571Y5928572D01*
X13857142Y5785715D01*
X13714285Y5642858D01*
X13500000Y5571429D01*
X13142857Y5571429D01*
X15500000Y5714286D02*
X15428571Y5642858D01*
X15214285Y5571429D01*
X15071428Y5571429D01*
X14857142Y5642858D01*
X14714285Y5785715D01*
X14642857Y5928572D01*
X14571428Y6214286D01*
X14571428Y6428572D01*
X14642857Y6714286D01*
X14714285Y6857143D01*
X14857142Y7000000D01*
X15071428Y7071429D01*
X15214285Y7071429D01*
X15428571Y7000000D01*
X15500000Y6928572D01*
X17285714Y5571429D02*
X17285714Y7071429D01*
X18000000Y5571429D02*
X18000000Y7071429D01*
X18857142Y5571429D01*
X18857142Y7071429D01*
D11*
X9650000Y67000000D02*
X8850000Y67000000D01*
X9650000Y68000000D02*
X8850000Y68000000D01*
X9650000Y66700000D02*
X9650000Y68300000D01*
X8850000Y66700000D02*
X9650000Y66700000D01*
X8850000Y68300000D02*
X8850000Y66700000D01*
X9650000Y68300000D02*
X8850000Y68300000D01*
X1110000Y82000000D02*
X12470000Y82000000D01*
X12470000Y82000000D02*
X12470000Y94000000D01*
X12470000Y94000000D02*
X1110000Y94000000D01*
X1110000Y94000000D02*
X1110000Y82000000D01*
X30000000Y54900000D02*
X30000000Y53625000D01*
X29000000Y54875000D02*
X29000000Y53625000D01*
X30500000Y54875000D02*
X28500000Y54875000D01*
X30500000Y53625000D02*
X30500000Y54875000D01*
X28500000Y53625000D02*
X30500000Y53625000D01*
X28500000Y54875000D02*
X28500000Y53625000D01*
X9000000Y52000000D02*
G75*
G03X9000000Y52000000I-3000000J0D01*
G01*
X37300000Y48000000D02*
X45700000Y48000000D01*
X45700000Y57200000D02*
X45700000Y48000000D01*
X37300000Y57200000D02*
X45700000Y57200000D01*
X37300000Y48000000D02*
X37300000Y57200000D01*
X20125000Y52000000D02*
X18875000Y52000000D01*
X18875000Y52000000D02*
X18875000Y50000000D01*
X18875000Y50000000D02*
X20125000Y50000000D01*
X20125000Y50000000D02*
X20125000Y52000000D01*
X20125000Y51500000D02*
X18875000Y51500000D01*
X20150000Y50500000D02*
X18875000Y50500000D01*
X6250000Y59400000D02*
X6250000Y58125000D01*
X5250000Y59375000D02*
X5250000Y58125000D01*
X6750000Y59375000D02*
X4750000Y59375000D01*
X6750000Y58125000D02*
X6750000Y59375000D01*
X4750000Y58125000D02*
X6750000Y58125000D01*
X4750000Y59375000D02*
X4750000Y58125000D01*
X7100000Y62250000D02*
X8375000Y62250000D01*
X7125000Y61250000D02*
X8375000Y61250000D01*
X7125000Y62750000D02*
X7125000Y60750000D01*
X8375000Y62750000D02*
X7125000Y62750000D01*
X8375000Y60750000D02*
X8375000Y62750000D01*
X7125000Y60750000D02*
X8375000Y60750000D01*
X53000000Y52000000D02*
G75*
G03X53000000Y52000000I-3000000J0D01*
G01*
X9000000Y77000000D02*
G75*
G03X9000000Y77000000I-3000000J0D01*
G01*
X53000000Y77000000D02*
G75*
G03X53000000Y77000000I-3000000J0D01*
G01*
X16400000Y50500000D02*
X15125000Y50500000D01*
X16375000Y51500000D02*
X15125000Y51500000D01*
X16375000Y50000000D02*
X16375000Y52000000D01*
X15125000Y50000000D02*
X16375000Y50000000D01*
X15125000Y52000000D02*
X15125000Y50000000D01*
X16375000Y52000000D02*
X15125000Y52000000D01*
X35575000Y66850000D02*
X35575000Y63650000D01*
X35575000Y63650000D02*
X41925000Y63650000D01*
X41925000Y63650000D02*
X41925000Y66850000D01*
X41925000Y66850000D02*
X35575000Y66850000D01*
X36175000Y66850000D02*
X36175000Y63650000D01*
X41325000Y63650000D02*
X41325000Y66850000D01*
D12*
X45050000Y58450000D02*
X46800000Y58450000D01*
X45000000Y62035000D02*
X45000000Y62685000D01*
X37950000Y62035000D02*
X37950000Y62685000D01*
X38000000Y57785000D02*
X38000000Y58435000D01*
X45000000Y62685000D02*
X37950000Y62685000D01*
X38000000Y57785000D02*
X45050000Y57785000D01*
X45050000Y57785000D02*
X45050000Y58435000D01*
D11*
X18125000Y52000000D02*
X16875000Y52000000D01*
X16875000Y52000000D02*
X16875000Y50000000D01*
X16875000Y50000000D02*
X18125000Y50000000D01*
X18125000Y50000000D02*
X18125000Y52000000D01*
X18125000Y51500000D02*
X16875000Y51500000D01*
X18150000Y50500000D02*
X16875000Y50500000D01*
X6150000Y61250000D02*
X4875000Y61250000D01*
X6125000Y62250000D02*
X4875000Y62250000D01*
X6125000Y60750000D02*
X6125000Y62750000D01*
X4875000Y60750000D02*
X6125000Y60750000D01*
X4875000Y62750000D02*
X4875000Y60750000D01*
X6125000Y62750000D02*
X4875000Y62750000D01*
X14650000Y51800000D02*
X13850000Y51800000D01*
X13850000Y51800000D02*
X13850000Y50200000D01*
X13850000Y50200000D02*
X14650000Y50200000D01*
X14650000Y50200000D02*
X14650000Y51800000D01*
X14650000Y51500000D02*
X13850000Y51500000D01*
X14650000Y50500000D02*
X13850000Y50500000D01*
X24150000Y50500000D02*
X22875000Y50500000D01*
X24125000Y51500000D02*
X22875000Y51500000D01*
X24125000Y50000000D02*
X24125000Y52000000D01*
X22875000Y50000000D02*
X24125000Y50000000D01*
X22875000Y52000000D02*
X22875000Y50000000D01*
X24125000Y52000000D02*
X22875000Y52000000D01*
X7250000Y71750000D02*
X7250000Y70250000D01*
X8500000Y71750000D02*
X7250000Y71750000D01*
X8500000Y70250000D02*
X8500000Y71750000D01*
X8500000Y66000000D02*
X8500000Y70000000D01*
X3500000Y66000000D02*
X8500000Y66000000D01*
X3500000Y70000000D02*
X3500000Y66000000D01*
X8500000Y70000000D02*
X3500000Y70000000D01*
X23500000Y66150000D02*
X23500000Y64875000D01*
X22500000Y66125000D02*
X22500000Y64875000D01*
X24000000Y66125000D02*
X22000000Y66125000D01*
X24000000Y64875000D02*
X24000000Y66125000D01*
X22000000Y64875000D02*
X24000000Y64875000D01*
X22000000Y66125000D02*
X22000000Y64875000D01*
X34125000Y59000000D02*
X35375000Y59000000D01*
X35375000Y59000000D02*
X35375000Y61000000D01*
X35375000Y61000000D02*
X34125000Y61000000D01*
X34125000Y61000000D02*
X34125000Y59000000D01*
X34125000Y59500000D02*
X35375000Y59500000D01*
X34100000Y60500000D02*
X35375000Y60500000D01*
X22150000Y50500000D02*
X20875000Y50500000D01*
X22125000Y51500000D02*
X20875000Y51500000D01*
X22125000Y50000000D02*
X22125000Y52000000D01*
X20875000Y50000000D02*
X22125000Y50000000D01*
X20875000Y52000000D02*
X20875000Y50000000D01*
X22125000Y52000000D02*
X20875000Y52000000D01*
X48250000Y59625000D02*
X48250000Y58375000D01*
X48250000Y58375000D02*
X50250000Y58375000D01*
X50250000Y58375000D02*
X50250000Y59625000D01*
X50250000Y59625000D02*
X48250000Y59625000D01*
X48750000Y59625000D02*
X48750000Y58375000D01*
X49750000Y59650000D02*
X49750000Y58375000D01*
X9646447Y57121320D02*
X9823223Y57298097D01*
X9292893Y57474874D02*
X9469670Y57651650D01*
X7348350Y55530330D02*
X7525126Y55707107D01*
X9469670Y57651650D02*
X12651650Y54469670D01*
X7348350Y55530330D02*
X10530330Y52348350D01*
X12474874Y54292893D02*
X12651650Y54469670D01*
X10530330Y52348350D02*
X10707107Y52525126D01*
X7701903Y55176777D02*
X7878680Y55353553D01*
X8939340Y57828427D02*
X8232233Y58535534D01*
X8232233Y58535534D02*
X6464466Y56767767D01*
X6464466Y56767767D02*
X7171573Y56060660D01*
X13750000Y64250000D02*
X14750000Y64250000D01*
X13750000Y66750000D02*
X13750000Y64250000D01*
X14750000Y66750000D02*
X13750000Y66750000D01*
X15750000Y64000000D02*
X15750000Y64250000D01*
X19750000Y64000000D02*
X19750000Y64250000D01*
X19750000Y66750000D02*
X19750000Y67000000D01*
X15250000Y64000000D02*
X19750000Y64000000D01*
X15250000Y67000000D02*
X19750000Y67000000D01*
X15250000Y64000000D02*
X15250000Y64250000D01*
X15250000Y66750000D02*
X15250000Y67000000D01*
X15750000Y66750000D02*
X15750000Y67000000D01*
X20450000Y58750000D02*
G75*
G03X20450000Y58750000I-4700000J0D01*
G01*
X12214466Y64265433D02*
X10234567Y62285534D01*
X10234567Y62285534D02*
X11365938Y56487258D01*
X11365938Y56487258D02*
X13487258Y54365938D01*
X13487258Y54365938D02*
X19285534Y53234567D01*
X19285534Y53234567D02*
X21265433Y55214466D01*
X21265433Y55214466D02*
X20134062Y61012742D01*
X20134062Y61012742D02*
X18012742Y63134062D01*
X18012742Y63134062D02*
X12214466Y64265433D01*
X13275126Y64406854D02*
X12037689Y64583631D01*
X12037689Y64583631D02*
X9916369Y62462311D01*
X9916369Y62462311D02*
X10093146Y61224874D01*
X42610000Y94000000D02*
X42610000Y82000000D01*
X53970000Y94000000D02*
X42610000Y94000000D01*
X53970000Y82000000D02*
X53970000Y94000000D01*
X42610000Y82000000D02*
X53970000Y82000000D01*
X32100000Y60500000D02*
X33375000Y60500000D01*
X32125000Y59500000D02*
X33375000Y59500000D01*
X32125000Y61000000D02*
X32125000Y59000000D01*
X33375000Y61000000D02*
X32125000Y61000000D01*
X33375000Y59000000D02*
X33375000Y61000000D01*
X32125000Y59000000D02*
X33375000Y59000000D01*
X2150000Y79250000D02*
X875000Y79250000D01*
X2125000Y80250000D02*
X875000Y80250000D01*
X2125000Y78750000D02*
X2125000Y80750000D01*
X875000Y78750000D02*
X2125000Y78750000D01*
X875000Y80750000D02*
X875000Y78750000D01*
X2125000Y80750000D02*
X875000Y80750000D01*
D12*
X23800000Y71050000D02*
X23800000Y69550000D01*
X23800000Y69550000D02*
X25610000Y69550000D01*
X25610000Y69550000D02*
X25610000Y64425000D01*
X34200000Y71050000D02*
X34200000Y69550000D01*
X34200000Y69550000D02*
X32390000Y69550000D01*
X32390000Y69550000D02*
X32390000Y68450000D01*
X26065000Y61600000D02*
X26065000Y57515000D01*
X26065000Y57515000D02*
X27935000Y57515000D01*
X27935000Y57515000D02*
X27935000Y61600000D01*
X25090000Y52000000D02*
X25090000Y49115000D01*
X25090000Y49115000D02*
X26910000Y49115000D01*
X26910000Y49115000D02*
X26910000Y52000000D01*
X17650000Y84800000D02*
X13350000Y84800000D01*
X13350000Y84800000D02*
X13350000Y79100000D01*
X17650000Y84800000D02*
X17650000Y79100000D01*
X27590000Y52000000D02*
X27590000Y49115000D01*
X27590000Y49115000D02*
X29410000Y49115000D01*
X29410000Y49115000D02*
X29410000Y52000000D01*
X15500000Y67500000D02*
X15500000Y81500000D01*
X42500000Y67500000D02*
X35000000Y67500000D01*
X42500000Y81500000D02*
X42500000Y67500000D01*
X23000000Y67500000D02*
X15500000Y67500000D01*
X42500000Y81500000D02*
X35000000Y81500000D01*
X23000000Y81500000D02*
X15500000Y81500000D01*
X29065000Y61600000D02*
X29065000Y57515000D01*
X29065000Y57515000D02*
X30935000Y57515000D01*
X30935000Y57515000D02*
X30935000Y61600000D01*
D11*
X2750000Y69500000D02*
X750000Y69500000D01*
X2750000Y72500000D02*
X750000Y72500000D01*
X2750000Y68700000D02*
X2750000Y73300000D01*
X750000Y68700000D02*
X2750000Y68700000D01*
X750000Y73300000D02*
X750000Y68700000D01*
X2750000Y73300000D02*
X750000Y73300000D01*
X22500000Y62600000D02*
X22500000Y63875000D01*
X23500000Y62625000D02*
X23500000Y63875000D01*
X22000000Y62625000D02*
X24000000Y62625000D01*
X22000000Y63875000D02*
X22000000Y62625000D01*
X24000000Y63875000D02*
X22000000Y63875000D01*
X24000000Y62625000D02*
X24000000Y63875000D01*
X49750000Y61650000D02*
X49750000Y60375000D01*
X48750000Y61625000D02*
X48750000Y60375000D01*
X50250000Y61625000D02*
X48250000Y61625000D01*
X50250000Y60375000D02*
X50250000Y61625000D01*
X48250000Y60375000D02*
X50250000Y60375000D01*
X48250000Y61625000D02*
X48250000Y60375000D01*
X31000000Y30375000D02*
X31000000Y29125000D01*
X31000000Y29125000D02*
X33000000Y29125000D01*
X33000000Y29125000D02*
X33000000Y30375000D01*
X33000000Y30375000D02*
X31000000Y30375000D01*
X31500000Y30375000D02*
X31500000Y29125000D01*
X32500000Y30400000D02*
X32500000Y29125000D01*
X6750000Y31375000D02*
X6750000Y32625000D01*
X6750000Y32625000D02*
X4750000Y32625000D01*
X4750000Y32625000D02*
X4750000Y31375000D01*
X4750000Y31375000D02*
X6750000Y31375000D01*
X6250000Y31375000D02*
X6250000Y32625000D01*
X5250000Y31350000D02*
X5250000Y32625000D01*
X52875000Y12250000D02*
X54125000Y12250000D01*
X54125000Y12250000D02*
X54125000Y14250000D01*
X54125000Y14250000D02*
X52875000Y14250000D01*
X52875000Y14250000D02*
X52875000Y12250000D01*
X52875000Y12750000D02*
X54125000Y12750000D01*
X52850000Y13750000D02*
X54125000Y13750000D01*
X52250000Y19700000D02*
X54250000Y19700000D01*
X54250000Y19700000D02*
X54250000Y24300000D01*
X54250000Y24300000D02*
X52250000Y24300000D01*
X52250000Y24300000D02*
X52250000Y19700000D01*
X52250000Y20500000D02*
X54250000Y20500000D01*
X52250000Y23500000D02*
X54250000Y23500000D01*
D12*
X32000000Y11500000D02*
X39500000Y11500000D01*
X12500000Y11500000D02*
X20000000Y11500000D01*
X32000000Y25500000D02*
X39500000Y25500000D01*
X12500000Y11500000D02*
X12500000Y25500000D01*
X12500000Y25500000D02*
X20000000Y25500000D01*
X39500000Y25500000D02*
X39500000Y11500000D01*
X24065000Y35485000D02*
X24065000Y31400000D01*
X25935000Y35485000D02*
X24065000Y35485000D01*
X25935000Y31400000D02*
X25935000Y35485000D01*
X37350000Y8200000D02*
X37350000Y13900000D01*
X41650000Y8200000D02*
X41650000Y13900000D01*
X37350000Y8200000D02*
X41650000Y8200000D01*
X27065000Y35485000D02*
X27065000Y31400000D01*
X28935000Y35485000D02*
X27065000Y35485000D01*
X28935000Y31400000D02*
X28935000Y35485000D01*
X28090000Y43885000D02*
X28090000Y41000000D01*
X29910000Y43885000D02*
X28090000Y43885000D01*
X29910000Y41000000D02*
X29910000Y43885000D01*
X25590000Y43885000D02*
X25590000Y41000000D01*
X27410000Y43885000D02*
X25590000Y43885000D01*
X27410000Y41000000D02*
X27410000Y43885000D01*
X22610000Y23450000D02*
X22610000Y24550000D01*
X20800000Y23450000D02*
X22610000Y23450000D01*
X20800000Y21950000D02*
X20800000Y23450000D01*
X29390000Y23450000D02*
X29390000Y28575000D01*
X31200000Y23450000D02*
X29390000Y23450000D01*
X31200000Y21950000D02*
X31200000Y23450000D01*
X9950000Y35215000D02*
X9950000Y34565000D01*
X17000000Y35215000D02*
X9950000Y35215000D01*
X10000000Y30315000D02*
X17050000Y30315000D01*
X17000000Y35215000D02*
X17000000Y34565000D01*
X17050000Y30965000D02*
X17050000Y30315000D01*
X10000000Y30965000D02*
X10000000Y30315000D01*
X9950000Y34550000D02*
X8200000Y34550000D01*
D11*
X48875000Y30250000D02*
X50125000Y30250000D01*
X50125000Y30250000D02*
X50125000Y32250000D01*
X50125000Y32250000D02*
X48875000Y32250000D01*
X48875000Y32250000D02*
X48875000Y30250000D01*
X48875000Y30750000D02*
X50125000Y30750000D01*
X48850000Y31750000D02*
X50125000Y31750000D01*
X50250000Y33625000D02*
X50250000Y34875000D01*
X50250000Y34875000D02*
X48250000Y34875000D01*
X48250000Y34875000D02*
X48250000Y33625000D01*
X48250000Y33625000D02*
X50250000Y33625000D01*
X49750000Y33625000D02*
X49750000Y34875000D01*
X48750000Y33600000D02*
X48750000Y34875000D01*
X38625000Y41000000D02*
X39875000Y41000000D01*
X39875000Y41000000D02*
X39875000Y43000000D01*
X39875000Y43000000D02*
X38625000Y43000000D01*
X38625000Y43000000D02*
X38625000Y41000000D01*
X38625000Y41500000D02*
X39875000Y41500000D01*
X38600000Y42500000D02*
X39875000Y42500000D01*
X13675000Y29350000D02*
X13675000Y26150000D01*
X18825000Y26150000D02*
X18825000Y29350000D01*
X13075000Y26150000D02*
X19425000Y26150000D01*
X13075000Y29350000D02*
X13075000Y26150000D01*
X19425000Y29350000D02*
X13075000Y29350000D01*
X19425000Y26150000D02*
X19425000Y29350000D01*
X17700000Y45000000D02*
X17700000Y35800000D01*
X17700000Y35800000D02*
X9300000Y35800000D01*
X9300000Y35800000D02*
X9300000Y45000000D01*
X17700000Y45000000D02*
X9300000Y45000000D01*
X52000000Y16000000D02*
G75*
G03X52000000Y16000000I-3000000J0D01*
G01*
X8000000Y16000000D02*
G75*
G03X8000000Y16000000I-3000000J0D01*
G01*
X8000000Y41000000D02*
G75*
G03X8000000Y41000000I-3000000J0D01*
G01*
X52000000Y41000000D02*
G75*
G03X52000000Y41000000I-3000000J0D01*
G01*
X30875000Y41000000D02*
X32125000Y41000000D01*
X32125000Y41000000D02*
X32125000Y43000000D01*
X32125000Y43000000D02*
X30875000Y43000000D01*
X30875000Y43000000D02*
X30875000Y41000000D01*
X30875000Y41500000D02*
X32125000Y41500000D01*
X30850000Y42500000D02*
X32125000Y42500000D01*
X26500000Y38125000D02*
X26500000Y39375000D01*
X26500000Y39375000D02*
X24500000Y39375000D01*
X24500000Y39375000D02*
X24500000Y38125000D01*
X24500000Y38125000D02*
X26500000Y38125000D01*
X26000000Y38125000D02*
X26000000Y39375000D01*
X25000000Y38100000D02*
X25000000Y39375000D01*
X53890000Y-1000000D02*
X53890000Y11000000D01*
X42530000Y-1000000D02*
X53890000Y-1000000D01*
X42530000Y11000000D02*
X42530000Y-1000000D01*
X53890000Y11000000D02*
X42530000Y11000000D01*
X45350000Y24700000D02*
X46150000Y24700000D01*
X46150000Y24700000D02*
X46150000Y26300000D01*
X46150000Y26300000D02*
X45350000Y26300000D01*
X45350000Y26300000D02*
X45350000Y24700000D01*
X45350000Y25000000D02*
X46150000Y25000000D01*
X45350000Y26000000D02*
X46150000Y26000000D01*
X47875000Y32250000D02*
X46625000Y32250000D01*
X46625000Y32250000D02*
X46625000Y30250000D01*
X46625000Y30250000D02*
X47875000Y30250000D01*
X47875000Y30250000D02*
X47875000Y32250000D01*
X47875000Y31750000D02*
X46625000Y31750000D01*
X47900000Y30750000D02*
X46625000Y30750000D01*
X40350000Y42500000D02*
X41150000Y42500000D01*
X40350000Y41500000D02*
X41150000Y41500000D01*
X40350000Y42800000D02*
X40350000Y41200000D01*
X41150000Y42800000D02*
X40350000Y42800000D01*
X41150000Y41200000D02*
X41150000Y42800000D01*
X40350000Y41200000D02*
X41150000Y41200000D01*
X36850000Y42500000D02*
X38125000Y42500000D01*
X36875000Y41500000D02*
X38125000Y41500000D01*
X36875000Y43000000D02*
X36875000Y41000000D01*
X38125000Y43000000D02*
X36875000Y43000000D01*
X38125000Y41000000D02*
X38125000Y43000000D01*
X36875000Y41000000D02*
X38125000Y41000000D01*
X34850000Y42500000D02*
X36125000Y42500000D01*
X34875000Y41500000D02*
X36125000Y41500000D01*
X34875000Y43000000D02*
X34875000Y41000000D01*
X36125000Y43000000D02*
X34875000Y43000000D01*
X36125000Y41000000D02*
X36125000Y43000000D01*
X34875000Y41000000D02*
X36125000Y41000000D01*
X20900000Y32500000D02*
X19625000Y32500000D01*
X20875000Y33500000D02*
X19625000Y33500000D01*
X20875000Y32000000D02*
X20875000Y34000000D01*
X19625000Y32000000D02*
X20875000Y32000000D01*
X19625000Y34000000D02*
X19625000Y32000000D01*
X20875000Y34000000D02*
X19625000Y34000000D01*
X22875000Y34000000D02*
X21625000Y34000000D01*
X21625000Y34000000D02*
X21625000Y32000000D01*
X21625000Y32000000D02*
X22875000Y32000000D01*
X22875000Y32000000D02*
X22875000Y34000000D01*
X22875000Y33500000D02*
X21625000Y33500000D01*
X22900000Y32500000D02*
X21625000Y32500000D01*
X32875000Y41000000D02*
X34125000Y41000000D01*
X34125000Y41000000D02*
X34125000Y43000000D01*
X34125000Y43000000D02*
X32875000Y43000000D01*
X32875000Y43000000D02*
X32875000Y41000000D01*
X32875000Y41500000D02*
X34125000Y41500000D01*
X32850000Y42500000D02*
X34125000Y42500000D01*
X39250000Y26250000D02*
X39250000Y26000000D01*
X39750000Y26250000D02*
X39750000Y26000000D01*
X39750000Y29000000D02*
X39750000Y28750000D01*
X39750000Y26000000D02*
X35250000Y26000000D01*
X39750000Y29000000D02*
X35250000Y29000000D01*
X35250000Y26250000D02*
X35250000Y26000000D01*
X35250000Y29000000D02*
X35250000Y28750000D01*
X39250000Y29000000D02*
X39250000Y28750000D01*
X40250000Y26250000D02*
X41250000Y26250000D01*
X41250000Y26250000D02*
X41250000Y28750000D01*
X41250000Y28750000D02*
X40250000Y28750000D01*
X48535534Y36232233D02*
X47828427Y36939340D01*
X46767767Y34464466D02*
X48535534Y36232233D01*
X46060660Y35171573D02*
X46767767Y34464466D01*
X47298097Y37823223D02*
X47121320Y37646447D01*
X44469670Y40651650D02*
X44292893Y40474874D01*
X42525126Y38707107D02*
X42348350Y38530330D01*
X47651650Y37469670D02*
X44469670Y40651650D01*
X45530330Y35348350D02*
X42348350Y38530330D01*
X47651650Y37469670D02*
X47474874Y37292893D01*
X45707107Y35525126D02*
X45530330Y35348350D01*
X45353553Y35878680D02*
X45176777Y35701903D01*
X45083631Y30537689D02*
X44906854Y31775126D01*
X42962311Y28416369D02*
X45083631Y30537689D01*
X41724874Y28593146D02*
X42962311Y28416369D01*
X36987258Y29865938D02*
X42785534Y28734567D01*
X34865938Y31987258D02*
X36987258Y29865938D01*
X33734567Y37785534D02*
X34865938Y31987258D01*
X35714466Y39765433D02*
X33734567Y37785534D01*
X41512742Y38634062D02*
X35714466Y39765433D01*
X43634062Y36512742D02*
X41512742Y38634062D01*
X44765433Y30714466D02*
X43634062Y36512742D01*
X42785534Y28734567D02*
X44765433Y30714466D01*
X43950000Y34250000D02*
G75*
G03X43950000Y34250000I-4700000J0D01*
G01*
X12390000Y11000000D02*
X1030000Y11000000D01*
X1030000Y11000000D02*
X1030000Y-1000000D01*
X1030000Y-1000000D02*
X12390000Y-1000000D01*
X12390000Y-1000000D02*
X12390000Y11000000D01*
X5250000Y33350000D02*
X5250000Y34625000D01*
X6250000Y33375000D02*
X6250000Y34625000D01*
X4750000Y33375000D02*
X6750000Y33375000D01*
X4750000Y34625000D02*
X4750000Y33375000D01*
X6750000Y34625000D02*
X4750000Y34625000D01*
X6750000Y33375000D02*
X6750000Y34625000D01*
X33000000Y26875000D02*
X33000000Y28125000D01*
X33000000Y28125000D02*
X31000000Y28125000D01*
X31000000Y28125000D02*
X31000000Y26875000D01*
X31000000Y26875000D02*
X33000000Y26875000D01*
X32500000Y26875000D02*
X32500000Y28125000D01*
X31500000Y26850000D02*
X31500000Y28125000D01*
X46500000Y23000000D02*
X51500000Y23000000D01*
X51500000Y23000000D02*
X51500000Y27000000D01*
X51500000Y27000000D02*
X46500000Y27000000D01*
X46500000Y27000000D02*
X46500000Y23000000D01*
X46500000Y22750000D02*
X46500000Y21250000D01*
X46500000Y21250000D02*
X47750000Y21250000D01*
X47750000Y21250000D02*
X47750000Y22750000D01*
D13*
X10785714Y66985715D02*
X10823809Y66947620D01*
X10861904Y66833334D01*
X10861904Y66757143D01*
X10823809Y66642858D01*
X10747619Y66566667D01*
X10671428Y66528572D01*
X10519047Y66490477D01*
X10404761Y66490477D01*
X10252380Y66528572D01*
X10176190Y66566667D01*
X10100000Y66642858D01*
X10061904Y66757143D01*
X10061904Y66833334D01*
X10100000Y66947620D01*
X10138095Y66985715D01*
X10861904Y67747620D02*
X10861904Y67290477D01*
X10861904Y67519048D02*
X10061904Y67519048D01*
X10176190Y67442858D01*
X10252380Y67366667D01*
X10290476Y67290477D01*
X10861904Y68509524D02*
X10861904Y68052381D01*
X10861904Y68280953D02*
X10061904Y68280953D01*
X10176190Y68204762D01*
X10252380Y68128572D01*
X10290476Y68052381D01*
D10*
X2142857Y91071429D02*
X2142857Y92571429D01*
X2714285Y92571429D01*
X2857142Y92500000D01*
X2928571Y92428572D01*
X3000000Y92285715D01*
X3000000Y92071429D01*
X2928571Y91928572D01*
X2857142Y91857143D01*
X2714285Y91785715D01*
X2142857Y91785715D01*
X3500000Y92571429D02*
X4428571Y92571429D01*
X3928571Y92000000D01*
X4142857Y92000000D01*
X4285714Y91928572D01*
X4357142Y91857143D01*
X4428571Y91714286D01*
X4428571Y91357143D01*
X4357142Y91214286D01*
X4285714Y91142858D01*
X4142857Y91071429D01*
X3714285Y91071429D01*
X3571428Y91142858D01*
X3500000Y91214286D01*
D13*
X28366666Y55388096D02*
X28100000Y55769048D01*
X27909523Y55388096D02*
X27909523Y56188096D01*
X28214285Y56188096D01*
X28290476Y56150000D01*
X28328571Y56111905D01*
X28366666Y56035715D01*
X28366666Y55921429D01*
X28328571Y55845239D01*
X28290476Y55807143D01*
X28214285Y55769048D01*
X27909523Y55769048D01*
X29052380Y55921429D02*
X29052380Y55388096D01*
X28861904Y56226191D02*
X28671428Y55654762D01*
X29166666Y55654762D01*
D10*
X42642857Y48821429D02*
X42642857Y50321429D01*
X43214285Y50321429D01*
X43357142Y50250000D01*
X43428571Y50178572D01*
X43500000Y50035715D01*
X43500000Y49821429D01*
X43428571Y49678572D01*
X43357142Y49607143D01*
X43214285Y49535715D01*
X42642857Y49535715D01*
X44071428Y50178572D02*
X44142857Y50250000D01*
X44285714Y50321429D01*
X44642857Y50321429D01*
X44785714Y50250000D01*
X44857142Y50178572D01*
X44928571Y50035715D01*
X44928571Y49892858D01*
X44857142Y49678572D01*
X44000000Y48821429D01*
X44928571Y48821429D01*
D13*
X19366666Y48464286D02*
X19328571Y48426191D01*
X19214285Y48388096D01*
X19138095Y48388096D01*
X19023809Y48426191D01*
X18947619Y48502381D01*
X18909523Y48578572D01*
X18871428Y48730953D01*
X18871428Y48845239D01*
X18909523Y48997620D01*
X18947619Y49073810D01*
X19023809Y49150000D01*
X19138095Y49188096D01*
X19214285Y49188096D01*
X19328571Y49150000D01*
X19366666Y49111905D01*
X19633333Y49188096D02*
X20166666Y49188096D01*
X19823809Y48388096D01*
X5616666Y56888096D02*
X5350000Y57269048D01*
X5159523Y56888096D02*
X5159523Y57688096D01*
X5464285Y57688096D01*
X5540476Y57650000D01*
X5578571Y57611905D01*
X5616666Y57535715D01*
X5616666Y57421429D01*
X5578571Y57345239D01*
X5540476Y57307143D01*
X5464285Y57269048D01*
X5159523Y57269048D01*
X5883333Y57688096D02*
X6416666Y57688096D01*
X6073809Y56888096D01*
X9535714Y61235715D02*
X9573809Y61197620D01*
X9611904Y61083334D01*
X9611904Y61007143D01*
X9573809Y60892858D01*
X9497619Y60816667D01*
X9421428Y60778572D01*
X9269047Y60740477D01*
X9154761Y60740477D01*
X9002380Y60778572D01*
X8926190Y60816667D01*
X8850000Y60892858D01*
X8811904Y61007143D01*
X8811904Y61083334D01*
X8850000Y61197620D01*
X8888095Y61235715D01*
X9611904Y61997620D02*
X9611904Y61540477D01*
X9611904Y61769048D02*
X8811904Y61769048D01*
X8926190Y61692858D01*
X9002380Y61616667D01*
X9040476Y61540477D01*
X8811904Y62492858D02*
X8811904Y62569048D01*
X8850000Y62645239D01*
X8888095Y62683334D01*
X8964285Y62721429D01*
X9116666Y62759524D01*
X9307142Y62759524D01*
X9459523Y62721429D01*
X9535714Y62683334D01*
X9573809Y62645239D01*
X9611904Y62569048D01*
X9611904Y62492858D01*
X9573809Y62416667D01*
X9535714Y62378572D01*
X9459523Y62340477D01*
X9307142Y62302381D01*
X9116666Y62302381D01*
X8964285Y62340477D01*
X8888095Y62378572D01*
X8850000Y62416667D01*
X8811904Y62492858D01*
X16071904Y53366667D02*
X15690952Y53100000D01*
X16071904Y52909524D02*
X15271904Y52909524D01*
X15271904Y53214286D01*
X15310000Y53290477D01*
X15348095Y53328572D01*
X15424285Y53366667D01*
X15538571Y53366667D01*
X15614761Y53328572D01*
X15652857Y53290477D01*
X15690952Y53214286D01*
X15690952Y52909524D01*
X15271904Y54052381D02*
X15271904Y53900000D01*
X15310000Y53823810D01*
X15348095Y53785715D01*
X15462380Y53709524D01*
X15614761Y53671429D01*
X15919523Y53671429D01*
X15995714Y53709524D01*
X16033809Y53747620D01*
X16071904Y53823810D01*
X16071904Y53976191D01*
X16033809Y54052381D01*
X15995714Y54090477D01*
X15919523Y54128572D01*
X15729047Y54128572D01*
X15652857Y54090477D01*
X15614761Y54052381D01*
X15576666Y53976191D01*
X15576666Y53823810D01*
X15614761Y53747620D01*
X15652857Y53709524D01*
X15729047Y53671429D01*
X43952380Y65833334D02*
X43476190Y65500000D01*
X43952380Y65261905D02*
X42952380Y65261905D01*
X42952380Y65642858D01*
X43000000Y65738096D01*
X43047619Y65785715D01*
X43142857Y65833334D01*
X43285714Y65833334D01*
X43380952Y65785715D01*
X43428571Y65738096D01*
X43476190Y65642858D01*
X43476190Y65261905D01*
X43047619Y66214286D02*
X43000000Y66261905D01*
X42952380Y66357143D01*
X42952380Y66595239D01*
X43000000Y66690477D01*
X43047619Y66738096D01*
X43142857Y66785715D01*
X43238095Y66785715D01*
X43380952Y66738096D01*
X43952380Y66166667D01*
X43952380Y66785715D01*
D11*
X43738095Y64047620D02*
X43738095Y63238096D01*
X43785714Y63142858D01*
X43833333Y63095239D01*
X43928571Y63047620D01*
X44119047Y63047620D01*
X44214285Y63095239D01*
X44261904Y63142858D01*
X44309523Y63238096D01*
X44309523Y64047620D01*
X45309523Y63047620D02*
X44738095Y63047620D01*
X45023809Y63047620D02*
X45023809Y64047620D01*
X44928571Y63904762D01*
X44833333Y63809524D01*
X44738095Y63761905D01*
D13*
X17785714Y53366667D02*
X17823809Y53328572D01*
X17861904Y53214286D01*
X17861904Y53138096D01*
X17823809Y53023810D01*
X17747619Y52947620D01*
X17671428Y52909524D01*
X17519047Y52871429D01*
X17404761Y52871429D01*
X17252380Y52909524D01*
X17176190Y52947620D01*
X17100000Y53023810D01*
X17061904Y53138096D01*
X17061904Y53214286D01*
X17100000Y53328572D01*
X17138095Y53366667D01*
X17061904Y54090477D02*
X17061904Y53709524D01*
X17442857Y53671429D01*
X17404761Y53709524D01*
X17366666Y53785715D01*
X17366666Y53976191D01*
X17404761Y54052381D01*
X17442857Y54090477D01*
X17519047Y54128572D01*
X17709523Y54128572D01*
X17785714Y54090477D01*
X17823809Y54052381D01*
X17861904Y53976191D01*
X17861904Y53785715D01*
X17823809Y53709524D01*
X17785714Y53671429D01*
X4361904Y61616667D02*
X3980952Y61350000D01*
X4361904Y61159524D02*
X3561904Y61159524D01*
X3561904Y61464286D01*
X3600000Y61540477D01*
X3638095Y61578572D01*
X3714285Y61616667D01*
X3828571Y61616667D01*
X3904761Y61578572D01*
X3942857Y61540477D01*
X3980952Y61464286D01*
X3980952Y61159524D01*
X3904761Y62073810D02*
X3866666Y61997620D01*
X3828571Y61959524D01*
X3752380Y61921429D01*
X3714285Y61921429D01*
X3638095Y61959524D01*
X3600000Y61997620D01*
X3561904Y62073810D01*
X3561904Y62226191D01*
X3600000Y62302381D01*
X3638095Y62340477D01*
X3714285Y62378572D01*
X3752380Y62378572D01*
X3828571Y62340477D01*
X3866666Y62302381D01*
X3904761Y62226191D01*
X3904761Y62073810D01*
X3942857Y61997620D01*
X3980952Y61959524D01*
X4057142Y61921429D01*
X4209523Y61921429D01*
X4285714Y61959524D01*
X4323809Y61997620D01*
X4361904Y62073810D01*
X4361904Y62226191D01*
X4323809Y62302381D01*
X4285714Y62340477D01*
X4209523Y62378572D01*
X4057142Y62378572D01*
X3980952Y62340477D01*
X3942857Y62302381D01*
X3904761Y62226191D01*
X13119714Y50866667D02*
X13157809Y50828572D01*
X13195904Y50714286D01*
X13195904Y50638096D01*
X13157809Y50523810D01*
X13081619Y50447620D01*
X13005428Y50409524D01*
X12853047Y50371429D01*
X12738761Y50371429D01*
X12586380Y50409524D01*
X12510190Y50447620D01*
X12434000Y50523810D01*
X12395904Y50638096D01*
X12395904Y50714286D01*
X12434000Y50828572D01*
X12472095Y50866667D01*
X12738761Y51323810D02*
X12700666Y51247620D01*
X12662571Y51209524D01*
X12586380Y51171429D01*
X12548285Y51171429D01*
X12472095Y51209524D01*
X12434000Y51247620D01*
X12395904Y51323810D01*
X12395904Y51476191D01*
X12434000Y51552381D01*
X12472095Y51590477D01*
X12548285Y51628572D01*
X12586380Y51628572D01*
X12662571Y51590477D01*
X12700666Y51552381D01*
X12738761Y51476191D01*
X12738761Y51323810D01*
X12776857Y51247620D01*
X12814952Y51209524D01*
X12891142Y51171429D01*
X13043523Y51171429D01*
X13119714Y51209524D01*
X13157809Y51247620D01*
X13195904Y51323810D01*
X13195904Y51476191D01*
X13157809Y51552381D01*
X13119714Y51590477D01*
X13043523Y51628572D01*
X12891142Y51628572D01*
X12814952Y51590477D01*
X12776857Y51552381D01*
X12738761Y51476191D01*
X23821904Y53616667D02*
X23440952Y53350000D01*
X23821904Y53159524D02*
X23021904Y53159524D01*
X23021904Y53464286D01*
X23060000Y53540477D01*
X23098095Y53578572D01*
X23174285Y53616667D01*
X23288571Y53616667D01*
X23364761Y53578572D01*
X23402857Y53540477D01*
X23440952Y53464286D01*
X23440952Y53159524D01*
X23021904Y54340477D02*
X23021904Y53959524D01*
X23402857Y53921429D01*
X23364761Y53959524D01*
X23326666Y54035715D01*
X23326666Y54226191D01*
X23364761Y54302381D01*
X23402857Y54340477D01*
X23479047Y54378572D01*
X23669523Y54378572D01*
X23745714Y54340477D01*
X23783809Y54302381D01*
X23821904Y54226191D01*
X23821904Y54035715D01*
X23783809Y53959524D01*
X23745714Y53921429D01*
X4952380Y70488096D02*
X5761904Y70488096D01*
X5857142Y70535715D01*
X5904761Y70583334D01*
X5952380Y70678572D01*
X5952380Y70869048D01*
X5904761Y70964286D01*
X5857142Y71011905D01*
X5761904Y71059524D01*
X4952380Y71059524D01*
X4952380Y72011905D02*
X4952380Y71535715D01*
X5428571Y71488096D01*
X5380952Y71535715D01*
X5333333Y71630953D01*
X5333333Y71869048D01*
X5380952Y71964286D01*
X5428571Y72011905D01*
X5523809Y72059524D01*
X5761904Y72059524D01*
X5857142Y72011905D01*
X5904761Y71964286D01*
X5952380Y71869048D01*
X5952380Y71630953D01*
X5904761Y71535715D01*
X5857142Y71488096D01*
X22866666Y66638096D02*
X22600000Y67019048D01*
X22409523Y66638096D02*
X22409523Y67438096D01*
X22714285Y67438096D01*
X22790476Y67400000D01*
X22828571Y67361905D01*
X22866666Y67285715D01*
X22866666Y67171429D01*
X22828571Y67095239D01*
X22790476Y67057143D01*
X22714285Y67019048D01*
X22409523Y67019048D01*
X23133333Y67438096D02*
X23628571Y67438096D01*
X23361904Y67133334D01*
X23476190Y67133334D01*
X23552380Y67095239D01*
X23590476Y67057143D01*
X23628571Y66980953D01*
X23628571Y66790477D01*
X23590476Y66714286D01*
X23552380Y66676191D01*
X23476190Y66638096D01*
X23247619Y66638096D01*
X23171428Y66676191D01*
X23133333Y66714286D01*
X35035714Y62616667D02*
X35073809Y62578572D01*
X35111904Y62464286D01*
X35111904Y62388096D01*
X35073809Y62273810D01*
X34997619Y62197620D01*
X34921428Y62159524D01*
X34769047Y62121429D01*
X34654761Y62121429D01*
X34502380Y62159524D01*
X34426190Y62197620D01*
X34350000Y62273810D01*
X34311904Y62388096D01*
X34311904Y62464286D01*
X34350000Y62578572D01*
X34388095Y62616667D01*
X34578571Y63302381D02*
X35111904Y63302381D01*
X34273809Y63111905D02*
X34845238Y62921429D01*
X34845238Y63416667D01*
X21785714Y53616667D02*
X21823809Y53578572D01*
X21861904Y53464286D01*
X21861904Y53388096D01*
X21823809Y53273810D01*
X21747619Y53197620D01*
X21671428Y53159524D01*
X21519047Y53121429D01*
X21404761Y53121429D01*
X21252380Y53159524D01*
X21176190Y53197620D01*
X21100000Y53273810D01*
X21061904Y53388096D01*
X21061904Y53464286D01*
X21100000Y53578572D01*
X21138095Y53616667D01*
X21061904Y53883334D02*
X21061904Y54378572D01*
X21366666Y54111905D01*
X21366666Y54226191D01*
X21404761Y54302381D01*
X21442857Y54340477D01*
X21519047Y54378572D01*
X21709523Y54378572D01*
X21785714Y54340477D01*
X21823809Y54302381D01*
X21861904Y54226191D01*
X21861904Y53997620D01*
X21823809Y53921429D01*
X21785714Y53883334D01*
X52111904Y58866667D02*
X51730952Y58600000D01*
X52111904Y58409524D02*
X51311904Y58409524D01*
X51311904Y58714286D01*
X51350000Y58790477D01*
X51388095Y58828572D01*
X51464285Y58866667D01*
X51578571Y58866667D01*
X51654761Y58828572D01*
X51692857Y58790477D01*
X51730952Y58714286D01*
X51730952Y58409524D01*
X52111904Y59628572D02*
X52111904Y59171429D01*
X52111904Y59400000D02*
X51311904Y59400000D01*
X51426190Y59323810D01*
X51502380Y59247620D01*
X51540476Y59171429D01*
X7826564Y53661625D02*
X8392250Y54227310D01*
X8526937Y54092623D01*
X8580812Y53984874D01*
X8580812Y53877124D01*
X8553874Y53796312D01*
X8473062Y53661625D01*
X8392250Y53580813D01*
X8257563Y53500000D01*
X8176751Y53473063D01*
X8069001Y53473063D01*
X7961251Y53526938D01*
X7826564Y53661625D01*
X9227309Y53392251D02*
X8957935Y53661625D01*
X8661624Y53419188D01*
X8715499Y53419188D01*
X8796311Y53392251D01*
X8930998Y53257564D01*
X8957935Y53176752D01*
X8957935Y53122877D01*
X8930998Y53042065D01*
X8796311Y52907378D01*
X8715499Y52880440D01*
X8661624Y52880440D01*
X8580812Y52907378D01*
X8446125Y53042065D01*
X8419187Y53122877D01*
X8419187Y53176752D01*
X19159523Y62888096D02*
X19159523Y63688096D01*
X19350000Y63688096D01*
X19464285Y63650000D01*
X19540476Y63573810D01*
X19578571Y63497620D01*
X19616666Y63345239D01*
X19616666Y63230953D01*
X19578571Y63078572D01*
X19540476Y63002381D01*
X19464285Y62926191D01*
X19350000Y62888096D01*
X19159523Y62888096D01*
X20302380Y63421429D02*
X20302380Y62888096D01*
X20111904Y63726191D02*
X19921428Y63154762D01*
X20416666Y63154762D01*
X16160795Y56674138D02*
X15824077Y57010856D01*
X16531184Y57717962D01*
X16766886Y56068046D02*
X16362825Y56472107D01*
X16564856Y56270077D02*
X17271963Y56977184D01*
X17103604Y56943512D01*
X16968917Y56943512D01*
X16867902Y56977184D01*
D10*
X43142857Y90821429D02*
X43142857Y92321429D01*
X43714285Y92321429D01*
X43857142Y92250000D01*
X43928571Y92178572D01*
X44000000Y92035715D01*
X44000000Y91821429D01*
X43928571Y91678572D01*
X43857142Y91607143D01*
X43714285Y91535715D01*
X43142857Y91535715D01*
X45428571Y90821429D02*
X44571428Y90821429D01*
X45000000Y90821429D02*
X45000000Y92321429D01*
X44857142Y92107143D01*
X44714285Y91964286D01*
X44571428Y91892858D01*
D13*
X33035714Y62616667D02*
X33073809Y62578572D01*
X33111904Y62464286D01*
X33111904Y62388096D01*
X33073809Y62273810D01*
X32997619Y62197620D01*
X32921428Y62159524D01*
X32769047Y62121429D01*
X32654761Y62121429D01*
X32502380Y62159524D01*
X32426190Y62197620D01*
X32350000Y62273810D01*
X32311904Y62388096D01*
X32311904Y62464286D01*
X32350000Y62578572D01*
X32388095Y62616667D01*
X32311904Y63302381D02*
X32311904Y63150000D01*
X32350000Y63073810D01*
X32388095Y63035715D01*
X32502380Y62959524D01*
X32654761Y62921429D01*
X32959523Y62921429D01*
X33035714Y62959524D01*
X33073809Y62997620D01*
X33111904Y63073810D01*
X33111904Y63226191D01*
X33073809Y63302381D01*
X33035714Y63340477D01*
X32959523Y63378572D01*
X32769047Y63378572D01*
X32692857Y63340477D01*
X32654761Y63302381D01*
X32616666Y63226191D01*
X32616666Y63073810D01*
X32654761Y62997620D01*
X32692857Y62959524D01*
X32769047Y62921429D01*
X1193333Y77395143D02*
X926666Y77395143D01*
X926666Y76976096D02*
X926666Y77776096D01*
X1307619Y77776096D01*
X2031428Y76976096D02*
X1574285Y76976096D01*
X1802857Y76976096D02*
X1802857Y77776096D01*
X1726666Y77661810D01*
X1650476Y77585620D01*
X1574285Y77547524D01*
D11*
X22897619Y72404762D02*
X22850000Y72309524D01*
X22754761Y72214286D01*
X22611904Y72071429D01*
X22564285Y71976191D01*
X22564285Y71880953D01*
X22802380Y71928572D02*
X22754761Y71833334D01*
X22659523Y71738096D01*
X22469047Y71690477D01*
X22135714Y71690477D01*
X21945238Y71738096D01*
X21850000Y71833334D01*
X21802380Y71928572D01*
X21802380Y72119048D01*
X21850000Y72214286D01*
X21945238Y72309524D01*
X22135714Y72357143D01*
X22469047Y72357143D01*
X22659523Y72309524D01*
X22754761Y72214286D01*
X22802380Y72119048D01*
X22802380Y71928572D01*
X22802380Y73309524D02*
X22802380Y72738096D01*
X22802380Y73023810D02*
X21802380Y73023810D01*
X21945238Y72928572D01*
X22040476Y72833334D01*
X22088095Y72738096D01*
X26833333Y56392858D02*
X26785714Y56345239D01*
X26642857Y56297620D01*
X26547619Y56297620D01*
X26404761Y56345239D01*
X26309523Y56440477D01*
X26261904Y56535715D01*
X26214285Y56726191D01*
X26214285Y56869048D01*
X26261904Y57059524D01*
X26309523Y57154762D01*
X26404761Y57250000D01*
X26547619Y57297620D01*
X26642857Y57297620D01*
X26785714Y57250000D01*
X26833333Y57202381D01*
X27214285Y57202381D02*
X27261904Y57250000D01*
X27357142Y57297620D01*
X27595238Y57297620D01*
X27690476Y57250000D01*
X27738095Y57202381D01*
X27785714Y57107143D01*
X27785714Y57011905D01*
X27738095Y56869048D01*
X27166666Y56297620D01*
X27785714Y56297620D01*
X26452380Y53261905D02*
X25452380Y53261905D01*
X25452380Y53500000D01*
X25500000Y53642858D01*
X25595238Y53738096D01*
X25690476Y53785715D01*
X25880952Y53833334D01*
X26023809Y53833334D01*
X26214285Y53785715D01*
X26309523Y53738096D01*
X26404761Y53642858D01*
X26452380Y53500000D01*
X26452380Y53261905D01*
X25547619Y54214286D02*
X25500000Y54261905D01*
X25452380Y54357143D01*
X25452380Y54595239D01*
X25500000Y54690477D01*
X25547619Y54738096D01*
X25642857Y54785715D01*
X25738095Y54785715D01*
X25880952Y54738096D01*
X26452380Y54166667D01*
X26452380Y54785715D01*
X12702380Y79511905D02*
X11702380Y79511905D01*
X11702380Y79750000D01*
X11750000Y79892858D01*
X11845238Y79988096D01*
X11940476Y80035715D01*
X12130952Y80083334D01*
X12273809Y80083334D01*
X12464285Y80035715D01*
X12559523Y79988096D01*
X12654761Y79892858D01*
X12702380Y79750000D01*
X12702380Y79511905D01*
X11702380Y80416667D02*
X11702380Y81035715D01*
X12083333Y80702381D01*
X12083333Y80845239D01*
X12130952Y80940477D01*
X12178571Y80988096D01*
X12273809Y81035715D01*
X12511904Y81035715D01*
X12607142Y80988096D01*
X12654761Y80940477D01*
X12702380Y80845239D01*
X12702380Y80559524D01*
X12654761Y80464286D01*
X12607142Y80416667D01*
X30702380Y50011905D02*
X29702380Y50011905D01*
X29702380Y50250000D01*
X29750000Y50392858D01*
X29845238Y50488096D01*
X29940476Y50535715D01*
X30130952Y50583334D01*
X30273809Y50583334D01*
X30464285Y50535715D01*
X30559523Y50488096D01*
X30654761Y50392858D01*
X30702380Y50250000D01*
X30702380Y50011905D01*
X30702380Y51535715D02*
X30702380Y50964286D01*
X30702380Y51250000D02*
X29702380Y51250000D01*
X29845238Y51154762D01*
X29940476Y51059524D01*
X29988095Y50964286D01*
X43702380Y68416667D02*
X43226190Y68083334D01*
X43702380Y67845239D02*
X42702380Y67845239D01*
X42702380Y68226191D01*
X42750000Y68321429D01*
X42797619Y68369048D01*
X42892857Y68416667D01*
X43035714Y68416667D01*
X43130952Y68369048D01*
X43178571Y68321429D01*
X43226190Y68226191D01*
X43226190Y67845239D01*
X43178571Y68845239D02*
X43178571Y69178572D01*
X43702380Y69321429D02*
X43702380Y68845239D01*
X42702380Y68845239D01*
X42702380Y69321429D01*
X43178571Y70083334D02*
X43178571Y69750000D01*
X43702380Y69750000D02*
X42702380Y69750000D01*
X42702380Y70226191D01*
X42702380Y70750000D02*
X42940476Y70750000D01*
X42845238Y70511905D02*
X42940476Y70750000D01*
X42845238Y70988096D01*
X43130952Y70607143D02*
X42940476Y70750000D01*
X43130952Y70892858D01*
X42702380Y71511905D02*
X42940476Y71511905D01*
X42845238Y71273810D02*
X42940476Y71511905D01*
X42845238Y71750000D01*
X43130952Y71369048D02*
X42940476Y71511905D01*
X43130952Y71654762D01*
X29833333Y56392858D02*
X29785714Y56345239D01*
X29642857Y56297620D01*
X29547619Y56297620D01*
X29404761Y56345239D01*
X29309523Y56440477D01*
X29261904Y56535715D01*
X29214285Y56726191D01*
X29214285Y56869048D01*
X29261904Y57059524D01*
X29309523Y57154762D01*
X29404761Y57250000D01*
X29547619Y57297620D01*
X29642857Y57297620D01*
X29785714Y57250000D01*
X29833333Y57202381D01*
X30785714Y56297620D02*
X30214285Y56297620D01*
X30500000Y56297620D02*
X30500000Y57297620D01*
X30404761Y57154762D01*
X30309523Y57059524D01*
X30214285Y57011905D01*
D13*
X2057142Y75769334D02*
X2104761Y75721715D01*
X2152380Y75578858D01*
X2152380Y75483620D01*
X2104761Y75340762D01*
X2009523Y75245524D01*
X1914285Y75197905D01*
X1723809Y75150286D01*
X1580952Y75150286D01*
X1390476Y75197905D01*
X1295238Y75245524D01*
X1200000Y75340762D01*
X1152380Y75483620D01*
X1152380Y75578858D01*
X1200000Y75721715D01*
X1247619Y75769334D01*
X2152380Y76245524D02*
X2152380Y76436000D01*
X2104761Y76531239D01*
X2057142Y76578858D01*
X1914285Y76674096D01*
X1723809Y76721715D01*
X1342857Y76721715D01*
X1247619Y76674096D01*
X1200000Y76626477D01*
X1152380Y76531239D01*
X1152380Y76340762D01*
X1200000Y76245524D01*
X1247619Y76197905D01*
X1342857Y76150286D01*
X1580952Y76150286D01*
X1676190Y76197905D01*
X1723809Y76245524D01*
X1771428Y76340762D01*
X1771428Y76531239D01*
X1723809Y76626477D01*
X1676190Y76674096D01*
X1580952Y76721715D01*
X19735714Y62964286D02*
X19697619Y62926191D01*
X19583333Y62888096D01*
X19507142Y62888096D01*
X19392857Y62926191D01*
X19316666Y63002381D01*
X19278571Y63078572D01*
X19240476Y63230953D01*
X19240476Y63345239D01*
X19278571Y63497620D01*
X19316666Y63573810D01*
X19392857Y63650000D01*
X19507142Y63688096D01*
X19583333Y63688096D01*
X19697619Y63650000D01*
X19735714Y63611905D01*
X20497619Y62888096D02*
X20040476Y62888096D01*
X20269047Y62888096D02*
X20269047Y63688096D01*
X20192857Y63573810D01*
X20116666Y63497620D01*
X20040476Y63459524D01*
X20764285Y63688096D02*
X21259523Y63688096D01*
X20992857Y63383334D01*
X21107142Y63383334D01*
X21183333Y63345239D01*
X21221428Y63307143D01*
X21259523Y63230953D01*
X21259523Y63040477D01*
X21221428Y62964286D01*
X21183333Y62926191D01*
X21107142Y62888096D01*
X20878571Y62888096D01*
X20802380Y62926191D01*
X20764285Y62964286D01*
X52035714Y60735715D02*
X52073809Y60697620D01*
X52111904Y60583334D01*
X52111904Y60507143D01*
X52073809Y60392858D01*
X51997619Y60316667D01*
X51921428Y60278572D01*
X51769047Y60240477D01*
X51654761Y60240477D01*
X51502380Y60278572D01*
X51426190Y60316667D01*
X51350000Y60392858D01*
X51311904Y60507143D01*
X51311904Y60583334D01*
X51350000Y60697620D01*
X51388095Y60735715D01*
X52111904Y61497620D02*
X52111904Y61040477D01*
X52111904Y61269048D02*
X51311904Y61269048D01*
X51426190Y61192858D01*
X51502380Y61116667D01*
X51540476Y61040477D01*
X51388095Y61802381D02*
X51350000Y61840477D01*
X51311904Y61916667D01*
X51311904Y62107143D01*
X51350000Y62183334D01*
X51388095Y62221429D01*
X51464285Y62259524D01*
X51540476Y62259524D01*
X51654761Y62221429D01*
X52111904Y61764286D01*
X52111904Y62259524D01*
X34235714Y29464286D02*
X34197619Y29426191D01*
X34083333Y29388096D01*
X34007142Y29388096D01*
X33892857Y29426191D01*
X33816666Y29502381D01*
X33778571Y29578572D01*
X33740476Y29730953D01*
X33740476Y29845239D01*
X33778571Y29997620D01*
X33816666Y30073810D01*
X33892857Y30150000D01*
X34007142Y30188096D01*
X34083333Y30188096D01*
X34197619Y30150000D01*
X34235714Y30111905D01*
X34997619Y29388096D02*
X34540476Y29388096D01*
X34769047Y29388096D02*
X34769047Y30188096D01*
X34692857Y30073810D01*
X34616666Y29997620D01*
X34540476Y29959524D01*
X35264285Y30188096D02*
X35759523Y30188096D01*
X35492857Y29883334D01*
X35607142Y29883334D01*
X35683333Y29845239D01*
X35721428Y29807143D01*
X35759523Y29730953D01*
X35759523Y29540477D01*
X35721428Y29464286D01*
X35683333Y29426191D01*
X35607142Y29388096D01*
X35378571Y29388096D01*
X35302380Y29426191D01*
X35264285Y29464286D01*
X3535714Y31235715D02*
X3573809Y31197620D01*
X3611904Y31083334D01*
X3611904Y31007143D01*
X3573809Y30892858D01*
X3497619Y30816667D01*
X3421428Y30778572D01*
X3269047Y30740477D01*
X3154761Y30740477D01*
X3002380Y30778572D01*
X2926190Y30816667D01*
X2850000Y30892858D01*
X2811904Y31007143D01*
X2811904Y31083334D01*
X2850000Y31197620D01*
X2888095Y31235715D01*
X3611904Y31997620D02*
X3611904Y31540477D01*
X3611904Y31769048D02*
X2811904Y31769048D01*
X2926190Y31692858D01*
X3002380Y31616667D01*
X3040476Y31540477D01*
X2888095Y32302381D02*
X2850000Y32340477D01*
X2811904Y32416667D01*
X2811904Y32607143D01*
X2850000Y32683334D01*
X2888095Y32721429D01*
X2964285Y32759524D01*
X3040476Y32759524D01*
X3154761Y32721429D01*
X3611904Y32264286D01*
X3611904Y32759524D01*
X53273333Y15719143D02*
X53006666Y15719143D01*
X53006666Y15300096D02*
X53006666Y16100096D01*
X53387619Y16100096D01*
X54111428Y15300096D02*
X53654285Y15300096D01*
X53882857Y15300096D02*
X53882857Y16100096D01*
X53806666Y15985810D01*
X53730476Y15909620D01*
X53654285Y15871524D01*
X53657142Y16897334D02*
X53704761Y16849715D01*
X53752380Y16706858D01*
X53752380Y16611620D01*
X53704761Y16468762D01*
X53609523Y16373524D01*
X53514285Y16325905D01*
X53323809Y16278286D01*
X53180952Y16278286D01*
X52990476Y16325905D01*
X52895238Y16373524D01*
X52800000Y16468762D01*
X52752380Y16611620D01*
X52752380Y16706858D01*
X52800000Y16849715D01*
X52847619Y16897334D01*
X53752380Y17373524D02*
X53752380Y17564000D01*
X53704761Y17659239D01*
X53657142Y17706858D01*
X53514285Y17802096D01*
X53323809Y17849715D01*
X52942857Y17849715D01*
X52847619Y17802096D01*
X52800000Y17754477D01*
X52752380Y17659239D01*
X52752380Y17468762D01*
X52800000Y17373524D01*
X52847619Y17325905D01*
X52942857Y17278286D01*
X53180952Y17278286D01*
X53276190Y17325905D01*
X53323809Y17373524D01*
X53371428Y17468762D01*
X53371428Y17659239D01*
X53323809Y17754477D01*
X53276190Y17802096D01*
X53180952Y17849715D01*
D11*
X12202380Y21916667D02*
X11726190Y21583334D01*
X12202380Y21345239D02*
X11202380Y21345239D01*
X11202380Y21726191D01*
X11250000Y21821429D01*
X11297619Y21869048D01*
X11392857Y21916667D01*
X11535714Y21916667D01*
X11630952Y21869048D01*
X11678571Y21821429D01*
X11726190Y21726191D01*
X11726190Y21345239D01*
X11678571Y22345239D02*
X11678571Y22678572D01*
X12202380Y22821429D02*
X12202380Y22345239D01*
X11202380Y22345239D01*
X11202380Y22821429D01*
X11678571Y23583334D02*
X11678571Y23250000D01*
X12202380Y23250000D02*
X11202380Y23250000D01*
X11202380Y23726191D01*
X11202380Y24250000D02*
X11440476Y24250000D01*
X11345238Y24011905D02*
X11440476Y24250000D01*
X11345238Y24488096D01*
X11630952Y24107143D02*
X11440476Y24250000D01*
X11630952Y24392858D01*
X11202380Y25011905D02*
X11440476Y25011905D01*
X11345238Y24773810D02*
X11440476Y25011905D01*
X11345238Y25250000D01*
X11630952Y24869048D02*
X11440476Y25011905D01*
X11630952Y25154762D01*
X24833333Y35892858D02*
X24785714Y35845239D01*
X24642857Y35797620D01*
X24547619Y35797620D01*
X24404761Y35845239D01*
X24309523Y35940477D01*
X24261904Y36035715D01*
X24214285Y36226191D01*
X24214285Y36369048D01*
X24261904Y36559524D01*
X24309523Y36654762D01*
X24404761Y36750000D01*
X24547619Y36797620D01*
X24642857Y36797620D01*
X24785714Y36750000D01*
X24833333Y36702381D01*
X25785714Y35797620D02*
X25214285Y35797620D01*
X25500000Y35797620D02*
X25500000Y36797620D01*
X25404761Y36654762D01*
X25309523Y36559524D01*
X25214285Y36511905D01*
X43202380Y12011905D02*
X42202380Y12011905D01*
X42202380Y12250000D01*
X42250000Y12392858D01*
X42345238Y12488096D01*
X42440476Y12535715D01*
X42630952Y12583334D01*
X42773809Y12583334D01*
X42964285Y12535715D01*
X43059523Y12488096D01*
X43154761Y12392858D01*
X43202380Y12250000D01*
X43202380Y12011905D01*
X42202380Y12916667D02*
X42202380Y13535715D01*
X42583333Y13202381D01*
X42583333Y13345239D01*
X42630952Y13440477D01*
X42678571Y13488096D01*
X42773809Y13535715D01*
X43011904Y13535715D01*
X43107142Y13488096D01*
X43154761Y13440477D01*
X43202380Y13345239D01*
X43202380Y13059524D01*
X43154761Y12964286D01*
X43107142Y12916667D01*
X27833333Y35892858D02*
X27785714Y35845239D01*
X27642857Y35797620D01*
X27547619Y35797620D01*
X27404761Y35845239D01*
X27309523Y35940477D01*
X27261904Y36035715D01*
X27214285Y36226191D01*
X27214285Y36369048D01*
X27261904Y36559524D01*
X27309523Y36654762D01*
X27404761Y36750000D01*
X27547619Y36797620D01*
X27642857Y36797620D01*
X27785714Y36750000D01*
X27833333Y36702381D01*
X28214285Y36702381D02*
X28261904Y36750000D01*
X28357142Y36797620D01*
X28595238Y36797620D01*
X28690476Y36750000D01*
X28738095Y36702381D01*
X28785714Y36607143D01*
X28785714Y36511905D01*
X28738095Y36369048D01*
X28166666Y35797620D01*
X28785714Y35797620D01*
X29452380Y38261905D02*
X28452380Y38261905D01*
X28452380Y38500000D01*
X28500000Y38642858D01*
X28595238Y38738096D01*
X28690476Y38785715D01*
X28880952Y38833334D01*
X29023809Y38833334D01*
X29214285Y38785715D01*
X29309523Y38738096D01*
X29404761Y38642858D01*
X29452380Y38500000D01*
X29452380Y38261905D01*
X28547619Y39214286D02*
X28500000Y39261905D01*
X28452380Y39357143D01*
X28452380Y39595239D01*
X28500000Y39690477D01*
X28547619Y39738096D01*
X28642857Y39785715D01*
X28738095Y39785715D01*
X28880952Y39738096D01*
X29452380Y39166667D01*
X29452380Y39785715D01*
X25202380Y41511905D02*
X24202380Y41511905D01*
X24202380Y41750000D01*
X24250000Y41892858D01*
X24345238Y41988096D01*
X24440476Y42035715D01*
X24630952Y42083334D01*
X24773809Y42083334D01*
X24964285Y42035715D01*
X25059523Y41988096D01*
X25154761Y41892858D01*
X25202380Y41750000D01*
X25202380Y41511905D01*
X25202380Y43035715D02*
X25202380Y42464286D01*
X25202380Y42750000D02*
X24202380Y42750000D01*
X24345238Y42654762D01*
X24440476Y42559524D01*
X24488095Y42464286D01*
X33197619Y20404762D02*
X33150000Y20309524D01*
X33054761Y20214286D01*
X32911904Y20071429D01*
X32864285Y19976191D01*
X32864285Y19880953D01*
X33102380Y19928572D02*
X33054761Y19833334D01*
X32959523Y19738096D01*
X32769047Y19690477D01*
X32435714Y19690477D01*
X32245238Y19738096D01*
X32150000Y19833334D01*
X32102380Y19928572D01*
X32102380Y20119048D01*
X32150000Y20214286D01*
X32245238Y20309524D01*
X32435714Y20357143D01*
X32769047Y20357143D01*
X32959523Y20309524D01*
X33054761Y20214286D01*
X33102380Y20119048D01*
X33102380Y19928572D01*
X33102380Y21309524D02*
X33102380Y20738096D01*
X33102380Y21023810D02*
X32102380Y21023810D01*
X32245238Y20928572D01*
X32340476Y20833334D01*
X32388095Y20738096D01*
X9738095Y30047620D02*
X9738095Y29238096D01*
X9785714Y29142858D01*
X9833333Y29095239D01*
X9928571Y29047620D01*
X10119047Y29047620D01*
X10214285Y29095239D01*
X10261904Y29142858D01*
X10309523Y29238096D01*
X10309523Y30047620D01*
X11309523Y29047620D02*
X10738095Y29047620D01*
X11023809Y29047620D02*
X11023809Y30047620D01*
X10928571Y29904762D01*
X10833333Y29809524D01*
X10738095Y29761905D01*
D13*
X51361904Y31116667D02*
X50980952Y30850000D01*
X51361904Y30659524D02*
X50561904Y30659524D01*
X50561904Y30964286D01*
X50600000Y31040477D01*
X50638095Y31078572D01*
X50714285Y31116667D01*
X50828571Y31116667D01*
X50904761Y31078572D01*
X50942857Y31040477D01*
X50980952Y30964286D01*
X50980952Y30659524D01*
X50904761Y31573810D02*
X50866666Y31497620D01*
X50828571Y31459524D01*
X50752380Y31421429D01*
X50714285Y31421429D01*
X50638095Y31459524D01*
X50600000Y31497620D01*
X50561904Y31573810D01*
X50561904Y31726191D01*
X50600000Y31802381D01*
X50638095Y31840477D01*
X50714285Y31878572D01*
X50752380Y31878572D01*
X50828571Y31840477D01*
X50866666Y31802381D01*
X50904761Y31726191D01*
X50904761Y31573810D01*
X50942857Y31497620D01*
X50980952Y31459524D01*
X51057142Y31421429D01*
X51209523Y31421429D01*
X51285714Y31459524D01*
X51323809Y31497620D01*
X51361904Y31573810D01*
X51361904Y31726191D01*
X51323809Y31802381D01*
X51285714Y31840477D01*
X51209523Y31878572D01*
X51057142Y31878572D01*
X50980952Y31840477D01*
X50942857Y31802381D01*
X50904761Y31726191D01*
X49116666Y35388096D02*
X48850000Y35769048D01*
X48659523Y35388096D02*
X48659523Y36188096D01*
X48964285Y36188096D01*
X49040476Y36150000D01*
X49078571Y36111905D01*
X49116666Y36035715D01*
X49116666Y35921429D01*
X49078571Y35845239D01*
X49040476Y35807143D01*
X48964285Y35769048D01*
X48659523Y35769048D01*
X49383333Y36188096D02*
X49916666Y36188096D01*
X49573809Y35388096D01*
X39651904Y39366667D02*
X39270952Y39100000D01*
X39651904Y38909524D02*
X38851904Y38909524D01*
X38851904Y39214286D01*
X38890000Y39290477D01*
X38928095Y39328572D01*
X39004285Y39366667D01*
X39118571Y39366667D01*
X39194761Y39328572D01*
X39232857Y39290477D01*
X39270952Y39214286D01*
X39270952Y38909524D01*
X38851904Y40052381D02*
X38851904Y39900000D01*
X38890000Y39823810D01*
X38928095Y39785715D01*
X39042380Y39709524D01*
X39194761Y39671429D01*
X39499523Y39671429D01*
X39575714Y39709524D01*
X39613809Y39747620D01*
X39651904Y39823810D01*
X39651904Y39976191D01*
X39613809Y40052381D01*
X39575714Y40090477D01*
X39499523Y40128572D01*
X39309047Y40128572D01*
X39232857Y40090477D01*
X39194761Y40052381D01*
X39156666Y39976191D01*
X39156666Y39823810D01*
X39194761Y39747620D01*
X39232857Y39709524D01*
X39309047Y39671429D01*
X11952380Y26833334D02*
X11476190Y26500000D01*
X11952380Y26261905D02*
X10952380Y26261905D01*
X10952380Y26642858D01*
X11000000Y26738096D01*
X11047619Y26785715D01*
X11142857Y26833334D01*
X11285714Y26833334D01*
X11380952Y26785715D01*
X11428571Y26738096D01*
X11476190Y26642858D01*
X11476190Y26261905D01*
X11047619Y27214286D02*
X11000000Y27261905D01*
X10952380Y27357143D01*
X10952380Y27595239D01*
X11000000Y27690477D01*
X11047619Y27738096D01*
X11142857Y27785715D01*
X11238095Y27785715D01*
X11380952Y27738096D01*
X11952380Y27166667D01*
X11952380Y27785715D01*
D10*
X10142857Y42821429D02*
X10142857Y44321429D01*
X10714285Y44321429D01*
X10857142Y44250000D01*
X10928571Y44178572D01*
X11000000Y44035715D01*
X11000000Y43821429D01*
X10928571Y43678572D01*
X10857142Y43607143D01*
X10714285Y43535715D01*
X10142857Y43535715D01*
X11571428Y44178572D02*
X11642857Y44250000D01*
X11785714Y44321429D01*
X12142857Y44321429D01*
X12285714Y44250000D01*
X12357142Y44178572D01*
X12428571Y44035715D01*
X12428571Y43892858D01*
X12357142Y43678572D01*
X11500000Y42821429D01*
X12428571Y42821429D01*
D13*
X31901904Y39116667D02*
X31520952Y38850000D01*
X31901904Y38659524D02*
X31101904Y38659524D01*
X31101904Y38964286D01*
X31140000Y39040477D01*
X31178095Y39078572D01*
X31254285Y39116667D01*
X31368571Y39116667D01*
X31444761Y39078572D01*
X31482857Y39040477D01*
X31520952Y38964286D01*
X31520952Y38659524D01*
X31101904Y39840477D02*
X31101904Y39459524D01*
X31482857Y39421429D01*
X31444761Y39459524D01*
X31406666Y39535715D01*
X31406666Y39726191D01*
X31444761Y39802381D01*
X31482857Y39840477D01*
X31559047Y39878572D01*
X31749523Y39878572D01*
X31825714Y39840477D01*
X31863809Y39802381D01*
X31901904Y39726191D01*
X31901904Y39535715D01*
X31863809Y39459524D01*
X31825714Y39421429D01*
X26366666Y36888096D02*
X26100000Y37269048D01*
X25909523Y36888096D02*
X25909523Y37688096D01*
X26214285Y37688096D01*
X26290476Y37650000D01*
X26328571Y37611905D01*
X26366666Y37535715D01*
X26366666Y37421429D01*
X26328571Y37345239D01*
X26290476Y37307143D01*
X26214285Y37269048D01*
X25909523Y37269048D01*
X27052380Y37421429D02*
X27052380Y36888096D01*
X26861904Y37726191D02*
X26671428Y37154762D01*
X27166666Y37154762D01*
D10*
X50642857Y571429D02*
X50642857Y2071429D01*
X51214285Y2071429D01*
X51357142Y2000000D01*
X51428571Y1928572D01*
X51500000Y1785715D01*
X51500000Y1571429D01*
X51428571Y1428572D01*
X51357142Y1357143D01*
X51214285Y1285715D01*
X50642857Y1285715D01*
X52000000Y2071429D02*
X52928571Y2071429D01*
X52428571Y1500000D01*
X52642857Y1500000D01*
X52785714Y1428572D01*
X52857142Y1357143D01*
X52928571Y1214286D01*
X52928571Y857143D01*
X52857142Y714286D01*
X52785714Y642858D01*
X52642857Y571429D01*
X52214285Y571429D01*
X52071428Y642858D01*
X52000000Y714286D01*
D13*
X44785714Y24985715D02*
X44823809Y24947620D01*
X44861904Y24833334D01*
X44861904Y24757143D01*
X44823809Y24642858D01*
X44747619Y24566667D01*
X44671428Y24528572D01*
X44519047Y24490477D01*
X44404761Y24490477D01*
X44252380Y24528572D01*
X44176190Y24566667D01*
X44100000Y24642858D01*
X44061904Y24757143D01*
X44061904Y24833334D01*
X44100000Y24947620D01*
X44138095Y24985715D01*
X44861904Y25747620D02*
X44861904Y25290477D01*
X44861904Y25519048D02*
X44061904Y25519048D01*
X44176190Y25442858D01*
X44252380Y25366667D01*
X44290476Y25290477D01*
X44861904Y26509524D02*
X44861904Y26052381D01*
X44861904Y26280953D02*
X44061904Y26280953D01*
X44176190Y26204762D01*
X44252380Y26128572D01*
X44290476Y26052381D01*
X46035714Y30735715D02*
X46073809Y30697620D01*
X46111904Y30583334D01*
X46111904Y30507143D01*
X46073809Y30392858D01*
X45997619Y30316667D01*
X45921428Y30278572D01*
X45769047Y30240477D01*
X45654761Y30240477D01*
X45502380Y30278572D01*
X45426190Y30316667D01*
X45350000Y30392858D01*
X45311904Y30507143D01*
X45311904Y30583334D01*
X45350000Y30697620D01*
X45388095Y30735715D01*
X46111904Y31497620D02*
X46111904Y31040477D01*
X46111904Y31269048D02*
X45311904Y31269048D01*
X45426190Y31192858D01*
X45502380Y31116667D01*
X45540476Y31040477D01*
X45311904Y31992858D02*
X45311904Y32069048D01*
X45350000Y32145239D01*
X45388095Y32183334D01*
X45464285Y32221429D01*
X45616666Y32259524D01*
X45807142Y32259524D01*
X45959523Y32221429D01*
X46035714Y32183334D01*
X46073809Y32145239D01*
X46111904Y32069048D01*
X46111904Y31992858D01*
X46073809Y31916667D01*
X46035714Y31878572D01*
X45959523Y31840477D01*
X45807142Y31802381D01*
X45616666Y31802381D01*
X45464285Y31840477D01*
X45388095Y31878572D01*
X45350000Y31916667D01*
X45311904Y31992858D01*
X42451714Y41866667D02*
X42489809Y41828572D01*
X42527904Y41714286D01*
X42527904Y41638096D01*
X42489809Y41523810D01*
X42413619Y41447620D01*
X42337428Y41409524D01*
X42185047Y41371429D01*
X42070761Y41371429D01*
X41918380Y41409524D01*
X41842190Y41447620D01*
X41766000Y41523810D01*
X41727904Y41638096D01*
X41727904Y41714286D01*
X41766000Y41828572D01*
X41804095Y41866667D01*
X42070761Y42323810D02*
X42032666Y42247620D01*
X41994571Y42209524D01*
X41918380Y42171429D01*
X41880285Y42171429D01*
X41804095Y42209524D01*
X41766000Y42247620D01*
X41727904Y42323810D01*
X41727904Y42476191D01*
X41766000Y42552381D01*
X41804095Y42590477D01*
X41880285Y42628572D01*
X41918380Y42628572D01*
X41994571Y42590477D01*
X42032666Y42552381D01*
X42070761Y42476191D01*
X42070761Y42323810D01*
X42108857Y42247620D01*
X42146952Y42209524D01*
X42223142Y42171429D01*
X42375523Y42171429D01*
X42451714Y42209524D01*
X42489809Y42247620D01*
X42527904Y42323810D01*
X42527904Y42476191D01*
X42489809Y42552381D01*
X42451714Y42590477D01*
X42375523Y42628572D01*
X42223142Y42628572D01*
X42146952Y42590477D01*
X42108857Y42552381D01*
X42070761Y42476191D01*
X37785714Y39366667D02*
X37823809Y39328572D01*
X37861904Y39214286D01*
X37861904Y39138096D01*
X37823809Y39023810D01*
X37747619Y38947620D01*
X37671428Y38909524D01*
X37519047Y38871429D01*
X37404761Y38871429D01*
X37252380Y38909524D01*
X37176190Y38947620D01*
X37100000Y39023810D01*
X37061904Y39138096D01*
X37061904Y39214286D01*
X37100000Y39328572D01*
X37138095Y39366667D01*
X37061904Y40090477D02*
X37061904Y39709524D01*
X37442857Y39671429D01*
X37404761Y39709524D01*
X37366666Y39785715D01*
X37366666Y39976191D01*
X37404761Y40052381D01*
X37442857Y40090477D01*
X37519047Y40128572D01*
X37709523Y40128572D01*
X37785714Y40090477D01*
X37823809Y40052381D01*
X37861904Y39976191D01*
X37861904Y39785715D01*
X37823809Y39709524D01*
X37785714Y39671429D01*
X35366666Y43964286D02*
X35328571Y43926191D01*
X35214285Y43888096D01*
X35138095Y43888096D01*
X35023809Y43926191D01*
X34947619Y44002381D01*
X34909523Y44078572D01*
X34871428Y44230953D01*
X34871428Y44345239D01*
X34909523Y44497620D01*
X34947619Y44573810D01*
X35023809Y44650000D01*
X35138095Y44688096D01*
X35214285Y44688096D01*
X35328571Y44650000D01*
X35366666Y44611905D01*
X35633333Y44688096D02*
X36166666Y44688096D01*
X35823809Y43888096D01*
X20535714Y30116667D02*
X20573809Y30078572D01*
X20611904Y29964286D01*
X20611904Y29888096D01*
X20573809Y29773810D01*
X20497619Y29697620D01*
X20421428Y29659524D01*
X20269047Y29621429D01*
X20154761Y29621429D01*
X20002380Y29659524D01*
X19926190Y29697620D01*
X19850000Y29773810D01*
X19811904Y29888096D01*
X19811904Y29964286D01*
X19850000Y30078572D01*
X19888095Y30116667D01*
X20078571Y30802381D02*
X20611904Y30802381D01*
X19773809Y30611905D02*
X20345238Y30421429D01*
X20345238Y30916667D01*
X22535714Y30116667D02*
X22573809Y30078572D01*
X22611904Y29964286D01*
X22611904Y29888096D01*
X22573809Y29773810D01*
X22497619Y29697620D01*
X22421428Y29659524D01*
X22269047Y29621429D01*
X22154761Y29621429D01*
X22002380Y29659524D01*
X21926190Y29697620D01*
X21850000Y29773810D01*
X21811904Y29888096D01*
X21811904Y29964286D01*
X21850000Y30078572D01*
X21888095Y30116667D01*
X21811904Y30802381D02*
X21811904Y30650000D01*
X21850000Y30573810D01*
X21888095Y30535715D01*
X22002380Y30459524D01*
X22154761Y30421429D01*
X22459523Y30421429D01*
X22535714Y30459524D01*
X22573809Y30497620D01*
X22611904Y30573810D01*
X22611904Y30726191D01*
X22573809Y30802381D01*
X22535714Y30840477D01*
X22459523Y30878572D01*
X22269047Y30878572D01*
X22192857Y30840477D01*
X22154761Y30802381D01*
X22116666Y30726191D01*
X22116666Y30573810D01*
X22154761Y30497620D01*
X22192857Y30459524D01*
X22269047Y30421429D01*
X33785714Y39116667D02*
X33823809Y39078572D01*
X33861904Y38964286D01*
X33861904Y38888096D01*
X33823809Y38773810D01*
X33747619Y38697620D01*
X33671428Y38659524D01*
X33519047Y38621429D01*
X33404761Y38621429D01*
X33252380Y38659524D01*
X33176190Y38697620D01*
X33100000Y38773810D01*
X33061904Y38888096D01*
X33061904Y38964286D01*
X33100000Y39078572D01*
X33138095Y39116667D01*
X33061904Y39383334D02*
X33061904Y39878572D01*
X33366666Y39611905D01*
X33366666Y39726191D01*
X33404761Y39802381D01*
X33442857Y39840477D01*
X33519047Y39878572D01*
X33709523Y39878572D01*
X33785714Y39840477D01*
X33823809Y39802381D01*
X33861904Y39726191D01*
X33861904Y39497620D01*
X33823809Y39421429D01*
X33785714Y39383334D01*
X34659523Y29388096D02*
X34659523Y30188096D01*
X34850000Y30188096D01*
X34964285Y30150000D01*
X35040476Y30073810D01*
X35078571Y29997620D01*
X35116666Y29845239D01*
X35116666Y29730953D01*
X35078571Y29578572D01*
X35040476Y29502381D01*
X34964285Y29426191D01*
X34850000Y29388096D01*
X34659523Y29388096D01*
X35802380Y29921429D02*
X35802380Y29388096D01*
X35611904Y30226191D02*
X35421428Y29654762D01*
X35916666Y29654762D01*
X45826564Y39661625D02*
X46392250Y40227310D01*
X46526937Y40092623D01*
X46580812Y39984874D01*
X46580812Y39877124D01*
X46553874Y39796312D01*
X46473062Y39661625D01*
X46392250Y39580813D01*
X46257563Y39500000D01*
X46176751Y39473063D01*
X46069001Y39473063D01*
X45961251Y39526938D01*
X45826564Y39661625D01*
X47227309Y39392251D02*
X46957935Y39661625D01*
X46661624Y39419188D01*
X46715499Y39419188D01*
X46796311Y39392251D01*
X46930998Y39257564D01*
X46957935Y39176752D01*
X46957935Y39122877D01*
X46930998Y39042065D01*
X46796311Y38907378D01*
X46715499Y38880440D01*
X46661624Y38880440D01*
X46580812Y38907378D01*
X46446125Y39042065D01*
X46419187Y39122877D01*
X46419187Y39176752D01*
X37963739Y35921802D02*
X37627021Y36258520D01*
X38334128Y36965626D01*
X38569830Y35315710D02*
X38165769Y35719771D01*
X38367800Y35517741D02*
X39074907Y36224848D01*
X38906548Y36191176D01*
X38771861Y36191176D01*
X38670846Y36224848D01*
D10*
X9642857Y821429D02*
X9642857Y2321429D01*
X10214285Y2321429D01*
X10357142Y2250000D01*
X10428571Y2178572D01*
X10500000Y2035715D01*
X10500000Y1821429D01*
X10428571Y1678572D01*
X10357142Y1607143D01*
X10214285Y1535715D01*
X9642857Y1535715D01*
X11928571Y821429D02*
X11071428Y821429D01*
X11500000Y821429D02*
X11500000Y2321429D01*
X11357142Y2107143D01*
X11214285Y1964286D01*
X11071428Y1892858D01*
D13*
X3611904Y33866667D02*
X3230952Y33600000D01*
X3611904Y33409524D02*
X2811904Y33409524D01*
X2811904Y33714286D01*
X2850000Y33790477D01*
X2888095Y33828572D01*
X2964285Y33866667D01*
X3078571Y33866667D01*
X3154761Y33828572D01*
X3192857Y33790477D01*
X3230952Y33714286D01*
X3230952Y33409524D01*
X3611904Y34628572D02*
X3611904Y34171429D01*
X3611904Y34400000D02*
X2811904Y34400000D01*
X2926190Y34323810D01*
X3002380Y34247620D01*
X3040476Y34171429D01*
X31866666Y25638096D02*
X31600000Y26019048D01*
X31409523Y25638096D02*
X31409523Y26438096D01*
X31714285Y26438096D01*
X31790476Y26400000D01*
X31828571Y26361905D01*
X31866666Y26285715D01*
X31866666Y26171429D01*
X31828571Y26095239D01*
X31790476Y26057143D01*
X31714285Y26019048D01*
X31409523Y26019048D01*
X32133333Y26438096D02*
X32628571Y26438096D01*
X32361904Y26133334D01*
X32476190Y26133334D01*
X32552380Y26095239D01*
X32590476Y26057143D01*
X32628571Y25980953D01*
X32628571Y25790477D01*
X32590476Y25714286D01*
X32552380Y25676191D01*
X32476190Y25638096D01*
X32247619Y25638096D01*
X32171428Y25676191D01*
X32133333Y25714286D01*
X48952380Y20988096D02*
X49761904Y20988096D01*
X49857142Y21035715D01*
X49904761Y21083334D01*
X49952380Y21178572D01*
X49952380Y21369048D01*
X49904761Y21464286D01*
X49857142Y21511905D01*
X49761904Y21559524D01*
X48952380Y21559524D01*
X48952380Y22511905D02*
X48952380Y22035715D01*
X49428571Y21988096D01*
X49380952Y22035715D01*
X49333333Y22130953D01*
X49333333Y22369048D01*
X49380952Y22464286D01*
X49428571Y22511905D01*
X49523809Y22559524D01*
X49761904Y22559524D01*
X49857142Y22511905D01*
X49904761Y22464286D01*
X49952380Y22369048D01*
X49952380Y22130953D01*
X49904761Y22035715D01*
X49857142Y21988096D01*
M02*
