G04 #@! TF.GenerationSoftware,KiCad,Pcbnew,(5.1.6)-1*
G04 #@! TF.CreationDate,2020-05-22T14:14:26+02:00*
G04 #@! TF.ProjectId,rect4,72656374-342e-46b6-9963-61645f706362,rev?*
G04 #@! TF.SameCoordinates,PX17d7840PYaba9500*
G04 #@! TF.FileFunction,Copper,L2,Bot*
G04 #@! TF.FilePolarity,Positive*
%FSLAX46Y46*%
G04 Gerber Fmt 4.6, Leading zero omitted, Abs format (unit mm)*
G04 Created by KiCad (PCBNEW (5.1.6)-1) date 2020-05-22 14:14:26*
%MOMM*%
%LPD*%
G01*
G04 APERTURE LIST*
G04 #@! TA.AperFunction,Profile*
%ADD10C,0.050000*%
G04 #@! TD*
G04 #@! TA.AperFunction,ComponentPad*
%ADD11O,2.000000X3.500000*%
G04 #@! TD*
G04 #@! TA.AperFunction,ComponentPad*
%ADD12O,1.600000X1.600000*%
G04 #@! TD*
G04 #@! TA.AperFunction,ComponentPad*
%ADD13C,1.600000*%
G04 #@! TD*
G04 #@! TA.AperFunction,ComponentPad*
%ADD14O,2.400000X2.400000*%
G04 #@! TD*
G04 #@! TA.AperFunction,ComponentPad*
%ADD15C,2.400000*%
G04 #@! TD*
G04 #@! TA.AperFunction,ComponentPad*
%ADD16C,3.000000*%
G04 #@! TD*
G04 #@! TA.AperFunction,ComponentPad*
%ADD17R,3.000000X3.000000*%
G04 #@! TD*
G04 #@! TA.AperFunction,ComponentPad*
%ADD18O,3.500000X2.000000*%
G04 #@! TD*
G04 #@! TA.AperFunction,ComponentPad*
%ADD19C,1.500000*%
G04 #@! TD*
G04 #@! TA.AperFunction,ComponentPad*
%ADD20C,2.000000*%
G04 #@! TD*
G04 #@! TA.AperFunction,ComponentPad*
%ADD21R,2.800000X2.800000*%
G04 #@! TD*
G04 #@! TA.AperFunction,ComponentPad*
%ADD22C,2.800000*%
G04 #@! TD*
G04 #@! TA.AperFunction,ComponentPad*
%ADD23O,2.200000X2.200000*%
G04 #@! TD*
G04 #@! TA.AperFunction,ComponentPad*
%ADD24R,2.200000X2.200000*%
G04 #@! TD*
G04 #@! TA.AperFunction,ComponentPad*
%ADD25C,3.300000*%
G04 #@! TD*
G04 #@! TA.AperFunction,ViaPad*
%ADD26C,0.800000*%
G04 #@! TD*
G04 #@! TA.AperFunction,Conductor*
%ADD27C,2.000000*%
G04 #@! TD*
G04 #@! TA.AperFunction,Conductor*
%ADD28C,3.000000*%
G04 #@! TD*
G04 #@! TA.AperFunction,Conductor*
%ADD29C,0.254000*%
G04 #@! TD*
G04 APERTURE END LIST*
D10*
X0Y55000000D02*
X95000000Y55000000D01*
X0Y0D02*
X0Y55000000D01*
X5000000Y0D02*
X0Y0D01*
X95000000Y0D02*
X95000000Y55000000D01*
X5000000Y0D02*
X95000000Y0D01*
D11*
G04 #@! TO.P,J4,3*
G04 #@! TO.N,Earth_Protective*
X13660000Y45500000D03*
G04 #@! TO.P,J4,2*
X8580000Y45500000D03*
G04 #@! TO.P,J4,1*
X3500000Y45500000D03*
G04 #@! TD*
D12*
G04 #@! TO.P,R2,2*
G04 #@! TO.N,VPP*
X55000000Y26620000D03*
D13*
G04 #@! TO.P,R2,1*
G04 #@! TO.N,GNDPWR*
X55000000Y19000000D03*
G04 #@! TD*
D14*
G04 #@! TO.P,R1,2*
G04 #@! TO.N,Net-(F1-Pad1)*
X21060000Y44000000D03*
D15*
G04 #@! TO.P,R1,1*
G04 #@! TO.N,/L_switched*
X49000000Y44000000D03*
G04 #@! TD*
D16*
G04 #@! TO.P,K1,14*
G04 #@! TO.N,/L_switched*
X29000000Y34000000D03*
G04 #@! TO.P,K1,21*
G04 #@! TO.N,Net-(F1-Pad1)*
X36500000Y29000000D03*
G04 #@! TO.P,K1,12*
G04 #@! TO.N,Net-(K1-Pad12)*
X29000000Y24000000D03*
G04 #@! TO.P,K1,22*
G04 #@! TO.N,Net-(K1-Pad22)*
X36500000Y24000000D03*
G04 #@! TO.P,K1,24*
G04 #@! TO.N,/L_switched*
X36500000Y34000000D03*
G04 #@! TO.P,K1,11*
G04 #@! TO.N,Net-(F1-Pad1)*
X29000000Y29000000D03*
G04 #@! TO.P,K1,A2*
G04 #@! TO.N,Net-(D1-Pad1)*
X36500000Y9000000D03*
D17*
G04 #@! TO.P,K1,A1*
G04 #@! TO.N,Net-(D1-Pad2)*
X29000000Y9000000D03*
G04 #@! TD*
D18*
G04 #@! TO.P,J3,2*
G04 #@! TO.N,GNDPWR*
X86500000Y19920000D03*
G04 #@! TO.P,J3,1*
G04 #@! TO.N,VPP*
X86500000Y25000000D03*
G04 #@! TD*
G04 #@! TO.P,J2,2*
G04 #@! TO.N,Net-(D1-Pad2)*
G04 #@! TA.AperFunction,SMDPad,CuDef*
G36*
G01*
X45500000Y6375000D02*
X45500000Y7625000D01*
G75*
G02*
X46125000Y8250000I625000J0D01*
G01*
X47375000Y8250000D01*
G75*
G02*
X48000000Y7625000I0J-625000D01*
G01*
X48000000Y6375000D01*
G75*
G02*
X47375000Y5750000I-625000J0D01*
G01*
X46125000Y5750000D01*
G75*
G02*
X45500000Y6375000I0J625000D01*
G01*
G37*
G04 #@! TD.AperFunction*
G04 #@! TO.P,J2,1*
G04 #@! TO.N,Net-(D1-Pad1)*
G04 #@! TA.AperFunction,SMDPad,CuDef*
G36*
G01*
X42000000Y6375000D02*
X42000000Y7625000D01*
G75*
G02*
X42625000Y8250000I625000J0D01*
G01*
X43875000Y8250000D01*
G75*
G02*
X44500000Y7625000I0J-625000D01*
G01*
X44500000Y6375000D01*
G75*
G02*
X43875000Y5750000I-625000J0D01*
G01*
X42625000Y5750000D01*
G75*
G02*
X42000000Y6375000I0J625000D01*
G01*
G37*
G04 #@! TD.AperFunction*
D19*
X43250000Y7000000D03*
G04 #@! TO.P,J2,2*
G04 #@! TO.N,Net-(D1-Pad2)*
X46750000Y7000000D03*
G04 #@! TD*
D18*
G04 #@! TO.P,J1,3*
G04 #@! TO.N,Earth_Protective*
X10000000Y30160000D03*
G04 #@! TO.P,J1,2*
G04 #@! TO.N,Net-(F1-Pad2)*
X10000000Y25080000D03*
G04 #@! TO.P,J1,1*
G04 #@! TO.N,Net-(D2-Pad2)*
X10000000Y20000000D03*
G04 #@! TD*
D20*
G04 #@! TO.P,F1,2*
G04 #@! TO.N,Net-(F1-Pad2)*
X17920000Y28010000D03*
G04 #@! TO.P,F1,1*
G04 #@! TO.N,Net-(F1-Pad1)*
X23000000Y28000000D03*
G04 #@! TD*
D21*
G04 #@! TO.P,D2,1*
G04 #@! TO.N,VPP*
X46000000Y15000000D03*
D22*
G04 #@! TO.P,D2,2*
G04 #@! TO.N,Net-(D2-Pad2)*
X46000000Y20080000D03*
G04 #@! TO.P,D2,3*
G04 #@! TO.N,/L_switched*
X46000000Y25160000D03*
G04 #@! TO.P,D2,4*
G04 #@! TO.N,GNDPWR*
X46000000Y30240000D03*
G04 #@! TD*
D23*
G04 #@! TO.P,D1,2*
G04 #@! TO.N,Net-(D1-Pad2)*
X23840000Y3000000D03*
D24*
G04 #@! TO.P,D1,1*
G04 #@! TO.N,Net-(D1-Pad1)*
X34000000Y3000000D03*
G04 #@! TD*
G04 #@! TO.P,C2,1*
G04 #@! TO.N,VPP*
G04 #@! TA.AperFunction,ComponentPad*
G36*
G01*
X70825000Y36350000D02*
X69175000Y36350000D01*
G75*
G02*
X68350000Y37175000I0J825000D01*
G01*
X68350000Y38825000D01*
G75*
G02*
X69175000Y39650000I825000J0D01*
G01*
X70825000Y39650000D01*
G75*
G02*
X71650000Y38825000I0J-825000D01*
G01*
X71650000Y37175000D01*
G75*
G02*
X70825000Y36350000I-825000J0D01*
G01*
G37*
G04 #@! TD.AperFunction*
D25*
G04 #@! TO.P,C2,2*
G04 #@! TO.N,GNDPWR*
X70000000Y48000000D03*
G04 #@! TD*
G04 #@! TO.P,C1,1*
G04 #@! TO.N,VPP*
G04 #@! TA.AperFunction,ComponentPad*
G36*
G01*
X68175000Y21650000D02*
X69825000Y21650000D01*
G75*
G02*
X70650000Y20825000I0J-825000D01*
G01*
X70650000Y19175000D01*
G75*
G02*
X69825000Y18350000I-825000J0D01*
G01*
X68175000Y18350000D01*
G75*
G02*
X67350000Y19175000I0J825000D01*
G01*
X67350000Y20825000D01*
G75*
G02*
X68175000Y21650000I825000J0D01*
G01*
G37*
G04 #@! TD.AperFunction*
G04 #@! TO.P,C1,2*
G04 #@! TO.N,GNDPWR*
X69000000Y10000000D03*
G04 #@! TD*
D26*
G04 #@! TO.N,VPP*
X83500000Y25000000D03*
X82000000Y25000000D03*
X80500000Y25000000D03*
X79000000Y25000000D03*
X77500000Y25000000D03*
X76000000Y25000000D03*
X74750000Y26250000D03*
X73500000Y27500000D03*
X72000000Y28000000D03*
X70000000Y28000000D03*
X68000000Y28000000D03*
X66000000Y28000000D03*
X64000000Y28000000D03*
X62000000Y28000000D03*
X60000000Y28000000D03*
X58000000Y28000000D03*
X55940000Y27560000D03*
X70000000Y34000000D03*
X70000000Y32000000D03*
X70000000Y30000000D03*
X70000000Y25500000D03*
X70000000Y23000000D03*
G04 #@! TO.N,GNDPWR*
X67500000Y12500000D03*
X68500000Y12500000D03*
X69500000Y12500000D03*
X70500000Y12500000D03*
X71500000Y12500000D03*
X67500000Y13500000D03*
X68500000Y13500000D03*
X69500000Y13500000D03*
X70500000Y13500000D03*
X71500000Y13500000D03*
X68000000Y45000000D03*
X69000000Y45000000D03*
X70000000Y45000000D03*
X71000000Y45000000D03*
X72000000Y45000000D03*
X72000000Y46000000D03*
X68000000Y46000000D03*
X67000000Y46000000D03*
X67000000Y45000000D03*
X73000000Y45000000D03*
X73000000Y47000000D03*
X73000000Y46000000D03*
X67000000Y47000000D03*
X85000000Y18000000D03*
X86000000Y18000000D03*
X87000000Y18000000D03*
X88000000Y18000000D03*
X89000000Y18000000D03*
X84000000Y18000000D03*
X90000000Y18000000D03*
X90000000Y19000000D03*
X90000000Y20000000D03*
X90000000Y21000000D03*
X89000000Y21000000D03*
X89000000Y20000000D03*
X89000000Y19000000D03*
X84000000Y19000000D03*
X84000000Y20000000D03*
X83000000Y18000000D03*
X83000000Y19000000D03*
X83000000Y20000000D03*
X84000000Y21000000D03*
X83000000Y21000000D03*
X66500000Y13500000D03*
X66500000Y12500000D03*
X71500000Y11500000D03*
X66500000Y11500000D03*
G04 #@! TD*
D27*
G04 #@! TO.N,VPP*
X73000000Y28000000D02*
X73500000Y27500000D01*
X76000000Y25000000D02*
X77500000Y25000000D01*
X55000000Y26620000D02*
X55940000Y27560000D01*
X56380000Y28000000D02*
X58000000Y28000000D01*
X83500000Y25000000D02*
X86500000Y25000000D01*
X82000000Y25000000D02*
X83500000Y25000000D01*
X80500000Y25000000D02*
X82000000Y25000000D01*
X79000000Y25000000D02*
X80500000Y25000000D01*
X77500000Y25000000D02*
X79000000Y25000000D01*
X76000000Y25000000D02*
X76000000Y25000000D01*
X74750000Y26250000D02*
X76000000Y25000000D01*
X73500000Y27500000D02*
X74750000Y26250000D01*
X72000000Y28000000D02*
X73000000Y28000000D01*
X70000000Y28000000D02*
X72000000Y28000000D01*
X68000000Y28000000D02*
X70000000Y28000000D01*
X66000000Y28000000D02*
X68000000Y28000000D01*
X64000000Y28000000D02*
X66000000Y28000000D01*
X62000000Y28000000D02*
X64000000Y28000000D01*
X60000000Y28000000D02*
X62000000Y28000000D01*
X58000000Y28000000D02*
X60000000Y28000000D01*
X55940000Y27560000D02*
X56380000Y28000000D01*
X70000000Y21000000D02*
X69000000Y20000000D01*
X70000000Y38000000D02*
X70000000Y35500000D01*
X70000000Y35500000D02*
X70000000Y34000000D01*
X70000000Y34000000D02*
X70000000Y32500000D01*
X70000000Y32500000D02*
X70000000Y31000000D01*
X70000000Y31000000D02*
X70000000Y26500000D01*
X70000000Y23000000D02*
X70000000Y23000000D01*
X70000000Y25000000D02*
X70000000Y23000000D01*
X70000000Y26500000D02*
X70000000Y25500000D01*
X70000000Y25500000D02*
X70000000Y25000000D01*
X70000000Y23000000D02*
X70000000Y21000000D01*
D28*
X46000000Y15000000D02*
X48000000Y15000000D01*
X48000000Y15000000D02*
X50000000Y17000000D01*
X50000000Y17000000D02*
X50000000Y23500000D01*
X50000000Y23500000D02*
X52500000Y26000000D01*
X54380000Y26000000D02*
X55000000Y26620000D01*
X52500000Y26000000D02*
X54380000Y26000000D01*
G04 #@! TO.N,GNDPWR*
X46000000Y30240000D02*
X51740000Y30240000D01*
X51740000Y30240000D02*
X55000000Y33500000D01*
X46000000Y30240000D02*
X48760000Y33000000D01*
X48760000Y33000000D02*
X51500000Y33000000D01*
X51500000Y33000000D02*
X52000000Y33000000D01*
X52000000Y33000000D02*
X54000000Y35000000D01*
D27*
G04 #@! TO.N,Earth_Protective*
X7500000Y32660000D02*
X10000000Y30160000D01*
X7500000Y45000000D02*
X7000000Y45500000D01*
X7500000Y32660000D02*
X7500000Y45000000D01*
X3500000Y45500000D02*
X7000000Y45500000D01*
X7000000Y45500000D02*
X13660000Y45500000D01*
G04 #@! TD*
D29*
G04 #@! TO.N,GNDPWR*
G36*
X94340000Y660000D02*
G01*
X53127000Y660000D01*
X53127000Y10307983D01*
X81873000Y10307983D01*
X81873000Y9692017D01*
X81993169Y9087888D01*
X82228889Y8518810D01*
X82571101Y8006654D01*
X83006654Y7571101D01*
X83518810Y7228889D01*
X84087888Y6993169D01*
X84692017Y6873000D01*
X85307983Y6873000D01*
X85912112Y6993169D01*
X86481190Y7228889D01*
X86993346Y7571101D01*
X87428899Y8006654D01*
X87771111Y8518810D01*
X88006831Y9087888D01*
X88127000Y9692017D01*
X88127000Y10307983D01*
X88006831Y10912112D01*
X87771111Y11481190D01*
X87428899Y11993346D01*
X86993346Y12428899D01*
X86481190Y12771111D01*
X85912112Y13006831D01*
X85307983Y13127000D01*
X84692017Y13127000D01*
X84087888Y13006831D01*
X83518810Y12771111D01*
X83006654Y12428899D01*
X82571101Y11993346D01*
X82228889Y11481190D01*
X81993169Y10912112D01*
X81873000Y10307983D01*
X53127000Y10307983D01*
X53127000Y22911861D01*
X53588139Y23373000D01*
X54250955Y23373000D01*
X54380000Y23360290D01*
X54509045Y23373000D01*
X54509048Y23373000D01*
X54894982Y23411011D01*
X55390173Y23561226D01*
X55846544Y23805161D01*
X56246557Y24133443D01*
X56328825Y24233687D01*
X56948819Y24853681D01*
X57194838Y25153456D01*
X57438773Y25609827D01*
X57518606Y25873000D01*
X67873000Y25873000D01*
X67873000Y23104487D01*
X67862709Y23000000D01*
X67873000Y22895513D01*
X67873000Y22752709D01*
X67793120Y22744841D01*
X67425915Y22633451D01*
X67087497Y22452563D01*
X66790872Y22209128D01*
X66547437Y21912503D01*
X66366549Y21574085D01*
X66255159Y21206880D01*
X66217547Y20825000D01*
X66217547Y19175000D01*
X66255159Y18793120D01*
X66366549Y18425915D01*
X66547437Y18087497D01*
X66790872Y17790872D01*
X67087497Y17547437D01*
X67425915Y17366549D01*
X67793120Y17255159D01*
X68175000Y17217547D01*
X69825000Y17217547D01*
X70206880Y17255159D01*
X70574085Y17366549D01*
X70912503Y17547437D01*
X71209128Y17790872D01*
X71452563Y18087497D01*
X71633451Y18425915D01*
X71744841Y18793120D01*
X71782453Y19175000D01*
X71782453Y19822613D01*
X71974599Y20182094D01*
X72096224Y20583035D01*
X72127000Y20895513D01*
X72137291Y21000000D01*
X72127000Y21104487D01*
X72127000Y22895513D01*
X72137291Y23000000D01*
X72127000Y23104487D01*
X72127000Y25864969D01*
X74422095Y23569874D01*
X74488707Y23488707D01*
X74712022Y23305437D01*
X74812584Y23222907D01*
X75049593Y23096224D01*
X75182094Y23025401D01*
X75583035Y22903776D01*
X75895513Y22873000D01*
X75895515Y22873000D01*
X76000000Y22862709D01*
X76104485Y22873000D01*
X87354487Y22873000D01*
X87666965Y22903776D01*
X88067906Y23025401D01*
X88437415Y23222907D01*
X88761293Y23488707D01*
X89027093Y23812585D01*
X89224599Y24182094D01*
X89346224Y24583035D01*
X89387291Y25000000D01*
X89346224Y25416965D01*
X89224599Y25817906D01*
X89027093Y26187415D01*
X88761293Y26511293D01*
X88437415Y26777093D01*
X88067906Y26974599D01*
X87666965Y27096224D01*
X87354487Y27127000D01*
X76881031Y27127000D01*
X74577905Y29430126D01*
X74511293Y29511293D01*
X74187415Y29777093D01*
X73817906Y29974599D01*
X73416965Y30096224D01*
X73104487Y30127000D01*
X73104485Y30127000D01*
X73000000Y30137291D01*
X72895515Y30127000D01*
X72127000Y30127000D01*
X72127000Y35307983D01*
X81873000Y35307983D01*
X81873000Y34692017D01*
X81993169Y34087888D01*
X82228889Y33518810D01*
X82571101Y33006654D01*
X83006654Y32571101D01*
X83518810Y32228889D01*
X84087888Y31993169D01*
X84692017Y31873000D01*
X85307983Y31873000D01*
X85912112Y31993169D01*
X86481190Y32228889D01*
X86993346Y32571101D01*
X87428899Y33006654D01*
X87771111Y33518810D01*
X88006831Y34087888D01*
X88127000Y34692017D01*
X88127000Y35307983D01*
X88006831Y35912112D01*
X87771111Y36481190D01*
X87428899Y36993346D01*
X86993346Y37428899D01*
X86481190Y37771111D01*
X85912112Y38006831D01*
X85307983Y38127000D01*
X84692017Y38127000D01*
X84087888Y38006831D01*
X83518810Y37771111D01*
X83006654Y37428899D01*
X82571101Y36993346D01*
X82228889Y36481190D01*
X81993169Y35912112D01*
X81873000Y35307983D01*
X72127000Y35307983D01*
X72127000Y35723471D01*
X72209128Y35790872D01*
X72452563Y36087497D01*
X72633451Y36425915D01*
X72744841Y36793120D01*
X72782453Y37175000D01*
X72782453Y38825000D01*
X72744841Y39206880D01*
X72633451Y39574085D01*
X72452563Y39912503D01*
X72209128Y40209128D01*
X71912503Y40452563D01*
X71574085Y40633451D01*
X71206880Y40744841D01*
X70825000Y40782453D01*
X69175000Y40782453D01*
X68793120Y40744841D01*
X68425915Y40633451D01*
X68087497Y40452563D01*
X67790872Y40209128D01*
X67547437Y39912503D01*
X67366549Y39574085D01*
X67255159Y39206880D01*
X67217547Y38825000D01*
X67217547Y37175000D01*
X67255159Y36793120D01*
X67366549Y36425915D01*
X67547437Y36087497D01*
X67790872Y35790872D01*
X67873000Y35723471D01*
X67873000Y30127000D01*
X56484485Y30127000D01*
X56380000Y30137291D01*
X56275515Y30127000D01*
X56275513Y30127000D01*
X55963035Y30096224D01*
X55562094Y29974599D01*
X55192585Y29777093D01*
X54868707Y29511293D01*
X54802095Y29430126D01*
X54591439Y29219470D01*
X54485017Y29208988D01*
X53989827Y29058773D01*
X53533456Y28814838D01*
X53304575Y28627000D01*
X53127000Y28627000D01*
X53127000Y49873000D01*
X94340001Y49873000D01*
X94340000Y660000D01*
G37*
X94340000Y660000D02*
X53127000Y660000D01*
X53127000Y10307983D01*
X81873000Y10307983D01*
X81873000Y9692017D01*
X81993169Y9087888D01*
X82228889Y8518810D01*
X82571101Y8006654D01*
X83006654Y7571101D01*
X83518810Y7228889D01*
X84087888Y6993169D01*
X84692017Y6873000D01*
X85307983Y6873000D01*
X85912112Y6993169D01*
X86481190Y7228889D01*
X86993346Y7571101D01*
X87428899Y8006654D01*
X87771111Y8518810D01*
X88006831Y9087888D01*
X88127000Y9692017D01*
X88127000Y10307983D01*
X88006831Y10912112D01*
X87771111Y11481190D01*
X87428899Y11993346D01*
X86993346Y12428899D01*
X86481190Y12771111D01*
X85912112Y13006831D01*
X85307983Y13127000D01*
X84692017Y13127000D01*
X84087888Y13006831D01*
X83518810Y12771111D01*
X83006654Y12428899D01*
X82571101Y11993346D01*
X82228889Y11481190D01*
X81993169Y10912112D01*
X81873000Y10307983D01*
X53127000Y10307983D01*
X53127000Y22911861D01*
X53588139Y23373000D01*
X54250955Y23373000D01*
X54380000Y23360290D01*
X54509045Y23373000D01*
X54509048Y23373000D01*
X54894982Y23411011D01*
X55390173Y23561226D01*
X55846544Y23805161D01*
X56246557Y24133443D01*
X56328825Y24233687D01*
X56948819Y24853681D01*
X57194838Y25153456D01*
X57438773Y25609827D01*
X57518606Y25873000D01*
X67873000Y25873000D01*
X67873000Y23104487D01*
X67862709Y23000000D01*
X67873000Y22895513D01*
X67873000Y22752709D01*
X67793120Y22744841D01*
X67425915Y22633451D01*
X67087497Y22452563D01*
X66790872Y22209128D01*
X66547437Y21912503D01*
X66366549Y21574085D01*
X66255159Y21206880D01*
X66217547Y20825000D01*
X66217547Y19175000D01*
X66255159Y18793120D01*
X66366549Y18425915D01*
X66547437Y18087497D01*
X66790872Y17790872D01*
X67087497Y17547437D01*
X67425915Y17366549D01*
X67793120Y17255159D01*
X68175000Y17217547D01*
X69825000Y17217547D01*
X70206880Y17255159D01*
X70574085Y17366549D01*
X70912503Y17547437D01*
X71209128Y17790872D01*
X71452563Y18087497D01*
X71633451Y18425915D01*
X71744841Y18793120D01*
X71782453Y19175000D01*
X71782453Y19822613D01*
X71974599Y20182094D01*
X72096224Y20583035D01*
X72127000Y20895513D01*
X72137291Y21000000D01*
X72127000Y21104487D01*
X72127000Y22895513D01*
X72137291Y23000000D01*
X72127000Y23104487D01*
X72127000Y25864969D01*
X74422095Y23569874D01*
X74488707Y23488707D01*
X74712022Y23305437D01*
X74812584Y23222907D01*
X75049593Y23096224D01*
X75182094Y23025401D01*
X75583035Y22903776D01*
X75895513Y22873000D01*
X75895515Y22873000D01*
X76000000Y22862709D01*
X76104485Y22873000D01*
X87354487Y22873000D01*
X87666965Y22903776D01*
X88067906Y23025401D01*
X88437415Y23222907D01*
X88761293Y23488707D01*
X89027093Y23812585D01*
X89224599Y24182094D01*
X89346224Y24583035D01*
X89387291Y25000000D01*
X89346224Y25416965D01*
X89224599Y25817906D01*
X89027093Y26187415D01*
X88761293Y26511293D01*
X88437415Y26777093D01*
X88067906Y26974599D01*
X87666965Y27096224D01*
X87354487Y27127000D01*
X76881031Y27127000D01*
X74577905Y29430126D01*
X74511293Y29511293D01*
X74187415Y29777093D01*
X73817906Y29974599D01*
X73416965Y30096224D01*
X73104487Y30127000D01*
X73104485Y30127000D01*
X73000000Y30137291D01*
X72895515Y30127000D01*
X72127000Y30127000D01*
X72127000Y35307983D01*
X81873000Y35307983D01*
X81873000Y34692017D01*
X81993169Y34087888D01*
X82228889Y33518810D01*
X82571101Y33006654D01*
X83006654Y32571101D01*
X83518810Y32228889D01*
X84087888Y31993169D01*
X84692017Y31873000D01*
X85307983Y31873000D01*
X85912112Y31993169D01*
X86481190Y32228889D01*
X86993346Y32571101D01*
X87428899Y33006654D01*
X87771111Y33518810D01*
X88006831Y34087888D01*
X88127000Y34692017D01*
X88127000Y35307983D01*
X88006831Y35912112D01*
X87771111Y36481190D01*
X87428899Y36993346D01*
X86993346Y37428899D01*
X86481190Y37771111D01*
X85912112Y38006831D01*
X85307983Y38127000D01*
X84692017Y38127000D01*
X84087888Y38006831D01*
X83518810Y37771111D01*
X83006654Y37428899D01*
X82571101Y36993346D01*
X82228889Y36481190D01*
X81993169Y35912112D01*
X81873000Y35307983D01*
X72127000Y35307983D01*
X72127000Y35723471D01*
X72209128Y35790872D01*
X72452563Y36087497D01*
X72633451Y36425915D01*
X72744841Y36793120D01*
X72782453Y37175000D01*
X72782453Y38825000D01*
X72744841Y39206880D01*
X72633451Y39574085D01*
X72452563Y39912503D01*
X72209128Y40209128D01*
X71912503Y40452563D01*
X71574085Y40633451D01*
X71206880Y40744841D01*
X70825000Y40782453D01*
X69175000Y40782453D01*
X68793120Y40744841D01*
X68425915Y40633451D01*
X68087497Y40452563D01*
X67790872Y40209128D01*
X67547437Y39912503D01*
X67366549Y39574085D01*
X67255159Y39206880D01*
X67217547Y38825000D01*
X67217547Y37175000D01*
X67255159Y36793120D01*
X67366549Y36425915D01*
X67547437Y36087497D01*
X67790872Y35790872D01*
X67873000Y35723471D01*
X67873000Y30127000D01*
X56484485Y30127000D01*
X56380000Y30137291D01*
X56275515Y30127000D01*
X56275513Y30127000D01*
X55963035Y30096224D01*
X55562094Y29974599D01*
X55192585Y29777093D01*
X54868707Y29511293D01*
X54802095Y29430126D01*
X54591439Y29219470D01*
X54485017Y29208988D01*
X53989827Y29058773D01*
X53533456Y28814838D01*
X53304575Y28627000D01*
X53127000Y28627000D01*
X53127000Y49873000D01*
X94340001Y49873000D01*
X94340000Y660000D01*
G04 #@! TD*
M02*
