G04 #@! TF.GenerationSoftware,KiCad,Pcbnew,(5.1.6)-1*
G04 #@! TF.CreationDate,2020-05-22T14:14:26+02:00*
G04 #@! TF.ProjectId,rect4,72656374-342e-46b6-9963-61645f706362,rev?*
G04 #@! TF.SameCoordinates,PX17d7840PYaba9500*
G04 #@! TF.FileFunction,Soldermask,Bot*
G04 #@! TF.FilePolarity,Negative*
%FSLAX46Y46*%
G04 Gerber Fmt 4.6, Leading zero omitted, Abs format (unit mm)*
G04 Created by KiCad (PCBNEW (5.1.6)-1) date 2020-05-22 14:14:26*
%MOMM*%
%LPD*%
G01*
G04 APERTURE LIST*
G04 #@! TA.AperFunction,Profile*
%ADD10C,0.050000*%
G04 #@! TD*
%ADD11O,2.100000X3.600000*%
%ADD12C,4.500000*%
%ADD13O,1.700000X1.700000*%
%ADD14C,1.700000*%
%ADD15O,2.500000X2.500000*%
%ADD16C,2.500000*%
%ADD17C,3.100000*%
%ADD18R,3.100000X3.100000*%
%ADD19O,3.600000X2.100000*%
%ADD20C,1.600000*%
%ADD21C,2.100000*%
%ADD22R,2.900000X2.900000*%
%ADD23C,2.900000*%
%ADD24O,2.300000X2.300000*%
%ADD25R,2.300000X2.300000*%
%ADD26C,3.400000*%
G04 APERTURE END LIST*
D10*
X0Y55000000D02*
X95000000Y55000000D01*
X0Y0D02*
X0Y55000000D01*
X5000000Y0D02*
X0Y0D01*
X95000000Y0D02*
X95000000Y55000000D01*
X5000000Y0D02*
X95000000Y0D01*
D11*
G04 #@! TO.C,J4*
X13660000Y45500000D03*
X8580000Y45500000D03*
X3500000Y45500000D03*
G04 #@! TD*
D12*
G04 #@! TO.C,U4*
X85000000Y35000000D03*
G04 #@! TD*
G04 #@! TO.C,U3*
X15000000Y35000000D03*
G04 #@! TD*
G04 #@! TO.C,U2*
X85000000Y10000000D03*
G04 #@! TD*
G04 #@! TO.C,U1*
X15000000Y10000000D03*
G04 #@! TD*
D13*
G04 #@! TO.C,R2*
X55000000Y26620000D03*
D14*
X55000000Y19000000D03*
G04 #@! TD*
D15*
G04 #@! TO.C,R1*
X21060000Y44000000D03*
D16*
X49000000Y44000000D03*
G04 #@! TD*
D17*
G04 #@! TO.C,K1*
X29000000Y34000000D03*
X36500000Y29000000D03*
X29000000Y24000000D03*
X36500000Y24000000D03*
X36500000Y34000000D03*
X29000000Y29000000D03*
X36500000Y9000000D03*
D18*
X29000000Y9000000D03*
G04 #@! TD*
D19*
G04 #@! TO.C,J3*
X86500000Y19920000D03*
X86500000Y25000000D03*
G04 #@! TD*
G04 #@! TO.C,J2*
G36*
G01*
X45450000Y6350000D02*
X45450000Y7650000D01*
G75*
G02*
X46100000Y8300000I650000J0D01*
G01*
X47400000Y8300000D01*
G75*
G02*
X48050000Y7650000I0J-650000D01*
G01*
X48050000Y6350000D01*
G75*
G02*
X47400000Y5700000I-650000J0D01*
G01*
X46100000Y5700000D01*
G75*
G02*
X45450000Y6350000I0J650000D01*
G01*
G37*
G36*
G01*
X41950000Y6350000D02*
X41950000Y7650000D01*
G75*
G02*
X42600000Y8300000I650000J0D01*
G01*
X43900000Y8300000D01*
G75*
G02*
X44550000Y7650000I0J-650000D01*
G01*
X44550000Y6350000D01*
G75*
G02*
X43900000Y5700000I-650000J0D01*
G01*
X42600000Y5700000D01*
G75*
G02*
X41950000Y6350000I0J650000D01*
G01*
G37*
D20*
X43250000Y7000000D03*
X46750000Y7000000D03*
G04 #@! TD*
D19*
G04 #@! TO.C,J1*
X10000000Y30160000D03*
X10000000Y25080000D03*
X10000000Y20000000D03*
G04 #@! TD*
D21*
G04 #@! TO.C,F1*
X17920000Y28010000D03*
X23000000Y28000000D03*
G04 #@! TD*
D22*
G04 #@! TO.C,D2*
X46000000Y15000000D03*
D23*
X46000000Y20080000D03*
X46000000Y25160000D03*
X46000000Y30240000D03*
G04 #@! TD*
D24*
G04 #@! TO.C,D1*
X23840000Y3000000D03*
D25*
X34000000Y3000000D03*
G04 #@! TD*
G04 #@! TO.C,C2*
G36*
G01*
X70850000Y36300000D02*
X69150000Y36300000D01*
G75*
G02*
X68300000Y37150000I0J850000D01*
G01*
X68300000Y38850000D01*
G75*
G02*
X69150000Y39700000I850000J0D01*
G01*
X70850000Y39700000D01*
G75*
G02*
X71700000Y38850000I0J-850000D01*
G01*
X71700000Y37150000D01*
G75*
G02*
X70850000Y36300000I-850000J0D01*
G01*
G37*
D26*
X70000000Y48000000D03*
G04 #@! TD*
G04 #@! TO.C,C1*
G36*
G01*
X68150000Y21700000D02*
X69850000Y21700000D01*
G75*
G02*
X70700000Y20850000I0J-850000D01*
G01*
X70700000Y19150000D01*
G75*
G02*
X69850000Y18300000I-850000J0D01*
G01*
X68150000Y18300000D01*
G75*
G02*
X67300000Y19150000I0J850000D01*
G01*
X67300000Y20850000D01*
G75*
G02*
X68150000Y21700000I850000J0D01*
G01*
G37*
X69000000Y10000000D03*
G04 #@! TD*
M02*
