G04 #@! TF.GenerationSoftware,KiCad,Pcbnew,(5.1.6)-1*
G04 #@! TF.CreationDate,2020-05-22T14:13:29+02:00*
G04 #@! TF.ProjectId,rect4,72656374-342e-46b6-9963-61645f706362,rev?*
G04 #@! TF.SameCoordinates,PX17d7840PYaba9500*
G04 #@! TF.FileFunction,Copper,L1,Top*
G04 #@! TF.FilePolarity,Positive*
%FSLAX46Y46*%
G04 Gerber Fmt 4.6, Leading zero omitted, Abs format (unit mm)*
G04 Created by KiCad (PCBNEW (5.1.6)-1) date 2020-05-22 14:13:29*
%MOMM*%
%LPD*%
G01*
G04 APERTURE LIST*
G04 #@! TA.AperFunction,Profile*
%ADD10C,0.050000*%
G04 #@! TD*
G04 #@! TA.AperFunction,ComponentPad*
%ADD11O,2.000000X3.500000*%
G04 #@! TD*
G04 #@! TA.AperFunction,ComponentPad*
%ADD12O,1.600000X1.600000*%
G04 #@! TD*
G04 #@! TA.AperFunction,ComponentPad*
%ADD13C,1.600000*%
G04 #@! TD*
G04 #@! TA.AperFunction,ComponentPad*
%ADD14O,2.400000X2.400000*%
G04 #@! TD*
G04 #@! TA.AperFunction,ComponentPad*
%ADD15C,2.400000*%
G04 #@! TD*
G04 #@! TA.AperFunction,ComponentPad*
%ADD16C,3.000000*%
G04 #@! TD*
G04 #@! TA.AperFunction,ComponentPad*
%ADD17R,3.000000X3.000000*%
G04 #@! TD*
G04 #@! TA.AperFunction,ComponentPad*
%ADD18O,3.500000X2.000000*%
G04 #@! TD*
G04 #@! TA.AperFunction,ComponentPad*
%ADD19C,1.500000*%
G04 #@! TD*
G04 #@! TA.AperFunction,ComponentPad*
%ADD20C,2.000000*%
G04 #@! TD*
G04 #@! TA.AperFunction,ComponentPad*
%ADD21R,2.800000X2.800000*%
G04 #@! TD*
G04 #@! TA.AperFunction,ComponentPad*
%ADD22C,2.800000*%
G04 #@! TD*
G04 #@! TA.AperFunction,ComponentPad*
%ADD23O,2.200000X2.200000*%
G04 #@! TD*
G04 #@! TA.AperFunction,ComponentPad*
%ADD24R,2.200000X2.200000*%
G04 #@! TD*
G04 #@! TA.AperFunction,ComponentPad*
%ADD25C,3.300000*%
G04 #@! TD*
G04 #@! TA.AperFunction,ViaPad*
%ADD26C,0.800000*%
G04 #@! TD*
G04 #@! TA.AperFunction,Conductor*
%ADD27C,2.000000*%
G04 #@! TD*
G04 #@! TA.AperFunction,Conductor*
%ADD28C,3.000000*%
G04 #@! TD*
G04 #@! TA.AperFunction,Conductor*
%ADD29C,1.000000*%
G04 #@! TD*
G04 #@! TA.AperFunction,Conductor*
%ADD30C,0.254000*%
G04 #@! TD*
G04 APERTURE END LIST*
D10*
X0Y55000000D02*
X95000000Y55000000D01*
X0Y0D02*
X0Y55000000D01*
X5000000Y0D02*
X0Y0D01*
X95000000Y0D02*
X95000000Y55000000D01*
X5000000Y0D02*
X95000000Y0D01*
D11*
G04 #@! TO.P,J4,3*
G04 #@! TO.N,Earth_Protective*
X13660000Y45500000D03*
G04 #@! TO.P,J4,2*
X8580000Y45500000D03*
G04 #@! TO.P,J4,1*
X3500000Y45500000D03*
G04 #@! TD*
D12*
G04 #@! TO.P,R2,2*
G04 #@! TO.N,VPP*
X55000000Y26620000D03*
D13*
G04 #@! TO.P,R2,1*
G04 #@! TO.N,GNDPWR*
X55000000Y19000000D03*
G04 #@! TD*
D14*
G04 #@! TO.P,R1,2*
G04 #@! TO.N,Net-(F1-Pad1)*
X21060000Y44000000D03*
D15*
G04 #@! TO.P,R1,1*
G04 #@! TO.N,/L_switched*
X49000000Y44000000D03*
G04 #@! TD*
D16*
G04 #@! TO.P,K1,14*
G04 #@! TO.N,/L_switched*
X29000000Y34000000D03*
G04 #@! TO.P,K1,21*
G04 #@! TO.N,Net-(F1-Pad1)*
X36500000Y29000000D03*
G04 #@! TO.P,K1,12*
G04 #@! TO.N,Net-(K1-Pad12)*
X29000000Y24000000D03*
G04 #@! TO.P,K1,22*
G04 #@! TO.N,Net-(K1-Pad22)*
X36500000Y24000000D03*
G04 #@! TO.P,K1,24*
G04 #@! TO.N,/L_switched*
X36500000Y34000000D03*
G04 #@! TO.P,K1,11*
G04 #@! TO.N,Net-(F1-Pad1)*
X29000000Y29000000D03*
G04 #@! TO.P,K1,A2*
G04 #@! TO.N,Net-(D1-Pad1)*
X36500000Y9000000D03*
D17*
G04 #@! TO.P,K1,A1*
G04 #@! TO.N,Net-(D1-Pad2)*
X29000000Y9000000D03*
G04 #@! TD*
D18*
G04 #@! TO.P,J3,2*
G04 #@! TO.N,GNDPWR*
X86500000Y19920000D03*
G04 #@! TO.P,J3,1*
G04 #@! TO.N,VPP*
X86500000Y25000000D03*
G04 #@! TD*
D19*
G04 #@! TO.P,J2,1*
G04 #@! TO.N,Net-(D1-Pad1)*
X43250000Y7000000D03*
G04 #@! TO.P,J2,2*
G04 #@! TO.N,Net-(D1-Pad2)*
X46750000Y7000000D03*
G04 #@! TD*
D18*
G04 #@! TO.P,J1,3*
G04 #@! TO.N,Earth_Protective*
X10000000Y30160000D03*
G04 #@! TO.P,J1,2*
G04 #@! TO.N,Net-(F1-Pad2)*
X10000000Y25080000D03*
G04 #@! TO.P,J1,1*
G04 #@! TO.N,Net-(D2-Pad2)*
X10000000Y20000000D03*
G04 #@! TD*
D20*
G04 #@! TO.P,F1,2*
G04 #@! TO.N,Net-(F1-Pad2)*
X17920000Y28010000D03*
G04 #@! TO.P,F1,1*
G04 #@! TO.N,Net-(F1-Pad1)*
X23000000Y28000000D03*
G04 #@! TD*
D21*
G04 #@! TO.P,D2,1*
G04 #@! TO.N,VPP*
X46000000Y15000000D03*
D22*
G04 #@! TO.P,D2,2*
G04 #@! TO.N,Net-(D2-Pad2)*
X46000000Y20080000D03*
G04 #@! TO.P,D2,3*
G04 #@! TO.N,/L_switched*
X46000000Y25160000D03*
G04 #@! TO.P,D2,4*
G04 #@! TO.N,GNDPWR*
X46000000Y30240000D03*
G04 #@! TD*
D23*
G04 #@! TO.P,D1,2*
G04 #@! TO.N,Net-(D1-Pad2)*
X23840000Y3000000D03*
D24*
G04 #@! TO.P,D1,1*
G04 #@! TO.N,Net-(D1-Pad1)*
X34000000Y3000000D03*
G04 #@! TD*
G04 #@! TO.P,C2,1*
G04 #@! TO.N,VPP*
G04 #@! TA.AperFunction,ComponentPad*
G36*
G01*
X70825000Y36350000D02*
X69175000Y36350000D01*
G75*
G02*
X68350000Y37175000I0J825000D01*
G01*
X68350000Y38825000D01*
G75*
G02*
X69175000Y39650000I825000J0D01*
G01*
X70825000Y39650000D01*
G75*
G02*
X71650000Y38825000I0J-825000D01*
G01*
X71650000Y37175000D01*
G75*
G02*
X70825000Y36350000I-825000J0D01*
G01*
G37*
G04 #@! TD.AperFunction*
D25*
G04 #@! TO.P,C2,2*
G04 #@! TO.N,GNDPWR*
X70000000Y48000000D03*
G04 #@! TD*
G04 #@! TO.P,C1,1*
G04 #@! TO.N,VPP*
G04 #@! TA.AperFunction,ComponentPad*
G36*
G01*
X68175000Y21650000D02*
X69825000Y21650000D01*
G75*
G02*
X70650000Y20825000I0J-825000D01*
G01*
X70650000Y19175000D01*
G75*
G02*
X69825000Y18350000I-825000J0D01*
G01*
X68175000Y18350000D01*
G75*
G02*
X67350000Y19175000I0J825000D01*
G01*
X67350000Y20825000D01*
G75*
G02*
X68175000Y21650000I825000J0D01*
G01*
G37*
G04 #@! TD.AperFunction*
G04 #@! TO.P,C1,2*
G04 #@! TO.N,GNDPWR*
X69000000Y10000000D03*
G04 #@! TD*
D26*
G04 #@! TO.N,VPP*
X83500000Y25000000D03*
X82000000Y25000000D03*
X80500000Y25000000D03*
X79000000Y25000000D03*
X77500000Y25000000D03*
X76000000Y25000000D03*
X74750000Y26250000D03*
X73500000Y27500000D03*
X72000000Y28000000D03*
X70000000Y28000000D03*
X68000000Y28000000D03*
X66000000Y28000000D03*
X64000000Y28000000D03*
X62000000Y28000000D03*
X60000000Y28000000D03*
X58000000Y28000000D03*
X55940000Y27560000D03*
X70000000Y34000000D03*
X70000000Y32000000D03*
X70000000Y30000000D03*
X70000000Y25500000D03*
X70000000Y23000000D03*
G04 #@! TO.N,GNDPWR*
X67500000Y12500000D03*
X68500000Y12500000D03*
X69500000Y12500000D03*
X70500000Y12500000D03*
X71500000Y12500000D03*
X67500000Y13500000D03*
X68500000Y13500000D03*
X69500000Y13500000D03*
X70500000Y13500000D03*
X71500000Y13500000D03*
X68000000Y45000000D03*
X69000000Y45000000D03*
X70000000Y45000000D03*
X71000000Y45000000D03*
X72000000Y45000000D03*
X72000000Y46000000D03*
X68000000Y46000000D03*
X67000000Y46000000D03*
X67000000Y45000000D03*
X73000000Y45000000D03*
X73000000Y47000000D03*
X73000000Y46000000D03*
X67000000Y47000000D03*
X85000000Y18000000D03*
X86000000Y18000000D03*
X87000000Y18000000D03*
X88000000Y18000000D03*
X89000000Y18000000D03*
X84000000Y18000000D03*
X90000000Y18000000D03*
X90000000Y19000000D03*
X90000000Y20000000D03*
X90000000Y21000000D03*
X89000000Y21000000D03*
X89000000Y20000000D03*
X89000000Y19000000D03*
X84000000Y19000000D03*
X84000000Y20000000D03*
X83000000Y18000000D03*
X83000000Y19000000D03*
X83000000Y20000000D03*
X84000000Y21000000D03*
X83000000Y21000000D03*
X66500000Y13500000D03*
X66500000Y12500000D03*
X71500000Y11500000D03*
X66500000Y11500000D03*
G04 #@! TD*
D27*
G04 #@! TO.N,VPP*
X70000000Y21000000D02*
X69000000Y20000000D01*
X70000000Y38000000D02*
X70000000Y28000000D01*
X70000000Y28000000D02*
X70000000Y21000000D01*
X55000000Y26620000D02*
X56380000Y28000000D01*
X56380000Y28000000D02*
X70000000Y28000000D01*
X54620000Y26620000D02*
X55000000Y26620000D01*
D28*
X47576858Y15999990D02*
X50500000Y18923132D01*
X46499990Y15999990D02*
X47576858Y15999990D01*
X46000000Y15000000D02*
X46000000Y15500000D01*
X46000000Y15500000D02*
X46499990Y15999990D01*
X50500000Y18923132D02*
X50500000Y23000000D01*
X50500000Y23000000D02*
X52500000Y25000000D01*
X52500000Y25000000D02*
X55000000Y25000000D01*
X55000000Y25000000D02*
X56500000Y25000000D01*
D27*
G04 #@! TO.N,GNDPWR*
X64000000Y10000000D02*
X69000000Y10000000D01*
X55000000Y19000000D02*
X64000000Y10000000D01*
X69000000Y10000000D02*
X76000000Y10000000D01*
X76000000Y10000000D02*
X85920000Y19920000D01*
D29*
G04 #@! TO.N,Net-(D1-Pad2)*
X23840000Y3840000D02*
X29000000Y9000000D01*
X23840000Y3000000D02*
X23840000Y3840000D01*
X46750000Y7000000D02*
X41750000Y12000000D01*
X32000000Y12000000D02*
X29000000Y9000000D01*
X41750000Y12000000D02*
X32000000Y12000000D01*
G04 #@! TO.N,Net-(D1-Pad1)*
X36500000Y5500000D02*
X34000000Y3000000D01*
X36500000Y9000000D02*
X36500000Y5500000D01*
X36500000Y9000000D02*
X37250000Y9000000D01*
X38500000Y7000000D02*
X36500000Y9000000D01*
X43250000Y7000000D02*
X38500000Y7000000D01*
D28*
G04 #@! TO.N,Net-(F1-Pad2)*
X10000000Y25080000D02*
X14990000Y25080000D01*
X14990000Y25080000D02*
X17920000Y28010000D01*
D27*
G04 #@! TO.N,Net-(F1-Pad1)*
X21060000Y44000000D02*
X23000000Y42060000D01*
X23000000Y42060000D02*
X23000000Y28000000D01*
D28*
X23000000Y28000000D02*
X24000000Y29000000D01*
X24000000Y29000000D02*
X29000000Y29000000D01*
X29000000Y29000000D02*
X36500000Y29000000D01*
D27*
G04 #@! TO.N,Earth_Protective*
X10000000Y30160000D02*
X9840000Y30160000D01*
X7500000Y32500000D02*
X7500000Y45500000D01*
X3500000Y45500000D02*
X7500000Y45500000D01*
X9840000Y30160000D02*
X7500000Y32500000D01*
X7500000Y45500000D02*
X13660000Y45500000D01*
D28*
G04 #@! TO.N,/L_switched*
X29000000Y34000000D02*
X36500000Y34000000D01*
X43340000Y25160000D02*
X46000000Y25160000D01*
X41500000Y27000000D02*
X43340000Y25160000D01*
X41500000Y31000000D02*
X41500000Y27000000D01*
X36500000Y34000000D02*
X38500000Y34000000D01*
X38500000Y34000000D02*
X41500000Y31000000D01*
D27*
X41500000Y36500000D02*
X41500000Y31000000D01*
X49000000Y44000000D02*
X41500000Y36500000D01*
D28*
G04 #@! TO.N,Net-(D2-Pad2)*
X45920000Y20000000D02*
X46000000Y20080000D01*
X10000000Y20000000D02*
X45920000Y20000000D01*
G04 #@! TD*
D30*
G04 #@! TO.N,VPP*
G36*
X75873000Y38947394D02*
G01*
X75873000Y33000000D01*
X75875440Y32975224D01*
X75882667Y32951399D01*
X75894403Y32929443D01*
X75910197Y32910197D01*
X78910197Y29910197D01*
X78929443Y29894403D01*
X78951399Y29882667D01*
X78975224Y29875440D01*
X79000000Y29873000D01*
X87436500Y29873000D01*
X88873000Y27957667D01*
X88873000Y24052606D01*
X87947394Y23127000D01*
X82000000Y23127000D01*
X81975224Y23124560D01*
X81951399Y23117333D01*
X81934659Y23108902D01*
X71964822Y17127000D01*
X66042333Y17127000D01*
X58076200Y23101600D01*
X58054915Y23114514D01*
X58031519Y23123027D01*
X58000000Y23127000D01*
X55052606Y23127000D01*
X53127000Y25052606D01*
X53127000Y38947394D01*
X56052606Y41873000D01*
X72947394Y41873000D01*
X75873000Y38947394D01*
G37*
X75873000Y38947394D02*
X75873000Y33000000D01*
X75875440Y32975224D01*
X75882667Y32951399D01*
X75894403Y32929443D01*
X75910197Y32910197D01*
X78910197Y29910197D01*
X78929443Y29894403D01*
X78951399Y29882667D01*
X78975224Y29875440D01*
X79000000Y29873000D01*
X87436500Y29873000D01*
X88873000Y27957667D01*
X88873000Y24052606D01*
X87947394Y23127000D01*
X82000000Y23127000D01*
X81975224Y23124560D01*
X81951399Y23117333D01*
X81934659Y23108902D01*
X71964822Y17127000D01*
X66042333Y17127000D01*
X58076200Y23101600D01*
X58054915Y23114514D01*
X58031519Y23123027D01*
X58000000Y23127000D01*
X55052606Y23127000D01*
X53127000Y25052606D01*
X53127000Y38947394D01*
X56052606Y41873000D01*
X72947394Y41873000D01*
X75873000Y38947394D01*
G04 #@! TO.N,GNDPWR*
G36*
X94340000Y660000D02*
G01*
X53127000Y660000D01*
X53127000Y10307983D01*
X81873000Y10307983D01*
X81873000Y9692017D01*
X81993169Y9087888D01*
X82228889Y8518810D01*
X82571101Y8006654D01*
X83006654Y7571101D01*
X83518810Y7228889D01*
X84087888Y6993169D01*
X84692017Y6873000D01*
X85307983Y6873000D01*
X85912112Y6993169D01*
X86481190Y7228889D01*
X86993346Y7571101D01*
X87428899Y8006654D01*
X87771111Y8518810D01*
X88006831Y9087888D01*
X88127000Y9692017D01*
X88127000Y10307983D01*
X88006831Y10912112D01*
X87771111Y11481190D01*
X87428899Y11993346D01*
X86993346Y12428899D01*
X86481190Y12771111D01*
X85912112Y13006831D01*
X85307983Y13127000D01*
X84692017Y13127000D01*
X84087888Y13006831D01*
X83518810Y12771111D01*
X83006654Y12428899D01*
X82571101Y11993346D01*
X82228889Y11481190D01*
X81993169Y10912112D01*
X81873000Y10307983D01*
X53127000Y10307983D01*
X53127000Y18794086D01*
X53139710Y18923131D01*
X53127000Y19052176D01*
X53127000Y21911862D01*
X53588139Y22373000D01*
X54033182Y22373000D01*
X54203091Y22203091D01*
X54373872Y22062934D01*
X54568716Y21958788D01*
X54780133Y21894655D01*
X55000000Y21873000D01*
X57624333Y21873000D01*
X65323800Y16098400D01*
X65568716Y15958788D01*
X65780133Y15894655D01*
X66000000Y15873000D01*
X72000000Y15873000D01*
X72165876Y15885274D01*
X72380161Y15939054D01*
X72579837Y16033605D01*
X82312162Y21873000D01*
X88000000Y21873000D01*
X88219867Y21894655D01*
X88431284Y21958788D01*
X88626128Y22062934D01*
X88796909Y22203091D01*
X89796909Y23203091D01*
X89937066Y23373872D01*
X90041212Y23568716D01*
X90105345Y23780133D01*
X90127000Y24000000D01*
X90127000Y28000000D01*
X90091740Y28279700D01*
X90016196Y28487314D01*
X89901600Y28676200D01*
X88401600Y30676200D01*
X88296909Y30796909D01*
X88126128Y30937066D01*
X87931284Y31041212D01*
X87719867Y31105345D01*
X87500000Y31127000D01*
X79466818Y31127000D01*
X77127000Y33466818D01*
X77127000Y35307983D01*
X81873000Y35307983D01*
X81873000Y34692017D01*
X81993169Y34087888D01*
X82228889Y33518810D01*
X82571101Y33006654D01*
X83006654Y32571101D01*
X83518810Y32228889D01*
X84087888Y31993169D01*
X84692017Y31873000D01*
X85307983Y31873000D01*
X85912112Y31993169D01*
X86481190Y32228889D01*
X86993346Y32571101D01*
X87428899Y33006654D01*
X87771111Y33518810D01*
X88006831Y34087888D01*
X88127000Y34692017D01*
X88127000Y35307983D01*
X88006831Y35912112D01*
X87771111Y36481190D01*
X87428899Y36993346D01*
X86993346Y37428899D01*
X86481190Y37771111D01*
X85912112Y38006831D01*
X85307983Y38127000D01*
X84692017Y38127000D01*
X84087888Y38006831D01*
X83518810Y37771111D01*
X83006654Y37428899D01*
X82571101Y36993346D01*
X82228889Y36481190D01*
X81993169Y35912112D01*
X81873000Y35307983D01*
X77127000Y35307983D01*
X77127000Y39000000D01*
X77105345Y39219867D01*
X77041212Y39431284D01*
X76937066Y39626128D01*
X76796909Y39796909D01*
X73796909Y42796909D01*
X73626128Y42937066D01*
X73431284Y43041212D01*
X73219867Y43105345D01*
X73000000Y43127000D01*
X56000000Y43127000D01*
X55780133Y43105345D01*
X55568716Y43041212D01*
X55373872Y42937066D01*
X55203091Y42796909D01*
X53127000Y40720818D01*
X53127000Y49873000D01*
X94340001Y49873000D01*
X94340000Y660000D01*
G37*
X94340000Y660000D02*
X53127000Y660000D01*
X53127000Y10307983D01*
X81873000Y10307983D01*
X81873000Y9692017D01*
X81993169Y9087888D01*
X82228889Y8518810D01*
X82571101Y8006654D01*
X83006654Y7571101D01*
X83518810Y7228889D01*
X84087888Y6993169D01*
X84692017Y6873000D01*
X85307983Y6873000D01*
X85912112Y6993169D01*
X86481190Y7228889D01*
X86993346Y7571101D01*
X87428899Y8006654D01*
X87771111Y8518810D01*
X88006831Y9087888D01*
X88127000Y9692017D01*
X88127000Y10307983D01*
X88006831Y10912112D01*
X87771111Y11481190D01*
X87428899Y11993346D01*
X86993346Y12428899D01*
X86481190Y12771111D01*
X85912112Y13006831D01*
X85307983Y13127000D01*
X84692017Y13127000D01*
X84087888Y13006831D01*
X83518810Y12771111D01*
X83006654Y12428899D01*
X82571101Y11993346D01*
X82228889Y11481190D01*
X81993169Y10912112D01*
X81873000Y10307983D01*
X53127000Y10307983D01*
X53127000Y18794086D01*
X53139710Y18923131D01*
X53127000Y19052176D01*
X53127000Y21911862D01*
X53588139Y22373000D01*
X54033182Y22373000D01*
X54203091Y22203091D01*
X54373872Y22062934D01*
X54568716Y21958788D01*
X54780133Y21894655D01*
X55000000Y21873000D01*
X57624333Y21873000D01*
X65323800Y16098400D01*
X65568716Y15958788D01*
X65780133Y15894655D01*
X66000000Y15873000D01*
X72000000Y15873000D01*
X72165876Y15885274D01*
X72380161Y15939054D01*
X72579837Y16033605D01*
X82312162Y21873000D01*
X88000000Y21873000D01*
X88219867Y21894655D01*
X88431284Y21958788D01*
X88626128Y22062934D01*
X88796909Y22203091D01*
X89796909Y23203091D01*
X89937066Y23373872D01*
X90041212Y23568716D01*
X90105345Y23780133D01*
X90127000Y24000000D01*
X90127000Y28000000D01*
X90091740Y28279700D01*
X90016196Y28487314D01*
X89901600Y28676200D01*
X88401600Y30676200D01*
X88296909Y30796909D01*
X88126128Y30937066D01*
X87931284Y31041212D01*
X87719867Y31105345D01*
X87500000Y31127000D01*
X79466818Y31127000D01*
X77127000Y33466818D01*
X77127000Y35307983D01*
X81873000Y35307983D01*
X81873000Y34692017D01*
X81993169Y34087888D01*
X82228889Y33518810D01*
X82571101Y33006654D01*
X83006654Y32571101D01*
X83518810Y32228889D01*
X84087888Y31993169D01*
X84692017Y31873000D01*
X85307983Y31873000D01*
X85912112Y31993169D01*
X86481190Y32228889D01*
X86993346Y32571101D01*
X87428899Y33006654D01*
X87771111Y33518810D01*
X88006831Y34087888D01*
X88127000Y34692017D01*
X88127000Y35307983D01*
X88006831Y35912112D01*
X87771111Y36481190D01*
X87428899Y36993346D01*
X86993346Y37428899D01*
X86481190Y37771111D01*
X85912112Y38006831D01*
X85307983Y38127000D01*
X84692017Y38127000D01*
X84087888Y38006831D01*
X83518810Y37771111D01*
X83006654Y37428899D01*
X82571101Y36993346D01*
X82228889Y36481190D01*
X81993169Y35912112D01*
X81873000Y35307983D01*
X77127000Y35307983D01*
X77127000Y39000000D01*
X77105345Y39219867D01*
X77041212Y39431284D01*
X76937066Y39626128D01*
X76796909Y39796909D01*
X73796909Y42796909D01*
X73626128Y42937066D01*
X73431284Y43041212D01*
X73219867Y43105345D01*
X73000000Y43127000D01*
X56000000Y43127000D01*
X55780133Y43105345D01*
X55568716Y43041212D01*
X55373872Y42937066D01*
X55203091Y42796909D01*
X53127000Y40720818D01*
X53127000Y49873000D01*
X94340001Y49873000D01*
X94340000Y660000D01*
G04 #@! TD*
M02*
